{
    "accessors": {
        "accessor_buffer_Cube.014_0": {
            "bufferView": "bufferView_buffer_Cube.014_0",
            "byteOffset": 0,
            "byteStride": 12,
            "componentType": 5126,
            "count": 475,
            "max": [
                1.0,
                1.1536728143692017,
                1.092098593711853
            ],
            "min": [
                -1.0,
                -1.0,
                -1.0816125869750977
            ],
            "type": "VEC3"
        },
        "accessor_buffer_Cube.014_1": {
            "bufferView": "bufferView_buffer_Cube.014_0",
            "byteOffset": 5700,
            "byteStride": 12,
            "componentType": 5126,
            "count": 475,
            "max": [
                1.0,
                1.0,
                1.0
            ],
            "min": [
                -1.0,
                -1.0,
                -1.0
            ],
            "type": "VEC3"
        },
        "accessor_buffer_Cube.014_2": {
            "bufferView": "bufferView_buffer_Cube.014_0",
            "byteOffset": 11400,
            "byteStride": 8,
            "componentType": 5126,
            "count": 475,
            "max": [
                0.9952493906021118,
                0.9943770258687437
            ],
            "min": [
                0.004750565160065889,
                0.005622923374176025
            ],
            "type": "VEC2"
        },
        "accessor_buffer_Cube.014_3": {
            "bufferView": "bufferView_buffer_Cube.014_1",
            "byteOffset": 0,
            "byteStride": 2,
            "componentType": 5123,
            "count": 486,
            "max": [
                473
            ],
            "min": [
                1
            ],
            "type": "SCALAR"
        },
        "accessor_buffer_Cube.014_4": {
            "bufferView": "bufferView_buffer_Cube.014_2",
            "byteOffset": 0,
            "byteStride": 2,
            "componentType": 5123,
            "count": 438,
            "max": [
                474
            ],
            "min": [
                0
            ],
            "type": "SCALAR"
        },
        "accessor_buffer_Cube.017_0": {
            "bufferView": "bufferView_buffer_Cube.017_0",
            "byteOffset": 0,
            "byteStride": 12,
            "componentType": 5126,
            "count": 475,
            "max": [
                1.0,
                1.1536728143692017,
                1.092098593711853
            ],
            "min": [
                -1.0,
                -1.0,
                -1.0816125869750977
            ],
            "type": "VEC3"
        },
        "accessor_buffer_Cube.017_1": {
            "bufferView": "bufferView_buffer_Cube.017_0",
            "byteOffset": 5700,
            "byteStride": 12,
            "componentType": 5126,
            "count": 475,
            "max": [
                1.0,
                1.0,
                1.0
            ],
            "min": [
                -1.0,
                -1.0,
                -1.0
            ],
            "type": "VEC3"
        },
        "accessor_buffer_Cube.017_2": {
            "bufferView": "bufferView_buffer_Cube.017_0",
            "byteOffset": 11400,
            "byteStride": 8,
            "componentType": 5126,
            "count": 475,
            "max": [
                0.9952493906021118,
                0.9943770258687437
            ],
            "min": [
                0.004750565160065889,
                0.005622923374176025
            ],
            "type": "VEC2"
        },
        "accessor_buffer_Cube.017_3": {
            "bufferView": "bufferView_buffer_Cube.017_1",
            "byteOffset": 0,
            "byteStride": 2,
            "componentType": 5123,
            "count": 486,
            "max": [
                473
            ],
            "min": [
                1
            ],
            "type": "SCALAR"
        },
        "accessor_buffer_Cube.017_4": {
            "bufferView": "bufferView_buffer_Cube.017_2",
            "byteOffset": 0,
            "byteStride": 2,
            "componentType": 5123,
            "count": 438,
            "max": [
                474
            ],
            "min": [
                0
            ],
            "type": "SCALAR"
        }
    },
    "asset": {
        "profile": {
            "api": "WebGL",
            "version": "1.0.3"
        },
        "version": "1.0"
    },
    "bufferViews": {
        "bufferView_buffer_Cube.014_0": {
            "buffer": "buffer_combined",
            "byteLength": 15200,
            "byteOffset": 0,
            "target": 34962
        },
        "bufferView_buffer_Cube.014_1": {
            "buffer": "buffer_combined",
            "byteLength": 972,
            "byteOffset": 15200,
            "target": 34963
        },
        "bufferView_buffer_Cube.014_2": {
            "buffer": "buffer_combined",
            "byteLength": 876,
            "byteOffset": 16172,
            "target": 34963
        },
        "bufferView_buffer_Cube.017_0": {
            "buffer": "buffer_combined",
            "byteLength": 15200,
            "byteOffset": 17048,
            "target": 34962
        },
        "bufferView_buffer_Cube.017_1": {
            "buffer": "buffer_combined",
            "byteLength": 972,
            "byteOffset": 32248,
            "target": 34963
        },
        "bufferView_buffer_Cube.017_2": {
            "buffer": "buffer_combined",
            "byteLength": 876,
            "byteOffset": 33220,
            "target": 34963
        }
    },
    "buffers": {
        "buffer_combined": {
            "byteLength": 34096,
            "type": "arraybuffer",
            "uri": "data:text/plain;base64,"
        }
    },
    "extensions": {
        "KHR_materials_common": {
            "lights": {}
        }
    },
    "extensionsUsed": [
        "KHR_materials_common"
    ],
    "images": {
        "image_Wall2": {
            "uri": "Wall2.png"
        }
    },
    "materials": {
        "material_Wall2": {
            "extensions": {
                "KHR_materials_common": {
                    "technique": "PHONG",
                    "values": {
                        "ambient": [
                            1.0,
                            1.0,
                            1.0,
                            1.0
                        ],
                        "diffuse": "texture_Wall2",
                        "doubleSided": false,
                        "emission": [
                            0.0,
                            0.0,
                            0.0,
                            1.0
                        ],
                        "shininess": 50,
                        "specular": [
                            0.5,
                            0.5,
                            0.5,
                            1.0
                        ],
                        "transparency": 1.0,
                        "transparent": false
                    }
                }
            },
            "name": "Wall2"
        },
        "material_Wall2Trim": {
            "extensions": {
                "KHR_materials_common": {
                    "technique": "PHONG",
                    "values": {
                        "ambient": [
                            1.0,
                            1.0,
                            1.0,
                            1.0
                        ],
                        "diffuse": "texture_Wall2",
                        "doubleSided": false,
                        "emission": [
                            0.0,
                            0.0,
                            0.0,
                            1.0
                        ],
                        "shininess": 50,
                        "specular": [
                            0.5,
                            0.5,
                            0.5,
                            1.0
                        ],
                        "transparency": 1.0,
                        "transparent": false
                    }
                }
            },
            "name": "Wall2Trim"
        }
    },
    "meshes": {
        "mesh_Cube.014": {
            "name": "Cube.014",
            "primitives": [
                {
                    "attributes": {
                        "NORMAL": "accessor_buffer_Cube.014_1",
                        "POSITION": "accessor_buffer_Cube.014_0",
                        "TEXCOORD_0": "accessor_buffer_Cube.014_2"
                    },
                    "indices": "accessor_buffer_Cube.014_3",
                    "material": "material_Wall2",
                    "mode": 4
                },
                {
                    "attributes": {
                        "NORMAL": "accessor_buffer_Cube.014_1",
                        "POSITION": "accessor_buffer_Cube.014_0",
                        "TEXCOORD_0": "accessor_buffer_Cube.014_2"
                    },
                    "indices": "accessor_buffer_Cube.014_4",
                    "material": "material_Wall2Trim",
                    "mode": 4
                }
            ]
        },
        "mesh_Cube.017": {
            "name": "Cube.017",
            "primitives": [
                {
                    "attributes": {
                        "NORMAL": "accessor_buffer_Cube.017_1",
                        "POSITION": "accessor_buffer_Cube.017_0",
                        "TEXCOORD_0": "accessor_buffer_Cube.017_2"
                    },
                    "indices": "accessor_buffer_Cube.017_3",
                    "material": "material_Wall2",
                    "mode": 4
                },
                {
                    "attributes": {
                        "NORMAL": "accessor_buffer_Cube.017_1",
                        "POSITION": "accessor_buffer_Cube.017_0",
                        "TEXCOORD_0": "accessor_buffer_Cube.017_2"
                    },
                    "indices": "accessor_buffer_Cube.017_4",
                    "material": "material_Wall2Trim",
                    "mode": 4
                }
            ]
        }
    },
    "nodes": {
        "node_Wall2Alone.001": {
            "children": [],
            "matrix": [
                0.2707269489765167,
                0.16899971663951874,
                0.0037337327376008034,
                0.0,
                -3.527101993560791,
                5.65757942199707,
                -0.3341860771179199,
                0.0,
                -0.121766097843647,
                0.12129956483840942,
                3.338688850402832,
                0.0,
                -12.896617889404297,
                -4.236554145812988,
                2.471928834915161,
                1.0
            ],
            "meshes": [
                "mesh_Cube.014"
            ],
            "name": "Wall2Alone.001"
        },
        "node_Wall2Alone.002": {
            "children": [],
            "matrix": [
                -0.21209102869033813,
                0.23425036668777466,
                0.002032322809100151,
                0.0,
                -4.944659233093262,
                -4.474287033081055,
                -0.30240145325660706,
                0.0,
                -0.09785399585962296,
                -0.11757130175828934,
                3.3396084308624268,
                0.0,
                11.636683464050293,
                -3.3248298168182373,
                2.2269880771636963,
                1.0
            ],
            "meshes": [
                "mesh_Cube.017"
            ],
            "name": "Wall2Alone.002"
        },
        "node_scene_Scene_root": {
            "children": [
                "node_Wall2Alone.002",
                "node_Wall2Alone.001"
            ],
            "matrix": [
                1.0,
                0.0,
                0.0,
                0.0,
                0.0,
                0.0,
                -1.0,
                0.0,
                0.0,
                1.0,
                0.0,
                0.0,
                0.0,
                0.0,
                0.0,
                1.0
            ],
            "name": "node_scene_Scene_root"
        }
    },
    "samplers": {
        "sampler_default": {}
    },
    "scene": "scene_Scene",
    "scenes": {
        "scene_Scene": {
            "extras": {
                "active_camera": null,
                "background_color": [
                    0.35883867740631104,
                    0.35883867740631104,
                    0.35883867740631104
                ],
                "frames_per_second": 24
            },
            "name": "Scene",
            "nodes": [
                "node_scene_Scene_root"
            ]
        }
    },
    "textures": {
        "texture_Wall2": {
            "format": 6408,
            "internalFormat": 6408,
            "sampler": "sampler_default",
            "source": "image_Wall2"
        }
    }
}
