{
    "accessors": {
        "accessor_buffer_Object__0_0": {
            "bufferView": "bufferView_buffer_Object__0_0",
            "byteOffset": 0,
            "byteStride": 12,
            "componentType": 5126,
            "count": 7322,
            "max": [
                0.5299999713897705,
                0.10935000330209732,
                0.5299999713897705
            ],
            "min": [
                -0.5299999713897705,
                -0.10935000330209732,
                -0.5299999713897705
            ],
            "type": "VEC3"
        },
        "accessor_buffer_Object__0_1": {
            "bufferView": "bufferView_buffer_Object__0_0",
            "byteOffset": 87864,
            "byteStride": 12,
            "componentType": 5126,
            "count": 7322,
            "max": [
                1.0,
                1.0000001192092896,
                0.9994618892669678
            ],
            "min": [
                -1.0,
                -1.0000001192092896,
                -1.0
            ],
            "type": "VEC3"
        },
        "accessor_buffer_Object__0_2": {
            "bufferView": "bufferView_buffer_Object__0_0",
            "byteOffset": 175728,
            "byteStride": 8,
            "componentType": 5126,
            "count": 7322,
            "max": [
                1.0,
                1.0
            ],
            "min": [
                0.0,
                -0.1499999761581421
            ],
            "type": "VEC2"
        },
        "accessor_buffer_Object__0_3": {
            "bufferView": "bufferView_buffer_Object__0_1",
            "byteOffset": 0,
            "byteStride": 2,
            "componentType": 5123,
            "count": 3672,
            "max": [
                7293
            ],
            "min": [
                59
            ],
            "type": "SCALAR"
        },
        "accessor_buffer_Object__0_4": {
            "bufferView": "bufferView_buffer_Object__0_2",
            "byteOffset": 0,
            "byteStride": 2,
            "componentType": 5123,
            "count": 24774,
            "max": [
                7320
            ],
            "min": [
                1
            ],
            "type": "SCALAR"
        },
        "accessor_buffer_Object__0_5": {
            "bufferView": "bufferView_buffer_Object__0_3",
            "byteOffset": 0,
            "byteStride": 2,
            "componentType": 5123,
            "count": 1572,
            "max": [
                7316
            ],
            "min": [
                0
            ],
            "type": "SCALAR"
        },
        "accessor_buffer_Object__0_6": {
            "bufferView": "bufferView_buffer_Object__0_4",
            "byteOffset": 0,
            "byteStride": 2,
            "componentType": 5123,
            "count": 4995,
            "max": [
                7321
            ],
            "min": [
                9
            ],
            "type": "SCALAR"
        }
    },
    "asset": {
        "profile": {
            "api": "WebGL",
            "version": "1.0.3"
        },
        "version": "1.0"
    },
    "bufferViews": {
        "bufferView_buffer_Object__0_0": {
            "buffer": "buffer_combined",
            "byteLength": 234304,
            "byteOffset": 0,
            "target": 34962
        },
        "bufferView_buffer_Object__0_1": {
            "buffer": "buffer_combined",
            "byteLength": 7344,
            "byteOffset": 234304,
            "target": 34963
        },
        "bufferView_buffer_Object__0_2": {
            "buffer": "buffer_combined",
            "byteLength": 49548,
            "byteOffset": 241648,
            "target": 34963
        },
        "bufferView_buffer_Object__0_3": {
            "buffer": "buffer_combined",
            "byteLength": 3144,
            "byteOffset": 291196,
            "target": 34963
        },
        "bufferView_buffer_Object__0_4": {
            "buffer": "buffer_combined",
            "byteLength": 9990,
            "byteOffset": 294340,
            "target": 34963
        }
    },
    "buffers": {
        "buffer_combined": {
            "byteLength": 304330,
            "type": "arraybuffer",
            "uri": "data:text/plain;base64,"
        }
    },
    "extensions": {
        "KHR_materials_common": {
            "lights": {}
        }
    },
    "extensionsUsed": [
        "KHR_materials_common"
    ],
    "images": {
        "image_bump01.jpg": {
            "uri": "bump01.jpg.jpg"
        },
        "image_bump02.jpg": {
            "uri": "bump02.jpg"
        },
        "image_map01.jpg": {
            "uri": "map01.jpg"
        },
        "image_map02.jpg": {
            "uri": "map02.jpg"
        },
        "image_map03.jpg": {
            "uri": "map03.jpg.jpg"
        }
    },
    "materials": {
        "material_steel": {
            "extensions": {
                "KHR_materials_common": {
                    "technique": "PHONG",
                    "values": {
                        "ambient": [
                            0.0,
                            0.0,
                            0.0,
                            1.0
                        ],
                        "diffuse": "texture_Kd",
                        "doubleSided": false,
                        "emission": [
                            0.0,
                            0.0,
                            0.0,
                            1.0
                        ],
                        "shininess": 24,
                        "specular": [
                            0.19607800245285034,
                            0.19607800245285034,
                            0.19607800245285034,
                            1.0
                        ],
                        "transparency": 1.0,
                        "transparent": false
                    }
                }
            },
            "name": "steel"
        },
        "material_steel_drk": {
            "extensions": {
                "KHR_materials_common": {
                    "technique": "PHONG",
                    "values": {
                        "ambient": [
                            0.0,
                            0.0,
                            0.0,
                            1.0
                        ],
                        "diffuse": "texture_Kd.002",
                        "doubleSided": false,
                        "emission": [
                            0.0,
                            0.0,
                            0.0,
                            1.0
                        ],
                        "shininess": 12,
                        "specular": [
                            0.2998040020465851,
                            0.26529398560523987,
                            0.24588200449943542,
                            1.0
                        ],
                        "transparency": 1.0,
                        "transparent": false
                    }
                }
            },
            "name": "steel_drk"
        },
        "material_wood1": {
            "extensions": {
                "KHR_materials_common": {
                    "technique": "PHONG",
                    "values": {
                        "ambient": [
                            0.0,
                            0.0,
                            0.0,
                            1.0
                        ],
                        "diffuse": "texture_Kd.001",
                        "doubleSided": false,
                        "emission": [
                            0.0,
                            0.0,
                            0.0,
                            1.0
                        ],
                        "shininess": 6,
                        "specular": [
                            0.1529410034418106,
                            0.10196100175380707,
                            0.07156860083341599,
                            1.0
                        ],
                        "transparency": 1.0,
                        "transparent": false
                    }
                }
            },
            "name": "wood1"
        },
        "material_wood2": {
            "extensions": {
                "KHR_materials_common": {
                    "technique": "PHONG",
                    "values": {
                        "ambient": [
                            0.0,
                            0.0,
                            0.0,
                            1.0
                        ],
                        "diffuse": "texture_Kd.003",
                        "doubleSided": false,
                        "emission": [
                            0.0,
                            0.0,
                            0.0,
                            1.0
                        ],
                        "shininess": 24,
                        "specular": [
                            0.1647060066461563,
                            0.09196080267429352,
                            0.04803920164704323,
                            1.0
                        ],
                        "transparency": 1.0,
                        "transparent": false
                    }
                }
            },
            "name": "wood2"
        }
    },
    "meshes": {
        "mesh_Object__0": {
            "name": "Object__0",
            "primitives": [
                {
                    "attributes": {
                        "NORMAL": "accessor_buffer_Object__0_1",
                        "POSITION": "accessor_buffer_Object__0_0",
                        "TEXCOORD_0": "accessor_buffer_Object__0_2"
                    },
                    "indices": "accessor_buffer_Object__0_3",
                    "material": "material_steel_drk",
                    "mode": 4
                },
                {
                    "attributes": {
                        "NORMAL": "accessor_buffer_Object__0_1",
                        "POSITION": "accessor_buffer_Object__0_0",
                        "TEXCOORD_0": "accessor_buffer_Object__0_2"
                    },
                    "indices": "accessor_buffer_Object__0_4",
                    "material": "material_steel",
                    "mode": 4
                },
                {
                    "attributes": {
                        "NORMAL": "accessor_buffer_Object__0_1",
                        "POSITION": "accessor_buffer_Object__0_0",
                        "TEXCOORD_0": "accessor_buffer_Object__0_2"
                    },
                    "indices": "accessor_buffer_Object__0_5",
                    "material": "material_wood2",
                    "mode": 4
                },
                {
                    "attributes": {
                        "NORMAL": "accessor_buffer_Object__0_1",
                        "POSITION": "accessor_buffer_Object__0_0",
                        "TEXCOORD_0": "accessor_buffer_Object__0_2"
                    },
                    "indices": "accessor_buffer_Object__0_6",
                    "material": "material_wood1",
                    "mode": 4
                }
            ]
        }
    },
    "nodes": {
        "node_Object__0": {
            "children": [],
            "matrix": [
                1.0,
                0.0,
                0.0,
                0.0,
                0.0,
                -1.6292068494294654e-07,
                1.0,
                0.0,
                0.0,
                -1.0,
                -1.6292068494294654e-07,
                0.0,
                0.0,
                0.0,
                0.0,
                1.0
            ],
            "meshes": [
                "mesh_Object__0"
            ],
            "name": "Object__0"
        },
        "node_scene_Scene_root": {
            "children": [
                "node_Object__0"
            ],
            "matrix": [
                1.0,
                0.0,
                0.0,
                0.0,
                0.0,
                0.0,
                -1.0,
                0.0,
                0.0,
                1.0,
                0.0,
                0.0,
                0.0,
                0.0,
                0.0,
                1.0
            ],
            "name": "node_scene_Scene_root"
        }
    },
    "samplers": {
        "sampler_default": {}
    },
    "scene": "scene_Scene",
    "scenes": {
        "scene_Scene": {
            "extras": {
                "active_camera": null,
                "background_color": [
                    0.05087608844041824,
                    0.05087608844041824,
                    0.05087608844041824
                ],
                "frames_per_second": 24
            },
            "name": "Scene",
            "nodes": [
                "node_scene_Scene_root"
            ]
        }
    },
    "textures": {
        "texture_Bump": {
            "format": 6408,
            "internalFormat": 6408,
            "sampler": "sampler_default",
            "source": "image_bump01.jpg"
        },
        "texture_Bump.001": {
            "format": 6408,
            "internalFormat": 6408,
            "sampler": "sampler_default",
            "source": "image_bump01.jpg"
        },
        "texture_Bump.002": {
            "format": 6408,
            "internalFormat": 6408,
            "sampler": "sampler_default",
            "source": "image_bump02.jpg"
        },
        "texture_Bump.003": {
            "format": 6408,
            "internalFormat": 6408,
            "sampler": "sampler_default",
            "source": "image_bump02.jpg"
        },
        "texture_Bump.004": {
            "format": 6408,
            "internalFormat": 6408,
            "sampler": "sampler_default",
            "source": "image_bump01.jpg"
        },
        "texture_Bump.005": {
            "format": 6408,
            "internalFormat": 6408,
            "sampler": "sampler_default",
            "source": "image_bump01.jpg"
        },
        "texture_Kd": {
            "format": 6408,
            "internalFormat": 6408,
            "sampler": "sampler_default",
            "source": "image_map03.jpg"
        },
        "texture_Kd.001": {
            "format": 6408,
            "internalFormat": 6408,
            "sampler": "sampler_default",
            "source": "image_map01.jpg"
        },
        "texture_Kd.002": {
            "format": 6408,
            "internalFormat": 6408,
            "sampler": "sampler_default",
            "source": "image_bump01.jpg"
        },
        "texture_Kd.003": {
            "format": 6408,
            "internalFormat": 6408,
            "sampler": "sampler_default",
            "source": "image_map02.jpg"
        }
    }
}
