{
    "accessors": {
        "accessor_buffer_Untitled.002_0": {
            "bufferView": "bufferView_buffer_Untitled.002_0",
            "byteOffset": 0,
            "byteStride": 12,
            "componentType": 5126,
            "count": 8902,
            "max": [
                4.282001972198486,
                3.6299920082092285,
                25.569978713989258
            ],
            "min": [
                -4.278395175933838,
                -3.6295909881591797,
                -25.529769897460938
            ],
            "type": "VEC3"
        },
        "accessor_buffer_Untitled.002_1": {
            "bufferView": "bufferView_buffer_Untitled.002_0",
            "byteOffset": 106824,
            "byteStride": 12,
            "componentType": 5126,
            "count": 8902,
            "max": [
                0.999969482421875,
                0.999969482421875,
                0.999969482421875
            ],
            "min": [
                -0.999969482421875,
                -0.999969482421875,
                -0.999969482421875
            ],
            "type": "VEC3"
        },
        "accessor_buffer_Untitled.002_2": {
            "bufferView": "bufferView_buffer_Untitled.002_0",
            "byteOffset": 213648,
            "byteStride": 8,
            "componentType": 5126,
            "count": 8902,
            "max": [
                0.9891638159751892,
                0.9955197582021356
            ],
            "min": [
                0.004837571643292904,
                0.006727874279022217
            ],
            "type": "VEC2"
        },
        "accessor_buffer_Untitled.002_3": {
            "bufferView": "bufferView_buffer_Untitled.002_1",
            "byteOffset": 0,
            "byteStride": 2,
            "componentType": 5123,
            "count": 50802,
            "max": [
                8901
            ],
            "min": [
                0
            ],
            "type": "SCALAR"
        }
    },
    "asset": {
        "profile": {
            "api": "WebGL",
            "version": "1.0.3"
        },
        "version": "1.0"
    },
    "bufferViews": {
        "bufferView_buffer_Untitled.002_0": {
            "buffer": "buffer_combined",
            "byteLength": 284864,
            "byteOffset": 0,
            "target": 34962
        },
        "bufferView_buffer_Untitled.002_1": {
            "buffer": "buffer_combined",
            "byteLength": 101604,
            "byteOffset": 284864,
            "target": 34963
        }
    },
    "buffers": {
        "buffer_combined": {
            "byteLength": 386468,
            "type": "arraybuffer",
            "uri": "data:text/plain;base64,"
        }
    },
    "extensions": {
        "KHR_materials_common": {
            "lights": {}
        }
    },
    "extensionsUsed": [
        "KHR_materials_common"
    ],
    "images": {
        "image_ChibiStaffTextureSmall": {
            "uri": "ChibiStaffTextureSmall.jpg"
        }
    },
    "materials": {
        "material_Default": {
            "extensions": {
                "KHR_materials_common": {
                    "technique": "PHONG",
                    "values": {
                        "ambient": [
                            1.0,
                            1.0,
                            1.0,
                            1.0
                        ],
                        "diffuse": "texture_Texture",
                        "doubleSided": false,
                        "emission": [
                            0.0,
                            0.0,
                            0.0,
                            1.0
                        ],
                        "shininess": 50,
                        "specular": [
                            0.5,
                            0.5,
                            0.5,
                            1.0
                        ],
                        "transparency": 1.0,
                        "transparent": false
                    }
                }
            },
            "name": "Default"
        }
    },
    "meshes": {
        "mesh_Untitled.002": {
            "name": "Untitled.002",
            "primitives": [
                {
                    "attributes": {
                        "NORMAL": "accessor_buffer_Untitled.002_1",
                        "POSITION": "accessor_buffer_Untitled.002_0",
                        "TEXCOORD_0": "accessor_buffer_Untitled.002_2"
                    },
                    "indices": "accessor_buffer_Untitled.002_3",
                    "material": "material_Default",
                    "mode": 4
                }
            ]
        }
    },
    "nodes": {
        "node_Object003": {
            "children": [],
            "matrix": [
                0.10000000149011612,
                0.0,
                -1.1697599555660076e-09,
                0.0,
                0.0,
                0.10000000149011612,
                0.0,
                0.0,
                1.1697599555660076e-09,
                0.0,
                0.10000000149011612,
                0.0,
                0.0,
                0.0,
                0.0,
                1.0
            ],
            "meshes": [
                "mesh_Untitled.002"
            ],
            "name": "Object003"
        },
        "node_scene_Scene_root": {
            "children": [
                "node_Object003"
            ],
            "matrix": [
                1.0,
                0.0,
                0.0,
                0.0,
                0.0,
                0.0,
                -1.0,
                0.0,
                0.0,
                1.0,
                0.0,
                0.0,
                0.0,
                0.0,
                0.0,
                1.0
            ],
            "name": "node_scene_Scene_root"
        }
    },
    "samplers": {
        "sampler_default": {}
    },
    "scene": "scene_Scene",
    "scenes": {
        "scene_Scene": {
            "extras": {
                "active_camera": null,
                "background_color": [
                    0.05087608844041824,
                    0.05087608844041824,
                    0.05087608844041824
                ],
                "frames_per_second": 24
            },
            "name": "Scene",
            "nodes": [
                "node_scene_Scene_root"
            ]
        }
    },
    "textures": {
        "texture_Texture": {
            "format": 6408,
            "internalFormat": 6408,
            "sampler": "sampler_default",
            "source": "image_ChibiStaffTextureSmall"
        }
    }
}
