{
    "accessors": {
        "accessor_buffer_Untitled.010_0": {
            "bufferView": "bufferView_buffer_Untitled.010_0",
            "byteOffset": 0,
            "byteStride": 12,
            "componentType": 5126,
            "count": 8743,
            "max": [
                280.388671875,
                69.00128173828125,
                11.651968955993652
            ],
            "min": [
                -139.20782470703125,
                -68.57564544677734,
                -11.572992324829102
            ],
            "type": "VEC3"
        },
        "accessor_buffer_Untitled.010_1": {
            "bufferView": "bufferView_buffer_Untitled.010_0",
            "byteOffset": 104916,
            "byteStride": 12,
            "componentType": 5126,
            "count": 8743,
            "max": [
                1.0,
                1.0,
                1.0
            ],
            "min": [
                -1.0,
                -1.0,
                -1.0
            ],
            "type": "VEC3"
        },
        "accessor_buffer_Untitled.010_2": {
            "bufferView": "bufferView_buffer_Untitled.010_0",
            "byteOffset": 209832,
            "byteStride": 8,
            "componentType": 5126,
            "count": 8743,
            "max": [
                0.9998999834060669,
                0.9999080190682434
            ],
            "min": [
                9.995055006584153e-05,
                9.196996688842773e-05
            ],
            "type": "VEC2"
        },
        "accessor_buffer_Untitled.010_3": {
            "bufferView": "bufferView_buffer_Untitled.010_1",
            "byteOffset": 0,
            "byteStride": 2,
            "componentType": 5123,
            "count": 432,
            "max": [
                8693
            ],
            "min": [
                61
            ],
            "type": "SCALAR"
        },
        "accessor_buffer_Untitled.010_4": {
            "bufferView": "bufferView_buffer_Untitled.010_2",
            "byteOffset": 0,
            "byteStride": 2,
            "componentType": 5123,
            "count": 5010,
            "max": [
                8740
            ],
            "min": [
                1
            ],
            "type": "SCALAR"
        },
        "accessor_buffer_Untitled.010_5": {
            "bufferView": "bufferView_buffer_Untitled.010_3",
            "byteOffset": 0,
            "byteStride": 2,
            "componentType": 5123,
            "count": 16743,
            "max": [
                8742
            ],
            "min": [
                0
            ],
            "type": "SCALAR"
        }
    },
    "asset": {
        "profile": {
            "api": "WebGL",
            "version": "1.0.3"
        },
        "version": "1.0"
    },
    "bufferViews": {
        "bufferView_buffer_Untitled.010_0": {
            "buffer": "buffer_combined",
            "byteLength": 279776,
            "byteOffset": 0,
            "target": 34962
        },
        "bufferView_buffer_Untitled.010_1": {
            "buffer": "buffer_combined",
            "byteLength": 864,
            "byteOffset": 279776,
            "target": 34963
        },
        "bufferView_buffer_Untitled.010_2": {
            "buffer": "buffer_combined",
            "byteLength": 10020,
            "byteOffset": 280640,
            "target": 34963
        },
        "bufferView_buffer_Untitled.010_3": {
            "buffer": "buffer_combined",
            "byteLength": 33486,
            "byteOffset": 290660,
            "target": 34963
        }
    },
    "buffers": {
        "buffer_combined": {
            "byteLength": 324146,
            "type": "arraybuffer",
            "uri": "data:text/plain;base64,"
        }
    },
    "extensions": {
        "KHR_materials_common": {
            "lights": {}
        }
    },
    "extensionsUsed": [
        "KHR_materials_common"
    ],
    "images": {
        "image_SwordBaked": {
            "uri": "SwordBaked.png"
        }
    },
    "materials": {
        "material_Crystal": {
            "extensions": {
                "KHR_materials_common": {
                    "technique": "PHONG",
                    "values": {
                        "ambient": [
                            1.0,
                            1.0,
                            1.0,
                            1.0
                        ],
                        "diffuse": "texture_Baked",
                        "doubleSided": false,
                        "emission": [
                            0.0,
                            0.0,
                            0.0,
                            1.0
                        ],
                        "shininess": 50,
                        "specular": [
                            0.5,
                            0.5,
                            0.5,
                            1.0
                        ],
                        "transparency": 1.0,
                        "transparent": false
                    }
                }
            },
            "name": "Crystal"
        },
        "material_MetalBright": {
            "extensions": {
                "KHR_materials_common": {
                    "technique": "PHONG",
                    "values": {
                        "ambient": [
                            1.0,
                            1.0,
                            1.0,
                            1.0
                        ],
                        "diffuse": "texture_Baked",
                        "doubleSided": false,
                        "emission": [
                            0.0,
                            0.0,
                            0.0,
                            1.0
                        ],
                        "shininess": 50,
                        "specular": [
                            0.5,
                            0.5,
                            0.5,
                            1.0
                        ],
                        "transparency": 1.0,
                        "transparent": false
                    }
                }
            },
            "name": "MetalBright"
        },
        "material_MetalDark": {
            "extensions": {
                "KHR_materials_common": {
                    "technique": "PHONG",
                    "values": {
                        "ambient": [
                            1.0,
                            1.0,
                            1.0,
                            1.0
                        ],
                        "diffuse": "texture_Baked",
                        "doubleSided": false,
                        "emission": [
                            0.0,
                            0.0,
                            0.0,
                            1.0
                        ],
                        "shininess": 50,
                        "specular": [
                            0.5,
                            0.5,
                            0.5,
                            1.0
                        ],
                        "transparency": 1.0,
                        "transparent": false
                    }
                }
            },
            "name": "MetalDark"
        }
    },
    "meshes": {
        "mesh_Untitled.010": {
            "name": "Untitled.010",
            "primitives": [
                {
                    "attributes": {
                        "NORMAL": "accessor_buffer_Untitled.010_1",
                        "POSITION": "accessor_buffer_Untitled.010_0",
                        "TEXCOORD_0": "accessor_buffer_Untitled.010_2"
                    },
                    "indices": "accessor_buffer_Untitled.010_3",
                    "material": "material_MetalDark",
                    "mode": 4
                },
                {
                    "attributes": {
                        "NORMAL": "accessor_buffer_Untitled.010_1",
                        "POSITION": "accessor_buffer_Untitled.010_0",
                        "TEXCOORD_0": "accessor_buffer_Untitled.010_2"
                    },
                    "indices": "accessor_buffer_Untitled.010_4",
                    "material": "material_Crystal",
                    "mode": 4
                },
                {
                    "attributes": {
                        "NORMAL": "accessor_buffer_Untitled.010_1",
                        "POSITION": "accessor_buffer_Untitled.010_0",
                        "TEXCOORD_0": "accessor_buffer_Untitled.010_2"
                    },
                    "indices": "accessor_buffer_Untitled.010_5",
                    "material": "material_MetalBright",
                    "mode": 4
                }
            ]
        }
    },
    "nodes": {
        "node_BladeOuterCrystal.001": {
            "children": [],
            "matrix": [
                -4.194400382573349e-10,
                0.0,
                0.00959566980600357,
                0.0,
                0.0,
                0.00959566980600357,
                0.0,
                0.0,
                -0.00959566980600357,
                0.0,
                -4.194400382573349e-10,
                0.0,
                0.0,
                0.0,
                1.8034485578536987,
                1.0
            ],
            "meshes": [
                "mesh_Untitled.010"
            ],
            "name": "BladeOuterCrystal.001"
        },
        "node_scene_Scene_root": {
            "children": [
                "node_BladeOuterCrystal.001"
            ],
            "matrix": [
                1.0,
                0.0,
                0.0,
                0.0,
                0.0,
                0.0,
                -1.0,
                0.0,
                0.0,
                1.0,
                0.0,
                0.0,
                0.0,
                0.0,
                0.0,
                1.0
            ],
            "name": "node_scene_Scene_root"
        }
    },
    "samplers": {
        "sampler_default": {}
    },
    "scene": "scene_Scene",
    "scenes": {
        "scene_Scene": {
            "extras": {
                "active_camera": null,
                "background_color": [
                    0.05087608844041824,
                    0.05087608844041824,
                    0.05087608844041824
                ],
                "frames_per_second": 30
            },
            "name": "Scene",
            "nodes": [
                "node_scene_Scene_root"
            ]
        }
    },
    "textures": {
        "texture_Baked": {
            "format": 6408,
            "internalFormat": 6408,
            "sampler": "sampler_default",
            "source": "image_SwordBaked"
        }
    }
}
