{
    "accessors": {
        "accessor_buffer_sword7_0": {
            "bufferView": "bufferView_buffer_sword7_0",
            "byteOffset": 0,
            "byteStride": 12,
            "componentType": 5126,
            "count": 434,
            "max": [
                2.4874000549316406,
                34.54280090332031,
                0.6726999878883362
            ],
            "min": [
                -2.4874000549316406,
                -4.555600166320801,
                -0.6726999878883362
            ],
            "type": "VEC3"
        },
        "accessor_buffer_sword7_1": {
            "bufferView": "bufferView_buffer_sword7_0",
            "byteOffset": 5208,
            "byteStride": 12,
            "componentType": 5126,
            "count": 434,
            "max": [
                1.0,
                1.0,
                1.0
            ],
            "min": [
                -1.0,
                -1.0,
                -1.0
            ],
            "type": "VEC3"
        },
        "accessor_buffer_sword7_2": {
            "bufferView": "bufferView_buffer_sword7_0",
            "byteOffset": 10416,
            "byteStride": 8,
            "componentType": 5126,
            "count": 434,
            "max": [
                0.9977999925613403,
                0.9967000000178814
            ],
            "min": [
                0.0020000000949949026,
                0.0034000277519226074
            ],
            "type": "VEC2"
        },
        "accessor_buffer_sword7_3": {
            "bufferView": "bufferView_buffer_sword7_1",
            "byteOffset": 0,
            "byteStride": 2,
            "componentType": 5123,
            "count": 1110,
            "max": [
                433
            ],
            "min": [
                0
            ],
            "type": "SCALAR"
        }
    },
    "asset": {
        "profile": {
            "api": "WebGL",
            "version": "1.0.3"
        },
        "version": "1.0"
    },
    "bufferViews": {
        "bufferView_buffer_sword7_0": {
            "buffer": "buffer_combined",
            "byteLength": 13888,
            "byteOffset": 0,
            "target": 34962
        },
        "bufferView_buffer_sword7_1": {
            "buffer": "buffer_combined",
            "byteLength": 2220,
            "byteOffset": 13888,
            "target": 34963
        }
    },
    "buffers": {
        "buffer_combined": {
            "byteLength": 16108,
            "type": "arraybuffer",
            "uri": "data:text/plain;base64,"
        }
    },
    "extensions": {
        "KHR_materials_common": {
            "lights": {}
        }
    },
    "extensionsUsed": [
        "KHR_materials_common"
    ],
    "images": {
        "image_sword7": {
            "uri": "sword7.jpg"
        }
    },
    "materials": {
        "material_Material__214": {
            "extensions": {
                "KHR_materials_common": {
                    "technique": "PHONG",
                    "values": {
                        "ambient": [
                            0.5879999995231628,
                            0.5879999995231628,
                            0.5879999995231628,
                            1.0
                        ],
                        "diffuse": "texture_Kd",
                        "doubleSided": false,
                        "emission": [
                            0.0,
                            0.0,
                            0.0,
                            1.0
                        ],
                        "shininess": 6,
                        "specular": [
                            0.0,
                            0.0,
                            0.0,
                            1.0
                        ],
                        "transparency": 1.0,
                        "transparent": true
                    }
                }
            },
            "name": "Material__214"
        }
    },
    "meshes": {
        "mesh_sword7": {
            "name": "sword7",
            "primitives": [
                {
                    "attributes": {
                        "NORMAL": "accessor_buffer_sword7_1",
                        "POSITION": "accessor_buffer_sword7_0",
                        "TEXCOORD_0": "accessor_buffer_sword7_2"
                    },
                    "indices": "accessor_buffer_sword7_3",
                    "material": "material_Material__214",
                    "mode": 4
                }
            ]
        }
    },
    "nodes": {
        "node_scene_Scene_root": {
            "children": [
                "node_sword7"
            ],
            "matrix": [
                1.0,
                0.0,
                0.0,
                0.0,
                0.0,
                0.0,
                -1.0,
                0.0,
                0.0,
                1.0,
                0.0,
                0.0,
                0.0,
                0.0,
                0.0,
                1.0
            ],
            "name": "node_scene_Scene_root"
        },
        "node_sword7": {
            "children": [],
            "matrix": [
                1.0,
                0.0,
                0.0,
                0.0,
                0.0,
                -1.6292068494294654e-07,
                1.0,
                0.0,
                0.0,
                -1.0,
                -1.6292068494294654e-07,
                0.0,
                0.0,
                0.0,
                0.0,
                1.0
            ],
            "meshes": [
                "mesh_sword7"
            ],
            "name": "sword7"
        }
    },
    "samplers": {
        "sampler_default": {}
    },
    "scene": "scene_Scene",
    "scenes": {
        "scene_Scene": {
            "extras": {
                "active_camera": null,
                "background_color": [
                    0.05087608844041824,
                    0.05087608844041824,
                    0.05087608844041824
                ],
                "frames_per_second": 24
            },
            "name": "Scene",
            "nodes": [
                "node_scene_Scene_root"
            ]
        }
    },
    "textures": {
        "texture_Ka": {
            "format": 6408,
            "internalFormat": 6408,
            "sampler": "sampler_default",
            "source": "image_sword7"
        },
        "texture_Kd": {
            "format": 6408,
            "internalFormat": 6408,
            "sampler": "sampler_default",
            "source": "image_sword7"
        }
    }
}
