{
    "accessors": {
        "accessor_buffer_Untitled_0": {
            "bufferView": "bufferView_buffer_Untitled_0",
            "byteOffset": 0,
            "byteStride": 12,
            "componentType": 5126,
            "count": 19011,
            "max": [
                184.48214721679688,
                4.724177837371826,
                31.71324920654297
            ],
            "min": [
                -57.17152404785156,
                -4.728394031524658,
                -31.719043731689453
            ],
            "type": "VEC3"
        },
        "accessor_buffer_Untitled_1": {
            "bufferView": "bufferView_buffer_Untitled_0",
            "byteOffset": 228132,
            "byteStride": 12,
            "componentType": 5126,
            "count": 19011,
            "max": [
                1.0,
                1.0,
                1.0
            ],
            "min": [
                -1.0,
                -1.0,
                -1.0
            ],
            "type": "VEC3"
        },
        "accessor_buffer_Untitled_2": {
            "bufferView": "bufferView_buffer_Untitled_0",
            "byteOffset": 456264,
            "byteStride": 8,
            "componentType": 5126,
            "count": 19011,
            "max": [
                0.993306577205658,
                0.9979506433010101
            ],
            "min": [
                0.0066269454546272755,
                0.0020493268966674805
            ],
            "type": "VEC2"
        },
        "accessor_buffer_Untitled_3": {
            "bufferView": "bufferView_buffer_Untitled_1",
            "byteOffset": 0,
            "byteStride": 2,
            "componentType": 5123,
            "count": 105036,
            "max": [
                19010
            ],
            "min": [
                0
            ],
            "type": "SCALAR"
        }
    },
    "asset": {
        "profile": {
            "api": "WebGL",
            "version": "1.0.3"
        },
        "version": "1.0"
    },
    "bufferViews": {
        "bufferView_buffer_Untitled_0": {
            "buffer": "buffer_combined",
            "byteLength": 608352,
            "byteOffset": 0,
            "target": 34962
        },
        "bufferView_buffer_Untitled_1": {
            "buffer": "buffer_combined",
            "byteLength": 210072,
            "byteOffset": 608352,
            "target": 34963
        }
    },
    "buffers": {
        "buffer_combined": {
            "byteLength": 818424,
            "type": "arraybuffer",
            "uri": "data:text/plain;base64,"
        }
    },
    "extensions": {
        "KHR_materials_common": {
            "lights": {}
        }
    },
    "extensionsUsed": [
        "KHR_materials_common"
    ],
    "images": {
        "image_SteelSwordBaked": {
            "uri": "SteelSwordBaked.png"
        }
    },
    "materials": {
        "material_SwordTextures": {
            "extensions": {
                "KHR_materials_common": {
                    "technique": "PHONG",
                    "values": {
                        "ambient": [
                            1.0,
                            1.0,
                            1.0,
                            1.0
                        ],
                        "diffuse": "texture_BakedTexture",
                        "doubleSided": false,
                        "emission": [
                            0.0,
                            0.0,
                            0.0,
                            1.0
                        ],
                        "shininess": 50,
                        "specular": [
                            0.5,
                            0.5,
                            0.5,
                            1.0
                        ],
                        "transparency": 1.0,
                        "transparent": false
                    }
                }
            },
            "name": "SwordTextures"
        }
    },
    "meshes": {
        "mesh_Untitled": {
            "name": "Untitled",
            "primitives": [
                {
                    "attributes": {
                        "NORMAL": "accessor_buffer_Untitled_1",
                        "POSITION": "accessor_buffer_Untitled_0",
                        "TEXCOORD_0": "accessor_buffer_Untitled_2"
                    },
                    "indices": "accessor_buffer_Untitled_3",
                    "material": "material_SwordTextures",
                    "mode": 4
                }
            ]
        }
    },
    "nodes": {
        "node_Object010": {
            "children": [],
            "matrix": [
                -4.3711387287537207e-10,
                0.0,
                0.009999999776482582,
                0.0,
                2.5121480166319126e-17,
                0.009999999776482582,
                1.0980948731057142e-24,
                0.0,
                -0.009999999776482582,
                2.5121480166319126e-17,
                -4.3711387287537207e-10,
                0.0,
                0.0,
                0.0,
                1.022697925567627,
                1.0
            ],
            "meshes": [
                "mesh_Untitled"
            ],
            "name": "Object010"
        },
        "node_scene_Scene_root": {
            "children": [
                "node_Object010"
            ],
            "matrix": [
                1.0,
                0.0,
                0.0,
                0.0,
                0.0,
                0.0,
                -1.0,
                0.0,
                0.0,
                1.0,
                0.0,
                0.0,
                0.0,
                0.0,
                0.0,
                1.0
            ],
            "name": "node_scene_Scene_root"
        }
    },
    "samplers": {
        "sampler_default": {}
    },
    "scene": "scene_Scene",
    "scenes": {
        "scene_Scene": {
            "extras": {
                "active_camera": null,
                "background_color": [
                    0.05087608844041824,
                    0.05087608844041824,
                    0.05087608844041824
                ],
                "frames_per_second": 30
            },
            "name": "Scene",
            "nodes": [
                "node_scene_Scene_root"
            ]
        }
    },
    "textures": {
        "texture_BakedTexture": {
            "format": 6408,
            "internalFormat": 6408,
            "sampler": "sampler_default",
            "source": "image_SteelSwordBaked"
        }
    }
}
