{
    "accessors": {
        "accessor_buffer_Untitled_0": {
            "bufferView": "bufferView_buffer_Untitled_0",
            "byteOffset": 0,
            "byteStride": 12,
            "componentType": 5126,
            "count": 4155,
            "max": [
                183.38665771484375,
                4.720099449157715,
                31.694459915161133
            ],
            "min": [
                -57.17597579956055,
                -4.7243170738220215,
                -31.700252532958984
            ],
            "type": "VEC3"
        },
        "accessor_buffer_Untitled_1": {
            "bufferView": "bufferView_buffer_Untitled_0",
            "byteOffset": 49860,
            "byteStride": 12,
            "componentType": 5126,
            "count": 4155,
            "max": [
                0.9999873042106628,
                1.0,
                0.999792754650116
            ],
            "min": [
                -0.9997658133506775,
                -0.9999999403953552,
                -0.9996170401573181
            ],
            "type": "VEC3"
        },
        "accessor_buffer_Untitled_2": {
            "bufferView": "bufferView_buffer_Untitled_0",
            "byteOffset": 99720,
            "byteStride": 8,
            "componentType": 5126,
            "count": 4155,
            "max": [
                0.9930965900421143,
                0.9979506433010101
            ],
            "min": [
                0.006633839104324579,
                0.002050459384918213
            ],
            "type": "VEC2"
        },
        "accessor_buffer_Untitled_3": {
            "bufferView": "bufferView_buffer_Untitled_1",
            "byteOffset": 0,
            "byteStride": 2,
            "componentType": 5123,
            "count": 20961,
            "max": [
                4154
            ],
            "min": [
                0
            ],
            "type": "SCALAR"
        }
    },
    "asset": {
        "profile": {
            "api": "WebGL",
            "version": "1.0.3"
        },
        "version": "1.0"
    },
    "bufferViews": {
        "bufferView_buffer_Untitled_0": {
            "buffer": "buffer_combined",
            "byteLength": 132960,
            "byteOffset": 0,
            "target": 34962
        },
        "bufferView_buffer_Untitled_1": {
            "buffer": "buffer_combined",
            "byteLength": 41922,
            "byteOffset": 132960,
            "target": 34963
        }
    },
    "buffers": {
        "buffer_combined": {
            "byteLength": 174882,
            "type": "arraybuffer",
            "uri": "data:text/plain;base64,"
        }
    },
    "extensions": {
        "KHR_materials_common": {
            "lights": {}
        }
    },
    "extensionsUsed": [
        "KHR_materials_common"
    ],
    "images": {
        "image_SteelSwordBaked": {
            "uri": "SteelSwordBaked.png"
        }
    },
    "materials": {
        "material_SwordTextures": {
            "extensions": {
                "KHR_materials_common": {
                    "technique": "PHONG",
                    "values": {
                        "ambient": [
                            1.0,
                            1.0,
                            1.0,
                            1.0
                        ],
                        "diffuse": "texture_BakedTexture",
                        "doubleSided": false,
                        "emission": [
                            0.0,
                            0.0,
                            0.0,
                            1.0
                        ],
                        "shininess": 50,
                        "specular": [
                            0.5,
                            0.5,
                            0.5,
                            1.0
                        ],
                        "transparency": 1.0,
                        "transparent": false
                    }
                }
            },
            "name": "SwordTextures"
        }
    },
    "meshes": {
        "mesh_Untitled": {
            "name": "Untitled",
            "primitives": [
                {
                    "attributes": {
                        "NORMAL": "accessor_buffer_Untitled_1",
                        "POSITION": "accessor_buffer_Untitled_0",
                        "TEXCOORD_0": "accessor_buffer_Untitled_2"
                    },
                    "indices": "accessor_buffer_Untitled_3",
                    "material": "material_SwordTextures",
                    "mode": 4
                }
            ]
        }
    },
    "nodes": {
        "node_Object010": {
            "children": [],
            "matrix": [
                -4.3711387287537207e-10,
                0.0,
                0.009999999776482582,
                0.0,
                2.5121480166319126e-17,
                0.009999999776482582,
                1.0980948731057142e-24,
                0.0,
                -0.009999999776482582,
                2.5121480166319126e-17,
                -4.3711387287537207e-10,
                0.0,
                0.0,
                0.0,
                1.022697925567627,
                1.0
            ],
            "meshes": [
                "mesh_Untitled"
            ],
            "name": "Object010"
        },
        "node_scene_Scene_root": {
            "children": [
                "node_Object010"
            ],
            "matrix": [
                1.0,
                0.0,
                0.0,
                0.0,
                0.0,
                0.0,
                -1.0,
                0.0,
                0.0,
                1.0,
                0.0,
                0.0,
                0.0,
                0.0,
                0.0,
                1.0
            ],
            "name": "node_scene_Scene_root"
        }
    },
    "samplers": {
        "sampler_default": {}
    },
    "scene": "scene_Scene",
    "scenes": {
        "scene_Scene": {
            "extras": {
                "active_camera": null,
                "background_color": [
                    0.05087608844041824,
                    0.05087608844041824,
                    0.05087608844041824
                ],
                "frames_per_second": 30
            },
            "name": "Scene",
            "nodes": [
                "node_scene_Scene_root"
            ]
        }
    },
    "textures": {
        "texture_BakedTexture": {
            "format": 6408,
            "internalFormat": 6408,
            "sampler": "sampler_default",
            "source": "image_SteelSwordBaked"
        }
    }
}
