{
    "accessors": {
        "accessor_buffer_Axe.001_0": {
            "bufferView": "bufferView_buffer_Axe.001_0",
            "byteOffset": 0,
            "byteStride": 12,
            "componentType": 5126,
            "count": 2457,
            "max": [
                2.2190752029418945,
                2.678959369659424,
                39.46416473388672
            ],
            "min": [
                -2.2189865112304688,
                -11.871872901916504,
                -25.264989852905273
            ],
            "type": "VEC3"
        },
        "accessor_buffer_Axe.001_1": {
            "bufferView": "bufferView_buffer_Axe.001_0",
            "byteOffset": 29484,
            "byteStride": 12,
            "componentType": 5126,
            "count": 2457,
            "max": [
                0.9999892711639404,
                1.0,
                1.0
            ],
            "min": [
                -0.999995768070221,
                -0.9999986886978149,
                -1.0
            ],
            "type": "VEC3"
        },
        "accessor_buffer_Axe.001_2": {
            "bufferView": "bufferView_buffer_Axe.001_0",
            "byteOffset": 58968,
            "byteStride": 8,
            "componentType": 5126,
            "count": 2457,
            "max": [
                1.0,
                1.0
            ],
            "min": [
                0.0,
                0.0
            ],
            "type": "VEC2"
        },
        "accessor_buffer_Axe.001_3": {
            "bufferView": "bufferView_buffer_Axe.001_1",
            "byteOffset": 0,
            "byteStride": 2,
            "componentType": 5123,
            "count": 8208,
            "max": [
                2456
            ],
            "min": [
                0
            ],
            "type": "SCALAR"
        }
    },
    "asset": {
        "profile": {
            "api": "WebGL",
            "version": "1.0.3"
        },
        "version": "1.0"
    },
    "bufferViews": {
        "bufferView_buffer_Axe.001_0": {
            "buffer": "buffer_combined",
            "byteLength": 78624,
            "byteOffset": 0,
            "target": 34962
        },
        "bufferView_buffer_Axe.001_1": {
            "buffer": "buffer_combined",
            "byteLength": 16416,
            "byteOffset": 78624,
            "target": 34963
        }
    },
    "buffers": {
        "buffer_combined": {
            "byteLength": 95040,
            "type": "arraybuffer",
            "uri": "data:text/plain;base64,"
        }
    },
    "extensions": {
        "KHR_materials_common": {
            "lights": {}
        }
    },
    "extensionsUsed": [
        "KHR_materials_common"
    ],
    "images": {
        "image_WarAxeCombinedBaked": {
            "uri": "WarAxeCombinedBaked.jpg"
        }
    },
    "materials": {
        "material_CombinedTextures": {
            "extensions": {
                "KHR_materials_common": {
                    "technique": "PHONG",
                    "values": {
                        "ambient": [
                            1.0,
                            1.0,
                            1.0,
                            1.0
                        ],
                        "diffuse": "texture_CombinedTextures",
                        "doubleSided": false,
                        "emission": [
                            0.0,
                            0.0,
                            0.0,
                            1.0
                        ],
                        "shininess": 50,
                        "specular": [
                            0.5,
                            0.5,
                            0.5,
                            1.0
                        ],
                        "transparency": 1.0,
                        "transparent": false
                    }
                }
            },
            "name": "CombinedTextures"
        }
    },
    "meshes": {
        "mesh_Axe.001": {
            "name": "Axe.001",
            "primitives": [
                {
                    "attributes": {
                        "NORMAL": "accessor_buffer_Axe.001_1",
                        "POSITION": "accessor_buffer_Axe.001_0",
                        "TEXCOORD_0": "accessor_buffer_Axe.001_2"
                    },
                    "indices": "accessor_buffer_Axe.001_3",
                    "material": "material_CombinedTextures",
                    "mode": 4
                }
            ]
        }
    },
    "nodes": {
        "node_Axe.001": {
            "children": [],
            "matrix": [
                0.10000000149011612,
                0.0,
                0.0,
                0.0,
                0.0,
                0.10000000149011612,
                -1.6292068139023286e-08,
                0.0,
                0.0,
                1.6292068139023286e-08,
                0.10000000149011612,
                0.0,
                0.0,
                -0.04893243685364723,
                0.0,
                1.0
            ],
            "meshes": [
                "mesh_Axe.001"
            ],
            "name": "Axe.001"
        },
        "node_scene_Scene_root": {
            "children": [
                "node_Axe.001"
            ],
            "matrix": [
                1.0,
                0.0,
                0.0,
                0.0,
                0.0,
                0.0,
                -1.0,
                0.0,
                0.0,
                1.0,
                0.0,
                0.0,
                0.0,
                0.0,
                0.0,
                1.0
            ],
            "name": "node_scene_Scene_root"
        }
    },
    "samplers": {
        "sampler_default": {}
    },
    "scene": "scene_Scene",
    "scenes": {
        "scene_Scene": {
            "extras": {
                "active_camera": null,
                "background_color": [
                    0.05087608844041824,
                    0.05087608844041824,
                    0.05087608844041824
                ],
                "frames_per_second": 24
            },
            "name": "Scene",
            "nodes": [
                "node_scene_Scene_root"
            ]
        }
    },
    "textures": {
        "texture_CombinedTextures": {
            "format": 6408,
            "internalFormat": 6408,
            "sampler": "sampler_default",
            "source": "image_WarAxeCombinedBaked"
        }
    }
}
