{
    "accessors": {
        "accessor_buffer_Cube.005_0": {
            "bufferView": "bufferView_buffer_Cube.005_0",
            "byteOffset": 0,
            "byteStride": 12,
            "componentType": 5126,
            "count": 1678,
            "max": [
                2.2190752029418945,
                2.678959369659424,
                39.46416473388672
            ],
            "min": [
                -2.2189865112304688,
                -11.871872901916504,
                -25.264989852905273
            ],
            "type": "VEC3"
        },
        "accessor_buffer_Cube.005_1": {
            "bufferView": "bufferView_buffer_Cube.005_0",
            "byteOffset": 20136,
            "byteStride": 12,
            "componentType": 5126,
            "count": 1678,
            "max": [
                0.9999892711639404,
                1.0,
                1.0
            ],
            "min": [
                -0.9999909400939941,
                -0.9999983310699463,
                -1.0
            ],
            "type": "VEC3"
        },
        "accessor_buffer_Cube.005_2": {
            "bufferView": "bufferView_buffer_Cube.005_0",
            "byteOffset": 40272,
            "byteStride": 8,
            "componentType": 5126,
            "count": 1678,
            "max": [
                0.9975982308387756,
                0.997598169837147
            ],
            "min": [
                0.0024018301628530025,
                0.018405795097351074
            ],
            "type": "VEC2"
        },
        "accessor_buffer_Cube.005_3": {
            "bufferView": "bufferView_buffer_Cube.005_1",
            "byteOffset": 0,
            "byteStride": 2,
            "componentType": 5123,
            "count": 7296,
            "max": [
                1677
            ],
            "min": [
                0
            ],
            "type": "SCALAR"
        },
        "accessor_buffer_Cube.005_4": {
            "bufferView": "bufferView_buffer_Cube.005_2",
            "byteOffset": 0,
            "byteStride": 2,
            "componentType": 5123,
            "count": 912,
            "max": [
                1662
            ],
            "min": [
                6
            ],
            "type": "SCALAR"
        }
    },
    "asset": {
        "profile": {
            "api": "WebGL",
            "version": "1.0.3"
        },
        "version": "1.0"
    },
    "bufferViews": {
        "bufferView_buffer_Cube.005_0": {
            "buffer": "buffer_combined",
            "byteLength": 53696,
            "byteOffset": 0,
            "target": 34962
        },
        "bufferView_buffer_Cube.005_1": {
            "buffer": "buffer_combined",
            "byteLength": 14592,
            "byteOffset": 53696,
            "target": 34963
        },
        "bufferView_buffer_Cube.005_2": {
            "buffer": "buffer_combined",
            "byteLength": 1824,
            "byteOffset": 68288,
            "target": 34963
        }
    },
    "buffers": {
        "buffer_combined": {
            "byteLength": 70112,
            "type": "arraybuffer",
            "uri": "data:text/plain;base64,"
        }
    },
    "extensions": {
        "KHR_materials_common": {
            "lights": {}
        }
    },
    "extensionsUsed": [
        "KHR_materials_common"
    ],
    "images": {
        "image_WarAxeHandleBaked.jpg": {
            "uri": "WarAxeHandleBaked.jpg"
        },
        "image_WarAxeHeadBaked.jpg": {
            "uri": "WarAxeHeadBaked.jpg"
        }
    },
    "materials": {
        "material_HandleTexture": {
            "extensions": {
                "KHR_materials_common": {
                    "technique": "PHONG",
                    "values": {
                        "ambient": [
                            1.0,
                            1.0,
                            1.0,
                            1.0
                        ],
                        "diffuse": "texture_HandleBaked",
                        "doubleSided": false,
                        "emission": [
                            0.0,
                            0.0,
                            0.0,
                            1.0
                        ],
                        "shininess": 50,
                        "specular": [
                            0.5,
                            0.5,
                            0.5,
                            1.0
                        ],
                        "transparency": 1.0,
                        "transparent": false
                    }
                }
            },
            "name": "HandleTexture"
        },
        "material_HeadTexture": {
            "extensions": {
                "KHR_materials_common": {
                    "technique": "PHONG",
                    "values": {
                        "ambient": [
                            1.0,
                            1.0,
                            1.0,
                            1.0
                        ],
                        "diffuse": "texture_HeadBaked",
                        "doubleSided": false,
                        "emission": [
                            0.0,
                            0.0,
                            0.0,
                            1.0
                        ],
                        "shininess": 50,
                        "specular": [
                            0.5,
                            0.5,
                            0.5,
                            1.0
                        ],
                        "transparency": 1.0,
                        "transparent": false
                    }
                }
            },
            "name": "HeadTexture"
        }
    },
    "meshes": {
        "mesh_Cube.005": {
            "name": "Cube.005",
            "primitives": [
                {
                    "attributes": {
                        "NORMAL": "accessor_buffer_Cube.005_1",
                        "POSITION": "accessor_buffer_Cube.005_0",
                        "TEXCOORD_0": "accessor_buffer_Cube.005_2"
                    },
                    "indices": "accessor_buffer_Cube.005_3",
                    "material": "material_HandleTexture",
                    "mode": 4
                },
                {
                    "attributes": {
                        "NORMAL": "accessor_buffer_Cube.005_1",
                        "POSITION": "accessor_buffer_Cube.005_0",
                        "TEXCOORD_0": "accessor_buffer_Cube.005_2"
                    },
                    "indices": "accessor_buffer_Cube.005_4",
                    "material": "material_HeadTexture",
                    "mode": 4
                }
            ]
        }
    },
    "nodes": {
        "node_Axe": {
            "children": [],
            "matrix": [
                0.10000000149011612,
                0.0,
                0.0,
                0.0,
                0.0,
                0.10000000149011612,
                -1.6292068139023286e-08,
                0.0,
                0.0,
                1.6292068139023286e-08,
                0.10000000149011612,
                0.0,
                0.0,
                -0.04893243685364723,
                0.0,
                1.0
            ],
            "meshes": [
                "mesh_Cube.005"
            ],
            "name": "Axe"
        },
        "node_scene_Scene_root": {
            "children": [
                "node_Axe"
            ],
            "matrix": [
                1.0,
                0.0,
                0.0,
                0.0,
                0.0,
                0.0,
                -1.0,
                0.0,
                0.0,
                1.0,
                0.0,
                0.0,
                0.0,
                0.0,
                0.0,
                1.0
            ],
            "name": "node_scene_Scene_root"
        }
    },
    "samplers": {
        "sampler_default": {}
    },
    "scene": "scene_Scene",
    "scenes": {
        "scene_Scene": {
            "extras": {
                "active_camera": null,
                "background_color": [
                    0.05087608844041824,
                    0.05087608844041824,
                    0.05087608844041824
                ],
                "frames_per_second": 24
            },
            "name": "Scene",
            "nodes": [
                "node_scene_Scene_root"
            ]
        }
    },
    "textures": {
        "texture_HandleBaked": {
            "format": 6408,
            "internalFormat": 6408,
            "sampler": "sampler_default",
            "source": "image_WarAxeHandleBaked.jpg"
        },
        "texture_HeadBaked": {
            "format": 6408,
            "internalFormat": 6408,
            "sampler": "sampler_default",
            "source": "image_WarAxeHeadBaked.jpg"
        }
    }
}
