{
    "accessors": {
        "accessor_buffer_Untitled_0": {
            "bufferView": "bufferView_buffer_Untitled_0",
            "byteOffset": 0,
            "byteStride": 12,
            "componentType": 5126,
            "count": 1248,
            "max": [
                0.2154286950826645,
                0.41991955041885376,
                0.419937402009964
            ],
            "min": [
                -0.21491111814975739,
                -0.4915705919265747,
                0.016092002391815186
            ],
            "type": "VEC3"
        },
        "accessor_buffer_Untitled_1": {
            "bufferView": "bufferView_buffer_Untitled_0",
            "byteOffset": 14976,
            "byteStride": 12,
            "componentType": 5126,
            "count": 1248,
            "max": [
                0.9999962449073792,
                0.9964125752449036,
                0.9999986290931702
            ],
            "min": [
                -0.9999890923500061,
                -0.9923787117004395,
                -0.9999989867210388
            ],
            "type": "VEC3"
        },
        "accessor_buffer_Untitled_2": {
            "bufferView": "bufferView_buffer_Untitled_0",
            "byteOffset": 29952,
            "byteStride": 8,
            "componentType": 5126,
            "count": 1248,
            "max": [
                0.9895550012588501,
                0.9948060000315309
            ],
            "min": [
                0.007203999906778336,
                0.005303025245666504
            ],
            "type": "VEC2"
        },
        "accessor_buffer_Untitled_3": {
            "bufferView": "bufferView_buffer_Untitled_1",
            "byteOffset": 0,
            "byteStride": 2,
            "componentType": 5123,
            "count": 5934,
            "max": [
                1247
            ],
            "min": [
                0
            ],
            "type": "SCALAR"
        }
    },
    "asset": {
        "profile": {
            "api": "WebGL",
            "version": "1.0.3"
        },
        "version": "1.0"
    },
    "bufferViews": {
        "bufferView_buffer_Untitled_0": {
            "buffer": "buffer_combined",
            "byteLength": 39936,
            "byteOffset": 0,
            "target": 34962
        },
        "bufferView_buffer_Untitled_1": {
            "buffer": "buffer_combined",
            "byteLength": 11868,
            "byteOffset": 39936,
            "target": 34963
        }
    },
    "buffers": {
        "buffer_combined": {
            "byteLength": 51804,
            "type": "arraybuffer",
            "uri": "data:text/plain;base64,"
        }
    },
    "extensions": {
        "KHR_materials_common": {
            "lights": {}
        }
    },
    "extensionsUsed": [
        "KHR_materials_common"
    ],
    "images": {
        "image_Anvil Texture": {
            "uri": "Anvil Texture.jpg"
        }
    },
    "materials": {
        "material_Anvil": {
            "extensions": {
                "KHR_materials_common": {
                    "technique": "PHONG",
                    "values": {
                        "ambient": [
                            1.0,
                            1.0,
                            1.0,
                            1.0
                        ],
                        "diffuse": "texture_anvilTex",
                        "doubleSided": false,
                        "emission": [
                            0.0,
                            0.0,
                            0.0,
                            1.0
                        ],
                        "shininess": 50,
                        "specular": [
                            0.5,
                            0.5,
                            0.5,
                            1.0
                        ],
                        "transparency": 1.0,
                        "transparent": false
                    }
                }
            },
            "name": "Anvil"
        }
    },
    "meshes": {
        "mesh_Untitled": {
            "name": "Untitled",
            "primitives": [
                {
                    "attributes": {
                        "NORMAL": "accessor_buffer_Untitled_1",
                        "POSITION": "accessor_buffer_Untitled_0",
                        "TEXCOORD_0": "accessor_buffer_Untitled_2"
                    },
                    "indices": "accessor_buffer_Untitled_3",
                    "material": "material_Anvil",
                    "mode": 4
                }
            ]
        }
    },
    "nodes": {
        "node_RetopoGroup1": {
            "children": [],
            "matrix": [
                1.0,
                0.0,
                0.0,
                0.0,
                0.0,
                1.0,
                -4.371138828673793e-08,
                0.0,
                0.0,
                4.371138828673793e-08,
                1.0,
                0.0,
                0.0,
                5.046951190301741e-10,
                0.0,
                1.0
            ],
            "meshes": [
                "mesh_Untitled"
            ],
            "name": "RetopoGroup1"
        },
        "node_scene_Scene_root": {
            "children": [
                "node_RetopoGroup1"
            ],
            "matrix": [
                1.0,
                0.0,
                0.0,
                0.0,
                0.0,
                0.0,
                -1.0,
                0.0,
                0.0,
                1.0,
                0.0,
                0.0,
                0.0,
                0.0,
                0.0,
                1.0
            ],
            "name": "node_scene_Scene_root"
        }
    },
    "samplers": {
        "sampler_default": {}
    },
    "scene": "scene_Scene",
    "scenes": {
        "scene_Scene": {
            "extras": {
                "active_camera": null,
                "background_color": [
                    0.05087608844041824,
                    0.05087608844041824,
                    0.05087608844041824
                ],
                "frames_per_second": 30
            },
            "name": "Scene",
            "nodes": [
                "node_scene_Scene_root"
            ]
        }
    },
    "textures": {
        "texture_anvilTex": {
            "format": 6408,
            "internalFormat": 6408,
            "sampler": "sampler_default",
            "source": "image_Anvil Texture"
        }
    }
}
