{
    "accessors": {
        "accessor_buffer_Icosphere.291_0": {
            "bufferView": "bufferView_buffer_Icosphere.291_0",
            "byteOffset": 0,
            "byteStride": 12,
            "componentType": 5126,
            "count": 1440,
            "max": [
                75.21914672851562,
                27.77191162109375,
                2.040281295776367
            ],
            "min": [
                -58.06708526611328,
                -737.1187133789062,
                -20.130271911621094
            ],
            "type": "VEC3"
        },
        "accessor_buffer_Icosphere.291_1": {
            "bufferView": "bufferView_buffer_Icosphere.291_0",
            "byteOffset": 17280,
            "byteStride": 12,
            "componentType": 5126,
            "count": 1440,
            "max": [
                0.994596004486084,
                0.9794373512268066,
                0.9293757081031799
            ],
            "min": [
                -0.9945959448814392,
                -0.9794429540634155,
                -0.9293757081031799
            ],
            "type": "VEC3"
        },
        "accessor_buffer_Icosphere.291_2": {
            "bufferView": "bufferView_buffer_Icosphere.291_0",
            "byteOffset": 34560,
            "byteStride": 8,
            "componentType": 5126,
            "count": 1440,
            "max": [
                0.9947401881217957,
                0.9942313306964934
            ],
            "min": [
                0.005259878002107143,
                0.00576859712600708
            ],
            "type": "VEC2"
        },
        "accessor_buffer_Icosphere.291_3": {
            "bufferView": "bufferView_buffer_Icosphere.291_1",
            "byteOffset": 0,
            "byteStride": 2,
            "componentType": 5123,
            "count": 1440,
            "max": [
                1439
            ],
            "min": [
                0
            ],
            "type": "SCALAR"
        }
    },
    "asset": {
        "profile": {
            "api": "WebGL",
            "version": "1.0.3"
        },
        "version": "1.0"
    },
    "bufferViews": {
        "bufferView_buffer_Icosphere.291_0": {
            "buffer": "buffer_combined",
            "byteLength": 46080,
            "byteOffset": 0,
            "target": 34962
        },
        "bufferView_buffer_Icosphere.291_1": {
            "buffer": "buffer_combined",
            "byteLength": 2880,
            "byteOffset": 46080,
            "target": 34963
        }
    },
    "buffers": {
        "buffer_combined": {
            "byteLength": 48960,
            "type": "arraybuffer",
            "uri": "data:text/plain;base64,"
        }
    },
    "extensions": {
        "KHR_materials_common": {
            "lights": {}
        }
    },
    "extensionsUsed": [
        "KHR_materials_common"
    ],
    "images": {
        "image_Bush2": {
            "uri": "Bush2.png"
        }
    },
    "materials": {
        "material_Bush2": {
            "extensions": {
                "KHR_materials_common": {
                    "technique": "PHONG",
                    "values": {
                        "ambient": [
                            1.0,
                            1.0,
                            1.0,
                            1.0
                        ],
                        "diffuse": "texture_Bush2",
                        "doubleSided": false,
                        "emission": [
                            0.0,
                            0.0,
                            0.0,
                            1.0
                        ],
                        "shininess": 50,
                        "specular": [
                            0.5,
                            0.5,
                            0.5,
                            1.0
                        ],
                        "transparency": 1.0,
                        "transparent": false
                    }
                }
            },
            "name": "Bush2"
        }
    },
    "meshes": {
        "mesh_Icosphere.291": {
            "name": "Icosphere.291",
            "primitives": [
                {
                    "attributes": {
                        "NORMAL": "accessor_buffer_Icosphere.291_1",
                        "POSITION": "accessor_buffer_Icosphere.291_0",
                        "TEXCOORD_0": "accessor_buffer_Icosphere.291_2"
                    },
                    "indices": "accessor_buffer_Icosphere.291_3",
                    "material": "material_Bush2",
                    "mode": 4
                }
            ]
        }
    },
    "nodes": {
        "node_Bush2": {
            "children": [],
            "matrix": [
                0.542239785194397,
                0.8744296431541443,
                0.0,
                0.0,
                -0.4517187774181366,
                0.28011390566825867,
                0.0,
                0.0,
                0.0,
                0.0,
                0.6649243831634521,
                0.0,
                -48.57046127319336,
                131.20533752441406,
                11.300172805786133,
                1.0
            ],
            "meshes": [
                "mesh_Icosphere.291"
            ],
            "name": "Bush2"
        },
        "node_scene_Scene_root": {
            "children": [
                "node_Bush2"
            ],
            "matrix": [
                1.0,
                0.0,
                0.0,
                0.0,
                0.0,
                0.0,
                -1.0,
                0.0,
                0.0,
                1.0,
                0.0,
                0.0,
                0.0,
                0.0,
                0.0,
                1.0
            ],
            "name": "node_scene_Scene_root"
        }
    },
    "samplers": {
        "sampler_default": {}
    },
    "scene": "scene_Scene",
    "scenes": {
        "scene_Scene": {
            "extras": {
                "active_camera": null,
                "background_color": [
                    0.3263707756996155,
                    0.3263707756996155,
                    0.3263707756996155
                ],
                "frames_per_second": 24
            },
            "name": "Scene",
            "nodes": [
                "node_scene_Scene_root"
            ]
        }
    },
    "textures": {
        "texture_Bush2": {
            "format": 6408,
            "internalFormat": 6408,
            "sampler": "sampler_default",
            "source": "image_Bush2"
        }
    }
}
