{
    "accessors": {
        "accessor_buffer_Icosphere.009_0": {
            "bufferView": "bufferView_buffer_Icosphere.009_0",
            "byteOffset": 0,
            "byteStride": 12,
            "componentType": 5126,
            "count": 60,
            "max": [
                1.341637372970581,
                1.2759599685668945,
                1.5
            ],
            "min": [
                -1.341637372970581,
                -1.2759599685668945,
                -1.5
            ],
            "type": "VEC3"
        },
        "accessor_buffer_Icosphere.009_1": {
            "bufferView": "bufferView_buffer_Icosphere.009_0",
            "byteOffset": 720,
            "byteStride": 12,
            "componentType": 5126,
            "count": 60,
            "max": [
                0.9822460412979126,
                0.9341716170310974,
                0.7946524024009705
            ],
            "min": [
                -0.9822460412979126,
                -0.9341716170310974,
                -0.7946524024009705
            ],
            "type": "VEC3"
        },
        "accessor_buffer_Icosphere.009_2": {
            "bufferView": "bufferView_buffer_Icosphere.009_0",
            "byteOffset": 1440,
            "byteStride": 8,
            "componentType": 5126,
            "count": 60,
            "max": [
                0.9947401881217957,
                0.9942313306964934
            ],
            "min": [
                0.005259878002107143,
                0.00576859712600708
            ],
            "type": "VEC2"
        },
        "accessor_buffer_Icosphere.009_3": {
            "bufferView": "bufferView_buffer_Icosphere.009_1",
            "byteOffset": 0,
            "byteStride": 2,
            "componentType": 5123,
            "count": 60,
            "max": [
                59
            ],
            "min": [
                0
            ],
            "type": "SCALAR"
        },
        "accessor_buffer_Icosphere.041_0": {
            "bufferView": "bufferView_buffer_Icosphere.041_0",
            "byteOffset": 0,
            "byteStride": 12,
            "componentType": 5126,
            "count": 60,
            "max": [
                1.341637372970581,
                1.2759599685668945,
                1.5
            ],
            "min": [
                -1.341637372970581,
                -1.2759599685668945,
                -1.5
            ],
            "type": "VEC3"
        },
        "accessor_buffer_Icosphere.041_1": {
            "bufferView": "bufferView_buffer_Icosphere.041_0",
            "byteOffset": 720,
            "byteStride": 12,
            "componentType": 5126,
            "count": 60,
            "max": [
                0.9822460412979126,
                0.9341716170310974,
                0.7946524024009705
            ],
            "min": [
                -0.9822460412979126,
                -0.9341716170310974,
                -0.7946524024009705
            ],
            "type": "VEC3"
        },
        "accessor_buffer_Icosphere.041_2": {
            "bufferView": "bufferView_buffer_Icosphere.041_0",
            "byteOffset": 1440,
            "byteStride": 8,
            "componentType": 5126,
            "count": 60,
            "max": [
                0.9947401881217957,
                0.9942313306964934
            ],
            "min": [
                0.005259878002107143,
                0.00576859712600708
            ],
            "type": "VEC2"
        },
        "accessor_buffer_Icosphere.041_3": {
            "bufferView": "bufferView_buffer_Icosphere.041_1",
            "byteOffset": 0,
            "byteStride": 2,
            "componentType": 5123,
            "count": 60,
            "max": [
                59
            ],
            "min": [
                0
            ],
            "type": "SCALAR"
        },
        "accessor_buffer_Icosphere.049_0": {
            "bufferView": "bufferView_buffer_Icosphere.049_0",
            "byteOffset": 0,
            "byteStride": 12,
            "componentType": 5126,
            "count": 60,
            "max": [
                1.341637372970581,
                1.2759599685668945,
                1.5
            ],
            "min": [
                -1.341637372970581,
                -1.2759599685668945,
                -1.5
            ],
            "type": "VEC3"
        },
        "accessor_buffer_Icosphere.049_1": {
            "bufferView": "bufferView_buffer_Icosphere.049_0",
            "byteOffset": 720,
            "byteStride": 12,
            "componentType": 5126,
            "count": 60,
            "max": [
                0.9822460412979126,
                0.9341716170310974,
                0.7946524024009705
            ],
            "min": [
                -0.9822460412979126,
                -0.9341716170310974,
                -0.7946524024009705
            ],
            "type": "VEC3"
        },
        "accessor_buffer_Icosphere.049_2": {
            "bufferView": "bufferView_buffer_Icosphere.049_0",
            "byteOffset": 1440,
            "byteStride": 8,
            "componentType": 5126,
            "count": 60,
            "max": [
                0.9947401881217957,
                0.9942313306964934
            ],
            "min": [
                0.005259878002107143,
                0.00576859712600708
            ],
            "type": "VEC2"
        },
        "accessor_buffer_Icosphere.049_3": {
            "bufferView": "bufferView_buffer_Icosphere.049_1",
            "byteOffset": 0,
            "byteStride": 2,
            "componentType": 5123,
            "count": 60,
            "max": [
                59
            ],
            "min": [
                0
            ],
            "type": "SCALAR"
        },
        "accessor_buffer_Icosphere.054_0": {
            "bufferView": "bufferView_buffer_Icosphere.054_0",
            "byteOffset": 0,
            "byteStride": 12,
            "componentType": 5126,
            "count": 60,
            "max": [
                1.341637372970581,
                1.2759599685668945,
                1.5
            ],
            "min": [
                -1.341637372970581,
                -1.2759599685668945,
                -1.5
            ],
            "type": "VEC3"
        },
        "accessor_buffer_Icosphere.054_1": {
            "bufferView": "bufferView_buffer_Icosphere.054_0",
            "byteOffset": 720,
            "byteStride": 12,
            "componentType": 5126,
            "count": 60,
            "max": [
                0.9822460412979126,
                0.9341716170310974,
                0.7946524024009705
            ],
            "min": [
                -0.9822460412979126,
                -0.9341716170310974,
                -0.7946524024009705
            ],
            "type": "VEC3"
        },
        "accessor_buffer_Icosphere.054_2": {
            "bufferView": "bufferView_buffer_Icosphere.054_0",
            "byteOffset": 1440,
            "byteStride": 8,
            "componentType": 5126,
            "count": 60,
            "max": [
                0.9947401881217957,
                0.9942313306964934
            ],
            "min": [
                0.005259878002107143,
                0.00576859712600708
            ],
            "type": "VEC2"
        },
        "accessor_buffer_Icosphere.054_3": {
            "bufferView": "bufferView_buffer_Icosphere.054_1",
            "byteOffset": 0,
            "byteStride": 2,
            "componentType": 5123,
            "count": 60,
            "max": [
                59
            ],
            "min": [
                0
            ],
            "type": "SCALAR"
        },
        "accessor_buffer_Icosphere.073_0": {
            "bufferView": "bufferView_buffer_Icosphere.073_0",
            "byteOffset": 0,
            "byteStride": 12,
            "componentType": 5126,
            "count": 60,
            "max": [
                1.341637372970581,
                1.2759599685668945,
                1.5
            ],
            "min": [
                -1.341637372970581,
                -1.2759599685668945,
                -1.5
            ],
            "type": "VEC3"
        },
        "accessor_buffer_Icosphere.073_1": {
            "bufferView": "bufferView_buffer_Icosphere.073_0",
            "byteOffset": 720,
            "byteStride": 12,
            "componentType": 5126,
            "count": 60,
            "max": [
                0.9822460412979126,
                0.9341716170310974,
                0.7946524024009705
            ],
            "min": [
                -0.9822460412979126,
                -0.9341716170310974,
                -0.7946524024009705
            ],
            "type": "VEC3"
        },
        "accessor_buffer_Icosphere.073_2": {
            "bufferView": "bufferView_buffer_Icosphere.073_0",
            "byteOffset": 1440,
            "byteStride": 8,
            "componentType": 5126,
            "count": 60,
            "max": [
                0.9947401881217957,
                0.9942313306964934
            ],
            "min": [
                0.005259878002107143,
                0.00576859712600708
            ],
            "type": "VEC2"
        },
        "accessor_buffer_Icosphere.073_3": {
            "bufferView": "bufferView_buffer_Icosphere.073_1",
            "byteOffset": 0,
            "byteStride": 2,
            "componentType": 5123,
            "count": 60,
            "max": [
                59
            ],
            "min": [
                0
            ],
            "type": "SCALAR"
        },
        "accessor_buffer_Icosphere.081_0": {
            "bufferView": "bufferView_buffer_Icosphere.081_0",
            "byteOffset": 0,
            "byteStride": 12,
            "componentType": 5126,
            "count": 60,
            "max": [
                1.341637372970581,
                1.2759599685668945,
                1.5
            ],
            "min": [
                -1.341637372970581,
                -1.2759599685668945,
                -1.5
            ],
            "type": "VEC3"
        },
        "accessor_buffer_Icosphere.081_1": {
            "bufferView": "bufferView_buffer_Icosphere.081_0",
            "byteOffset": 720,
            "byteStride": 12,
            "componentType": 5126,
            "count": 60,
            "max": [
                0.9822460412979126,
                0.9341716170310974,
                0.7946524024009705
            ],
            "min": [
                -0.9822460412979126,
                -0.9341716170310974,
                -0.7946524024009705
            ],
            "type": "VEC3"
        },
        "accessor_buffer_Icosphere.081_2": {
            "bufferView": "bufferView_buffer_Icosphere.081_0",
            "byteOffset": 1440,
            "byteStride": 8,
            "componentType": 5126,
            "count": 60,
            "max": [
                0.9947401881217957,
                0.9942313306964934
            ],
            "min": [
                0.005259878002107143,
                0.00576859712600708
            ],
            "type": "VEC2"
        },
        "accessor_buffer_Icosphere.081_3": {
            "bufferView": "bufferView_buffer_Icosphere.081_1",
            "byteOffset": 0,
            "byteStride": 2,
            "componentType": 5123,
            "count": 60,
            "max": [
                59
            ],
            "min": [
                0
            ],
            "type": "SCALAR"
        }
    },
    "asset": {
        "profile": {
            "api": "WebGL",
            "version": "1.0.3"
        },
        "version": "1.0"
    },
    "bufferViews": {
        "bufferView_buffer_Icosphere.009_0": {
            "buffer": "buffer_combined",
            "byteLength": 1920,
            "byteOffset": 2040,
            "target": 34962
        },
        "bufferView_buffer_Icosphere.009_1": {
            "buffer": "buffer_combined",
            "byteLength": 120,
            "byteOffset": 3960,
            "target": 34963
        },
        "bufferView_buffer_Icosphere.041_0": {
            "buffer": "buffer_combined",
            "byteLength": 1920,
            "byteOffset": 4080,
            "target": 34962
        },
        "bufferView_buffer_Icosphere.041_1": {
            "buffer": "buffer_combined",
            "byteLength": 120,
            "byteOffset": 6000,
            "target": 34963
        },
        "bufferView_buffer_Icosphere.049_0": {
            "buffer": "buffer_combined",
            "byteLength": 1920,
            "byteOffset": 6120,
            "target": 34962
        },
        "bufferView_buffer_Icosphere.049_1": {
            "buffer": "buffer_combined",
            "byteLength": 120,
            "byteOffset": 8040,
            "target": 34963
        },
        "bufferView_buffer_Icosphere.054_0": {
            "buffer": "buffer_combined",
            "byteLength": 1920,
            "byteOffset": 0,
            "target": 34962
        },
        "bufferView_buffer_Icosphere.054_1": {
            "buffer": "buffer_combined",
            "byteLength": 120,
            "byteOffset": 1920,
            "target": 34963
        },
        "bufferView_buffer_Icosphere.073_0": {
            "buffer": "buffer_combined",
            "byteLength": 1920,
            "byteOffset": 8160,
            "target": 34962
        },
        "bufferView_buffer_Icosphere.073_1": {
            "buffer": "buffer_combined",
            "byteLength": 120,
            "byteOffset": 10080,
            "target": 34963
        },
        "bufferView_buffer_Icosphere.081_0": {
            "buffer": "buffer_combined",
            "byteLength": 1920,
            "byteOffset": 10200,
            "target": 34962
        },
        "bufferView_buffer_Icosphere.081_1": {
            "buffer": "buffer_combined",
            "byteLength": 120,
            "byteOffset": 12120,
            "target": 34963
        }
    },
    "buffers": {
        "buffer_combined": {
            "byteLength": 12240,
            "type": "arraybuffer",
            "uri": "data:text/plain;base64,"
        }
    },
    "extensions": {
        "KHR_materials_common": {
            "lights": {}
        }
    },
    "extensionsUsed": [
        "KHR_materials_common"
    ],
    "images": {
        "image_Bush3": {
            "uri": "Bush3.png"
        }
    },
    "materials": {
        "material_Bush3": {
            "extensions": {
                "KHR_materials_common": {
                    "technique": "PHONG",
                    "values": {
                        "ambient": [
                            1.0,
                            1.0,
                            1.0,
                            1.0
                        ],
                        "diffuse": "texture_Bush3",
                        "doubleSided": false,
                        "emission": [
                            0.0,
                            0.0,
                            0.0,
                            1.0
                        ],
                        "shininess": 50,
                        "specular": [
                            0.5,
                            0.5,
                            0.5,
                            1.0
                        ],
                        "transparency": 1.0,
                        "transparent": false
                    }
                }
            },
            "name": "Bush3"
        }
    },
    "meshes": {
        "mesh_Icosphere.009": {
            "name": "Icosphere.009",
            "primitives": [
                {
                    "attributes": {
                        "NORMAL": "accessor_buffer_Icosphere.009_1",
                        "POSITION": "accessor_buffer_Icosphere.009_0",
                        "TEXCOORD_0": "accessor_buffer_Icosphere.009_2"
                    },
                    "indices": "accessor_buffer_Icosphere.009_3",
                    "material": "material_Bush3",
                    "mode": 4
                }
            ]
        },
        "mesh_Icosphere.041": {
            "name": "Icosphere.041",
            "primitives": [
                {
                    "attributes": {
                        "NORMAL": "accessor_buffer_Icosphere.041_1",
                        "POSITION": "accessor_buffer_Icosphere.041_0",
                        "TEXCOORD_0": "accessor_buffer_Icosphere.041_2"
                    },
                    "indices": "accessor_buffer_Icosphere.041_3",
                    "material": "material_Bush3",
                    "mode": 4
                }
            ]
        },
        "mesh_Icosphere.049": {
            "name": "Icosphere.049",
            "primitives": [
                {
                    "attributes": {
                        "NORMAL": "accessor_buffer_Icosphere.049_1",
                        "POSITION": "accessor_buffer_Icosphere.049_0",
                        "TEXCOORD_0": "accessor_buffer_Icosphere.049_2"
                    },
                    "indices": "accessor_buffer_Icosphere.049_3",
                    "material": "material_Bush3",
                    "mode": 4
                }
            ]
        },
        "mesh_Icosphere.054": {
            "name": "Icosphere.054",
            "primitives": [
                {
                    "attributes": {
                        "NORMAL": "accessor_buffer_Icosphere.054_1",
                        "POSITION": "accessor_buffer_Icosphere.054_0",
                        "TEXCOORD_0": "accessor_buffer_Icosphere.054_2"
                    },
                    "indices": "accessor_buffer_Icosphere.054_3",
                    "material": "material_Bush3",
                    "mode": 4
                }
            ]
        },
        "mesh_Icosphere.073": {
            "name": "Icosphere.073",
            "primitives": [
                {
                    "attributes": {
                        "NORMAL": "accessor_buffer_Icosphere.073_1",
                        "POSITION": "accessor_buffer_Icosphere.073_0",
                        "TEXCOORD_0": "accessor_buffer_Icosphere.073_2"
                    },
                    "indices": "accessor_buffer_Icosphere.073_3",
                    "material": "material_Bush3",
                    "mode": 4
                }
            ]
        },
        "mesh_Icosphere.081": {
            "name": "Icosphere.081",
            "primitives": [
                {
                    "attributes": {
                        "NORMAL": "accessor_buffer_Icosphere.081_1",
                        "POSITION": "accessor_buffer_Icosphere.081_0",
                        "TEXCOORD_0": "accessor_buffer_Icosphere.081_2"
                    },
                    "indices": "accessor_buffer_Icosphere.081_3",
                    "material": "material_Bush3",
                    "mode": 4
                }
            ]
        }
    },
    "nodes": {
        "node_Bush3.001": {
            "children": [],
            "matrix": [
                -0.3414696156978607,
                -1.7522553205490112,
                0.0,
                0.0,
                0.7550176382064819,
                -0.14713357388973236,
                0.0,
                0.0,
                0.0,
                0.0,
                0.7692201733589172,
                0.0,
                6.113216400146484,
                54.653594970703125,
                -0.7878799438476562,
                1.0
            ],
            "meshes": [
                "mesh_Icosphere.054"
            ],
            "name": "Bush3.001"
        },
        "node_Bush3.002": {
            "children": [],
            "matrix": [
                1.271751046180725,
                -1.2528563737869263,
                0.0,
                0.0,
                0.5398349165916443,
                0.5479763746261597,
                0.0,
                0.0,
                0.0,
                0.0,
                0.7692201733589172,
                0.0,
                -3.852416515350342,
                46.48548126220703,
                -0.7878795862197876,
                1.0
            ],
            "meshes": [
                "mesh_Icosphere.009"
            ],
            "name": "Bush3.002"
        },
        "node_Bush3.003": {
            "children": [],
            "matrix": [
                -0.9911178946495056,
                -1.484818458557129,
                0.0,
                0.0,
                0.6397834420204163,
                -0.42705613374710083,
                0.0,
                0.0,
                0.0,
                0.0,
                0.7692201733589172,
                0.0,
                21.224653244018555,
                29.6772518157959,
                -0.7878793478012085,
                1.0
            ],
            "meshes": [
                "mesh_Icosphere.041"
            ],
            "name": "Bush3.003"
        },
        "node_Bush3.004": {
            "children": [],
            "matrix": [
                -1.7757971286773682,
                0.00558501947671175,
                -0.18306829035282135,
                0.0,
                -0.002393805654719472,
                -0.7692165374755859,
                -0.00024677059263922274,
                0.0,
                -0.07888145744800568,
                8.634297721243911e-09,
                0.7651650905609131,
                0.0,
                31.12237548828125,
                21.426986694335938,
                -0.3213951289653778,
                1.0
            ],
            "meshes": [
                "mesh_Icosphere.049"
            ],
            "name": "Bush3.004"
        },
        "node_Bush3.005": {
            "children": [],
            "matrix": [
                0.04191455617547035,
                -1.7847248315811157,
                0.0,
                0.0,
                0.7690083384513855,
                0.018060287460684776,
                0.0,
                0.0,
                0.0,
                0.0,
                0.7692201733589172,
                0.0,
                -12.725374221801758,
                26.986095428466797,
                -0.7878798246383667,
                1.0
            ],
            "meshes": [
                "mesh_Icosphere.073"
            ],
            "name": "Bush3.005"
        },
        "node_Bush3.006": {
            "children": [],
            "matrix": [
                1.510662317276001,
                -0.9512618780136108,
                0.0,
                0.0,
                0.4098828434944153,
                0.6509191393852234,
                0.0,
                0.0,
                0.0,
                0.0,
                0.7692201733589172,
                0.0,
                -20.70937728881836,
                16.872365951538086,
                -0.28163889050483704,
                1.0
            ],
            "meshes": [
                "mesh_Icosphere.081"
            ],
            "name": "Bush3.006"
        },
        "node_scene_Scene_root": {
            "children": [
                "node_Bush3.006",
                "node_Bush3.005",
                "node_Bush3.004",
                "node_Bush3.003",
                "node_Bush3.002",
                "node_Bush3.001"
            ],
            "matrix": [
                1.0,
                0.0,
                0.0,
                0.0,
                0.0,
                0.0,
                -1.0,
                0.0,
                0.0,
                1.0,
                0.0,
                0.0,
                0.0,
                0.0,
                0.0,
                1.0
            ],
            "name": "node_scene_Scene_root"
        }
    },
    "samplers": {
        "sampler_default": {}
    },
    "scene": "scene_Scene",
    "scenes": {
        "scene_Scene": {
            "extras": {
                "active_camera": null,
                "background_color": [
                    0.35883867740631104,
                    0.35883867740631104,
                    0.35883867740631104
                ],
                "frames_per_second": 24
            },
            "name": "Scene",
            "nodes": [
                "node_scene_Scene_root"
            ]
        }
    },
    "textures": {
        "texture_Bush3": {
            "format": 6408,
            "internalFormat": 6408,
            "sampler": "sampler_default",
            "source": "image_Bush3"
        }
    }
}
