{
    "accessors": {
        "accessor_buffer_Icosphere.270_0": {
            "bufferView": "bufferView_buffer_Icosphere.270_0",
            "byteOffset": 0,
            "byteStride": 12,
            "componentType": 5126,
            "count": 1080,
            "max": [
                16.22513198852539,
                466.9279479980469,
                1.5
            ],
            "min": [
                -108.49666595458984,
                -42.461090087890625,
                -18.11572265625
            ],
            "type": "VEC3"
        },
        "accessor_buffer_Icosphere.270_1": {
            "bufferView": "bufferView_buffer_Icosphere.270_0",
            "byteOffset": 12960,
            "byteStride": 12,
            "componentType": 5126,
            "count": 1080,
            "max": [
                0.9960558414459229,
                0.9684086441993713,
                0.976881742477417
            ],
            "min": [
                -0.9960557818412781,
                -0.9684179425239563,
                -0.9768807888031006
            ],
            "type": "VEC3"
        },
        "accessor_buffer_Icosphere.270_2": {
            "bufferView": "bufferView_buffer_Icosphere.270_0",
            "byteOffset": 25920,
            "byteStride": 8,
            "componentType": 5126,
            "count": 1080,
            "max": [
                0.9947401881217957,
                0.9942313306964934
            ],
            "min": [
                0.005259878002107143,
                0.00576859712600708
            ],
            "type": "VEC2"
        },
        "accessor_buffer_Icosphere.270_3": {
            "bufferView": "bufferView_buffer_Icosphere.270_1",
            "byteOffset": 0,
            "byteStride": 2,
            "componentType": 5123,
            "count": 1080,
            "max": [
                1079
            ],
            "min": [
                0
            ],
            "type": "SCALAR"
        }
    },
    "asset": {
        "profile": {
            "api": "WebGL",
            "version": "1.0.3"
        },
        "version": "1.0"
    },
    "bufferViews": {
        "bufferView_buffer_Icosphere.270_0": {
            "buffer": "buffer_combined",
            "byteLength": 34560,
            "byteOffset": 0,
            "target": 34962
        },
        "bufferView_buffer_Icosphere.270_1": {
            "buffer": "buffer_combined",
            "byteLength": 2160,
            "byteOffset": 34560,
            "target": 34963
        }
    },
    "buffers": {
        "buffer_combined": {
            "byteLength": 36720,
            "type": "arraybuffer",
            "uri": "data:text/plain;base64,"
        }
    },
    "extensions": {
        "KHR_materials_common": {
            "lights": {}
        }
    },
    "extensionsUsed": [
        "KHR_materials_common"
    ],
    "images": {
        "image_Bush3": {
            "uri": "Bush3.png"
        }
    },
    "materials": {
        "material_Bush3": {
            "extensions": {
                "KHR_materials_common": {
                    "technique": "PHONG",
                    "values": {
                        "ambient": [
                            1.0,
                            1.0,
                            1.0,
                            1.0
                        ],
                        "diffuse": "texture_Bush3",
                        "doubleSided": false,
                        "emission": [
                            0.0,
                            0.0,
                            0.0,
                            1.0
                        ],
                        "shininess": 50,
                        "specular": [
                            0.5,
                            0.5,
                            0.5,
                            1.0
                        ],
                        "transparency": 1.0,
                        "transparent": false
                    }
                }
            },
            "name": "Bush3"
        }
    },
    "meshes": {
        "mesh_Icosphere.270": {
            "name": "Icosphere.270",
            "primitives": [
                {
                    "attributes": {
                        "NORMAL": "accessor_buffer_Icosphere.270_1",
                        "POSITION": "accessor_buffer_Icosphere.270_0",
                        "TEXCOORD_0": "accessor_buffer_Icosphere.270_2"
                    },
                    "indices": "accessor_buffer_Icosphere.270_3",
                    "material": "material_Bush3",
                    "mode": 4
                }
            ]
        }
    },
    "nodes": {
        "node_Bush3.016": {
            "children": [],
            "matrix": [
                -1.3140816688537598,
                -1.2083829641342163,
                0.0,
                0.0,
                0.520672082901001,
                -0.5662159323692322,
                0.0,
                0.0,
                0.0,
                0.0,
                0.7692201733589172,
                0.0,
                -45.49824142456055,
                110.21513366699219,
                11.993268966674805,
                1.0
            ],
            "meshes": [
                "mesh_Icosphere.270"
            ],
            "name": "Bush3.016"
        },
        "node_scene_Scene_root": {
            "children": [
                "node_Bush3.016"
            ],
            "matrix": [
                1.0,
                0.0,
                0.0,
                0.0,
                0.0,
                0.0,
                -1.0,
                0.0,
                0.0,
                1.0,
                0.0,
                0.0,
                0.0,
                0.0,
                0.0,
                1.0
            ],
            "name": "node_scene_Scene_root"
        }
    },
    "samplers": {
        "sampler_default": {}
    },
    "scene": "scene_Scene",
    "scenes": {
        "scene_Scene": {
            "extras": {
                "active_camera": null,
                "background_color": [
                    0.3263707756996155,
                    0.3263707756996155,
                    0.3263707756996155
                ],
                "frames_per_second": 24
            },
            "name": "Scene",
            "nodes": [
                "node_scene_Scene_root"
            ]
        }
    },
    "textures": {
        "texture_Bush3": {
            "format": 6408,
            "internalFormat": 6408,
            "sampler": "sampler_default",
            "source": "image_Bush3"
        }
    }
}
