{
    "accessors": {
        "accessor_buffer_Icosphere.422_0": {
            "bufferView": "bufferView_buffer_Icosphere.422_0",
            "byteOffset": 0,
            "byteStride": 12,
            "componentType": 5126,
            "count": 2340,
            "max": [
                166.5445556640625,
                94.36509704589844,
                3.564800262451172
            ],
            "min": [
                -15.847047805786133,
                -536.3764038085938,
                -17.73446273803711
            ],
            "type": "VEC3"
        },
        "accessor_buffer_Icosphere.422_1": {
            "bufferView": "bufferView_buffer_Icosphere.422_0",
            "byteOffset": 28080,
            "byteStride": 12,
            "componentType": 5126,
            "count": 2340,
            "max": [
                0.9959999918937683,
                0.9756059050559998,
                0.945760190486908
            ],
            "min": [
                -0.9959999918937683,
                -0.9756031036376953,
                -0.9457637667655945
            ],
            "type": "VEC3"
        },
        "accessor_buffer_Icosphere.422_2": {
            "bufferView": "bufferView_buffer_Icosphere.422_0",
            "byteOffset": 56160,
            "byteStride": 8,
            "componentType": 5126,
            "count": 2340,
            "max": [
                0.9947401881217957,
                0.9942313306964934
            ],
            "min": [
                0.005259878002107143,
                0.00576859712600708
            ],
            "type": "VEC2"
        },
        "accessor_buffer_Icosphere.422_3": {
            "bufferView": "bufferView_buffer_Icosphere.422_1",
            "byteOffset": 0,
            "byteStride": 2,
            "componentType": 5123,
            "count": 2340,
            "max": [
                2339
            ],
            "min": [
                0
            ],
            "type": "SCALAR"
        }
    },
    "asset": {
        "profile": {
            "api": "WebGL",
            "version": "1.0.3"
        },
        "version": "1.0"
    },
    "bufferViews": {
        "bufferView_buffer_Icosphere.422_0": {
            "buffer": "buffer_combined",
            "byteLength": 74880,
            "byteOffset": 0,
            "target": 34962
        },
        "bufferView_buffer_Icosphere.422_1": {
            "buffer": "buffer_combined",
            "byteLength": 4680,
            "byteOffset": 74880,
            "target": 34963
        }
    },
    "buffers": {
        "buffer_combined": {
            "byteLength": 79560,
            "type": "arraybuffer",
            "uri": "data:text/plain;base64,"
        }
    },
    "extensions": {
        "KHR_materials_common": {
            "lights": {}
        }
    },
    "extensionsUsed": [
        "KHR_materials_common"
    ],
    "images": {
        "image_Bush1": {
            "uri": "Bush1.png"
        }
    },
    "materials": {
        "material_Bush1": {
            "extensions": {
                "KHR_materials_common": {
                    "technique": "PHONG",
                    "values": {
                        "ambient": [
                            1.0,
                            1.0,
                            1.0,
                            1.0
                        ],
                        "diffuse": "texture_Bush1",
                        "doubleSided": false,
                        "emission": [
                            0.0,
                            0.0,
                            0.0,
                            1.0
                        ],
                        "shininess": 50,
                        "specular": [
                            0.5,
                            0.5,
                            0.5,
                            1.0
                        ],
                        "transparency": 1.0,
                        "transparent": false
                    }
                }
            },
            "name": "Bush1"
        }
    },
    "meshes": {
        "mesh_Icosphere.422": {
            "name": "Icosphere.422",
            "primitives": [
                {
                    "attributes": {
                        "NORMAL": "accessor_buffer_Icosphere.422_1",
                        "POSITION": "accessor_buffer_Icosphere.422_0",
                        "TEXCOORD_0": "accessor_buffer_Icosphere.422_2"
                    },
                    "indices": "accessor_buffer_Icosphere.422_3",
                    "material": "material_Bush1",
                    "mode": 4
                }
            ]
        }
    },
    "nodes": {
        "node_Bush1.039": {
            "children": [],
            "matrix": [
                1.058668851852417,
                0.7879359722137451,
                0.0,
                0.0,
                -0.35377180576324463,
                0.4753269553184509,
                0.0,
                0.0,
                0.0,
                0.0,
                0.7093664407730103,
                0.0,
                -32.68115997314453,
                90.5513916015625,
                10.466422080993652,
                1.0
            ],
            "meshes": [
                "mesh_Icosphere.422"
            ],
            "name": "Bush1.039"
        },
        "node_scene_Scene_root": {
            "children": [
                "node_Bush1.039"
            ],
            "matrix": [
                1.0,
                0.0,
                0.0,
                0.0,
                0.0,
                0.0,
                -1.0,
                0.0,
                0.0,
                1.0,
                0.0,
                0.0,
                0.0,
                0.0,
                0.0,
                1.0
            ],
            "name": "node_scene_Scene_root"
        }
    },
    "samplers": {
        "sampler_default": {}
    },
    "scene": "scene_Scene",
    "scenes": {
        "scene_Scene": {
            "extras": {
                "active_camera": null,
                "background_color": [
                    0.3263707756996155,
                    0.3263707756996155,
                    0.3263707756996155
                ],
                "frames_per_second": 24
            },
            "name": "Scene",
            "nodes": [
                "node_scene_Scene_root"
            ]
        }
    },
    "textures": {
        "texture_Bush1": {
            "format": 6408,
            "internalFormat": 6408,
            "sampler": "sampler_default",
            "source": "image_Bush1"
        }
    }
}
