{
    "accessors": {
        "accessor_buffer_Icosphere_0": {
            "bufferView": "bufferView_buffer_Icosphere_0",
            "byteOffset": 0,
            "byteStride": 12,
            "componentType": 5126,
            "count": 240,
            "max": [
                37.1292839050293,
                72.0430908203125,
                61.11720275878906
            ],
            "min": [
                -36.992881774902344,
                -72.0430908203125,
                -5.361668109893799
            ],
            "type": "VEC3"
        },
        "accessor_buffer_Icosphere_1": {
            "bufferView": "bufferView_buffer_Icosphere_0",
            "byteOffset": 2880,
            "byteStride": 12,
            "componentType": 5126,
            "count": 240,
            "max": [
                0.9666820168495178,
                0.8558361530303955,
                0.9998190999031067
            ],
            "min": [
                -0.9993206858634949,
                -0.874645471572876,
                -0.8998861312866211
            ],
            "type": "VEC3"
        },
        "accessor_buffer_Icosphere_2": {
            "bufferView": "bufferView_buffer_Icosphere_0",
            "byteOffset": 5760,
            "byteStride": 8,
            "componentType": 5126,
            "count": 240,
            "max": [
                0.9998502135276794,
                0.9998540964879794
            ],
            "min": [
                0.00014975816884543747,
                0.00014597177505493164
            ],
            "type": "VEC2"
        },
        "accessor_buffer_Icosphere_3": {
            "bufferView": "bufferView_buffer_Icosphere_1",
            "byteOffset": 0,
            "byteStride": 2,
            "componentType": 5123,
            "count": 240,
            "max": [
                239
            ],
            "min": [
                0
            ],
            "type": "SCALAR"
        }
    },
    "asset": {
        "profile": {
            "api": "WebGL",
            "version": "1.0.3"
        },
        "version": "1.0"
    },
    "bufferViews": {
        "bufferView_buffer_Icosphere_0": {
            "buffer": "buffer_combined",
            "byteLength": 7680,
            "byteOffset": 0,
            "target": 34962
        },
        "bufferView_buffer_Icosphere_1": {
            "buffer": "buffer_combined",
            "byteLength": 480,
            "byteOffset": 7680,
            "target": 34963
        }
    },
    "buffers": {
        "buffer_combined": {
            "byteLength": 8160,
            "type": "arraybuffer",
            "uri": "data:text/plain;base64,"
        }
    },
    "extensions": {
        "KHR_materials_common": {
            "lights": {}
        }
    },
    "extensionsUsed": [
        "KHR_materials_common"
    ],
    "images": {
        "image_Cavern1": {
            "uri": "Cavern1.png"
        }
    },
    "materials": {
        "material_Cavern1": {
            "extensions": {
                "KHR_materials_common": {
                    "technique": "PHONG",
                    "values": {
                        "ambient": [
                            1.0,
                            1.0,
                            1.0,
                            1.0
                        ],
                        "diffuse": "texture_Cavern1",
                        "doubleSided": false,
                        "emission": [
                            0.0,
                            0.0,
                            0.0,
                            1.0
                        ],
                        "shininess": 50,
                        "specular": [
                            0.5,
                            0.5,
                            0.5,
                            1.0
                        ],
                        "transparency": 1.0,
                        "transparent": false
                    }
                }
            },
            "name": "Cavern1"
        }
    },
    "meshes": {
        "mesh_Icosphere": {
            "name": "Icosphere",
            "primitives": [
                {
                    "attributes": {
                        "NORMAL": "accessor_buffer_Icosphere_1",
                        "POSITION": "accessor_buffer_Icosphere_0",
                        "TEXCOORD_0": "accessor_buffer_Icosphere_2"
                    },
                    "indices": "accessor_buffer_Icosphere_3",
                    "material": "material_Cavern1",
                    "mode": 4
                }
            ]
        }
    },
    "nodes": {
        "node_Cavern1": {
            "children": [],
            "matrix": [
                1.0,
                0.0,
                0.0,
                0.0,
                0.0,
                1.0,
                0.0,
                0.0,
                0.0,
                0.0,
                1.0,
                0.0,
                5.285728931427002,
                -3.589003562927246,
                3.5606980323791504,
                1.0
            ],
            "meshes": [
                "mesh_Icosphere"
            ],
            "name": "Cavern1"
        },
        "node_scene_Scene_root": {
            "children": [
                "node_Cavern1"
            ],
            "matrix": [
                1.0,
                0.0,
                0.0,
                0.0,
                0.0,
                0.0,
                -1.0,
                0.0,
                0.0,
                1.0,
                0.0,
                0.0,
                0.0,
                0.0,
                0.0,
                1.0
            ],
            "name": "node_scene_Scene_root"
        }
    },
    "samplers": {
        "sampler_default": {}
    },
    "scene": "scene_Scene",
    "scenes": {
        "scene_Scene": {
            "extras": {
                "active_camera": null,
                "background_color": [
                    0.35883867740631104,
                    0.35883867740631104,
                    0.35883867740631104
                ],
                "frames_per_second": 24
            },
            "name": "Scene",
            "nodes": [
                "node_scene_Scene_root"
            ]
        }
    },
    "textures": {
        "texture_Cavern1": {
            "format": 6408,
            "internalFormat": 6408,
            "sampler": "sampler_default",
            "source": "image_Cavern1"
        }
    }
}
