{
    "accessors": {
        "accessor_buffer_Icosphere.356_0": {
            "bufferView": "bufferView_buffer_Icosphere.356_0",
            "byteOffset": 0,
            "byteStride": 12,
            "componentType": 5126,
            "count": 4080,
            "max": [
                6.594320297241211,
                13.343134880065918,
                21.0457706451416
            ],
            "min": [
                -5.841009140014648,
                -14.423660278320312,
                -20.521324157714844
            ],
            "type": "VEC3"
        },
        "accessor_buffer_Icosphere.356_1": {
            "bufferView": "bufferView_buffer_Icosphere.356_0",
            "byteOffset": 48960,
            "byteStride": 12,
            "componentType": 5126,
            "count": 4080,
            "max": [
                0.9510565996170044,
                0.99910569190979,
                1.0
            ],
            "min": [
                -0.9510564208030701,
                -0.9991056323051453,
                -1.0
            ],
            "type": "VEC3"
        },
        "accessor_buffer_Icosphere.356_2": {
            "bufferView": "bufferView_buffer_Icosphere.356_0",
            "byteOffset": 97920,
            "byteStride": 8,
            "componentType": 5126,
            "count": 4080,
            "max": [
                0.9829504489898682,
                0.9824410118162632
            ],
            "min": [
                0.017049554735422134,
                0.017559051513671875
            ],
            "type": "VEC2"
        },
        "accessor_buffer_Icosphere.356_3": {
            "bufferView": "bufferView_buffer_Icosphere.356_1",
            "byteOffset": 0,
            "byteStride": 2,
            "componentType": 5123,
            "count": 4896,
            "max": [
                4079
            ],
            "min": [
                0
            ],
            "type": "SCALAR"
        }
    },
    "asset": {
        "profile": {
            "api": "WebGL",
            "version": "1.0.3"
        },
        "version": "1.0"
    },
    "bufferViews": {
        "bufferView_buffer_Icosphere.356_0": {
            "buffer": "buffer_combined",
            "byteLength": 130560,
            "byteOffset": 0,
            "target": 34962
        },
        "bufferView_buffer_Icosphere.356_1": {
            "buffer": "buffer_combined",
            "byteLength": 9792,
            "byteOffset": 130560,
            "target": 34963
        }
    },
    "buffers": {
        "buffer_combined": {
            "byteLength": 140352,
            "type": "arraybuffer",
            "uri": "data:text/plain;base64,"
        }
    },
    "extensions": {
        "KHR_materials_common": {
            "lights": {}
        }
    },
    "extensionsUsed": [
        "KHR_materials_common"
    ],
    "images": {
        "image_Fence": {
            "uri": "Fence.png"
        }
    },
    "materials": {
        "material_Fence.001": {
            "extensions": {
                "KHR_materials_common": {
                    "technique": "PHONG",
                    "values": {
                        "ambient": [
                            1.0,
                            1.0,
                            1.0,
                            1.0
                        ],
                        "diffuse": "texture_Fence",
                        "doubleSided": false,
                        "emission": [
                            0.0,
                            0.0,
                            0.0,
                            1.0
                        ],
                        "shininess": 50,
                        "specular": [
                            0.5,
                            0.5,
                            0.5,
                            1.0
                        ],
                        "transparency": 1.0,
                        "transparent": false
                    }
                }
            },
            "name": "Fence.001"
        }
    },
    "meshes": {
        "mesh_Icosphere.356": {
            "name": "Icosphere.356",
            "primitives": [
                {
                    "attributes": {
                        "NORMAL": "accessor_buffer_Icosphere.356_1",
                        "POSITION": "accessor_buffer_Icosphere.356_0",
                        "TEXCOORD_0": "accessor_buffer_Icosphere.356_2"
                    },
                    "indices": "accessor_buffer_Icosphere.356_3",
                    "material": "material_Fence.001",
                    "mode": 4
                }
            ]
        }
    },
    "nodes": {
        "node_Fence.035": {
            "children": [],
            "matrix": [
                0.1047981008887291,
                -0.011497479863464832,
                -0.302436500787735,
                0.0,
                -0.27593520283699036,
                0.12785568833351135,
                -0.10047564655542374,
                0.0,
                0.3882082998752594,
                0.9161638617515564,
                0.09969008713960648,
                0.0,
                -21.033180236816406,
                55.79802703857422,
                7.4392476081848145,
                1.0
            ],
            "meshes": [
                "mesh_Icosphere.356"
            ],
            "name": "Fence.035"
        },
        "node_scene_Scene_root": {
            "children": [
                "node_Fence.035"
            ],
            "matrix": [
                1.0,
                0.0,
                0.0,
                0.0,
                0.0,
                0.0,
                -1.0,
                0.0,
                0.0,
                1.0,
                0.0,
                0.0,
                0.0,
                0.0,
                0.0,
                1.0
            ],
            "name": "node_scene_Scene_root"
        }
    },
    "samplers": {
        "sampler_default": {}
    },
    "scene": "scene_Scene",
    "scenes": {
        "scene_Scene": {
            "extras": {
                "active_camera": null,
                "background_color": [
                    0.3263707756996155,
                    0.3263707756996155,
                    0.3263707756996155
                ],
                "frames_per_second": 24
            },
            "name": "Scene",
            "nodes": [
                "node_scene_Scene_root"
            ]
        }
    },
    "textures": {
        "texture_Fence": {
            "format": 6408,
            "internalFormat": 6408,
            "sampler": "sampler_default",
            "source": "image_Fence"
        }
    }
}
