{
    "accessors": {
        "accessor_buffer_Icosphere.303_0": {
            "bufferView": "bufferView_buffer_Icosphere.303_0",
            "byteOffset": 0,
            "byteStride": 12,
            "componentType": 5126,
            "count": 2160,
            "max": [
                1.9690313339233398,
                1.0608701705932617,
                11.613767623901367
            ],
            "min": [
                -1.655399203300476,
                -0.9589526057243347,
                -11.356688499450684
            ],
            "type": "VEC3"
        },
        "accessor_buffer_Icosphere.303_1": {
            "bufferView": "bufferView_buffer_Icosphere.303_0",
            "byteOffset": 25920,
            "byteStride": 12,
            "componentType": 5126,
            "count": 2160,
            "max": [
                0.9510565996170044,
                0.9991055727005005,
                1.0
            ],
            "min": [
                -0.951056957244873,
                -0.9991056323051453,
                -1.0
            ],
            "type": "VEC3"
        },
        "accessor_buffer_Icosphere.303_2": {
            "bufferView": "bufferView_buffer_Icosphere.303_0",
            "byteOffset": 51840,
            "byteStride": 8,
            "componentType": 5126,
            "count": 2160,
            "max": [
                0.9829504489898682,
                0.9824410118162632
            ],
            "min": [
                0.017049554735422134,
                0.017559051513671875
            ],
            "type": "VEC2"
        },
        "accessor_buffer_Icosphere.303_3": {
            "bufferView": "bufferView_buffer_Icosphere.303_1",
            "byteOffset": 0,
            "byteStride": 2,
            "componentType": 5123,
            "count": 2592,
            "max": [
                2159
            ],
            "min": [
                0
            ],
            "type": "SCALAR"
        }
    },
    "asset": {
        "profile": {
            "api": "WebGL",
            "version": "1.0.3"
        },
        "version": "1.0"
    },
    "bufferViews": {
        "bufferView_buffer_Icosphere.303_0": {
            "buffer": "buffer_combined",
            "byteLength": 69120,
            "byteOffset": 0,
            "target": 34962
        },
        "bufferView_buffer_Icosphere.303_1": {
            "buffer": "buffer_combined",
            "byteLength": 5184,
            "byteOffset": 69120,
            "target": 34963
        }
    },
    "buffers": {
        "buffer_combined": {
            "byteLength": 74304,
            "type": "arraybuffer",
            "uri": "data:text/plain;base64,"
        }
    },
    "extensions": {
        "KHR_materials_common": {
            "lights": {}
        }
    },
    "extensionsUsed": [
        "KHR_materials_common"
    ],
    "images": {
        "image_Fence": {
            "uri": "Fence.png"
        }
    },
    "materials": {
        "material_Fence.001": {
            "extensions": {
                "KHR_materials_common": {
                    "technique": "PHONG",
                    "values": {
                        "ambient": [
                            1.0,
                            1.0,
                            1.0,
                            1.0
                        ],
                        "diffuse": "texture_Fence",
                        "doubleSided": false,
                        "emission": [
                            0.0,
                            0.0,
                            0.0,
                            1.0
                        ],
                        "shininess": 50,
                        "specular": [
                            0.5,
                            0.5,
                            0.5,
                            1.0
                        ],
                        "transparency": 1.0,
                        "transparent": false
                    }
                }
            },
            "name": "Fence.001"
        }
    },
    "meshes": {
        "mesh_Icosphere.303": {
            "name": "Icosphere.303",
            "primitives": [
                {
                    "attributes": {
                        "NORMAL": "accessor_buffer_Icosphere.303_1",
                        "POSITION": "accessor_buffer_Icosphere.303_0",
                        "TEXCOORD_0": "accessor_buffer_Icosphere.303_2"
                    },
                    "indices": "accessor_buffer_Icosphere.303_3",
                    "material": "material_Fence.001",
                    "mode": 4
                }
            ]
        }
    },
    "nodes": {
        "node_Fence": {
            "children": [],
            "matrix": [
                0.10282965749502182,
                0.042796846479177475,
                -0.3002951145172119,
                0.0,
                -0.3025303781032562,
                0.03746956214308739,
                -0.09825506061315536,
                0.0,
                0.06869503110647202,
                0.984103262424469,
                0.1637735813856125,
                0.0,
                -25.527793884277344,
                23.976802825927734,
                3.4425549507141113,
                1.0
            ],
            "meshes": [
                "mesh_Icosphere.303"
            ],
            "name": "Fence"
        },
        "node_scene_Scene_root": {
            "children": [
                "node_Fence"
            ],
            "matrix": [
                1.0,
                0.0,
                0.0,
                0.0,
                0.0,
                0.0,
                -1.0,
                0.0,
                0.0,
                1.0,
                0.0,
                0.0,
                0.0,
                0.0,
                0.0,
                1.0
            ],
            "name": "node_scene_Scene_root"
        }
    },
    "samplers": {
        "sampler_default": {}
    },
    "scene": "scene_Scene",
    "scenes": {
        "scene_Scene": {
            "extras": {
                "active_camera": null,
                "background_color": [
                    0.3263707756996155,
                    0.3263707756996155,
                    0.3263707756996155
                ],
                "frames_per_second": 24
            },
            "name": "Scene",
            "nodes": [
                "node_scene_Scene_root"
            ]
        }
    },
    "textures": {
        "texture_Fence": {
            "format": 6408,
            "internalFormat": 6408,
            "sampler": "sampler_default",
            "source": "image_Fence"
        }
    }
}
