{
    "accessors": {
        "accessor_buffer_Icosphere.373_0": {
            "bufferView": "bufferView_buffer_Icosphere.373_0",
            "byteOffset": 0,
            "byteStride": 12,
            "componentType": 5126,
            "count": 3360,
            "max": [
                2.0132627487182617,
                5.034729957580566,
                17.485397338867188
            ],
            "min": [
                -2.3149633407592773,
                -1.1044297218322754,
                -17.99285125732422
            ],
            "type": "VEC3"
        },
        "accessor_buffer_Icosphere.373_1": {
            "bufferView": "bufferView_buffer_Icosphere.373_0",
            "byteOffset": 40320,
            "byteStride": 12,
            "componentType": 5126,
            "count": 3360,
            "max": [
                0.9510568380355835,
                0.9991056323051453,
                1.0
            ],
            "min": [
                -0.9510568380355835,
                -0.9991056323051453,
                -1.0
            ],
            "type": "VEC3"
        },
        "accessor_buffer_Icosphere.373_2": {
            "bufferView": "bufferView_buffer_Icosphere.373_0",
            "byteOffset": 80640,
            "byteStride": 8,
            "componentType": 5126,
            "count": 3360,
            "max": [
                0.9829504489898682,
                0.9824410118162632
            ],
            "min": [
                0.017049554735422134,
                0.017559051513671875
            ],
            "type": "VEC2"
        },
        "accessor_buffer_Icosphere.373_3": {
            "bufferView": "bufferView_buffer_Icosphere.373_1",
            "byteOffset": 0,
            "byteStride": 2,
            "componentType": 5123,
            "count": 4032,
            "max": [
                3359
            ],
            "min": [
                0
            ],
            "type": "SCALAR"
        }
    },
    "asset": {
        "profile": {
            "api": "WebGL",
            "version": "1.0.3"
        },
        "version": "1.0"
    },
    "bufferViews": {
        "bufferView_buffer_Icosphere.373_0": {
            "buffer": "buffer_combined",
            "byteLength": 107520,
            "byteOffset": 0,
            "target": 34962
        },
        "bufferView_buffer_Icosphere.373_1": {
            "buffer": "buffer_combined",
            "byteLength": 8064,
            "byteOffset": 107520,
            "target": 34963
        }
    },
    "buffers": {
        "buffer_combined": {
            "byteLength": 115584,
            "type": "arraybuffer",
            "uri": "data:text/plain;base64,"
        }
    },
    "extensions": {
        "KHR_materials_common": {
            "lights": {}
        }
    },
    "extensionsUsed": [
        "KHR_materials_common"
    ],
    "images": {
        "image_Fence": {
            "uri": "Fence.png"
        }
    },
    "materials": {
        "material_Fence.001": {
            "extensions": {
                "KHR_materials_common": {
                    "technique": "PHONG",
                    "values": {
                        "ambient": [
                            1.0,
                            1.0,
                            1.0,
                            1.0
                        ],
                        "diffuse": "texture_Fence",
                        "doubleSided": false,
                        "emission": [
                            0.0,
                            0.0,
                            0.0,
                            1.0
                        ],
                        "shininess": 50,
                        "specular": [
                            0.5,
                            0.5,
                            0.5,
                            1.0
                        ],
                        "transparency": 1.0,
                        "transparent": false
                    }
                }
            },
            "name": "Fence.001"
        }
    },
    "meshes": {
        "mesh_Icosphere.373": {
            "name": "Icosphere.373",
            "primitives": [
                {
                    "attributes": {
                        "NORMAL": "accessor_buffer_Icosphere.373_1",
                        "POSITION": "accessor_buffer_Icosphere.373_0",
                        "TEXCOORD_0": "accessor_buffer_Icosphere.373_2"
                    },
                    "indices": "accessor_buffer_Icosphere.373_3",
                    "material": "material_Fence.001",
                    "mode": 4
                }
            ]
        }
    },
    "nodes": {
        "node_Fence.052": {
            "children": [],
            "matrix": [
                0.10597106069326401,
                -0.01807255670428276,
                -0.3017054498195648,
                0.0,
                -0.2804427146911621,
                0.11334914714097977,
                -0.10529249906539917,
                0.0,
                0.3519206941127777,
                0.9335793852806091,
                0.06768601387739182,
                0.0,
                -10.45082950592041,
                93.39289093017578,
                10.800294876098633,
                1.0
            ],
            "meshes": [
                "mesh_Icosphere.373"
            ],
            "name": "Fence.052"
        },
        "node_scene_Scene_root": {
            "children": [
                "node_Fence.052"
            ],
            "matrix": [
                1.0,
                0.0,
                0.0,
                0.0,
                0.0,
                0.0,
                -1.0,
                0.0,
                0.0,
                1.0,
                0.0,
                0.0,
                0.0,
                0.0,
                0.0,
                1.0
            ],
            "name": "node_scene_Scene_root"
        }
    },
    "samplers": {
        "sampler_default": {}
    },
    "scene": "scene_Scene",
    "scenes": {
        "scene_Scene": {
            "extras": {
                "active_camera": null,
                "background_color": [
                    0.3263707756996155,
                    0.3263707756996155,
                    0.3263707756996155
                ],
                "frames_per_second": 24
            },
            "name": "Scene",
            "nodes": [
                "node_scene_Scene_root"
            ]
        }
    },
    "textures": {
        "texture_Fence": {
            "format": 6408,
            "internalFormat": 6408,
            "sampler": "sampler_default",
            "source": "image_Fence"
        }
    }
}
