{
    "accessors": {
        "accessor_buffer_Icosphere.522_0": {
            "bufferView": "bufferView_buffer_Icosphere.522_0",
            "byteOffset": 0,
            "byteStride": 12,
            "componentType": 5126,
            "count": 19600,
            "max": [
                66.2613296508789,
                128.8360595703125,
                2.6215667724609375
            ],
            "min": [
                -34.970184326171875,
                -71.8206558227539,
                -8.83863639831543
            ],
            "type": "VEC3"
        },
        "accessor_buffer_Icosphere.522_1": {
            "bufferView": "bufferView_buffer_Icosphere.522_0",
            "byteOffset": 235200,
            "byteStride": 12,
            "componentType": 5126,
            "count": 19600,
            "max": [
                0.9996042847633362,
                0.9997230172157288,
                1.0
            ],
            "min": [
                -0.9996044039726257,
                -0.9997230172157288,
                -1.0
            ],
            "type": "VEC3"
        },
        "accessor_buffer_Icosphere.522_2": {
            "bufferView": "bufferView_buffer_Icosphere.522_0",
            "byteOffset": 470400,
            "byteStride": 8,
            "componentType": 5126,
            "count": 19600,
            "max": [
                0.9829504489898682,
                0.9824410118162632
            ],
            "min": [
                0.017049554735422134,
                0.017559051513671875
            ],
            "type": "VEC2"
        },
        "accessor_buffer_Icosphere.522_3": {
            "bufferView": "bufferView_buffer_Icosphere.522_1",
            "byteOffset": 0,
            "byteStride": 2,
            "componentType": 5123,
            "count": 23520,
            "max": [
                19599
            ],
            "min": [
                0
            ],
            "type": "SCALAR"
        }
    },
    "asset": {
        "profile": {
            "api": "WebGL",
            "version": "1.0.3"
        },
        "version": "1.0"
    },
    "bufferViews": {
        "bufferView_buffer_Icosphere.522_0": {
            "buffer": "buffer_combined",
            "byteLength": 627200,
            "byteOffset": 0,
            "target": 34962
        },
        "bufferView_buffer_Icosphere.522_1": {
            "buffer": "buffer_combined",
            "byteLength": 47040,
            "byteOffset": 627200,
            "target": 34963
        }
    },
    "buffers": {
        "buffer_combined": {
            "byteLength": 674240,
            "type": "arraybuffer",
            "uri": "data:text/plain;base64,"
        }
    },
    "extensions": {
        "KHR_materials_common": {
            "lights": {}
        }
    },
    "extensionsUsed": [
        "KHR_materials_common"
    ],
    "images": {
        "image_Fence": {
            "uri": "Fence.png"
        }
    },
    "materials": {
        "material_Fence": {
            "extensions": {
                "KHR_materials_common": {
                    "technique": "PHONG",
                    "values": {
                        "ambient": [
                            1.0,
                            1.0,
                            1.0,
                            1.0
                        ],
                        "diffuse": "texture_Fence",
                        "doubleSided": false,
                        "emission": [
                            0.0,
                            0.0,
                            0.0,
                            1.0
                        ],
                        "shininess": 50,
                        "specular": [
                            0.5,
                            0.5,
                            0.5,
                            1.0
                        ],
                        "transparency": 1.0,
                        "transparent": false
                    }
                }
            },
            "name": "Fence"
        }
    },
    "meshes": {
        "mesh_Icosphere.522": {
            "name": "Icosphere.522",
            "primitives": [
                {
                    "attributes": {
                        "NORMAL": "accessor_buffer_Icosphere.522_1",
                        "POSITION": "accessor_buffer_Icosphere.522_0",
                        "TEXCOORD_0": "accessor_buffer_Icosphere.522_2"
                    },
                    "indices": "accessor_buffer_Icosphere.522_3",
                    "material": "material_Fence",
                    "mode": 4
                }
            ]
        }
    },
    "nodes": {
        "node_Fences1": {
            "children": [],
            "matrix": [
                -0.6711339950561523,
                0.07302412390708923,
                0.0,
                0.0,
                -0.07302412390708923,
                -0.6711339950561523,
                0.0,
                0.0,
                0.0,
                0.0,
                1.0,
                0.0,
                -29.404510498046875,
                100.57176208496094,
                9.818026542663574,
                1.0
            ],
            "meshes": [
                "mesh_Icosphere.522"
            ],
            "name": "Fences1"
        },
        "node_scene_Scene_root": {
            "children": [
                "node_Fences1"
            ],
            "matrix": [
                1.0,
                0.0,
                0.0,
                0.0,
                0.0,
                0.0,
                -1.0,
                0.0,
                0.0,
                1.0,
                0.0,
                0.0,
                0.0,
                0.0,
                0.0,
                1.0
            ],
            "name": "node_scene_Scene_root"
        }
    },
    "samplers": {
        "sampler_default": {}
    },
    "scene": "scene_Scene",
    "scenes": {
        "scene_Scene": {
            "extras": {
                "active_camera": null,
                "background_color": [
                    0.3263707756996155,
                    0.3263707756996155,
                    0.3263707756996155
                ],
                "frames_per_second": 24
            },
            "name": "Scene",
            "nodes": [
                "node_scene_Scene_root"
            ]
        }
    },
    "textures": {
        "texture_Fence": {
            "format": 6408,
            "internalFormat": 6408,
            "sampler": "sampler_default",
            "source": "image_Fence"
        }
    }
}
