{
    "accessors": {
        "accessor_buffer_Icosphere.001_0": {
            "bufferView": "bufferView_buffer_Icosphere.001_0",
            "byteOffset": 0,
            "byteStride": 12,
            "componentType": 5126,
            "count": 246,
            "max": [
                0,
                0,
                35.427940368652344
            ],
            "min": [
                -118.56968688964844,
                -81.70907592773438,
                -5.462700843811035
            ],
            "type": "VEC3"
        },
        "accessor_buffer_Icosphere.001_1": {
            "bufferView": "bufferView_buffer_Icosphere.001_0",
            "byteOffset": 2952,
            "byteStride": 12,
            "componentType": 5126,
            "count": 246,
            "max": [
                0.5905773639678955,
                0.9291333556175232,
                0.9942750334739685
            ],
            "min": [
                -0.7091050744056702,
                -0.9762779474258423,
                -0.9833418726921082
            ],
            "type": "VEC3"
        },
        "accessor_buffer_Icosphere.001_2": {
            "bufferView": "bufferView_buffer_Icosphere.001_0",
            "byteOffset": 5904,
            "byteStride": 8,
            "componentType": 5126,
            "count": 246,
            "max": [
                0.9997279047966003,
                0.9997103247151244
            ],
            "min": [
                0.0002721241908147931,
                0.00028967857360839844
            ],
            "type": "VEC2"
        },
        "accessor_buffer_Icosphere.001_3": {
            "bufferView": "bufferView_buffer_Icosphere.001_1",
            "byteOffset": 0,
            "byteStride": 2,
            "componentType": 5123,
            "count": 246,
            "max": [
                245
            ],
            "min": [
                0
            ],
            "type": "SCALAR"
        }
    },
    "asset": {
        "profile": {
            "api": "WebGL",
            "version": "1.0.3"
        },
        "version": "1.0"
    },
    "bufferViews": {
        "bufferView_buffer_Icosphere.001_0": {
            "buffer": "buffer_combined",
            "byteLength": 7872,
            "byteOffset": 0,
            "target": 34962
        },
        "bufferView_buffer_Icosphere.001_1": {
            "buffer": "buffer_combined",
            "byteLength": 492,
            "byteOffset": 7872,
            "target": 34963
        }
    },
    "buffers": {
        "buffer_combined": {
            "byteLength": 8364,
            "type": "arraybuffer",
            "uri": "data:text/plain;base64,"
        }
    },
    "extensions": {
        "KHR_materials_common": {
            "lights": {}
        }
    },
    "extensionsUsed": [
        "KHR_materials_common"
    ],
    "images": {
        "image_LoopbackCave": {
            "uri": "LoopbackCave.png"
        }
    },
    "materials": {
        "material_LoopbackCave": {
            "extensions": {
                "KHR_materials_common": {
                    "technique": "PHONG",
                    "values": {
                        "ambient": [
                            1.0,
                            1.0,
                            1.0,
                            1.0
                        ],
                        "diffuse": "texture_LoopbackCave",
                        "doubleSided": false,
                        "emission": [
                            0.0,
                            0.0,
                            0.0,
                            1.0
                        ],
                        "shininess": 50,
                        "specular": [
                            0.5,
                            0.5,
                            0.5,
                            1.0
                        ],
                        "transparency": 1.0,
                        "transparent": false
                    }
                }
            },
            "name": "LoopbackCave"
        }
    },
    "meshes": {
        "mesh_Icosphere.001": {
            "name": "Icosphere.001",
            "primitives": [
                {
                    "attributes": {
                        "NORMAL": "accessor_buffer_Icosphere.001_1",
                        "POSITION": "accessor_buffer_Icosphere.001_0",
                        "TEXCOORD_0": "accessor_buffer_Icosphere.001_2"
                    },
                    "indices": "accessor_buffer_Icosphere.001_3",
                    "material": "material_LoopbackCave",
                    "mode": 4
                }
            ]
        }
    },
    "nodes": {
        "node_LoopBackCave": {
            "children": [],
            "matrix": [
                1.0,
                0.0,
                0.0,
                0.0,
                0.0,
                1.0,
                0.0,
                0.0,
                0.0,
                0.0,
                1.0,
                0.0,
                0.8670654296875,
                35.7247428894043,
                3.5606980323791504,
                1.0
            ],
            "meshes": [
                "mesh_Icosphere.001"
            ],
            "name": "LoopBackCave"
        },
        "node_scene_Scene_root": {
            "children": [
                "node_LoopBackCave"
            ],
            "matrix": [
                1.0,
                0.0,
                0.0,
                0.0,
                0.0,
                0.0,
                -1.0,
                0.0,
                0.0,
                1.0,
                0.0,
                0.0,
                0.0,
                0.0,
                0.0,
                1.0
            ],
            "name": "node_scene_Scene_root"
        }
    },
    "samplers": {
        "sampler_default": {}
    },
    "scene": "scene_Scene",
    "scenes": {
        "scene_Scene": {
            "extras": {
                "active_camera": null,
                "background_color": [
                    0.3263707756996155,
                    0.3263707756996155,
                    0.3263707756996155
                ],
                "frames_per_second": 24
            },
            "name": "Scene",
            "nodes": [
                "node_scene_Scene_root"
            ]
        }
    },
    "textures": {
        "texture_LoopbackCave": {
            "format": 6408,
            "internalFormat": 6408,
            "sampler": "sampler_default",
            "source": "image_LoopbackCave"
        }
    }
}
