{
    "accessors": {
        "accessor_buffer_Icosphere.222_0": {
            "bufferView": "bufferView_buffer_Icosphere.222_0",
            "byteOffset": 0,
            "byteStride": 12,
            "componentType": 5126,
            "count": 403,
            "max": [
                0,
                215.63612365722656,
                91.4716567993164
            ],
            "min": [
                -246.17160034179688,
                -126.1261215209961,
                -13.949235916137695
            ],
            "type": "VEC3"
        },
        "accessor_buffer_Icosphere.222_1": {
            "bufferView": "bufferView_buffer_Icosphere.222_0",
            "byteOffset": 4836,
            "byteStride": 12,
            "componentType": 5126,
            "count": 403,
            "max": [
                0.9961369633674622,
                0.9965569376945496,
                0.9993194937705994
            ],
            "min": [
                -0.9828884601593018,
                -0.9481996297836304,
                -0.9959622621536255
            ],
            "type": "VEC3"
        },
        "accessor_buffer_Icosphere.222_2": {
            "bufferView": "bufferView_buffer_Icosphere.222_0",
            "byteOffset": 9672,
            "byteStride": 8,
            "componentType": 5126,
            "count": 403,
            "max": [
                0.9943323731422424,
                0.9990272740251385
            ],
            "min": [
                0.0009727259748615324,
                0.0009728074073791504
            ],
            "type": "VEC2"
        },
        "accessor_buffer_Icosphere.222_3": {
            "bufferView": "bufferView_buffer_Icosphere.222_1",
            "byteOffset": 0,
            "byteStride": 2,
            "componentType": 5123,
            "count": 405,
            "max": [
                402
            ],
            "min": [
                0
            ],
            "type": "SCALAR"
        }
    },
    "asset": {
        "profile": {
            "api": "WebGL",
            "version": "1.0.3"
        },
        "version": "1.0"
    },
    "bufferViews": {
        "bufferView_buffer_Icosphere.222_0": {
            "buffer": "buffer_combined",
            "byteLength": 12896,
            "byteOffset": 0,
            "target": 34962
        },
        "bufferView_buffer_Icosphere.222_1": {
            "buffer": "buffer_combined",
            "byteLength": 810,
            "byteOffset": 12896,
            "target": 34963
        }
    },
    "buffers": {
        "buffer_combined": {
            "byteLength": 13706,
            "type": "arraybuffer",
            "uri": "data:text/plain;base64,"
        }
    },
    "extensions": {
        "KHR_materials_common": {
            "lights": {}
        }
    },
    "extensionsUsed": [
        "KHR_materials_common"
    ],
    "images": {
        "image_MainCavern2": {
            "uri": "MainCavern2.png"
        }
    },
    "materials": {
        "material_MainCavern2": {
            "extensions": {
                "KHR_materials_common": {
                    "technique": "PHONG",
                    "values": {
                        "ambient": [
                            1.0,
                            1.0,
                            1.0,
                            1.0
                        ],
                        "diffuse": "texture_MainCavern2",
                        "doubleSided": false,
                        "emission": [
                            0.0,
                            0.0,
                            0.0,
                            1.0
                        ],
                        "shininess": 50,
                        "specular": [
                            0.5,
                            0.5,
                            0.5,
                            1.0
                        ],
                        "transparency": 1.0,
                        "transparent": false
                    }
                }
            },
            "name": "MainCavern2"
        }
    },
    "meshes": {
        "mesh_Icosphere.222": {
            "name": "Icosphere.222",
            "primitives": [
                {
                    "attributes": {
                        "NORMAL": "accessor_buffer_Icosphere.222_1",
                        "POSITION": "accessor_buffer_Icosphere.222_0",
                        "TEXCOORD_0": "accessor_buffer_Icosphere.222_2"
                    },
                    "indices": "accessor_buffer_Icosphere.222_3",
                    "material": "material_MainCavern2",
                    "mode": 4
                }
            ]
        }
    },
    "nodes": {
        "node_MainCavern2": {
            "children": [],
            "matrix": [
                1.0,
                0.0,
                0.0,
                0.0,
                0.0,
                1.0,
                0.0,
                0.0,
                0.0,
                0.0,
                1.0,
                0.0,
                0.8670654296875,
                35.7247428894043,
                3.5606980323791504,
                1.0
            ],
            "meshes": [
                "mesh_Icosphere.222"
            ],
            "name": "MainCavern2"
        },
        "node_scene_Scene_root": {
            "children": [
                "node_MainCavern2"
            ],
            "matrix": [
                1.0,
                0.0,
                0.0,
                0.0,
                0.0,
                0.0,
                -1.0,
                0.0,
                0.0,
                1.0,
                0.0,
                0.0,
                0.0,
                0.0,
                0.0,
                1.0
            ],
            "name": "node_scene_Scene_root"
        }
    },
    "samplers": {
        "sampler_default": {}
    },
    "scene": "scene_Scene",
    "scenes": {
        "scene_Scene": {
            "extras": {
                "active_camera": null,
                "background_color": [
                    0.3263707756996155,
                    0.3263707756996155,
                    0.3263707756996155
                ],
                "frames_per_second": 24
            },
            "name": "Scene",
            "nodes": [
                "node_scene_Scene_root"
            ]
        }
    },
    "textures": {
        "texture_MainCavern2": {
            "format": 6408,
            "internalFormat": 6408,
            "sampler": "sampler_default",
            "source": "image_MainCavern2"
        }
    }
}
