{
    "accessors": {
        "accessor_buffer_Icosphere.220_0": {
            "bufferView": "bufferView_buffer_Icosphere.220_0",
            "byteOffset": 0,
            "byteStride": 12,
            "componentType": 5126,
            "count": 753,
            "max": [
                73.94219970703125,
                220.48486328125,
                81.59492492675781
            ],
            "min": [
                -109.39852905273438,
                -72.0430908203125,
                -13.949235916137695
            ],
            "type": "VEC3"
        },
        "accessor_buffer_Icosphere.220_1": {
            "bufferView": "bufferView_buffer_Icosphere.220_0",
            "byteOffset": 9036,
            "byteStride": 12,
            "componentType": 5126,
            "count": 753,
            "max": [
                0.9979799389839172,
                0.9992508292198181,
                1.0
            ],
            "min": [
                -0.9947434663772583,
                -0.9821871519088745,
                -0.9999991655349731
            ],
            "type": "VEC3"
        },
        "accessor_buffer_Icosphere.220_2": {
            "bufferView": "bufferView_buffer_Icosphere.220_0",
            "byteOffset": 18072,
            "byteStride": 8,
            "componentType": 5126,
            "count": 753,
            "max": [
                0.9988293051719666,
                1.0
            ],
            "min": [
                0.0,
                0.0016217827796936035
            ],
            "type": "VEC2"
        },
        "accessor_buffer_Icosphere.220_3": {
            "bufferView": "bufferView_buffer_Icosphere.220_1",
            "byteOffset": 0,
            "byteStride": 2,
            "componentType": 5123,
            "count": 759,
            "max": [
                752
            ],
            "min": [
                0
            ],
            "type": "SCALAR"
        }
    },
    "asset": {
        "profile": {
            "api": "WebGL",
            "version": "1.0.3"
        },
        "version": "1.0"
    },
    "bufferViews": {
        "bufferView_buffer_Icosphere.220_0": {
            "buffer": "buffer_combined",
            "byteLength": 24096,
            "byteOffset": 0,
            "target": 34962
        },
        "bufferView_buffer_Icosphere.220_1": {
            "buffer": "buffer_combined",
            "byteLength": 1518,
            "byteOffset": 24096,
            "target": 34963
        }
    },
    "buffers": {
        "buffer_combined": {
            "byteLength": 25614,
            "type": "arraybuffer",
            "uri": "data:text/plain;base64,"
        }
    },
    "extensions": {
        "KHR_materials_common": {
            "lights": {}
        }
    },
    "extensionsUsed": [
        "KHR_materials_common"
    ],
    "images": {
        "image_MainCavern1": {
            "uri": "MainCavern1.png"
        }
    },
    "materials": {
        "material_Cavern1": {
            "extensions": {
                "KHR_materials_common": {
                    "technique": "PHONG",
                    "values": {
                        "ambient": [
                            1.0,
                            1.0,
                            1.0,
                            1.0
                        ],
                        "diffuse": "texture_MainCavern1",
                        "doubleSided": false,
                        "emission": [
                            0.0,
                            0.0,
                            0.0,
                            1.0
                        ],
                        "shininess": 50,
                        "specular": [
                            0.5,
                            0.5,
                            0.5,
                            1.0
                        ],
                        "transparency": 1.0,
                        "transparent": false
                    }
                }
            },
            "name": "Cavern1"
        }
    },
    "meshes": {
        "mesh_Icosphere.220": {
            "name": "Icosphere.220",
            "primitives": [
                {
                    "attributes": {
                        "NORMAL": "accessor_buffer_Icosphere.220_1",
                        "POSITION": "accessor_buffer_Icosphere.220_0",
                        "TEXCOORD_0": "accessor_buffer_Icosphere.220_2"
                    },
                    "indices": "accessor_buffer_Icosphere.220_3",
                    "material": "material_Cavern1",
                    "mode": 4
                }
            ]
        }
    },
    "nodes": {
        "node_MainCavern1": {
            "children": [],
            "matrix": [
                1.0,
                0.0,
                0.0,
                0.0,
                0.0,
                1.0,
                0.0,
                0.0,
                0.0,
                0.0,
                1.0,
                0.0,
                0.8670654296875,
                35.7247428894043,
                3.5606980323791504,
                1.0
            ],
            "meshes": [
                "mesh_Icosphere.220"
            ],
            "name": "MainCavern1"
        },
        "node_scene_Scene_root": {
            "children": [
                "node_MainCavern1"
            ],
            "matrix": [
                1.0,
                0.0,
                0.0,
                0.0,
                0.0,
                0.0,
                -1.0,
                0.0,
                0.0,
                1.0,
                0.0,
                0.0,
                0.0,
                0.0,
                0.0,
                1.0
            ],
            "name": "node_scene_Scene_root"
        }
    },
    "samplers": {
        "sampler_default": {}
    },
    "scene": "scene_Scene",
    "scenes": {
        "scene_Scene": {
            "extras": {
                "active_camera": null,
                "background_color": [
                    0.3263707756996155,
                    0.3263707756996155,
                    0.3263707756996155
                ],
                "frames_per_second": 24
            },
            "name": "Scene",
            "nodes": [
                "node_scene_Scene_root"
            ]
        }
    },
    "textures": {
        "texture_MainCavern1": {
            "format": 6408,
            "internalFormat": 6408,
            "sampler": "sampler_default",
            "source": "image_MainCavern1"
        }
    }
}
