{
    "accessors": {
        "accessor_buffer_Icosphere.221_0": {
            "bufferView": "bufferView_buffer_Icosphere.221_0",
            "byteOffset": 0,
            "byteStride": 12,
            "componentType": 5126,
            "count": 396,
            "max": [
                53.49362564086914,
                289.5705871582031,
                31.783226013183594
            ],
            "min": [
                -107.63473510742188,
                207.05734252929688,
                -12.489713668823242
            ],
            "type": "VEC3"
        },
        "accessor_buffer_Icosphere.221_1": {
            "bufferView": "bufferView_buffer_Icosphere.221_0",
            "byteOffset": 4752,
            "byteStride": 12,
            "componentType": 5126,
            "count": 396,
            "max": [
                0.936542272567749,
                0.9418213963508606,
                0.998948872089386
            ],
            "min": [
                -0.9777824878692627,
                -0.9840176701545715,
                -0.988251268863678
            ],
            "type": "VEC3"
        },
        "accessor_buffer_Icosphere.221_2": {
            "bufferView": "bufferView_buffer_Icosphere.221_0",
            "byteOffset": 9504,
            "byteStride": 8,
            "componentType": 5126,
            "count": 396,
            "max": [
                0.9990053176879883,
                0.9990054230438545
            ],
            "min": [
                0.0009945769561454654,
                0.0037741661071777344
            ],
            "type": "VEC2"
        },
        "accessor_buffer_Icosphere.221_3": {
            "bufferView": "bufferView_buffer_Icosphere.221_1",
            "byteOffset": 0,
            "byteStride": 2,
            "componentType": 5123,
            "count": 396,
            "max": [
                395
            ],
            "min": [
                0
            ],
            "type": "SCALAR"
        }
    },
    "asset": {
        "profile": {
            "api": "WebGL",
            "version": "1.0.3"
        },
        "version": "1.0"
    },
    "bufferViews": {
        "bufferView_buffer_Icosphere.221_0": {
            "buffer": "buffer_combined",
            "byteLength": 12672,
            "byteOffset": 0,
            "target": 34962
        },
        "bufferView_buffer_Icosphere.221_1": {
            "buffer": "buffer_combined",
            "byteLength": 792,
            "byteOffset": 12672,
            "target": 34963
        }
    },
    "buffers": {
        "buffer_combined": {
            "byteLength": 13464,
            "type": "arraybuffer",
            "uri": "data:text/plain;base64,"
        }
    },
    "extensions": {
        "KHR_materials_common": {
            "lights": {}
        }
    },
    "extensionsUsed": [
        "KHR_materials_common"
    ],
    "images": {
        "image_OffCave1": {
            "uri": "OffCave1.png"
        }
    },
    "materials": {
        "material_OffCave1": {
            "extensions": {
                "KHR_materials_common": {
                    "technique": "PHONG",
                    "values": {
                        "ambient": [
                            1.0,
                            1.0,
                            1.0,
                            1.0
                        ],
                        "diffuse": "texture_OffCave1",
                        "doubleSided": false,
                        "emission": [
                            0.0,
                            0.0,
                            0.0,
                            1.0
                        ],
                        "shininess": 50,
                        "specular": [
                            0.5,
                            0.5,
                            0.5,
                            1.0
                        ],
                        "transparency": 1.0,
                        "transparent": false
                    }
                }
            },
            "name": "OffCave1"
        }
    },
    "meshes": {
        "mesh_Icosphere.221": {
            "name": "Icosphere.221",
            "primitives": [
                {
                    "attributes": {
                        "NORMAL": "accessor_buffer_Icosphere.221_1",
                        "POSITION": "accessor_buffer_Icosphere.221_0",
                        "TEXCOORD_0": "accessor_buffer_Icosphere.221_2"
                    },
                    "indices": "accessor_buffer_Icosphere.221_3",
                    "material": "material_OffCave1",
                    "mode": 4
                }
            ]
        }
    },
    "nodes": {
        "node_OffCave1": {
            "children": [],
            "matrix": [
                1.0,
                0.0,
                0.0,
                0.0,
                0.0,
                1.0,
                0.0,
                0.0,
                0.0,
                0.0,
                1.0,
                0.0,
                0.8670654296875,
                35.7247428894043,
                3.5606980323791504,
                1.0
            ],
            "meshes": [
                "mesh_Icosphere.221"
            ],
            "name": "OffCave1"
        },
        "node_scene_Scene_root": {
            "children": [
                "node_OffCave1"
            ],
            "matrix": [
                1.0,
                0.0,
                0.0,
                0.0,
                0.0,
                0.0,
                -1.0,
                0.0,
                0.0,
                1.0,
                0.0,
                0.0,
                0.0,
                0.0,
                0.0,
                1.0
            ],
            "name": "node_scene_Scene_root"
        }
    },
    "samplers": {
        "sampler_default": {}
    },
    "scene": "scene_Scene",
    "scenes": {
        "scene_Scene": {
            "extras": {
                "active_camera": null,
                "background_color": [
                    0.3263707756996155,
                    0.3263707756996155,
                    0.3263707756996155
                ],
                "frames_per_second": 24
            },
            "name": "Scene",
            "nodes": [
                "node_scene_Scene_root"
            ]
        }
    },
    "textures": {
        "texture_OffCave1": {
            "format": 6408,
            "internalFormat": 6408,
            "sampler": "sampler_default",
            "source": "image_OffCave1"
        }
    }
}
