{
    "accessors": {
        "accessor_buffer_Icosphere.436_0": {
            "bufferView": "bufferView_buffer_Icosphere.436_0",
            "byteOffset": 0,
            "byteStride": 12,
            "componentType": 5126,
            "count": 336,
            "max": [
                31.932212829589844,
                68.26233673095703,
                5.129776954650879
            ],
            "min": [
                -22.90386199951172,
                -65.88600158691406,
                -6.8229851722717285
            ],
            "type": "VEC3"
        },
        "accessor_buffer_Icosphere.436_1": {
            "bufferView": "bufferView_buffer_Icosphere.436_0",
            "byteOffset": 4032,
            "byteStride": 12,
            "componentType": 5126,
            "count": 336,
            "max": [
                0.12560562789440155,
                0.06391379237174988,
                1.0
            ],
            "min": [
                -0.03079812042415142,
                -0.1624147742986679,
                0.9859665036201477
            ],
            "type": "VEC3"
        },
        "accessor_buffer_Icosphere.436_2": {
            "bufferView": "bufferView_buffer_Icosphere.436_0",
            "byteOffset": 8064,
            "byteStride": 8,
            "componentType": 5126,
            "count": 336,
            "max": [
                0.999356746673584,
                0.999656918051187
            ],
            "min": [
                0.0006432756781578064,
                0.00034302473068237305
            ],
            "type": "VEC2"
        },
        "accessor_buffer_Icosphere.436_3": {
            "bufferView": "bufferView_buffer_Icosphere.436_1",
            "byteOffset": 0,
            "byteStride": 2,
            "componentType": 5123,
            "count": 336,
            "max": [
                335
            ],
            "min": [
                0
            ],
            "type": "SCALAR"
        }
    },
    "asset": {
        "profile": {
            "api": "WebGL",
            "version": "1.0.3"
        },
        "version": "1.0"
    },
    "bufferViews": {
        "bufferView_buffer_Icosphere.436_0": {
            "buffer": "buffer_combined",
            "byteLength": 10752,
            "byteOffset": 0,
            "target": 34962
        },
        "bufferView_buffer_Icosphere.436_1": {
            "buffer": "buffer_combined",
            "byteLength": 672,
            "byteOffset": 10752,
            "target": 34963
        }
    },
    "buffers": {
        "buffer_combined": {
            "byteLength": 11424,
            "type": "arraybuffer",
            "uri": "data:text/plain;base64,"
        }
    },
    "extensions": {
        "KHR_materials_common": {
            "lights": {}
        }
    },
    "extensionsUsed": [
        "KHR_materials_common"
    ],
    "images": {
        "image_Path1": {
            "uri": "Path1.png"
        }
    },
    "materials": {
        "material_CavernPath": {
            "extensions": {
                "KHR_materials_common": {
                    "technique": "PHONG",
                    "values": {
                        "ambient": [
                            1.0,
                            1.0,
                            1.0,
                            1.0
                        ],
                        "diffuse": "texture_Path1",
                        "doubleSided": false,
                        "emission": [
                            0.0,
                            0.0,
                            0.0,
                            1.0
                        ],
                        "shininess": 50,
                        "specular": [
                            0.5,
                            0.5,
                            0.5,
                            1.0
                        ],
                        "transparency": 1.0,
                        "transparent": false
                    }
                }
            },
            "name": "CavernPath"
        }
    },
    "meshes": {
        "mesh_Icosphere.436": {
            "name": "Icosphere.436",
            "primitives": [
                {
                    "attributes": {
                        "NORMAL": "accessor_buffer_Icosphere.436_1",
                        "POSITION": "accessor_buffer_Icosphere.436_0",
                        "TEXCOORD_0": "accessor_buffer_Icosphere.436_2"
                    },
                    "indices": "accessor_buffer_Icosphere.436_3",
                    "material": "material_CavernPath",
                    "mode": 4
                }
            ]
        }
    },
    "nodes": {
        "node_Path1": {
            "children": [],
            "matrix": [
                1.0,
                0.0,
                0.0,
                0.0,
                0.0,
                1.0,
                0.0,
                0.0,
                0.0,
                0.0,
                1.0,
                0.0,
                -22.121002197265625,
                55.86345291137695,
                6.199965953826904,
                1.0
            ],
            "meshes": [
                "mesh_Icosphere.436"
            ],
            "name": "Path1"
        },
        "node_scene_Scene_root": {
            "children": [
                "node_Path1"
            ],
            "matrix": [
                1.0,
                0.0,
                0.0,
                0.0,
                0.0,
                0.0,
                -1.0,
                0.0,
                0.0,
                1.0,
                0.0,
                0.0,
                0.0,
                0.0,
                0.0,
                1.0
            ],
            "name": "node_scene_Scene_root"
        }
    },
    "samplers": {
        "sampler_default": {}
    },
    "scene": "scene_Scene",
    "scenes": {
        "scene_Scene": {
            "extras": {
                "active_camera": null,
                "background_color": [
                    0.3263707756996155,
                    0.3263707756996155,
                    0.3263707756996155
                ],
                "frames_per_second": 24
            },
            "name": "Scene",
            "nodes": [
                "node_scene_Scene_root"
            ]
        }
    },
    "textures": {
        "texture_Path1": {
            "format": 6408,
            "internalFormat": 6408,
            "sampler": "sampler_default",
            "source": "image_Path1"
        }
    }
}
