{
    "accessors": {
        "accessor_buffer_Icosphere.223_0": {
            "bufferView": "bufferView_buffer_Icosphere.223_0",
            "byteOffset": 0,
            "byteStride": 12,
            "componentType": 5126,
            "count": 435,
            "max": [
                7.097053527832031,
                44.4613037109375,
                10.299997329711914
            ],
            "min": [
                -17.368106842041016,
                -33.2030029296875,
                -8.323400497436523
            ],
            "type": "VEC3"
        },
        "accessor_buffer_Icosphere.223_1": {
            "bufferView": "bufferView_buffer_Icosphere.223_0",
            "byteOffset": 5220,
            "byteStride": 12,
            "componentType": 5126,
            "count": 435,
            "max": [
                0.5210931897163391,
                0.7922704219818115,
                0.9992936253547668
            ],
            "min": [
                -0.9998968243598938,
                -0.9852105379104614,
                -0.9937818050384521
            ],
            "type": "VEC3"
        },
        "accessor_buffer_Icosphere.223_2": {
            "bufferView": "bufferView_buffer_Icosphere.223_0",
            "byteOffset": 10440,
            "byteStride": 8,
            "componentType": 5126,
            "count": 435,
            "max": [
                0.9993218779563904,
                0.9996252954588272
            ],
            "min": [
                0.0006781556876376271,
                0.00037467479705810547
            ],
            "type": "VEC2"
        },
        "accessor_buffer_Icosphere.223_3": {
            "bufferView": "bufferView_buffer_Icosphere.223_1",
            "byteOffset": 0,
            "byteStride": 2,
            "componentType": 5123,
            "count": 435,
            "max": [
                434
            ],
            "min": [
                0
            ],
            "type": "SCALAR"
        }
    },
    "asset": {
        "profile": {
            "api": "WebGL",
            "version": "1.0.3"
        },
        "version": "1.0"
    },
    "bufferViews": {
        "bufferView_buffer_Icosphere.223_0": {
            "buffer": "buffer_combined",
            "byteLength": 13920,
            "byteOffset": 0,
            "target": 34962
        },
        "bufferView_buffer_Icosphere.223_1": {
            "buffer": "buffer_combined",
            "byteLength": 870,
            "byteOffset": 13920,
            "target": 34963
        }
    },
    "buffers": {
        "buffer_combined": {
            "byteLength": 14790,
            "type": "arraybuffer",
            "uri": "data:text/plain;base64,"
        }
    },
    "extensions": {
        "KHR_materials_common": {
            "lights": {}
        }
    },
    "extensionsUsed": [
        "KHR_materials_common"
    ],
    "images": {
        "image_Ridge1": {
            "uri": "Ridge1.png"
        }
    },
    "materials": {
        "material_Ridge1": {
            "extensions": {
                "KHR_materials_common": {
                    "technique": "PHONG",
                    "values": {
                        "ambient": [
                            1.0,
                            1.0,
                            1.0,
                            1.0
                        ],
                        "diffuse": "texture_Ridge1",
                        "doubleSided": false,
                        "emission": [
                            0.0,
                            0.0,
                            0.0,
                            1.0
                        ],
                        "shininess": 50,
                        "specular": [
                            0.5,
                            0.5,
                            0.5,
                            1.0
                        ],
                        "transparency": 1.0,
                        "transparent": false
                    }
                }
            },
            "name": "Ridge1"
        }
    },
    "meshes": {
        "mesh_Icosphere.223": {
            "name": "Icosphere.223",
            "primitives": [
                {
                    "attributes": {
                        "NORMAL": "accessor_buffer_Icosphere.223_1",
                        "POSITION": "accessor_buffer_Icosphere.223_0",
                        "TEXCOORD_0": "accessor_buffer_Icosphere.223_2"
                    },
                    "indices": "accessor_buffer_Icosphere.223_3",
                    "material": "material_Ridge1",
                    "mode": 4
                }
            ]
        }
    },
    "nodes": {
        "node_Ridge1": {
            "children": [],
            "matrix": [
                1.0,
                0.0,
                0.0,
                0.0,
                0.0,
                1.0,
                0.0,
                0.0,
                0.0,
                0.0,
                1.0,
                0.0,
                59.26514434814453,
                154.4477996826172,
                33.07534408569336,
                1.0
            ],
            "meshes": [
                "mesh_Icosphere.223"
            ],
            "name": "Ridge1"
        },
        "node_scene_Scene_root": {
            "children": [
                "node_Ridge1"
            ],
            "matrix": [
                1.0,
                0.0,
                0.0,
                0.0,
                0.0,
                0.0,
                -1.0,
                0.0,
                0.0,
                1.0,
                0.0,
                0.0,
                0.0,
                0.0,
                0.0,
                1.0
            ],
            "name": "node_scene_Scene_root"
        }
    },
    "samplers": {
        "sampler_default": {}
    },
    "scene": "scene_Scene",
    "scenes": {
        "scene_Scene": {
            "extras": {
                "active_camera": null,
                "background_color": [
                    0.3263707756996155,
                    0.3263707756996155,
                    0.3263707756996155
                ],
                "frames_per_second": 24
            },
            "name": "Scene",
            "nodes": [
                "node_scene_Scene_root"
            ]
        }
    },
    "textures": {
        "texture_Ridge1": {
            "format": 6408,
            "internalFormat": 6408,
            "sampler": "sampler_default",
            "source": "image_Ridge1"
        }
    }
}
