{
    "accessors": {
        "accessor_buffer_Icosphere.223_0": {
            "bufferView": "bufferView_buffer_Icosphere.223_0",
            "byteOffset": 0,
            "byteStride": 12,
            "componentType": 5126,
            "count": 477,
            "max": [
                65.49513244628906,
                163.18435668945312,
                39.81464385986328
            ],
            "min": [
                41.029972076416016,
                85.52005004882812,
                21.191246032714844
            ],
            "type": "VEC3"
        },
        "accessor_buffer_Icosphere.223_1": {
            "bufferView": "bufferView_buffer_Icosphere.223_0",
            "byteOffset": 5724,
            "byteStride": 12,
            "componentType": 5126,
            "count": 477,
            "max": [
                0.5210897326469421,
                0.7922695875167847,
                0.9992936253547668
            ],
            "min": [
                -0.9998967051506042,
                -0.9852104783058167,
                -0.9937819838523865
            ],
            "type": "VEC3"
        },
        "accessor_buffer_Icosphere.223_2": {
            "bufferView": "bufferView_buffer_Icosphere.223_0",
            "byteOffset": 11448,
            "byteStride": 8,
            "componentType": 5126,
            "count": 477,
            "max": [
                0.9993149638175964,
                0.9996233365673106
            ],
            "min": [
                0.0006850743084214628,
                0.00037664175033569336
            ],
            "type": "VEC2"
        },
        "accessor_buffer_Icosphere.223_3": {
            "bufferView": "bufferView_buffer_Icosphere.223_1",
            "byteOffset": 0,
            "byteStride": 2,
            "componentType": 5123,
            "count": 477,
            "max": [
                476
            ],
            "min": [
                0
            ],
            "type": "SCALAR"
        }
    },
    "asset": {
        "profile": {
            "api": "WebGL",
            "version": "1.0.3"
        },
        "version": "1.0"
    },
    "bufferViews": {
        "bufferView_buffer_Icosphere.223_0": {
            "buffer": "buffer_combined",
            "byteLength": 15264,
            "byteOffset": 0,
            "target": 34962
        },
        "bufferView_buffer_Icosphere.223_1": {
            "buffer": "buffer_combined",
            "byteLength": 954,
            "byteOffset": 15264,
            "target": 34963
        }
    },
    "buffers": {
        "buffer_combined": {
            "byteLength": 16218,
            "type": "arraybuffer",
            "uri": "data:text/plain;base64,"
        }
    },
    "extensions": {
        "KHR_materials_common": {
            "lights": {}
        }
    },
    "extensionsUsed": [
        "KHR_materials_common"
    ],
    "images": {
        "image_Ridge1": {
            "uri": "Ridge1.png"
        }
    },
    "materials": {
        "material_Ridge1": {
            "extensions": {
                "KHR_materials_common": {
                    "technique": "PHONG",
                    "values": {
                        "ambient": [
                            1.0,
                            1.0,
                            1.0,
                            1.0
                        ],
                        "diffuse": "texture_Ridge1",
                        "doubleSided": false,
                        "emission": [
                            0.0,
                            0.0,
                            0.0,
                            1.0
                        ],
                        "shininess": 50,
                        "specular": [
                            0.5,
                            0.5,
                            0.5,
                            1.0
                        ],
                        "transparency": 1.0,
                        "transparent": false
                    }
                }
            },
            "name": "Ridge1"
        }
    },
    "meshes": {
        "mesh_Icosphere.223": {
            "name": "Icosphere.223",
            "primitives": [
                {
                    "attributes": {
                        "NORMAL": "accessor_buffer_Icosphere.223_1",
                        "POSITION": "accessor_buffer_Icosphere.223_0",
                        "TEXCOORD_0": "accessor_buffer_Icosphere.223_2"
                    },
                    "indices": "accessor_buffer_Icosphere.223_3",
                    "material": "material_Ridge1",
                    "mode": 4
                }
            ]
        }
    },
    "nodes": {
        "node_Ridge1": {
            "children": [],
            "matrix": [
                1.0,
                0.0,
                0.0,
                0.0,
                0.0,
                1.0,
                0.0,
                0.0,
                0.0,
                0.0,
                1.0,
                0.0,
                0.8670654296875,
                35.7247428894043,
                3.5606980323791504,
                1.0
            ],
            "meshes": [
                "mesh_Icosphere.223"
            ],
            "name": "Ridge1"
        },
        "node_scene_Scene_root": {
            "children": [
                "node_Ridge1"
            ],
            "matrix": [
                1.0,
                0.0,
                0.0,
                0.0,
                0.0,
                0.0,
                -1.0,
                0.0,
                0.0,
                1.0,
                0.0,
                0.0,
                0.0,
                0.0,
                0.0,
                1.0
            ],
            "name": "node_scene_Scene_root"
        }
    },
    "samplers": {
        "sampler_default": {}
    },
    "scene": "scene_Scene",
    "scenes": {
        "scene_Scene": {
            "extras": {
                "active_camera": null,
                "background_color": [
                    0.35883867740631104,
                    0.35883867740631104,
                    0.35883867740631104
                ],
                "frames_per_second": 24
            },
            "name": "Scene",
            "nodes": [
                "node_scene_Scene_root"
            ]
        }
    },
    "textures": {
        "texture_Ridge1": {
            "format": 6408,
            "internalFormat": 6408,
            "sampler": "sampler_default",
            "source": "image_Ridge1"
        }
    }
}
