{
    "accessors": {
        "accessor_buffer_Cube.043_0": {
            "bufferView": "bufferView_buffer_Cube.043_0",
            "byteOffset": 0,
            "byteStride": 12,
            "componentType": 5126,
            "count": 24,
            "max": [
                1.0,
                1.0,
                1.0
            ],
            "min": [
                -1.0,
                -1.0,
                -1.0
            ],
            "type": "VEC3"
        },
        "accessor_buffer_Cube.043_1": {
            "bufferView": "bufferView_buffer_Cube.043_0",
            "byteOffset": 288,
            "byteStride": 12,
            "componentType": 5126,
            "count": 24,
            "max": [
                1.0,
                1.0,
                1.0
            ],
            "min": [
                -1.0,
                -1.0,
                -1.0
            ],
            "type": "VEC3"
        },
        "accessor_buffer_Cube.043_2": {
            "bufferView": "bufferView_buffer_Cube.043_0",
            "byteOffset": 576,
            "byteStride": 8,
            "componentType": 5126,
            "count": 24,
            "max": [
                0.9951456189155579,
                0.9951456319540739
            ],
            "min": [
                0.004854368045926094,
                0.004854321479797363
            ],
            "type": "VEC2"
        },
        "accessor_buffer_Cube.043_3": {
            "bufferView": "bufferView_buffer_Cube.043_1",
            "byteOffset": 0,
            "byteStride": 2,
            "componentType": 5123,
            "count": 36,
            "max": [
                23
            ],
            "min": [
                0
            ],
            "type": "SCALAR"
        }
    },
    "asset": {
        "profile": {
            "api": "WebGL",
            "version": "1.0.3"
        },
        "version": "1.0"
    },
    "bufferViews": {
        "bufferView_buffer_Cube.043_0": {
            "buffer": "buffer_combined",
            "byteLength": 768,
            "byteOffset": 0,
            "target": 34962
        },
        "bufferView_buffer_Cube.043_1": {
            "buffer": "buffer_combined",
            "byteLength": 72,
            "byteOffset": 768,
            "target": 34963
        }
    },
    "buffers": {
        "buffer_combined": {
            "byteLength": 840,
            "type": "arraybuffer",
            "uri": "data:text/plain;base64,"
        }
    },
    "extensions": {
        "KHR_materials_common": {
            "lights": {}
        }
    },
    "extensionsUsed": [
        "KHR_materials_common"
    ],
    "images": {
        "image_SpawnLight": {
            "uri": "SpawnLight.png"
        }
    },
    "materials": {
        "material_SpawnGlow": {
            "extensions": {
                "KHR_materials_common": {
                    "technique": "PHONG",
                    "values": {
                        "ambient": [
                            1.0,
                            1.0,
                            1.0,
                            1.0
                        ],
                        "diffuse": "texture_SpawnLight",
                        "doubleSided": false,
                        "emission": [
                            0.0,
                            0.0,
                            0.0,
                            1.0
                        ],
                        "shininess": 50,
                        "specular": [
                            0.5,
                            0.5,
                            0.5,
                            1.0
                        ],
                        "transparency": 1.0,
                        "transparent": false
                    }
                }
            },
            "name": "SpawnGlow"
        }
    },
    "meshes": {
        "mesh_Cube.043": {
            "name": "Cube.043",
            "primitives": [
                {
                    "attributes": {
                        "NORMAL": "accessor_buffer_Cube.043_1",
                        "POSITION": "accessor_buffer_Cube.043_0",
                        "TEXCOORD_0": "accessor_buffer_Cube.043_2"
                    },
                    "indices": "accessor_buffer_Cube.043_3",
                    "material": "material_SpawnGlow",
                    "mode": 4
                }
            ]
        }
    },
    "nodes": {
        "node_SpawnLight1.002": {
            "children": [],
            "matrix": [
                0.09341602772474289,
                -0.04687785729765892,
                0.0,
                0.0,
                0.12760044634342194,
                0.2542762756347656,
                0.0,
                0.0,
                0.0,
                0.0,
                0.625103235244751,
                0.0,
                -6.058543682098389,
                -0.0008391141891479492,
                2.68341326713562,
                1.0
            ],
            "meshes": [
                "mesh_Cube.043"
            ],
            "name": "SpawnLight1.002"
        },
        "node_scene_Scene_root": {
            "children": [
                "node_SpawnLight1.002"
            ],
            "matrix": [
                1.0,
                0.0,
                0.0,
                0.0,
                0.0,
                0.0,
                -1.0,
                0.0,
                0.0,
                1.0,
                0.0,
                0.0,
                0.0,
                0.0,
                0.0,
                1.0
            ],
            "name": "node_scene_Scene_root"
        }
    },
    "samplers": {
        "sampler_default": {}
    },
    "scene": "scene_Scene",
    "scenes": {
        "scene_Scene": {
            "extras": {
                "active_camera": null,
                "background_color": [
                    0.3263707756996155,
                    0.3263707756996155,
                    0.3263707756996155
                ],
                "frames_per_second": 24
            },
            "name": "Scene",
            "nodes": [
                "node_scene_Scene_root"
            ]
        }
    },
    "textures": {
        "texture_SpawnLight": {
            "format": 6408,
            "internalFormat": 6408,
            "sampler": "sampler_default",
            "source": "image_SpawnLight"
        }
    }
}
