{
    "accessors": {
        "accessor_buffer_Icosphere.420_0": {
            "bufferView": "bufferView_buffer_Icosphere.420_0",
            "byteOffset": 0,
            "byteStride": 12,
            "componentType": 5126,
            "count": 9216,
            "max": [
                154.1234893798828,
                70.76387786865234,
                285.98614501953125
            ],
            "min": [
                -692.5404663085938,
                -541.5390014648438,
                -27.19675064086914
            ],
            "type": "VEC3"
        },
        "accessor_buffer_Icosphere.420_1": {
            "bufferView": "bufferView_buffer_Icosphere.420_0",
            "byteOffset": 110592,
            "byteStride": 12,
            "componentType": 5126,
            "count": 9216,
            "max": [
                0.999903678894043,
                0.9990686774253845,
                0.9988684058189392
            ],
            "min": [
                -0.9966660141944885,
                -0.9992107152938843,
                -0.998868465423584
            ],
            "type": "VEC3"
        },
        "accessor_buffer_Icosphere.420_2": {
            "bufferView": "bufferView_buffer_Icosphere.420_0",
            "byteOffset": 221184,
            "byteStride": 8,
            "componentType": 5126,
            "count": 9216,
            "max": [
                0.9985957145690918,
                0.998599354410544
            ],
            "min": [
                0.0014042520197108388,
                0.001400589942932129
            ],
            "type": "VEC2"
        },
        "accessor_buffer_Icosphere.420_3": {
            "bufferView": "bufferView_buffer_Icosphere.420_1",
            "byteOffset": 0,
            "byteStride": 2,
            "componentType": 5123,
            "count": 2160,
            "max": [
                9201
            ],
            "min": [
                1
            ],
            "type": "SCALAR"
        },
        "accessor_buffer_Icosphere.420_4": {
            "bufferView": "bufferView_buffer_Icosphere.420_2",
            "byteOffset": 0,
            "byteStride": 2,
            "componentType": 5123,
            "count": 11232,
            "max": [
                9215
            ],
            "min": [
                0
            ],
            "type": "SCALAR"
        }
    },
    "asset": {
        "profile": {
            "api": "WebGL",
            "version": "1.0.3"
        },
        "version": "1.0"
    },
    "bufferViews": {
        "bufferView_buffer_Icosphere.420_0": {
            "buffer": "buffer_combined",
            "byteLength": 294912,
            "byteOffset": 0,
            "target": 34962
        },
        "bufferView_buffer_Icosphere.420_1": {
            "buffer": "buffer_combined",
            "byteLength": 4320,
            "byteOffset": 294912,
            "target": 34963
        },
        "bufferView_buffer_Icosphere.420_2": {
            "buffer": "buffer_combined",
            "byteLength": 22464,
            "byteOffset": 299232,
            "target": 34963
        }
    },
    "buffers": {
        "buffer_combined": {
            "byteLength": 321696,
            "type": "arraybuffer",
            "uri": "data:text/plain;base64,"
        }
    },
    "extensions": {
        "KHR_materials_common": {
            "lights": {}
        }
    },
    "extensionsUsed": [
        "KHR_materials_common"
    ],
    "images": {
        "image_Tree6": {
            "uri": "Tree6.png"
        }
    },
    "materials": {
        "material_TreeBark6": {
            "extensions": {
                "KHR_materials_common": {
                    "technique": "PHONG",
                    "values": {
                        "ambient": [
                            1.0,
                            1.0,
                            1.0,
                            1.0
                        ],
                        "diffuse": "texture_Tree6",
                        "doubleSided": false,
                        "emission": [
                            0.0,
                            0.0,
                            0.0,
                            1.0
                        ],
                        "shininess": 50,
                        "specular": [
                            0.5,
                            0.5,
                            0.5,
                            1.0
                        ],
                        "transparency": 1.0,
                        "transparent": false
                    }
                }
            },
            "name": "TreeBark6"
        },
        "material_TreeLeaves6": {
            "extensions": {
                "KHR_materials_common": {
                    "technique": "PHONG",
                    "values": {
                        "ambient": [
                            1.0,
                            1.0,
                            1.0,
                            1.0
                        ],
                        "diffuse": "texture_Tree6",
                        "doubleSided": false,
                        "emission": [
                            0.0,
                            0.0,
                            0.0,
                            1.0
                        ],
                        "shininess": 50,
                        "specular": [
                            0.5,
                            0.5,
                            0.5,
                            1.0
                        ],
                        "transparency": 1.0,
                        "transparent": false
                    }
                }
            },
            "name": "TreeLeaves6"
        }
    },
    "meshes": {
        "mesh_Icosphere.420": {
            "name": "Icosphere.420",
            "primitives": [
                {
                    "attributes": {
                        "NORMAL": "accessor_buffer_Icosphere.420_1",
                        "POSITION": "accessor_buffer_Icosphere.420_0",
                        "TEXCOORD_0": "accessor_buffer_Icosphere.420_2"
                    },
                    "indices": "accessor_buffer_Icosphere.420_3",
                    "material": "material_TreeLeaves6",
                    "mode": 4
                },
                {
                    "attributes": {
                        "NORMAL": "accessor_buffer_Icosphere.420_1",
                        "POSITION": "accessor_buffer_Icosphere.420_0",
                        "TEXCOORD_0": "accessor_buffer_Icosphere.420_2"
                    },
                    "indices": "accessor_buffer_Icosphere.420_4",
                    "material": "material_TreeBark6",
                    "mode": 4
                }
            ]
        }
    },
    "nodes": {
        "node_Tree6.036": {
            "children": [],
            "matrix": [
                -0.20563730597496033,
                0.34231042861938477,
                0.08505065739154816,
                0.0,
                -0.322360098361969,
                -0.22235047817230225,
                0.11550328135490417,
                0.0,
                0.14315733313560486,
                -0.008976951241493225,
                0.38225916028022766,
                0.0,
                -31.5985164642334,
                84.14937591552734,
                9.782808303833008,
                1.0
            ],
            "meshes": [
                "mesh_Icosphere.420"
            ],
            "name": "Tree6.036"
        },
        "node_scene_Scene_root": {
            "children": [
                "node_Tree6.036"
            ],
            "matrix": [
                1.0,
                0.0,
                0.0,
                0.0,
                0.0,
                0.0,
                -1.0,
                0.0,
                0.0,
                1.0,
                0.0,
                0.0,
                0.0,
                0.0,
                0.0,
                1.0
            ],
            "name": "node_scene_Scene_root"
        }
    },
    "samplers": {
        "sampler_default": {}
    },
    "scene": "scene_Scene",
    "scenes": {
        "scene_Scene": {
            "extras": {
                "active_camera": null,
                "background_color": [
                    0.3263707756996155,
                    0.3263707756996155,
                    0.3263707756996155
                ],
                "frames_per_second": 24
            },
            "name": "Scene",
            "nodes": [
                "node_scene_Scene_root"
            ]
        }
    },
    "textures": {
        "texture_Tree6": {
            "format": 6408,
            "internalFormat": 6408,
            "sampler": "sampler_default",
            "source": "image_Tree6"
        }
    }
}
