{
    "accessors": {
        "accessor_buffer_Icosphere.426_0": {
            "bufferView": "bufferView_buffer_Icosphere.426_0",
            "byteOffset": 0,
            "byteStride": 12,
            "componentType": 5126,
            "count": 10550,
            "max": [
                172.94342041015625,
                92.10807800292969,
                22.373571395874023
            ],
            "min": [
                -134.93846130371094,
                -848.4118041992188,
                -29.240938186645508
            ],
            "type": "VEC3"
        },
        "accessor_buffer_Icosphere.426_1": {
            "bufferView": "bufferView_buffer_Icosphere.426_0",
            "byteOffset": 126600,
            "byteStride": 12,
            "componentType": 5126,
            "count": 10550,
            "max": [
                0.9999637007713318,
                0.9999242424964905,
                0.980079710483551
            ],
            "min": [
                -0.9999113082885742,
                -0.999969482421875,
                -1.0
            ],
            "type": "VEC3"
        },
        "accessor_buffer_Icosphere.426_2": {
            "bufferView": "bufferView_buffer_Icosphere.426_0",
            "byteOffset": 253200,
            "byteStride": 8,
            "componentType": 5126,
            "count": 10550,
            "max": [
                0.9990828633308411,
                0.9991460982710123
            ],
            "min": [
                0.0009171385318040848,
                0.0008539557456970215
            ],
            "type": "VEC2"
        },
        "accessor_buffer_Icosphere.426_3": {
            "bufferView": "bufferView_buffer_Icosphere.426_1",
            "byteOffset": 0,
            "byteStride": 2,
            "componentType": 5123,
            "count": 10350,
            "max": [
                10549
            ],
            "min": [
                0
            ],
            "type": "SCALAR"
        },
        "accessor_buffer_Icosphere.426_4": {
            "bufferView": "bufferView_buffer_Icosphere.426_2",
            "byteOffset": 0,
            "byteStride": 2,
            "componentType": 5123,
            "count": 4200,
            "max": [
                10545
            ],
            "min": [
                4
            ],
            "type": "SCALAR"
        }
    },
    "asset": {
        "profile": {
            "api": "WebGL",
            "version": "1.0.3"
        },
        "version": "1.0"
    },
    "bufferViews": {
        "bufferView_buffer_Icosphere.426_0": {
            "buffer": "buffer_combined",
            "byteLength": 337600,
            "byteOffset": 0,
            "target": 34962
        },
        "bufferView_buffer_Icosphere.426_1": {
            "buffer": "buffer_combined",
            "byteLength": 20700,
            "byteOffset": 337600,
            "target": 34963
        },
        "bufferView_buffer_Icosphere.426_2": {
            "buffer": "buffer_combined",
            "byteLength": 8400,
            "byteOffset": 358300,
            "target": 34963
        }
    },
    "buffers": {
        "buffer_combined": {
            "byteLength": 366700,
            "type": "arraybuffer",
            "uri": "data:text/plain;base64,"
        }
    },
    "extensions": {
        "KHR_materials_common": {
            "lights": {}
        }
    },
    "extensionsUsed": [
        "KHR_materials_common"
    ],
    "images": {
        "image_Tree1": {
            "uri": "Tree1.png"
        }
    },
    "materials": {
        "material_TreeBark1": {
            "extensions": {
                "KHR_materials_common": {
                    "technique": "PHONG",
                    "values": {
                        "ambient": [
                            1.0,
                            1.0,
                            1.0,
                            1.0
                        ],
                        "diffuse": "texture_Tree1",
                        "doubleSided": false,
                        "emission": [
                            0.0,
                            0.0,
                            0.0,
                            1.0
                        ],
                        "shininess": 50,
                        "specular": [
                            0.5,
                            0.5,
                            0.5,
                            1.0
                        ],
                        "transparency": 1.0,
                        "transparent": false
                    }
                }
            },
            "name": "TreeBark1"
        },
        "material_TreeLeaves1": {
            "extensions": {
                "KHR_materials_common": {
                    "technique": "PHONG",
                    "values": {
                        "ambient": [
                            1.0,
                            1.0,
                            1.0,
                            1.0
                        ],
                        "diffuse": "texture_Tree1",
                        "doubleSided": false,
                        "emission": [
                            0.0,
                            0.0,
                            0.0,
                            1.0
                        ],
                        "shininess": 50,
                        "specular": [
                            0.5,
                            0.5,
                            0.5,
                            1.0
                        ],
                        "transparency": 1.0,
                        "transparent": false
                    }
                }
            },
            "name": "TreeLeaves1"
        }
    },
    "meshes": {
        "mesh_Icosphere.426": {
            "name": "Icosphere.426",
            "primitives": [
                {
                    "attributes": {
                        "NORMAL": "accessor_buffer_Icosphere.426_1",
                        "POSITION": "accessor_buffer_Icosphere.426_0",
                        "TEXCOORD_0": "accessor_buffer_Icosphere.426_2"
                    },
                    "indices": "accessor_buffer_Icosphere.426_3",
                    "material": "material_TreeBark1",
                    "mode": 4
                },
                {
                    "attributes": {
                        "NORMAL": "accessor_buffer_Icosphere.426_1",
                        "POSITION": "accessor_buffer_Icosphere.426_0",
                        "TEXCOORD_0": "accessor_buffer_Icosphere.426_2"
                    },
                    "indices": "accessor_buffer_Icosphere.426_4",
                    "material": "material_TreeLeaves1",
                    "mode": 4
                }
            ]
        }
    },
    "nodes": {
        "node_Tree1.050": {
            "children": [],
            "matrix": [
                0.20124724507331848,
                0.4064200818538666,
                0.0,
                0.0,
                -0.4064200818538666,
                0.20124724507331848,
                0.0,
                0.0,
                0.0,
                0.0,
                0.45351719856262207,
                0.0,
                -45.572757720947266,
                95.16334533691406,
                11.05236530303955,
                1.0
            ],
            "meshes": [
                "mesh_Icosphere.426"
            ],
            "name": "Tree1.050"
        },
        "node_scene_Scene_root": {
            "children": [
                "node_Tree1.050"
            ],
            "matrix": [
                1.0,
                0.0,
                0.0,
                0.0,
                0.0,
                0.0,
                -1.0,
                0.0,
                0.0,
                1.0,
                0.0,
                0.0,
                0.0,
                0.0,
                0.0,
                1.0
            ],
            "name": "node_scene_Scene_root"
        }
    },
    "samplers": {
        "sampler_default": {}
    },
    "scene": "scene_Scene",
    "scenes": {
        "scene_Scene": {
            "extras": {
                "active_camera": null,
                "background_color": [
                    0.3263707756996155,
                    0.3263707756996155,
                    0.3263707756996155
                ],
                "frames_per_second": 24
            },
            "name": "Scene",
            "nodes": [
                "node_scene_Scene_root"
            ]
        }
    },
    "textures": {
        "texture_Tree1": {
            "format": 6408,
            "internalFormat": 6408,
            "sampler": "sampler_default",
            "source": "image_Tree1"
        }
    }
}
