{
    "accessors": {
        "accessor_buffer_Cube.062_0": {
            "bufferView": "bufferView_buffer_Cube.062_0",
            "byteOffset": 0,
            "byteStride": 12,
            "componentType": 5126,
            "count": 14035,
            "max": [
                607.15185546875,
                148.8751983642578,
                17.4168701171875
            ],
            "min": [
                -28.66388511657715,
                -749.6157836914062,
                -29.045740127563477
            ],
            "type": "VEC3"
        },
        "accessor_buffer_Cube.062_1": {
            "bufferView": "bufferView_buffer_Cube.062_0",
            "byteOffset": 168420,
            "byteStride": 12,
            "componentType": 5126,
            "count": 14035,
            "max": [
                0.9998663067817688,
                0.9997409582138062,
                0.9952011704444885
            ],
            "min": [
                -0.9998127818107605,
                -0.9999414086341858,
                -1.0
            ],
            "type": "VEC3"
        },
        "accessor_buffer_Cube.062_2": {
            "bufferView": "bufferView_buffer_Cube.062_0",
            "byteOffset": 336840,
            "byteStride": 8,
            "componentType": 5126,
            "count": 14035,
            "max": [
                0.9943104982376099,
                0.9986016993643716
            ],
            "min": [
                0.0013147876597940922,
                0.0013982653617858887
            ],
            "type": "VEC2"
        },
        "accessor_buffer_Cube.062_3": {
            "bufferView": "bufferView_buffer_Cube.062_1",
            "byteOffset": 0,
            "byteStride": 2,
            "componentType": 5123,
            "count": 12495,
            "max": [
                14033
            ],
            "min": [
                0
            ],
            "type": "SCALAR"
        },
        "accessor_buffer_Cube.062_4": {
            "bufferView": "bufferView_buffer_Cube.062_2",
            "byteOffset": 0,
            "byteStride": 2,
            "componentType": 5123,
            "count": 6300,
            "max": [
                14034
            ],
            "min": [
                1
            ],
            "type": "SCALAR"
        }
    },
    "asset": {
        "profile": {
            "api": "WebGL",
            "version": "1.0.3"
        },
        "version": "1.0"
    },
    "bufferViews": {
        "bufferView_buffer_Cube.062_0": {
            "buffer": "buffer_combined",
            "byteLength": 449120,
            "byteOffset": 0,
            "target": 34962
        },
        "bufferView_buffer_Cube.062_1": {
            "buffer": "buffer_combined",
            "byteLength": 24990,
            "byteOffset": 449120,
            "target": 34963
        },
        "bufferView_buffer_Cube.062_2": {
            "buffer": "buffer_combined",
            "byteLength": 12600,
            "byteOffset": 474110,
            "target": 34963
        }
    },
    "buffers": {
        "buffer_combined": {
            "byteLength": 486710,
            "type": "arraybuffer",
            "uri": "data:text/plain;base64,"
        }
    },
    "extensions": {
        "KHR_materials_common": {
            "lights": {}
        }
    },
    "extensionsUsed": [
        "KHR_materials_common"
    ],
    "images": {
        "image_Tree5": {
            "uri": "Tree5.png"
        }
    },
    "materials": {
        "material_TreeBark5": {
            "extensions": {
                "KHR_materials_common": {
                    "technique": "PHONG",
                    "values": {
                        "ambient": [
                            1.0,
                            1.0,
                            1.0,
                            1.0
                        ],
                        "diffuse": "texture_Tree5",
                        "doubleSided": false,
                        "emission": [
                            0.0,
                            0.0,
                            0.0,
                            1.0
                        ],
                        "shininess": 50,
                        "specular": [
                            0.5,
                            0.5,
                            0.5,
                            1.0
                        ],
                        "transparency": 1.0,
                        "transparent": false
                    }
                }
            },
            "name": "TreeBark5"
        },
        "material_TreeLeaves5": {
            "extensions": {
                "KHR_materials_common": {
                    "technique": "PHONG",
                    "values": {
                        "ambient": [
                            1.0,
                            1.0,
                            1.0,
                            1.0
                        ],
                        "diffuse": "texture_Tree5",
                        "doubleSided": false,
                        "emission": [
                            0.0,
                            0.0,
                            0.0,
                            1.0
                        ],
                        "shininess": 50,
                        "specular": [
                            0.5,
                            0.5,
                            0.5,
                            1.0
                        ],
                        "transparency": 1.0,
                        "transparent": false
                    }
                }
            },
            "name": "TreeLeaves5"
        }
    },
    "meshes": {
        "mesh_Cube.062": {
            "name": "Cube.062",
            "primitives": [
                {
                    "attributes": {
                        "NORMAL": "accessor_buffer_Cube.062_1",
                        "POSITION": "accessor_buffer_Cube.062_0",
                        "TEXCOORD_0": "accessor_buffer_Cube.062_2"
                    },
                    "indices": "accessor_buffer_Cube.062_3",
                    "material": "material_TreeBark5",
                    "mode": 4
                },
                {
                    "attributes": {
                        "NORMAL": "accessor_buffer_Cube.062_1",
                        "POSITION": "accessor_buffer_Cube.062_0",
                        "TEXCOORD_0": "accessor_buffer_Cube.062_2"
                    },
                    "indices": "accessor_buffer_Cube.062_4",
                    "material": "material_TreeLeaves5",
                    "mode": 4
                }
            ]
        }
    },
    "nodes": {
        "node_Tree5.035": {
            "children": [],
            "matrix": [
                0.3356776237487793,
                0.23241639137268066,
                0.0,
                0.0,
                -0.23241639137268066,
                0.3356776237487793,
                0.0,
                0.0,
                0.0,
                0.0,
                0.40828511118888855,
                0.0,
                -35.71218490600586,
                83.23294067382812,
                9.724202156066895,
                1.0
            ],
            "meshes": [
                "mesh_Cube.062"
            ],
            "name": "Tree5.035"
        },
        "node_scene_Scene_root": {
            "children": [
                "node_Tree5.035"
            ],
            "matrix": [
                1.0,
                0.0,
                0.0,
                0.0,
                0.0,
                0.0,
                -1.0,
                0.0,
                0.0,
                1.0,
                0.0,
                0.0,
                0.0,
                0.0,
                0.0,
                1.0
            ],
            "name": "node_scene_Scene_root"
        }
    },
    "samplers": {
        "sampler_default": {}
    },
    "scene": "scene_Scene",
    "scenes": {
        "scene_Scene": {
            "extras": {
                "active_camera": null,
                "background_color": [
                    0.3263707756996155,
                    0.3263707756996155,
                    0.3263707756996155
                ],
                "frames_per_second": 24
            },
            "name": "Scene",
            "nodes": [
                "node_scene_Scene_root"
            ]
        }
    },
    "textures": {
        "texture_Tree5": {
            "format": 6408,
            "internalFormat": 6408,
            "sampler": "sampler_default",
            "source": "image_Tree5"
        }
    }
}
