{
    "accessors": {
        "accessor_buffer_Icosphere.427_0": {
            "bufferView": "bufferView_buffer_Icosphere.427_0",
            "byteOffset": 0,
            "byteStride": 12,
            "componentType": 5126,
            "count": 9933,
            "max": [
                124.41140747070312,
                835.1438598632812,
                17.033710479736328
            ],
            "min": [
                -170.64498901367188,
                -102.07333374023438,
                -28.938396453857422
            ],
            "type": "VEC3"
        },
        "accessor_buffer_Icosphere.427_1": {
            "bufferView": "bufferView_buffer_Icosphere.427_0",
            "byteOffset": 119196,
            "byteStride": 12,
            "componentType": 5126,
            "count": 9933,
            "max": [
                0.9999771118164062,
                0.9999985098838806,
                0.9863119721412659
            ],
            "min": [
                -0.9998618960380554,
                -0.9999162554740906,
                -1.0
            ],
            "type": "VEC3"
        },
        "accessor_buffer_Icosphere.427_2": {
            "bufferView": "bufferView_buffer_Icosphere.427_0",
            "byteOffset": 238392,
            "byteStride": 8,
            "componentType": 5126,
            "count": 9933,
            "max": [
                0.9991044402122498,
                0.9991429743240587
            ],
            "min": [
                0.000895549776032567,
                0.0008570551872253418
            ],
            "type": "VEC2"
        },
        "accessor_buffer_Icosphere.427_3": {
            "bufferView": "bufferView_buffer_Icosphere.427_1",
            "byteOffset": 0,
            "byteStride": 2,
            "componentType": 5123,
            "count": 10191,
            "max": [
                9931
            ],
            "min": [
                1
            ],
            "type": "SCALAR"
        },
        "accessor_buffer_Icosphere.427_4": {
            "bufferView": "bufferView_buffer_Icosphere.427_2",
            "byteOffset": 0,
            "byteStride": 2,
            "componentType": 5123,
            "count": 3612,
            "max": [
                9932
            ],
            "min": [
                0
            ],
            "type": "SCALAR"
        }
    },
    "asset": {
        "profile": {
            "api": "WebGL",
            "version": "1.0.3"
        },
        "version": "1.0"
    },
    "bufferViews": {
        "bufferView_buffer_Icosphere.427_0": {
            "buffer": "buffer_combined",
            "byteLength": 317856,
            "byteOffset": 0,
            "target": 34962
        },
        "bufferView_buffer_Icosphere.427_1": {
            "buffer": "buffer_combined",
            "byteLength": 20382,
            "byteOffset": 317856,
            "target": 34963
        },
        "bufferView_buffer_Icosphere.427_2": {
            "buffer": "buffer_combined",
            "byteLength": 7224,
            "byteOffset": 338238,
            "target": 34963
        }
    },
    "buffers": {
        "buffer_combined": {
            "byteLength": 345462,
            "type": "arraybuffer",
            "uri": "data:text/plain;base64,"
        }
    },
    "extensions": {
        "KHR_materials_common": {
            "lights": {}
        }
    },
    "extensionsUsed": [
        "KHR_materials_common"
    ],
    "images": {
        "image_Tree2": {
            "uri": "Tree2.png"
        }
    },
    "materials": {
        "material_TreeBark2": {
            "extensions": {
                "KHR_materials_common": {
                    "technique": "PHONG",
                    "values": {
                        "ambient": [
                            1.0,
                            1.0,
                            1.0,
                            1.0
                        ],
                        "diffuse": "texture_Tree2",
                        "doubleSided": false,
                        "emission": [
                            0.0,
                            0.0,
                            0.0,
                            1.0
                        ],
                        "shininess": 50,
                        "specular": [
                            0.5,
                            0.5,
                            0.5,
                            1.0
                        ],
                        "transparency": 1.0,
                        "transparent": false
                    }
                }
            },
            "name": "TreeBark2"
        },
        "material_TreeLeaves2": {
            "extensions": {
                "KHR_materials_common": {
                    "technique": "PHONG",
                    "values": {
                        "ambient": [
                            1.0,
                            1.0,
                            1.0,
                            1.0
                        ],
                        "diffuse": "texture_Tree2",
                        "doubleSided": false,
                        "emission": [
                            0.0,
                            0.0,
                            0.0,
                            1.0
                        ],
                        "shininess": 50,
                        "specular": [
                            0.5,
                            0.5,
                            0.5,
                            1.0
                        ],
                        "transparency": 1.0,
                        "transparent": false
                    }
                }
            },
            "name": "TreeLeaves2"
        }
    },
    "meshes": {
        "mesh_Icosphere.427": {
            "name": "Icosphere.427",
            "primitives": [
                {
                    "attributes": {
                        "NORMAL": "accessor_buffer_Icosphere.427_1",
                        "POSITION": "accessor_buffer_Icosphere.427_0",
                        "TEXCOORD_0": "accessor_buffer_Icosphere.427_2"
                    },
                    "indices": "accessor_buffer_Icosphere.427_3",
                    "material": "material_TreeBark2",
                    "mode": 4
                },
                {
                    "attributes": {
                        "NORMAL": "accessor_buffer_Icosphere.427_1",
                        "POSITION": "accessor_buffer_Icosphere.427_0",
                        "TEXCOORD_0": "accessor_buffer_Icosphere.427_2"
                    },
                    "indices": "accessor_buffer_Icosphere.427_4",
                    "material": "material_TreeLeaves2",
                    "mode": 4
                }
            ]
        }
    },
    "nodes": {
        "node_Tree2.043": {
            "children": [],
            "matrix": [
                -0.20437146723270416,
                -0.4048581123352051,
                0.0,
                0.0,
                0.4048581123352051,
                -0.20437146723270416,
                0.0,
                0.0,
                0.0,
                0.0,
                0.45351719856262207,
                0.0,
                -37.34626007080078,
                103.24811553955078,
                10.905744552612305,
                1.0
            ],
            "meshes": [
                "mesh_Icosphere.427"
            ],
            "name": "Tree2.043"
        },
        "node_scene_Scene_root": {
            "children": [
                "node_Tree2.043"
            ],
            "matrix": [
                1.0,
                0.0,
                0.0,
                0.0,
                0.0,
                0.0,
                -1.0,
                0.0,
                0.0,
                1.0,
                0.0,
                0.0,
                0.0,
                0.0,
                0.0,
                1.0
            ],
            "name": "node_scene_Scene_root"
        }
    },
    "samplers": {
        "sampler_default": {}
    },
    "scene": "scene_Scene",
    "scenes": {
        "scene_Scene": {
            "extras": {
                "active_camera": null,
                "background_color": [
                    0.3263707756996155,
                    0.3263707756996155,
                    0.3263707756996155
                ],
                "frames_per_second": 24
            },
            "name": "Scene",
            "nodes": [
                "node_scene_Scene_root"
            ]
        }
    },
    "textures": {
        "texture_Tree2": {
            "format": 6408,
            "internalFormat": 6408,
            "sampler": "sampler_default",
            "source": "image_Tree2"
        }
    }
}
