{
    "accessors": {
        "accessor_buffer_Icosphere.046_0": {
            "bufferView": "bufferView_buffer_Icosphere.046_0",
            "byteOffset": 0,
            "byteStride": 12,
            "componentType": 5126,
            "count": 20451,
            "max": [
                56.372859954833984,
                100.32559204101562,
                27.447364807128906
            ],
            "min": [
                -835.6079711914062,
                -288.10565185546875,
                -121.21728515625
            ],
            "type": "VEC3"
        },
        "accessor_buffer_Icosphere.046_1": {
            "bufferView": "bufferView_buffer_Icosphere.046_0",
            "byteOffset": 245412,
            "byteStride": 12,
            "componentType": 5126,
            "count": 20451,
            "max": [
                0.999975323677063,
                0.9983811378479004,
                0.9896883368492126
            ],
            "min": [
                -0.9998248815536499,
                -0.9996246695518494,
                -0.9998133778572083
            ],
            "type": "VEC3"
        },
        "accessor_buffer_Icosphere.046_2": {
            "bufferView": "bufferView_buffer_Icosphere.046_0",
            "byteOffset": 490824,
            "byteStride": 8,
            "componentType": 5126,
            "count": 20451,
            "max": [
                0.9991264343261719,
                0.999143990164157
            ],
            "min": [
                0.0008735349401831627,
                0.0008559226989746094
            ],
            "type": "VEC2"
        },
        "accessor_buffer_Icosphere.046_3": {
            "bufferView": "bufferView_buffer_Icosphere.046_1",
            "byteOffset": 0,
            "byteStride": 2,
            "componentType": 5123,
            "count": 21879,
            "max": [
                20450
            ],
            "min": [
                0
            ],
            "type": "SCALAR"
        },
        "accessor_buffer_Icosphere.046_4": {
            "bufferView": "bufferView_buffer_Icosphere.046_2",
            "byteOffset": 0,
            "byteStride": 2,
            "componentType": 5123,
            "count": 7344,
            "max": [
                20448
            ],
            "min": [
                1
            ],
            "type": "SCALAR"
        }
    },
    "asset": {
        "profile": {
            "api": "WebGL",
            "version": "1.0.3"
        },
        "version": "1.0"
    },
    "bufferViews": {
        "bufferView_buffer_Icosphere.046_0": {
            "buffer": "buffer_combined",
            "byteLength": 654432,
            "byteOffset": 0,
            "target": 34962
        },
        "bufferView_buffer_Icosphere.046_1": {
            "buffer": "buffer_combined",
            "byteLength": 43758,
            "byteOffset": 654432,
            "target": 34963
        },
        "bufferView_buffer_Icosphere.046_2": {
            "buffer": "buffer_combined",
            "byteLength": 14688,
            "byteOffset": 698190,
            "target": 34963
        }
    },
    "buffers": {
        "buffer_combined": {
            "byteLength": 712878,
            "type": "arraybuffer",
            "uri": "data:text/plain;base64,"
        }
    },
    "extensions": {
        "KHR_materials_common": {
            "lights": {}
        }
    },
    "extensionsUsed": [
        "KHR_materials_common"
    ],
    "images": {
        "image_Tree3": {
            "uri": "Tree3.png"
        }
    },
    "materials": {
        "material_TreeBark3": {
            "extensions": {
                "KHR_materials_common": {
                    "technique": "PHONG",
                    "values": {
                        "ambient": [
                            1.0,
                            1.0,
                            1.0,
                            1.0
                        ],
                        "diffuse": "texture_Tree3",
                        "doubleSided": false,
                        "emission": [
                            0.0,
                            0.0,
                            0.0,
                            1.0
                        ],
                        "shininess": 50,
                        "specular": [
                            0.5,
                            0.5,
                            0.5,
                            1.0
                        ],
                        "transparency": 1.0,
                        "transparent": false
                    }
                }
            },
            "name": "TreeBark3"
        },
        "material_TreeLeaves3": {
            "extensions": {
                "KHR_materials_common": {
                    "technique": "PHONG",
                    "values": {
                        "ambient": [
                            1.0,
                            1.0,
                            1.0,
                            1.0
                        ],
                        "diffuse": "texture_Tree3",
                        "doubleSided": false,
                        "emission": [
                            0.0,
                            0.0,
                            0.0,
                            1.0
                        ],
                        "shininess": 50,
                        "specular": [
                            0.5,
                            0.5,
                            0.5,
                            1.0
                        ],
                        "transparency": 1.0,
                        "transparent": false
                    }
                }
            },
            "name": "TreeLeaves3"
        }
    },
    "meshes": {
        "mesh_Icosphere.046": {
            "name": "Icosphere.046",
            "primitives": [
                {
                    "attributes": {
                        "NORMAL": "accessor_buffer_Icosphere.046_1",
                        "POSITION": "accessor_buffer_Icosphere.046_0",
                        "TEXCOORD_0": "accessor_buffer_Icosphere.046_2"
                    },
                    "indices": "accessor_buffer_Icosphere.046_3",
                    "material": "material_TreeBark3",
                    "mode": 4
                },
                {
                    "attributes": {
                        "NORMAL": "accessor_buffer_Icosphere.046_1",
                        "POSITION": "accessor_buffer_Icosphere.046_0",
                        "TEXCOORD_0": "accessor_buffer_Icosphere.046_2"
                    },
                    "indices": "accessor_buffer_Icosphere.046_4",
                    "material": "material_TreeLeaves3",
                    "mode": 4
                }
            ]
        }
    },
    "nodes": {
        "node_Tree3.009": {
            "children": [],
            "matrix": [
                -0.3610817790031433,
                0.2673133909702301,
                -0.06197849661111832,
                0.0,
                -0.27385562658309937,
                -0.3575230538845062,
                0.0534633994102478,
                0.0,
                -0.017347201704978943,
                0.0799921378493309,
                0.44606971740722656,
                0.0,
                -48.98136901855469,
                116.82788848876953,
                14.177871704101562,
                1.0
            ],
            "meshes": [
                "mesh_Icosphere.046"
            ],
            "name": "Tree3.009"
        },
        "node_scene_Scene_root": {
            "children": [
                "node_Tree3.009"
            ],
            "matrix": [
                1.0,
                0.0,
                0.0,
                0.0,
                0.0,
                0.0,
                -1.0,
                0.0,
                0.0,
                1.0,
                0.0,
                0.0,
                0.0,
                0.0,
                0.0,
                1.0
            ],
            "name": "node_scene_Scene_root"
        }
    },
    "samplers": {
        "sampler_default": {}
    },
    "scene": "scene_Scene",
    "scenes": {
        "scene_Scene": {
            "extras": {
                "active_camera": null,
                "background_color": [
                    0.3263707756996155,
                    0.3263707756996155,
                    0.3263707756996155
                ],
                "frames_per_second": 24
            },
            "name": "Scene",
            "nodes": [
                "node_scene_Scene_root"
            ]
        }
    },
    "textures": {
        "texture_Tree3": {
            "format": 6408,
            "internalFormat": 6408,
            "sampler": "sampler_default",
            "source": "image_Tree3"
        }
    }
}
