{
    "accessors": {
        "accessor_buffer_Icosphere.423_0": {
            "bufferView": "bufferView_buffer_Icosphere.423_0",
            "byteOffset": 0,
            "byteStride": 12,
            "componentType": 5126,
            "count": 11868,
            "max": [
                64.5133056640625,
                403.6905517578125,
                13.1027250289917
            ],
            "min": [
                -746.053955078125,
                -120.83502960205078,
                -183.8021240234375
            ],
            "type": "VEC3"
        },
        "accessor_buffer_Icosphere.423_1": {
            "bufferView": "bufferView_buffer_Icosphere.423_0",
            "byteOffset": 142416,
            "byteStride": 12,
            "componentType": 5126,
            "count": 11868,
            "max": [
                0.9990003705024719,
                0.999953031539917,
                0.9977811574935913
            ],
            "min": [
                -0.9989995956420898,
                -0.999882161617279,
                -0.9977813363075256
            ],
            "type": "VEC3"
        },
        "accessor_buffer_Icosphere.423_2": {
            "bufferView": "bufferView_buffer_Icosphere.423_0",
            "byteOffset": 284832,
            "byteStride": 8,
            "componentType": 5126,
            "count": 11868,
            "max": [
                0.9988949298858643,
                0.9989516654750332
            ],
            "min": [
                0.001105058123357594,
                0.0010483264923095703
            ],
            "type": "VEC2"
        },
        "accessor_buffer_Icosphere.423_3": {
            "bufferView": "bufferView_buffer_Icosphere.423_1",
            "byteOffset": 0,
            "byteStride": 2,
            "componentType": 5123,
            "count": 14448,
            "max": [
                11867
            ],
            "min": [
                0
            ],
            "type": "SCALAR"
        },
        "accessor_buffer_Icosphere.423_4": {
            "bufferView": "bufferView_buffer_Icosphere.423_2",
            "byteOffset": 0,
            "byteStride": 2,
            "componentType": 5123,
            "count": 2580,
            "max": [
                11859
            ],
            "min": [
                5
            ],
            "type": "SCALAR"
        }
    },
    "asset": {
        "profile": {
            "api": "WebGL",
            "version": "1.0.3"
        },
        "version": "1.0"
    },
    "bufferViews": {
        "bufferView_buffer_Icosphere.423_0": {
            "buffer": "buffer_combined",
            "byteLength": 379776,
            "byteOffset": 0,
            "target": 34962
        },
        "bufferView_buffer_Icosphere.423_1": {
            "buffer": "buffer_combined",
            "byteLength": 28896,
            "byteOffset": 379776,
            "target": 34963
        },
        "bufferView_buffer_Icosphere.423_2": {
            "buffer": "buffer_combined",
            "byteLength": 5160,
            "byteOffset": 408672,
            "target": 34963
        }
    },
    "buffers": {
        "buffer_combined": {
            "byteLength": 413832,
            "type": "arraybuffer",
            "uri": "data:text/plain;base64,"
        }
    },
    "extensions": {
        "KHR_materials_common": {
            "lights": {}
        }
    },
    "extensionsUsed": [
        "KHR_materials_common"
    ],
    "images": {
        "image_Tree4": {
            "uri": "Tree4.png"
        }
    },
    "materials": {
        "material_TreeBark4": {
            "extensions": {
                "KHR_materials_common": {
                    "technique": "PHONG",
                    "values": {
                        "ambient": [
                            1.0,
                            1.0,
                            1.0,
                            1.0
                        ],
                        "diffuse": "texture_Tree4",
                        "doubleSided": false,
                        "emission": [
                            0.0,
                            0.0,
                            0.0,
                            1.0
                        ],
                        "shininess": 50,
                        "specular": [
                            0.5,
                            0.5,
                            0.5,
                            1.0
                        ],
                        "transparency": 1.0,
                        "transparent": false
                    }
                }
            },
            "name": "TreeBark4"
        },
        "material_TreeLeaves4": {
            "extensions": {
                "KHR_materials_common": {
                    "technique": "PHONG",
                    "values": {
                        "ambient": [
                            1.0,
                            1.0,
                            1.0,
                            1.0
                        ],
                        "diffuse": "texture_Tree4",
                        "doubleSided": false,
                        "emission": [
                            0.0,
                            0.0,
                            0.0,
                            1.0
                        ],
                        "shininess": 50,
                        "specular": [
                            0.5,
                            0.5,
                            0.5,
                            1.0
                        ],
                        "transparency": 1.0,
                        "transparent": false
                    }
                }
            },
            "name": "TreeLeaves4"
        }
    },
    "meshes": {
        "mesh_Icosphere.423": {
            "name": "Icosphere.423",
            "primitives": [
                {
                    "attributes": {
                        "NORMAL": "accessor_buffer_Icosphere.423_1",
                        "POSITION": "accessor_buffer_Icosphere.423_0",
                        "TEXCOORD_0": "accessor_buffer_Icosphere.423_2"
                    },
                    "indices": "accessor_buffer_Icosphere.423_3",
                    "material": "material_TreeBark4",
                    "mode": 4
                },
                {
                    "attributes": {
                        "NORMAL": "accessor_buffer_Icosphere.423_1",
                        "POSITION": "accessor_buffer_Icosphere.423_0",
                        "TEXCOORD_0": "accessor_buffer_Icosphere.423_2"
                    },
                    "indices": "accessor_buffer_Icosphere.423_4",
                    "material": "material_TreeLeaves4",
                    "mode": 4
                }
            ]
        }
    },
    "nodes": {
        "node_Tree4.043": {
            "children": [],
            "matrix": [
                -0.4417452812194824,
                -0.04465506970882416,
                -0.09243883192539215,
                0.0,
                0.04842345789074898,
                -0.4507172405719757,
                -0.013674160465598106,
                0.0,
                -0.09052170813083649,
                -0.023189201951026917,
                0.4437859356403351,
                0.0,
                -36.06184005737305,
                89.10182189941406,
                17.030643463134766,
                1.0
            ],
            "meshes": [
                "mesh_Icosphere.423"
            ],
            "name": "Tree4.043"
        },
        "node_scene_Scene_root": {
            "children": [
                "node_Tree4.043"
            ],
            "matrix": [
                1.0,
                0.0,
                0.0,
                0.0,
                0.0,
                0.0,
                -1.0,
                0.0,
                0.0,
                1.0,
                0.0,
                0.0,
                0.0,
                0.0,
                0.0,
                1.0
            ],
            "name": "node_scene_Scene_root"
        }
    },
    "samplers": {
        "sampler_default": {}
    },
    "scene": "scene_Scene",
    "scenes": {
        "scene_Scene": {
            "extras": {
                "active_camera": null,
                "background_color": [
                    0.3263707756996155,
                    0.3263707756996155,
                    0.3263707756996155
                ],
                "frames_per_second": 24
            },
            "name": "Scene",
            "nodes": [
                "node_scene_Scene_root"
            ]
        }
    },
    "textures": {
        "texture_Tree4": {
            "format": 6408,
            "internalFormat": 6408,
            "sampler": "sampler_default",
            "source": "image_Tree4"
        }
    }
}
