{
    "accessors": {
        "accessor_buffer_Cube.011_0": {
            "bufferView": "bufferView_buffer_Cube.011_0",
            "byteOffset": 0,
            "byteStride": 12,
            "componentType": 5126,
            "count": 382,
            "max": [
                1.0,
                1.0,
                1.100982904434204
            ],
            "min": [
                -1.0,
                -1.1071399450302124,
                -1.0
            ],
            "type": "VEC3"
        },
        "accessor_buffer_Cube.011_1": {
            "bufferView": "bufferView_buffer_Cube.011_0",
            "byteOffset": 4584,
            "byteStride": 12,
            "componentType": 5126,
            "count": 382,
            "max": [
                1.0,
                1.0,
                1.0
            ],
            "min": [
                -1.0,
                -1.0,
                -1.0
            ],
            "type": "VEC3"
        },
        "accessor_buffer_Cube.011_2": {
            "bufferView": "bufferView_buffer_Cube.011_0",
            "byteOffset": 9168,
            "byteStride": 8,
            "componentType": 5126,
            "count": 382,
            "max": [
                0.9951098561286926,
                0.9943654211238027
            ],
            "min": [
                0.004890150390565395,
                0.005634605884552002
            ],
            "type": "VEC2"
        },
        "accessor_buffer_Cube.011_3": {
            "bufferView": "bufferView_buffer_Cube.011_1",
            "byteOffset": 0,
            "byteStride": 2,
            "componentType": 5123,
            "count": 516,
            "max": [
                380
            ],
            "min": [
                1
            ],
            "type": "SCALAR"
        },
        "accessor_buffer_Cube.011_4": {
            "bufferView": "bufferView_buffer_Cube.011_2",
            "byteOffset": 0,
            "byteStride": 2,
            "componentType": 5123,
            "count": 288,
            "max": [
                381
            ],
            "min": [
                0
            ],
            "type": "SCALAR"
        },
        "accessor_buffer_Cube.012_0": {
            "bufferView": "bufferView_buffer_Cube.012_0",
            "byteOffset": 0,
            "byteStride": 12,
            "componentType": 5126,
            "count": 382,
            "max": [
                1.0,
                1.0,
                1.100982904434204
            ],
            "min": [
                -1.0,
                -1.1071399450302124,
                -1.0
            ],
            "type": "VEC3"
        },
        "accessor_buffer_Cube.012_1": {
            "bufferView": "bufferView_buffer_Cube.012_0",
            "byteOffset": 4584,
            "byteStride": 12,
            "componentType": 5126,
            "count": 382,
            "max": [
                1.0,
                1.0,
                1.0
            ],
            "min": [
                -1.0,
                -1.0,
                -1.0
            ],
            "type": "VEC3"
        },
        "accessor_buffer_Cube.012_2": {
            "bufferView": "bufferView_buffer_Cube.012_0",
            "byteOffset": 9168,
            "byteStride": 8,
            "componentType": 5126,
            "count": 382,
            "max": [
                0.9951098561286926,
                0.9943654211238027
            ],
            "min": [
                0.004890150390565395,
                0.005634605884552002
            ],
            "type": "VEC2"
        },
        "accessor_buffer_Cube.012_3": {
            "bufferView": "bufferView_buffer_Cube.012_1",
            "byteOffset": 0,
            "byteStride": 2,
            "componentType": 5123,
            "count": 516,
            "max": [
                380
            ],
            "min": [
                1
            ],
            "type": "SCALAR"
        },
        "accessor_buffer_Cube.012_4": {
            "bufferView": "bufferView_buffer_Cube.012_2",
            "byteOffset": 0,
            "byteStride": 2,
            "componentType": 5123,
            "count": 288,
            "max": [
                381
            ],
            "min": [
                0
            ],
            "type": "SCALAR"
        },
        "accessor_buffer_Cube.016_0": {
            "bufferView": "bufferView_buffer_Cube.016_0",
            "byteOffset": 0,
            "byteStride": 12,
            "componentType": 5126,
            "count": 359,
            "max": [
                1.0,
                1.0,
                1.100982904434204
            ],
            "min": [
                -1.0,
                -1.1071399450302124,
                -1.0
            ],
            "type": "VEC3"
        },
        "accessor_buffer_Cube.016_1": {
            "bufferView": "bufferView_buffer_Cube.016_0",
            "byteOffset": 4308,
            "byteStride": 12,
            "componentType": 5126,
            "count": 359,
            "max": [
                1.0,
                1.0,
                1.0
            ],
            "min": [
                -1.0,
                -1.0,
                -1.0
            ],
            "type": "VEC3"
        },
        "accessor_buffer_Cube.016_2": {
            "bufferView": "bufferView_buffer_Cube.016_0",
            "byteOffset": 8616,
            "byteStride": 8,
            "componentType": 5126,
            "count": 359,
            "max": [
                0.9951098561286926,
                0.9943654211238027
            ],
            "min": [
                0.004890150390565395,
                0.005634605884552002
            ],
            "type": "VEC2"
        },
        "accessor_buffer_Cube.016_3": {
            "bufferView": "bufferView_buffer_Cube.016_1",
            "byteOffset": 0,
            "byteStride": 2,
            "componentType": 5123,
            "count": 516,
            "max": [
                356
            ],
            "min": [
                1
            ],
            "type": "SCALAR"
        },
        "accessor_buffer_Cube.016_4": {
            "bufferView": "bufferView_buffer_Cube.016_2",
            "byteOffset": 0,
            "byteStride": 2,
            "componentType": 5123,
            "count": 288,
            "max": [
                358
            ],
            "min": [
                0
            ],
            "type": "SCALAR"
        }
    },
    "asset": {
        "profile": {
            "api": "WebGL",
            "version": "1.0.3"
        },
        "version": "1.0"
    },
    "bufferViews": {
        "bufferView_buffer_Cube.011_0": {
            "buffer": "buffer_combined",
            "byteLength": 12224,
            "byteOffset": 13096,
            "target": 34962
        },
        "bufferView_buffer_Cube.011_1": {
            "buffer": "buffer_combined",
            "byteLength": 1032,
            "byteOffset": 25320,
            "target": 34963
        },
        "bufferView_buffer_Cube.011_2": {
            "buffer": "buffer_combined",
            "byteLength": 576,
            "byteOffset": 26352,
            "target": 34963
        },
        "bufferView_buffer_Cube.012_0": {
            "buffer": "buffer_combined",
            "byteLength": 12224,
            "byteOffset": 26928,
            "target": 34962
        },
        "bufferView_buffer_Cube.012_1": {
            "buffer": "buffer_combined",
            "byteLength": 1032,
            "byteOffset": 39152,
            "target": 34963
        },
        "bufferView_buffer_Cube.012_2": {
            "buffer": "buffer_combined",
            "byteLength": 576,
            "byteOffset": 40184,
            "target": 34963
        },
        "bufferView_buffer_Cube.016_0": {
            "buffer": "buffer_combined",
            "byteLength": 11488,
            "byteOffset": 0,
            "target": 34962
        },
        "bufferView_buffer_Cube.016_1": {
            "buffer": "buffer_combined",
            "byteLength": 1032,
            "byteOffset": 11488,
            "target": 34963
        },
        "bufferView_buffer_Cube.016_2": {
            "buffer": "buffer_combined",
            "byteLength": 576,
            "byteOffset": 12520,
            "target": 34963
        }
    },
    "buffers": {
        "buffer_combined": {
            "byteLength": 40760,
            "type": "arraybuffer",
            "uri": "data:text/plain;base64,"
        }
    },
    "extensions": {
        "KHR_materials_common": {
            "lights": {}
        }
    },
    "extensionsUsed": [
        "KHR_materials_common"
    ],
    "images": {
        "image_Wall1": {
            "uri": "Wall1.png"
        }
    },
    "materials": {
        "material_Wall1": {
            "extensions": {
                "KHR_materials_common": {
                    "technique": "PHONG",
                    "values": {
                        "ambient": [
                            1.0,
                            1.0,
                            1.0,
                            1.0
                        ],
                        "diffuse": "texture_Wall1",
                        "doubleSided": false,
                        "emission": [
                            0.0,
                            0.0,
                            0.0,
                            1.0
                        ],
                        "shininess": 50,
                        "specular": [
                            0.5,
                            0.5,
                            0.5,
                            1.0
                        ],
                        "transparency": 1.0,
                        "transparent": false
                    }
                }
            },
            "name": "Wall1"
        },
        "material_Wall1Trim": {
            "extensions": {
                "KHR_materials_common": {
                    "technique": "PHONG",
                    "values": {
                        "ambient": [
                            1.0,
                            1.0,
                            1.0,
                            1.0
                        ],
                        "diffuse": "texture_Wall1",
                        "doubleSided": false,
                        "emission": [
                            0.0,
                            0.0,
                            0.0,
                            1.0
                        ],
                        "shininess": 50,
                        "specular": [
                            0.5,
                            0.5,
                            0.5,
                            1.0
                        ],
                        "transparency": 1.0,
                        "transparent": false
                    }
                }
            },
            "name": "Wall1Trim"
        }
    },
    "meshes": {
        "mesh_Cube.011": {
            "name": "Cube.011",
            "primitives": [
                {
                    "attributes": {
                        "NORMAL": "accessor_buffer_Cube.011_1",
                        "POSITION": "accessor_buffer_Cube.011_0",
                        "TEXCOORD_0": "accessor_buffer_Cube.011_2"
                    },
                    "indices": "accessor_buffer_Cube.011_3",
                    "material": "material_Wall1",
                    "mode": 4
                },
                {
                    "attributes": {
                        "NORMAL": "accessor_buffer_Cube.011_1",
                        "POSITION": "accessor_buffer_Cube.011_0",
                        "TEXCOORD_0": "accessor_buffer_Cube.011_2"
                    },
                    "indices": "accessor_buffer_Cube.011_4",
                    "material": "material_Wall1Trim",
                    "mode": 4
                }
            ]
        },
        "mesh_Cube.012": {
            "name": "Cube.012",
            "primitives": [
                {
                    "attributes": {
                        "NORMAL": "accessor_buffer_Cube.012_1",
                        "POSITION": "accessor_buffer_Cube.012_0",
                        "TEXCOORD_0": "accessor_buffer_Cube.012_2"
                    },
                    "indices": "accessor_buffer_Cube.012_3",
                    "material": "material_Wall1",
                    "mode": 4
                },
                {
                    "attributes": {
                        "NORMAL": "accessor_buffer_Cube.012_1",
                        "POSITION": "accessor_buffer_Cube.012_0",
                        "TEXCOORD_0": "accessor_buffer_Cube.012_2"
                    },
                    "indices": "accessor_buffer_Cube.012_4",
                    "material": "material_Wall1Trim",
                    "mode": 4
                }
            ]
        },
        "mesh_Cube.016": {
            "name": "Cube.016",
            "primitives": [
                {
                    "attributes": {
                        "NORMAL": "accessor_buffer_Cube.016_1",
                        "POSITION": "accessor_buffer_Cube.016_0",
                        "TEXCOORD_0": "accessor_buffer_Cube.016_2"
                    },
                    "indices": "accessor_buffer_Cube.016_3",
                    "material": "material_Wall1",
                    "mode": 4
                },
                {
                    "attributes": {
                        "NORMAL": "accessor_buffer_Cube.016_1",
                        "POSITION": "accessor_buffer_Cube.016_0",
                        "TEXCOORD_0": "accessor_buffer_Cube.016_2"
                    },
                    "indices": "accessor_buffer_Cube.016_4",
                    "material": "material_Wall1Trim",
                    "mode": 4
                }
            ]
        }
    },
    "nodes": {
        "node_Wall1": {
            "children": [],
            "matrix": [
                0.23202358186244965,
                0.17081308364868164,
                0.0,
                0.0,
                -4.1777544021606445,
                5.6748433113098145,
                0.0,
                0.0,
                0.0,
                0.0,
                2.4568135738372803,
                0.0,
                20.9273624420166,
                17.196327209472656,
                0.4536184072494507,
                1.0
            ],
            "meshes": [
                "mesh_Cube.012"
            ],
            "name": "Wall1"
        },
        "node_Wall1.001": {
            "children": [],
            "matrix": [
                -0.038659919053316116,
                0.28551262617111206,
                1.3416545652233935e-10,
                0.0,
                -6.973666667938232,
                -0.9442713260650635,
                0.3657670319080353,
                0.0,
                0.17818677425384521,
                0.024127429351210594,
                3.459573745727539,
                0.0,
                -1.6091208457946777,
                -9.479024887084961,
                1.9934219121932983,
                1.0
            ],
            "meshes": [
                "mesh_Cube.016"
            ],
            "name": "Wall1.001"
        },
        "node_Wall1.002": {
            "children": [],
            "matrix": [
                0.19653744995594025,
                -0.21067775785923004,
                0.0,
                0.0,
                5.152766227722168,
                4.806921482086182,
                0.0,
                0.0,
                0.0,
                0.0,
                2.4568135738372803,
                0.0,
                -7.195724010467529,
                10.072637557983398,
                0.7723183631896973,
                1.0
            ],
            "meshes": [
                "mesh_Cube.011"
            ],
            "name": "Wall1.002"
        },
        "node_scene_Scene_root": {
            "children": [
                "node_Wall1.001",
                "node_Wall1",
                "node_Wall1.002"
            ],
            "matrix": [
                1.0,
                0.0,
                0.0,
                0.0,
                0.0,
                0.0,
                -1.0,
                0.0,
                0.0,
                1.0,
                0.0,
                0.0,
                0.0,
                0.0,
                0.0,
                1.0
            ],
            "name": "node_scene_Scene_root"
        }
    },
    "samplers": {
        "sampler_default": {}
    },
    "scene": "scene_Scene",
    "scenes": {
        "scene_Scene": {
            "extras": {
                "active_camera": null,
                "background_color": [
                    0.35883867740631104,
                    0.35883867740631104,
                    0.35883867740631104
                ],
                "frames_per_second": 24
            },
            "name": "Scene",
            "nodes": [
                "node_scene_Scene_root"
            ]
        }
    },
    "textures": {
        "texture_Wall1": {
            "format": 6408,
            "internalFormat": 6408,
            "sampler": "sampler_default",
            "source": "image_Wall1"
        }
    }
}
