{
    "accessors": {
        "accessor_buffer_Grid.001_0": {
            "bufferView": "bufferView_buffer_Grid.001_0",
            "byteOffset": 0,
            "byteStride": 12,
            "componentType": 5126,
            "count": 1726,
            "max": [
                4.876997470855713,
                4.8936285972595215,
                0
            ],
            "min": [
                0.0037984848022460938,
                -0.03001832775771618,
                -0.08009690046310425
            ],
            "type": "VEC3"
        },
        "accessor_buffer_Grid.001_1": {
            "bufferView": "bufferView_buffer_Grid.001_0",
            "byteOffset": 20712,
            "byteStride": 12,
            "componentType": 5126,
            "count": 1726,
            "max": [
                1.0,
                1.0,
                1.0
            ],
            "min": [
                -1.0,
                -1.0,
                -1.0
            ],
            "type": "VEC3"
        },
        "accessor_buffer_Grid.001_2": {
            "bufferView": "bufferView_buffer_Grid.001_0",
            "byteOffset": 41424,
            "byteStride": 8,
            "componentType": 5126,
            "count": 1726,
            "max": [
                1.0,
                1.0
            ],
            "min": [
                0.0,
                0.0
            ],
            "type": "VEC2"
        },
        "accessor_buffer_Grid.001_3": {
            "bufferView": "bufferView_buffer_Grid.001_1",
            "byteOffset": 0,
            "byteStride": 2,
            "componentType": 5123,
            "count": 4320,
            "max": [
                1725
            ],
            "min": [
                0
            ],
            "type": "SCALAR"
        },
        "accessor_buffer_Grid.002_0": {
            "bufferView": "bufferView_buffer_Grid.002_0",
            "byteOffset": 0,
            "byteStride": 12,
            "componentType": 5126,
            "count": 1650,
            "max": [
                4.875521659851074,
                0.028431592509150505,
                0
            ],
            "min": [
                0.002322673797607422,
                -4.8952155113220215,
                -0.08009690046310425
            ],
            "type": "VEC3"
        },
        "accessor_buffer_Grid.002_1": {
            "bufferView": "bufferView_buffer_Grid.002_0",
            "byteOffset": 19800,
            "byteStride": 12,
            "componentType": 5126,
            "count": 1650,
            "max": [
                1.0,
                1.0,
                1.0
            ],
            "min": [
                -1.0,
                -1.0,
                -1.0
            ],
            "type": "VEC3"
        },
        "accessor_buffer_Grid.002_2": {
            "bufferView": "bufferView_buffer_Grid.002_0",
            "byteOffset": 39600,
            "byteStride": 8,
            "componentType": 5126,
            "count": 1650,
            "max": [
                1.0,
                1.0
            ],
            "min": [
                0.0,
                0.0
            ],
            "type": "VEC2"
        },
        "accessor_buffer_Grid.002_3": {
            "bufferView": "bufferView_buffer_Grid.002_1",
            "byteOffset": 0,
            "byteStride": 2,
            "componentType": 5123,
            "count": 4320,
            "max": [
                1649
            ],
            "min": [
                0
            ],
            "type": "SCALAR"
        },
        "accessor_buffer_Grid.003_0": {
            "bufferView": "bufferView_buffer_Grid.003_0",
            "byteOffset": 0,
            "byteStride": 12,
            "componentType": 5126,
            "count": 1746,
            "max": [
                0.004017380066215992,
                0.028789320960640907,
                0
            ],
            "min": [
                -4.869182586669922,
                -4.894857883453369,
                -0.08009693026542664
            ],
            "type": "VEC3"
        },
        "accessor_buffer_Grid.003_1": {
            "bufferView": "bufferView_buffer_Grid.003_0",
            "byteOffset": 20952,
            "byteStride": 12,
            "componentType": 5126,
            "count": 1746,
            "max": [
                1.0,
                1.0,
                1.0
            ],
            "min": [
                -1.0,
                -1.0,
                -1.0
            ],
            "type": "VEC3"
        },
        "accessor_buffer_Grid.003_2": {
            "bufferView": "bufferView_buffer_Grid.003_0",
            "byteOffset": 41904,
            "byteStride": 8,
            "componentType": 5126,
            "count": 1746,
            "max": [
                1.0,
                1.0
            ],
            "min": [
                0.0,
                0.0
            ],
            "type": "VEC2"
        },
        "accessor_buffer_Grid.003_3": {
            "bufferView": "bufferView_buffer_Grid.003_1",
            "byteOffset": 0,
            "byteStride": 2,
            "componentType": 5123,
            "count": 4320,
            "max": [
                1745
            ],
            "min": [
                0
            ],
            "type": "SCALAR"
        },
        "accessor_buffer_Grid_0": {
            "bufferView": "bufferView_buffer_Grid_0",
            "byteOffset": 0,
            "byteStride": 12,
            "componentType": 5126,
            "count": 1720,
            "max": [
                0.004801965318620205,
                4.893505096435547,
                0
            ],
            "min": [
                -4.868397235870361,
                -0.030141914263367653,
                -0.08009690046310425
            ],
            "type": "VEC3"
        },
        "accessor_buffer_Grid_1": {
            "bufferView": "bufferView_buffer_Grid_0",
            "byteOffset": 20640,
            "byteStride": 12,
            "componentType": 5126,
            "count": 1720,
            "max": [
                1.0,
                1.0,
                1.0
            ],
            "min": [
                -1.0,
                -1.0,
                -1.0
            ],
            "type": "VEC3"
        },
        "accessor_buffer_Grid_2": {
            "bufferView": "bufferView_buffer_Grid_0",
            "byteOffset": 41280,
            "byteStride": 8,
            "componentType": 5126,
            "count": 1720,
            "max": [
                1.0,
                1.0
            ],
            "min": [
                0.0,
                0.0
            ],
            "type": "VEC2"
        },
        "accessor_buffer_Grid_3": {
            "bufferView": "bufferView_buffer_Grid_1",
            "byteOffset": 0,
            "byteStride": 2,
            "componentType": 5123,
            "count": 4320,
            "max": [
                1719
            ],
            "min": [
                0
            ],
            "type": "SCALAR"
        }
    },
    "asset": {
        "profile": {
            "api": "WebGL",
            "version": "1.0.3"
        },
        "version": "1.0"
    },
    "bufferViews": {
        "bufferView_buffer_Grid.001_0": {
            "buffer": "buffer_combined",
            "byteLength": 55232,
            "byteOffset": 0,
            "target": 34962
        },
        "bufferView_buffer_Grid.001_1": {
            "buffer": "buffer_combined",
            "byteLength": 8640,
            "byteOffset": 55232,
            "target": 34963
        },
        "bufferView_buffer_Grid.002_0": {
            "buffer": "buffer_combined",
            "byteLength": 52800,
            "byteOffset": 63872,
            "target": 34962
        },
        "bufferView_buffer_Grid.002_1": {
            "buffer": "buffer_combined",
            "byteLength": 8640,
            "byteOffset": 116672,
            "target": 34963
        },
        "bufferView_buffer_Grid.003_0": {
            "buffer": "buffer_combined",
            "byteLength": 55872,
            "byteOffset": 125312,
            "target": 34962
        },
        "bufferView_buffer_Grid.003_1": {
            "buffer": "buffer_combined",
            "byteLength": 8640,
            "byteOffset": 181184,
            "target": 34963
        },
        "bufferView_buffer_Grid_0": {
            "buffer": "buffer_combined",
            "byteLength": 55040,
            "byteOffset": 189824,
            "target": 34962
        },
        "bufferView_buffer_Grid_1": {
            "buffer": "buffer_combined",
            "byteLength": 8640,
            "byteOffset": 244864,
            "target": 34963
        }
    },
    "buffers": {
        "buffer_combined": {
            "byteLength": 253504,
            "type": "arraybuffer",
            "uri": "data:text/plain;base64,"
        }
    },
    "extensions": {
        "KHR_materials_common": {
            "lights": {}
        }
    },
    "extensionsUsed": [
        "KHR_materials_common"
    ],
    "images": {
        "image_Grid1": {
            "uri": "Grid1.png"
        },
        "image_Grid2": {
            "uri": "Grid2.png"
        },
        "image_Grid4": {
            "uri": "Grid4.png"
        }
    },
    "materials": {
        "material_Grid1": {
            "extensions": {
                "KHR_materials_common": {
                    "technique": "PHONG",
                    "values": {
                        "ambient": [
                            1.0,
                            1.0,
                            1.0,
                            1.0
                        ],
                        "diffuse": "texture_Grid1",
                        "doubleSided": false,
                        "emission": [
                            0.0,
                            0.0,
                            0.0,
                            1.0
                        ],
                        "shininess": 50,
                        "specular": [
                            0.5,
                            0.5,
                            0.5,
                            1.0
                        ],
                        "transparency": 1.0,
                        "transparent": false
                    }
                }
            },
            "name": "Grid1"
        },
        "material_Grid2": {
            "extensions": {
                "KHR_materials_common": {
                    "technique": "PHONG",
                    "values": {
                        "ambient": [
                            1.0,
                            1.0,
                            1.0,
                            1.0
                        ],
                        "diffuse": "texture_Grid2",
                        "doubleSided": false,
                        "emission": [
                            0.0,
                            0.0,
                            0.0,
                            1.0
                        ],
                        "shininess": 50,
                        "specular": [
                            0.5,
                            0.5,
                            0.5,
                            1.0
                        ],
                        "transparency": 1.0,
                        "transparent": false
                    }
                }
            },
            "name": "Grid2"
        },
        "material_Grid3": {
            "extensions": {
                "KHR_materials_common": {
                    "technique": "PHONG",
                    "values": {
                        "ambient": [
                            1.0,
                            1.0,
                            1.0,
                            1.0
                        ],
                        "diffuse": "texture_Grid3",
                        "doubleSided": false,
                        "emission": [
                            0.0,
                            0.0,
                            0.0,
                            1.0
                        ],
                        "shininess": 50,
                        "specular": [
                            0.5,
                            0.5,
                            0.5,
                            1.0
                        ],
                        "transparency": 1.0,
                        "transparent": false
                    }
                }
            },
            "name": "Grid3"
        },
        "material_Grid4": {
            "extensions": {
                "KHR_materials_common": {
                    "technique": "PHONG",
                    "values": {
                        "ambient": [
                            1.0,
                            1.0,
                            1.0,
                            1.0
                        ],
                        "diffuse": "texture_Grid4",
                        "doubleSided": false,
                        "emission": [
                            0.0,
                            0.0,
                            0.0,
                            1.0
                        ],
                        "shininess": 50,
                        "specular": [
                            0.5,
                            0.5,
                            0.5,
                            1.0
                        ],
                        "transparency": 1.0,
                        "transparent": false
                    }
                }
            },
            "name": "Grid4"
        }
    },
    "meshes": {
        "mesh_Grid": {
            "name": "Grid",
            "primitives": [
                {
                    "attributes": {
                        "NORMAL": "accessor_buffer_Grid_1",
                        "POSITION": "accessor_buffer_Grid_0",
                        "TEXCOORD_0": "accessor_buffer_Grid_2"
                    },
                    "indices": "accessor_buffer_Grid_3",
                    "material": "material_Grid4",
                    "mode": 4
                }
            ]
        },
        "mesh_Grid.001": {
            "name": "Grid.001",
            "primitives": [
                {
                    "attributes": {
                        "NORMAL": "accessor_buffer_Grid.001_1",
                        "POSITION": "accessor_buffer_Grid.001_0",
                        "TEXCOORD_0": "accessor_buffer_Grid.001_2"
                    },
                    "indices": "accessor_buffer_Grid.001_3",
                    "material": "material_Grid1",
                    "mode": 4
                }
            ]
        },
        "mesh_Grid.002": {
            "name": "Grid.002",
            "primitives": [
                {
                    "attributes": {
                        "NORMAL": "accessor_buffer_Grid.002_1",
                        "POSITION": "accessor_buffer_Grid.002_0",
                        "TEXCOORD_0": "accessor_buffer_Grid.002_2"
                    },
                    "indices": "accessor_buffer_Grid.002_3",
                    "material": "material_Grid2",
                    "mode": 4
                }
            ]
        },
        "mesh_Grid.003": {
            "name": "Grid.003",
            "primitives": [
                {
                    "attributes": {
                        "NORMAL": "accessor_buffer_Grid.003_1",
                        "POSITION": "accessor_buffer_Grid.003_0",
                        "TEXCOORD_0": "accessor_buffer_Grid.003_2"
                    },
                    "indices": "accessor_buffer_Grid.003_3",
                    "material": "material_Grid3",
                    "mode": 4
                }
            ]
        }
    },
    "nodes": {
        "node_Grid1": {
            "children": [],
            "matrix": [
                1.0,
                0.0,
                0.0,
                0.0,
                0.0,
                1.0,
                0.0,
                0.0,
                0.0,
                0.0,
                1.0,
                0.0,
                0.0,
                0.0,
                0.0,
                1.0
            ],
            "meshes": [
                "mesh_Grid.001"
            ],
            "name": "Grid1"
        },
        "node_Grid2": {
            "children": [],
            "matrix": [
                1.0,
                0.0,
                0.0,
                0.0,
                0.0,
                1.0,
                0.0,
                0.0,
                0.0,
                0.0,
                1.0,
                0.0,
                0.0,
                0.0,
                0.0,
                1.0
            ],
            "meshes": [
                "mesh_Grid.002"
            ],
            "name": "Grid2"
        },
        "node_Grid3": {
            "children": [],
            "matrix": [
                1.0,
                0.0,
                0.0,
                0.0,
                0.0,
                1.0,
                0.0,
                0.0,
                0.0,
                0.0,
                1.0,
                0.0,
                0.0,
                0.0,
                0.0,
                1.0
            ],
            "meshes": [
                "mesh_Grid.003"
            ],
            "name": "Grid3"
        },
        "node_Grid4": {
            "children": [],
            "matrix": [
                1.0,
                0.0,
                0.0,
                0.0,
                0.0,
                1.0,
                0.0,
                0.0,
                0.0,
                0.0,
                1.0,
                0.0,
                0.0,
                0.0,
                0.0,
                1.0
            ],
            "meshes": [
                "mesh_Grid"
            ],
            "name": "Grid4"
        },
        "node_scene_Scene_root": {
            "children": [
                "node_Grid3",
                "node_Grid2",
                "node_Grid1",
                "node_Grid4"
            ],
            "matrix": [
                1.0,
                0.0,
                0.0,
                0.0,
                0.0,
                0.0,
                -1.0,
                0.0,
                0.0,
                1.0,
                0.0,
                0.0,
                0.0,
                0.0,
                0.0,
                1.0
            ],
            "name": "node_scene_Scene_root"
        }
    },
    "samplers": {
        "sampler_default": {}
    },
    "scene": "scene_Scene",
    "scenes": {
        "scene_Scene": {
            "extras": {
                "active_camera": null,
                "background_color": [
                    0.05087608844041824,
                    0.05087608844041824,
                    0.05087608844041824
                ],
                "frames_per_second": 24
            },
            "name": "Scene",
            "nodes": [
                "node_scene_Scene_root"
            ]
        }
    },
    "textures": {
        "texture_Grid1": {
            "format": 6408,
            "internalFormat": 6408,
            "sampler": "sampler_default",
            "source": "image_Grid1"
        },
        "texture_Grid2": {
            "format": 6408,
            "internalFormat": 6408,
            "sampler": "sampler_default",
            "source": "image_Grid2"
        },
        "texture_Grid4": {
            "format": 6408,
            "internalFormat": 6408,
            "sampler": "sampler_default",
            "source": "image_Grid4"
        }
    }
}
