{
    "accessors": {
        "accessor_buffer_Cube.005_0": {
            "bufferView": "bufferView_buffer_Cube.005_0",
            "byteOffset": 0,
            "byteStride": 12,
            "componentType": 5126,
            "count": 24,
            "max": [
                0,
                0,
                0
            ],
            "min": [
                -3.622255802154541,
                -10.77867603302002,
                -0.2263210117816925
            ],
            "type": "VEC3"
        },
        "accessor_buffer_Cube.005_1": {
            "bufferView": "bufferView_buffer_Cube.005_0",
            "byteOffset": 288,
            "byteStride": 12,
            "componentType": 5126,
            "count": 24,
            "max": [
                1.0,
                1.0,
                1.0
            ],
            "min": [
                -1.0,
                -1.0,
                -1.0
            ],
            "type": "VEC3"
        },
        "accessor_buffer_Cube.005_2": {
            "bufferView": "bufferView_buffer_Cube.005_0",
            "byteOffset": 576,
            "byteStride": 8,
            "componentType": 5126,
            "count": 24,
            "max": [
                1.0,
                1.0
            ],
            "min": [
                0.0,
                0.0
            ],
            "type": "VEC2"
        },
        "accessor_buffer_Cube.005_3": {
            "bufferView": "bufferView_buffer_Cube.005_1",
            "byteOffset": 0,
            "byteStride": 2,
            "componentType": 5123,
            "count": 36,
            "max": [
                23
            ],
            "min": [
                0
            ],
            "type": "SCALAR"
        },
        "accessor_buffer_Cube.007_0": {
            "bufferView": "bufferView_buffer_Cube.007_0",
            "byteOffset": 0,
            "byteStride": 12,
            "componentType": 5126,
            "count": 24,
            "max": [
                0,
                0,
                1.0452848672866821
            ],
            "min": [
                -2.612786054611206,
                -10.820578575134277,
                -0.09764933586120605
            ],
            "type": "VEC3"
        },
        "accessor_buffer_Cube.007_1": {
            "bufferView": "bufferView_buffer_Cube.007_0",
            "byteOffset": 288,
            "byteStride": 12,
            "componentType": 5126,
            "count": 24,
            "max": [
                1.0,
                1.0,
                1.0
            ],
            "min": [
                -1.0,
                -1.0,
                -1.0
            ],
            "type": "VEC3"
        },
        "accessor_buffer_Cube.007_2": {
            "bufferView": "bufferView_buffer_Cube.007_0",
            "byteOffset": 576,
            "byteStride": 8,
            "componentType": 5126,
            "count": 24,
            "max": [
                1.0,
                1.0
            ],
            "min": [
                0.0,
                0.0
            ],
            "type": "VEC2"
        },
        "accessor_buffer_Cube.007_3": {
            "bufferView": "bufferView_buffer_Cube.007_1",
            "byteOffset": 0,
            "byteStride": 2,
            "componentType": 5123,
            "count": 36,
            "max": [
                23
            ],
            "min": [
                0
            ],
            "type": "SCALAR"
        },
        "accessor_buffer_Cube.008_0": {
            "bufferView": "bufferView_buffer_Cube.008_0",
            "byteOffset": 0,
            "byteStride": 12,
            "componentType": 5126,
            "count": 24,
            "max": [
                0,
                0,
                1.0454553365707397
            ],
            "min": [
                -3.631857395172119,
                -10.816472053527832,
                -0.09781661629676819
            ],
            "type": "VEC3"
        },
        "accessor_buffer_Cube.008_1": {
            "bufferView": "bufferView_buffer_Cube.008_0",
            "byteOffset": 288,
            "byteStride": 12,
            "componentType": 5126,
            "count": 24,
            "max": [
                1.0,
                1.0,
                1.0
            ],
            "min": [
                -1.0,
                -1.0,
                -1.0
            ],
            "type": "VEC3"
        },
        "accessor_buffer_Cube.008_2": {
            "bufferView": "bufferView_buffer_Cube.008_0",
            "byteOffset": 576,
            "byteStride": 8,
            "componentType": 5126,
            "count": 24,
            "max": [
                1.0,
                1.0
            ],
            "min": [
                0.0,
                0.0
            ],
            "type": "VEC2"
        },
        "accessor_buffer_Cube.008_3": {
            "bufferView": "bufferView_buffer_Cube.008_1",
            "byteOffset": 0,
            "byteStride": 2,
            "componentType": 5123,
            "count": 36,
            "max": [
                23
            ],
            "min": [
                0
            ],
            "type": "SCALAR"
        },
        "accessor_buffer_Cube.009_0": {
            "bufferView": "bufferView_buffer_Cube.009_0",
            "byteOffset": 0,
            "byteStride": 12,
            "componentType": 5126,
            "count": 24,
            "max": [
                0,
                0,
                1.0755631923675537
            ],
            "min": [
                -3.5628910064697266,
                -10.70981216430664,
                -0.13560545444488525
            ],
            "type": "VEC3"
        },
        "accessor_buffer_Cube.009_1": {
            "bufferView": "bufferView_buffer_Cube.009_0",
            "byteOffset": 288,
            "byteStride": 12,
            "componentType": 5126,
            "count": 24,
            "max": [
                1.0,
                0.9999998211860657,
                1.0
            ],
            "min": [
                -1.0,
                -0.9999998211860657,
                -1.0
            ],
            "type": "VEC3"
        },
        "accessor_buffer_Cube.009_2": {
            "bufferView": "bufferView_buffer_Cube.009_0",
            "byteOffset": 576,
            "byteStride": 8,
            "componentType": 5126,
            "count": 24,
            "max": [
                1.0,
                1.0
            ],
            "min": [
                0.0,
                0.0
            ],
            "type": "VEC2"
        },
        "accessor_buffer_Cube.009_3": {
            "bufferView": "bufferView_buffer_Cube.009_1",
            "byteOffset": 0,
            "byteStride": 2,
            "componentType": 5123,
            "count": 36,
            "max": [
                23
            ],
            "min": [
                0
            ],
            "type": "SCALAR"
        },
        "accessor_buffer_Cube.016_0": {
            "bufferView": "bufferView_buffer_Cube.016_0",
            "byteOffset": 0,
            "byteStride": 12,
            "componentType": 5126,
            "count": 24,
            "max": [
                0,
                0,
                1.1125787496566772
            ],
            "min": [
                -3.6390128135681152,
                -10.710638999938965,
                1.0457719564437866
            ],
            "type": "VEC3"
        },
        "accessor_buffer_Cube.016_1": {
            "bufferView": "bufferView_buffer_Cube.016_0",
            "byteOffset": 288,
            "byteStride": 12,
            "componentType": 5126,
            "count": 24,
            "max": [
                1.0,
                1.0,
                1.0
            ],
            "min": [
                -1.0,
                -1.0,
                -1.0
            ],
            "type": "VEC3"
        },
        "accessor_buffer_Cube.016_2": {
            "bufferView": "bufferView_buffer_Cube.016_0",
            "byteOffset": 576,
            "byteStride": 8,
            "componentType": 5126,
            "count": 24,
            "max": [
                0.9999999403953552,
                1.0
            ],
            "min": [
                0.0,
                0.0
            ],
            "type": "VEC2"
        },
        "accessor_buffer_Cube.016_3": {
            "bufferView": "bufferView_buffer_Cube.016_1",
            "byteOffset": 0,
            "byteStride": 2,
            "componentType": 5123,
            "count": 36,
            "max": [
                23
            ],
            "min": [
                0
            ],
            "type": "SCALAR"
        }
    },
    "asset": {
        "profile": {
            "api": "WebGL",
            "version": "1.0.3"
        },
        "version": "1.0"
    },
    "bufferViews": {
        "bufferView_buffer_Cube.005_0": {
            "buffer": "buffer_combined",
            "byteLength": 768,
            "byteOffset": 840,
            "target": 34962
        },
        "bufferView_buffer_Cube.005_1": {
            "buffer": "buffer_combined",
            "byteLength": 72,
            "byteOffset": 1608,
            "target": 34963
        },
        "bufferView_buffer_Cube.007_0": {
            "buffer": "buffer_combined",
            "byteLength": 768,
            "byteOffset": 1680,
            "target": 34962
        },
        "bufferView_buffer_Cube.007_1": {
            "buffer": "buffer_combined",
            "byteLength": 72,
            "byteOffset": 2448,
            "target": 34963
        },
        "bufferView_buffer_Cube.008_0": {
            "buffer": "buffer_combined",
            "byteLength": 768,
            "byteOffset": 2520,
            "target": 34962
        },
        "bufferView_buffer_Cube.008_1": {
            "buffer": "buffer_combined",
            "byteLength": 72,
            "byteOffset": 3288,
            "target": 34963
        },
        "bufferView_buffer_Cube.009_0": {
            "buffer": "buffer_combined",
            "byteLength": 768,
            "byteOffset": 3360,
            "target": 34962
        },
        "bufferView_buffer_Cube.009_1": {
            "buffer": "buffer_combined",
            "byteLength": 72,
            "byteOffset": 4128,
            "target": 34963
        },
        "bufferView_buffer_Cube.016_0": {
            "buffer": "buffer_combined",
            "byteLength": 768,
            "byteOffset": 0,
            "target": 34962
        },
        "bufferView_buffer_Cube.016_1": {
            "buffer": "buffer_combined",
            "byteLength": 72,
            "byteOffset": 768,
            "target": 34963
        }
    },
    "buffers": {
        "buffer_combined": {
            "byteLength": 4200,
            "type": "arraybuffer",
            "uri": "data:text/plain;base64,"
        }
    },
    "extensions": {
        "KHR_materials_common": {
            "lights": {}
        }
    },
    "extensionsUsed": [
        "KHR_materials_common"
    ],
    "images": {
        "image_HallCeiling.png": {
            "uri": "HallCeiling.png"
        },
        "image_HallFloor.png": {
            "uri": "HallFloor.png"
        },
        "image_HallWall1.png": {
            "uri": "HallWall1.png"
        },
        "image_HallWall2.png": {
            "uri": "HallWall2.png"
        },
        "image_HallWall3.png": {
            "uri": "HallWall3.png"
        }
    },
    "materials": {
        "material_Hall_Ceiling": {
            "extensions": {
                "KHR_materials_common": {
                    "technique": "PHONG",
                    "values": {
                        "ambient": [
                            1.0,
                            1.0,
                            1.0,
                            1.0
                        ],
                        "diffuse": "texture_Hall_Ceiling",
                        "doubleSided": false,
                        "emission": [
                            0.0,
                            0.0,
                            0.0,
                            1.0
                        ],
                        "shininess": 50,
                        "specular": [
                            0.5,
                            0.5,
                            0.5,
                            1.0
                        ],
                        "transparency": 1.0,
                        "transparent": false
                    }
                }
            },
            "name": "Hall_Ceiling"
        },
        "material_Hall_Floor": {
            "extensions": {
                "KHR_materials_common": {
                    "technique": "PHONG",
                    "values": {
                        "ambient": [
                            1.0,
                            1.0,
                            1.0,
                            1.0
                        ],
                        "diffuse": "texture_Hall_Floor",
                        "doubleSided": false,
                        "emission": [
                            0.0,
                            0.0,
                            0.0,
                            1.0
                        ],
                        "shininess": 50,
                        "specular": [
                            0.5,
                            0.5,
                            0.5,
                            1.0
                        ],
                        "transparency": 1.0,
                        "transparent": false
                    }
                }
            },
            "name": "Hall_Floor"
        },
        "material_Hall_Wall1": {
            "extensions": {
                "KHR_materials_common": {
                    "technique": "PHONG",
                    "values": {
                        "ambient": [
                            1.0,
                            1.0,
                            1.0,
                            1.0
                        ],
                        "diffuse": "texture_Hall_Wall1",
                        "doubleSided": false,
                        "emission": [
                            0.0,
                            0.0,
                            0.0,
                            1.0
                        ],
                        "shininess": 50,
                        "specular": [
                            0.5,
                            0.5,
                            0.5,
                            1.0
                        ],
                        "transparency": 1.0,
                        "transparent": false
                    }
                }
            },
            "name": "Hall_Wall1"
        },
        "material_Hall_Wall2": {
            "extensions": {
                "KHR_materials_common": {
                    "technique": "PHONG",
                    "values": {
                        "ambient": [
                            1.0,
                            1.0,
                            1.0,
                            1.0
                        ],
                        "diffuse": "texture_Hall_Wall2",
                        "doubleSided": false,
                        "emission": [
                            0.0,
                            0.0,
                            0.0,
                            1.0
                        ],
                        "shininess": 50,
                        "specular": [
                            0.5,
                            0.5,
                            0.5,
                            1.0
                        ],
                        "transparency": 1.0,
                        "transparent": false
                    }
                }
            },
            "name": "Hall_Wall2"
        },
        "material_Hall_Wall3": {
            "extensions": {
                "KHR_materials_common": {
                    "technique": "PHONG",
                    "values": {
                        "ambient": [
                            1.0,
                            1.0,
                            1.0,
                            1.0
                        ],
                        "diffuse": "texture_Hall_Wall3",
                        "doubleSided": false,
                        "emission": [
                            0.0,
                            0.0,
                            0.0,
                            1.0
                        ],
                        "shininess": 50,
                        "specular": [
                            0.5,
                            0.5,
                            0.5,
                            1.0
                        ],
                        "transparency": 1.0,
                        "transparent": false
                    }
                }
            },
            "name": "Hall_Wall3"
        }
    },
    "meshes": {
        "mesh_Cube.005": {
            "name": "Cube.005",
            "primitives": [
                {
                    "attributes": {
                        "NORMAL": "accessor_buffer_Cube.005_1",
                        "POSITION": "accessor_buffer_Cube.005_0",
                        "TEXCOORD_0": "accessor_buffer_Cube.005_2"
                    },
                    "indices": "accessor_buffer_Cube.005_3",
                    "material": "material_Hall_Floor",
                    "mode": 4
                }
            ]
        },
        "mesh_Cube.007": {
            "name": "Cube.007",
            "primitives": [
                {
                    "attributes": {
                        "NORMAL": "accessor_buffer_Cube.007_1",
                        "POSITION": "accessor_buffer_Cube.007_0",
                        "TEXCOORD_0": "accessor_buffer_Cube.007_2"
                    },
                    "indices": "accessor_buffer_Cube.007_3",
                    "material": "material_Hall_Wall1",
                    "mode": 4
                }
            ]
        },
        "mesh_Cube.008": {
            "name": "Cube.008",
            "primitives": [
                {
                    "attributes": {
                        "NORMAL": "accessor_buffer_Cube.008_1",
                        "POSITION": "accessor_buffer_Cube.008_0",
                        "TEXCOORD_0": "accessor_buffer_Cube.008_2"
                    },
                    "indices": "accessor_buffer_Cube.008_3",
                    "material": "material_Hall_Wall2",
                    "mode": 4
                }
            ]
        },
        "mesh_Cube.009": {
            "name": "Cube.009",
            "primitives": [
                {
                    "attributes": {
                        "NORMAL": "accessor_buffer_Cube.009_1",
                        "POSITION": "accessor_buffer_Cube.009_0",
                        "TEXCOORD_0": "accessor_buffer_Cube.009_2"
                    },
                    "indices": "accessor_buffer_Cube.009_3",
                    "material": "material_Hall_Wall3",
                    "mode": 4
                }
            ]
        },
        "mesh_Cube.016": {
            "name": "Cube.016",
            "primitives": [
                {
                    "attributes": {
                        "NORMAL": "accessor_buffer_Cube.016_1",
                        "POSITION": "accessor_buffer_Cube.016_0",
                        "TEXCOORD_0": "accessor_buffer_Cube.016_2"
                    },
                    "indices": "accessor_buffer_Cube.016_3",
                    "material": "material_Hall_Ceiling",
                    "mode": 4
                }
            ]
        }
    },
    "nodes": {
        "node_HallCeiling": {
            "children": [],
            "matrix": [
                1.0,
                0.0,
                0.0,
                0.0,
                0.0,
                1.0,
                0.0,
                0.0,
                0.0,
                0.0,
                1.0,
                0.0,
                0.0,
                0.0,
                0.0,
                1.0
            ],
            "meshes": [
                "mesh_Cube.016"
            ],
            "name": "HallCeiling"
        },
        "node_HallFloor": {
            "children": [],
            "matrix": [
                1.0,
                0.0,
                0.0,
                0.0,
                0.0,
                1.0,
                0.0,
                0.0,
                0.0,
                0.0,
                1.0,
                0.0,
                0.0,
                0.0,
                0.0,
                1.0
            ],
            "meshes": [
                "mesh_Cube.005"
            ],
            "name": "HallFloor"
        },
        "node_HallWall1": {
            "children": [],
            "matrix": [
                1.0,
                0.0,
                0.0,
                0.0,
                0.0,
                1.0,
                0.0,
                0.0,
                0.0,
                0.0,
                1.0,
                0.0,
                0.0,
                0.0,
                0.0,
                1.0
            ],
            "meshes": [
                "mesh_Cube.007"
            ],
            "name": "HallWall1"
        },
        "node_HallWall2": {
            "children": [],
            "matrix": [
                1.0,
                0.0,
                0.0,
                0.0,
                0.0,
                1.0,
                0.0,
                0.0,
                0.0,
                0.0,
                1.0,
                0.0,
                0.0,
                0.0,
                0.0,
                1.0
            ],
            "meshes": [
                "mesh_Cube.008"
            ],
            "name": "HallWall2"
        },
        "node_HallWall3": {
            "children": [],
            "matrix": [
                1.0,
                0.0,
                0.0,
                0.0,
                0.0,
                1.0,
                0.0,
                0.0,
                0.0,
                0.0,
                1.0,
                0.0,
                0.0,
                0.0,
                0.0,
                1.0
            ],
            "meshes": [
                "mesh_Cube.009"
            ],
            "name": "HallWall3"
        },
        "node_scene_Scene_root": {
            "children": [
                "node_HallCeiling",
                "node_HallWall3",
                "node_HallWall2",
                "node_HallWall1",
                "node_HallFloor"
            ],
            "matrix": [
                1.0,
                0.0,
                0.0,
                0.0,
                0.0,
                0.0,
                -1.0,
                0.0,
                0.0,
                1.0,
                0.0,
                0.0,
                0.0,
                0.0,
                0.0,
                1.0
            ],
            "name": "node_scene_Scene_root"
        }
    },
    "samplers": {
        "sampler_default": {}
    },
    "scene": "scene_Scene",
    "scenes": {
        "scene_Scene": {
            "extras": {
                "active_camera": null,
                "background_color": [
                    0.05087608844041824,
                    0.05087608844041824,
                    0.05087608844041824
                ],
                "frames_per_second": 24
            },
            "name": "Scene",
            "nodes": [
                "node_scene_Scene_root"
            ]
        }
    },
    "textures": {
        "texture_Hall_Ceiling": {
            "format": 6408,
            "internalFormat": 6408,
            "sampler": "sampler_default",
            "source": "image_HallCeiling.png"
        },
        "texture_Hall_Floor": {
            "format": 6408,
            "internalFormat": 6408,
            "sampler": "sampler_default",
            "source": "image_HallFloor.png"
        },
        "texture_Hall_Wall1": {
            "format": 6408,
            "internalFormat": 6408,
            "sampler": "sampler_default",
            "source": "image_HallWall1.png"
        },
        "texture_Hall_Wall2": {
            "format": 6408,
            "internalFormat": 6408,
            "sampler": "sampler_default",
            "source": "image_HallWall2.png"
        },
        "texture_Hall_Wall3": {
            "format": 6408,
            "internalFormat": 6408,
            "sampler": "sampler_default",
            "source": "image_HallWall3.png"
        }
    }
}
