{
    "accessors": {
        "accessor_buffer_TRONdisc.003_0": {
            "bufferView": "bufferView_buffer_TRONdisc.003_0",
            "byteOffset": 0,
            "byteStride": 12,
            "componentType": 5126,
            "count": 16263,
            "max": [
                148.2071990966797,
                11.369739532470703,
                148.20748901367188
            ],
            "min": [
                -148.2071990966797,
                -11.369739532470703,
                -148.20689392089844
            ],
            "type": "VEC3"
        },
        "accessor_buffer_TRONdisc.003_1": {
            "bufferView": "bufferView_buffer_TRONdisc.003_0",
            "byteOffset": 195156,
            "byteStride": 12,
            "componentType": 5126,
            "count": 16263,
            "max": [
                1.0,
                1.0,
                0.9987954497337341
            ],
            "min": [
                -1.0,
                -1.0,
                -0.9999426603317261
            ],
            "type": "VEC3"
        },
        "accessor_buffer_TRONdisc.003_2": {
            "bufferView": "bufferView_buffer_TRONdisc.003_0",
            "byteOffset": 390312,
            "byteStride": 8,
            "componentType": 5126,
            "count": 16263,
            "max": [
                1.0,
                1.0
            ],
            "min": [
                0.0,
                0.0
            ],
            "type": "VEC2"
        },
        "accessor_buffer_TRONdisc.003_3": {
            "bufferView": "bufferView_buffer_TRONdisc.003_1",
            "byteOffset": 0,
            "byteStride": 2,
            "componentType": 5123,
            "count": 1488,
            "max": [
                16255
            ],
            "min": [
                29
            ],
            "type": "SCALAR"
        },
        "accessor_buffer_TRONdisc.003_4": {
            "bufferView": "bufferView_buffer_TRONdisc.003_2",
            "byteOffset": 0,
            "byteStride": 2,
            "componentType": 5123,
            "count": 1080,
            "max": [
                16218
            ],
            "min": [
                5
            ],
            "type": "SCALAR"
        },
        "accessor_buffer_TRONdisc.003_5": {
            "bufferView": "bufferView_buffer_TRONdisc.003_3",
            "byteOffset": 0,
            "byteStride": 2,
            "componentType": 5123,
            "count": 14139,
            "max": [
                16262
            ],
            "min": [
                0
            ],
            "type": "SCALAR"
        },
        "accessor_buffer_TRONdisc.007_0": {
            "bufferView": "bufferView_buffer_TRONdisc.007_0",
            "byteOffset": 0,
            "byteStride": 12,
            "componentType": 5126,
            "count": 4077,
            "max": [
                148.69760131835938,
                11.369770050048828,
                148.69760131835938
            ],
            "min": [
                -148.69749450683594,
                -11.369729995727539,
                -148.69760131835938
            ],
            "type": "VEC3"
        },
        "accessor_buffer_TRONdisc.007_1": {
            "bufferView": "bufferView_buffer_TRONdisc.007_0",
            "byteOffset": 48924,
            "byteStride": 12,
            "componentType": 5126,
            "count": 4077,
            "max": [
                0.9987955093383789,
                0.9948996305465698,
                0.9987952709197998
            ],
            "min": [
                -0.9987955689430237,
                -0.994899570941925,
                -0.998795211315155
            ],
            "type": "VEC3"
        },
        "accessor_buffer_TRONdisc.007_2": {
            "bufferView": "bufferView_buffer_TRONdisc.007_0",
            "byteOffset": 97848,
            "byteStride": 8,
            "componentType": 5126,
            "count": 4077,
            "max": [
                1.0,
                1.0
            ],
            "min": [
                0.0,
                0.0
            ],
            "type": "VEC2"
        },
        "accessor_buffer_TRONdisc.007_3": {
            "bufferView": "bufferView_buffer_TRONdisc.007_1",
            "byteOffset": 0,
            "byteStride": 2,
            "componentType": 5123,
            "count": 4107,
            "max": [
                4076
            ],
            "min": [
                0
            ],
            "type": "SCALAR"
        }
    },
    "asset": {
        "profile": {
            "api": "WebGL",
            "version": "1.0.3"
        },
        "version": "1.0"
    },
    "bufferViews": {
        "bufferView_buffer_TRONdisc.003_0": {
            "buffer": "buffer_combined",
            "byteLength": 520416,
            "byteOffset": 0,
            "target": 34962
        },
        "bufferView_buffer_TRONdisc.003_1": {
            "buffer": "buffer_combined",
            "byteLength": 2976,
            "byteOffset": 520416,
            "target": 34963
        },
        "bufferView_buffer_TRONdisc.003_2": {
            "buffer": "buffer_combined",
            "byteLength": 2160,
            "byteOffset": 523392,
            "target": 34963
        },
        "bufferView_buffer_TRONdisc.003_3": {
            "buffer": "buffer_combined",
            "byteLength": 28278,
            "byteOffset": 525552,
            "target": 34963
        },
        "bufferView_buffer_TRONdisc.007_0": {
            "buffer": "buffer_combined",
            "byteLength": 130464,
            "byteOffset": 553830,
            "target": 34962
        },
        "bufferView_buffer_TRONdisc.007_1": {
            "buffer": "buffer_combined",
            "byteLength": 8214,
            "byteOffset": 684294,
            "target": 34963
        }
    },
    "buffers": {
        "buffer_combined": {
            "byteLength": 692508,
            "type": "arraybuffer",
            "uri": "data:text/plain;base64,"
        }
    },
    "extensions": {
        "KHR_materials_common": {
            "lights": {}
        }
    },
    "extensionsUsed": [
        "KHR_materials_common"
    ],
    "images": {
        "image_TronDisc1": {
            "uri": "TronDisc1.png"
        }
    },
    "materials": {
        "material_Glow": {
            "extensions": {
                "KHR_materials_common": {
                    "technique": "PHONG",
                    "values": {
                        "ambient": [
                            1.0,
                            1.0,
                            1.0,
                            1.0
                        ],
                        "diffuse": [
                            0.14169999957084656,
                            0.48499998450279236,
                            0.6399999856948853,
                            1.0
                        ],
                        "doubleSided": false,
                        "emission": [
                            0.0,
                            0.0,
                            0.0,
                            1.0
                        ],
                        "shininess": 50,
                        "specular": [
                            0.25,
                            0.25,
                            0.25,
                            1.0
                        ],
                        "transparency": 1.0,
                        "transparent": false
                    }
                }
            },
            "name": "Glow"
        },
        "material_TronDisc": {
            "extensions": {
                "KHR_materials_common": {
                    "technique": "PHONG",
                    "values": {
                        "ambient": [
                            1.0,
                            1.0,
                            1.0,
                            1.0
                        ],
                        "diffuse": "texture_TronDisc",
                        "doubleSided": false,
                        "emission": [
                            0.0,
                            0.0,
                            0.0,
                            1.0
                        ],
                        "shininess": 50,
                        "specular": [
                            0.25,
                            0.25,
                            0.25,
                            1.0
                        ],
                        "transparency": 1.0,
                        "transparent": false
                    }
                }
            },
            "name": "TronDisc"
        },
        "material_TronDiscHighlight": {
            "extensions": {
                "KHR_materials_common": {
                    "technique": "PHONG",
                    "values": {
                        "ambient": [
                            1.0,
                            1.0,
                            1.0,
                            1.0
                        ],
                        "diffuse": "texture_TronDiscHighlight",
                        "doubleSided": false,
                        "emission": [
                            0.0,
                            0.0,
                            0.0,
                            1.0
                        ],
                        "shininess": 50,
                        "specular": [
                            0.25,
                            0.25,
                            0.25,
                            1.0
                        ],
                        "transparency": 1.0,
                        "transparent": false
                    }
                }
            },
            "name": "TronDiscHighlight"
        },
        "material_TronWhite": {
            "extensions": {
                "KHR_materials_common": {
                    "technique": "PHONG",
                    "values": {
                        "ambient": [
                            1.0,
                            1.0,
                            1.0,
                            1.0
                        ],
                        "diffuse": "texture_TronDiscWhite",
                        "doubleSided": false,
                        "emission": [
                            0.0,
                            0.0,
                            0.0,
                            1.0
                        ],
                        "shininess": 50,
                        "specular": [
                            0.25,
                            0.25,
                            0.25,
                            1.0
                        ],
                        "transparency": 1.0,
                        "transparent": false
                    }
                }
            },
            "name": "TronWhite"
        }
    },
    "meshes": {
        "mesh_TRONdisc.003": {
            "name": "TRONdisc.003",
            "primitives": [
                {
                    "attributes": {
                        "NORMAL": "accessor_buffer_TRONdisc.003_1",
                        "POSITION": "accessor_buffer_TRONdisc.003_0",
                        "TEXCOORD_0": "accessor_buffer_TRONdisc.003_2"
                    },
                    "indices": "accessor_buffer_TRONdisc.003_3",
                    "material": "material_TronWhite",
                    "mode": 4
                },
                {
                    "attributes": {
                        "NORMAL": "accessor_buffer_TRONdisc.003_1",
                        "POSITION": "accessor_buffer_TRONdisc.003_0",
                        "TEXCOORD_0": "accessor_buffer_TRONdisc.003_2"
                    },
                    "indices": "accessor_buffer_TRONdisc.003_4",
                    "material": "material_TronDiscHighlight",
                    "mode": 4
                },
                {
                    "attributes": {
                        "NORMAL": "accessor_buffer_TRONdisc.003_1",
                        "POSITION": "accessor_buffer_TRONdisc.003_0",
                        "TEXCOORD_0": "accessor_buffer_TRONdisc.003_2"
                    },
                    "indices": "accessor_buffer_TRONdisc.003_5",
                    "material": "material_TronDisc",
                    "mode": 4
                }
            ]
        },
        "mesh_TRONdisc.007": {
            "name": "TRONdisc.007",
            "primitives": [
                {
                    "attributes": {
                        "NORMAL": "accessor_buffer_TRONdisc.007_1",
                        "POSITION": "accessor_buffer_TRONdisc.007_0",
                        "TEXCOORD_0": "accessor_buffer_TRONdisc.007_2"
                    },
                    "indices": "accessor_buffer_TRONdisc.007_3",
                    "material": "material_Glow",
                    "mode": 4
                }
            ]
        }
    },
    "nodes": {
        "node_TRONdisc_035": {
            "children": [],
            "matrix": [
                0.24999989569187164,
                0.0,
                0.0,
                0.0,
                0.0,
                -4.0730171235736634e-08,
                0.25,
                0.0,
                0.0,
                -0.25,
                -4.0730171235736634e-08,
                0.0,
                0.0,
                0.0,
                0.0,
                1.0
            ],
            "meshes": [
                "mesh_TRONdisc.003"
            ],
            "name": "TRONdisc_035"
        },
        "node_TRONdisc_038": {
            "children": [],
            "matrix": [
                0.24999989569187164,
                0.0,
                0.0,
                0.0,
                0.0,
                -4.0730171235736634e-08,
                0.25,
                0.0,
                0.0,
                -0.25,
                -4.0730171235736634e-08,
                0.0,
                0.0,
                0.0,
                0.0,
                1.0
            ],
            "meshes": [
                "mesh_TRONdisc.007"
            ],
            "name": "TRONdisc_038"
        },
        "node_scene_Scene_root": {
            "children": [
                "node_TRONdisc_038",
                "node_TRONdisc_035"
            ],
            "matrix": [
                1.0,
                0.0,
                0.0,
                0.0,
                0.0,
                0.0,
                -1.0,
                0.0,
                0.0,
                1.0,
                0.0,
                0.0,
                0.0,
                0.0,
                0.0,
                1.0
            ],
            "name": "node_scene_Scene_root"
        }
    },
    "samplers": {
        "sampler_default": {}
    },
    "scene": "scene_Scene",
    "scenes": {
        "scene_Scene": {
            "extras": {
                "active_camera": null,
                "background_color": [
                    0.05087608844041824,
                    0.05087608844041824,
                    0.05087608844041824
                ],
                "frames_per_second": 24
            },
            "name": "Scene",
            "nodes": [
                "node_scene_Scene_root"
            ]
        }
    },
    "textures": {
        "texture_TronDisc": {
            "format": 6408,
            "internalFormat": 6408,
            "sampler": "sampler_default",
            "source": "image_TronDisc1"
        },
        "texture_TronDiscHighlight": {
            "format": 6408,
            "internalFormat": 6408,
            "sampler": "sampler_default",
            "source": "image_TronDisc1"
        },
        "texture_TronDiscWhite": {
            "format": 6408,
            "internalFormat": 6408,
            "sampler": "sampler_default",
            "source": "image_TronDisc1"
        }
    }
}
