{
    "accessors" : [
        {
            "bufferView" : 0, 
            "componentType" : 5121, 
            "count" : 36, 
            "max" : [
                23
            ], 
            "min" : [
                0
            ], 
            "type" : "SCALAR"
        }, 
        {
            "bufferView" : 1, 
            "componentType" : 5126, 
            "count" : 24, 
            "max" : [
                2.460556983947754, 
                2.5961785316467285, 
                2.189542770385742
            ], 
            "min" : [
                0.46055692434310913, 
                0.5961785316467285, 
                0.18954265117645264
            ], 
            "type" : "VEC3"
        }, 
        {
            "bufferView" : 2, 
            "componentType" : 5126, 
            "count" : 24, 
            "max" : [
                1.0, 
                1.0, 
                1.0
            ], 
            "min" : [
                -1.0, 
                -1.0, 
                -1.0
            ], 
            "type" : "VEC3"
        }, 
        {
            "bufferView" : 3, 
            "componentType" : 5126, 
            "count" : 24, 
            "max" : [
                0.9968944191932678, 
                0.9968944098800421
            ], 
            "min" : [
                0.7808833718299866, 
                0.11421668529510498
            ], 
            "type" : "VEC2"
        }, 
        {
            "bufferView" : 4, 
            "componentType" : 5121, 
            "count" : 72, 
            "max" : [
                45
            ], 
            "min" : [
                0
            ], 
            "type" : "SCALAR"
        }, 
        {
            "bufferView" : 5, 
            "componentType" : 5126, 
            "count" : 46, 
            "max" : [
                4.941978931427002, 
                6.98715353012085, 
                4.0384321212768555
            ], 
            "min" : [
                -4.941978931427002, 
                -0.19681966304779053, 
                -5.845526695251465
            ], 
            "type" : "VEC3"
        }, 
        {
            "bufferView" : 6, 
            "componentType" : 5126, 
            "count" : 46, 
            "max" : [
                1.0, 
                1.0, 
                1.0
            ], 
            "min" : [
                -1.0, 
                -1.0, 
                -1.0
            ], 
            "type" : "VEC3"
        }, 
        {
            "bufferView" : 7, 
            "componentType" : 5126, 
            "count" : 46, 
            "max" : [
                0.9968944191932678, 
                0.9968944098800421
            ], 
            "min" : [
                0.003105590119957924, 
                0.0031055808067321777
            ], 
            "type" : "VEC2"
        }
    ], 
    "asset" : {
        "generator" : "Khronos Blender glTF 2.0 exporter", 
        "version" : "2.0"
    }, 
    "bufferViews" : [
        {
            "buffer" : 0, 
            "byteLength" : 36, 
            "byteOffset" : 0, 
            "target" : 34963
        }, 
        {
            "buffer" : 0, 
            "byteLength" : 288, 
            "byteOffset" : 36, 
            "target" : 34962
        }, 
        {
            "buffer" : 0, 
            "byteLength" : 288, 
            "byteOffset" : 324, 
            "target" : 34962
        }, 
        {
            "buffer" : 0, 
            "byteLength" : 192, 
            "byteOffset" : 612, 
            "target" : 34962
        }, 
        {
            "buffer" : 0, 
            "byteLength" : 72, 
            "byteOffset" : 804, 
            "target" : 34963
        }, 
        {
            "buffer" : 0, 
            "byteLength" : 552, 
            "byteOffset" : 876, 
            "target" : 34962
        }, 
        {
            "buffer" : 0, 
            "byteLength" : 552, 
            "byteOffset" : 1428, 
            "target" : 34962
        }, 
        {
            "buffer" : 0, 
            "byteLength" : 368, 
            "byteOffset" : 1980, 
            "target" : 34962
        }
    ], 
    "buffers" : [
        {
            "byteLength" : 2348, 
            "uri" : "data:application/octet-stream;base64,"
        }
    ], 
    "images" : [
        {
            "uri" : "Testy2.png"
        }
    ], 
    "materials" : [
        {
            "name" : "boobis", 
            "pbrMetallicRoughness" : {
                "baseColorFactor" : [
                    0.01498127154978024, 
                    0.0166752042870999, 
                    0.14974050744981326, 
                    1.0
                ], 
                "baseColorTexture" : {
                    "index" : 0
                }, 
                "metallicFactor" : 0.0
            }
        }, 
        {
            "name" : "vageener", 
            "pbrMetallicRoughness" : {
                "baseColorFactor" : [
                    0.40291319493820055, 
                    0.40291319493820055, 
                    0.40291319493820055, 
                    1.0
                ], 
                "baseColorTexture" : {
                    "index" : 0
                }, 
                "metallicFactor" : 0.0
            }
        }
    ], 
    "meshes" : [
        {
            "name" : "Cube", 
            "primitives" : [
                {
                    "attributes" : {
                        "NORMAL" : 2, 
                        "POSITION" : 1, 
                        "TEXCOORD_0" : 3
                    }, 
                    "indices" : 0, 
                    "material" : 1
                }, 
                {
                    "attributes" : {
                        "NORMAL" : 6, 
                        "POSITION" : 5, 
                        "TEXCOORD_0" : 7
                    }, 
                    "indices" : 4, 
                    "material" : 0
                }
            ]
        }
    ], 
    "nodes" : [
        {
            "mesh" : 0, 
            "name" : "TestStuff", 
            "scale" : [
                0.8202700018882751, 
                0.8202700018882751, 
                0.8202700018882751
            ], 
            "translation" : [
                5.066394805908203e-07, 
                -0.08947491645812988, 
                0.7411527633666992
            ]
        }
    ], 
    "samplers" : [
        {}
    ], 
    "scene" : 0, 
    "scenes" : [
        {
            "name" : "Scene", 
            "nodes" : [
                0
            ]
        }
    ], 
    "textures" : [
        {
            "sampler" : 0, 
            "source" : 0
        }
    ]
}
