{
    "accessors": {
        "accessor_buffer_Object10_0": {
            "bufferView": "bufferView_buffer_Object10_0",
            "byteOffset": 0,
            "byteStride": 12,
            "componentType": 5126,
            "count": 1512,
            "max": [
                0,
                115.59327697753906,
                18.803810119628906
            ],
            "min": [
                -22.88041877746582,
                108.9575424194336,
                12.23211669921875
            ],
            "type": "VEC3"
        },
        "accessor_buffer_Object10_1": {
            "bufferView": "bufferView_buffer_Object10_0",
            "byteOffset": 18144,
            "byteStride": 12,
            "componentType": 5126,
            "count": 1512,
            "max": [
                0.999786376953125,
                0.9988097548484802,
                0.9497665166854858
            ],
            "min": [
                -0.999786376953125,
                -0.9988097548484802,
                0.00946073792874813
            ],
            "type": "VEC3"
        },
        "accessor_buffer_Object10_2": {
            "bufferView": "bufferView_buffer_Object10_0",
            "byteOffset": 36288,
            "byteStride": 8,
            "componentType": 5126,
            "count": 1512,
            "max": [
                0.5,
                0.7692310065031052
            ],
            "min": [
                0.1826920062303543,
                0.23076897859573364
            ],
            "type": "VEC2"
        },
        "accessor_buffer_Object10_3": {
            "bufferView": "bufferView_buffer_Object10_1",
            "byteOffset": 0,
            "byteStride": 2,
            "componentType": 5123,
            "count": 7956,
            "max": [
                1511
            ],
            "min": [
                0
            ],
            "type": "SCALAR"
        }
    },
    "asset": {
        "profile": {
            "api": "WebGL",
            "version": "1.0.3"
        },
        "version": "1.0"
    },
    "bufferViews": {
        "bufferView_buffer_Object10_0": {
            "buffer": "buffer_combined",
            "byteLength": 48384,
            "byteOffset": 0,
            "target": 34962
        },
        "bufferView_buffer_Object10_1": {
            "buffer": "buffer_combined",
            "byteLength": 15912,
            "byteOffset": 48384,
            "target": 34963
        }
    },
    "buffers": {
        "buffer_combined": {
            "byteLength": 64296,
            "type": "arraybuffer",
            "uri": "data:text/plain;base64,"
        }
    },
    "extensions": {
        "KHR_materials_common": {
            "lights": {}
        }
    },
    "extensionsUsed": [
        "KHR_materials_common"
    ],
    "materials": {
        "material_Rotors": {
            "extensions": {
                "KHR_materials_common": {
                    "technique": "PHONG",
                    "values": {
                        "ambient": [
                            0.2640526592731476,
                            0.2640526592731476,
                            0.2640526592731476,
                            1.0
                        ],
                        "diffuse": [
                            0.5294119715690613,
                            0.23137299716472626,
                            0.031373001635074615,
                            1.0
                        ],
                        "doubleSided": false,
                        "emission": [
                            0.0,
                            0.0,
                            0.0,
                            1.0
                        ],
                        "shininess": 17,
                        "specular": [
                            0.3499999940395355,
                            0.3499999940395355,
                            0.3499999940395355,
                            1.0
                        ],
                        "transparency": 1.0,
                        "transparent": true
                    }
                }
            },
            "name": "Rotors"
        }
    },
    "meshes": {
        "mesh_Object10": {
            "name": "Object10",
            "primitives": [
                {
                    "attributes": {
                        "NORMAL": "accessor_buffer_Object10_1",
                        "POSITION": "accessor_buffer_Object10_0",
                        "TEXCOORD_0": "accessor_buffer_Object10_2"
                    },
                    "indices": "accessor_buffer_Object10_3",
                    "material": "material_Rotors",
                    "mode": 4
                }
            ]
        }
    },
    "nodes": {
        "node_Object10": {
            "children": [],
            "matrix": [
                1.0,
                0.0,
                0.0,
                0.0,
                0.0,
                -1.6292068494294654e-07,
                1.0,
                0.0,
                0.0,
                -1.0,
                -1.6292068494294654e-07,
                0.0,
                0.0,
                0.0,
                0.0,
                1.0
            ],
            "meshes": [
                "mesh_Object10"
            ],
            "name": "Object10"
        },
        "node_scene_Scene_root": {
            "children": [
                "node_Object10"
            ],
            "matrix": [
                1.0,
                0.0,
                0.0,
                0.0,
                0.0,
                0.0,
                -1.0,
                0.0,
                0.0,
                1.0,
                0.0,
                0.0,
                0.0,
                0.0,
                0.0,
                1.0
            ],
            "name": "node_scene_Scene_root"
        }
    },
    "samplers": {
        "sampler_default": {}
    },
    "scene": "scene_Scene",
    "scenes": {
        "scene_Scene": {
            "extras": {
                "active_camera": null,
                "background_color": [
                    0.05087608844041824,
                    0.05087608844041824,
                    0.05087608844041824
                ],
                "frames_per_second": 24
            },
            "name": "Scene",
            "nodes": [
                "node_scene_Scene_root"
            ]
        }
    }
}
