{
    "accessors": {
        "accessor_buffer_Cube.007_0": {
            "bufferView": "bufferView_buffer_Cube.007_0",
            "byteOffset": 0,
            "byteStride": 12,
            "componentType": 5126,
            "count": 514,
            "max": [
                0.42790740728378296,
                2.140373468399048,
                2.6770505905151367
            ],
            "min": [
                -0.4282926619052887,
                -2.1403720378875732,
                -2.1219160556793213
            ],
            "type": "VEC3"
        },
        "accessor_buffer_Cube.007_1": {
            "bufferView": "bufferView_buffer_Cube.007_0",
            "byteOffset": 6168,
            "byteStride": 12,
            "componentType": 5126,
            "count": 514,
            "max": [
                1.0,
                1.0,
                1.0
            ],
            "min": [
                -1.0,
                -1.0,
                -1.0
            ],
            "type": "VEC3"
        },
        "accessor_buffer_Cube.007_2": {
            "bufferView": "bufferView_buffer_Cube.007_0",
            "byteOffset": 12336,
            "byteStride": 8,
            "componentType": 5126,
            "count": 514,
            "max": [
                0.9962989091873169,
                0.99619947001338
            ],
            "min": [
                0.0037010859232395887,
                0.0038005709648132324
            ],
            "type": "VEC2"
        },
        "accessor_buffer_Cube.007_3": {
            "bufferView": "bufferView_buffer_Cube.007_1",
            "byteOffset": 0,
            "byteStride": 2,
            "componentType": 5123,
            "count": 834,
            "max": [
                513
            ],
            "min": [
                1
            ],
            "type": "SCALAR"
        },
        "accessor_buffer_Cube.007_4": {
            "bufferView": "bufferView_buffer_Cube.007_2",
            "byteOffset": 0,
            "byteStride": 2,
            "componentType": 5123,
            "count": 48,
            "max": [
                505
            ],
            "min": [
                0
            ],
            "type": "SCALAR"
        }
    },
    "asset": {
        "profile": {
            "api": "WebGL",
            "version": "1.0.3"
        },
        "version": "1.0"
    },
    "bufferViews": {
        "bufferView_buffer_Cube.007_0": {
            "buffer": "buffer_combined",
            "byteLength": 16448,
            "byteOffset": 0,
            "target": 34962
        },
        "bufferView_buffer_Cube.007_1": {
            "buffer": "buffer_combined",
            "byteLength": 1668,
            "byteOffset": 16448,
            "target": 34963
        },
        "bufferView_buffer_Cube.007_2": {
            "buffer": "buffer_combined",
            "byteLength": 96,
            "byteOffset": 18116,
            "target": 34963
        }
    },
    "buffers": {
        "buffer_combined": {
            "byteLength": 18212,
            "type": "arraybuffer",
            "uri": "data:text/plain;base64,"
        }
    },
    "extensions": {
        "KHR_materials_common": {
            "lights": {}
        }
    },
    "extensionsUsed": [
        "KHR_materials_common"
    ],
    "images": {
        "image_PortalFrame.png": {
            "uri": "PortalFrame.png"
        }
    },
    "materials": {
        "material_Portal Glow": {
            "extensions": {
                "KHR_materials_common": {
                    "technique": "PHONG",
                    "values": {
                        "ambient": [
                            1.0,
                            1.0,
                            1.0,
                            1.0
                        ],
                        "diffuse": "texture_PortalFrame",
                        "doubleSided": false,
                        "emission": [
                            0.0,
                            0.0,
                            0.0,
                            1.0
                        ],
                        "shininess": 50,
                        "specular": [
                            0.5,
                            0.5,
                            0.5,
                            1.0
                        ],
                        "transparency": 1.0,
                        "transparent": false
                    }
                }
            },
            "name": "Portal Glow"
        },
        "material_Portal Stone": {
            "extensions": {
                "KHR_materials_common": {
                    "technique": "PHONG",
                    "values": {
                        "ambient": [
                            1.0,
                            1.0,
                            1.0,
                            1.0
                        ],
                        "diffuse": "texture_PortalFrame",
                        "doubleSided": false,
                        "emission": [
                            0.0,
                            0.0,
                            0.0,
                            1.0
                        ],
                        "shininess": 50,
                        "specular": [
                            0.5,
                            0.5,
                            0.5,
                            1.0
                        ],
                        "transparency": 1.0,
                        "transparent": false
                    }
                }
            },
            "name": "Portal Stone"
        }
    },
    "meshes": {
        "mesh_Cube.007": {
            "name": "Cube.007",
            "primitives": [
                {
                    "attributes": {
                        "NORMAL": "accessor_buffer_Cube.007_1",
                        "POSITION": "accessor_buffer_Cube.007_0",
                        "TEXCOORD_0": "accessor_buffer_Cube.007_2"
                    },
                    "indices": "accessor_buffer_Cube.007_3",
                    "material": "material_Portal Stone",
                    "mode": 4
                },
                {
                    "attributes": {
                        "NORMAL": "accessor_buffer_Cube.007_1",
                        "POSITION": "accessor_buffer_Cube.007_0",
                        "TEXCOORD_0": "accessor_buffer_Cube.007_2"
                    },
                    "indices": "accessor_buffer_Cube.007_4",
                    "material": "material_Portal Glow",
                    "mode": 4
                }
            ]
        }
    },
    "nodes": {
        "node_Frame": {
            "children": [],
            "matrix": [
                1.0,
                0.0,
                0.0,
                0.0,
                0.0,
                1.0,
                0.0,
                0.0,
                0.0,
                0.0,
                1.0,
                0.0,
                0.0,
                0.0,
                0.0,
                1.0
            ],
            "meshes": [
                "mesh_Cube.007"
            ],
            "name": "Frame"
        },
        "node_scene_Scene_root": {
            "children": [
                "node_Frame"
            ],
            "matrix": [
                1.0,
                0.0,
                0.0,
                0.0,
                0.0,
                0.0,
                -1.0,
                0.0,
                0.0,
                1.0,
                0.0,
                0.0,
                0.0,
                0.0,
                0.0,
                1.0
            ],
            "name": "node_scene_Scene_root"
        }
    },
    "samplers": {
        "sampler_default": {}
    },
    "scene": "scene_Scene",
    "scenes": {
        "scene_Scene": {
            "extras": {
                "active_camera": null,
                "background_color": [
                    0.05087608844041824,
                    0.05087608844041824,
                    0.05087608844041824
                ],
                "frames_per_second": 24
            },
            "name": "Scene",
            "nodes": [
                "node_scene_Scene_root"
            ]
        }
    },
    "textures": {
        "texture_PortalFrame": {
            "format": 6408,
            "internalFormat": 6408,
            "sampler": "sampler_default",
            "source": "image_PortalFrame.png"
        }
    }
}
