{
    "accessors": {
        "accessor_buffer_Merged_Meshes1_0": {
            "bufferView": "bufferView_buffer_Merged_Meshes1_0",
            "byteOffset": 0,
            "byteStride": 12,
            "componentType": 5126,
            "count": 16878,
            "max": [
                15.110390663146973,
                14.942927360534668,
                7.208348274230957
            ],
            "min": [
                -14.839872360229492,
                -14.955808639526367,
                -0.7427783012390137
            ],
            "type": "VEC3"
        },
        "accessor_buffer_Merged_Meshes1_1": {
            "bufferView": "bufferView_buffer_Merged_Meshes1_0",
            "byteOffset": 202536,
            "byteStride": 12,
            "componentType": 5126,
            "count": 16878,
            "max": [
                0.9893068075180054,
                0.9972380995750427,
                1.0000001192092896
            ],
            "min": [
                -0.9892709255218506,
                -0.9992417693138123,
                -0.9999829530715942
            ],
            "type": "VEC3"
        },
        "accessor_buffer_Merged_Meshes1_2": {
            "bufferView": "bufferView_buffer_Merged_Meshes1_0",
            "byteOffset": 405072,
            "byteStride": 8,
            "componentType": 5126,
            "count": 16878,
            "max": [
                0.9995935559272766,
                0.9995931328157894
            ],
            "min": [
                0.0004064649110659957,
                0.000406801700592041
            ],
            "type": "VEC2"
        },
        "accessor_buffer_Merged_Meshes1_3": {
            "bufferView": "bufferView_buffer_Merged_Meshes1_1",
            "byteOffset": 0,
            "byteStride": 2,
            "componentType": 5123,
            "count": 70554,
            "max": [
                16877
            ],
            "min": [
                0
            ],
            "type": "SCALAR"
        }
    },
    "asset": {
        "profile": {
            "api": "WebGL",
            "version": "1.0.3"
        },
        "version": "1.0"
    },
    "bufferViews": {
        "bufferView_buffer_Merged_Meshes1_0": {
            "buffer": "buffer_combined",
            "byteLength": 540096,
            "byteOffset": 0,
            "target": 34962
        },
        "bufferView_buffer_Merged_Meshes1_1": {
            "buffer": "buffer_combined",
            "byteLength": 141108,
            "byteOffset": 540096,
            "target": 34963
        }
    },
    "buffers": {
        "buffer_combined": {
            "byteLength": 681204,
            "type": "arraybuffer",
            "uri": "data:text/plain;base64,"
        }
    },
    "extensions": {
        "KHR_materials_common": {
            "lights": {}
        }
    },
    "extensionsUsed": [
        "KHR_materials_common"
    ],
    "images": {
        "image_land5": {
            "uri": "Landscape.jpg"
        }
    },
    "materials": {
        "material_Material": {
            "extensions": {
                "KHR_materials_common": {
                    "technique": "PHONG",
                    "values": {
                        "ambient": [
                            1.0,
                            1.0,
                            1.0,
                            1.0
                        ],
                        "diffuse": "texture_Land",
                        "doubleSided": false,
                        "emission": [
                            0.0,
                            0.0,
                            0.0,
                            1.0
                        ],
                        "shininess": 50,
                        "specular": [
                            0.5,
                            0.5,
                            0.5,
                            1.0
                        ],
                        "transparency": 1.0,
                        "transparent": false
                    }
                }
            },
            "name": "Material"
        }
    },
    "meshes": {
        "mesh_Merged_Meshes1": {
            "name": "Merged_Meshes1",
            "primitives": [
                {
                    "attributes": {
                        "NORMAL": "accessor_buffer_Merged_Meshes1_1",
                        "POSITION": "accessor_buffer_Merged_Meshes1_0",
                        "TEXCOORD_0": "accessor_buffer_Merged_Meshes1_2"
                    },
                    "indices": "accessor_buffer_Merged_Meshes1_3",
                    "material": "material_Material",
                    "mode": 4
                }
            ]
        }
    },
    "nodes": {
        "node_Merged_Meshes1": {
            "children": [],
            "matrix": [
                1.0,
                0.0,
                0.0,
                0.0,
                0.0,
                1.0,
                0.0,
                0.0,
                0.0,
                0.0,
                1.0,
                0.0,
                0.0,
                0.0,
                0.0,
                1.0
            ],
            "meshes": [
                "mesh_Merged_Meshes1"
            ],
            "name": "Merged_Meshes1"
        },
        "node_scene_Landscape_root": {
            "children": [
                "node_Merged_Meshes1"
            ],
            "matrix": [
                1.0,
                0.0,
                0.0,
                0.0,
                0.0,
                0.0,
                -1.0,
                0.0,
                0.0,
                1.0,
                0.0,
                0.0,
                0.0,
                0.0,
                0.0,
                1.0
            ],
            "name": "node_scene_Landscape_root"
        }
    },
    "samplers": {
        "sampler_default": {}
    },
    "scene": "scene_Landscape",
    "scenes": {
        "scene_Landscape": {
            "extras": {
                "active_camera": null,
                "background_color": [
                    0.20000000298023224,
                    0.20000000298023224,
                    0.20000000298023224
                ],
                "frames_per_second": 29
            },
            "name": "Landscape",
            "nodes": [
                "node_scene_Landscape_root"
            ]
        }
    },
    "textures": {
        "texture_Land": {
            "format": 6408,
            "internalFormat": 6408,
            "sampler": "sampler_default",
            "source": "image_land5"
        }
    }
}
