# Blender v2.78 (sub 0) OBJ File: 'Cube Test.blend'
# www.blender.org
mtllib Bar.mtl
o Cylinder.002_Cylinder.006
v -0.024305 0.099782 -0.231615
v -0.024305 0.081308 -0.231615
v 0.021348 0.099782 -0.231906
v 0.021348 0.081308 -0.231906
v 0.066180 0.099782 -0.223285
v 0.066180 0.081308 -0.223285
v 0.108469 0.099782 -0.206084
v 0.108469 0.081308 -0.206084
v 0.146590 0.099782 -0.180963
v 0.146590 0.081308 -0.180963
v 0.179078 0.099782 -0.148887
v 0.179078 0.081308 -0.148887
v 0.205245 0.099782 -0.106763
v 0.205245 0.081308 -0.106763
v 0.206590 0.099782 0.104136
v 0.206590 0.081308 0.104136
v 0.180963 0.099782 0.146590
v 0.180963 0.081308 0.146590
v 0.148887 0.099782 0.179078
v 0.148887 0.081308 0.179078
v 0.111090 0.099782 0.204683
v 0.111090 0.081308 0.204683
v 0.069024 0.099782 0.222423
v 0.069024 0.081308 0.222423
v 0.024305 0.099782 0.231615
v 0.024305 0.081308 0.231615
v -0.021348 0.099782 0.231906
v -0.021348 0.081308 0.231906
v -0.066180 0.099782 0.223285
v -0.066180 0.081308 0.223285
v -0.108470 0.099782 0.206084
v -0.108470 0.081308 0.206084
v -0.146590 0.099782 0.180962
v -0.146590 0.081308 0.180962
v -0.179078 0.099782 0.148887
v -0.179078 0.081308 0.148887
v -0.204683 0.099782 0.111090
v -0.204683 0.081308 0.111090
v -0.222423 0.099782 0.069024
v -0.222423 0.081308 0.069024
v -0.231615 0.099782 0.024305
v -0.231615 0.081308 0.024305
v -0.231906 0.099782 -0.021348
v -0.231906 0.081308 -0.021348
v -0.223285 0.099782 -0.066181
v -0.223285 0.081308 -0.066181
v -0.206084 0.099782 -0.108470
v -0.206084 0.081308 -0.108470
v -0.180962 0.099782 -0.146590
v -0.180962 0.081308 -0.146590
v -0.148887 0.099782 -0.179078
v -0.148887 0.081308 -0.179078
v -0.111090 0.099782 -0.204683
v -0.111090 0.081308 -0.204683
v -0.069023 0.099782 -0.222423
v -0.069023 0.081308 -0.222423
v -0.018938 0.099782 -0.180469
v -0.018938 0.081308 -0.180469
v 0.016634 0.099782 -0.180696
v 0.016634 0.081308 -0.180696
v 0.051567 0.099782 -0.173980
v 0.051567 0.081308 -0.173980
v 0.084517 0.099782 -0.160577
v 0.084517 0.081308 -0.160577
v 0.114220 0.099782 -0.141003
v 0.114220 0.081308 -0.141003
v 0.139534 0.099782 -0.116010
v 0.139534 0.081308 -0.116010
v 0.162377 0.099782 -0.081231
v 0.162377 0.081308 -0.081231
v 0.163400 0.099782 0.079153
v 0.163400 0.081308 0.079153
v 0.141003 0.099782 0.114220
v 0.141003 0.081308 0.114220
v 0.116010 0.099782 0.139534
v 0.116010 0.081308 0.139534
v 0.086559 0.099782 0.159485
v 0.086559 0.081308 0.159485
v 0.053782 0.099782 0.173307
v 0.053782 0.081308 0.173307
v 0.018938 0.099782 0.180470
v 0.018938 0.081308 0.180470
v -0.016635 0.099782 0.180696
v -0.016635 0.081308 0.180696
v -0.051567 0.099782 0.173980
v -0.051567 0.081308 0.173980
v -0.084517 0.099782 0.160577
v -0.084517 0.081308 0.160577
v -0.114221 0.099782 0.141003
v -0.114221 0.081308 0.141003
v -0.139534 0.099782 0.116010
v -0.139534 0.081308 0.116010
v -0.159485 0.099782 0.086559
v -0.159485 0.081308 0.086559
v -0.173307 0.099782 0.053782
v -0.173307 0.081308 0.053782
v -0.180470 0.099782 0.018938
v -0.180470 0.081308 0.018938
v -0.180696 0.099782 -0.016635
v -0.180696 0.081308 -0.016635
v -0.173979 0.099782 -0.051567
v -0.173979 0.081308 -0.051567
v -0.160576 0.099782 -0.084517
v -0.160576 0.081308 -0.084517
v -0.141003 0.099782 -0.114221
v -0.141003 0.081308 -0.114221
v -0.116010 0.099782 -0.139534
v -0.116010 0.081308 -0.139534
v -0.086559 0.099782 -0.159485
v -0.086559 0.081308 -0.159485
v -0.053782 0.099782 -0.173307
v -0.053782 0.081308 -0.173307
v -0.023672 0.001196 -0.225586
v -0.023672 0.114243 -0.225586
v 0.020792 0.001196 -0.225869
v 0.020792 0.114243 -0.225869
v 0.064458 0.001196 -0.217473
v 0.064458 0.114243 -0.217473
v 0.105646 0.001196 -0.200719
v 0.105646 0.114243 -0.200719
v 0.142774 0.001196 -0.176252
v 0.142774 0.114243 -0.176252
v 0.174416 0.001196 -0.145011
v 0.174416 0.114243 -0.145011
v 0.199355 0.001196 -0.108198
v 0.199355 0.114243 -0.108198
v 0.200719 0.001196 0.105646
v 0.200719 0.114243 0.105646
v 0.176252 0.001196 0.142774
v 0.176252 0.114243 0.142774
v 0.145012 0.001196 0.174416
v 0.145012 0.114243 0.174416
v 0.108198 0.001196 0.199355
v 0.108198 0.114243 0.199355
v 0.067227 0.001196 0.216633
v 0.067227 0.114243 0.216633
v 0.023672 0.001196 0.225586
v 0.023672 0.114243 0.225586
v -0.020792 0.001196 0.225869
v -0.020792 0.114243 0.225869
v -0.064458 0.001196 0.217473
v -0.064458 0.114243 0.217473
v -0.105646 0.001196 0.200719
v -0.105646 0.114243 0.200719
v -0.142775 0.001196 0.176252
v -0.142775 0.114243 0.176252
v -0.174416 0.001196 0.145011
v -0.174416 0.114243 0.145011
v -0.199355 0.001196 0.108198
v -0.199355 0.114243 0.108198
v -0.216633 0.001196 0.067227
v -0.216633 0.114243 0.067227
v -0.225586 0.001196 0.023672
v -0.225586 0.114243 0.023672
v -0.225869 0.001196 -0.020792
v -0.225869 0.114243 -0.020792
v -0.217473 0.001196 -0.064458
v -0.217473 0.114243 -0.064458
v -0.200719 0.001196 -0.105646
v -0.200719 0.114243 -0.105646
v -0.176252 0.001196 -0.142775
v -0.176252 0.114243 -0.142775
v -0.145011 0.001196 -0.174416
v -0.145011 0.114243 -0.174416
v -0.108198 0.001196 -0.199355
v -0.108198 0.114243 -0.199355
v -0.067227 0.001196 -0.216633
v -0.067227 0.114243 -0.216633
v -0.018938 0.001196 -0.180469
v -0.018938 0.114243 -0.180469
v 0.016634 0.001196 -0.180696
v 0.016634 0.114243 -0.180696
v 0.051567 0.001196 -0.173980
v 0.051567 0.114243 -0.173980
v 0.084517 0.001196 -0.160577
v 0.084517 0.114243 -0.160577
v 0.114220 0.001196 -0.141003
v 0.114220 0.114243 -0.141003
v 0.139534 0.001196 -0.116010
v 0.139534 0.114243 -0.116010
v 0.159485 0.001196 -0.086559
v 0.159485 0.114243 -0.086559
v 0.160577 0.001196 0.084517
v 0.160577 0.114243 0.084517
v 0.141003 0.001196 0.114220
v 0.141003 0.114243 0.114220
v 0.116010 0.001196 0.139534
v 0.116010 0.114243 0.139534
v 0.086559 0.001196 0.159485
v 0.086559 0.114243 0.159485
v 0.053782 0.001196 0.173307
v 0.053782 0.114243 0.173307
v 0.018938 0.001196 0.180470
v 0.018938 0.114243 0.180470
v -0.016635 0.001196 0.180696
v -0.016635 0.114243 0.180696
v -0.051567 0.001196 0.173980
v -0.051567 0.114243 0.173980
v -0.084517 0.001196 0.160576
v -0.084517 0.114243 0.160576
v -0.114221 0.001196 0.141003
v -0.114221 0.114243 0.141003
v -0.139534 0.001196 0.116010
v -0.139534 0.114243 0.116010
v -0.159485 0.001196 0.086559
v -0.159485 0.114243 0.086559
v -0.173307 0.001196 0.053782
v -0.173307 0.114243 0.053782
v -0.180470 0.001196 0.018938
v -0.180470 0.114243 0.018938
v -0.180696 0.001196 -0.016635
v -0.180696 0.114243 -0.016635
v -0.173979 0.001196 -0.051567
v -0.173979 0.114243 -0.051567
v -0.160576 0.001196 -0.084517
v -0.160576 0.114243 -0.084517
v -0.141003 0.001196 -0.114221
v -0.141003 0.114243 -0.114221
v -0.116010 0.001196 -0.139534
v -0.116010 0.114243 -0.139534
v -0.086559 0.001196 -0.159485
v -0.086559 0.114243 -0.159485
v -0.053782 0.001196 -0.173307
v -0.053782 0.114243 -0.173307
vt 0.3695 0.2373
vt 0.0464 0.2374
vt 0.0472 0.2035
vt 0.3685 0.2036
vt 0.0475 0.1695
vt 0.3677 0.1694
vt 0.0499 0.1354
vt 0.3659 0.1354
vt 0.0547 0.1013
vt 0.3610 0.1020
vt 0.0621 0.0681
vt 0.3539 0.0696
vt 0.0705 0.0317
vt 0.3447 0.0394
vt 0.3447 0.9549
vt 0.0659 0.9421
vt 0.0596 0.9114
vt 0.3563 0.9163
vt 0.0533 0.8798
vt 0.3655 0.8828
vt 0.0503 0.8466
vt 0.3704 0.8483
vt 0.0485 0.8125
vt 0.3722 0.8135
vt 0.0477 0.7779
vt 0.3728 0.7784
vt 0.0468 0.7435
vt 0.3733 0.7436
vt 0.0463 0.7096
vt 0.3733 0.7093
vt 0.0466 0.6758
vt 0.3733 0.6754
vt 0.0469 0.6417
vt 0.3724 0.6415
vt 0.0466 0.6077
vt 0.3723 0.6074
vt 0.0463 0.5741
vt 0.3721 0.5736
vt 0.0466 0.5406
vt 0.3720 0.5401
vt 0.0469 0.5067
vt 0.3712 0.5065
vt 0.0465 0.4728
vt 0.3712 0.4726
vt 0.0462 0.4393
vt 0.3710 0.4389
vt 0.0464 0.4059
vt 0.3710 0.4055
vt 0.0467 0.3720
vt 0.3702 0.3719
vt 0.0464 0.3381
vt 0.3701 0.3380
vt 0.0462 0.3046
vt 0.3699 0.3043
vt 0.0467 0.2711
vt 0.3696 0.2708
vt 0.0392 0.0001
vt 0.3752 0.0001
vt 0.3791 0.9999
vt 0.0357 0.9718
vt 0.4148 0.2033
vt 0.4125 0.2377
vt 0.0030 0.2375
vt 0.0013 0.2033
vt 0.4139 0.1680
vt 0.0024 0.1687
vt 0.4127 0.1325
vt 0.0008 0.1321
vt 0.4137 0.0919
vt 0.0008 0.0907
vt 0.4035 0.0500
vt 0.0119 0.0483
vt 0.4152 0.9423
vt 0.0111 0.9267
vt 0.4193 0.8923
vt 0.0078 0.8864
vt 0.4183 0.8513
vt 0.0040 0.8504
vt 0.4198 0.8151
vt 0.0017 0.8147
vt 0.4211 0.7787
vt 0.0001 0.7787
vt 0.4193 0.7429
vt 0.0018 0.7432
vt 0.4176 0.7085
vt 0.0035 0.7095
vt 0.4164 0.6751
vt 0.0024 0.6761
vt 0.4178 0.6411
vt 0.0012 0.6416
vt 0.4165 0.6068
vt 0.0027 0.6072
vt 0.4155 0.5732
vt 0.0040 0.5741
vt 0.4146 0.5401
vt 0.0027 0.5410
vt 0.4163 0.5063
vt 0.0013 0.5067
vt 0.4153 0.4721
vt 0.0027 0.4724
vt 0.4143 0.4386
vt 0.0040 0.4394
vt 0.4136 0.4056
vt 0.0027 0.4063
vt 0.4153 0.3718
vt 0.0012 0.3721
vt 0.4144 0.3376
vt 0.0025 0.3378
vt 0.4135 0.3039
vt 0.0036 0.3047
vt 0.4129 0.2706
vt 0.0021 0.2712
vt 0.0000 0.0000
vt 1.0000 0.0000
vt 1.0000 1.0000
vt 0.0000 1.0000
vt 0.0000 0.0000
vt 1.0000 0.0000
vt 1.0000 1.0000
vt 0.0000 1.0000
vt 0.0000 0.0000
vt 1.0000 0.0000
vt 1.0000 1.0000
vt 0.0000 1.0000
vt 0.0000 0.0000
vt 1.0000 0.0000
vt 1.0000 1.0000
vt 0.0000 1.0000
vt 0.0000 0.0000
vt 1.0000 0.0000
vt 1.0000 1.0000
vt 0.0000 1.0000
vt 0.0000 0.0000
vt 1.0000 0.0000
vt 1.0000 1.0000
vt 0.0000 1.0000
vt 0.0000 0.0000
vt 1.0000 0.0000
vt 1.0000 1.0000
vt 0.0000 1.0000
vt 0.0000 0.0000
vt 1.0000 0.0000
vt 1.0000 1.0000
vt 0.0000 1.0000
vt 0.0000 0.0000
vt 1.0000 0.0000
vt 1.0000 1.0000
vt 0.0000 1.0000
vt 0.0000 0.0000
vt 1.0000 0.0000
vt 1.0000 1.0000
vt 0.0000 1.0000
vt 0.0000 0.0000
vt 1.0000 0.0000
vt 1.0000 1.0000
vt 0.0000 1.0000
vt 0.0000 0.0000
vt 1.0000 0.0000
vt 1.0000 1.0000
vt 0.0000 1.0000
vt 0.0000 0.0000
vt 1.0000 0.0000
vt 1.0000 1.0000
vt 0.0000 1.0000
vt 0.0000 0.0000
vt 1.0000 0.0000
vt 1.0000 1.0000
vt 0.0000 1.0000
vt 0.0000 0.0000
vt 1.0000 0.0000
vt 1.0000 1.0000
vt 0.0000 1.0000
vt 0.0000 0.0000
vt 1.0000 0.0000
vt 1.0000 1.0000
vt 0.0000 1.0000
vt 0.0000 0.0000
vt 1.0000 0.0000
vt 1.0000 1.0000
vt 0.0000 1.0000
vt 0.0000 0.0000
vt 1.0000 0.0000
vt 1.0000 1.0000
vt 0.0000 1.0000
vt 0.0000 0.0000
vt 1.0000 0.0000
vt 1.0000 1.0000
vt 0.0000 1.0000
vt 0.0000 0.0000
vt 1.0000 0.0000
vt 1.0000 1.0000
vt 0.0000 1.0000
vt 0.0000 0.0000
vt 1.0000 0.0000
vt 1.0000 1.0000
vt 0.0000 1.0000
vt 0.0000 0.0000
vt 1.0000 0.0000
vt 1.0000 1.0000
vt 0.0000 1.0000
vt 0.0000 0.0000
vt 1.0000 0.0000
vt 1.0000 1.0000
vt 0.0000 1.0000
vt 0.0000 0.0000
vt 1.0000 0.0000
vt 1.0000 1.0000
vt 0.0000 1.0000
vt 0.0000 0.0000
vt 1.0000 0.0000
vt 1.0000 1.0000
vt 0.0000 1.0000
vt 0.0000 0.0000
vt 1.0000 0.0000
vt 1.0000 1.0000
vt 0.0000 1.0000
vt 0.0000 0.0000
vt 1.0000 0.0000
vt 1.0000 1.0000
vt 0.0000 1.0000
vt 0.0000 0.0000
vt 1.0000 0.0000
vt 1.0000 1.0000
vt 0.0000 1.0000
vt 0.0000 0.0000
vt 1.0000 0.0000
vt 1.0000 1.0000
vt 0.0000 1.0000
vt 0.0000 0.0000
vt 1.0000 0.0000
vt 1.0000 1.0000
vt 0.0000 1.0000
vt 0.0000 0.0000
vt 1.0000 0.0000
vt 1.0000 1.0000
vt 0.0000 1.0000
vt 0.0000 0.0000
vt 1.0000 0.0000
vt 1.0000 1.0000
vt 0.0000 1.0000
vt 0.0000 0.0000
vt 1.0000 0.0000
vt 1.0000 1.0000
vt 0.0000 1.0000
vt 0.0000 0.0000
vt 1.0000 0.0000
vt 0.0000 1.0000
vt 1.0000 0.0000
vt 1.0000 1.0000
vt 0.0000 1.0000
vt 0.0000 0.0000
vt 1.0000 0.0000
vt 1.0000 1.0000
vt 0.0000 1.0000
vt 0.0000 0.0000
vt 1.0000 0.0000
vt 1.0000 1.0000
vt 0.0000 1.0000
vt 0.0000 0.0000
vt 1.0000 0.0000
vt 1.0000 1.0000
vt 0.0000 1.0000
vt 0.0000 0.0000
vt 1.0000 0.0000
vt 1.0000 1.0000
vt 0.0000 1.0000
vt 0.0000 0.0000
vt 1.0000 0.0000
vt 1.0000 1.0000
vt 0.0000 1.0000
vt 0.0000 0.0000
vt 1.0000 0.0000
vt 1.0000 1.0000
vt 0.0000 1.0000
vt 0.0000 0.0000
vt 1.0000 0.0000
vt 1.0000 1.0000
vt 0.0000 1.0000
vt 0.0000 0.0000
vt 1.0000 0.0000
vt 1.0000 1.0000
vt 0.0000 1.0000
vt 0.0000 0.0000
vt 1.0000 0.0000
vt 1.0000 1.0000
vt 0.0000 1.0000
vt 0.0000 0.0000
vt 1.0000 0.0000
vt 1.0000 1.0000
vt 0.0000 1.0000
vt 0.0000 0.0000
vt 1.0000 0.0000
vt 1.0000 1.0000
vt 0.0000 1.0000
vt 0.0000 0.0000
vt 1.0000 0.0000
vt 1.0000 1.0000
vt 0.0000 1.0000
vt 0.0000 0.0000
vt 1.0000 0.0000
vt 1.0000 1.0000
vt 0.0000 1.0000
vt 0.0000 0.0000
vt 1.0000 0.0000
vt 1.0000 1.0000
vt 0.0000 1.0000
vt 0.0000 0.0000
vt 1.0000 0.0000
vt 1.0000 1.0000
vt 0.0000 1.0000
vt 0.0000 0.0000
vt 1.0000 0.0000
vt 1.0000 1.0000
vt 0.0000 1.0000
vt 0.0000 0.0000
vt 1.0000 0.0000
vt 1.0000 1.0000
vt 0.0000 1.0000
vt 0.0000 0.0000
vt 1.0000 0.0000
vt 1.0000 1.0000
vt 0.0000 1.0000
vt 0.0000 0.0000
vt 1.0000 0.0000
vt 1.0000 1.0000
vt 0.0000 1.0000
vt 0.0000 0.0000
vt 1.0000 0.0000
vt 1.0000 1.0000
vt 0.0000 1.0000
vt 0.0000 0.0000
vt 1.0000 0.0000
vt 1.0000 1.0000
vt 0.0000 1.0000
vt 1.0000 0.0000
vt 1.0000 1.0000
vt 0.0000 1.0000
vt 0.0000 0.0000
vt 1.0000 0.0000
vt 1.0000 1.0000
vt 0.0000 1.0000
vt 0.0000 0.0000
vt 1.0000 0.0000
vt 1.0000 1.0000
vt 0.0000 1.0000
vt 0.0000 0.0000
vt 1.0000 0.0000
vt 1.0000 1.0000
vt 0.0000 1.0000
vt 0.0000 0.0000
vt 1.0000 0.0000
vt 1.0000 1.0000
vt 0.0000 1.0000
vt 0.0000 0.0000
vt 1.0000 0.0000
vt 1.0000 1.0000
vt 0.0000 1.0000
vt 0.0000 0.0000
vt 1.0000 0.0000
vt 1.0000 0.0000
vt 1.0000 1.0000
vt 0.0000 1.0000
vt 0.0000 0.0000
vt 1.0000 0.0000
vt 1.0000 1.0000
vt 0.0000 1.0000
vt 0.0000 0.0000
vt 1.0000 0.0000
vt 1.0000 1.0000
vt 0.0000 1.0000
vt 0.0000 0.0000
vt 1.0000 0.0000
vt 1.0000 1.0000
vt 0.0000 1.0000
vt 0.0000 0.0000
vt 1.0000 0.0000
vt 1.0000 1.0000
vt 0.0000 1.0000
vt 0.0000 0.0000
vt 1.0000 0.0000
vt 1.0000 1.0000
vt 0.0000 1.0000
vt 0.0000 0.0000
vt 1.0000 0.0000
vt 1.0000 1.0000
vt 0.0000 1.0000
vt 0.0000 0.0000
vt 1.0000 0.0000
vt 1.0000 1.0000
vt 0.0000 1.0000
vt 0.0000 0.0000
vt 1.0000 0.0000
vt 1.0000 1.0000
vt 0.0000 1.0000
vt 0.0000 0.0000
vt 1.0000 0.0000
vt 1.0000 1.0000
vt 0.0000 1.0000
vt 0.0000 0.0000
vt 1.0000 0.0000
vt 1.0000 1.0000
vt 0.0000 1.0000
vt 0.0000 0.0000
vt 1.0000 0.0000
vt 1.0000 1.0000
vt 0.0000 1.0000
vt 0.0000 0.0000
vt 1.0000 0.0000
vt 1.0000 1.0000
vt 0.0000 1.0000
vt 0.0000 0.0000
vt 1.0000 0.0000
vt 1.0000 1.0000
vt 0.0000 1.0000
vt 0.0000 0.0000
vt 1.0000 0.0000
vt 1.0000 1.0000
vt 0.0000 1.0000
vt 0.0000 0.0000
vt 1.0000 0.0000
vt 1.0000 1.0000
vt 0.0000 1.0000
vt 0.0000 0.0000
vt 1.0000 0.0000
vt 1.0000 1.0000
vt 0.0000 1.0000
vt 0.0000 0.0000
vt 1.0000 0.0000
vt 1.0000 1.0000
vt 0.0000 1.0000
vt 0.0000 0.0000
vt 1.0000 0.0000
vt 1.0000 1.0000
vt 0.0000 1.0000
vt 0.0000 0.0000
vt 1.0000 0.0000
vt 1.0000 1.0000
vt 0.0000 1.0000
vt 0.0000 0.0000
vt 1.0000 0.0000
vt 1.0000 1.0000
vt 0.0000 1.0000
vt 0.0000 0.0000
vn 0.0064 0.0000 1.0000
vn -0.1888 0.0000 0.9820
vn -0.3768 0.0000 0.9263
vn -0.5503 0.0000 0.8350
vn -0.7026 0.0000 0.7116
vn -0.8494 0.0000 0.5277
vn -0.8561 0.0000 -0.5168
vn -0.7116 0.0000 -0.7026
vn -0.5609 0.0000 -0.8279
vn -0.3886 0.0000 -0.9214
vn -0.2013 0.0000 -0.9795
vn -0.0064 0.0000 -1.0000
vn 0.1888 0.0000 -0.9820
vn 0.3768 0.0000 -0.9263
vn 0.5503 0.0000 -0.8350
vn 0.7026 0.0000 -0.7116
vn 0.8279 0.0000 -0.5609
vn 0.9214 0.0000 -0.3886
vn 0.9795 0.0000 -0.2013
vn 1.0000 0.0000 -0.0064
vn 0.9820 0.0000 0.1888
vn 0.9263 0.0000 0.3768
vn 0.8350 0.0000 0.5503
vn 0.7116 0.0000 0.7026
vn 0.5609 0.0000 0.8279
vn 0.3886 0.0000 0.9214
vn 0.2013 0.0000 0.9795
vn -0.5117 0.0000 -0.8592
vn -0.5007 0.0000 0.8656
vn 0.0000 -1.0000 0.0000
vn 0.0000 1.0000 -0.0000
vn -0.8279 0.0000 0.5609
vn -0.8350 0.0000 -0.5503
vn 0.5502 0.0000 -0.8350
vn -0.4770 0.0000 -0.8789
vn -0.4658 0.0000 0.8849
vn 0.8350 0.0000 0.5502
vn 0.2014 0.0000 0.9795
vn -0.5502 0.0000 0.8350
vn -0.9214 0.0000 0.3886
vn -0.9795 0.0000 0.2014
vn -1.0000 0.0000 0.0064
vn -0.9820 0.0000 -0.1888
vn -0.9263 0.0000 -0.3768
vn -0.8350 0.0000 -0.5502
usemtl Material.008
s off
f 1/1/1 2/2/1 4/3/1 3/4/1
f 3/4/2 4/3/2 6/5/2 5/6/2
f 5/6/3 6/5/3 8/7/3 7/8/3
f 7/8/4 8/7/4 10/9/4 9/10/4
f 9/10/5 10/9/5 12/11/5 11/12/5
f 11/12/6 12/11/6 14/13/6 13/14/6
f 15/15/7 16/16/7 18/17/7 17/18/7
f 17/18/8 18/17/8 20/19/8 19/20/8
f 19/20/9 20/19/9 22/21/9 21/22/9
f 21/22/10 22/21/10 24/23/10 23/24/10
f 23/24/11 24/23/11 26/25/11 25/26/11
f 25/26/12 26/25/12 28/27/12 27/28/12
f 27/28/13 28/27/13 30/29/13 29/30/13
f 29/30/14 30/29/14 32/31/14 31/32/14
f 31/32/15 32/31/15 34/33/15 33/34/15
f 33/34/16 34/33/16 36/35/16 35/36/16
f 35/36/17 36/35/17 38/37/17 37/38/17
f 37/38/18 38/37/18 40/39/18 39/40/18
f 39/40/19 40/39/19 42/41/19 41/42/19
f 41/42/20 42/41/20 44/43/20 43/44/20
f 43/44/21 44/43/21 46/45/21 45/46/21
f 45/46/22 46/45/22 48/47/22 47/48/22
f 47/48/23 48/47/23 50/49/23 49/50/23
f 49/50/24 50/49/24 52/51/24 51/52/24
f 51/52/25 52/51/25 54/53/25 53/54/25
f 53/54/26 54/53/26 56/55/26 55/56/26
f 55/56/27 56/55/27 2/2/27 1/1/27
f 13/14/28 14/13/28 70/57/28 69/58/28
f 15/15/29 71/59/29 72/60/29 16/16/29
f 1/1/30 3/4/30 59/61/30 57/62/30
f 4/3/31 2/2/31 58/63/31 60/64/31
f 3/4/30 5/6/30 61/65/30 59/61/30
f 6/5/31 4/3/31 60/64/31 62/66/31
f 5/6/30 7/8/30 63/67/30 61/65/30
f 8/7/31 6/5/31 62/66/31 64/68/31
f 7/8/30 9/10/30 65/69/30 63/67/30
f 10/9/31 8/7/31 64/68/31 66/70/31
f 9/10/30 11/12/30 67/71/30 65/69/30
f 12/11/31 10/9/31 66/70/31 68/72/31
f 11/12/30 13/14/30 69/58/30 67/71/30
f 14/13/31 12/11/31 68/72/31 70/57/31
f 15/15/30 17/18/30 73/73/30 71/59/30
f 18/17/31 16/16/31 72/60/31 74/74/31
f 17/18/30 19/20/30 75/75/30 73/73/30
f 20/19/31 18/17/31 74/74/31 76/76/31
f 19/20/30 21/22/30 77/77/30 75/75/30
f 22/21/31 20/19/31 76/76/31 78/78/31
f 21/22/30 23/24/30 79/79/30 77/77/30
f 24/23/31 22/21/31 78/78/31 80/80/31
f 23/24/30 25/26/30 81/81/30 79/79/30
f 26/25/31 24/23/31 80/80/31 82/82/31
f 25/26/30 27/28/30 83/83/30 81/81/30
f 28/27/31 26/25/31 82/82/31 84/84/31
f 27/28/30 29/30/30 85/85/30 83/83/30
f 30/29/31 28/27/31 84/84/31 86/86/31
f 29/30/30 31/32/30 87/87/30 85/85/30
f 32/31/31 30/29/31 86/86/31 88/88/31
f 31/32/30 33/34/30 89/89/30 87/87/30
f 34/33/31 32/31/31 88/88/31 90/90/31
f 33/34/30 35/36/30 91/91/30 89/89/30
f 36/35/31 34/33/31 90/90/31 92/92/31
f 35/36/30 37/38/30 93/93/30 91/91/30
f 38/37/31 36/35/31 92/92/31 94/94/31
f 37/38/30 39/40/30 95/95/30 93/93/30
f 40/39/31 38/37/31 94/94/31 96/96/31
f 39/40/30 41/42/30 97/97/30 95/95/30
f 42/41/31 40/39/31 96/96/31 98/98/31
f 41/42/30 43/44/30 99/99/30 97/97/30
f 44/43/31 42/41/31 98/98/31 100/100/31
f 43/44/30 45/46/30 101/101/30 99/99/30
f 46/45/31 44/43/31 100/100/31 102/102/31
f 45/46/30 47/48/30 103/103/30 101/101/30
f 48/47/31 46/45/31 102/102/31 104/104/31
f 47/48/30 49/50/30 105/105/30 103/103/30
f 50/49/31 48/47/31 104/104/31 106/106/31
f 49/50/30 51/52/30 107/107/30 105/105/30
f 52/51/31 50/49/31 106/106/31 108/108/31
f 51/52/30 53/54/30 109/109/30 107/107/30
f 54/53/31 52/51/31 108/108/31 110/110/31
f 53/54/30 55/56/30 111/111/30 109/109/30
f 56/55/31 54/53/31 110/110/31 112/112/31
f 55/56/30 1/1/30 57/62/30 111/111/30
f 2/2/31 56/55/31 112/112/31 58/63/31
f 113/113/1 115/114/1 116/115/1 114/116/1
f 115/117/2 117/118/2 118/119/2 116/120/2
f 117/121/3 119/122/3 120/123/3 118/124/3
f 119/125/4 121/126/4 122/127/4 120/128/4
f 121/129/5 123/130/5 124/131/5 122/132/5
f 123/133/32 125/134/32 126/135/32 124/136/32
f 127/137/33 129/138/33 130/139/33 128/140/33
f 129/141/8 131/142/8 132/143/8 130/144/8
f 131/145/9 133/146/9 134/147/9 132/148/9
f 133/149/10 135/150/10 136/151/10 134/152/10
f 135/153/11 137/154/11 138/155/11 136/156/11
f 137/157/12 139/158/12 140/159/12 138/160/12
f 139/161/13 141/162/13 142/163/13 140/164/13
f 141/165/14 143/166/14 144/167/14 142/168/14
f 143/169/15 145/170/15 146/171/15 144/172/15
f 145/173/16 147/174/16 148/175/16 146/176/16
f 147/177/17 149/178/17 150/179/17 148/180/17
f 149/181/18 151/182/18 152/183/18 150/184/18
f 151/185/19 153/186/19 154/187/19 152/188/19
f 153/189/20 155/190/20 156/191/20 154/192/20
f 155/193/21 157/194/21 158/195/21 156/196/21
f 157/197/22 159/198/22 160/199/22 158/200/22
f 159/201/23 161/202/23 162/203/23 160/204/23
f 161/205/24 163/206/24 164/207/24 162/208/24
f 163/209/25 165/210/25 166/211/25 164/212/25
f 165/213/26 167/214/26 168/215/26 166/216/26
f 167/217/27 113/218/27 114/219/27 168/220/27
f 169/221/12 170/222/12 172/223/12 171/224/12
f 171/225/13 172/226/13 174/227/13 173/228/13
f 173/229/14 174/230/14 176/231/14 175/232/14
f 175/233/34 176/234/34 178/235/34 177/236/34
f 177/237/16 178/238/16 180/239/16 179/240/16
f 179/241/17 180/242/17 182/243/17 181/244/17
f 125/245/35 181/246/35 182/243/35 126/247/35
f 127/137/36 128/248/36 184/249/36 183/250/36
f 183/251/37 184/252/37 186/253/37 185/254/37
f 185/255/24 186/256/24 188/257/24 187/258/24
f 187/259/25 188/260/25 190/261/25 189/262/25
f 189/263/26 190/264/26 192/265/26 191/266/26
f 191/267/38 192/268/38 194/269/38 193/270/38
f 193/271/1 194/272/1 196/273/1 195/274/1
f 195/275/2 196/276/2 198/277/2 197/278/2
f 197/279/3 198/280/3 200/281/3 199/282/3
f 199/283/39 200/284/39 202/285/39 201/286/39
f 201/287/5 202/288/5 204/289/5 203/290/5
f 203/291/32 204/292/32 206/293/32 205/294/32
f 205/295/40 206/296/40 208/297/40 207/298/40
f 207/299/41 208/300/41 210/301/41 209/302/41
f 209/303/42 210/304/42 212/305/42 211/306/42
f 211/307/43 212/308/43 214/309/43 213/310/43
f 213/311/44 214/312/44 216/313/44 215/314/44
f 215/315/45 216/316/45 218/317/45 217/318/45
f 217/319/8 218/320/8 220/321/8 219/322/8
f 219/323/9 220/324/9 222/325/9 221/326/9
f 221/327/10 222/328/10 224/329/10 223/330/10
f 223/331/11 224/332/11 170/333/11 169/334/11
f 113/113/31 169/335/31 171/336/31 115/337/31
f 116/338/30 172/226/30 170/333/30 114/116/30
f 115/117/31 171/339/31 173/340/31 117/341/31
f 118/342/30 174/230/30 172/223/30 116/120/30
f 117/121/31 173/343/31 175/344/31 119/345/31
f 120/346/30 176/234/30 174/227/30 118/124/30
f 119/125/31 175/347/31 177/348/31 121/349/31
f 122/350/30 178/238/30 176/231/30 120/128/30
f 121/129/31 177/351/31 179/352/31 123/353/31
f 124/354/30 180/242/30 178/235/30 122/132/30
f 123/133/31 179/355/31 181/356/31 125/357/31
f 126/358/30 182/359/30 180/239/30 124/136/30
f 127/137/31 183/360/31 185/361/31 129/362/31
f 130/363/30 186/256/30 184/249/30 128/140/30
f 129/141/31 185/364/31 187/365/31 131/366/31
f 132/367/30 188/260/30 186/253/30 130/144/30
f 131/145/31 187/368/31 189/369/31 133/370/31
f 134/371/30 190/264/30 188/257/30 132/148/30
f 133/149/31 189/372/31 191/373/31 135/374/31
f 136/375/30 192/268/30 190/261/30 134/152/30
f 135/153/31 191/376/31 193/377/31 137/378/31
f 138/379/30 194/272/30 192/265/30 136/156/30
f 137/157/31 193/380/31 195/381/31 139/382/31
f 140/383/30 196/276/30 194/269/30 138/160/30
f 139/161/31 195/384/31 197/385/31 141/386/31
f 142/387/30 198/280/30 196/273/30 140/164/30
f 141/165/31 197/388/31 199/389/31 143/390/31
f 144/391/30 200/284/30 198/277/30 142/168/30
f 143/169/31 199/392/31 201/393/31 145/394/31
f 146/395/30 202/288/30 200/281/30 144/172/30
f 145/173/31 201/396/31 203/397/31 147/398/31
f 148/399/30 204/292/30 202/285/30 146/176/30
f 147/177/31 203/400/31 205/401/31 149/402/31
f 150/403/30 206/296/30 204/289/30 148/180/30
f 149/181/31 205/404/31 207/405/31 151/406/31
f 152/407/30 208/300/30 206/293/30 150/184/30
f 151/185/31 207/408/31 209/409/31 153/410/31
f 154/411/30 210/304/30 208/297/30 152/188/30
f 153/189/31 209/412/31 211/413/31 155/414/31
f 156/415/30 212/308/30 210/301/30 154/192/30
f 155/193/31 211/416/31 213/417/31 157/418/31
f 158/419/30 214/312/30 212/305/30 156/196/30
f 157/197/31 213/420/31 215/421/31 159/422/31
f 160/423/30 216/316/30 214/309/30 158/200/30
f 159/201/31 215/424/31 217/425/31 161/426/31
f 162/427/30 218/320/30 216/313/30 160/204/30
f 161/205/31 217/428/31 219/429/31 163/430/31
f 164/431/30 220/324/30 218/317/30 162/208/30
f 163/209/31 219/432/31 221/433/31 165/434/31
f 166/435/30 222/328/30 220/321/30 164/212/30
f 165/213/31 221/436/31 223/437/31 167/438/31
f 168/439/30 224/332/30 222/325/30 166/216/30
f 167/217/31 223/440/31 169/441/31 113/442/31
f 114/443/30 170/222/30 224/329/30 168/220/30
