# Blender v2.78 (sub 0) OBJ File: 'Hub.blend'
# www.blender.org
mtllib Room.mtl
o Cylinder_Cylinder.002
v 0.000000 0.000000 -1.000000
v 0.000000 2.000000 -1.000000
v 0.309017 0.000000 -0.951057
v 0.309017 2.000000 -0.951057
v 0.587785 0.000000 -0.809017
v 0.587785 2.000000 -0.809017
v 0.809017 0.000000 -0.587785
v 0.809017 2.000000 -0.587785
v 0.951057 0.000000 -0.309017
v 0.951057 2.000000 -0.309017
v 1.000000 0.000000 0.000000
v 1.000000 2.000000 0.000000
v 0.951056 0.000000 0.309017
v 0.951056 2.000000 0.309017
v 0.809017 0.000000 0.587785
v 0.809017 2.000000 0.587785
v 0.587785 0.000000 0.809017
v 0.587785 2.000000 0.809017
v 0.309017 0.000000 0.951057
v 0.309017 2.000000 0.951057
v -0.000000 0.000000 1.000000
v -0.000000 2.000000 1.000000
v -0.309017 0.000000 0.951056
v -0.309017 2.000000 0.951056
v -0.587786 0.000000 0.809017
v -0.587786 2.000000 0.809017
v -0.809017 0.000000 0.587785
v -0.809017 2.000000 0.587785
v -0.951057 0.000000 0.309016
v -0.951057 2.000000 0.309016
v -1.000000 0.000000 -0.000001
v -1.000000 2.000000 -0.000001
v -0.951056 0.000000 -0.309018
v -0.951056 2.000000 -0.309018
v -0.809016 0.000000 -0.587786
v -0.809016 2.000000 -0.587786
v -0.587784 0.000000 -0.809018
v -0.587784 2.000000 -0.809018
v -0.309016 0.000000 -0.951057
v -0.309016 2.000000 -0.951057
vt 0.5641 0.5000
vt 0.5022 0.5000
vt 0.5022 0.0000
vt 0.5641 0.0000
vt 0.4495 0.5000
vt 0.4495 0.0000
vt 0.4112 0.5000
vt 0.4112 0.0000
vt 0.4639 0.5000
vt 0.4639 1.0000
vt 0.4112 1.0000
vt 0.5258 0.5000
vt 0.5258 1.0000
vt 0.5910 0.5000
vt 0.5910 1.0000
vt 0.6529 0.5000
vt 0.6529 1.0000
vt 0.7056 0.5000
vt 0.7056 1.0000
vt 1.0000 1.0000
vt 0.9473 1.0000
vt 0.9473 0.5000
vt 1.0000 0.5000
vt 0.8854 1.0000
vt 0.8854 0.5000
vt 0.8202 1.0000
vt 0.8202 0.5000
vt 0.7583 1.0000
vt 0.7583 0.5000
vt 0.7056 1.0000
vt 0.7056 0.5000
vt 0.9856 0.5000
vt 0.9236 0.5000
vt 0.9236 0.0000
vt 0.9856 0.0000
vt 0.8585 0.5000
vt 0.8585 0.0000
vt 0.7966 0.5000
vt 0.7966 0.0000
vt 0.7439 0.5000
vt 0.7439 0.0000
vt 0.6912 0.5000
vt 0.6912 0.0000
vt 0.0201 0.3604
vt 0.0000 0.2860
vt 0.0000 0.2078
vt 0.0201 0.1334
vt 0.0584 0.0701
vt 0.1111 0.0242
vt 0.1730 0.0000
vt 0.2382 0.0000
vt 0.3001 0.0242
vt 0.3528 0.0701
vt 0.3911 0.1334
vt 0.4112 0.2078
vt 0.4112 0.2860
vt 0.3911 0.3604
vt 0.3528 0.4237
vt 0.3001 0.4697
vt 0.2382 0.4938
vt 0.1730 0.4938
vt 0.1111 0.4697
vt 0.0584 0.4237
vt 0.6293 0.5000
vt 0.6293 0.0000
vt 0.1111 0.5180
vt 0.1730 0.4938
vt 0.2382 0.4938
vt 0.3001 0.5180
vt 0.3528 0.5640
vt 0.3911 0.6273
vt 0.4112 0.7017
vt 0.4112 0.7799
vt 0.3911 0.8543
vt 0.3528 0.9175
vt 0.3001 0.9635
vt 0.2382 0.9877
vt 0.1730 0.9877
vt 0.1111 0.9635
vt 0.0584 0.9175
vt 0.0201 0.8543
vt 0.0000 0.7799
vt 0.0000 0.7017
vt 0.0201 0.6273
vt 0.0584 0.5640
vn -0.1564 0.0000 0.9877
vn -0.4540 0.0000 0.8910
vn -0.7071 0.0000 0.7071
vn -0.8910 0.0000 0.4540
vn -0.9877 0.0000 0.1564
vn -0.9877 0.0000 -0.1564
vn -0.8910 0.0000 -0.4540
vn -0.7071 0.0000 -0.7071
vn -0.4540 0.0000 -0.8910
vn -0.1564 0.0000 -0.9877
vn 0.1564 0.0000 -0.9877
vn 0.4540 0.0000 -0.8910
vn 0.7071 0.0000 -0.7071
vn 0.8910 0.0000 -0.4540
vn 0.9877 0.0000 -0.1564
vn 0.9877 0.0000 0.1564
vn 0.8910 0.0000 0.4540
vn 0.7071 0.0000 0.7071
vn 0.0000 -1.0000 0.0000
vn 0.4540 0.0000 0.8910
vn 0.1564 0.0000 0.9877
vn 0.0000 1.0000 0.0000
usemtl Material.008
s off
f 1/1/1 3/2/1 4/3/1 2/4/1
f 3/2/2 5/5/2 6/6/2 4/3/2
f 5/5/3 7/7/3 8/8/3 6/6/3
f 7/7/4 9/9/4 10/10/4 8/11/4
f 9/9/5 11/12/5 12/13/5 10/10/5
f 11/12/6 13/14/6 14/15/6 12/13/6
f 13/14/7 15/16/7 16/17/7 14/15/7
f 15/16/8 17/18/8 18/19/8 16/17/8
f 17/20/9 19/21/9 20/22/9 18/23/9
f 19/21/10 21/24/10 22/25/10 20/22/10
f 21/24/11 23/26/11 24/27/11 22/25/11
f 23/26/12 25/28/12 26/29/12 24/27/12
f 25/28/13 27/30/13 28/31/13 26/29/13
f 27/32/14 29/33/14 30/34/14 28/35/14
f 29/33/15 31/36/15 32/37/15 30/34/15
f 31/36/16 33/38/16 34/39/16 32/37/16
f 33/38/17 35/40/17 36/41/17 34/39/17
f 35/40/18 37/42/18 38/43/18 36/41/18
f 4/44/19 6/45/19 8/46/19 10/47/19 12/48/19 14/49/19 16/50/19 18/51/19 20/52/19 22/53/19 24/54/19 26/55/19 28/56/19 30/57/19 32/58/19 34/59/19 36/60/19 38/61/19 40/62/19 2/63/19
f 37/42/20 39/64/20 40/65/20 38/43/20
f 39/64/21 1/1/21 2/4/21 40/65/21
f 1/66/22 39/67/22 37/68/22 35/69/22 33/70/22 31/71/22 29/72/22 27/73/22 25/74/22 23/75/22 21/76/22 19/77/22 17/78/22 15/79/22 13/80/22 11/81/22 9/82/22 7/83/22 5/84/22 3/85/22
