{
    "accessors" : [
        {
            "bufferView" : 0, 
            "componentType" : 5123, 
            "count" : 2028, 
            "max" : [
                2027
            ], 
            "min" : [
                0
            ], 
            "type" : "SCALAR"
        }, 
        {
            "bufferView" : 1, 
            "componentType" : 5126, 
            "count" : 2028, 
            "max" : [
                0.9999994039535522, 
                1.0, 
                0.9999989867210388
            ], 
            "min" : [
                -0.999999463558197, 
                -1.0, 
                -0.9999996423721313
            ], 
            "type" : "VEC3"
        }, 
        {
            "bufferView" : 2, 
            "componentType" : 5126, 
            "count" : 2028, 
            "max" : [
                0.9997380971908569, 
                0.9912985563278198, 
                0.9831057190895081
            ], 
            "min" : [
                -0.9997566342353821, 
                -0.991298496723175, 
                -0.9975793957710266
            ], 
            "type" : "VEC3"
        }, 
        {
            "bufferView" : 3, 
            "componentType" : 5126, 
            "count" : 2028, 
            "max" : [
                0.9999987483024597, 
                0.9942046999931335, 
                0.9914449453353882, 
                1.0
            ], 
            "min" : [
                -0.9914450645446777, 
                -0.9915889501571655, 
                -0.999882698059082, 
                1.0
            ], 
            "type" : "VEC4"
        }, 
        {
            "bufferView" : 4, 
            "componentType" : 5126, 
            "count" : 2028, 
            "max" : [
                0.9935287833213806, 
                0.998365817242302
            ], 
            "min" : [
                0.0016341827576979995, 
                0.0016341805458068848
            ], 
            "type" : "VEC2"
        }, 
        {
            "bufferView" : 5, 
            "componentType" : 5121, 
            "count" : 138, 
            "max" : [
                137
            ], 
            "min" : [
                0
            ], 
            "type" : "SCALAR"
        }, 
        {
            "bufferView" : 6, 
            "componentType" : 5126, 
            "count" : 138, 
            "max" : [
                0.21564695239067078, 
                0.5481120944023132, 
                -0.556194007396698
            ], 
            "min" : [
                -0.15934398770332336, 
                -0.19356751441955566, 
                -0.812025249004364
            ], 
            "type" : "VEC3"
        }, 
        {
            "bufferView" : 7, 
            "componentType" : 5126, 
            "count" : 138, 
            "max" : [
                0.7718634605407715, 
                0.9707503318786621, 
                -0.19569362699985504
            ], 
            "min" : [
                -0.7714764475822449, 
                -0.8646607995033264, 
                -0.9873453974723816
            ], 
            "type" : "VEC3"
        }, 
        {
            "bufferView" : 8, 
            "componentType" : 5126, 
            "count" : 138, 
            "max" : [
                0.8463352918624878, 
                0.966927170753479, 
                0.49525803327560425, 
                1.0
            ], 
            "min" : [
                -0.9980145692825317, 
                -0.8157336115837097, 
                -0.9806197881698608, 
                1.0
            ], 
            "type" : "VEC4"
        }, 
        {
            "bufferView" : 9, 
            "componentType" : 5126, 
            "count" : 138, 
            "max" : [
                0.9830219149589539, 
                0.9323560297489166
            ], 
            "min" : [
                0.1968088299036026, 
                0.025738775730133057
            ], 
            "type" : "VEC2"
        }
    ], 
    "asset" : {
        "generator" : "Khronos Blender glTF 2.0 exporter", 
        "version" : "2.0"
    }, 
    "bufferViews" : [
        {
            "buffer" : 0, 
            "byteLength" : 4056, 
            "byteOffset" : 0, 
            "target" : 34963
        }, 
        {
            "buffer" : 0, 
            "byteLength" : 24336, 
            "byteOffset" : 4056, 
            "target" : 34962
        }, 
        {
            "buffer" : 0, 
            "byteLength" : 24336, 
            "byteOffset" : 28392, 
            "target" : 34962
        }, 
        {
            "buffer" : 0, 
            "byteLength" : 32448, 
            "byteOffset" : 52728, 
            "target" : 34962
        }, 
        {
            "buffer" : 0, 
            "byteLength" : 16224, 
            "byteOffset" : 85176, 
            "target" : 34962
        }, 
        {
            "buffer" : 0, 
            "byteLength" : 138, 
            "byteOffset" : 101400, 
            "target" : 34963
        }, 
        {
            "buffer" : 0, 
            "byteLength" : 1656, 
            "byteOffset" : 101540, 
            "target" : 34962
        }, 
        {
            "buffer" : 0, 
            "byteLength" : 1656, 
            "byteOffset" : 103196, 
            "target" : 34962
        }, 
        {
            "buffer" : 0, 
            "byteLength" : 2208, 
            "byteOffset" : 104852, 
            "target" : 34962
        }, 
        {
            "buffer" : 0, 
            "byteLength" : 1104, 
            "byteOffset" : 107060, 
            "target" : 34962
        }
    ], 
    "buffers" : [
        {
            "byteLength" : 108164, 
            "uri" : "data:application/octet-stream;base64,"
        }
    ], 
    "extensionsRequired" : [
        "KHR_materials_cmnBlinnPhong"
    ], 
    "extensionsUsed" : [
        "KHR_materials_cmnBlinnPhong"
    ], 
    "images" : [
        {
            "uri" : "BowlingBallColor.png"
        }, 
        {
            "uri" : "BowlingBallFingers.png"
        }
    ], 
    "materials" : [
        {
            "emissiveFactor" : [
                0.0, 
                0.0, 
                0.0
            ], 
            "extensions" : {
                "KHR_materials_cmnBlinnPhong" : {
                    "diffuseFactor" : [
                        0.05943067162380622, 
                        0.19833412465951028, 
                        0.640000066757203, 
                        1.0
                    ], 
                    "diffuseTexture" : {
                        "index" : 0
                    }, 
                    "shininessFactor" : 12.298039215686275, 
                    "specularFactor" : [
                        0.5, 
                        0.5, 
                        0.5
                    ]
                }
            }, 
            "name" : "BowlingBallColor"
        }, 
        {
            "emissiveFactor" : [
                0.0, 
                0.0, 
                0.0
            ], 
            "extensions" : {
                "KHR_materials_cmnBlinnPhong" : {
                    "diffuseFactor" : [
                        0.800000011920929, 
                        0.800000011920929, 
                        0.800000011920929, 
                        1.0
                    ], 
                    "diffuseTexture" : {
                        "index" : 1
                    }, 
                    "shininessFactor" : 12.298039215686275, 
                    "specularFactor" : [
                        0.5, 
                        0.5, 
                        0.5
                    ]
                }
            }, 
            "name" : "BowlingBallFingers"
        }
    ], 
    "meshes" : [
        {
            "name" : "Sphere.001", 
            "primitives" : [
                {
                    "attributes" : {
                        "NORMAL" : 2, 
                        "POSITION" : 1, 
                        "TANGENT" : 3, 
                        "TEXCOORD_0" : 4
                    }, 
                    "indices" : 0, 
                    "material" : 0
                }, 
                {
                    "attributes" : {
                        "NORMAL" : 7, 
                        "POSITION" : 6, 
                        "TANGENT" : 8, 
                        "TEXCOORD_0" : 9
                    }, 
                    "indices" : 5, 
                    "material" : 1
                }
            ]
        }
    ], 
    "nodes" : [
        {
            "mesh" : 0, 
            "name" : "Sphere"
        }
    ], 
    "samplers" : [
        {}
    ], 
    "scene" : 0, 
    "scenes" : [
        {
            "name" : "Scene", 
            "nodes" : [
                0
            ]
        }
    ], 
    "textures" : [
        {
            "sampler" : 0, 
            "source" : 0
        }, 
        {
            "sampler" : 0, 
            "source" : 1
        }
    ]
}
