{
    "accessors" : [
        {
            "bufferView" : 0, 
            "componentType" : 5123, 
            "count" : 828, 
            "max" : [
                471
            ], 
            "min" : [
                0
            ], 
            "type" : "SCALAR"
        }, 
        {
            "bufferView" : 1, 
            "componentType" : 5126, 
            "count" : 472, 
            "max" : [
                7.005949974060059, 
                5.416667938232422, 
                6.086484909057617
            ], 
            "min" : [
                -7.005949974060059, 
                -5.0, 
                -0.06464001536369324
            ], 
            "type" : "VEC3"
        }, 
        {
            "bufferView" : 2, 
            "componentType" : 5126, 
            "count" : 472, 
            "max" : [
                1.0, 
                1.0, 
                1.0
            ], 
            "min" : [
                -1.0, 
                -1.0, 
                -1.0
            ], 
            "type" : "VEC3"
        }, 
        {
            "bufferView" : 3, 
            "componentType" : 5126, 
            "count" : 472, 
            "max" : [
                0.9984699487686157, 
                0.9985043137567118
            ], 
            "min" : [
                0.0015300136292353272, 
                0.001495659351348877
            ], 
            "type" : "VEC2"
        }
    ], 
    "asset" : {
        "generator" : "Khronos Blender glTF 2.0 exporter", 
        "version" : "2.0"
    }, 
    "bufferViews" : [
        {
            "buffer" : 0, 
            "byteLength" : 1656, 
            "byteOffset" : 0, 
            "target" : 34963
        }, 
        {
            "buffer" : 0, 
            "byteLength" : 5664, 
            "byteOffset" : 1656, 
            "target" : 34962
        }, 
        {
            "buffer" : 0, 
            "byteLength" : 5664, 
            "byteOffset" : 7320, 
            "target" : 34962
        }, 
        {
            "buffer" : 0, 
            "byteLength" : 3776, 
            "byteOffset" : 12984, 
            "target" : 34962
        }
    ], 
    "buffers" : [
        {
            "byteLength" : 16760, 
            "uri" : "data:application/octet-stream;base64,"
        }
    ], 
    "extensionsRequired" : [
        "KHR_materials_cmnBlinnPhong"
    ], 
    "extensionsUsed" : [
        "KHR_materials_cmnBlinnPhong"
    ], 
    "images" : [
        {
            "uri" : "Gutters.png"
        }
    ], 
    "materials" : [
        {
            "emissiveFactor" : [
                0.0, 
                0.0, 
                0.0
            ], 
            "extensions" : {
                "KHR_materials_cmnBlinnPhong" : {
                    "diffuseFactor" : [
                        0.04388887947632192, 
                        0.04388887947632192, 
                        0.04388887947632192, 
                        1.0
                    ], 
                    "diffuseTexture" : {
                        "index" : 0
                    }, 
                    "shininessFactor" : 12.298039215686275, 
                    "specularFactor" : [
                        0.5, 
                        0.5, 
                        0.5
                    ]
                }
            }, 
            "name" : "Gutters"
        }
    ], 
    "meshes" : [
        {
            "name" : "Cylinder.008", 
            "primitives" : [
                {
                    "attributes" : {
                        "NORMAL" : 2, 
                        "POSITION" : 1, 
                        "TEXCOORD_0" : 3
                    }, 
                    "indices" : 0, 
                    "material" : 0
                }
            ]
        }
    ], 
    "nodes" : [
        {
            "mesh" : 0, 
            "name" : "Gutters.001", 
            "rotation" : [
                0.7071068286895752, 
                0.0, 
                -0.0, 
                0.7071068286895752
            ], 
            "scale" : [
                0.24978768825531006, 
                2.4000000953674316, 
                0.25
            ], 
            "translation" : [
                0.0, 
                0.08383999764919281, 
                -0.0
            ]
        }
    ], 
    "samplers" : [
        {}
    ], 
    "scene" : 0, 
    "scenes" : [
        {
            "name" : "Scene", 
            "nodes" : [
                0
            ]
        }
    ], 
    "textures" : [
        {
            "sampler" : 0, 
            "source" : 0
        }
    ]
}
