{
    "accessors": {
        "accessor_buffer_Sphere_0": {
            "bufferView": "bufferView_buffer_Sphere_0",
            "byteOffset": 0,
            "byteStride": 12,
            "componentType": 5126,
            "count": 1984,
            "max": [
                0.9000002145767212,
                0.89999920129776,
                0.8999999761581421
            ],
            "min": [
                -0.8999997973442078,
                -0.900000274181366,
                -0.8999999761581421
            ],
            "type": "VEC3"
        },
        "accessor_buffer_Sphere_1": {
            "bufferView": "bufferView_buffer_Sphere_0",
            "byteOffset": 23808,
            "byteStride": 12,
            "componentType": 5126,
            "count": 1984,
            "max": [
                0.9904382228851318,
                0.9904383420944214,
                0.9951386451721191
            ],
            "min": [
                -0.9904382228851318,
                -0.99043869972229,
                -0.9951385855674744
            ],
            "type": "VEC3"
        },
        "accessor_buffer_Sphere_2": {
            "bufferView": "bufferView_buffer_Sphere_0",
            "byteOffset": 47616,
            "byteStride": 8,
            "componentType": 5126,
            "count": 1984,
            "max": [
                1.4423117637634277,
                1.0046842955052853
            ],
            "min": [
                -0.04019153118133545,
                -0.14111387729644775
            ],
            "type": "VEC2"
        },
        "accessor_buffer_Sphere_3": {
            "bufferView": "bufferView_buffer_Sphere_1",
            "byteOffset": 0,
            "byteStride": 2,
            "componentType": 5123,
            "count": 2880,
            "max": [
                1983
            ],
            "min": [
                0
            ],
            "type": "SCALAR"
        }
    },
    "asset": {
        "profile": {
            "api": "WebGL",
            "version": "1.0.3"
        },
        "version": "1.0"
    },
    "bufferViews": {
        "bufferView_buffer_Sphere_0": {
            "buffer": "buffer_combined",
            "byteLength": 63488,
            "byteOffset": 0,
            "target": 34962
        },
        "bufferView_buffer_Sphere_1": {
            "buffer": "buffer_combined",
            "byteLength": 5760,
            "byteOffset": 63488,
            "target": 34963
        }
    },
    "buffers": {
        "buffer_combined": {
            "byteLength": 69248,
            "type": "arraybuffer",
            "uri": "data:text/plain;base64,"
        }
    },
    "extensions": {
        "KHR_materials_common": {
            "lights": {}
        }
    },
    "extensionsUsed": [
        "KHR_materials_common"
    ],
    "images": {
        "image_CloudMap": {
            "uri": "CloudMap.png"
        }
    },
    "materials": {
        "material_Clouds": {
            "extensions": {
                "KHR_materials_common": {
                    "technique": "PHONG",
                    "values": {
                        "ambient": [
                            1.0,
                            1.0,
                            1.0,
                            1.0
                        ],
                        "diffuse": "texture_Clouds",
                        "doubleSided": false,
                        "emission": [
                            0.0,
                            0.0,
                            0.0,
                            1.0
                        ],
                        "shininess": 50,
                        "specular": [
                            0.5,
                            0.5,
                            0.5,
                            1.0
                        ],
                        "transparency": 1.0,
                        "transparent": true
                    }
                }
            },
            "name": "Clouds"
        }
    },
    "meshes": {
        "mesh_Sphere": {
            "name": "Sphere",
            "primitives": [
                {
                    "attributes": {
                        "NORMAL": "accessor_buffer_Sphere_1",
                        "POSITION": "accessor_buffer_Sphere_0",
                        "TEXCOORD_0": "accessor_buffer_Sphere_2"
                    },
                    "indices": "accessor_buffer_Sphere_3",
                    "material": "material_Clouds",
                    "mode": 4
                }
            ]
        }
    },
    "nodes": {
        "node_CloudSphere": {
            "children": [],
            "matrix": [
                1.0,
                0.0,
                0.0,
                0.0,
                0.0,
                1.0,
                0.0,
                0.0,
                0.0,
                0.0,
                1.0,
                0.0,
                0.0,
                0.0,
                0.0,
                1.0
            ],
            "meshes": [
                "mesh_Sphere"
            ],
            "name": "CloudSphere"
        },
        "node_scene_Scene_root": {
            "children": [
                "node_CloudSphere"
            ],
            "matrix": [
                1.0,
                0.0,
                0.0,
                0.0,
                0.0,
                0.0,
                -1.0,
                0.0,
                0.0,
                1.0,
                0.0,
                0.0,
                0.0,
                0.0,
                0.0,
                1.0
            ],
            "name": "node_scene_Scene_root"
        }
    },
    "samplers": {
        "sampler_default": {}
    },
    "scene": "scene_Scene",
    "scenes": {
        "scene_Scene": {
            "extras": {
                "active_camera": null,
                "background_color": [
                    0.1282392293214798,
                    0.1282392293214798,
                    0.1282392293214798
                ],
                "frames_per_second": 24
            },
            "name": "Scene",
            "nodes": [
                "node_scene_Scene_root"
            ]
        }
    },
    "textures": {
        "texture_Clouds": {
            "format": 6408,
            "internalFormat": 6408,
            "sampler": "sampler_default",
            "source": "image_CloudMap"
        }
    }
}
