{
    "accessors": {
        "accessor_buffer_Sphere.001_0": {
            "bufferView": "bufferView_buffer_Sphere.001_0",
            "byteOffset": 0,
            "byteStride": 12,
            "componentType": 5126,
            "count": 1984,
            "max": [
                1.000000238418579,
                0.9999991655349731,
                1.0
            ],
            "min": [
                -0.9999998211860657,
                -1.0000003576278687,
                -1.0
            ],
            "type": "VEC3"
        },
        "accessor_buffer_Sphere.001_1": {
            "bufferView": "bufferView_buffer_Sphere.001_0",
            "byteOffset": 23808,
            "byteStride": 12,
            "componentType": 5126,
            "count": 1984,
            "max": [
                0.9904382824897766,
                0.9904382824897766,
                0.9951385259628296
            ],
            "min": [
                -0.9904382824897766,
                -0.9904387593269348,
                -0.9951386451721191
            ],
            "type": "VEC3"
        },
        "accessor_buffer_Sphere.001_2": {
            "bufferView": "bufferView_buffer_Sphere.001_0",
            "byteOffset": 47616,
            "byteStride": 8,
            "componentType": 5126,
            "count": 1984,
            "max": [
                0.9979425668716431,
                0.9992512403987348
            ],
            "min": [
                -0.20049449801445007,
                0.0051267147064208984
            ],
            "type": "VEC2"
        },
        "accessor_buffer_Sphere.001_3": {
            "bufferView": "bufferView_buffer_Sphere.001_1",
            "byteOffset": 0,
            "byteStride": 2,
            "componentType": 5123,
            "count": 2880,
            "max": [
                1983
            ],
            "min": [
                0
            ],
            "type": "SCALAR"
        }
    },
    "asset": {
        "profile": {
            "api": "WebGL",
            "version": "1.0.3"
        },
        "version": "1.0"
    },
    "bufferViews": {
        "bufferView_buffer_Sphere.001_0": {
            "buffer": "buffer_combined",
            "byteLength": 63488,
            "byteOffset": 0,
            "target": 34962
        },
        "bufferView_buffer_Sphere.001_1": {
            "buffer": "buffer_combined",
            "byteLength": 5760,
            "byteOffset": 63488,
            "target": 34963
        }
    },
    "buffers": {
        "buffer_combined": {
            "byteLength": 69248,
            "type": "arraybuffer",
            "uri": "data:text/plain;base64,"
        }
    },
    "extensions": {
        "KHR_materials_common": {
            "lights": {}
        }
    },
    "extensionsUsed": [
        "KHR_materials_common"
    ],
    "images": {
        "image_Sky.jpg": {
            "uri": "SkySmall.jpg"
        }
    },
    "materials": {
        "material_SkyTexture": {
            "extensions": {
                "KHR_materials_common": {
                    "technique": "PHONG",
                    "values": {
                        "ambient": [
                            1.0,
                            1.0,
                            1.0,
                            1.0
                        ],
                        "diffuse": "texture_Sky",
                        "doubleSided": false,
                        "emission": [
                            0.0,
                            0.0,
                            0.0,
                            1.0
                        ],
                        "shininess": 50,
                        "specular": [
                            0.5,
                            0.5,
                            0.5,
                            1.0
                        ],
                        "transparency": 1.0,
                        "transparent": false
                    }
                }
            },
            "name": "SkyTexture"
        }
    },
    "meshes": {
        "mesh_Sphere.001": {
            "name": "Sphere.001",
            "primitives": [
                {
                    "attributes": {
                        "NORMAL": "accessor_buffer_Sphere.001_1",
                        "POSITION": "accessor_buffer_Sphere.001_0",
                        "TEXCOORD_0": "accessor_buffer_Sphere.001_2"
                    },
                    "indices": "accessor_buffer_Sphere.001_3",
                    "material": "material_SkyTexture",
                    "mode": 4
                }
            ]
        }
    },
    "nodes": {
        "node_SkySphere": {
            "children": [],
            "matrix": [
                1.0,
                0.0,
                0.0,
                0.0,
                0.0,
                1.0,
                0.0,
                0.0,
                0.0,
                0.0,
                1.0,
                0.0,
                0.0,
                0.0,
                0.0,
                1.0
            ],
            "meshes": [
                "mesh_Sphere.001"
            ],
            "name": "SkySphere"
        },
        "node_scene_Scene_root": {
            "children": [
                "node_SkySphere"
            ],
            "matrix": [
                1.0,
                0.0,
                0.0,
                0.0,
                0.0,
                0.0,
                -1.0,
                0.0,
                0.0,
                1.0,
                0.0,
                0.0,
                0.0,
                0.0,
                0.0,
                1.0
            ],
            "name": "node_scene_Scene_root"
        }
    },
    "samplers": {
        "sampler_default": {}
    },
    "scene": "scene_Scene",
    "scenes": {
        "scene_Scene": {
            "extras": {
                "active_camera": null,
                "background_color": [
                    0.1282392293214798,
                    0.1282392293214798,
                    0.1282392293214798
                ],
                "frames_per_second": 24
            },
            "name": "Scene",
            "nodes": [
                "node_scene_Scene_root"
            ]
        }
    },
    "textures": {
        "texture_Sky": {
            "format": 6408,
            "internalFormat": 6408,
            "sampler": "sampler_default",
            "source": "image_Sky.jpg"
        }
    }
}
