# Blender v2.78 (sub 0) OBJ File: 'Cube Test.blend'
# www.blender.org
mtllib Bar.mtl
o Cylinder.002_Cylinder.006
v -0.024305 0.099782 -0.231615
v -0.024305 0.081308 -0.231615
v 0.021348 0.099782 -0.231906
v 0.021348 0.081308 -0.231906
v 0.066180 0.099782 -0.223285
v 0.066180 0.081308 -0.223285
v 0.108469 0.099782 -0.206084
v 0.108469 0.081308 -0.206084
v 0.146590 0.099782 -0.180963
v 0.146590 0.081308 -0.180963
v 0.179078 0.099782 -0.148887
v 0.179078 0.081308 -0.148887
v 0.205245 0.099782 -0.106763
v 0.205245 0.081308 -0.106763
v 0.206590 0.099782 0.104136
v 0.206590 0.081308 0.104136
v 0.180963 0.099782 0.146590
v 0.180963 0.081308 0.146590
v 0.148887 0.099782 0.179078
v 0.148887 0.081308 0.179078
v 0.111090 0.099782 0.204683
v 0.111090 0.081308 0.204683
v 0.069024 0.099782 0.222423
v 0.069024 0.081308 0.222423
v 0.024305 0.099782 0.231615
v 0.024305 0.081308 0.231615
v -0.021348 0.099782 0.231906
v -0.021348 0.081308 0.231906
v -0.066180 0.099782 0.223285
v -0.066180 0.081308 0.223285
v -0.108470 0.099782 0.206084
v -0.108470 0.081308 0.206084
v -0.146590 0.099782 0.180962
v -0.146590 0.081308 0.180962
v -0.179078 0.099782 0.148887
v -0.179078 0.081308 0.148887
v -0.204683 0.099782 0.111090
v -0.204683 0.081308 0.111090
v -0.222423 0.099782 0.069024
v -0.222423 0.081308 0.069024
v -0.231615 0.099782 0.024305
v -0.231615 0.081308 0.024305
v -0.231906 0.099782 -0.021348
v -0.231906 0.081308 -0.021348
v -0.223285 0.099782 -0.066181
v -0.223285 0.081308 -0.066181
v -0.206084 0.099782 -0.108470
v -0.206084 0.081308 -0.108470
v -0.180962 0.099782 -0.146590
v -0.180962 0.081308 -0.146590
v -0.148887 0.099782 -0.179078
v -0.148887 0.081308 -0.179078
v -0.111090 0.099782 -0.204683
v -0.111090 0.081308 -0.204683
v -0.069023 0.099782 -0.222423
v -0.069023 0.081308 -0.222423
v -0.018938 0.099782 -0.180469
v -0.018938 0.081308 -0.180469
v 0.016634 0.099782 -0.180696
v 0.016634 0.081308 -0.180696
v 0.051567 0.099782 -0.173980
v 0.051567 0.081308 -0.173980
v 0.084517 0.099782 -0.160577
v 0.084517 0.081308 -0.160577
v 0.114220 0.099782 -0.141003
v 0.114220 0.081308 -0.141003
v 0.139534 0.099782 -0.116010
v 0.139534 0.081308 -0.116010
v 0.162377 0.099782 -0.081231
v 0.162377 0.081308 -0.081231
v 0.163400 0.099782 0.079153
v 0.163400 0.081308 0.079153
v 0.141003 0.099782 0.114220
v 0.141003 0.081308 0.114220
v 0.116010 0.099782 0.139534
v 0.116010 0.081308 0.139534
v 0.086559 0.099782 0.159485
v 0.086559 0.081308 0.159485
v 0.053782 0.099782 0.173307
v 0.053782 0.081308 0.173307
v 0.018938 0.099782 0.180470
v 0.018938 0.081308 0.180470
v -0.016635 0.099782 0.180696
v -0.016635 0.081308 0.180696
v -0.051567 0.099782 0.173980
v -0.051567 0.081308 0.173980
v -0.084517 0.099782 0.160577
v -0.084517 0.081308 0.160577
v -0.114221 0.099782 0.141003
v -0.114221 0.081308 0.141003
v -0.139534 0.099782 0.116010
v -0.139534 0.081308 0.116010
v -0.159485 0.099782 0.086559
v -0.159485 0.081308 0.086559
v -0.173307 0.099782 0.053782
v -0.173307 0.081308 0.053782
v -0.180470 0.099782 0.018938
v -0.180470 0.081308 0.018938
v -0.180696 0.099782 -0.016635
v -0.180696 0.081308 -0.016635
v -0.173979 0.099782 -0.051567
v -0.173979 0.081308 -0.051567
v -0.160576 0.099782 -0.084517
v -0.160576 0.081308 -0.084517
v -0.141003 0.099782 -0.114221
v -0.141003 0.081308 -0.114221
v -0.116010 0.099782 -0.139534
v -0.116010 0.081308 -0.139534
v -0.086559 0.099782 -0.159485
v -0.086559 0.081308 -0.159485
v -0.053782 0.099782 -0.173307
v -0.053782 0.081308 -0.173307
v -0.023672 0.001196 -0.225586
v -0.023672 0.114243 -0.225586
v 0.020792 0.001196 -0.225869
v 0.020792 0.114243 -0.225869
v 0.064458 0.001196 -0.217473
v 0.064458 0.114243 -0.217473
v 0.105646 0.001196 -0.200719
v 0.105646 0.114243 -0.200719
v 0.142774 0.001196 -0.176252
v 0.142774 0.114243 -0.176252
v 0.174416 0.001196 -0.145011
v 0.174416 0.114243 -0.145011
v 0.199355 0.001196 -0.108198
v 0.199355 0.114243 -0.108198
v 0.200719 0.001196 0.105646
v 0.200719 0.114243 0.105646
v 0.176252 0.001196 0.142774
v 0.176252 0.114243 0.142774
v 0.145012 0.001196 0.174416
v 0.145012 0.114243 0.174416
v 0.108198 0.001196 0.199355
v 0.108198 0.114243 0.199355
v 0.067227 0.001196 0.216633
v 0.067227 0.114243 0.216633
v 0.023672 0.001196 0.225586
v 0.023672 0.114243 0.225586
v -0.020792 0.001196 0.225869
v -0.020792 0.114243 0.225869
v -0.064458 0.001196 0.217473
v -0.064458 0.114243 0.217473
v -0.105646 0.001196 0.200719
v -0.105646 0.114243 0.200719
v -0.142775 0.001196 0.176252
v -0.142775 0.114243 0.176252
v -0.174416 0.001196 0.145011
v -0.174416 0.114243 0.145011
v -0.199355 0.001196 0.108198
v -0.199355 0.114243 0.108198
v -0.216633 0.001196 0.067227
v -0.216633 0.114243 0.067227
v -0.225586 0.001196 0.023672
v -0.225586 0.114243 0.023672
v -0.225869 0.001196 -0.020792
v -0.225869 0.114243 -0.020792
v -0.217473 0.001196 -0.064458
v -0.217473 0.114243 -0.064458
v -0.200719 0.001196 -0.105646
v -0.200719 0.114243 -0.105646
v -0.176252 0.001196 -0.142775
v -0.176252 0.114243 -0.142775
v -0.145011 0.001196 -0.174416
v -0.145011 0.114243 -0.174416
v -0.108198 0.001196 -0.199355
v -0.108198 0.114243 -0.199355
v -0.067227 0.001196 -0.216633
v -0.067227 0.114243 -0.216633
v -0.018938 0.001196 -0.180469
v -0.018938 0.114243 -0.180469
v 0.016634 0.001196 -0.180696
v 0.016634 0.114243 -0.180696
v 0.051567 0.001196 -0.173980
v 0.051567 0.114243 -0.173980
v 0.084517 0.001196 -0.160577
v 0.084517 0.114243 -0.160577
v 0.114220 0.001196 -0.141003
v 0.114220 0.114243 -0.141003
v 0.139534 0.001196 -0.116010
v 0.139534 0.114243 -0.116010
v 0.159485 0.001196 -0.086559
v 0.159485 0.114243 -0.086559
v 0.160577 0.001196 0.084517
v 0.160577 0.114243 0.084517
v 0.141003 0.001196 0.114220
v 0.141003 0.114243 0.114220
v 0.116010 0.001196 0.139534
v 0.116010 0.114243 0.139534
v 0.086559 0.001196 0.159485
v 0.086559 0.114243 0.159485
v 0.053782 0.001196 0.173307
v 0.053782 0.114243 0.173307
v 0.018938 0.001196 0.180470
v 0.018938 0.114243 0.180470
v -0.016635 0.001196 0.180696
v -0.016635 0.114243 0.180696
v -0.051567 0.001196 0.173980
v -0.051567 0.114243 0.173980
v -0.084517 0.001196 0.160576
v -0.084517 0.114243 0.160576
v -0.114221 0.001196 0.141003
v -0.114221 0.114243 0.141003
v -0.139534 0.001196 0.116010
v -0.139534 0.114243 0.116010
v -0.159485 0.001196 0.086559
v -0.159485 0.114243 0.086559
v -0.173307 0.001196 0.053782
v -0.173307 0.114243 0.053782
v -0.180470 0.001196 0.018938
v -0.180470 0.114243 0.018938
v -0.180696 0.001196 -0.016635
v -0.180696 0.114243 -0.016635
v -0.173979 0.001196 -0.051567
v -0.173979 0.114243 -0.051567
v -0.160576 0.001196 -0.084517
v -0.160576 0.114243 -0.084517
v -0.141003 0.001196 -0.114221
v -0.141003 0.114243 -0.114221
v -0.116010 0.001196 -0.139534
v -0.116010 0.114243 -0.139534
v -0.086559 0.001196 -0.159485
v -0.086559 0.114243 -0.159485
v -0.053782 0.001196 -0.173307
v -0.053782 0.114243 -0.173307
vt 0.9210 0.4942
vt 0.9210 0.6167
vt 0.9066 0.6167
vt 0.9066 0.4942
vt 0.8909 0.6167
vt 0.8909 0.4942
vt 0.8745 0.6167
vt 0.8745 0.4942
vt 0.8582 0.6167
vt 0.8582 0.4942
vt 0.8424 0.6167
vt 0.8424 0.4942
vt 0.8270 0.6167
vt 0.8270 0.4942
vt 0.9438 0.0000
vt 0.9438 0.1225
vt 0.9261 0.1225
vt 0.9261 0.0000
vt 0.9097 0.1225
vt 0.9097 0.0000
vt 0.8940 0.1225
vt 0.8940 0.0000
vt 0.8794 0.1225
vt 0.8794 0.0000
vt 0.8665 0.1225
vt 0.8665 0.0000
vt 0.7090 0.6167
vt 0.7090 0.4942
vt 0.7227 0.4942
vt 0.7227 0.6167
vt 0.7378 0.4942
vt 0.7378 0.6167
vt 0.7540 0.4942
vt 0.7540 0.6167
vt 0.7704 0.4942
vt 0.7704 0.6167
vt 0.7865 0.4942
vt 0.7865 0.6167
vt 0.8017 0.4942
vt 0.8017 0.6167
vt 0.8154 0.4942
vt 0.8154 0.6167
vt 0.8270 0.4942
vt 0.8270 0.6167
vt 0.9685 0.2504
vt 0.9685 0.3729
vt 0.9553 0.3729
vt 0.9553 0.2504
vt 0.9404 0.3729
vt 0.9404 0.2504
vt 0.9244 0.3729
vt 0.9244 0.2504
vt 0.9080 0.3729
vt 0.9080 0.2504
vt 0.8918 0.3729
vt 0.8918 0.2504
vt 0.8763 0.3729
vt 0.8763 0.2504
vt 0.8623 0.3729
vt 0.8623 0.2504
vt 0.9337 0.4942
vt 0.9337 0.6167
vt 0.9014 0.1225
vt 0.9014 0.2450
vt 0.8845 0.2450
vt 0.8845 0.1225
vt 0.8845 0.2450
vt 0.8665 0.2450
vt 0.8665 0.1225
vt 0.8845 0.1225
vt 0.7842 0.0000
vt 0.8006 0.0000
vt 0.7988 0.0138
vt 0.7860 0.0138
vt 0.7749 0.1252
vt 0.7913 0.1252
vt 0.7895 0.1390
vt 0.7767 0.1390
vt 0.8168 0.0024
vt 0.8114 0.0157
vt 0.7588 0.1276
vt 0.7642 0.1409
vt 0.8319 0.0071
vt 0.8232 0.0194
vt 0.7436 0.1323
vt 0.7523 0.1445
vt 0.8456 0.0140
vt 0.8339 0.0247
vt 0.7299 0.1391
vt 0.7417 0.1499
vt 0.8572 0.0227
vt 0.8429 0.0315
vt 0.7183 0.1479
vt 0.7326 0.1567
vt 0.8665 0.0341
vt 0.8511 0.0409
vt 0.7090 0.1593
vt 0.7245 0.1661
vt 0.8665 0.0911
vt 0.8572 0.1025
vt 0.8429 0.0937
vt 0.8511 0.0842
vt 0.7183 0.2277
vt 0.7090 0.2162
vt 0.7245 0.2094
vt 0.7326 0.2189
vt 0.8456 0.1112
vt 0.8339 0.1005
vt 0.7299 0.2364
vt 0.7417 0.2256
vt 0.8319 0.1181
vt 0.8232 0.1058
vt 0.7436 0.2432
vt 0.7523 0.2310
vt 0.8168 0.1228
vt 0.8114 0.1095
vt 0.7588 0.2479
vt 0.7642 0.2347
vt 0.8006 0.1252
vt 0.7988 0.1114
vt 0.7749 0.2504
vt 0.7767 0.2365
vt 0.7842 0.1252
vt 0.7860 0.1114
vt 0.7913 0.2504
vt 0.7895 0.2365
vt 0.7681 0.1228
vt 0.7735 0.1095
vt 0.8075 0.2479
vt 0.8021 0.2347
vt 0.7529 0.1181
vt 0.7616 0.1058
vt 0.8226 0.2432
vt 0.8139 0.2310
vt 0.7392 0.1112
vt 0.7510 0.1005
vt 0.8363 0.2364
vt 0.8246 0.2256
vt 0.7276 0.1025
vt 0.7419 0.0937
vt 0.8479 0.2277
vt 0.8336 0.2189
vt 0.7185 0.0922
vt 0.7348 0.0857
vt 0.8570 0.2174
vt 0.8407 0.2109
vt 0.7122 0.0808
vt 0.7299 0.0768
vt 0.8633 0.2060
vt 0.8456 0.2020
vt 0.7090 0.0688
vt 0.7274 0.0674
vt 0.8665 0.1939
vt 0.8481 0.1926
vt 0.7090 0.0564
vt 0.7274 0.0578
vt 0.8665 0.1816
vt 0.8481 0.1830
vt 0.7122 0.0443
vt 0.7299 0.0484
vt 0.8633 0.1695
vt 0.8456 0.1735
vt 0.7185 0.0329
vt 0.7348 0.0395
vt 0.8570 0.1581
vt 0.8407 0.1647
vt 0.7276 0.0227
vt 0.7419 0.0315
vt 0.8479 0.1479
vt 0.8336 0.1567
vt 0.7392 0.0140
vt 0.7510 0.0247
vt 0.8363 0.1391
vt 0.8246 0.1499
vt 0.7529 0.0071
vt 0.7616 0.0194
vt 0.8226 0.1323
vt 0.8139 0.1445
vt 0.7681 0.0024
vt 0.7735 0.0157
vt 0.8075 0.1276
vt 0.8021 0.1409
vt 0.3091 0.7496
vt 0.2950 0.7496
vt 0.2950 0.0000
vt 0.3091 0.0000
vt 0.2797 0.7496
vt 0.2797 0.0000
vt 0.2638 0.7496
vt 0.2638 0.0000
vt 0.2479 0.7496
vt 0.2479 0.0000
vt 0.2325 0.7496
vt 0.2325 0.0000
vt 0.2184 0.7496
vt 0.2184 0.0000
vt 0.5883 0.7496
vt 0.5724 0.7496
vt 0.5724 0.0000
vt 0.5883 0.0000
vt 0.5564 0.7496
vt 0.5564 0.0000
vt 0.5411 0.7496
vt 0.5411 0.0000
vt 0.5269 0.7496
vt 0.5269 0.0000
vt 0.5144 0.7496
vt 0.5144 0.0000
vt 0.1149 0.7496
vt 0.1016 0.7496
vt 0.1016 0.0000
vt 0.1149 0.0000
vt 0.0868 0.7496
vt 0.0868 0.0000
vt 0.0711 0.7496
vt 0.0711 0.0000
vt 0.0551 0.7496
vt 0.0551 0.0000
vt 0.0394 0.7496
vt 0.0394 0.0000
vt 0.0246 0.7496
vt 0.0246 0.0000
vt 0.0113 0.7496
vt 0.0113 0.0000
vt 0.0000 0.7496
vt 0.0000 0.0000
vt 0.2184 0.7496
vt 0.2055 0.7496
vt 0.2055 0.0000
vt 0.2184 0.0000
vt 0.1910 0.7496
vt 0.1910 0.0000
vt 0.1755 0.7496
vt 0.1755 0.0000
vt 0.1595 0.7496
vt 0.1595 0.0000
vt 0.1437 0.7496
vt 0.1437 0.0000
vt 0.1286 0.7496
vt 0.1286 0.0000
vt 0.1149 0.7496
vt 0.1149 0.0000
vt 0.3215 0.7496
vt 0.3215 0.0000
vt 0.5883 0.7496
vt 0.5883 0.0000
vt 0.5989 0.0000
vt 0.5989 0.7496
vt 0.6108 0.0000
vt 0.6108 0.7496
vt 0.6233 0.0000
vt 0.6233 0.7496
vt 0.6361 0.0000
vt 0.6361 0.7496
vt 0.6487 0.0000
vt 0.6487 0.7496
vt 0.6605 0.0000
vt 0.6605 0.7496
vt 1.0000 1.0000
vt 0.9848 1.0000
vt 0.9848 0.2504
vt 1.0000 0.2504
vt 0.9685 1.0000
vt 0.9685 0.2504
vt 0.9848 0.2504
vt 0.9848 1.0000
vt 0.6605 0.7496
vt 0.6605 0.0000
vt 0.6733 0.0000
vt 0.6733 0.7496
vt 0.6860 0.0000
vt 0.6860 0.7496
vt 0.6980 0.0000
vt 0.6980 0.7496
vt 0.7090 0.0000
vt 0.7090 0.7496
vt 0.3215 0.7496
vt 0.3215 0.0000
vt 0.3313 0.0000
vt 0.3313 0.7496
vt 0.3426 0.0000
vt 0.3426 0.7496
vt 0.3548 0.0000
vt 0.3548 0.7496
vt 0.3676 0.0000
vt 0.3676 0.7496
vt 0.3803 0.0000
vt 0.3803 0.7496
vt 0.3926 0.0000
vt 0.3926 0.7496
vt 0.4039 0.0000
vt 0.4039 0.7496
vt 0.4138 0.0000
vt 0.4138 0.7496
vt 0.4220 0.0000
vt 0.4220 0.7496
vt 0.4318 0.0000
vt 0.4318 0.7496
vt 0.4430 0.0000
vt 0.4430 0.7496
vt 0.4552 0.0000
vt 0.4552 0.7496
vt 0.4679 0.0000
vt 0.4679 0.7496
vt 0.4807 0.0000
vt 0.4807 0.7496
vt 0.4930 0.0000
vt 0.4930 0.7496
vt 0.5044 0.0000
vt 0.5044 0.7496
vt 0.5144 0.0000
vt 0.5144 0.7496
vt 0.7822 0.4942
vt 0.7838 0.4820
vt 0.7966 0.4820
vt 0.7983 0.4942
vt 0.7983 0.2504
vt 0.7966 0.2625
vt 0.7838 0.2625
vt 0.7822 0.2504
vt 0.8092 0.4801
vt 0.8139 0.4918
vt 0.8139 0.2527
vt 0.8092 0.2644
vt 0.8210 0.4764
vt 0.8287 0.4872
vt 0.8287 0.2573
vt 0.8210 0.2681
vt 0.8317 0.4711
vt 0.8420 0.4806
vt 0.8420 0.2640
vt 0.8317 0.2734
vt 0.8407 0.4643
vt 0.8534 0.4721
vt 0.8534 0.2725
vt 0.8407 0.2802
vt 0.8479 0.4563
vt 0.8623 0.4621
vt 0.8623 0.2824
vt 0.8479 0.2882
vt 0.8623 0.4044
vt 0.8479 0.4101
vt 0.8407 0.4021
vt 0.8534 0.3944
vt 0.8534 0.3502
vt 0.8407 0.3424
vt 0.8479 0.3344
vt 0.8623 0.3402
vt 0.8317 0.3953
vt 0.8420 0.3859
vt 0.8420 0.3587
vt 0.8317 0.3492
vt 0.8210 0.3900
vt 0.8287 0.3792
vt 0.8287 0.3653
vt 0.8210 0.3545
vt 0.8092 0.3863
vt 0.8139 0.3746
vt 0.8139 0.3699
vt 0.8092 0.3582
vt 0.7966 0.3845
vt 0.7983 0.3723
vt 0.7983 0.3723
vt 0.7966 0.3601
vt 0.7838 0.3845
vt 0.7822 0.3723
vt 0.7822 0.3723
vt 0.7838 0.3601
vt 0.7713 0.3863
vt 0.7665 0.3746
vt 0.7665 0.3699
vt 0.7713 0.3582
vt 0.7595 0.3900
vt 0.7518 0.3792
vt 0.7518 0.3653
vt 0.7595 0.3545
vt 0.7488 0.3953
vt 0.7384 0.3859
vt 0.7384 0.3587
vt 0.7488 0.3492
vt 0.7398 0.4021
vt 0.7271 0.3944
vt 0.7271 0.3502
vt 0.7398 0.3424
vt 0.7326 0.4101
vt 0.7182 0.4044
vt 0.7182 0.3402
vt 0.7326 0.3344
vt 0.7277 0.4190
vt 0.7121 0.4154
vt 0.7121 0.3291
vt 0.7277 0.3255
vt 0.7252 0.4284
vt 0.7090 0.4272
vt 0.7090 0.3173
vt 0.7252 0.3161
vt 0.7252 0.4380
vt 0.7090 0.4392
vt 0.7090 0.3053
vt 0.7252 0.3065
vt 0.7277 0.4475
vt 0.7121 0.4510
vt 0.7121 0.2935
vt 0.7277 0.2971
vt 0.7326 0.4563
vt 0.7182 0.4621
vt 0.7182 0.2824
vt 0.7326 0.2882
vt 0.7398 0.4643
vt 0.7271 0.4721
vt 0.7271 0.2725
vt 0.7398 0.2802
vt 0.7488 0.4711
vt 0.7384 0.4806
vt 0.7384 0.2640
vt 0.7488 0.2734
vt 0.7595 0.4764
vt 0.7518 0.4872
vt 0.7518 0.2573
vt 0.7595 0.2681
vt 0.7713 0.4801
vt 0.7665 0.4918
vt 0.7665 0.2527
vt 0.7713 0.2644
vn 0.0064 0.0000 1.0000
vn -0.1888 0.0000 0.9820
vn -0.3768 0.0000 0.9263
vn -0.5503 0.0000 0.8350
vn -0.7026 0.0000 0.7116
vn -0.8494 0.0000 0.5277
vn -0.8561 0.0000 -0.5168
vn -0.7116 0.0000 -0.7026
vn -0.5609 0.0000 -0.8279
vn -0.3886 0.0000 -0.9214
vn -0.2013 0.0000 -0.9795
vn -0.0064 0.0000 -1.0000
vn 0.1888 0.0000 -0.9820
vn 0.3768 0.0000 -0.9263
vn 0.5503 0.0000 -0.8350
vn 0.7026 0.0000 -0.7116
vn 0.8279 0.0000 -0.5609
vn 0.9214 0.0000 -0.3886
vn 0.9795 0.0000 -0.2013
vn 1.0000 0.0000 -0.0064
vn 0.9820 0.0000 0.1888
vn 0.9263 0.0000 0.3768
vn 0.8350 0.0000 0.5503
vn 0.7116 0.0000 0.7026
vn 0.5609 0.0000 0.8279
vn 0.3886 0.0000 0.9214
vn 0.2013 0.0000 0.9795
vn -0.5117 0.0000 -0.8592
vn -0.5007 0.0000 0.8656
vn 0.0000 -1.0000 0.0000
vn 0.0000 1.0000 -0.0000
vn -0.8279 0.0000 0.5609
vn -0.8350 0.0000 -0.5503
vn 0.5502 0.0000 -0.8350
vn -0.4770 0.0000 -0.8789
vn -0.4658 0.0000 0.8849
vn 0.8350 0.0000 0.5502
vn 0.2014 0.0000 0.9795
vn -0.5502 0.0000 0.8350
vn -0.9214 0.0000 0.3886
vn -0.9795 0.0000 0.2014
vn -1.0000 0.0000 0.0064
vn -0.9820 0.0000 -0.1888
vn -0.9263 0.0000 -0.3768
vn -0.8350 0.0000 -0.5502
usemtl Material.003
s off
f 1/1/1 2/2/1 4/3/1 3/4/1
f 3/4/2 4/3/2 6/5/2 5/6/2
f 5/6/3 6/5/3 8/7/3 7/8/3
f 7/8/4 8/7/4 10/9/4 9/10/4
f 9/10/5 10/9/5 12/11/5 11/12/5
f 11/12/6 12/11/6 14/13/6 13/14/6
f 15/15/7 16/16/7 18/17/7 17/18/7
f 17/18/8 18/17/8 20/19/8 19/20/8
f 19/20/9 20/19/9 22/21/9 21/22/9
f 21/22/10 22/21/10 24/23/10 23/24/10
f 23/24/11 24/23/11 26/25/11 25/26/11
f 25/27/12 26/28/12 28/29/12 27/30/12
f 27/30/13 28/29/13 30/31/13 29/32/13
f 29/32/14 30/31/14 32/33/14 31/34/14
f 31/34/15 32/33/15 34/35/15 33/36/15
f 33/36/16 34/35/16 36/37/16 35/38/16
f 35/38/17 36/37/17 38/39/17 37/40/17
f 37/40/18 38/39/18 40/41/18 39/42/18
f 39/42/19 40/41/19 42/43/19 41/44/19
f 41/45/20 42/46/20 44/47/20 43/48/20
f 43/48/21 44/47/21 46/49/21 45/50/21
f 45/50/22 46/49/22 48/51/22 47/52/22
f 47/52/23 48/51/23 50/53/23 49/54/23
f 49/54/24 50/53/24 52/55/24 51/56/24
f 51/56/25 52/55/25 54/57/25 53/58/25
f 53/58/26 54/57/26 56/59/26 55/60/26
f 55/61/27 56/62/27 2/2/27 1/1/27
f 13/63/28 14/64/28 70/65/28 69/66/28
f 15/67/29 71/68/29 72/69/29 16/70/29
f 1/71/30 3/72/30 59/73/30 57/74/30
f 4/75/31 2/76/31 58/77/31 60/78/31
f 3/72/30 5/79/30 61/80/30 59/73/30
f 6/81/31 4/75/31 60/78/31 62/82/31
f 5/79/30 7/83/30 63/84/30 61/80/30
f 8/85/31 6/81/31 62/82/31 64/86/31
f 7/83/30 9/87/30 65/88/30 63/84/30
f 10/89/31 8/85/31 64/86/31 66/90/31
f 9/87/30 11/91/30 67/92/30 65/88/30
f 12/93/31 10/89/31 66/90/31 68/94/31
f 11/91/30 13/95/30 69/96/30 67/92/30
f 14/97/31 12/93/31 68/94/31 70/98/31
f 15/99/30 17/100/30 73/101/30 71/102/30
f 18/103/31 16/104/31 72/105/31 74/106/31
f 17/100/30 19/107/30 75/108/30 73/101/30
f 20/109/31 18/103/31 74/106/31 76/110/31
f 19/107/30 21/111/30 77/112/30 75/108/30
f 22/113/31 20/109/31 76/110/31 78/114/31
f 21/111/30 23/115/30 79/116/30 77/112/30
f 24/117/31 22/113/31 78/114/31 80/118/31
f 23/115/30 25/119/30 81/120/30 79/116/30
f 26/121/31 24/117/31 80/118/31 82/122/31
f 25/119/30 27/123/30 83/124/30 81/120/30
f 28/125/31 26/121/31 82/122/31 84/126/31
f 27/123/30 29/127/30 85/128/30 83/124/30
f 30/129/31 28/125/31 84/126/31 86/130/31
f 29/127/30 31/131/30 87/132/30 85/128/30
f 32/133/31 30/129/31 86/130/31 88/134/31
f 31/131/30 33/135/30 89/136/30 87/132/30
f 34/137/31 32/133/31 88/134/31 90/138/31
f 33/135/30 35/139/30 91/140/30 89/136/30
f 36/141/31 34/137/31 90/138/31 92/142/31
f 35/139/30 37/143/30 93/144/30 91/140/30
f 38/145/31 36/141/31 92/142/31 94/146/31
f 37/143/30 39/147/30 95/148/30 93/144/30
f 40/149/31 38/145/31 94/146/31 96/150/31
f 39/147/30 41/151/30 97/152/30 95/148/30
f 42/153/31 40/149/31 96/150/31 98/154/31
f 41/151/30 43/155/30 99/156/30 97/152/30
f 44/157/31 42/153/31 98/154/31 100/158/31
f 43/155/30 45/159/30 101/160/30 99/156/30
f 46/161/31 44/157/31 100/158/31 102/162/31
f 45/159/30 47/163/30 103/164/30 101/160/30
f 48/165/31 46/161/31 102/162/31 104/166/31
f 47/163/30 49/167/30 105/168/30 103/164/30
f 50/169/31 48/165/31 104/166/31 106/170/31
f 49/167/30 51/171/30 107/172/30 105/168/30
f 52/173/31 50/169/31 106/170/31 108/174/31
f 51/171/30 53/175/30 109/176/30 107/172/30
f 54/177/31 52/173/31 108/174/31 110/178/31
f 53/175/30 55/179/30 111/180/30 109/176/30
f 56/181/31 54/177/31 110/178/31 112/182/31
f 55/179/30 1/71/30 57/74/30 111/180/30
f 2/76/31 56/181/31 112/182/31 58/77/31
f 113/183/1 115/184/1 116/185/1 114/186/1
f 115/184/2 117/187/2 118/188/2 116/185/2
f 117/187/3 119/189/3 120/190/3 118/188/3
f 119/189/4 121/191/4 122/192/4 120/190/4
f 121/191/5 123/193/5 124/194/5 122/192/5
f 123/193/32 125/195/32 126/196/32 124/194/32
f 127/197/33 129/198/33 130/199/33 128/200/33
f 129/198/8 131/201/8 132/202/8 130/199/8
f 131/201/9 133/203/9 134/204/9 132/202/9
f 133/203/10 135/205/10 136/206/10 134/204/10
f 135/205/11 137/207/11 138/208/11 136/206/11
f 137/209/12 139/210/12 140/211/12 138/212/12
f 139/210/13 141/213/13 142/214/13 140/211/13
f 141/213/14 143/215/14 144/216/14 142/214/14
f 143/215/15 145/217/15 146/218/15 144/216/15
f 145/217/16 147/219/16 148/220/16 146/218/16
f 147/219/17 149/221/17 150/222/17 148/220/17
f 149/221/18 151/223/18 152/224/18 150/222/18
f 151/223/19 153/225/19 154/226/19 152/224/19
f 153/227/20 155/228/20 156/229/20 154/230/20
f 155/228/21 157/231/21 158/232/21 156/229/21
f 157/231/22 159/233/22 160/234/22 158/232/22
f 159/233/23 161/235/23 162/236/23 160/234/23
f 161/235/24 163/237/24 164/238/24 162/236/24
f 163/237/25 165/239/25 166/240/25 164/238/25
f 165/239/26 167/241/26 168/242/26 166/240/26
f 167/243/27 113/183/27 114/186/27 168/244/27
f 169/245/12 170/246/12 172/247/12 171/248/12
f 171/248/13 172/247/13 174/249/13 173/250/13
f 173/250/14 174/249/14 176/251/14 175/252/14
f 175/252/34 176/251/34 178/253/34 177/254/34
f 177/254/16 178/253/16 180/255/16 179/256/16
f 179/256/17 180/255/17 182/257/17 181/258/17
f 125/259/35 181/260/35 182/261/35 126/262/35
f 127/263/36 128/264/36 184/265/36 183/266/36
f 183/267/37 184/268/37 186/269/37 185/270/37
f 185/270/24 186/269/24 188/271/24 187/272/24
f 187/272/25 188/271/25 190/273/25 189/274/25
f 189/274/26 190/273/26 192/275/26 191/276/26
f 191/277/38 192/278/38 194/279/38 193/280/38
f 193/280/1 194/279/1 196/281/1 195/282/1
f 195/282/2 196/281/2 198/283/2 197/284/2
f 197/284/3 198/283/3 200/285/3 199/286/3
f 199/286/39 200/285/39 202/287/39 201/288/39
f 201/288/5 202/287/5 204/289/5 203/290/5
f 203/290/32 204/289/32 206/291/32 205/292/32
f 205/292/40 206/291/40 208/293/40 207/294/40
f 207/294/41 208/293/41 210/295/41 209/296/41
f 209/296/42 210/295/42 212/297/42 211/298/42
f 211/298/43 212/297/43 214/299/43 213/300/43
f 213/300/44 214/299/44 216/301/44 215/302/44
f 215/302/45 216/301/45 218/303/45 217/304/45
f 217/304/8 218/303/8 220/305/8 219/306/8
f 219/306/9 220/305/9 222/307/9 221/308/9
f 221/308/10 222/307/10 224/309/10 223/310/10
f 223/310/11 224/309/11 170/311/11 169/312/11
f 113/313/31 169/314/31 171/315/31 115/316/31
f 116/317/30 172/318/30 170/319/30 114/320/30
f 115/316/31 171/315/31 173/321/31 117/322/31
f 118/323/30 174/324/30 172/318/30 116/317/30
f 117/322/31 173/321/31 175/325/31 119/326/31
f 120/327/30 176/328/30 174/324/30 118/323/30
f 119/326/31 175/325/31 177/329/31 121/330/31
f 122/331/30 178/332/30 176/328/30 120/327/30
f 121/330/31 177/329/31 179/333/31 123/334/31
f 124/335/30 180/336/30 178/332/30 122/331/30
f 123/334/31 179/333/31 181/337/31 125/338/31
f 126/339/30 182/340/30 180/336/30 124/335/30
f 127/341/31 183/342/31 185/343/31 129/344/31
f 130/345/30 186/346/30 184/347/30 128/348/30
f 129/344/31 185/343/31 187/349/31 131/350/31
f 132/351/30 188/352/30 186/346/30 130/345/30
f 131/350/31 187/349/31 189/353/31 133/354/31
f 134/355/30 190/356/30 188/352/30 132/351/30
f 133/354/31 189/353/31 191/357/31 135/358/31
f 136/359/30 192/360/30 190/356/30 134/355/30
f 135/358/31 191/357/31 193/361/31 137/362/31
f 138/363/30 194/364/30 192/360/30 136/359/30
f 137/362/31 193/361/31 195/365/31 139/366/31
f 140/367/30 196/368/30 194/364/30 138/363/30
f 139/366/31 195/365/31 197/369/31 141/370/31
f 142/371/30 198/372/30 196/368/30 140/367/30
f 141/370/31 197/369/31 199/373/31 143/374/31
f 144/375/30 200/376/30 198/372/30 142/371/30
f 143/374/31 199/373/31 201/377/31 145/378/31
f 146/379/30 202/380/30 200/376/30 144/375/30
f 145/378/31 201/377/31 203/381/31 147/382/31
f 148/383/30 204/384/30 202/380/30 146/379/30
f 147/382/31 203/381/31 205/385/31 149/386/31
f 150/387/30 206/388/30 204/384/30 148/383/30
f 149/386/31 205/385/31 207/389/31 151/390/31
f 152/391/30 208/392/30 206/388/30 150/387/30
f 151/390/31 207/389/31 209/393/31 153/394/31
f 154/395/30 210/396/30 208/392/30 152/391/30
f 153/394/31 209/393/31 211/397/31 155/398/31
f 156/399/30 212/400/30 210/396/30 154/395/30
f 155/398/31 211/397/31 213/401/31 157/402/31
f 158/403/30 214/404/30 212/400/30 156/399/30
f 157/402/31 213/401/31 215/405/31 159/406/31
f 160/407/30 216/408/30 214/404/30 158/403/30
f 159/406/31 215/405/31 217/409/31 161/410/31
f 162/411/30 218/412/30 216/408/30 160/407/30
f 161/410/31 217/409/31 219/413/31 163/414/31
f 164/415/30 220/416/30 218/412/30 162/411/30
f 163/414/31 219/413/31 221/417/31 165/418/31
f 166/419/30 222/420/30 220/416/30 164/415/30
f 165/418/31 221/417/31 223/421/31 167/422/31
f 168/423/30 224/424/30 222/420/30 166/419/30
f 167/422/31 223/421/31 169/314/31 113/313/31
f 114/320/30 170/319/30 224/424/30 168/423/30
