{
    "accessors": {
        "accessor_buffer_Knub.002_0": {
            "bufferView": "bufferView_buffer_Knub.002_0",
            "byteOffset": 0,
            "byteStride": 12,
            "componentType": 5126,
            "count": 586,
            "max": [
                1.826628565788269,
                1.826627254486084,
                0.6488914489746094
            ],
            "min": [
                -1.8266282081604004,
                -1.8266284465789795,
                -0.7461643218994141
            ],
            "type": "VEC3"
        },
        "accessor_buffer_Knub.002_1": {
            "bufferView": "bufferView_buffer_Knub.002_0",
            "byteOffset": 7032,
            "byteStride": 12,
            "componentType": 5126,
            "count": 586,
            "max": [
                1.0,
                0.9999999403953552,
                0.999969482421875
            ],
            "min": [
                -1.0,
                -1.0,
                -1.0
            ],
            "type": "VEC3"
        },
        "accessor_buffer_Knub.002_2": {
            "bufferView": "bufferView_buffer_Knub.002_0",
            "byteOffset": 14064,
            "byteStride": 8,
            "componentType": 5126,
            "count": 586,
            "max": [
                0.9999999403953552,
                1.0
            ],
            "min": [
                0.0,
                0.0
            ],
            "type": "VEC2"
        },
        "accessor_buffer_Knub.002_3": {
            "bufferView": "bufferView_buffer_Knub.002_1",
            "byteOffset": 0,
            "byteStride": 2,
            "componentType": 5123,
            "count": 2490,
            "max": [
                585
            ],
            "min": [
                0
            ],
            "type": "SCALAR"
        }
    },
    "asset": {
        "profile": {
            "api": "WebGL",
            "version": "1.0.3"
        },
        "version": "1.0"
    },
    "bufferViews": {
        "bufferView_buffer_Knub.002_0": {
            "buffer": "buffer_combined",
            "byteLength": 18752,
            "byteOffset": 0,
            "target": 34962
        },
        "bufferView_buffer_Knub.002_1": {
            "buffer": "buffer_combined",
            "byteLength": 4980,
            "byteOffset": 18752,
            "target": 34963
        }
    },
    "buffers": {
        "buffer_combined": {
            "byteLength": 23732,
            "type": "arraybuffer",
            "uri": "data:text/plain;base64,"
        }
    },
    "extensions": {
        "KHR_materials_common": {
            "lights": {}
        }
    },
    "extensionsUsed": [
        "KHR_materials_common"
    ],
    "images": {
        "image_Dustcap": {
            "uri": "Dustcap.png"
        }
    },
    "materials": {
        "material_Ceiling_Knub": {
            "extensions": {
                "KHR_materials_common": {
                    "technique": "PHONG",
                    "values": {
                        "ambient": [
                            1.0,
                            1.0,
                            1.0,
                            1.0
                        ],
                        "diffuse": "texture_Dustcap",
                        "doubleSided": false,
                        "emission": [
                            0.0,
                            0.0,
                            0.0,
                            1.0
                        ],
                        "shininess": 50,
                        "specular": [
                            0.5,
                            0.5,
                            0.5,
                            1.0
                        ],
                        "transparency": 1.0,
                        "transparent": false
                    }
                }
            },
            "name": "Ceiling_Knub"
        }
    },
    "meshes": {
        "mesh_Knub.002": {
            "name": "Knub.002",
            "primitives": [
                {
                    "attributes": {
                        "NORMAL": "accessor_buffer_Knub.002_1",
                        "POSITION": "accessor_buffer_Knub.002_0",
                        "TEXCOORD_0": "accessor_buffer_Knub.002_2"
                    },
                    "indices": "accessor_buffer_Knub.002_3",
                    "material": "material_Ceiling_Knub",
                    "mode": 4
                }
            ]
        }
    },
    "nodes": {
        "node_DustCap": {
            "children": [],
            "matrix": [
                1.0,
                0.0,
                0.0,
                0.0,
                0.0,
                -1.0,
                -1.5099580252808664e-07,
                0.0,
                0.0,
                1.5099580252808664e-07,
                -1.0,
                0.0,
                2.959795324386505e-07,
                -7.902178822405403e-08,
                2.8091843128204346,
                1.0
            ],
            "meshes": [
                "mesh_Knub.002"
            ],
            "name": "DustCap"
        },
        "node_scene_Scene_root": {
            "children": [
                "node_DustCap"
            ],
            "matrix": [
                1.0,
                0.0,
                0.0,
                0.0,
                0.0,
                0.0,
                -1.0,
                0.0,
                0.0,
                1.0,
                0.0,
                0.0,
                0.0,
                0.0,
                0.0,
                1.0
            ],
            "name": "node_scene_Scene_root"
        }
    },
    "samplers": {
        "sampler_default": {}
    },
    "scene": "scene_Scene",
    "scenes": {
        "scene_Scene": {
            "extras": {
                "active_camera": null,
                "background_color": [
                    0.05087608844041824,
                    0.05087608844041824,
                    0.05087608844041824
                ],
                "frames_per_second": 24
            },
            "name": "Scene",
            "nodes": [
                "node_scene_Scene_root"
            ]
        }
    },
    "textures": {
        "texture_Dustcap": {
            "format": 6408,
            "internalFormat": 6408,
            "sampler": "sampler_default",
            "source": "image_Dustcap"
        }
    }
}
