{
    "accessors": {
        "accessor_buffer_Sphere.005_0": {
            "bufferView": "bufferView_buffer_Sphere.005_0",
            "byteOffset": 0,
            "byteStride": 12,
            "componentType": 5126,
            "count": 98,
            "max": [
                0.21504417061805725,
                2.539356231689453,
                0.9752246737480164
            ],
            "min": [
                -0.0774342492222786,
                2.254210948944092,
                0.7191586494445801
            ],
            "type": "VEC3"
        },
        "accessor_buffer_Sphere.005_1": {
            "bufferView": "bufferView_buffer_Sphere.005_0",
            "byteOffset": 1176,
            "byteStride": 12,
            "componentType": 5126,
            "count": 98,
            "max": [
                0.9133945107460022,
                0.8441036343574524,
                0.9085801243782043
            ],
            "min": [
                -0.9133946895599365,
                -0.9368850588798523,
                -0.9708355069160461
            ],
            "type": "VEC3"
        },
        "accessor_buffer_Sphere.005_2": {
            "bufferView": "bufferView_buffer_Sphere.005_0",
            "byteOffset": 2352,
            "byteStride": 8,
            "componentType": 5126,
            "count": 98,
            "max": [
                1.0,
                1.0
            ],
            "min": [
                0.0,
                0.0
            ],
            "type": "VEC2"
        },
        "accessor_buffer_Sphere.005_3": {
            "bufferView": "bufferView_buffer_Sphere.005_1",
            "byteOffset": 0,
            "byteStride": 2,
            "componentType": 5123,
            "count": 126,
            "max": [
                97
            ],
            "min": [
                0
            ],
            "type": "SCALAR"
        }
    },
    "asset": {
        "profile": {
            "api": "WebGL",
            "version": "1.0.3"
        },
        "version": "1.0"
    },
    "bufferViews": {
        "bufferView_buffer_Sphere.005_0": {
            "buffer": "buffer_combined",
            "byteLength": 3136,
            "byteOffset": 0,
            "target": 34962
        },
        "bufferView_buffer_Sphere.005_1": {
            "buffer": "buffer_combined",
            "byteLength": 252,
            "byteOffset": 3136,
            "target": 34963
        }
    },
    "buffers": {
        "buffer_combined": {
            "byteLength": 3388,
            "type": "arraybuffer",
            "uri": "data:text/plain;base64,"
        }
    },
    "extensions": {
        "KHR_materials_common": {
            "lights": {}
        }
    },
    "extensionsUsed": [
        "KHR_materials_common"
    ],
    "images": {
        "image_Black Smooth": {
            "uri": "Black_Smooth_Rendered.png"
        }
    },
    "materials": {
        "material_Metal Texture": {
            "extensions": {
                "KHR_materials_common": {
                    "technique": "PHONG",
                    "values": {
                        "ambient": [
                            1.0,
                            1.0,
                            1.0,
                            1.0
                        ],
                        "diffuse": "texture_Speaker",
                        "doubleSided": false,
                        "emission": [
                            0.0,
                            0.0,
                            0.0,
                            1.0
                        ],
                        "shininess": 50,
                        "specular": [
                            0.5,
                            0.5,
                            0.5,
                            1.0
                        ],
                        "transparency": 1.0,
                        "transparent": false
                    }
                }
            },
            "name": "Metal Texture"
        }
    },
    "meshes": {
        "mesh_Sphere.005": {
            "name": "Sphere.005",
            "primitives": [
                {
                    "attributes": {
                        "NORMAL": "accessor_buffer_Sphere.005_1",
                        "POSITION": "accessor_buffer_Sphere.005_0",
                        "TEXCOORD_0": "accessor_buffer_Sphere.005_2"
                    },
                    "indices": "accessor_buffer_Sphere.005_3",
                    "material": "material_Metal Texture",
                    "mode": 4
                }
            ]
        }
    },
    "nodes": {
        "node_Speaker5": {
            "children": [],
            "matrix": [
                1.0,
                0.0,
                0.0,
                0.0,
                0.0,
                1.0,
                0.0,
                0.0,
                0.0,
                0.0,
                1.0,
                0.0,
                0.0,
                0.0,
                -0.11271733045578003,
                1.0
            ],
            "meshes": [
                "mesh_Sphere.005"
            ],
            "name": "Speaker5"
        },
        "node_scene_Scene_root": {
            "children": [
                "node_Speaker5"
            ],
            "matrix": [
                1.0,
                0.0,
                0.0,
                0.0,
                0.0,
                0.0,
                -1.0,
                0.0,
                0.0,
                1.0,
                0.0,
                0.0,
                0.0,
                0.0,
                0.0,
                1.0
            ],
            "name": "node_scene_Scene_root"
        }
    },
    "samplers": {
        "sampler_default": {}
    },
    "scene": "scene_Scene",
    "scenes": {
        "scene_Scene": {
            "extras": {
                "active_camera": null,
                "background_color": [
                    0.05087608844041824,
                    0.05087608844041824,
                    0.05087608844041824
                ],
                "frames_per_second": 24
            },
            "name": "Scene",
            "nodes": [
                "node_scene_Scene_root"
            ]
        }
    },
    "textures": {
        "texture_Speaker": {
            "format": 6408,
            "internalFormat": 6408,
            "sampler": "sampler_default",
            "source": "image_Black Smooth"
        }
    }
}
