{
    "accessors": {
        "accessor_buffer_Cylinder_0": {
            "bufferView": "bufferView_buffer_Cylinder_0",
            "byteOffset": 0,
            "byteStride": 12,
            "componentType": 5126,
            "count": 68,
            "max": [
                0,
                0.6665472984313965,
                1.0
            ],
            "min": [
                -1.0,
                -0.7427754402160645,
                -1.0
            ],
            "type": "VEC3"
        },
        "accessor_buffer_Cylinder_1": {
            "bufferView": "bufferView_buffer_Cylinder_0",
            "byteOffset": 816,
            "byteStride": 12,
            "componentType": 5126,
            "count": 68,
            "max": [
                0,
                0.6746425628662109,
                0
            ],
            "min": [
                -0.9987954497337341,
                -0.7390370965003967,
                0.0
            ],
            "type": "VEC3"
        },
        "accessor_buffer_Cylinder_2": {
            "bufferView": "bufferView_buffer_Cylinder_0",
            "byteOffset": 1632,
            "byteStride": 8,
            "componentType": 5126,
            "count": 68,
            "max": [
                1.0,
                1.0
            ],
            "min": [
                0.0,
                0.0
            ],
            "type": "VEC2"
        },
        "accessor_buffer_Cylinder_3": {
            "bufferView": "bufferView_buffer_Cylinder_1",
            "byteOffset": 0,
            "byteStride": 2,
            "componentType": 5123,
            "count": 102,
            "max": [
                67
            ],
            "min": [
                0
            ],
            "type": "SCALAR"
        }
    },
    "asset": {
        "profile": {
            "api": "WebGL",
            "version": "1.0.3"
        },
        "version": "1.0"
    },
    "bufferViews": {
        "bufferView_buffer_Cylinder_0": {
            "buffer": "buffer_combined",
            "byteLength": 2176,
            "byteOffset": 0,
            "target": 34962
        },
        "bufferView_buffer_Cylinder_1": {
            "buffer": "buffer_combined",
            "byteLength": 204,
            "byteOffset": 2176,
            "target": 34963
        }
    },
    "buffers": {
        "buffer_combined": {
            "byteLength": 2380,
            "type": "arraybuffer",
            "uri": "data:text/plain;base64,"
        }
    },
    "extensions": {
        "KHR_materials_common": {
            "lights": {}
        }
    },
    "extensionsUsed": [
        "KHR_materials_common"
    ],
    "images": {
        "image_Glow.png": {
            "uri": "Glow.png"
        }
    },
    "materials": {
        "material_Glow": {
            "extensions": {
                "KHR_materials_common": {
                    "technique": "PHONG",
                    "values": {
                        "ambient": [
                            1.0,
                            1.0,
                            1.0,
                            1.0
                        ],
                        "diffuse": "texture_Glow",
                        "doubleSided": false,
                        "emission": [
                            0.0,
                            0.0,
                            0.0,
                            1.0
                        ],
                        "shininess": 50,
                        "specular": [
                            0.5,
                            0.5,
                            0.5,
                            1.0
                        ],
                        "transparency": 1.0,
                        "transparent": false
                    }
                }
            },
            "name": "Glow"
        }
    },
    "meshes": {
        "mesh_Cylinder": {
            "name": "Cylinder",
            "primitives": [
                {
                    "attributes": {
                        "NORMAL": "accessor_buffer_Cylinder_1",
                        "POSITION": "accessor_buffer_Cylinder_0",
                        "TEXCOORD_0": "accessor_buffer_Cylinder_2"
                    },
                    "indices": "accessor_buffer_Cylinder_3",
                    "material": "material_Glow",
                    "mode": 4
                }
            ]
        }
    },
    "nodes": {
        "node_Cylinder": {
            "children": [],
            "matrix": [
                1.2746089696884155,
                -1.4157671928405762,
                0.0,
                0.0,
                1.4158103466033936,
                1.2746477127075195,
                0.0,
                0.0,
                0.0,
                0.0,
                1.3356165885925293,
                0.0,
                -2.9700000286102295,
                3.0,
                1.16364586353302,
                1.0
            ],
            "meshes": [
                "mesh_Cylinder"
            ],
            "name": "Cylinder"
        },
        "node_scene_Scene_root": {
            "children": [
                "node_Cylinder"
            ],
            "matrix": [
                1.0,
                0.0,
                0.0,
                0.0,
                0.0,
                0.0,
                -1.0,
                0.0,
                0.0,
                1.0,
                0.0,
                0.0,
                0.0,
                0.0,
                0.0,
                1.0
            ],
            "name": "node_scene_Scene_root"
        }
    },
    "samplers": {
        "sampler_default": {}
    },
    "scene": "scene_Scene",
    "scenes": {
        "scene_Scene": {
            "extras": {
                "active_camera": null,
                "background_color": [
                    0.05087608844041824,
                    0.05087608844041824,
                    0.05087608844041824
                ],
                "frames_per_second": 24
            },
            "name": "Scene",
            "nodes": [
                "node_scene_Scene_root"
            ]
        }
    },
    "textures": {
        "texture_Glow": {
            "format": 6408,
            "internalFormat": 6408,
            "sampler": "sampler_default",
            "source": "image_Glow.png"
        }
    }
}
