{
    "accessors": {
        "accessor_buffer_Cylinder.013_0": {
            "bufferView": "bufferView_buffer_Cylinder.013_0",
            "byteOffset": 0,
            "byteStride": 12,
            "componentType": 5126,
            "count": 1920,
            "max": [
                17.68955421447754,
                1.0,
                1.000000238418579
            ],
            "min": [
                -26.894977569580078,
                -45.806209564208984,
                -0.9576757550239563
            ],
            "type": "VEC3"
        },
        "accessor_buffer_Cylinder.013_1": {
            "bufferView": "bufferView_buffer_Cylinder.013_0",
            "byteOffset": 23040,
            "byteStride": 12,
            "componentType": 5126,
            "count": 1920,
            "max": [
                0.9951850175857544,
                0.9951848983764648,
                1.0
            ],
            "min": [
                -0.995185375213623,
                -0.9951848387718201,
                -1.0
            ],
            "type": "VEC3"
        },
        "accessor_buffer_Cylinder.013_2": {
            "bufferView": "bufferView_buffer_Cylinder.013_0",
            "byteOffset": 46080,
            "byteStride": 8,
            "componentType": 5126,
            "count": 1920,
            "max": [
                1.0,
                1.0
            ],
            "min": [
                0.0,
                0.0
            ],
            "type": "VEC2"
        },
        "accessor_buffer_Cylinder.013_3": {
            "bufferView": "bufferView_buffer_Cylinder.013_1",
            "byteOffset": 0,
            "byteStride": 2,
            "componentType": 5123,
            "count": 3720,
            "max": [
                1919
            ],
            "min": [
                0
            ],
            "type": "SCALAR"
        }
    },
    "asset": {
        "profile": {
            "api": "WebGL",
            "version": "1.0.3"
        },
        "version": "1.0"
    },
    "bufferViews": {
        "bufferView_buffer_Cylinder.013_0": {
            "buffer": "buffer_combined",
            "byteLength": 61440,
            "byteOffset": 0,
            "target": 34962
        },
        "bufferView_buffer_Cylinder.013_1": {
            "buffer": "buffer_combined",
            "byteLength": 7440,
            "byteOffset": 61440,
            "target": 34963
        }
    },
    "buffers": {
        "buffer_combined": {
            "byteLength": 68880,
            "type": "arraybuffer",
            "uri": "data:text/plain;base64,"
        }
    },
    "extensions": {
        "KHR_materials_common": {
            "lights": {}
        }
    },
    "extensionsUsed": [
        "KHR_materials_common"
    ],
    "images": {
        "image_Glow.png": {
            "uri": "Glow.png"
        }
    },
    "materials": {
        "material_Glow": {
            "extensions": {
                "KHR_materials_common": {
                    "technique": "PHONG",
                    "values": {
                        "ambient": [
                            1.0,
                            1.0,
                            1.0,
                            1.0
                        ],
                        "diffuse": "texture_Glow",
                        "doubleSided": false,
                        "emission": [
                            0.0,
                            0.0,
                            0.0,
                            1.0
                        ],
                        "shininess": 50,
                        "specular": [
                            0.5,
                            0.5,
                            0.5,
                            1.0
                        ],
                        "transparency": 1.0,
                        "transparent": false
                    }
                }
            },
            "name": "Glow"
        }
    },
    "meshes": {
        "mesh_Cylinder.013": {
            "name": "Cylinder.013",
            "primitives": [
                {
                    "attributes": {
                        "NORMAL": "accessor_buffer_Cylinder.013_1",
                        "POSITION": "accessor_buffer_Cylinder.013_0",
                        "TEXCOORD_0": "accessor_buffer_Cylinder.013_2"
                    },
                    "indices": "accessor_buffer_Cylinder.013_3",
                    "material": "material_Glow",
                    "mode": 4
                }
            ]
        }
    },
    "nodes": {
        "node_Cylinder.012": {
            "children": [],
            "matrix": [
                0.031627606600522995,
                0.0,
                0.0,
                0.0,
                0.0,
                0.031627606600522995,
                0.0,
                0.0,
                0.0,
                0.0,
                0.563554048538208,
                0.0,
                0.04481618478894234,
                0.5991180539131165,
                1.7304452657699585,
                1.0
            ],
            "meshes": [
                "mesh_Cylinder.013"
            ],
            "name": "Cylinder.012"
        },
        "node_scene_Scene_root": {
            "children": [
                "node_Cylinder.012"
            ],
            "matrix": [
                1.0,
                0.0,
                0.0,
                0.0,
                0.0,
                0.0,
                -1.0,
                0.0,
                0.0,
                1.0,
                0.0,
                0.0,
                0.0,
                0.0,
                0.0,
                1.0
            ],
            "name": "node_scene_Scene_root"
        }
    },
    "samplers": {
        "sampler_default": {}
    },
    "scene": "scene_Scene",
    "scenes": {
        "scene_Scene": {
            "extras": {
                "active_camera": null,
                "background_color": [
                    0.05087608844041824,
                    0.05087608844041824,
                    0.05087608844041824
                ],
                "frames_per_second": 24
            },
            "name": "Scene",
            "nodes": [
                "node_scene_Scene_root"
            ]
        }
    },
    "textures": {
        "texture_Glow": {
            "format": 6408,
            "internalFormat": 6408,
            "sampler": "sampler_default",
            "source": "image_Glow.png"
        }
    }
}
