{
    "accessors": {
        "accessor_buffer_Cube.009_0": {
            "bufferView": "bufferView_buffer_Cube.009_0",
            "byteOffset": 0,
            "byteStride": 12,
            "componentType": 5126,
            "count": 24,
            "max": [
                1.0180668830871582,
                1.0,
                1.0
            ],
            "min": [
                -1.0,
                -1.028854250907898,
                -1.0
            ],
            "type": "VEC3"
        },
        "accessor_buffer_Cube.009_1": {
            "bufferView": "bufferView_buffer_Cube.009_0",
            "byteOffset": 288,
            "byteStride": 12,
            "componentType": 5126,
            "count": 24,
            "max": [
                0.9999603033065796,
                1.0,
                1.0
            ],
            "min": [
                -0.9999603033065796,
                -1.0,
                -1.0
            ],
            "type": "VEC3"
        },
        "accessor_buffer_Cube.009_2": {
            "bufferView": "bufferView_buffer_Cube.009_0",
            "byteOffset": 576,
            "byteStride": 8,
            "componentType": 5126,
            "count": 24,
            "max": [
                1.0,
                1.0
            ],
            "min": [
                0.0,
                0.0
            ],
            "type": "VEC2"
        },
        "accessor_buffer_Cube.009_3": {
            "bufferView": "bufferView_buffer_Cube.009_1",
            "byteOffset": 0,
            "byteStride": 2,
            "componentType": 5123,
            "count": 36,
            "max": [
                23
            ],
            "min": [
                0
            ],
            "type": "SCALAR"
        }
    },
    "asset": {
        "profile": {
            "api": "WebGL",
            "version": "1.0.3"
        },
        "version": "1.0"
    },
    "bufferViews": {
        "bufferView_buffer_Cube.009_0": {
            "buffer": "buffer_combined",
            "byteLength": 768,
            "byteOffset": 0,
            "target": 34962
        },
        "bufferView_buffer_Cube.009_1": {
            "buffer": "buffer_combined",
            "byteLength": 72,
            "byteOffset": 768,
            "target": 34963
        }
    },
    "buffers": {
        "buffer_combined": {
            "byteLength": 840,
            "type": "arraybuffer",
            "uri": "data:text/plain;base64,"
        }
    },
    "extensions": {
        "KHR_materials_common": {
            "lights": {}
        }
    },
    "extensionsUsed": [
        "KHR_materials_common"
    ],
    "images": {
        "image_Hall_Wall3": {
            "uri": "Hall_Wall3.png"
        }
    },
    "materials": {
        "material_Hall_Wall3": {
            "extensions": {
                "KHR_materials_common": {
                    "technique": "PHONG",
                    "values": {
                        "ambient": [
                            1.0,
                            1.0,
                            1.0,
                            1.0
                        ],
                        "diffuse": "texture_Hall_Wall3",
                        "doubleSided": false,
                        "emission": [
                            0.0,
                            0.0,
                            0.0,
                            1.0
                        ],
                        "shininess": 50,
                        "specular": [
                            0.5,
                            0.5,
                            0.5,
                            1.0
                        ],
                        "transparency": 1.0,
                        "transparent": false
                    }
                }
            },
            "name": "Hall_Wall3"
        }
    },
    "meshes": {
        "mesh_Cube.009": {
            "name": "Cube.009",
            "primitives": [
                {
                    "attributes": {
                        "NORMAL": "accessor_buffer_Cube.009_1",
                        "POSITION": "accessor_buffer_Cube.009_0",
                        "TEXCOORD_0": "accessor_buffer_Cube.009_2"
                    },
                    "indices": "accessor_buffer_Cube.009_3",
                    "material": "material_Hall_Wall3",
                    "mode": 4
                }
            ]
        }
    },
    "nodes": {
        "node_Cube.009": {
            "children": [],
            "matrix": [
                -2.8411466512778816e-09,
                0.06499785929918289,
                0.0,
                0.0,
                -0.9778667092323303,
                -4.27439097450133e-08,
                0.0,
                0.0,
                0.0,
                0.0,
                1.3356165885925293,
                0.0,
                -3.4947986602783203,
                -10.827527046203613,
                1.16364586353302,
                1.0
            ],
            "meshes": [
                "mesh_Cube.009"
            ],
            "name": "Cube.009"
        },
        "node_scene_Scene_root": {
            "children": [
                "node_Cube.009"
            ],
            "matrix": [
                1.0,
                0.0,
                0.0,
                0.0,
                0.0,
                0.0,
                -1.0,
                0.0,
                0.0,
                1.0,
                0.0,
                0.0,
                0.0,
                0.0,
                0.0,
                1.0
            ],
            "name": "node_scene_Scene_root"
        }
    },
    "samplers": {
        "sampler_default": {}
    },
    "scene": "scene_Scene",
    "scenes": {
        "scene_Scene": {
            "extras": {
                "active_camera": null,
                "background_color": [
                    0.05087608844041824,
                    0.05087608844041824,
                    0.05087608844041824
                ],
                "frames_per_second": 24
            },
            "name": "Scene",
            "nodes": [
                "node_scene_Scene_root"
            ]
        }
    },
    "textures": {
        "texture_Hall_Wall3": {
            "format": 6408,
            "internalFormat": 6408,
            "sampler": "sampler_default",
            "source": "image_Hall_Wall3"
        }
    }
}
