{
    "accessors": {
        "accessor_buffer_Cube.036_0": {
            "bufferView": "bufferView_buffer_Cube.036_0",
            "byteOffset": 0,
            "byteStride": 12,
            "componentType": 5126,
            "count": 544,
            "max": [
                152.81939697265625,
                1.5071969032287598,
                1.0
            ],
            "min": [
                -1.0,
                -1.0162990093231201,
                -1.0
            ],
            "type": "VEC3"
        },
        "accessor_buffer_Cube.036_1": {
            "bufferView": "bufferView_buffer_Cube.036_0",
            "byteOffset": 6528,
            "byteStride": 12,
            "componentType": 5126,
            "count": 544,
            "max": [
                1.0,
                1.0,
                1.0
            ],
            "min": [
                -1.0,
                -1.0,
                -1.0
            ],
            "type": "VEC3"
        },
        "accessor_buffer_Cube.036_2": {
            "bufferView": "bufferView_buffer_Cube.036_0",
            "byteOffset": 13056,
            "byteStride": 8,
            "componentType": 5126,
            "count": 544,
            "max": [
                1.0,
                1.0
            ],
            "min": [
                0.0,
                0.0
            ],
            "type": "VEC2"
        },
        "accessor_buffer_Cube.036_3": {
            "bufferView": "bufferView_buffer_Cube.036_1",
            "byteOffset": 0,
            "byteStride": 2,
            "componentType": 5123,
            "count": 984,
            "max": [
                543
            ],
            "min": [
                0
            ],
            "type": "SCALAR"
        }
    },
    "asset": {
        "profile": {
            "api": "WebGL",
            "version": "1.0.3"
        },
        "version": "1.0"
    },
    "bufferViews": {
        "bufferView_buffer_Cube.036_0": {
            "buffer": "buffer_combined",
            "byteLength": 17408,
            "byteOffset": 0,
            "target": 34962
        },
        "bufferView_buffer_Cube.036_1": {
            "buffer": "buffer_combined",
            "byteLength": 1968,
            "byteOffset": 17408,
            "target": 34963
        }
    },
    "buffers": {
        "buffer_combined": {
            "byteLength": 19376,
            "type": "arraybuffer",
            "uri": "data:text/plain;base64,"
        }
    },
    "extensions": {
        "KHR_materials_common": {
            "lights": {}
        }
    },
    "extensionsUsed": [
        "KHR_materials_common"
    ],
    "images": {
        "image_Logo_Outline1": {
            "uri": "Logo_Outline1.png"
        }
    },
    "materials": {
        "material_Logo_Outline1": {
            "extensions": {
                "KHR_materials_common": {
                    "technique": "PHONG",
                    "values": {
                        "ambient": [
                            1.0,
                            1.0,
                            1.0,
                            1.0
                        ],
                        "diffuse": "texture_Logo_Outline1",
                        "doubleSided": false,
                        "emission": [
                            0.0,
                            0.0,
                            0.0,
                            1.0
                        ],
                        "shininess": 50,
                        "specular": [
                            0.5,
                            0.5,
                            0.5,
                            1.0
                        ],
                        "transparency": 1.0,
                        "transparent": false
                    }
                }
            },
            "name": "Logo_Outline1"
        }
    },
    "meshes": {
        "mesh_Cube.036": {
            "name": "Cube.036",
            "primitives": [
                {
                    "attributes": {
                        "NORMAL": "accessor_buffer_Cube.036_1",
                        "POSITION": "accessor_buffer_Cube.036_0",
                        "TEXCOORD_0": "accessor_buffer_Cube.036_2"
                    },
                    "indices": "accessor_buffer_Cube.036_3",
                    "material": "material_Logo_Outline1",
                    "mode": 4
                }
            ]
        }
    },
    "nodes": {
        "node_Cube.025": {
            "children": [],
            "matrix": [
                0.005224697291851044,
                0.0,
                0.0,
                0.0,
                0.0,
                -1.4054077901448636e-08,
                0.3215198218822479,
                0.0,
                0.0,
                -0.08037995547056198,
                -3.513519475362159e-09,
                0.0,
                -0.326356440782547,
                4.768746852874756,
                1.469244360923767,
                1.0
            ],
            "meshes": [
                "mesh_Cube.036"
            ],
            "name": "Cube.025"
        },
        "node_scene_Scene_root": {
            "children": [
                "node_Cube.025"
            ],
            "matrix": [
                1.0,
                0.0,
                0.0,
                0.0,
                0.0,
                0.0,
                -1.0,
                0.0,
                0.0,
                1.0,
                0.0,
                0.0,
                0.0,
                0.0,
                0.0,
                1.0
            ],
            "name": "node_scene_Scene_root"
        }
    },
    "samplers": {
        "sampler_default": {}
    },
    "scene": "scene_Scene",
    "scenes": {
        "scene_Scene": {
            "extras": {
                "active_camera": null,
                "background_color": [
                    0.05087608844041824,
                    0.05087608844041824,
                    0.05087608844041824
                ],
                "frames_per_second": 24
            },
            "name": "Scene",
            "nodes": [
                "node_scene_Scene_root"
            ]
        }
    },
    "textures": {
        "texture_Logo_Outline1": {
            "format": 6408,
            "internalFormat": 6408,
            "sampler": "sampler_default",
            "source": "image_Logo_Outline1"
        }
    }
}
