{
    "accessors": {
        "accessor_buffer_Cylinder_0": {
            "bufferView": "bufferView_buffer_Cylinder_0",
            "byteOffset": 0,
            "byteStride": 12,
            "componentType": 5126,
            "count": 208,
            "max": [
                0.9999996423721313,
                0.43319231271743774,
                1.0
            ],
            "min": [
                -1.0000003576278687,
                -0.5766071081161499,
                -1.0
            ],
            "type": "VEC3"
        },
        "accessor_buffer_Cylinder_1": {
            "bufferView": "bufferView_buffer_Cylinder_0",
            "byteOffset": 2496,
            "byteStride": 12,
            "componentType": 5126,
            "count": 208,
            "max": [
                0.9954349994659424,
                0.9951847791671753,
                1.0
            ],
            "min": [
                -0.9954350590705872,
                -0.9951868653297424,
                -1.0
            ],
            "type": "VEC3"
        },
        "accessor_buffer_Cylinder_2": {
            "bufferView": "bufferView_buffer_Cylinder_0",
            "byteOffset": 4992,
            "byteStride": 8,
            "componentType": 5126,
            "count": 208,
            "max": [
                0.9927573204040527,
                0.9927184483967721
            ],
            "min": [
                0.0072427066043019295,
                0.007281482219696045
            ],
            "type": "VEC2"
        },
        "accessor_buffer_Cylinder_3": {
            "bufferView": "bufferView_buffer_Cylinder_1",
            "byteOffset": 0,
            "byteStride": 2,
            "componentType": 5123,
            "count": 396,
            "max": [
                207
            ],
            "min": [
                0
            ],
            "type": "SCALAR"
        }
    },
    "asset": {
        "profile": {
            "api": "WebGL",
            "version": "1.0.3"
        },
        "version": "1.0"
    },
    "bufferViews": {
        "bufferView_buffer_Cylinder_0": {
            "buffer": "buffer_combined",
            "byteLength": 6656,
            "byteOffset": 0,
            "target": 34962
        },
        "bufferView_buffer_Cylinder_1": {
            "buffer": "buffer_combined",
            "byteLength": 792,
            "byteOffset": 6656,
            "target": 34963
        }
    },
    "buffers": {
        "buffer_combined": {
            "byteLength": 7448,
            "type": "arraybuffer",
            "uri": "data:text/plain;base64,"
        }
    },
    "extensions": {
        "KHR_materials_common": {
            "lights": {}
        }
    },
    "extensionsUsed": [
        "KHR_materials_common"
    ],
    "images": {
        "image_Tut Bake": {
            "uri": "Tut_Bake.png"
        }
    },
    "materials": {
        "material_Cylinder": {
            "extensions": {
                "KHR_materials_common": {
                    "technique": "PHONG",
                    "values": {
                        "ambient": [
                            1.0,
                            1.0,
                            1.0,
                            1.0
                        ],
                        "diffuse": "texture_Tut_Bake",
                        "doubleSided": false,
                        "emission": [
                            0.0,
                            0.0,
                            0.0,
                            1.0
                        ],
                        "shininess": 50,
                        "specular": [
                            0.5,
                            0.5,
                            0.5,
                            1.0
                        ],
                        "transparency": 1.0,
                        "transparent": false
                    }
                }
            },
            "name": "Cylinder"
        }
    },
    "meshes": {
        "mesh_Cylinder": {
            "name": "Cylinder",
            "primitives": [
                {
                    "attributes": {
                        "NORMAL": "accessor_buffer_Cylinder_1",
                        "POSITION": "accessor_buffer_Cylinder_0",
                        "TEXCOORD_0": "accessor_buffer_Cylinder_2"
                    },
                    "indices": "accessor_buffer_Cylinder_3",
                    "material": "material_Cylinder",
                    "mode": 4
                }
            ]
        }
    },
    "nodes": {
        "node_Cylinder": {
            "children": [],
            "matrix": [
                1.0,
                0.0,
                0.0,
                0.0,
                0.0,
                1.0,
                0.0,
                0.0,
                0.0,
                0.0,
                1.0,
                0.0,
                0.0,
                0.0,
                0.0,
                1.0
            ],
            "meshes": [
                "mesh_Cylinder"
            ],
            "name": "Cylinder"
        },
        "node_scene_Scene_root": {
            "children": [
                "node_Cylinder"
            ],
            "matrix": [
                1.0,
                0.0,
                0.0,
                0.0,
                0.0,
                0.0,
                -1.0,
                0.0,
                0.0,
                1.0,
                0.0,
                0.0,
                0.0,
                0.0,
                0.0,
                1.0
            ],
            "name": "node_scene_Scene_root"
        }
    },
    "samplers": {
        "sampler_default": {}
    },
    "scene": "scene_Scene",
    "scenes": {
        "scene_Scene": {
            "extras": {
                "active_camera": null,
                "background_color": [
                    0.05087608844041824,
                    0.05087608844041824,
                    0.05087608844041824
                ],
                "frames_per_second": 24
            },
            "name": "Scene",
            "nodes": [
                "node_scene_Scene_root"
            ]
        }
    },
    "textures": {
        "texture_Tut_Bake": {
            "format": 6408,
            "internalFormat": 6408,
            "sampler": "sampler_default",
            "source": "image_Tut Bake"
        }
    }
}
