{
    "accessors": {
        "accessor_buffer_TurqPlat_0": {
            "bufferView": "bufferView_buffer_TurqPlat_0",
            "byteOffset": 0,
            "byteStride": 12,
            "componentType": 5126,
            "count": 512,
            "max": [
                160.6721954345703,
                0,
                127.16278076171875
            ],
            "min": [
                -160.74501037597656,
                -5.589169502258301,
                -127.16281127929688
            ],
            "type": "VEC3"
        },
        "accessor_buffer_TurqPlat_1": {
            "bufferView": "bufferView_buffer_TurqPlat_0",
            "byteOffset": 6144,
            "byteStride": 12,
            "componentType": 5126,
            "count": 512,
            "max": [
                1.0,
                1.0,
                0.7663219571113586
            ],
            "min": [
                -1.0,
                -1.0,
                -0.7663259506225586
            ],
            "type": "VEC3"
        },
        "accessor_buffer_TurqPlat_2": {
            "bufferView": "bufferView_buffer_TurqPlat_0",
            "byteOffset": 12288,
            "byteStride": 8,
            "componentType": 5126,
            "count": 512,
            "max": [
                0.9998794198036194,
                0.9998427707760129
            ],
            "min": [
                0.00012060056178597733,
                0.00015723705291748047
            ],
            "type": "VEC2"
        },
        "accessor_buffer_TurqPlat_3": {
            "bufferView": "bufferView_buffer_TurqPlat_1",
            "byteOffset": 0,
            "byteStride": 2,
            "componentType": 5123,
            "count": 1464,
            "max": [
                511
            ],
            "min": [
                0
            ],
            "type": "SCALAR"
        }
    },
    "asset": {
        "profile": {
            "api": "WebGL",
            "version": "1.0.3"
        },
        "version": "1.0"
    },
    "bufferViews": {
        "bufferView_buffer_TurqPlat_0": {
            "buffer": "buffer_combined",
            "byteLength": 16384,
            "byteOffset": 0,
            "target": 34962
        },
        "bufferView_buffer_TurqPlat_1": {
            "buffer": "buffer_combined",
            "byteLength": 2928,
            "byteOffset": 16384,
            "target": 34963
        }
    },
    "buffers": {
        "buffer_combined": {
            "byteLength": 19312,
            "type": "arraybuffer",
            "uri": "data:text/plain;base64,"
        }
    },
    "extensions": {
        "KHR_materials_common": {
            "lights": {}
        }
    },
    "extensionsUsed": [
        "KHR_materials_common"
    ],
    "images": {
        "image_Glass": {
            "uri": "Glass.png"
        }
    },
    "materials": {
        "material_Glass": {
            "extensions": {
                "KHR_materials_common": {
                    "technique": "PHONG",
                    "values": {
                        "ambient": [
                            1.0,
                            1.0,
                            1.0,
                            1.0
                        ],
                        "diffuse": "texture_Glass",
                        "doubleSided": false,
                        "emission": [
                            0.0,
                            0.0,
                            0.0,
                            1.0
                        ],
                        "shininess": 50,
                        "specular": [
                            0.5,
                            0.5,
                            0.5,
                            1.0
                        ],
                        "transparency": 1.0,
                        "transparent": false
                    }
                }
            },
            "name": "Glass"
        }
    },
    "meshes": {
        "mesh_TurqPlat": {
            "name": "TurqPlat",
            "primitives": [
                {
                    "attributes": {
                        "NORMAL": "accessor_buffer_TurqPlat_1",
                        "POSITION": "accessor_buffer_TurqPlat_0",
                        "TEXCOORD_0": "accessor_buffer_TurqPlat_2"
                    },
                    "indices": "accessor_buffer_TurqPlat_3",
                    "material": "material_Glass",
                    "mode": 4
                }
            ]
        }
    },
    "nodes": {
        "node_TurqPlat": {
            "children": [],
            "matrix": [
                1.0,
                0.0,
                0.0,
                0.0,
                0.0,
                -1.6292068494294654e-07,
                1.0,
                0.0,
                0.0,
                -1.0,
                -1.6292068494294654e-07,
                0.0,
                1.4007091522216797e-06,
                4.947185516357422e-06,
                34.29237365722656,
                1.0
            ],
            "meshes": [
                "mesh_TurqPlat"
            ],
            "name": "TurqPlat"
        },
        "node_scene_Scene_root": {
            "children": [
                "node_TurqPlat"
            ],
            "matrix": [
                1.0,
                0.0,
                0.0,
                0.0,
                0.0,
                0.0,
                -1.0,
                0.0,
                0.0,
                1.0,
                0.0,
                0.0,
                0.0,
                0.0,
                0.0,
                1.0
            ],
            "name": "node_scene_Scene_root"
        }
    },
    "samplers": {
        "sampler_default": {}
    },
    "scene": "scene_Scene",
    "scenes": {
        "scene_Scene": {
            "extras": {
                "active_camera": null,
                "background_color": [
                    0.05087608844041824,
                    0.05087608844041824,
                    0.05087608844041824
                ],
                "frames_per_second": 24
            },
            "name": "Scene",
            "nodes": [
                "node_scene_Scene_root"
            ]
        }
    },
    "textures": {
        "texture_Glass": {
            "format": 6408,
            "internalFormat": 6408,
            "sampler": "sampler_default",
            "source": "image_Glass"
        }
    }
}
