{
    "accessors": {
        "accessor_buffer_LghtPlat_0": {
            "bufferView": "bufferView_buffer_LghtPlat_0",
            "byteOffset": 0,
            "byteStride": 12,
            "componentType": 5126,
            "count": 1264,
            "max": [
                161.7899932861328,
                5.58902645111084,
                137.71389770507812
            ],
            "min": [
                -161.86282348632812,
                -5.589073657989502,
                -137.7139129638672
            ],
            "type": "VEC3"
        },
        "accessor_buffer_LghtPlat_1": {
            "bufferView": "bufferView_buffer_LghtPlat_0",
            "byteOffset": 15168,
            "byteStride": 12,
            "componentType": 5126,
            "count": 1264,
            "max": [
                1.0,
                1.0,
                1.0
            ],
            "min": [
                -1.0,
                -1.0,
                -1.0
            ],
            "type": "VEC3"
        },
        "accessor_buffer_LghtPlat_2": {
            "bufferView": "bufferView_buffer_LghtPlat_0",
            "byteOffset": 30336,
            "byteStride": 8,
            "componentType": 5126,
            "count": 1264,
            "max": [
                0.9999511241912842,
                0.9999511150090257
            ],
            "min": [
                4.888499461230822e-05,
                4.887580871582031e-05
            ],
            "type": "VEC2"
        },
        "accessor_buffer_LghtPlat_3": {
            "bufferView": "bufferView_buffer_LghtPlat_1",
            "byteOffset": 0,
            "byteStride": 2,
            "componentType": 5123,
            "count": 708,
            "max": [
                1260
            ],
            "min": [
                9
            ],
            "type": "SCALAR"
        },
        "accessor_buffer_LghtPlat_4": {
            "bufferView": "bufferView_buffer_LghtPlat_2",
            "byteOffset": 0,
            "byteStride": 2,
            "componentType": 5123,
            "count": 2880,
            "max": [
                1263
            ],
            "min": [
                0
            ],
            "type": "SCALAR"
        },
        "accessor_buffer_TurqPlat_0": {
            "bufferView": "bufferView_buffer_TurqPlat_0",
            "byteOffset": 0,
            "byteStride": 12,
            "componentType": 5126,
            "count": 512,
            "max": [
                160.6721954345703,
                0,
                127.16278076171875
            ],
            "min": [
                -160.74501037597656,
                -5.589169502258301,
                -127.16281127929688
            ],
            "type": "VEC3"
        },
        "accessor_buffer_TurqPlat_1": {
            "bufferView": "bufferView_buffer_TurqPlat_0",
            "byteOffset": 6144,
            "byteStride": 12,
            "componentType": 5126,
            "count": 512,
            "max": [
                1.0,
                1.0,
                0.7663219571113586
            ],
            "min": [
                -1.0,
                -1.0,
                -0.7663259506225586
            ],
            "type": "VEC3"
        },
        "accessor_buffer_TurqPlat_2": {
            "bufferView": "bufferView_buffer_TurqPlat_0",
            "byteOffset": 12288,
            "byteStride": 8,
            "componentType": 5126,
            "count": 512,
            "max": [
                0.9998794198036194,
                0.9998427707760129
            ],
            "min": [
                0.00012060056178597733,
                0.00015723705291748047
            ],
            "type": "VEC2"
        },
        "accessor_buffer_TurqPlat_3": {
            "bufferView": "bufferView_buffer_TurqPlat_1",
            "byteOffset": 0,
            "byteStride": 2,
            "componentType": 5123,
            "count": 1464,
            "max": [
                511
            ],
            "min": [
                0
            ],
            "type": "SCALAR"
        }
    },
    "asset": {
        "profile": {
            "api": "WebGL",
            "version": "1.0.3"
        },
        "version": "1.0"
    },
    "bufferViews": {
        "bufferView_buffer_LghtPlat_0": {
            "buffer": "buffer_combined",
            "byteLength": 40448,
            "byteOffset": 0,
            "target": 34962
        },
        "bufferView_buffer_LghtPlat_1": {
            "buffer": "buffer_combined",
            "byteLength": 1416,
            "byteOffset": 40448,
            "target": 34963
        },
        "bufferView_buffer_LghtPlat_2": {
            "buffer": "buffer_combined",
            "byteLength": 5760,
            "byteOffset": 41864,
            "target": 34963
        },
        "bufferView_buffer_TurqPlat_0": {
            "buffer": "buffer_combined",
            "byteLength": 16384,
            "byteOffset": 47624,
            "target": 34962
        },
        "bufferView_buffer_TurqPlat_1": {
            "buffer": "buffer_combined",
            "byteLength": 2928,
            "byteOffset": 64008,
            "target": 34963
        }
    },
    "buffers": {
        "buffer_combined": {
            "byteLength": 66936,
            "type": "arraybuffer",
            "uri": "data:text/plain;base64,"
        }
    },
    "extensions": {
        "KHR_materials_common": {
            "lights": {}
        }
    },
    "extensionsUsed": [
        "KHR_materials_common"
    ],
    "images": {
        "image_Glass": {
            "uri": "Glass.png"
        },
        "image_Platform": {
            "uri": "Platform.png"
        }
    },
    "materials": {
        "material_Base": {
            "extensions": {
                "KHR_materials_common": {
                    "technique": "PHONG",
                    "values": {
                        "ambient": [
                            1.0,
                            1.0,
                            1.0,
                            1.0
                        ],
                        "diffuse": "texture_Platform",
                        "doubleSided": false,
                        "emission": [
                            0.0,
                            0.0,
                            0.0,
                            1.0
                        ],
                        "shininess": 50,
                        "specular": [
                            0.5,
                            0.5,
                            0.5,
                            1.0
                        ],
                        "transparency": 1.0,
                        "transparent": false
                    }
                }
            },
            "name": "Base"
        },
        "material_Glass": {
            "extensions": {
                "KHR_materials_common": {
                    "technique": "PHONG",
                    "values": {
                        "ambient": [
                            1.0,
                            1.0,
                            1.0,
                            1.0
                        ],
                        "diffuse": "texture_Glass",
                        "doubleSided": false,
                        "emission": [
                            0.0,
                            0.0,
                            0.0,
                            1.0
                        ],
                        "shininess": 50,
                        "specular": [
                            0.5,
                            0.5,
                            0.5,
                            1.0
                        ],
                        "transparency": 1.0,
                        "transparent": false
                    }
                }
            },
            "name": "Glass"
        },
        "material_Glow": {
            "extensions": {
                "KHR_materials_common": {
                    "technique": "PHONG",
                    "values": {
                        "ambient": [
                            1.0,
                            1.0,
                            1.0,
                            1.0
                        ],
                        "diffuse": "texture_Platform",
                        "doubleSided": false,
                        "emission": [
                            0.0,
                            0.0,
                            0.0,
                            1.0
                        ],
                        "shininess": 50,
                        "specular": [
                            0.5,
                            0.5,
                            0.5,
                            1.0
                        ],
                        "transparency": 1.0,
                        "transparent": false
                    }
                }
            },
            "name": "Glow"
        }
    },
    "meshes": {
        "mesh_LghtPlat": {
            "name": "LghtPlat",
            "primitives": [
                {
                    "attributes": {
                        "NORMAL": "accessor_buffer_LghtPlat_1",
                        "POSITION": "accessor_buffer_LghtPlat_0",
                        "TEXCOORD_0": "accessor_buffer_LghtPlat_2"
                    },
                    "indices": "accessor_buffer_LghtPlat_3",
                    "material": "material_Base",
                    "mode": 4
                },
                {
                    "attributes": {
                        "NORMAL": "accessor_buffer_LghtPlat_1",
                        "POSITION": "accessor_buffer_LghtPlat_0",
                        "TEXCOORD_0": "accessor_buffer_LghtPlat_2"
                    },
                    "indices": "accessor_buffer_LghtPlat_4",
                    "material": "material_Glow",
                    "mode": 4
                }
            ]
        },
        "mesh_TurqPlat": {
            "name": "TurqPlat",
            "primitives": [
                {
                    "attributes": {
                        "NORMAL": "accessor_buffer_TurqPlat_1",
                        "POSITION": "accessor_buffer_TurqPlat_0",
                        "TEXCOORD_0": "accessor_buffer_TurqPlat_2"
                    },
                    "indices": "accessor_buffer_TurqPlat_3",
                    "material": "material_Glass",
                    "mode": 4
                }
            ]
        }
    },
    "nodes": {
        "node_LghtPlat": {
            "children": [],
            "matrix": [
                1.0,
                0.0,
                0.0,
                0.0,
                0.0,
                -1.6292068494294654e-07,
                1.0,
                0.0,
                0.0,
                -1.0,
                -1.6292068494294654e-07,
                0.0,
                1.4007091522216797e-06,
                4.947185516357422e-06,
                34.29237365722656,
                1.0
            ],
            "meshes": [
                "mesh_LghtPlat"
            ],
            "name": "LghtPlat"
        },
        "node_TurqPlat": {
            "children": [],
            "matrix": [
                1.0,
                0.0,
                0.0,
                0.0,
                0.0,
                -1.6292068494294654e-07,
                1.0,
                0.0,
                0.0,
                -1.0,
                -1.6292068494294654e-07,
                0.0,
                1.4007091522216797e-06,
                4.947185516357422e-06,
                34.29237365722656,
                1.0
            ],
            "meshes": [
                "mesh_TurqPlat"
            ],
            "name": "TurqPlat"
        },
        "node_scene_Scene_root": {
            "children": [
                "node_LghtPlat",
                "node_TurqPlat"
            ],
            "matrix": [
                1.0,
                0.0,
                0.0,
                0.0,
                0.0,
                0.0,
                -1.0,
                0.0,
                0.0,
                1.0,
                0.0,
                0.0,
                0.0,
                0.0,
                0.0,
                1.0
            ],
            "name": "node_scene_Scene_root"
        }
    },
    "samplers": {
        "sampler_default": {}
    },
    "scene": "scene_Scene",
    "scenes": {
        "scene_Scene": {
            "extras": {
                "active_camera": null,
                "background_color": [
                    0.05087608844041824,
                    0.05087608844041824,
                    0.05087608844041824
                ],
                "frames_per_second": 24
            },
            "name": "Scene",
            "nodes": [
                "node_scene_Scene_root"
            ]
        }
    },
    "textures": {
        "texture_Glass": {
            "format": 6408,
            "internalFormat": 6408,
            "sampler": "sampler_default",
            "source": "image_Glass"
        },
        "texture_Platform": {
            "format": 6408,
            "internalFormat": 6408,
            "sampler": "sampler_default",
            "source": "image_Platform"
        }
    }
}
