{
    "accessors": {
        "accessor_buffer_Cube.026_0": {
            "bufferView": "bufferView_buffer_Cube.026_0",
            "byteOffset": 0,
            "byteStride": 12,
            "componentType": 5126,
            "count": 64,
            "max": [
                25.711835861206055,
                1.1908506155014038,
                1.6809735298156738
            ],
            "min": [
                -25.711835861206055,
                -0.5328938364982605,
                0.009338616393506527
            ],
            "type": "VEC3"
        },
        "accessor_buffer_Cube.026_1": {
            "bufferView": "bufferView_buffer_Cube.026_0",
            "byteOffset": 768,
            "byteStride": 12,
            "componentType": 5126,
            "count": 64,
            "max": [
                1.0,
                1.0,
                0.002402832265943289
            ],
            "min": [
                -1.0,
                -1.0,
                -1.0
            ],
            "type": "VEC3"
        },
        "accessor_buffer_Cube.026_2": {
            "bufferView": "bufferView_buffer_Cube.026_0",
            "byteOffset": 1536,
            "byteStride": 8,
            "componentType": 5126,
            "count": 64,
            "max": [
                0.9796289205551147,
                0.9988359386334196
            ],
            "min": [
                0.00652688043192029,
                0.001164078712463379
            ],
            "type": "VEC2"
        },
        "accessor_buffer_Cube.026_3": {
            "bufferView": "bufferView_buffer_Cube.026_1",
            "byteOffset": 0,
            "byteStride": 2,
            "componentType": 5123,
            "count": 102,
            "max": [
                63
            ],
            "min": [
                0
            ],
            "type": "SCALAR"
        }
    },
    "asset": {
        "profile": {
            "api": "WebGL",
            "version": "1.0.3"
        },
        "version": "1.0"
    },
    "bufferViews": {
        "bufferView_buffer_Cube.026_0": {
            "buffer": "buffer_combined",
            "byteLength": 2048,
            "byteOffset": 0,
            "target": 34962
        },
        "bufferView_buffer_Cube.026_1": {
            "buffer": "buffer_combined",
            "byteLength": 204,
            "byteOffset": 2048,
            "target": 34963
        }
    },
    "buffers": {
        "buffer_combined": {
            "byteLength": 2252,
            "type": "arraybuffer",
            "uri": "data:text/plain;base64,"
        }
    },
    "extensions": {
        "KHR_materials_common": {
            "lights": {}
        }
    },
    "extensionsUsed": [
        "KHR_materials_common"
    ],
    "images": {
        "image_Room": {
            "uri": "Room.png"
        }
    },
    "materials": {
        "material_Room": {
            "extensions": {
                "KHR_materials_common": {
                    "technique": "PHONG",
                    "values": {
                        "ambient": [
                            1.0,
                            1.0,
                            1.0,
                            1.0
                        ],
                        "diffuse": "texture_Room",
                        "doubleSided": false,
                        "emission": [
                            0.0,
                            0.0,
                            0.0,
                            1.0
                        ],
                        "shininess": 50,
                        "specular": [
                            0.5,
                            0.5,
                            0.5,
                            1.0
                        ],
                        "transparency": 1.0,
                        "transparent": false
                    }
                }
            },
            "name": "Room"
        }
    },
    "meshes": {
        "mesh_Cube.026": {
            "name": "Cube.026",
            "primitives": [
                {
                    "attributes": {
                        "NORMAL": "accessor_buffer_Cube.026_1",
                        "POSITION": "accessor_buffer_Cube.026_0",
                        "TEXCOORD_0": "accessor_buffer_Cube.026_2"
                    },
                    "indices": "accessor_buffer_Cube.026_3",
                    "material": "material_Room",
                    "mode": 4
                }
            ]
        }
    },
    "nodes": {
        "node_BowlingRoomWalls": {
            "children": [],
            "matrix": [
                1.0707520246505737,
                0.0,
                0.0,
                0.0,
                0.0,
                22.518556594848633,
                0.0,
                0.0,
                0.0,
                0.0,
                5.354085922241211,
                0.0,
                0.0,
                0.0,
                2.384185791015625e-07,
                1.0
            ],
            "meshes": [
                "mesh_Cube.026"
            ],
            "name": "BowlingRoomWalls"
        },
        "node_scene_Scene_root": {
            "children": [
                "node_BowlingRoomWalls"
            ],
            "matrix": [
                1.0,
                0.0,
                0.0,
                0.0,
                0.0,
                0.0,
                -1.0,
                0.0,
                0.0,
                1.0,
                0.0,
                0.0,
                0.0,
                0.0,
                0.0,
                1.0
            ],
            "name": "node_scene_Scene_root"
        }
    },
    "samplers": {
        "sampler_default": {}
    },
    "scene": "scene_Scene",
    "scenes": {
        "scene_Scene": {
            "extras": {
                "active_camera": null,
                "background_color": [
                    0.06071869283914566,
                    0.06071869283914566,
                    0.06071869283914566
                ],
                "frames_per_second": 24
            },
            "name": "Scene",
            "nodes": [
                "node_scene_Scene_root"
            ]
        }
    },
    "textures": {
        "texture_Room": {
            "format": 6408,
            "internalFormat": 6408,
            "sampler": "sampler_default",
            "source": "image_Room"
        }
    }
}
