{
    "accessors" : [
        {
            "bufferView" : 0, 
            "componentType" : 5121, 
            "count" : 192, 
            "max" : [
                123
            ], 
            "min" : [
                0
            ], 
            "type" : "SCALAR"
        }, 
        {
            "bufferView" : 1, 
            "componentType" : 5126, 
            "count" : 124, 
            "max" : [
                25.711835861206055, 
                1.6809735298156738, 
                0.5328938364982605
            ], 
            "min" : [
                -25.711835861206055, 
                0.009338616393506527, 
                -1.660447597503662
            ], 
            "type" : "VEC3"
        }, 
        {
            "bufferView" : 2, 
            "componentType" : 5126, 
            "count" : 124, 
            "max" : [
                0.9796289205551147, 
                1.0
            ], 
            "min" : [
                0.0, 
                0.001164078712463379
            ], 
            "type" : "VEC2"
        }
    ], 
    "asset" : {
        "copyright" : "Zerithax & Arkker @ fuck you for reading this", 
        "generator" : "Khronos Blender glTF 2.0 exporter", 
        "version" : "2.0"
    }, 
    "bufferViews" : [
        {
            "buffer" : 0, 
            "byteLength" : 192, 
            "byteOffset" : 0, 
            "target" : 34963
        }, 
        {
            "buffer" : 0, 
            "byteLength" : 1488, 
            "byteOffset" : 192, 
            "target" : 34962
        }, 
        {
            "buffer" : 0, 
            "byteLength" : 992, 
            "byteOffset" : 1680, 
            "target" : 34962
        }
    ], 
    "buffers" : [
        {
            "byteLength" : 2672, 
            "uri" : "data:application/octet-stream;base64,"
        }
    ], 
    "images" : [
        {
            "uri" : "data:image/png;base64,"
        }
    ], 
    "materials" : [
        {
            "name" : "Room", 
            "pbrMetallicRoughness" : {
                "baseColorFactor" : [
                    0.117840899792923, 
                    0.117840899792923, 
                    0.117840899792923, 
                    1.0
                ], 
                "baseColorTexture" : {
                    "index" : 0
                }, 
                "metallicFactor" : 0.0
            }
        }
    ], 
    "meshes" : [
        {
            "name" : "Cube.026", 
            "primitives" : [
                {
                    "attributes" : {
                        "POSITION" : 1, 
                        "TEXCOORD_0" : 2
                    }, 
                    "indices" : 0, 
                    "material" : 0
                }
            ]
        }
    ], 
    "nodes" : [
        {
            "name" : "BowlingRoomWalls", 
            "scale" : [
                1.0707520246505737, 
                5.354085922241211, 
                22.518556594848633
            ], 
            "translation" : [
                0.0, 
                2.384185791015625e-07, 
                -0.0
            ]
        }
    ], 
    "samplers" : [
        {}
    ], 
    "scene" : 0, 
    "scenes" : [
        {
            "name" : "Scene", 
            "nodes" : [
                0
            ]
        }
    ], 
    "textures" : [
        {
            "sampler" : 0, 
            "source" : 0
        }
    ]
}
