{
    "accessors": {
        "accessor_buffer_Plane.016_0": {
            "bufferView": "bufferView_buffer_Plane.016_0",
            "byteOffset": 0,
            "byteStride": 12,
            "componentType": 5126,
            "count": 4,
            "max": [
                1.0,
                0.9992016553878784,
                0
            ],
            "min": [
                -1.0,
                -0.9992016553878784,
                0.0
            ],
            "type": "VEC3"
        },
        "accessor_buffer_Plane.016_1": {
            "bufferView": "bufferView_buffer_Plane.016_0",
            "byteOffset": 48,
            "byteStride": 12,
            "componentType": 5126,
            "count": 4,
            "max": [
                0,
                0,
                0.9999999403953552
            ],
            "min": [
                0.0,
                0.0,
                0.9999999403953552
            ],
            "type": "VEC3"
        },
        "accessor_buffer_Plane.016_2": {
            "bufferView": "bufferView_buffer_Plane.016_0",
            "byteOffset": 96,
            "byteStride": 8,
            "componentType": 5126,
            "count": 4,
            "max": [
                0.9854369163513184,
                0.9854368949308991
            ],
            "min": [
                0.014563105069100857,
                0.01456308364868164
            ],
            "type": "VEC2"
        },
        "accessor_buffer_Plane.016_3": {
            "bufferView": "bufferView_buffer_Plane.016_1",
            "byteOffset": 0,
            "byteStride": 2,
            "componentType": 5123,
            "count": 6,
            "max": [
                3
            ],
            "min": [
                0
            ],
            "type": "SCALAR"
        }
    },
    "asset": {
        "profile": {
            "api": "WebGL",
            "version": "1.0.3"
        },
        "version": "1.0"
    },
    "bufferViews": {
        "bufferView_buffer_Plane.016_0": {
            "buffer": "buffer_combined",
            "byteLength": 128,
            "byteOffset": 0,
            "target": 34962
        },
        "bufferView_buffer_Plane.016_1": {
            "buffer": "buffer_combined",
            "byteLength": 12,
            "byteOffset": 128,
            "target": 34963
        }
    },
    "buffers": {
        "buffer_combined": {
            "byteLength": 140,
            "type": "arraybuffer",
            "uri": "data:text/plain;base64,"
        }
    },
    "extensions": {
        "KHR_materials_common": {
            "lights": {}
        }
    },
    "extensionsUsed": [
        "KHR_materials_common"
    ],
    "images": {
        "image_RunwayLightsAlpha.png": {
            "uri": "RunwayLightsAlpha.png"
        }
    },
    "materials": {
        "material_RunwayLights": {
            "extensions": {
                "KHR_materials_common": {
                    "technique": "PHONG",
                    "values": {
                        "ambient": [
                            1.0,
                            1.0,
                            1.0,
                            1.0
                        ],
                        "diffuse": "texture_RunwayLights",
                        "doubleSided": false,
                        "emission": [
                            0.0,
                            0.0,
                            0.0,
                            1.0
                        ],
                        "shininess": 50,
                        "specular": [
                            0.5,
                            0.5,
                            0.5,
                            1.0
                        ],
                        "transparency": 1.0,
                        "transparent": true
                    }
                }
            },
            "name": "RunwayLights"
        }
    },
    "meshes": {
        "mesh_Plane.016": {
            "name": "Plane.016",
            "primitives": [
                {
                    "attributes": {
                        "NORMAL": "accessor_buffer_Plane.016_1",
                        "POSITION": "accessor_buffer_Plane.016_0",
                        "TEXCOORD_0": "accessor_buffer_Plane.016_2"
                    },
                    "indices": "accessor_buffer_Plane.016_3",
                    "material": "material_RunwayLights",
                    "mode": 4
                }
            ]
        }
    },
    "nodes": {
        "node_Runway.003": {
            "children": [],
            "matrix": [
                1.25,
                0.0,
                0.0,
                0.0,
                0.0,
                12.0,
                0.0,
                0.0,
                0.0,
                0.0,
                1.0,
                0.0,
                0.0,
                -0.009580135345458984,
                0.10999999940395355,
                1.0
            ],
            "meshes": [
                "mesh_Plane.016"
            ],
            "name": "Runway.003"
        },
        "node_scene_Scene_root": {
            "children": [
                "node_Runway.003"
            ],
            "matrix": [
                1.0,
                0.0,
                0.0,
                0.0,
                0.0,
                0.0,
                -1.0,
                0.0,
                0.0,
                1.0,
                0.0,
                0.0,
                0.0,
                0.0,
                0.0,
                1.0
            ],
            "name": "node_scene_Scene_root"
        }
    },
    "samplers": {
        "sampler_default": {}
    },
    "scene": "scene_Scene",
    "scenes": {
        "scene_Scene": {
            "extras": {
                "active_camera": null,
                "background_color": [
                    0.06071869283914566,
                    0.06071869283914566,
                    0.06071869283914566
                ],
                "frames_per_second": 24
            },
            "name": "Scene",
            "nodes": [
                "node_scene_Scene_root"
            ]
        }
    },
    "textures": {
        "texture_RunwayLights": {
            "format": 6408,
            "internalFormat": 6408,
            "sampler": "sampler_default",
            "source": "image_RunwayLightsAlpha.png"
        }
    }
}
