{
    "accessors": {
        "accessor_buffer_Plane.014_0": {
            "bufferView": "bufferView_buffer_Plane.014_0",
            "byteOffset": 0,
            "byteStride": 12,
            "componentType": 5126,
            "count": 302,
            "max": [
                3.1465094089508057,
                1.0218663215637207,
                6.9853339195251465
            ],
            "min": [
                -3.1465094089508057,
                -1.1593310832977295,
                -1.002039909362793
            ],
            "type": "VEC3"
        },
        "accessor_buffer_Plane.014_1": {
            "bufferView": "bufferView_buffer_Plane.014_0",
            "byteOffset": 3624,
            "byteStride": 12,
            "componentType": 5126,
            "count": 302,
            "max": [
                1.0,
                1.0,
                1.0
            ],
            "min": [
                -1.0,
                -1.0,
                -1.0
            ],
            "type": "VEC3"
        },
        "accessor_buffer_Plane.014_2": {
            "bufferView": "bufferView_buffer_Plane.014_0",
            "byteOffset": 7248,
            "byteStride": 8,
            "componentType": 5126,
            "count": 302,
            "max": [
                0.9951440691947937,
                0.9953218596056104
            ],
            "min": [
                0.0048559135757386684,
                0.004678130149841309
            ],
            "type": "VEC2"
        },
        "accessor_buffer_Plane.014_3": {
            "bufferView": "bufferView_buffer_Plane.014_1",
            "byteOffset": 0,
            "byteStride": 2,
            "componentType": 5123,
            "count": 6,
            "max": [
                296
            ],
            "min": [
                25
            ],
            "type": "SCALAR"
        },
        "accessor_buffer_Plane.014_4": {
            "bufferView": "bufferView_buffer_Plane.014_2",
            "byteOffset": 0,
            "byteStride": 2,
            "componentType": 5123,
            "count": 132,
            "max": [
                300
            ],
            "min": [
                4
            ],
            "type": "SCALAR"
        },
        "accessor_buffer_Plane.014_5": {
            "bufferView": "bufferView_buffer_Plane.014_3",
            "byteOffset": 0,
            "byteStride": 2,
            "componentType": 5123,
            "count": 228,
            "max": [
                295
            ],
            "min": [
                1
            ],
            "type": "SCALAR"
        },
        "accessor_buffer_Plane.014_6": {
            "bufferView": "bufferView_buffer_Plane.014_4",
            "byteOffset": 0,
            "byteStride": 2,
            "componentType": 5123,
            "count": 12,
            "max": [
                257
            ],
            "min": [
                13
            ],
            "type": "SCALAR"
        },
        "accessor_buffer_Plane.014_7": {
            "bufferView": "bufferView_buffer_Plane.014_5",
            "byteOffset": 0,
            "byteStride": 2,
            "componentType": 5123,
            "count": 114,
            "max": [
                301
            ],
            "min": [
                0
            ],
            "type": "SCALAR"
        }
    },
    "asset": {
        "profile": {
            "api": "WebGL",
            "version": "1.0.3"
        },
        "version": "1.0"
    },
    "bufferViews": {
        "bufferView_buffer_Plane.014_0": {
            "buffer": "buffer_combined",
            "byteLength": 9664,
            "byteOffset": 0,
            "target": 34962
        },
        "bufferView_buffer_Plane.014_1": {
            "buffer": "buffer_combined",
            "byteLength": 12,
            "byteOffset": 9664,
            "target": 34963
        },
        "bufferView_buffer_Plane.014_2": {
            "buffer": "buffer_combined",
            "byteLength": 264,
            "byteOffset": 9676,
            "target": 34963
        },
        "bufferView_buffer_Plane.014_3": {
            "buffer": "buffer_combined",
            "byteLength": 456,
            "byteOffset": 9940,
            "target": 34963
        },
        "bufferView_buffer_Plane.014_4": {
            "buffer": "buffer_combined",
            "byteLength": 24,
            "byteOffset": 10396,
            "target": 34963
        },
        "bufferView_buffer_Plane.014_5": {
            "buffer": "buffer_combined",
            "byteLength": 228,
            "byteOffset": 10420,
            "target": 34963
        }
    },
    "buffers": {
        "buffer_combined": {
            "byteLength": 10648,
            "type": "arraybuffer",
            "uri": "data:text/plain;base64,"
        }
    },
    "extensions": {
        "KHR_materials_common": {
            "lights": {}
        }
    },
    "extensionsUsed": [
        "KHR_materials_common"
    ],
    "images": {
        "image_Alley": {
            "uri": "Alley.png"
        },
        "image_GutterWalls.png": {
            "uri": "GutterWalls.png"
        },
        "image_z": {
            "uri": "Runway.png"
        }
    },
    "materials": {
        "material_Alley": {
            "extensions": {
                "KHR_materials_common": {
                    "technique": "PHONG",
                    "values": {
                        "ambient": [
                            1.0,
                            1.0,
                            1.0,
                            1.0
                        ],
                        "diffuse": "texture_AlleyCeiling",
                        "doubleSided": false,
                        "emission": [
                            0.0,
                            0.0,
                            0.0,
                            1.0
                        ],
                        "shininess": 50,
                        "specular": [
                            0.5,
                            0.5,
                            0.5,
                            1.0
                        ],
                        "transparency": 1.0,
                        "transparent": false
                    }
                }
            },
            "name": "Alley"
        },
        "material_GutterWallBlack": {
            "extensions": {
                "KHR_materials_common": {
                    "technique": "PHONG",
                    "values": {
                        "ambient": [
                            1.0,
                            1.0,
                            1.0,
                            1.0
                        ],
                        "diffuse": "texture_GutterWalls",
                        "doubleSided": false,
                        "emission": [
                            0.0,
                            0.0,
                            0.0,
                            1.0
                        ],
                        "shininess": 50,
                        "specular": [
                            0.5,
                            0.5,
                            0.5,
                            1.0
                        ],
                        "transparency": 1.0,
                        "transparent": false
                    }
                }
            },
            "name": "GutterWallBlack"
        },
        "material_GutterWallGlow": {
            "extensions": {
                "KHR_materials_common": {
                    "technique": "PHONG",
                    "values": {
                        "ambient": [
                            1.0,
                            1.0,
                            1.0,
                            1.0
                        ],
                        "diffuse": "texture_GutterWalls",
                        "doubleSided": false,
                        "emission": [
                            0.0,
                            0.0,
                            0.0,
                            1.0
                        ],
                        "shininess": 50,
                        "specular": [
                            0.5,
                            0.5,
                            0.5,
                            1.0
                        ],
                        "transparency": 1.0,
                        "transparent": false
                    }
                }
            },
            "name": "GutterWallGlow"
        },
        "material_ScoreboardBackGradient": {
            "extensions": {
                "KHR_materials_common": {
                    "technique": "PHONG",
                    "values": {
                        "ambient": [
                            1.0,
                            1.0,
                            1.0,
                            1.0
                        ],
                        "diffuse": "texture_ScoreboardBack",
                        "doubleSided": false,
                        "emission": [
                            0.0,
                            0.0,
                            0.0,
                            1.0
                        ],
                        "shininess": 50,
                        "specular": [
                            0.5,
                            0.5,
                            0.5,
                            1.0
                        ],
                        "transparency": 1.0,
                        "transparent": false
                    }
                }
            },
            "name": "ScoreboardBackGradient"
        },
        "material_WoodLane": {
            "extensions": {
                "KHR_materials_common": {
                    "technique": "PHONG",
                    "values": {
                        "ambient": [
                            1.0,
                            1.0,
                            1.0,
                            1.0
                        ],
                        "diffuse": "texture_Runway",
                        "doubleSided": false,
                        "emission": [
                            0.0,
                            0.0,
                            0.0,
                            1.0
                        ],
                        "shininess": 50,
                        "specular": [
                            0.5,
                            0.5,
                            0.5,
                            1.0
                        ],
                        "transparency": 1.0,
                        "transparent": false
                    }
                }
            },
            "name": "WoodLane"
        }
    },
    "meshes": {
        "mesh_Plane.014": {
            "name": "Plane.014",
            "primitives": [
                {
                    "attributes": {
                        "NORMAL": "accessor_buffer_Plane.014_1",
                        "POSITION": "accessor_buffer_Plane.014_0",
                        "TEXCOORD_0": "accessor_buffer_Plane.014_2"
                    },
                    "indices": "accessor_buffer_Plane.014_3",
                    "material": "material_WoodLane",
                    "mode": 4
                },
                {
                    "attributes": {
                        "NORMAL": "accessor_buffer_Plane.014_1",
                        "POSITION": "accessor_buffer_Plane.014_0",
                        "TEXCOORD_0": "accessor_buffer_Plane.014_2"
                    },
                    "indices": "accessor_buffer_Plane.014_4",
                    "material": "material_Alley",
                    "mode": 4
                },
                {
                    "attributes": {
                        "NORMAL": "accessor_buffer_Plane.014_1",
                        "POSITION": "accessor_buffer_Plane.014_0",
                        "TEXCOORD_0": "accessor_buffer_Plane.014_2"
                    },
                    "indices": "accessor_buffer_Plane.014_5",
                    "material": "material_GutterWallBlack",
                    "mode": 4
                },
                {
                    "attributes": {
                        "NORMAL": "accessor_buffer_Plane.014_1",
                        "POSITION": "accessor_buffer_Plane.014_0",
                        "TEXCOORD_0": "accessor_buffer_Plane.014_2"
                    },
                    "indices": "accessor_buffer_Plane.014_6",
                    "material": "material_ScoreboardBackGradient",
                    "mode": 4
                },
                {
                    "attributes": {
                        "NORMAL": "accessor_buffer_Plane.014_1",
                        "POSITION": "accessor_buffer_Plane.014_0",
                        "TEXCOORD_0": "accessor_buffer_Plane.014_2"
                    },
                    "indices": "accessor_buffer_Plane.014_7",
                    "material": "material_GutterWallGlow",
                    "mode": 4
                }
            ]
        }
    },
    "nodes": {
        "node_GutterWalls.001": {
            "children": [],
            "matrix": [
                1.25,
                0.0,
                0.0,
                0.0,
                0.0,
                12.0,
                0.0,
                0.0,
                0.0,
                0.0,
                1.0,
                0.0,
                0.0,
                -0.009579658508300781,
                0.09999990463256836,
                1.0
            ],
            "meshes": [
                "mesh_Plane.014"
            ],
            "name": "GutterWalls.001"
        },
        "node_scene_Scene_root": {
            "children": [
                "node_GutterWalls.001"
            ],
            "matrix": [
                1.0,
                0.0,
                0.0,
                0.0,
                0.0,
                0.0,
                -1.0,
                0.0,
                0.0,
                1.0,
                0.0,
                0.0,
                0.0,
                0.0,
                0.0,
                1.0
            ],
            "name": "node_scene_Scene_root"
        }
    },
    "samplers": {
        "sampler_default": {}
    },
    "scene": "scene_Scene",
    "scenes": {
        "scene_Scene": {
            "extras": {
                "active_camera": null,
                "background_color": [
                    0.06071869283914566,
                    0.06071869283914566,
                    0.06071869283914566
                ],
                "frames_per_second": 24
            },
            "name": "Scene",
            "nodes": [
                "node_scene_Scene_root"
            ]
        }
    },
    "textures": {
        "texture_AlleyCeiling": {
            "format": 6408,
            "internalFormat": 6408,
            "sampler": "sampler_default",
            "source": "image_Alley"
        },
        "texture_GutterWalls": {
            "format": 6408,
            "internalFormat": 6408,
            "sampler": "sampler_default",
            "source": "image_GutterWalls.png"
        },
        "texture_Runway": {
            "format": 6408,
            "internalFormat": 6408,
            "sampler": "sampler_default",
            "source": "image_z"
        }
    }
}
