{
    "accessors": {
        "accessor_buffer_Cube.007_0": {
            "bufferView": "bufferView_buffer_Cube.007_0",
            "byteOffset": 0,
            "byteStride": 12,
            "componentType": 5126,
            "count": 2151,
            "max": [
                307.7032470703125,
                590.8536987304688,
                136.6050567626953
            ],
            "min": [
                -590.57861328125,
                -297.2038879394531,
                -172.5940704345703
            ],
            "type": "VEC3"
        },
        "accessor_buffer_Cube.007_1": {
            "bufferView": "bufferView_buffer_Cube.007_0",
            "byteOffset": 25812,
            "byteStride": 12,
            "componentType": 5126,
            "count": 2151,
            "max": [
                1.0,
                0.9997718930244446,
                0.99992835521698
            ],
            "min": [
                -1.0,
                -1.0,
                -1.0
            ],
            "type": "VEC3"
        },
        "accessor_buffer_Cube.007_2": {
            "bufferView": "bufferView_buffer_Cube.007_0",
            "byteOffset": 51624,
            "byteStride": 8,
            "componentType": 5126,
            "count": 2151,
            "max": [
                0.997882068157196,
                0.9982080850750208
            ],
            "min": [
                0.00179191492497921,
                0.001791834831237793
            ],
            "type": "VEC2"
        },
        "accessor_buffer_Cube.007_3": {
            "bufferView": "bufferView_buffer_Cube.007_1",
            "byteOffset": 0,
            "byteStride": 2,
            "componentType": 5123,
            "count": 1719,
            "max": [
                2149
            ],
            "min": [
                0
            ],
            "type": "SCALAR"
        },
        "accessor_buffer_Cube.007_4": {
            "bufferView": "bufferView_buffer_Cube.007_2",
            "byteOffset": 0,
            "byteStride": 2,
            "componentType": 5123,
            "count": 432,
            "max": [
                2150
            ],
            "min": [
                7
            ],
            "type": "SCALAR"
        }
    },
    "asset": {
        "profile": {
            "api": "WebGL",
            "version": "1.0.3"
        },
        "version": "1.0"
    },
    "bufferViews": {
        "bufferView_buffer_Cube.007_0": {
            "buffer": "buffer_combined",
            "byteLength": 68832,
            "byteOffset": 0,
            "target": 34962
        },
        "bufferView_buffer_Cube.007_1": {
            "buffer": "buffer_combined",
            "byteLength": 3438,
            "byteOffset": 68832,
            "target": 34963
        },
        "bufferView_buffer_Cube.007_2": {
            "buffer": "buffer_combined",
            "byteLength": 864,
            "byteOffset": 72270,
            "target": 34963
        }
    },
    "buffers": {
        "buffer_combined": {
            "byteLength": 73134,
            "type": "arraybuffer",
            "uri": "data:text/plain;base64,"
        }
    },
    "extensions": {
        "KHR_materials_common": {
            "lights": {}
        }
    },
    "extensionsUsed": [
        "KHR_materials_common"
    ],
    "images": {
        "image_BGMountain3": {
            "uri": "BGMountain3.png"
        }
    },
    "materials": {
        "material_DirtBG3": {
            "extensions": {
                "KHR_materials_common": {
                    "technique": "PHONG",
                    "values": {
                        "ambient": [
                            1.0,
                            1.0,
                            1.0,
                            1.0
                        ],
                        "diffuse": "texture_BGMountain3",
                        "doubleSided": false,
                        "emission": [
                            0.0,
                            0.0,
                            0.0,
                            1.0
                        ],
                        "shininess": 50,
                        "specular": [
                            0.5,
                            0.5,
                            0.5,
                            1.0
                        ],
                        "transparency": 1.0,
                        "transparent": false
                    }
                }
            },
            "name": "DirtBG3"
        },
        "material_IceBG3": {
            "extensions": {
                "KHR_materials_common": {
                    "technique": "PHONG",
                    "values": {
                        "ambient": [
                            1.0,
                            1.0,
                            1.0,
                            1.0
                        ],
                        "diffuse": "texture_BGMountain3",
                        "doubleSided": false,
                        "emission": [
                            0.0,
                            0.0,
                            0.0,
                            1.0
                        ],
                        "shininess": 50,
                        "specular": [
                            0.5,
                            0.5,
                            0.5,
                            1.0
                        ],
                        "transparency": 1.0,
                        "transparent": false
                    }
                }
            },
            "name": "IceBG3"
        }
    },
    "meshes": {
        "mesh_Cube.007": {
            "name": "Cube.007",
            "primitives": [
                {
                    "attributes": {
                        "NORMAL": "accessor_buffer_Cube.007_1",
                        "POSITION": "accessor_buffer_Cube.007_0",
                        "TEXCOORD_0": "accessor_buffer_Cube.007_2"
                    },
                    "indices": "accessor_buffer_Cube.007_3",
                    "material": "material_DirtBG3",
                    "mode": 4
                },
                {
                    "attributes": {
                        "NORMAL": "accessor_buffer_Cube.007_1",
                        "POSITION": "accessor_buffer_Cube.007_0",
                        "TEXCOORD_0": "accessor_buffer_Cube.007_2"
                    },
                    "indices": "accessor_buffer_Cube.007_4",
                    "material": "material_IceBG3",
                    "mode": 4
                }
            ]
        }
    },
    "nodes": {
        "node_BGMountain3": {
            "children": [],
            "matrix": [
                1.0,
                0.0,
                0.0,
                0.0,
                0.0,
                1.0,
                0.0,
                0.0,
                0.0,
                0.0,
                1.0,
                0.0,
                231.90750122070312,
                -105.23077392578125,
                0.0,
                1.0
            ],
            "meshes": [
                "mesh_Cube.007"
            ],
            "name": "BGMountain3"
        },
        "node_scene_Scene_root": {
            "children": [
                "node_BGMountain3"
            ],
            "matrix": [
                1.0,
                0.0,
                0.0,
                0.0,
                0.0,
                0.0,
                -1.0,
                0.0,
                0.0,
                1.0,
                0.0,
                0.0,
                0.0,
                0.0,
                0.0,
                1.0
            ],
            "name": "node_scene_Scene_root"
        }
    },
    "samplers": {
        "sampler_default": {}
    },
    "scene": "scene_Scene",
    "scenes": {
        "scene_Scene": {
            "extras": {
                "active_camera": null,
                "background_color": [
                    0.05087608844041824,
                    0.05087608844041824,
                    0.05087608844041824
                ],
                "frames_per_second": 24
            },
            "name": "Scene",
            "nodes": [
                "node_scene_Scene_root"
            ]
        }
    },
    "textures": {
        "texture_BGMountain3": {
            "format": 6408,
            "internalFormat": 6408,
            "sampler": "sampler_default",
            "source": "image_BGMountain3"
        }
    }
}
