{
    "accessors": {
        "accessor_buffer_Cube.007_0": {
            "bufferView": "bufferView_buffer_Cube.007_0",
            "byteOffset": 0,
            "byteStride": 12,
            "componentType": 5126,
            "count": 1882,
            "max": [
                1.2684812545776367,
                2.4357457160949707,
                1.8358670473098755
            ],
            "min": [
                -2.4346115589141846,
                -1.22519850730896,
                -1.6248128414154053
            ],
            "type": "VEC3"
        },
        "accessor_buffer_Cube.007_1": {
            "bufferView": "bufferView_buffer_Cube.007_0",
            "byteOffset": 22584,
            "byteStride": 12,
            "componentType": 5126,
            "count": 1882,
            "max": [
                1.0,
                0.9995595216751099,
                1.0
            ],
            "min": [
                -1.0,
                -1.0,
                -0.9999995231628418
            ],
            "type": "VEC3"
        },
        "accessor_buffer_Cube.007_2": {
            "bufferView": "bufferView_buffer_Cube.007_0",
            "byteOffset": 45168,
            "byteStride": 8,
            "componentType": 5126,
            "count": 1882,
            "max": [
                0.9964454174041748,
                0.9964271946810186
            ],
            "min": [
                0.003554543014615774,
                0.0035727620124816895
            ],
            "type": "VEC2"
        },
        "accessor_buffer_Cube.007_3": {
            "bufferView": "bufferView_buffer_Cube.007_1",
            "byteOffset": 0,
            "byteStride": 2,
            "componentType": 5123,
            "count": 432,
            "max": [
                1879
            ],
            "min": [
                1
            ],
            "type": "SCALAR"
        },
        "accessor_buffer_Cube.007_4": {
            "bufferView": "bufferView_buffer_Cube.007_2",
            "byteOffset": 0,
            "byteStride": 2,
            "componentType": 5123,
            "count": 750,
            "max": [
                1881
            ],
            "min": [
                0
            ],
            "type": "SCALAR"
        },
        "accessor_buffer_Cube.007_5": {
            "bufferView": "bufferView_buffer_Cube.007_3",
            "byteOffset": 0,
            "byteStride": 2,
            "componentType": 5123,
            "count": 1662,
            "max": [
                1874
            ],
            "min": [
                2
            ],
            "type": "SCALAR"
        }
    },
    "asset": {
        "profile": {
            "api": "WebGL",
            "version": "1.0.3"
        },
        "version": "1.0"
    },
    "bufferViews": {
        "bufferView_buffer_Cube.007_0": {
            "buffer": "buffer_combined",
            "byteLength": 60224,
            "byteOffset": 0,
            "target": 34962
        },
        "bufferView_buffer_Cube.007_1": {
            "buffer": "buffer_combined",
            "byteLength": 864,
            "byteOffset": 60224,
            "target": 34963
        },
        "bufferView_buffer_Cube.007_2": {
            "buffer": "buffer_combined",
            "byteLength": 1500,
            "byteOffset": 61088,
            "target": 34963
        },
        "bufferView_buffer_Cube.007_3": {
            "buffer": "buffer_combined",
            "byteLength": 3324,
            "byteOffset": 62588,
            "target": 34963
        }
    },
    "buffers": {
        "buffer_combined": {
            "byteLength": 65912,
            "type": "arraybuffer",
            "uri": "data:text/plain;base64,"
        }
    },
    "extensions": {
        "KHR_materials_common": {
            "lights": {}
        }
    },
    "extensionsUsed": [
        "KHR_materials_common"
    ],
    "images": {
        "image_Ded3": {
            "uri": "BGMountain3.png"
        }
    },
    "materials": {
        "material_DirtBG3": {
            "extensions": {
                "KHR_materials_common": {
                    "technique": "PHONG",
                    "values": {
                        "ambient": [
                            1.0,
                            1.0,
                            1.0,
                            1.0
                        ],
                        "diffuse": "texture_BGMountain3",
                        "doubleSided": false,
                        "emission": [
                            0.0,
                            0.0,
                            0.0,
                            1.0
                        ],
                        "shininess": 50,
                        "specular": [
                            0.5,
                            0.5,
                            0.5,
                            1.0
                        ],
                        "transparency": 1.0,
                        "transparent": false
                    }
                }
            },
            "name": "DirtBG3"
        },
        "material_IceBG3": {
            "extensions": {
                "KHR_materials_common": {
                    "technique": "PHONG",
                    "values": {
                        "ambient": [
                            1.0,
                            1.0,
                            1.0,
                            1.0
                        ],
                        "diffuse": "texture_BGMountain3",
                        "doubleSided": false,
                        "emission": [
                            0.0,
                            0.0,
                            0.0,
                            1.0
                        ],
                        "shininess": 50,
                        "specular": [
                            0.5,
                            0.5,
                            0.5,
                            1.0
                        ],
                        "transparency": 1.0,
                        "transparent": false
                    }
                }
            },
            "name": "IceBG3"
        },
        "material_SnowBG3": {
            "extensions": {
                "KHR_materials_common": {
                    "technique": "PHONG",
                    "values": {
                        "ambient": [
                            1.0,
                            1.0,
                            1.0,
                            1.0
                        ],
                        "diffuse": "texture_BGMountain3",
                        "doubleSided": false,
                        "emission": [
                            0.0,
                            0.0,
                            0.0,
                            1.0
                        ],
                        "shininess": 50,
                        "specular": [
                            0.5,
                            0.5,
                            0.5,
                            1.0
                        ],
                        "transparency": 1.0,
                        "transparent": false
                    }
                }
            },
            "name": "SnowBG3"
        }
    },
    "meshes": {
        "mesh_Cube.007": {
            "name": "Cube.007",
            "primitives": [
                {
                    "attributes": {
                        "NORMAL": "accessor_buffer_Cube.007_1",
                        "POSITION": "accessor_buffer_Cube.007_0",
                        "TEXCOORD_0": "accessor_buffer_Cube.007_2"
                    },
                    "indices": "accessor_buffer_Cube.007_3",
                    "material": "material_IceBG3",
                    "mode": 4
                },
                {
                    "attributes": {
                        "NORMAL": "accessor_buffer_Cube.007_1",
                        "POSITION": "accessor_buffer_Cube.007_0",
                        "TEXCOORD_0": "accessor_buffer_Cube.007_2"
                    },
                    "indices": "accessor_buffer_Cube.007_4",
                    "material": "material_SnowBG3",
                    "mode": 4
                },
                {
                    "attributes": {
                        "NORMAL": "accessor_buffer_Cube.007_1",
                        "POSITION": "accessor_buffer_Cube.007_0",
                        "TEXCOORD_0": "accessor_buffer_Cube.007_2"
                    },
                    "indices": "accessor_buffer_Cube.007_5",
                    "material": "material_DirtBG3",
                    "mode": 4
                }
            ]
        }
    },
    "nodes": {
        "node_BGMountain3": {
            "children": [],
            "matrix": [
                242.57611083984375,
                0.0,
                0.0,
                0.0,
                0.0,
                242.57611083984375,
                0.0,
                0.0,
                0.0,
                0.0,
                106.22396850585938,
                0.0,
                231.90750122070312,
                -105.23077392578125,
                0.0,
                1.0
            ],
            "meshes": [
                "mesh_Cube.007"
            ],
            "name": "BGMountain3"
        },
        "node_scene_Scene_root": {
            "children": [
                "node_BGMountain3"
            ],
            "matrix": [
                1.0,
                0.0,
                0.0,
                0.0,
                0.0,
                0.0,
                -1.0,
                0.0,
                0.0,
                1.0,
                0.0,
                0.0,
                0.0,
                0.0,
                0.0,
                1.0
            ],
            "name": "node_scene_Scene_root"
        }
    },
    "samplers": {
        "sampler_default": {}
    },
    "scene": "scene_Scene",
    "scenes": {
        "scene_Scene": {
            "extras": {
                "active_camera": null,
                "background_color": [
                    0.05087608844041824,
                    0.05087608844041824,
                    0.05087608844041824
                ],
                "frames_per_second": 24
            },
            "name": "Scene",
            "nodes": [
                "node_scene_Scene_root"
            ]
        }
    },
    "textures": {
        "texture_BGMountain3": {
            "format": 6408,
            "internalFormat": 6408,
            "sampler": "sampler_default",
            "source": "image_Ded3"
        }
    }
}
