{
    "accessors": {
        "accessor_buffer_Cube.017_0": {
            "bufferView": "bufferView_buffer_Cube.017_0",
            "byteOffset": 0,
            "byteStride": 12,
            "componentType": 5126,
            "count": 390,
            "max": [
                20.121475219726562,
                18.096338272094727,
                1.117371916770935
            ],
            "min": [
                -5.859536170959473,
                -12.110386848449707,
                -5.839363098144531
            ],
            "type": "VEC3"
        },
        "accessor_buffer_Cube.017_1": {
            "bufferView": "bufferView_buffer_Cube.017_0",
            "byteOffset": 4680,
            "byteStride": 12,
            "componentType": 5126,
            "count": 390,
            "max": [
                0.9983927607536316,
                0.9981068968772888,
                1.0
            ],
            "min": [
                -0.9998563528060913,
                -0.9996601343154907,
                -1.0
            ],
            "type": "VEC3"
        },
        "accessor_buffer_Cube.017_2": {
            "bufferView": "bufferView_buffer_Cube.017_0",
            "byteOffset": 9360,
            "byteStride": 8,
            "componentType": 5126,
            "count": 390,
            "max": [
                0.9993585348129272,
                0.9992739061708562
            ],
            "min": [
                0.0006415164098143578,
                0.0007261037826538086
            ],
            "type": "VEC2"
        },
        "accessor_buffer_Cube.017_3": {
            "bufferView": "bufferView_buffer_Cube.017_1",
            "byteOffset": 0,
            "byteStride": 2,
            "componentType": 5123,
            "count": 45,
            "max": [
                384
            ],
            "min": [
                5
            ],
            "type": "SCALAR"
        },
        "accessor_buffer_Cube.017_4": {
            "bufferView": "bufferView_buffer_Cube.017_2",
            "byteOffset": 0,
            "byteStride": 2,
            "componentType": 5123,
            "count": 363,
            "max": [
                389
            ],
            "min": [
                0
            ],
            "type": "SCALAR"
        }
    },
    "asset": {
        "profile": {
            "api": "WebGL",
            "version": "1.0.3"
        },
        "version": "1.0"
    },
    "bufferViews": {
        "bufferView_buffer_Cube.017_0": {
            "buffer": "buffer_combined",
            "byteLength": 12480,
            "byteOffset": 0,
            "target": 34962
        },
        "bufferView_buffer_Cube.017_1": {
            "buffer": "buffer_combined",
            "byteLength": 90,
            "byteOffset": 12480,
            "target": 34963
        },
        "bufferView_buffer_Cube.017_2": {
            "buffer": "buffer_combined",
            "byteLength": 726,
            "byteOffset": 12570,
            "target": 34963
        }
    },
    "buffers": {
        "buffer_combined": {
            "byteLength": 13296,
            "type": "arraybuffer",
            "uri": "data:text/plain;base64,"
        }
    },
    "extensions": {
        "KHR_materials_common": {
            "lights": {}
        }
    },
    "extensionsUsed": [
        "KHR_materials_common"
    ],
    "images": {
        "image_IceBridge2": {
            "uri": "IceBridge2.png"
        }
    },
    "materials": {
        "material_IceBridge2": {
            "extensions": {
                "KHR_materials_common": {
                    "technique": "PHONG",
                    "values": {
                        "ambient": [
                            1.0,
                            1.0,
                            1.0,
                            1.0
                        ],
                        "diffuse": "texture_IceBridge2",
                        "doubleSided": false,
                        "emission": [
                            0.0,
                            0.0,
                            0.0,
                            1.0
                        ],
                        "shininess": 50,
                        "specular": [
                            0.5,
                            0.5,
                            0.5,
                            1.0
                        ],
                        "transparency": 1.0,
                        "transparent": false
                    }
                }
            },
            "name": "IceBridge2"
        },
        "material_IceBridgeSnow2": {
            "extensions": {
                "KHR_materials_common": {
                    "technique": "PHONG",
                    "values": {
                        "ambient": [
                            1.0,
                            1.0,
                            1.0,
                            1.0
                        ],
                        "diffuse": "texture_IceBridge2",
                        "doubleSided": false,
                        "emission": [
                            0.0,
                            0.0,
                            0.0,
                            1.0
                        ],
                        "shininess": 50,
                        "specular": [
                            0.5,
                            0.5,
                            0.5,
                            1.0
                        ],
                        "transparency": 1.0,
                        "transparent": false
                    }
                }
            },
            "name": "IceBridgeSnow2"
        }
    },
    "meshes": {
        "mesh_Cube.017": {
            "name": "Cube.017",
            "primitives": [
                {
                    "attributes": {
                        "NORMAL": "accessor_buffer_Cube.017_1",
                        "POSITION": "accessor_buffer_Cube.017_0",
                        "TEXCOORD_0": "accessor_buffer_Cube.017_2"
                    },
                    "indices": "accessor_buffer_Cube.017_3",
                    "material": "material_IceBridgeSnow2",
                    "mode": 4
                },
                {
                    "attributes": {
                        "NORMAL": "accessor_buffer_Cube.017_1",
                        "POSITION": "accessor_buffer_Cube.017_0",
                        "TEXCOORD_0": "accessor_buffer_Cube.017_2"
                    },
                    "indices": "accessor_buffer_Cube.017_4",
                    "material": "material_IceBridge2",
                    "mode": 4
                }
            ]
        }
    },
    "nodes": {
        "node_Ice Bridge 2": {
            "children": [],
            "matrix": [
                0.9334937334060669,
                0.35859376192092896,
                0.0,
                0.0,
                -0.35859376192092896,
                0.9334937334060669,
                0.0,
                0.0,
                0.0,
                0.0,
                1.0,
                0.0,
                16.096996307373047,
                -57.9979362487793,
                -0.500491738319397,
                1.0
            ],
            "meshes": [
                "mesh_Cube.017"
            ],
            "name": "Ice Bridge 2"
        },
        "node_scene_Scene_root": {
            "children": [
                "node_Ice Bridge 2"
            ],
            "matrix": [
                1.0,
                0.0,
                0.0,
                0.0,
                0.0,
                0.0,
                -1.0,
                0.0,
                0.0,
                1.0,
                0.0,
                0.0,
                0.0,
                0.0,
                0.0,
                1.0
            ],
            "name": "node_scene_Scene_root"
        }
    },
    "samplers": {
        "sampler_default": {}
    },
    "scene": "scene_Scene",
    "scenes": {
        "scene_Scene": {
            "extras": {
                "active_camera": null,
                "background_color": [
                    0.6738413572311401,
                    0.6738413572311401,
                    0.6738413572311401
                ],
                "frames_per_second": 24
            },
            "name": "Scene",
            "nodes": [
                "node_scene_Scene_root"
            ]
        }
    },
    "textures": {
        "texture_IceBridge2": {
            "format": 6408,
            "internalFormat": 6408,
            "sampler": "sampler_default",
            "source": "image_IceBridge2"
        }
    }
}
