{
    "accessors": {
        "accessor_buffer_Cube.014_0": {
            "bufferView": "bufferView_buffer_Cube.014_0",
            "byteOffset": 0,
            "byteStride": 12,
            "componentType": 5126,
            "count": 284,
            "max": [
                1.4873226881027222,
                1.2108790874481201,
                1.8042274713516235
            ],
            "min": [
                -1.1194337606430054,
                -1.1264551877975464,
                -1.7748874425888062
            ],
            "type": "VEC3"
        },
        "accessor_buffer_Cube.014_1": {
            "bufferView": "bufferView_buffer_Cube.014_0",
            "byteOffset": 3408,
            "byteStride": 12,
            "componentType": 5126,
            "count": 284,
            "max": [
                0.9918387532234192,
                0.9992142915725708,
                1.0
            ],
            "min": [
                -0.9999998807907104,
                -0.989894449710846,
                -1.0
            ],
            "type": "VEC3"
        },
        "accessor_buffer_Cube.014_2": {
            "bufferView": "bufferView_buffer_Cube.014_0",
            "byteOffset": 6816,
            "byteStride": 8,
            "componentType": 5126,
            "count": 284,
            "max": [
                0.995044469833374,
                0.9954901682212949
            ],
            "min": [
                0.001227900735102594,
                0.0045098066329956055
            ],
            "type": "VEC2"
        },
        "accessor_buffer_Cube.014_3": {
            "bufferView": "bufferView_buffer_Cube.014_1",
            "byteOffset": 0,
            "byteStride": 2,
            "componentType": 5123,
            "count": 21,
            "max": [
                281
            ],
            "min": [
                0
            ],
            "type": "SCALAR"
        },
        "accessor_buffer_Cube.014_4": {
            "bufferView": "bufferView_buffer_Cube.014_2",
            "byteOffset": 0,
            "byteStride": 2,
            "componentType": 5123,
            "count": 267,
            "max": [
                283
            ],
            "min": [
                1
            ],
            "type": "SCALAR"
        }
    },
    "asset": {
        "profile": {
            "api": "WebGL",
            "version": "1.0.3"
        },
        "version": "1.0"
    },
    "bufferViews": {
        "bufferView_buffer_Cube.014_0": {
            "buffer": "buffer_combined",
            "byteLength": 9088,
            "byteOffset": 0,
            "target": 34962
        },
        "bufferView_buffer_Cube.014_1": {
            "buffer": "buffer_combined",
            "byteLength": 42,
            "byteOffset": 9088,
            "target": 34963
        },
        "bufferView_buffer_Cube.014_2": {
            "buffer": "buffer_combined",
            "byteLength": 534,
            "byteOffset": 9130,
            "target": 34963
        }
    },
    "buffers": {
        "buffer_combined": {
            "byteLength": 9664,
            "type": "arraybuffer",
            "uri": "data:text/plain;base64,"
        }
    },
    "extensions": {
        "KHR_materials_common": {
            "lights": {}
        }
    },
    "extensionsUsed": [
        "KHR_materials_common"
    ],
    "images": {
        "image_IceBridge1": {
            "uri": "IceBridge1.png"
        }
    },
    "materials": {
        "material_IceBridge1": {
            "extensions": {
                "KHR_materials_common": {
                    "technique": "PHONG",
                    "values": {
                        "ambient": [
                            1.0,
                            1.0,
                            1.0,
                            1.0
                        ],
                        "diffuse": "texture_IcePlatform5",
                        "doubleSided": false,
                        "emission": [
                            0.0,
                            0.0,
                            0.0,
                            1.0
                        ],
                        "shininess": 50,
                        "specular": [
                            0.5,
                            0.5,
                            0.5,
                            1.0
                        ],
                        "transparency": 1.0,
                        "transparent": false
                    }
                }
            },
            "name": "IceBridge1"
        },
        "material_IceBridgeSnow1": {
            "extensions": {
                "KHR_materials_common": {
                    "technique": "PHONG",
                    "values": {
                        "ambient": [
                            1.0,
                            1.0,
                            1.0,
                            1.0
                        ],
                        "diffuse": "texture_IceBridge1",
                        "doubleSided": false,
                        "emission": [
                            0.0,
                            0.0,
                            0.0,
                            1.0
                        ],
                        "shininess": 50,
                        "specular": [
                            0.5,
                            0.5,
                            0.5,
                            1.0
                        ],
                        "transparency": 1.0,
                        "transparent": false
                    }
                }
            },
            "name": "IceBridgeSnow1"
        }
    },
    "meshes": {
        "mesh_Cube.014": {
            "name": "Cube.014",
            "primitives": [
                {
                    "attributes": {
                        "NORMAL": "accessor_buffer_Cube.014_1",
                        "POSITION": "accessor_buffer_Cube.014_0",
                        "TEXCOORD_0": "accessor_buffer_Cube.014_2"
                    },
                    "indices": "accessor_buffer_Cube.014_3",
                    "material": "material_IceBridgeSnow1",
                    "mode": 4
                },
                {
                    "attributes": {
                        "NORMAL": "accessor_buffer_Cube.014_1",
                        "POSITION": "accessor_buffer_Cube.014_0",
                        "TEXCOORD_0": "accessor_buffer_Cube.014_2"
                    },
                    "indices": "accessor_buffer_Cube.014_4",
                    "material": "material_IceBridge1",
                    "mode": 4
                }
            ]
        }
    },
    "nodes": {
        "node_Ice Bridge 1": {
            "children": [],
            "matrix": [
                5.222344875335693,
                -1.4214754104614258,
                0.0,
                0.0,
                3.219021797180176,
                11.826333999633789,
                0.0,
                0.0,
                0.0,
                0.0,
                0.7308416962623596,
                0.0,
                -88.55650329589844,
                -83.56903839111328,
                -0.13380621373653412,
                1.0
            ],
            "meshes": [
                "mesh_Cube.014"
            ],
            "name": "Ice Bridge 1"
        },
        "node_scene_Scene_root": {
            "children": [
                "node_Ice Bridge 1"
            ],
            "matrix": [
                1.0,
                0.0,
                0.0,
                0.0,
                0.0,
                0.0,
                -1.0,
                0.0,
                0.0,
                1.0,
                0.0,
                0.0,
                0.0,
                0.0,
                0.0,
                1.0
            ],
            "name": "node_scene_Scene_root"
        }
    },
    "samplers": {
        "sampler_default": {}
    },
    "scene": "scene_Scene",
    "scenes": {
        "scene_Scene": {
            "extras": {
                "active_camera": null,
                "background_color": [
                    0.6738413572311401,
                    0.6738413572311401,
                    0.6738413572311401
                ],
                "frames_per_second": 24
            },
            "name": "Scene",
            "nodes": [
                "node_scene_Scene_root"
            ]
        }
    },
    "textures": {
        "texture_IceBridge1": {
            "format": 6408,
            "internalFormat": 6408,
            "sampler": "sampler_default",
            "source": "image_IceBridge1"
        },
        "texture_IcePlatform5": {
            "format": 6408,
            "internalFormat": 6408,
            "sampler": "sampler_default",
            "source": "image_IceBridge1"
        }
    }
}
