{
    "accessors": {
        "accessor_buffer_Ice Platform 3_0": {
            "bufferView": "bufferView_buffer_Ice Platform 3_0",
            "byteOffset": 0,
            "byteStride": 12,
            "componentType": 5126,
            "count": 192,
            "max": [
                0.8178119659423828,
                0.9470927715301514,
                1.4229285717010498
            ],
            "min": [
                -1.3983731269836426,
                -0.976134717464447,
                -0.5833353996276855
            ],
            "type": "VEC3"
        },
        "accessor_buffer_Ice Platform 3_1": {
            "bufferView": "bufferView_buffer_Ice Platform 3_0",
            "byteOffset": 2304,
            "byteStride": 12,
            "componentType": 5126,
            "count": 192,
            "max": [
                0.9965539574623108,
                1.0,
                1.0
            ],
            "min": [
                -0.9973351359367371,
                -0.9930518865585327,
                -1.0
            ],
            "type": "VEC3"
        },
        "accessor_buffer_Ice Platform 3_2": {
            "bufferView": "bufferView_buffer_Ice Platform 3_0",
            "byteOffset": 4608,
            "byteStride": 8,
            "componentType": 5126,
            "count": 192,
            "max": [
                0.9938130974769592,
                0.9937722813338041
            ],
            "min": [
                0.006186962593346834,
                0.006227731704711914
            ],
            "type": "VEC2"
        },
        "accessor_buffer_Ice Platform 3_3": {
            "bufferView": "bufferView_buffer_Ice Platform 3_1",
            "byteOffset": 0,
            "byteStride": 2,
            "componentType": 5123,
            "count": 288,
            "max": [
                191
            ],
            "min": [
                0
            ],
            "type": "SCALAR"
        }
    },
    "asset": {
        "profile": {
            "api": "WebGL",
            "version": "1.0.3"
        },
        "version": "1.0"
    },
    "bufferViews": {
        "bufferView_buffer_Ice Platform 3_0": {
            "buffer": "buffer_combined",
            "byteLength": 6144,
            "byteOffset": 0,
            "target": 34962
        },
        "bufferView_buffer_Ice Platform 3_1": {
            "buffer": "buffer_combined",
            "byteLength": 576,
            "byteOffset": 6144,
            "target": 34963
        }
    },
    "buffers": {
        "buffer_combined": {
            "byteLength": 6720,
            "type": "arraybuffer",
            "uri": "data:text/plain;base64,"
        }
    },
    "extensions": {
        "KHR_materials_common": {
            "lights": {}
        }
    },
    "extensionsUsed": [
        "KHR_materials_common"
    ],
    "images": {
        "image_IcePlatform3": {
            "uri": "IcePlatform3.png"
        }
    },
    "materials": {
        "material_IcePlat3": {
            "extensions": {
                "KHR_materials_common": {
                    "technique": "PHONG",
                    "values": {
                        "ambient": [
                            1.0,
                            1.0,
                            1.0,
                            1.0
                        ],
                        "diffuse": "texture_IcePlatform3",
                        "doubleSided": false,
                        "emission": [
                            0.0,
                            0.0,
                            0.0,
                            1.0
                        ],
                        "shininess": 50,
                        "specular": [
                            0.5,
                            0.5,
                            0.5,
                            1.0
                        ],
                        "transparency": 1.0,
                        "transparent": false
                    }
                }
            },
            "name": "IcePlat3"
        }
    },
    "meshes": {
        "mesh_Ice Platform 3": {
            "name": "Ice Platform 3",
            "primitives": [
                {
                    "attributes": {
                        "NORMAL": "accessor_buffer_Ice Platform 3_1",
                        "POSITION": "accessor_buffer_Ice Platform 3_0",
                        "TEXCOORD_0": "accessor_buffer_Ice Platform 3_2"
                    },
                    "indices": "accessor_buffer_Ice Platform 3_3",
                    "material": "material_IcePlat3",
                    "mode": 4
                }
            ]
        }
    },
    "nodes": {
        "node_Ice Platform 3": {
            "children": [],
            "matrix": [
                5.169231414794922,
                1.2854644060134888,
                0.0,
                0.0,
                -1.2854644060134888,
                5.169231414794922,
                0.0,
                0.0,
                0.0,
                0.0,
                0.5761945247650146,
                0.0,
                -14.267485618591309,
                -68.74200439453125,
                -0.056517839431762695,
                1.0
            ],
            "meshes": [
                "mesh_Ice Platform 3"
            ],
            "name": "Ice Platform 3"
        },
        "node_scene_Scene_root": {
            "children": [
                "node_Ice Platform 3"
            ],
            "matrix": [
                1.0,
                0.0,
                0.0,
                0.0,
                0.0,
                0.0,
                -1.0,
                0.0,
                0.0,
                1.0,
                0.0,
                0.0,
                0.0,
                0.0,
                0.0,
                1.0
            ],
            "name": "node_scene_Scene_root"
        }
    },
    "samplers": {
        "sampler_default": {}
    },
    "scene": "scene_Scene",
    "scenes": {
        "scene_Scene": {
            "extras": {
                "active_camera": null,
                "background_color": [
                    0.05087608844041824,
                    0.05087608844041824,
                    0.05087608844041824
                ],
                "frames_per_second": 24
            },
            "name": "Scene",
            "nodes": [
                "node_scene_Scene_root"
            ]
        }
    },
    "textures": {
        "texture_IcePlatform3": {
            "format": 6408,
            "internalFormat": 6408,
            "sampler": "sampler_default",
            "source": "image_IcePlatform3"
        }
    }
}
