{
    "accessors": {
        "accessor_buffer_Cube.026_0": {
            "bufferView": "bufferView_buffer_Cube.026_0",
            "byteOffset": 0,
            "byteStride": 12,
            "componentType": 5126,
            "count": 24,
            "max": [
                1.0000009536743164,
                0.4249765872955322,
                1.0
            ],
            "min": [
                -0.9999995231628418,
                -0.42497718334198,
                -1.0
            ],
            "type": "VEC3"
        },
        "accessor_buffer_Cube.026_1": {
            "bufferView": "bufferView_buffer_Cube.026_0",
            "byteOffset": 288,
            "byteStride": 12,
            "componentType": 5126,
            "count": 24,
            "max": [
                0.9999999403953552,
                1.0,
                0.9999999403953552
            ],
            "min": [
                -0.9999999403953552,
                -1.0,
                -0.9999999403953552
            ],
            "type": "VEC3"
        },
        "accessor_buffer_Cube.026_2": {
            "bufferView": "bufferView_buffer_Cube.026_0",
            "byteOffset": 576,
            "byteStride": 8,
            "componentType": 5126,
            "count": 24,
            "max": [
                0.9951456189155579,
                0.9951456319540739
            ],
            "min": [
                0.004854368045926094,
                0.004854321479797363
            ],
            "type": "VEC2"
        },
        "accessor_buffer_Cube.026_3": {
            "bufferView": "bufferView_buffer_Cube.026_1",
            "byteOffset": 0,
            "byteStride": 2,
            "componentType": 5123,
            "count": 36,
            "max": [
                23
            ],
            "min": [
                0
            ],
            "type": "SCALAR"
        }
    },
    "asset": {
        "profile": {
            "api": "WebGL",
            "version": "1.0.3"
        },
        "version": "1.0"
    },
    "bufferViews": {
        "bufferView_buffer_Cube.026_0": {
            "buffer": "buffer_combined",
            "byteLength": 768,
            "byteOffset": 0,
            "target": 34962
        },
        "bufferView_buffer_Cube.026_1": {
            "buffer": "buffer_combined",
            "byteLength": 72,
            "byteOffset": 768,
            "target": 34963
        }
    },
    "buffers": {
        "buffer_combined": {
            "byteLength": 840,
            "type": "arraybuffer",
            "uri": "data:text/plain;base64,"
        }
    },
    "extensions": {
        "KHR_materials_common": {
            "lights": {}
        }
    },
    "extensionsUsed": [
        "KHR_materials_common"
    ],
    "images": {
        "image_SpawnLight.png": {
            "uri": "SpawnLight.png"
        }
    },
    "materials": {
        "material_SpawnGlow": {
            "extensions": {
                "KHR_materials_common": {
                    "technique": "PHONG",
                    "values": {
                        "ambient": [
                            1.0,
                            1.0,
                            1.0,
                            1.0
                        ],
                        "diffuse": "texture_SpawnLight",
                        "doubleSided": false,
                        "emission": [
                            0.0,
                            0.0,
                            0.0,
                            1.0
                        ],
                        "shininess": 50,
                        "specular": [
                            0.5,
                            0.5,
                            0.5,
                            1.0
                        ],
                        "transparency": 1.0,
                        "transparent": false
                    }
                }
            },
            "name": "SpawnGlow"
        }
    },
    "meshes": {
        "mesh_Cube.026": {
            "name": "Cube.026",
            "primitives": [
                {
                    "attributes": {
                        "NORMAL": "accessor_buffer_Cube.026_1",
                        "POSITION": "accessor_buffer_Cube.026_0",
                        "TEXCOORD_0": "accessor_buffer_Cube.026_2"
                    },
                    "indices": "accessor_buffer_Cube.026_3",
                    "material": "material_SpawnGlow",
                    "mode": 4
                }
            ]
        }
    },
    "nodes": {
        "node_SpawnLight2": {
            "children": [],
            "matrix": [
                -0.19586195051670074,
                -0.35657167434692383,
                0.0,
                0.0,
                0.6609528064727783,
                -0.3630560636520386,
                0.0,
                0.0,
                0.0,
                0.0,
                0.30901670455932617,
                0.0,
                25.058908462524414,
                -194.5597686767578,
                27.58124351501465,
                1.0
            ],
            "meshes": [
                "mesh_Cube.026"
            ],
            "name": "SpawnLight2"
        },
        "node_scene_Scene_root": {
            "children": [
                "node_SpawnLight2"
            ],
            "matrix": [
                1.0,
                0.0,
                0.0,
                0.0,
                0.0,
                0.0,
                -1.0,
                0.0,
                0.0,
                1.0,
                0.0,
                0.0,
                0.0,
                0.0,
                0.0,
                1.0
            ],
            "name": "node_scene_Scene_root"
        }
    },
    "samplers": {
        "sampler_default": {}
    },
    "scene": "scene_Scene",
    "scenes": {
        "scene_Scene": {
            "extras": {
                "active_camera": null,
                "background_color": [
                    0.6738413572311401,
                    0.6738413572311401,
                    0.6738413572311401
                ],
                "frames_per_second": 24
            },
            "name": "Scene",
            "nodes": [
                "node_scene_Scene_root"
            ]
        }
    },
    "textures": {
        "texture_SpawnLight": {
            "format": 6408,
            "internalFormat": 6408,
            "sampler": "sampler_default",
            "source": "image_SpawnLight.png"
        }
    }
}
