{
    "accessors" : [
        {
            "bufferView" : 0, 
            "componentType" : 5123, 
            "count" : 900, 
            "max" : [
                537
            ], 
            "min" : [
                0
            ], 
            "type" : "SCALAR"
        }, 
        {
            "bufferView" : 1, 
            "componentType" : 5126, 
            "count" : 538, 
            "max" : [
                1.0000046491622925, 
                1.0000001192092896, 
                0.6640735268592834
            ], 
            "min" : [
                -0.9999953508377075, 
                -0.9999998807907104, 
                -0.6640735268592834
            ], 
            "type" : "VEC3"
        }, 
        {
            "bufferView" : 2, 
            "componentType" : 5126, 
            "count" : 538, 
            "max" : [
                0.9986266493797302, 
                0.999969482421875, 
                0.999969482421875
            ], 
            "min" : [
                -0.9986266493797302, 
                -0.999969482421875, 
                -0.999969482421875
            ], 
            "type" : "VEC3"
        }, 
        {
            "bufferView" : 3, 
            "componentType" : 5126, 
            "count" : 538, 
            "max" : [
                0.9968944191932678, 
                0.9968944098800421
            ], 
            "min" : [
                0.003105590119957924, 
                0.0031055808067321777
            ], 
            "type" : "VEC2"
        }
    ], 
    "asset" : {
        "generator" : "Khronos Blender glTF 2.0 exporter", 
        "version" : "2.0"
    }, 
    "bufferViews" : [
        {
            "buffer" : 0, 
            "byteLength" : 1800, 
            "byteOffset" : 0, 
            "target" : 34963
        }, 
        {
            "buffer" : 0, 
            "byteLength" : 6456, 
            "byteOffset" : 1800, 
            "target" : 34962
        }, 
        {
            "buffer" : 0, 
            "byteLength" : 6456, 
            "byteOffset" : 8256, 
            "target" : 34962
        }, 
        {
            "buffer" : 0, 
            "byteLength" : 4304, 
            "byteOffset" : 14712, 
            "target" : 34962
        }
    ], 
    "buffers" : [
        {
            "byteLength" : 19016, 
            "uri" : "data:application/octet-stream;base64,"
        }
    ], 
    "images" : [
        {
            "uri" : "Frame.png"
        }
    ], 
    "materials" : [
        {
            "name" : "Frame", 
            "pbrMetallicRoughness" : {
                "baseColorFactor" : [
                    0.800000011920929, 
                    0.800000011920929, 
                    0.800000011920929, 
                    1.0
                ], 
                "baseColorTexture" : {
                    "index" : 0
                }, 
                "metallicFactor" : 0.0
            }
        }
    ], 
    "meshes" : [
        {
            "name" : "Cube", 
            "primitives" : [
                {
                    "attributes" : {
                        "NORMAL" : 2, 
                        "POSITION" : 1, 
                        "TEXCOORD_0" : 3
                    }, 
                    "indices" : 0, 
                    "material" : 0
                }
            ]
        }
    ], 
    "nodes" : [
        {
            "mesh" : 0, 
            "name" : "Frame", 
            "scale" : [
                1.0, 
                1.0, 
                0.4000000059604645
            ], 
            "translation" : [
                0.0, 
                -1.4049666674509353e-07, 
                -3.766227774093522e-09
            ]
        }
    ], 
    "samplers" : [
        {}
    ], 
    "scene" : 0, 
    "scenes" : [
        {
            "name" : "Scene", 
            "nodes" : [
                0
            ]
        }
    ], 
    "textures" : [
        {
            "sampler" : 0, 
            "source" : 0
        }
    ]
}
