# Blender v2.78 (sub 0) OBJ File: 'Hub.blend'
# www.blender.org
mtllib Room.mtl
o Cylinder_Cylinder.003
v 0.000000 0.000000 0.000000
v 0.000000 1.500000 0.000000
v 0.000000 0.000000 -0.885215
v 0.000000 1.500000 -0.885215
v 0.520316 0.000000 -0.716154
v 0.520316 1.500000 -0.716154
v 0.841889 0.000000 -0.273546
v 0.841889 1.500000 -0.273546
v 0.841889 0.000000 0.273546
v 0.841889 1.500000 0.273546
v 0.520316 0.000000 0.716154
v 0.520316 1.500000 0.716154
v -0.000000 0.000000 0.885215
v -0.000000 1.500000 0.885215
v -0.520316 0.000000 0.716154
v -0.520316 1.500000 0.716154
v -0.841889 0.000000 0.273546
v -0.841889 1.500000 0.273546
v -0.841889 0.000000 -0.273546
v -0.841889 1.500000 -0.273546
v -0.520316 0.000000 -0.716154
v -0.520316 1.500000 -0.716154
vt 0.5214 0.2500
vt 0.6288 0.0477
vt 0.6952 0.1727
vt 0.1738 0.2500
vt 0.0000 0.3273
vt 0.0000 0.1727
vt 0.3871 1.0000
vt 0.2957 1.0000
vt 0.2957 0.5000
vt 0.3871 0.5000
vt 0.5214 0.0000
vt 0.0664 0.0477
vt 0.2043 1.0000
vt 0.2043 0.5000
vt 0.4140 0.0477
vt 0.1738 0.0000
vt 0.0914 1.0000
vt 0.0914 0.5000
vt 0.3476 0.1727
vt 0.2812 0.0477
vt 0.0000 1.0000
vt 0.0000 0.5000
vt 0.3476 0.3273
vt 0.3476 0.1727
vt 1.0000 1.0000
vt 0.8871 1.0000
vt 0.8871 0.5000
vt 1.0000 0.5000
vt 0.4140 0.4523
vt 0.3476 0.3273
vt 0.7957 1.0000
vt 0.7957 0.5000
vt 0.5214 0.5000
vt 0.2812 0.4523
vt 0.7043 1.0000
vt 0.7043 0.5000
vt 0.6288 0.4523
vt 0.1738 0.5000
vt 0.5914 1.0000
vt 0.5914 0.5000
vt 0.6952 0.3273
vt 0.0664 0.4523
vt 0.5000 1.0000
vt 0.5000 0.5000
vn 0.0000 1.0000 0.0000
vn 0.0000 -1.0000 0.0000
vn -0.3090 0.0000 0.9511
vn -0.8090 0.0000 0.5878
vn -1.0000 0.0000 0.0000
vn -0.8090 0.0000 -0.5878
vn -0.3090 0.0000 -0.9511
vn 0.3090 0.0000 -0.9511
vn 0.8090 0.0000 -0.5878
vn 1.0000 0.0000 0.0000
vn 0.8090 0.0000 0.5878
vn 0.3090 0.0000 0.9511
usemtl Material.004
s off
f 1/1/1 5/2/1 3/3/1
f 2/4/2 4/5/2 6/6/2
f 3/7/3 5/8/3 6/9/3 4/10/3
f 1/1/1 7/11/1 5/2/1
f 2/4/2 6/6/2 8/12/2
f 5/8/4 7/13/4 8/14/4 6/9/4
f 1/1/1 9/15/1 7/11/1
f 2/4/2 8/12/2 10/16/2
f 7/13/5 9/17/5 10/18/5 8/14/5
f 1/1/1 11/19/1 9/15/1
f 2/4/2 10/16/2 12/20/2
f 9/17/6 11/21/6 12/22/6 10/18/6
f 1/1/1 13/23/1 11/19/1
f 2/4/2 12/20/2 14/24/2
f 11/25/7 13/26/7 14/27/7 12/28/7
f 1/1/1 15/29/1 13/23/1
f 2/4/2 14/24/2 16/30/2
f 13/26/8 15/31/8 16/32/8 14/27/8
f 1/1/1 17/33/1 15/29/1
f 2/4/2 16/30/2 18/34/2
f 15/31/9 17/35/9 18/36/9 16/32/9
f 1/1/1 19/37/1 17/33/1
f 2/4/2 18/34/2 20/38/2
f 17/35/10 19/39/10 20/40/10 18/36/10
f 1/1/1 21/41/1 19/37/1
f 2/4/2 20/38/2 22/42/2
f 19/39/11 21/43/11 22/44/11 20/40/11
f 1/1/1 3/3/1 21/41/1
f 2/4/2 22/42/2 4/5/2
f 21/43/12 3/7/12 4/10/12 22/44/12
