{
    "accessors": {
        "accessor_buffer_Cube.018_0": {
            "bufferView": "bufferView_buffer_Cube.018_0",
            "byteOffset": 0,
            "byteStride": 12,
            "componentType": 5126,
            "count": 954,
            "max": [
                0,
                0,
                35.56941604614258
            ],
            "min": [
                -226.08853149414062,
                -129.54135131835938,
                1.2135310173034668
            ],
            "type": "VEC3"
        },
        "accessor_buffer_Cube.018_1": {
            "bufferView": "bufferView_buffer_Cube.018_0",
            "byteOffset": 11448,
            "byteStride": 12,
            "componentType": 5126,
            "count": 954,
            "max": [
                0.9997203350067139,
                0.9973596930503845,
                0.9996108412742615
            ],
            "min": [
                -0.9820420145988464,
                -0.9794078469276428,
                -0.9905045032501221
            ],
            "type": "VEC3"
        },
        "accessor_buffer_Cube.018_2": {
            "bufferView": "bufferView_buffer_Cube.018_0",
            "byteOffset": 22896,
            "byteStride": 8,
            "componentType": 5126,
            "count": 954,
            "max": [
                0.996780276298523,
                0.9985565757378936
            ],
            "min": [
                0.0014434242621064186,
                0.001443326473236084
            ],
            "type": "VEC2"
        },
        "accessor_buffer_Cube.018_3": {
            "bufferView": "bufferView_buffer_Cube.018_1",
            "byteOffset": 0,
            "byteStride": 2,
            "componentType": 5123,
            "count": 105,
            "max": [
                943
            ],
            "min": [
                7
            ],
            "type": "SCALAR"
        },
        "accessor_buffer_Cube.018_4": {
            "bufferView": "bufferView_buffer_Cube.018_2",
            "byteOffset": 0,
            "byteStride": 2,
            "componentType": 5123,
            "count": 687,
            "max": [
                952
            ],
            "min": [
                0
            ],
            "type": "SCALAR"
        },
        "accessor_buffer_Cube.018_5": {
            "bufferView": "bufferView_buffer_Cube.018_3",
            "byteOffset": 0,
            "byteStride": 2,
            "componentType": 5123,
            "count": 162,
            "max": [
                953
            ],
            "min": [
                4
            ],
            "type": "SCALAR"
        }
    },
    "asset": {
        "profile": {
            "api": "WebGL",
            "version": "1.0.3"
        },
        "version": "1.0"
    },
    "bufferViews": {
        "bufferView_buffer_Cube.018_0": {
            "buffer": "buffer_combined",
            "byteLength": 30528,
            "byteOffset": 0,
            "target": 34962
        },
        "bufferView_buffer_Cube.018_1": {
            "buffer": "buffer_combined",
            "byteLength": 210,
            "byteOffset": 30528,
            "target": 34963
        },
        "bufferView_buffer_Cube.018_2": {
            "buffer": "buffer_combined",
            "byteLength": 1374,
            "byteOffset": 30738,
            "target": 34963
        },
        "bufferView_buffer_Cube.018_3": {
            "buffer": "buffer_combined",
            "byteLength": 324,
            "byteOffset": 32112,
            "target": 34963
        }
    },
    "buffers": {
        "buffer_combined": {
            "byteLength": 32436,
            "type": "arraybuffer",
            "uri": "data:text/plain;base64,"
        }
    },
    "extensions": {
        "KHR_materials_common": {
            "lights": {}
        }
    },
    "extensionsUsed": [
        "KHR_materials_common"
    ],
    "images": {
        "image_Alcove": {
            "uri": "Alcove.png"
        }
    },
    "materials": {
        "material_AlcoveDirt": {
            "extensions": {
                "KHR_materials_common": {
                    "technique": "PHONG",
                    "values": {
                        "ambient": [
                            1.0,
                            1.0,
                            1.0,
                            1.0
                        ],
                        "diffuse": "texture_Alcove",
                        "doubleSided": false,
                        "emission": [
                            0.0,
                            0.0,
                            0.0,
                            1.0
                        ],
                        "shininess": 50,
                        "specular": [
                            0.5,
                            0.5,
                            0.5,
                            1.0
                        ],
                        "transparency": 1.0,
                        "transparent": false
                    }
                }
            },
            "name": "AlcoveDirt"
        },
        "material_AlcoveIce": {
            "extensions": {
                "KHR_materials_common": {
                    "technique": "PHONG",
                    "values": {
                        "ambient": [
                            1.0,
                            1.0,
                            1.0,
                            1.0
                        ],
                        "diffuse": "texture_Alcove",
                        "doubleSided": false,
                        "emission": [
                            0.0,
                            0.0,
                            0.0,
                            1.0
                        ],
                        "shininess": 50,
                        "specular": [
                            0.5,
                            0.5,
                            0.5,
                            1.0
                        ],
                        "transparency": 1.0,
                        "transparent": false
                    }
                }
            },
            "name": "AlcoveIce"
        },
        "material_AlcoveSnow": {
            "extensions": {
                "KHR_materials_common": {
                    "technique": "PHONG",
                    "values": {
                        "ambient": [
                            1.0,
                            1.0,
                            1.0,
                            1.0
                        ],
                        "diffuse": "texture_Alcove",
                        "doubleSided": false,
                        "emission": [
                            0.0,
                            0.0,
                            0.0,
                            1.0
                        ],
                        "shininess": 50,
                        "specular": [
                            0.5,
                            0.5,
                            0.5,
                            1.0
                        ],
                        "transparency": 1.0,
                        "transparent": false
                    }
                }
            },
            "name": "AlcoveSnow"
        }
    },
    "meshes": {
        "mesh_Cube.018": {
            "name": "Cube.018",
            "primitives": [
                {
                    "attributes": {
                        "NORMAL": "accessor_buffer_Cube.018_1",
                        "POSITION": "accessor_buffer_Cube.018_0",
                        "TEXCOORD_0": "accessor_buffer_Cube.018_2"
                    },
                    "indices": "accessor_buffer_Cube.018_3",
                    "material": "material_AlcoveDirt",
                    "mode": 4
                },
                {
                    "attributes": {
                        "NORMAL": "accessor_buffer_Cube.018_1",
                        "POSITION": "accessor_buffer_Cube.018_0",
                        "TEXCOORD_0": "accessor_buffer_Cube.018_2"
                    },
                    "indices": "accessor_buffer_Cube.018_4",
                    "material": "material_AlcoveIce",
                    "mode": 4
                },
                {
                    "attributes": {
                        "NORMAL": "accessor_buffer_Cube.018_1",
                        "POSITION": "accessor_buffer_Cube.018_0",
                        "TEXCOORD_0": "accessor_buffer_Cube.018_2"
                    },
                    "indices": "accessor_buffer_Cube.018_5",
                    "material": "material_AlcoveSnow",
                    "mode": 4
                }
            ]
        }
    },
    "nodes": {
        "node_Alcove": {
            "children": [],
            "matrix": [
                1.0,
                0.0,
                0.0,
                0.0,
                0.0,
                1.0,
                0.0,
                0.0,
                0.0,
                0.0,
                1.0,
                0.0,
                231.90750122070312,
                -105.23077392578125,
                0.0,
                1.0
            ],
            "meshes": [
                "mesh_Cube.018"
            ],
            "name": "Alcove"
        },
        "node_scene_Scene_root": {
            "children": [
                "node_Alcove"
            ],
            "matrix": [
                1.0,
                0.0,
                0.0,
                0.0,
                0.0,
                0.0,
                -1.0,
                0.0,
                0.0,
                1.0,
                0.0,
                0.0,
                0.0,
                0.0,
                0.0,
                1.0
            ],
            "name": "node_scene_Scene_root"
        }
    },
    "samplers": {
        "sampler_default": {}
    },
    "scene": "scene_Scene",
    "scenes": {
        "scene_Scene": {
            "extras": {
                "active_camera": null,
                "background_color": [
                    0.6738413572311401,
                    0.6738413572311401,
                    0.6738413572311401
                ],
                "frames_per_second": 24
            },
            "name": "Scene",
            "nodes": [
                "node_scene_Scene_root"
            ]
        }
    },
    "textures": {
        "texture_Alcove": {
            "format": 6408,
            "internalFormat": 6408,
            "sampler": "sampler_default",
            "source": "image_Alcove"
        }
    }
}
