{
    "accessors": {
        "accessor_buffer_Cube.004_0": {
            "bufferView": "bufferView_buffer_Cube.004_0",
            "byteOffset": 0,
            "byteStride": 12,
            "componentType": 5126,
            "count": 858,
            "max": [
                0,
                0,
                35.56941604614258
            ],
            "min": [
                -222.54949951171875,
                -115.30027770996094,
                22.97904396057129
            ],
            "type": "VEC3"
        },
        "accessor_buffer_Cube.004_1": {
            "bufferView": "bufferView_buffer_Cube.004_0",
            "byteOffset": 10296,
            "byteStride": 12,
            "componentType": 5126,
            "count": 858,
            "max": [
                0.9997203350067139,
                0.9983916282653809,
                0.9994449019432068
            ],
            "min": [
                -0.9917581081390381,
                -0.9999268651008606,
                -0.9985796213150024
            ],
            "type": "VEC3"
        },
        "accessor_buffer_Cube.004_2": {
            "bufferView": "bufferView_buffer_Cube.004_0",
            "byteOffset": 20592,
            "byteStride": 8,
            "componentType": 5126,
            "count": 858,
            "max": [
                0.9970607161521912,
                0.998606740264222
            ],
            "min": [
                0.0013932597357779741,
                0.0013931989669799805
            ],
            "type": "VEC2"
        },
        "accessor_buffer_Cube.004_3": {
            "bufferView": "bufferView_buffer_Cube.004_1",
            "byteOffset": 0,
            "byteStride": 2,
            "componentType": 5123,
            "count": 162,
            "max": [
                851
            ],
            "min": [
                2
            ],
            "type": "SCALAR"
        },
        "accessor_buffer_Cube.004_4": {
            "bufferView": "bufferView_buffer_Cube.004_2",
            "byteOffset": 0,
            "byteStride": 2,
            "componentType": 5123,
            "count": 111,
            "max": [
                845
            ],
            "min": [
                8
            ],
            "type": "SCALAR"
        },
        "accessor_buffer_Cube.004_5": {
            "bufferView": "bufferView_buffer_Cube.004_3",
            "byteOffset": 0,
            "byteStride": 2,
            "componentType": 5123,
            "count": 585,
            "max": [
                857
            ],
            "min": [
                0
            ],
            "type": "SCALAR"
        }
    },
    "asset": {
        "profile": {
            "api": "WebGL",
            "version": "1.0.3"
        },
        "version": "1.0"
    },
    "bufferViews": {
        "bufferView_buffer_Cube.004_0": {
            "buffer": "buffer_combined",
            "byteLength": 27456,
            "byteOffset": 0,
            "target": 34962
        },
        "bufferView_buffer_Cube.004_1": {
            "buffer": "buffer_combined",
            "byteLength": 324,
            "byteOffset": 27456,
            "target": 34963
        },
        "bufferView_buffer_Cube.004_2": {
            "buffer": "buffer_combined",
            "byteLength": 222,
            "byteOffset": 27780,
            "target": 34963
        },
        "bufferView_buffer_Cube.004_3": {
            "buffer": "buffer_combined",
            "byteLength": 1170,
            "byteOffset": 28002,
            "target": 34963
        }
    },
    "buffers": {
        "buffer_combined": {
            "byteLength": 29172,
            "type": "arraybuffer",
            "uri": "data:text/plain;base64,"
        }
    },
    "extensions": {
        "KHR_materials_common": {
            "lights": {}
        }
    },
    "extensionsUsed": [
        "KHR_materials_common"
    ],
    "images": {
        "image_Alcove": {
            "uri": "Alcove.png"
        }
    },
    "materials": {
        "material_AlcoveDirt": {
            "extensions": {
                "KHR_materials_common": {
                    "technique": "PHONG",
                    "values": {
                        "ambient": [
                            1.0,
                            1.0,
                            1.0,
                            1.0
                        ],
                        "diffuse": "texture_Alcove",
                        "doubleSided": false,
                        "emission": [
                            0.0,
                            0.0,
                            0.0,
                            1.0
                        ],
                        "shininess": 50,
                        "specular": [
                            0.5,
                            0.5,
                            0.5,
                            1.0
                        ],
                        "transparency": 1.0,
                        "transparent": false
                    }
                }
            },
            "name": "AlcoveDirt"
        },
        "material_AlcoveIce": {
            "extensions": {
                "KHR_materials_common": {
                    "technique": "PHONG",
                    "values": {
                        "ambient": [
                            1.0,
                            1.0,
                            1.0,
                            1.0
                        ],
                        "diffuse": "texture_Alcove",
                        "doubleSided": false,
                        "emission": [
                            0.0,
                            0.0,
                            0.0,
                            1.0
                        ],
                        "shininess": 50,
                        "specular": [
                            0.5,
                            0.5,
                            0.5,
                            1.0
                        ],
                        "transparency": 1.0,
                        "transparent": false
                    }
                }
            },
            "name": "AlcoveIce"
        },
        "material_AlcoveSnow": {
            "extensions": {
                "KHR_materials_common": {
                    "technique": "PHONG",
                    "values": {
                        "ambient": [
                            1.0,
                            1.0,
                            1.0,
                            1.0
                        ],
                        "diffuse": "texture_Alcove",
                        "doubleSided": false,
                        "emission": [
                            0.0,
                            0.0,
                            0.0,
                            1.0
                        ],
                        "shininess": 50,
                        "specular": [
                            0.5,
                            0.5,
                            0.5,
                            1.0
                        ],
                        "transparency": 1.0,
                        "transparent": false
                    }
                }
            },
            "name": "AlcoveSnow"
        }
    },
    "meshes": {
        "mesh_Cube.004": {
            "name": "Cube.004",
            "primitives": [
                {
                    "attributes": {
                        "NORMAL": "accessor_buffer_Cube.004_1",
                        "POSITION": "accessor_buffer_Cube.004_0",
                        "TEXCOORD_0": "accessor_buffer_Cube.004_2"
                    },
                    "indices": "accessor_buffer_Cube.004_3",
                    "material": "material_AlcoveSnow",
                    "mode": 4
                },
                {
                    "attributes": {
                        "NORMAL": "accessor_buffer_Cube.004_1",
                        "POSITION": "accessor_buffer_Cube.004_0",
                        "TEXCOORD_0": "accessor_buffer_Cube.004_2"
                    },
                    "indices": "accessor_buffer_Cube.004_4",
                    "material": "material_AlcoveDirt",
                    "mode": 4
                },
                {
                    "attributes": {
                        "NORMAL": "accessor_buffer_Cube.004_1",
                        "POSITION": "accessor_buffer_Cube.004_0",
                        "TEXCOORD_0": "accessor_buffer_Cube.004_2"
                    },
                    "indices": "accessor_buffer_Cube.004_5",
                    "material": "material_AlcoveIce",
                    "mode": 4
                }
            ]
        }
    },
    "nodes": {
        "node_Alcove": {
            "children": [],
            "matrix": [
                1.0,
                0.0,
                0.0,
                0.0,
                0.0,
                1.0,
                0.0,
                0.0,
                0.0,
                0.0,
                1.0,
                0.0,
                231.90750122070312,
                -105.23077392578125,
                0.0,
                1.0
            ],
            "meshes": [
                "mesh_Cube.004"
            ],
            "name": "Alcove"
        },
        "node_scene_Scene_root": {
            "children": [
                "node_Alcove"
            ],
            "matrix": [
                1.0,
                0.0,
                0.0,
                0.0,
                0.0,
                0.0,
                -1.0,
                0.0,
                0.0,
                1.0,
                0.0,
                0.0,
                0.0,
                0.0,
                0.0,
                1.0
            ],
            "name": "node_scene_Scene_root"
        }
    },
    "samplers": {
        "sampler_default": {}
    },
    "scene": "scene_Scene",
    "scenes": {
        "scene_Scene": {
            "extras": {
                "active_camera": null,
                "background_color": [
                    0.05087608844041824,
                    0.05087608844041824,
                    0.05087608844041824
                ],
                "frames_per_second": 24
            },
            "name": "Scene",
            "nodes": [
                "node_scene_Scene_root"
            ]
        }
    },
    "textures": {
        "texture_Alcove": {
            "format": 6408,
            "internalFormat": 6408,
            "sampler": "sampler_default",
            "source": "image_Alcove"
        }
    }
}
