{
    "accessors": {
        "accessor_buffer_Cube.006_0": {
            "bufferView": "bufferView_buffer_Cube.006_0",
            "byteOffset": 0,
            "byteStride": 12,
            "componentType": 5126,
            "count": 1517,
            "max": [
                2.228795051574707,
                1.3719691038131714,
                1.7084547281265259
            ],
            "min": [
                -1.252421498298645,
                -1.841221809387207,
                -2.7034640312194824
            ],
            "type": "VEC3"
        },
        "accessor_buffer_Cube.006_1": {
            "bufferView": "bufferView_buffer_Cube.006_0",
            "byteOffset": 18204,
            "byteStride": 12,
            "componentType": 5126,
            "count": 1517,
            "max": [
                1.0,
                1.0,
                1.0
            ],
            "min": [
                -1.0,
                -1.0,
                -1.0
            ],
            "type": "VEC3"
        },
        "accessor_buffer_Cube.006_2": {
            "bufferView": "bufferView_buffer_Cube.006_0",
            "byteOffset": 36408,
            "byteStride": 8,
            "componentType": 5126,
            "count": 1517,
            "max": [
                0.9965077042579651,
                0.9965794244781137
            ],
            "min": [
                0.0034922754857689142,
                0.003420531749725342
            ],
            "type": "VEC2"
        },
        "accessor_buffer_Cube.006_3": {
            "bufferView": "bufferView_buffer_Cube.006_1",
            "byteOffset": 0,
            "byteStride": 2,
            "componentType": 5123,
            "count": 726,
            "max": [
                1513
            ],
            "min": [
                0
            ],
            "type": "SCALAR"
        },
        "accessor_buffer_Cube.006_4": {
            "bufferView": "bufferView_buffer_Cube.006_2",
            "byteOffset": 0,
            "byteStride": 2,
            "componentType": 5123,
            "count": 498,
            "max": [
                1516
            ],
            "min": [
                1
            ],
            "type": "SCALAR"
        },
        "accessor_buffer_Cube.006_5": {
            "bufferView": "bufferView_buffer_Cube.006_3",
            "byteOffset": 0,
            "byteStride": 2,
            "componentType": 5123,
            "count": 1209,
            "max": [
                1511
            ],
            "min": [
                4
            ],
            "type": "SCALAR"
        }
    },
    "asset": {
        "profile": {
            "api": "WebGL",
            "version": "1.0.3"
        },
        "version": "1.0"
    },
    "bufferViews": {
        "bufferView_buffer_Cube.006_0": {
            "buffer": "buffer_combined",
            "byteLength": 48544,
            "byteOffset": 0,
            "target": 34962
        },
        "bufferView_buffer_Cube.006_1": {
            "buffer": "buffer_combined",
            "byteLength": 1452,
            "byteOffset": 48544,
            "target": 34963
        },
        "bufferView_buffer_Cube.006_2": {
            "buffer": "buffer_combined",
            "byteLength": 996,
            "byteOffset": 49996,
            "target": 34963
        },
        "bufferView_buffer_Cube.006_3": {
            "buffer": "buffer_combined",
            "byteLength": 2418,
            "byteOffset": 50992,
            "target": 34963
        }
    },
    "buffers": {
        "buffer_combined": {
            "byteLength": 53410,
            "type": "arraybuffer",
            "uri": "data:text/plain;base64,"
        }
    },
    "extensions": {
        "KHR_materials_common": {
            "lights": {}
        }
    },
    "extensionsUsed": [
        "KHR_materials_common"
    ],
    "images": {
        "image_BGMountain2": {
            "uri": "BGMountain2.png"
        }
    },
    "materials": {
        "material_DirtBG2": {
            "extensions": {
                "KHR_materials_common": {
                    "technique": "PHONG",
                    "values": {
                        "ambient": [
                            1.0,
                            1.0,
                            1.0,
                            1.0
                        ],
                        "diffuse": "texture_BGMountain2",
                        "doubleSided": false,
                        "emission": [
                            0.0,
                            0.0,
                            0.0,
                            1.0
                        ],
                        "shininess": 50,
                        "specular": [
                            0.5,
                            0.5,
                            0.5,
                            1.0
                        ],
                        "transparency": 1.0,
                        "transparent": false
                    }
                }
            },
            "name": "DirtBG2"
        },
        "material_IceBG2": {
            "extensions": {
                "KHR_materials_common": {
                    "technique": "PHONG",
                    "values": {
                        "ambient": [
                            1.0,
                            1.0,
                            1.0,
                            1.0
                        ],
                        "diffuse": "texture_BGMountain2",
                        "doubleSided": false,
                        "emission": [
                            0.0,
                            0.0,
                            0.0,
                            1.0
                        ],
                        "shininess": 50,
                        "specular": [
                            0.5,
                            0.5,
                            0.5,
                            1.0
                        ],
                        "transparency": 1.0,
                        "transparent": false
                    }
                }
            },
            "name": "IceBG2"
        },
        "material_SnowBG2": {
            "extensions": {
                "KHR_materials_common": {
                    "technique": "PHONG",
                    "values": {
                        "ambient": [
                            1.0,
                            1.0,
                            1.0,
                            1.0
                        ],
                        "diffuse": "texture_BGMountain2",
                        "doubleSided": false,
                        "emission": [
                            0.0,
                            0.0,
                            0.0,
                            1.0
                        ],
                        "shininess": 50,
                        "specular": [
                            0.5,
                            0.5,
                            0.5,
                            1.0
                        ],
                        "transparency": 1.0,
                        "transparent": false
                    }
                }
            },
            "name": "SnowBG2"
        }
    },
    "meshes": {
        "mesh_Cube.006": {
            "name": "Cube.006",
            "primitives": [
                {
                    "attributes": {
                        "NORMAL": "accessor_buffer_Cube.006_1",
                        "POSITION": "accessor_buffer_Cube.006_0",
                        "TEXCOORD_0": "accessor_buffer_Cube.006_2"
                    },
                    "indices": "accessor_buffer_Cube.006_3",
                    "material": "material_IceBG2",
                    "mode": 4
                },
                {
                    "attributes": {
                        "NORMAL": "accessor_buffer_Cube.006_1",
                        "POSITION": "accessor_buffer_Cube.006_0",
                        "TEXCOORD_0": "accessor_buffer_Cube.006_2"
                    },
                    "indices": "accessor_buffer_Cube.006_4",
                    "material": "material_SnowBG2",
                    "mode": 4
                },
                {
                    "attributes": {
                        "NORMAL": "accessor_buffer_Cube.006_1",
                        "POSITION": "accessor_buffer_Cube.006_0",
                        "TEXCOORD_0": "accessor_buffer_Cube.006_2"
                    },
                    "indices": "accessor_buffer_Cube.006_5",
                    "material": "material_DirtBG2",
                    "mode": 4
                }
            ]
        }
    },
    "nodes": {
        "node_BGMountain2": {
            "children": [],
            "matrix": [
                59.677345275878906,
                0.0,
                0.0,
                0.0,
                0.0,
                148.39047241210938,
                0.0,
                0.0,
                0.0,
                0.0,
                47.31671905517578,
                0.0,
                -220.77320861816406,
                17.44734001159668,
                0.0,
                1.0
            ],
            "meshes": [
                "mesh_Cube.006"
            ],
            "name": "BGMountain2"
        },
        "node_scene_Scene_root": {
            "children": [
                "node_BGMountain2"
            ],
            "matrix": [
                1.0,
                0.0,
                0.0,
                0.0,
                0.0,
                0.0,
                -1.0,
                0.0,
                0.0,
                1.0,
                0.0,
                0.0,
                0.0,
                0.0,
                0.0,
                1.0
            ],
            "name": "node_scene_Scene_root"
        }
    },
    "samplers": {
        "sampler_default": {}
    },
    "scene": "scene_Scene",
    "scenes": {
        "scene_Scene": {
            "extras": {
                "active_camera": null,
                "background_color": [
                    0.05087608844041824,
                    0.05087608844041824,
                    0.05087608844041824
                ],
                "frames_per_second": 24
            },
            "name": "Scene",
            "nodes": [
                "node_scene_Scene_root"
            ]
        }
    },
    "textures": {
        "texture_BGMountain2": {
            "format": 6408,
            "internalFormat": 6408,
            "sampler": "sampler_default",
            "source": "image_BGMountain2"
        }
    }
}
