{
    "accessors": {
        "accessor_buffer_Cube.003_0": {
            "bufferView": "bufferView_buffer_Cube.003_0",
            "byteOffset": 0,
            "byteStride": 12,
            "componentType": 5126,
            "count": 724,
            "max": [
                1.5722917318344116,
                3.1070075035095215,
                2.176893711090088
            ],
            "min": [
                -1.8521840572357178,
                -2.252351999282837,
                -2.998839855194092
            ],
            "type": "VEC3"
        },
        "accessor_buffer_Cube.003_1": {
            "bufferView": "bufferView_buffer_Cube.003_0",
            "byteOffset": 8688,
            "byteStride": 12,
            "componentType": 5126,
            "count": 724,
            "max": [
                1.0,
                0.999849796295166,
                0.9988648295402527
            ],
            "min": [
                -0.9998902678489685,
                -1.0,
                -1.0
            ],
            "type": "VEC3"
        },
        "accessor_buffer_Cube.003_2": {
            "bufferView": "bufferView_buffer_Cube.003_0",
            "byteOffset": 17376,
            "byteStride": 8,
            "componentType": 5126,
            "count": 724,
            "max": [
                0.997383713722229,
                0.9971923271659762
            ],
            "min": [
                0.0026163284201174974,
                0.0028077363967895508
            ],
            "type": "VEC2"
        },
        "accessor_buffer_Cube.003_3": {
            "bufferView": "bufferView_buffer_Cube.003_1",
            "byteOffset": 0,
            "byteStride": 2,
            "componentType": 5123,
            "count": 747,
            "max": [
                722
            ],
            "min": [
                0
            ],
            "type": "SCALAR"
        },
        "accessor_buffer_Cube.003_4": {
            "bufferView": "bufferView_buffer_Cube.003_2",
            "byteOffset": 0,
            "byteStride": 2,
            "componentType": 5123,
            "count": 387,
            "max": [
                723
            ],
            "min": [
                5
            ],
            "type": "SCALAR"
        }
    },
    "asset": {
        "profile": {
            "api": "WebGL",
            "version": "1.0.3"
        },
        "version": "1.0"
    },
    "bufferViews": {
        "bufferView_buffer_Cube.003_0": {
            "buffer": "buffer_combined",
            "byteLength": 23168,
            "byteOffset": 0,
            "target": 34962
        },
        "bufferView_buffer_Cube.003_1": {
            "buffer": "buffer_combined",
            "byteLength": 1494,
            "byteOffset": 23168,
            "target": 34963
        },
        "bufferView_buffer_Cube.003_2": {
            "buffer": "buffer_combined",
            "byteLength": 774,
            "byteOffset": 24662,
            "target": 34963
        }
    },
    "buffers": {
        "buffer_combined": {
            "byteLength": 25436,
            "type": "arraybuffer",
            "uri": "data:text/plain;base64,"
        }
    },
    "extensions": {
        "KHR_materials_common": {
            "lights": {}
        }
    },
    "extensionsUsed": [
        "KHR_materials_common"
    ],
    "images": {
        "image_Ded1": {
            "uri": "BGMountain1.png"
        }
    },
    "materials": {
        "material_DirtBG1": {
            "extensions": {
                "KHR_materials_common": {
                    "technique": "PHONG",
                    "values": {
                        "ambient": [
                            1.0,
                            1.0,
                            1.0,
                            1.0
                        ],
                        "diffuse": "texture_BGMountain1",
                        "doubleSided": false,
                        "emission": [
                            0.0,
                            0.0,
                            0.0,
                            1.0
                        ],
                        "shininess": 50,
                        "specular": [
                            0.5,
                            0.5,
                            0.5,
                            1.0
                        ],
                        "transparency": 1.0,
                        "transparent": false
                    }
                }
            },
            "name": "DirtBG1"
        },
        "material_SnowBG1": {
            "extensions": {
                "KHR_materials_common": {
                    "technique": "PHONG",
                    "values": {
                        "ambient": [
                            1.0,
                            1.0,
                            1.0,
                            1.0
                        ],
                        "diffuse": "texture_BGMountain1",
                        "doubleSided": false,
                        "emission": [
                            0.0,
                            0.0,
                            0.0,
                            1.0
                        ],
                        "shininess": 50,
                        "specular": [
                            0.5,
                            0.5,
                            0.5,
                            1.0
                        ],
                        "transparency": 1.0,
                        "transparent": false
                    }
                }
            },
            "name": "SnowBG1"
        }
    },
    "meshes": {
        "mesh_Cube.003": {
            "name": "Cube.003",
            "primitives": [
                {
                    "attributes": {
                        "NORMAL": "accessor_buffer_Cube.003_1",
                        "POSITION": "accessor_buffer_Cube.003_0",
                        "TEXCOORD_0": "accessor_buffer_Cube.003_2"
                    },
                    "indices": "accessor_buffer_Cube.003_3",
                    "material": "material_DirtBG1",
                    "mode": 4
                },
                {
                    "attributes": {
                        "NORMAL": "accessor_buffer_Cube.003_1",
                        "POSITION": "accessor_buffer_Cube.003_0",
                        "TEXCOORD_0": "accessor_buffer_Cube.003_2"
                    },
                    "indices": "accessor_buffer_Cube.003_4",
                    "material": "material_SnowBG1",
                    "mode": 4
                }
            ]
        }
    },
    "nodes": {
        "node_BGMountain1": {
            "children": [],
            "matrix": [
                136.70831298828125,
                0.0,
                0.0,
                0.0,
                0.0,
                56.08931350708008,
                0.0,
                0.0,
                0.0,
                0.0,
                53.40199661254883,
                0.0,
                14.671882629394531,
                290.17596435546875,
                -9.817846298217773,
                1.0
            ],
            "meshes": [
                "mesh_Cube.003"
            ],
            "name": "BGMountain1"
        },
        "node_scene_Scene_root": {
            "children": [
                "node_BGMountain1"
            ],
            "matrix": [
                1.0,
                0.0,
                0.0,
                0.0,
                0.0,
                0.0,
                -1.0,
                0.0,
                0.0,
                1.0,
                0.0,
                0.0,
                0.0,
                0.0,
                0.0,
                1.0
            ],
            "name": "node_scene_Scene_root"
        }
    },
    "samplers": {
        "sampler_default": {}
    },
    "scene": "scene_Scene",
    "scenes": {
        "scene_Scene": {
            "extras": {
                "active_camera": null,
                "background_color": [
                    0.05087608844041824,
                    0.05087608844041824,
                    0.05087608844041824
                ],
                "frames_per_second": 24
            },
            "name": "Scene",
            "nodes": [
                "node_scene_Scene_root"
            ]
        }
    },
    "textures": {
        "texture_BGMountain1": {
            "format": 6408,
            "internalFormat": 6408,
            "sampler": "sampler_default",
            "source": "image_Ded1"
        }
    }
}
