{
    "accessors": {
        "accessor_buffer_Cube.012_0": {
            "bufferView": "bufferView_buffer_Cube.012_0",
            "byteOffset": 0,
            "byteStride": 12,
            "componentType": 5126,
            "count": 747,
            "max": [
                242.57611083984375,
                590.8536987304688,
                195.01307678222656
            ],
            "min": [
                -577.5110473632812,
                -278.0457763671875,
                5.450073719024658
            ],
            "type": "VEC3"
        },
        "accessor_buffer_Cube.012_1": {
            "bufferView": "bufferView_buffer_Cube.012_0",
            "byteOffset": 8964,
            "byteStride": 12,
            "componentType": 5126,
            "count": 747,
            "max": [
                0.9972504377365112,
                0.9997506141662598,
                1.0
            ],
            "min": [
                -1.0,
                -0.8068608045578003,
                -0.2650444805622101
            ],
            "type": "VEC3"
        },
        "accessor_buffer_Cube.012_2": {
            "bufferView": "bufferView_buffer_Cube.012_0",
            "byteOffset": 17928,
            "byteStride": 8,
            "componentType": 5126,
            "count": 747,
            "max": [
                0.9986598491668701,
                0.9986598308896646
            ],
            "min": [
                0.0013401691103354096,
                0.0081368088722229
            ],
            "type": "VEC2"
        },
        "accessor_buffer_Cube.012_3": {
            "bufferView": "bufferView_buffer_Cube.012_1",
            "byteOffset": 0,
            "byteStride": 2,
            "componentType": 5123,
            "count": 747,
            "max": [
                746
            ],
            "min": [
                0
            ],
            "type": "SCALAR"
        }
    },
    "asset": {
        "profile": {
            "api": "WebGL",
            "version": "1.0.3"
        },
        "version": "1.0"
    },
    "bufferViews": {
        "bufferView_buffer_Cube.012_0": {
            "buffer": "buffer_combined",
            "byteLength": 23904,
            "byteOffset": 0,
            "target": 34962
        },
        "bufferView_buffer_Cube.012_1": {
            "buffer": "buffer_combined",
            "byteLength": 1494,
            "byteOffset": 23904,
            "target": 34963
        }
    },
    "buffers": {
        "buffer_combined": {
            "byteLength": 25398,
            "type": "arraybuffer",
            "uri": "data:text/plain;base64,"
        }
    },
    "extensions": {
        "KHR_materials_common": {
            "lights": {}
        }
    },
    "extensionsUsed": [
        "KHR_materials_common"
    ],
    "images": {
        "image_BGMountain3Snow": {
            "uri": "BGMountain3Snow.png"
        }
    },
    "materials": {
        "material_SnowBG3": {
            "extensions": {
                "KHR_materials_common": {
                    "technique": "PHONG",
                    "values": {
                        "ambient": [
                            1.0,
                            1.0,
                            1.0,
                            1.0
                        ],
                        "diffuse": "texture_BGMountain3Snow",
                        "doubleSided": false,
                        "emission": [
                            0.0,
                            0.0,
                            0.0,
                            1.0
                        ],
                        "shininess": 50,
                        "specular": [
                            0.5,
                            0.5,
                            0.5,
                            1.0
                        ],
                        "transparency": 1.0,
                        "transparent": false
                    }
                }
            },
            "name": "SnowBG3"
        }
    },
    "meshes": {
        "mesh_Cube.012": {
            "name": "Cube.012",
            "primitives": [
                {
                    "attributes": {
                        "NORMAL": "accessor_buffer_Cube.012_1",
                        "POSITION": "accessor_buffer_Cube.012_0",
                        "TEXCOORD_0": "accessor_buffer_Cube.012_2"
                    },
                    "indices": "accessor_buffer_Cube.012_3",
                    "material": "material_SnowBG3",
                    "mode": 4
                }
            ]
        }
    },
    "nodes": {
        "node_BGMountain3Snow": {
            "children": [],
            "matrix": [
                1.0,
                0.0,
                0.0,
                0.0,
                0.0,
                1.0,
                0.0,
                0.0,
                0.0,
                0.0,
                1.0,
                0.0,
                231.90750122070312,
                -105.23077392578125,
                0.0,
                1.0
            ],
            "meshes": [
                "mesh_Cube.012"
            ],
            "name": "BGMountain3Snow"
        },
        "node_scene_Scene_root": {
            "children": [
                "node_BGMountain3Snow"
            ],
            "matrix": [
                1.0,
                0.0,
                0.0,
                0.0,
                0.0,
                0.0,
                -1.0,
                0.0,
                0.0,
                1.0,
                0.0,
                0.0,
                0.0,
                0.0,
                0.0,
                1.0
            ],
            "name": "node_scene_Scene_root"
        }
    },
    "samplers": {
        "sampler_default": {}
    },
    "scene": "scene_Scene",
    "scenes": {
        "scene_Scene": {
            "extras": {
                "active_camera": null,
                "background_color": [
                    0.05087608844041824,
                    0.05087608844041824,
                    0.05087608844041824
                ],
                "frames_per_second": 24
            },
            "name": "Scene",
            "nodes": [
                "node_scene_Scene_root"
            ]
        }
    },
    "textures": {
        "texture_BGMountain3Snow": {
            "format": 6408,
            "internalFormat": 6408,
            "sampler": "sampler_default",
            "source": "image_BGMountain3Snow"
        }
    }
}
