{
    "accessors": {
        "accessor_buffer_Ice Platform 2_0": {
            "bufferView": "bufferView_buffer_Ice Platform 2_0",
            "byteOffset": 0,
            "byteStride": 12,
            "componentType": 5126,
            "count": 182,
            "max": [
                1.1072396039962769,
                1.0,
                1.6816704273223877
            ],
            "min": [
                -1.0,
                -1.0,
                -0.8767470121383667
            ],
            "type": "VEC3"
        },
        "accessor_buffer_Ice Platform 2_1": {
            "bufferView": "bufferView_buffer_Ice Platform 2_0",
            "byteOffset": 2184,
            "byteStride": 12,
            "componentType": 5126,
            "count": 182,
            "max": [
                0.9777636528015137,
                0.9660987854003906,
                1.0
            ],
            "min": [
                -1.0,
                -0.9634323120117188,
                -1.0
            ],
            "type": "VEC3"
        },
        "accessor_buffer_Ice Platform 2_2": {
            "bufferView": "bufferView_buffer_Ice Platform 2_0",
            "byteOffset": 4368,
            "byteStride": 8,
            "componentType": 5126,
            "count": 182,
            "max": [
                0.9942705035209656,
                0.9944837554357946
            ],
            "min": [
                0.005729536060243845,
                0.005516231060028076
            ],
            "type": "VEC2"
        },
        "accessor_buffer_Ice Platform 2_3": {
            "bufferView": "bufferView_buffer_Ice Platform 2_1",
            "byteOffset": 0,
            "byteStride": 2,
            "componentType": 5123,
            "count": 276,
            "max": [
                181
            ],
            "min": [
                0
            ],
            "type": "SCALAR"
        }
    },
    "asset": {
        "profile": {
            "api": "WebGL",
            "version": "1.0.3"
        },
        "version": "1.0"
    },
    "bufferViews": {
        "bufferView_buffer_Ice Platform 2_0": {
            "buffer": "buffer_combined",
            "byteLength": 5824,
            "byteOffset": 0,
            "target": 34962
        },
        "bufferView_buffer_Ice Platform 2_1": {
            "buffer": "buffer_combined",
            "byteLength": 552,
            "byteOffset": 5824,
            "target": 34963
        }
    },
    "buffers": {
        "buffer_combined": {
            "byteLength": 6376,
            "type": "arraybuffer",
            "uri": "data:text/plain;base64,"
        }
    },
    "extensions": {
        "KHR_materials_common": {
            "lights": {}
        }
    },
    "extensionsUsed": [
        "KHR_materials_common"
    ],
    "images": {
        "image_IcePlatform2": {
            "uri": "IcePlatform2.png"
        }
    },
    "materials": {
        "material_IcePlat2": {
            "extensions": {
                "KHR_materials_common": {
                    "technique": "PHONG",
                    "values": {
                        "ambient": [
                            1.0,
                            1.0,
                            1.0,
                            1.0
                        ],
                        "diffuse": "texture_IcePlatform2",
                        "doubleSided": false,
                        "emission": [
                            0.0,
                            0.0,
                            0.0,
                            1.0
                        ],
                        "shininess": 50,
                        "specular": [
                            0.5,
                            0.5,
                            0.5,
                            1.0
                        ],
                        "transparency": 1.0,
                        "transparent": false
                    }
                }
            },
            "name": "IcePlat2"
        }
    },
    "meshes": {
        "mesh_Ice Platform 2": {
            "name": "Ice Platform 2",
            "primitives": [
                {
                    "attributes": {
                        "NORMAL": "accessor_buffer_Ice Platform 2_1",
                        "POSITION": "accessor_buffer_Ice Platform 2_0",
                        "TEXCOORD_0": "accessor_buffer_Ice Platform 2_2"
                    },
                    "indices": "accessor_buffer_Ice Platform 2_3",
                    "material": "material_IcePlat2",
                    "mode": 4
                }
            ]
        }
    },
    "nodes": {
        "node_Ice Platform 2": {
            "children": [],
            "matrix": [
                5.061429500579834,
                -1.6599098443984985,
                0.0,
                0.0,
                1.6599098443984985,
                5.061429500579834,
                0.0,
                0.0,
                0.0,
                0.0,
                0.5326666831970215,
                0.0,
                -27.03622817993164,
                -72.92721557617188,
                0.20981501042842865,
                1.0
            ],
            "meshes": [
                "mesh_Ice Platform 2"
            ],
            "name": "Ice Platform 2"
        },
        "node_scene_Scene_root": {
            "children": [
                "node_Ice Platform 2"
            ],
            "matrix": [
                1.0,
                0.0,
                0.0,
                0.0,
                0.0,
                0.0,
                -1.0,
                0.0,
                0.0,
                1.0,
                0.0,
                0.0,
                0.0,
                0.0,
                0.0,
                1.0
            ],
            "name": "node_scene_Scene_root"
        }
    },
    "samplers": {
        "sampler_default": {}
    },
    "scene": "scene_Scene",
    "scenes": {
        "scene_Scene": {
            "extras": {
                "active_camera": null,
                "background_color": [
                    0.05087608844041824,
                    0.05087608844041824,
                    0.05087608844041824
                ],
                "frames_per_second": 24
            },
            "name": "Scene",
            "nodes": [
                "node_scene_Scene_root"
            ]
        }
    },
    "textures": {
        "texture_IcePlatform2": {
            "format": 6408,
            "internalFormat": 6408,
            "sampler": "sampler_default",
            "source": "image_IcePlatform2"
        }
    }
}
