{
    "accessors": {
        "accessor_buffer_Cube.008_0": {
            "bufferView": "bufferView_buffer_Cube.008_0",
            "byteOffset": 0,
            "byteStride": 12,
            "componentType": 5126,
            "count": 686,
            "max": [
                56.17086410522461,
                28.082468032836914,
                4.666630744934082
            ],
            "min": [
                -41.91429901123047,
                -37.13527297973633,
                -3.6211748123168945
            ],
            "type": "VEC3"
        },
        "accessor_buffer_Cube.008_1": {
            "bufferView": "bufferView_buffer_Cube.008_0",
            "byteOffset": 8232,
            "byteStride": 12,
            "componentType": 5126,
            "count": 686,
            "max": [
                0.9983615279197693,
                0.9930065870285034,
                1.0
            ],
            "min": [
                -0.99056077003479,
                -0.9990382790565491,
                -1.0
            ],
            "type": "VEC3"
        },
        "accessor_buffer_Cube.008_2": {
            "bufferView": "bufferView_buffer_Cube.008_0",
            "byteOffset": 16464,
            "byteStride": 8,
            "componentType": 5126,
            "count": 686,
            "max": [
                0.9997774362564087,
                0.9997762681159656
            ],
            "min": [
                0.0002225260977866128,
                0.0002237558364868164
            ],
            "type": "VEC2"
        },
        "accessor_buffer_Cube.008_3": {
            "bufferView": "bufferView_buffer_Cube.008_1",
            "byteOffset": 0,
            "byteStride": 2,
            "componentType": 5123,
            "count": 162,
            "max": [
                683
            ],
            "min": [
                2
            ],
            "type": "SCALAR"
        },
        "accessor_buffer_Cube.008_4": {
            "bufferView": "bufferView_buffer_Cube.008_2",
            "byteOffset": 0,
            "byteStride": 2,
            "componentType": 5123,
            "count": 834,
            "max": [
                685
            ],
            "min": [
                0
            ],
            "type": "SCALAR"
        }
    },
    "asset": {
        "profile": {
            "api": "WebGL",
            "version": "1.0.3"
        },
        "version": "1.0"
    },
    "bufferViews": {
        "bufferView_buffer_Cube.008_0": {
            "buffer": "buffer_combined",
            "byteLength": 21952,
            "byteOffset": 0,
            "target": 34962
        },
        "bufferView_buffer_Cube.008_1": {
            "buffer": "buffer_combined",
            "byteLength": 324,
            "byteOffset": 21952,
            "target": 34963
        },
        "bufferView_buffer_Cube.008_2": {
            "buffer": "buffer_combined",
            "byteLength": 1668,
            "byteOffset": 22276,
            "target": 34963
        }
    },
    "buffers": {
        "buffer_combined": {
            "byteLength": 23944,
            "type": "arraybuffer",
            "uri": "data:text/plain;base64,"
        }
    },
    "extensions": {
        "KHR_materials_common": {
            "lights": {}
        }
    },
    "extensionsUsed": [
        "KHR_materials_common"
    ],
    "images": {
        "image_Glacier3": {
            "uri": "Glacier3.png"
        }
    },
    "materials": {
        "material_GlacierIce3": {
            "extensions": {
                "KHR_materials_common": {
                    "technique": "PHONG",
                    "values": {
                        "ambient": [
                            1.0,
                            1.0,
                            1.0,
                            1.0
                        ],
                        "diffuse": "texture_Glacier3",
                        "doubleSided": false,
                        "emission": [
                            0.0,
                            0.0,
                            0.0,
                            1.0
                        ],
                        "shininess": 50,
                        "specular": [
                            0.5,
                            0.5,
                            0.5,
                            1.0
                        ],
                        "transparency": 1.0,
                        "transparent": false
                    }
                }
            },
            "name": "GlacierIce3"
        },
        "material_GlacierSnow3": {
            "extensions": {
                "KHR_materials_common": {
                    "technique": "PHONG",
                    "values": {
                        "ambient": [
                            1.0,
                            1.0,
                            1.0,
                            1.0
                        ],
                        "diffuse": "texture_Glacier3",
                        "doubleSided": false,
                        "emission": [
                            0.0,
                            0.0,
                            0.0,
                            1.0
                        ],
                        "shininess": 50,
                        "specular": [
                            0.5,
                            0.5,
                            0.5,
                            1.0
                        ],
                        "transparency": 1.0,
                        "transparent": false
                    }
                }
            },
            "name": "GlacierSnow3"
        }
    },
    "meshes": {
        "mesh_Cube.008": {
            "name": "Cube.008",
            "primitives": [
                {
                    "attributes": {
                        "NORMAL": "accessor_buffer_Cube.008_1",
                        "POSITION": "accessor_buffer_Cube.008_0",
                        "TEXCOORD_0": "accessor_buffer_Cube.008_2"
                    },
                    "indices": "accessor_buffer_Cube.008_3",
                    "material": "material_GlacierSnow3",
                    "mode": 4
                },
                {
                    "attributes": {
                        "NORMAL": "accessor_buffer_Cube.008_1",
                        "POSITION": "accessor_buffer_Cube.008_0",
                        "TEXCOORD_0": "accessor_buffer_Cube.008_2"
                    },
                    "indices": "accessor_buffer_Cube.008_4",
                    "material": "material_GlacierIce3",
                    "mode": 4
                }
            ]
        }
    },
    "nodes": {
        "node_Glacier3": {
            "children": [],
            "matrix": [
                0.9593645334243774,
                -0.28216955065727234,
                0.0,
                0.0,
                0.28216955065727234,
                0.9593645334243774,
                0.0,
                0.0,
                0.0,
                0.0,
                1.0,
                0.0,
                94.5269546508789,
                131.82058715820312,
                -1.6034679412841797,
                1.0
            ],
            "meshes": [
                "mesh_Cube.008"
            ],
            "name": "Glacier3"
        },
        "node_scene_Scene_root": {
            "children": [
                "node_Glacier3"
            ],
            "matrix": [
                1.0,
                0.0,
                0.0,
                0.0,
                0.0,
                0.0,
                -1.0,
                0.0,
                0.0,
                1.0,
                0.0,
                0.0,
                0.0,
                0.0,
                0.0,
                1.0
            ],
            "name": "node_scene_Scene_root"
        }
    },
    "samplers": {
        "sampler_default": {}
    },
    "scene": "scene_Scene",
    "scenes": {
        "scene_Scene": {
            "extras": {
                "active_camera": null,
                "background_color": [
                    0.05087608844041824,
                    0.05087608844041824,
                    0.05087608844041824
                ],
                "frames_per_second": 24
            },
            "name": "Scene",
            "nodes": [
                "node_scene_Scene_root"
            ]
        }
    },
    "textures": {
        "texture_Glacier3": {
            "format": 6408,
            "internalFormat": 6408,
            "sampler": "sampler_default",
            "source": "image_Glacier3"
        }
    }
}
