{
    "accessors": {
        "accessor_buffer_Cube.008_0": {
            "bufferView": "bufferView_buffer_Cube.008_0",
            "byteOffset": 0,
            "byteStride": 12,
            "componentType": 5126,
            "count": 688,
            "max": [
                56.17086410522461,
                28.082468032836914,
                3.2135379314422607
            ],
            "min": [
                -41.91429901123047,
                -37.13527297973633,
                -15.691819190979004
            ],
            "type": "VEC3"
        },
        "accessor_buffer_Cube.008_1": {
            "bufferView": "bufferView_buffer_Cube.008_0",
            "byteOffset": 8256,
            "byteStride": 12,
            "componentType": 5126,
            "count": 688,
            "max": [
                0.9983615279197693,
                0.9930065274238586,
                1.0
            ],
            "min": [
                -0.9905606508255005,
                -0.9990382194519043,
                -0.9968936443328857
            ],
            "type": "VEC3"
        },
        "accessor_buffer_Cube.008_2": {
            "bufferView": "bufferView_buffer_Cube.008_0",
            "byteOffset": 16512,
            "byteStride": 8,
            "componentType": 5126,
            "count": 688,
            "max": [
                0.9997745752334595,
                0.9997837153350702
            ],
            "min": [
                0.0002254741411888972,
                0.0002162456512451172
            ],
            "type": "VEC2"
        },
        "accessor_buffer_Cube.008_3": {
            "bufferView": "bufferView_buffer_Cube.008_1",
            "byteOffset": 0,
            "byteStride": 2,
            "componentType": 5123,
            "count": 834,
            "max": [
                687
            ],
            "min": [
                0
            ],
            "type": "SCALAR"
        },
        "accessor_buffer_Cube.008_4": {
            "bufferView": "bufferView_buffer_Cube.008_2",
            "byteOffset": 0,
            "byteStride": 2,
            "componentType": 5123,
            "count": 162,
            "max": [
                686
            ],
            "min": [
                6
            ],
            "type": "SCALAR"
        }
    },
    "asset": {
        "profile": {
            "api": "WebGL",
            "version": "1.0.3"
        },
        "version": "1.0"
    },
    "bufferViews": {
        "bufferView_buffer_Cube.008_0": {
            "buffer": "buffer_combined",
            "byteLength": 22016,
            "byteOffset": 0,
            "target": 34962
        },
        "bufferView_buffer_Cube.008_1": {
            "buffer": "buffer_combined",
            "byteLength": 1668,
            "byteOffset": 22016,
            "target": 34963
        },
        "bufferView_buffer_Cube.008_2": {
            "buffer": "buffer_combined",
            "byteLength": 324,
            "byteOffset": 23684,
            "target": 34963
        }
    },
    "buffers": {
        "buffer_combined": {
            "byteLength": 24008,
            "type": "arraybuffer",
            "uri": "data:text/plain;base64,"
        }
    },
    "extensions": {
        "KHR_materials_common": {
            "lights": {}
        }
    },
    "extensionsUsed": [
        "KHR_materials_common"
    ],
    "images": {
        "image_Glacier3": {
            "uri": "Glacier3.png"
        }
    },
    "materials": {
        "material_GlacierIce3": {
            "extensions": {
                "KHR_materials_common": {
                    "technique": "PHONG",
                    "values": {
                        "ambient": [
                            1.0,
                            1.0,
                            1.0,
                            1.0
                        ],
                        "diffuse": "texture_Glacier3",
                        "doubleSided": false,
                        "emission": [
                            0.0,
                            0.0,
                            0.0,
                            1.0
                        ],
                        "shininess": 50,
                        "specular": [
                            0.5,
                            0.5,
                            0.5,
                            1.0
                        ],
                        "transparency": 1.0,
                        "transparent": false
                    }
                }
            },
            "name": "GlacierIce3"
        },
        "material_GlacierSnow3": {
            "extensions": {
                "KHR_materials_common": {
                    "technique": "PHONG",
                    "values": {
                        "ambient": [
                            1.0,
                            1.0,
                            1.0,
                            1.0
                        ],
                        "diffuse": "texture_Glacier3",
                        "doubleSided": false,
                        "emission": [
                            0.0,
                            0.0,
                            0.0,
                            1.0
                        ],
                        "shininess": 50,
                        "specular": [
                            0.5,
                            0.5,
                            0.5,
                            1.0
                        ],
                        "transparency": 1.0,
                        "transparent": false
                    }
                }
            },
            "name": "GlacierSnow3"
        }
    },
    "meshes": {
        "mesh_Cube.008": {
            "name": "Cube.008",
            "primitives": [
                {
                    "attributes": {
                        "NORMAL": "accessor_buffer_Cube.008_1",
                        "POSITION": "accessor_buffer_Cube.008_0",
                        "TEXCOORD_0": "accessor_buffer_Cube.008_2"
                    },
                    "indices": "accessor_buffer_Cube.008_3",
                    "material": "material_GlacierIce3",
                    "mode": 4
                },
                {
                    "attributes": {
                        "NORMAL": "accessor_buffer_Cube.008_1",
                        "POSITION": "accessor_buffer_Cube.008_0",
                        "TEXCOORD_0": "accessor_buffer_Cube.008_2"
                    },
                    "indices": "accessor_buffer_Cube.008_4",
                    "material": "material_GlacierSnow3",
                    "mode": 4
                }
            ]
        }
    },
    "nodes": {
        "node_Glacier3": {
            "children": [],
            "matrix": [
                0.873228907585144,
                -0.4873102009296417,
                0.0,
                0.0,
                0.4873102009296417,
                0.873228907585144,
                0.0,
                0.0,
                0.0,
                0.0,
                1.0,
                0.0,
                66.75879669189453,
                -15.174919128417969,
                -0.7140967845916748,
                1.0
            ],
            "meshes": [
                "mesh_Cube.008"
            ],
            "name": "Glacier3"
        },
        "node_scene_Scene_root": {
            "children": [
                "node_Glacier3"
            ],
            "matrix": [
                1.0,
                0.0,
                0.0,
                0.0,
                0.0,
                0.0,
                -1.0,
                0.0,
                0.0,
                1.0,
                0.0,
                0.0,
                0.0,
                0.0,
                0.0,
                1.0
            ],
            "name": "node_scene_Scene_root"
        }
    },
    "samplers": {
        "sampler_default": {}
    },
    "scene": "scene_Scene",
    "scenes": {
        "scene_Scene": {
            "extras": {
                "active_camera": null,
                "background_color": [
                    0.6738413572311401,
                    0.6738413572311401,
                    0.6738413572311401
                ],
                "frames_per_second": 24
            },
            "name": "Scene",
            "nodes": [
                "node_scene_Scene_root"
            ]
        }
    },
    "textures": {
        "texture_Glacier3": {
            "format": 6408,
            "internalFormat": 6408,
            "sampler": "sampler_default",
            "source": "image_Glacier3"
        }
    }
}
