{
    "accessors": {
        "accessor_buffer_Cube.005_0": {
            "bufferView": "bufferView_buffer_Cube.005_0",
            "byteOffset": 0,
            "byteStride": 12,
            "componentType": 5126,
            "count": 508,
            "max": [
                0,
                45.64725112915039,
                1.935283899307251
            ],
            "min": [
                -130.2722625732422,
                -33.56515121459961,
                -21.771421432495117
            ],
            "type": "VEC3"
        },
        "accessor_buffer_Cube.005_1": {
            "bufferView": "bufferView_buffer_Cube.005_0",
            "byteOffset": 6096,
            "byteStride": 12,
            "componentType": 5126,
            "count": 508,
            "max": [
                0.9993276000022888,
                0.9978430867195129,
                1.0
            ],
            "min": [
                -0.997772216796875,
                -0.9916215538978577,
                -0.985779881477356
            ],
            "type": "VEC3"
        },
        "accessor_buffer_Cube.005_2": {
            "bufferView": "bufferView_buffer_Cube.005_0",
            "byteOffset": 12192,
            "byteStride": 8,
            "componentType": 5126,
            "count": 508,
            "max": [
                0.9997277855873108,
                0.9997268116276246
            ],
            "min": [
                0.0002721796336118132,
                0.00027316808700561523
            ],
            "type": "VEC2"
        },
        "accessor_buffer_Cube.005_3": {
            "bufferView": "bufferView_buffer_Cube.005_1",
            "byteOffset": 0,
            "byteStride": 2,
            "componentType": 5123,
            "count": 144,
            "max": [
                502
            ],
            "min": [
                3
            ],
            "type": "SCALAR"
        },
        "accessor_buffer_Cube.005_4": {
            "bufferView": "bufferView_buffer_Cube.005_2",
            "byteOffset": 0,
            "byteStride": 2,
            "componentType": 5123,
            "count": 612,
            "max": [
                507
            ],
            "min": [
                0
            ],
            "type": "SCALAR"
        }
    },
    "asset": {
        "profile": {
            "api": "WebGL",
            "version": "1.0.3"
        },
        "version": "1.0"
    },
    "bufferViews": {
        "bufferView_buffer_Cube.005_0": {
            "buffer": "buffer_combined",
            "byteLength": 16256,
            "byteOffset": 0,
            "target": 34962
        },
        "bufferView_buffer_Cube.005_1": {
            "buffer": "buffer_combined",
            "byteLength": 288,
            "byteOffset": 16256,
            "target": 34963
        },
        "bufferView_buffer_Cube.005_2": {
            "buffer": "buffer_combined",
            "byteLength": 1224,
            "byteOffset": 16544,
            "target": 34963
        }
    },
    "buffers": {
        "buffer_combined": {
            "byteLength": 17768,
            "type": "arraybuffer",
            "uri": "data:text/plain;base64,"
        }
    },
    "extensions": {
        "KHR_materials_common": {
            "lights": {}
        }
    },
    "extensionsUsed": [
        "KHR_materials_common"
    ],
    "images": {
        "image_Glacier2": {
            "uri": "Glacier2.png"
        }
    },
    "materials": {
        "material_GlacierIce2": {
            "extensions": {
                "KHR_materials_common": {
                    "technique": "PHONG",
                    "values": {
                        "ambient": [
                            1.0,
                            1.0,
                            1.0,
                            1.0
                        ],
                        "diffuse": "texture_Glacier2",
                        "doubleSided": false,
                        "emission": [
                            0.0,
                            0.0,
                            0.0,
                            1.0
                        ],
                        "shininess": 50,
                        "specular": [
                            0.5,
                            0.5,
                            0.5,
                            1.0
                        ],
                        "transparency": 1.0,
                        "transparent": false
                    }
                }
            },
            "name": "GlacierIce2"
        },
        "material_GlacierSnow2": {
            "extensions": {
                "KHR_materials_common": {
                    "technique": "PHONG",
                    "values": {
                        "ambient": [
                            1.0,
                            1.0,
                            1.0,
                            1.0
                        ],
                        "diffuse": "texture_Glacier2",
                        "doubleSided": false,
                        "emission": [
                            0.0,
                            0.0,
                            0.0,
                            1.0
                        ],
                        "shininess": 50,
                        "specular": [
                            0.5,
                            0.5,
                            0.5,
                            1.0
                        ],
                        "transparency": 1.0,
                        "transparent": false
                    }
                }
            },
            "name": "GlacierSnow2"
        }
    },
    "meshes": {
        "mesh_Cube.005": {
            "name": "Cube.005",
            "primitives": [
                {
                    "attributes": {
                        "NORMAL": "accessor_buffer_Cube.005_1",
                        "POSITION": "accessor_buffer_Cube.005_0",
                        "TEXCOORD_0": "accessor_buffer_Cube.005_2"
                    },
                    "indices": "accessor_buffer_Cube.005_3",
                    "material": "material_GlacierSnow2",
                    "mode": 4
                },
                {
                    "attributes": {
                        "NORMAL": "accessor_buffer_Cube.005_1",
                        "POSITION": "accessor_buffer_Cube.005_0",
                        "TEXCOORD_0": "accessor_buffer_Cube.005_2"
                    },
                    "indices": "accessor_buffer_Cube.005_4",
                    "material": "material_GlacierIce2",
                    "mode": 4
                }
            ]
        }
    },
    "nodes": {
        "node_Glacier2": {
            "children": [],
            "matrix": [
                0.7184277176856995,
                0.6956015825271606,
                0.0,
                0.0,
                -0.6956015825271606,
                0.7184277176856995,
                0.0,
                0.0,
                0.0,
                0.0,
                1.0,
                0.0,
                0.0,
                0.0,
                0.0,
                1.0
            ],
            "meshes": [
                "mesh_Cube.005"
            ],
            "name": "Glacier2"
        },
        "node_scene_Scene_root": {
            "children": [
                "node_Glacier2"
            ],
            "matrix": [
                1.0,
                0.0,
                0.0,
                0.0,
                0.0,
                0.0,
                -1.0,
                0.0,
                0.0,
                1.0,
                0.0,
                0.0,
                0.0,
                0.0,
                0.0,
                1.0
            ],
            "name": "node_scene_Scene_root"
        }
    },
    "samplers": {
        "sampler_default": {}
    },
    "scene": "scene_Scene",
    "scenes": {
        "scene_Scene": {
            "extras": {
                "active_camera": null,
                "background_color": [
                    0.05087608844041824,
                    0.05087608844041824,
                    0.05087608844041824
                ],
                "frames_per_second": 24
            },
            "name": "Scene",
            "nodes": [
                "node_scene_Scene_root"
            ]
        }
    },
    "textures": {
        "texture_Glacier2": {
            "format": 6408,
            "internalFormat": 6408,
            "sampler": "sampler_default",
            "source": "image_Glacier2"
        }
    }
}
