{
    "accessors": {
        "accessor_buffer_Cube.009_0": {
            "bufferView": "bufferView_buffer_Cube.009_0",
            "byteOffset": 0,
            "byteStride": 12,
            "componentType": 5126,
            "count": 508,
            "max": [
                17.98230743408203,
                42.51070022583008,
                1.3636772632598877
            ],
            "min": [
                -30.904020309448242,
                -36.70170211791992,
                -22.343029022216797
            ],
            "type": "VEC3"
        },
        "accessor_buffer_Cube.009_1": {
            "bufferView": "bufferView_buffer_Cube.009_0",
            "byteOffset": 6096,
            "byteStride": 12,
            "componentType": 5126,
            "count": 508,
            "max": [
                0.999327540397644,
                0.9978431463241577,
                1.0
            ],
            "min": [
                -0.997772216796875,
                -0.9916216135025024,
                -0.9857800006866455
            ],
            "type": "VEC3"
        },
        "accessor_buffer_Cube.009_2": {
            "bufferView": "bufferView_buffer_Cube.009_0",
            "byteOffset": 12192,
            "byteStride": 8,
            "componentType": 5126,
            "count": 508,
            "max": [
                0.9997277855873108,
                0.9997268116276246
            ],
            "min": [
                0.0002721796336118132,
                0.00027316808700561523
            ],
            "type": "VEC2"
        },
        "accessor_buffer_Cube.009_3": {
            "bufferView": "bufferView_buffer_Cube.009_1",
            "byteOffset": 0,
            "byteStride": 2,
            "componentType": 5123,
            "count": 612,
            "max": [
                507
            ],
            "min": [
                0
            ],
            "type": "SCALAR"
        },
        "accessor_buffer_Cube.009_4": {
            "bufferView": "bufferView_buffer_Cube.009_2",
            "byteOffset": 0,
            "byteStride": 2,
            "componentType": 5123,
            "count": 144,
            "max": [
                501
            ],
            "min": [
                12
            ],
            "type": "SCALAR"
        }
    },
    "asset": {
        "profile": {
            "api": "WebGL",
            "version": "1.0.3"
        },
        "version": "1.0"
    },
    "bufferViews": {
        "bufferView_buffer_Cube.009_0": {
            "buffer": "buffer_combined",
            "byteLength": 16256,
            "byteOffset": 0,
            "target": 34962
        },
        "bufferView_buffer_Cube.009_1": {
            "buffer": "buffer_combined",
            "byteLength": 1224,
            "byteOffset": 16256,
            "target": 34963
        },
        "bufferView_buffer_Cube.009_2": {
            "buffer": "buffer_combined",
            "byteLength": 288,
            "byteOffset": 17480,
            "target": 34963
        }
    },
    "buffers": {
        "buffer_combined": {
            "byteLength": 17768,
            "type": "arraybuffer",
            "uri": "data:text/plain;base64,"
        }
    },
    "extensions": {
        "KHR_materials_common": {
            "lights": {}
        }
    },
    "extensionsUsed": [
        "KHR_materials_common"
    ],
    "images": {
        "image_Glacier2.001": {
            "uri": "Glacier2.png"
        }
    },
    "materials": {
        "material_GlacierIce2.001": {
            "extensions": {
                "KHR_materials_common": {
                    "technique": "PHONG",
                    "values": {
                        "ambient": [
                            1.0,
                            1.0,
                            1.0,
                            1.0
                        ],
                        "diffuse": "texture_Glacier2.001",
                        "doubleSided": false,
                        "emission": [
                            0.0,
                            0.0,
                            0.0,
                            1.0
                        ],
                        "shininess": 50,
                        "specular": [
                            0.5,
                            0.5,
                            0.5,
                            1.0
                        ],
                        "transparency": 1.0,
                        "transparent": false
                    }
                }
            },
            "name": "GlacierIce2.001"
        },
        "material_GlacierSnow2.001": {
            "extensions": {
                "KHR_materials_common": {
                    "technique": "PHONG",
                    "values": {
                        "ambient": [
                            1.0,
                            1.0,
                            1.0,
                            1.0
                        ],
                        "diffuse": "texture_Glacier2.001",
                        "doubleSided": false,
                        "emission": [
                            0.0,
                            0.0,
                            0.0,
                            1.0
                        ],
                        "shininess": 50,
                        "specular": [
                            0.5,
                            0.5,
                            0.5,
                            1.0
                        ],
                        "transparency": 1.0,
                        "transparent": false
                    }
                }
            },
            "name": "GlacierSnow2.001"
        }
    },
    "meshes": {
        "mesh_Cube.009": {
            "name": "Cube.009",
            "primitives": [
                {
                    "attributes": {
                        "NORMAL": "accessor_buffer_Cube.009_1",
                        "POSITION": "accessor_buffer_Cube.009_0",
                        "TEXCOORD_0": "accessor_buffer_Cube.009_2"
                    },
                    "indices": "accessor_buffer_Cube.009_3",
                    "material": "material_GlacierIce2.001",
                    "mode": 4
                },
                {
                    "attributes": {
                        "NORMAL": "accessor_buffer_Cube.009_1",
                        "POSITION": "accessor_buffer_Cube.009_0",
                        "TEXCOORD_0": "accessor_buffer_Cube.009_2"
                    },
                    "indices": "accessor_buffer_Cube.009_4",
                    "material": "material_GlacierSnow2.001",
                    "mode": 4
                }
            ]
        }
    },
    "nodes": {
        "node_Glacier2.001": {
            "children": [],
            "matrix": [
                0.7184277176856995,
                0.6956015825271606,
                0.0,
                0.0,
                -0.6956015825271606,
                0.7184277176856995,
                0.0,
                0.0,
                0.0,
                0.0,
                1.0,
                0.0,
                0.0,
                0.0,
                0.0,
                1.0
            ],
            "meshes": [
                "mesh_Cube.009"
            ],
            "name": "Glacier2.001"
        },
        "node_scene_Scene_root": {
            "children": [
                "node_Glacier2.001"
            ],
            "matrix": [
                1.0,
                0.0,
                0.0,
                0.0,
                0.0,
                0.0,
                -1.0,
                0.0,
                0.0,
                1.0,
                0.0,
                0.0,
                0.0,
                0.0,
                0.0,
                1.0
            ],
            "name": "node_scene_Scene_root"
        }
    },
    "samplers": {
        "sampler_default": {}
    },
    "scene": "scene_Scene",
    "scenes": {
        "scene_Scene": {
            "extras": {
                "active_camera": null,
                "background_color": [
                    0.05087608844041824,
                    0.05087608844041824,
                    0.05087608844041824
                ],
                "frames_per_second": 24
            },
            "name": "Scene",
            "nodes": [
                "node_scene_Scene_root"
            ]
        }
    },
    "textures": {
        "texture_Glacier2.001": {
            "format": 6408,
            "internalFormat": 6408,
            "sampler": "sampler_default",
            "source": "image_Glacier2.001"
        }
    }
}
