{
    "accessors": {
        "accessor_buffer_Cube.015_0": {
            "bufferView": "bufferView_buffer_Cube.015_0",
            "byteOffset": 0,
            "byteStride": 12,
            "componentType": 5126,
            "count": 752,
            "max": [
                31.34917449951172,
                27.820507049560547,
                4.150545120239258
            ],
            "min": [
                -30.104862213134766,
                -30.3106746673584,
                -14.317068099975586
            ],
            "type": "VEC3"
        },
        "accessor_buffer_Cube.015_1": {
            "bufferView": "bufferView_buffer_Cube.015_0",
            "byteOffset": 9024,
            "byteStride": 12,
            "componentType": 5126,
            "count": 752,
            "max": [
                0.9084917902946472,
                0.9968938231468201,
                1.0
            ],
            "min": [
                -0.9950720071792603,
                -0.9305055737495422,
                -1.0
            ],
            "type": "VEC3"
        },
        "accessor_buffer_Cube.015_2": {
            "bufferView": "bufferView_buffer_Cube.015_0",
            "byteOffset": 18048,
            "byteStride": 8,
            "componentType": 5126,
            "count": 752,
            "max": [
                0.999666154384613,
                0.999693680438213
            ],
            "min": [
                0.0003337622620165348,
                0.0003063082695007324
            ],
            "type": "VEC2"
        },
        "accessor_buffer_Cube.015_3": {
            "bufferView": "bufferView_buffer_Cube.015_1",
            "byteOffset": 0,
            "byteStride": 2,
            "componentType": 5123,
            "count": 534,
            "max": [
                751
            ],
            "min": [
                0
            ],
            "type": "SCALAR"
        },
        "accessor_buffer_Cube.015_4": {
            "bufferView": "bufferView_buffer_Cube.015_2",
            "byteOffset": 0,
            "byteStride": 2,
            "componentType": 5123,
            "count": 222,
            "max": [
                749
            ],
            "min": [
                2
            ],
            "type": "SCALAR"
        }
    },
    "asset": {
        "profile": {
            "api": "WebGL",
            "version": "1.0.3"
        },
        "version": "1.0"
    },
    "bufferViews": {
        "bufferView_buffer_Cube.015_0": {
            "buffer": "buffer_combined",
            "byteLength": 24064,
            "byteOffset": 0,
            "target": 34962
        },
        "bufferView_buffer_Cube.015_1": {
            "buffer": "buffer_combined",
            "byteLength": 1068,
            "byteOffset": 24064,
            "target": 34963
        },
        "bufferView_buffer_Cube.015_2": {
            "buffer": "buffer_combined",
            "byteLength": 444,
            "byteOffset": 25132,
            "target": 34963
        }
    },
    "buffers": {
        "buffer_combined": {
            "byteLength": 25576,
            "type": "arraybuffer",
            "uri": "data:text/plain;base64,"
        }
    },
    "extensions": {
        "KHR_materials_common": {
            "lights": {}
        }
    },
    "extensionsUsed": [
        "KHR_materials_common"
    ],
    "images": {
        "image_Glacier4": {
            "uri": "Glacier4.png"
        }
    },
    "materials": {
        "material_GlacierIce4": {
            "extensions": {
                "KHR_materials_common": {
                    "technique": "PHONG",
                    "values": {
                        "ambient": [
                            1.0,
                            1.0,
                            1.0,
                            1.0
                        ],
                        "diffuse": "texture_Glacier4",
                        "doubleSided": false,
                        "emission": [
                            0.0,
                            0.0,
                            0.0,
                            1.0
                        ],
                        "shininess": 50,
                        "specular": [
                            0.5,
                            0.5,
                            0.5,
                            1.0
                        ],
                        "transparency": 1.0,
                        "transparent": false
                    }
                }
            },
            "name": "GlacierIce4"
        },
        "material_GlacierSnow4": {
            "extensions": {
                "KHR_materials_common": {
                    "technique": "PHONG",
                    "values": {
                        "ambient": [
                            1.0,
                            1.0,
                            1.0,
                            1.0
                        ],
                        "diffuse": "texture_Glacier4",
                        "doubleSided": false,
                        "emission": [
                            0.0,
                            0.0,
                            0.0,
                            1.0
                        ],
                        "shininess": 50,
                        "specular": [
                            0.5,
                            0.5,
                            0.5,
                            1.0
                        ],
                        "transparency": 1.0,
                        "transparent": false
                    }
                }
            },
            "name": "GlacierSnow4"
        }
    },
    "meshes": {
        "mesh_Cube.015": {
            "name": "Cube.015",
            "primitives": [
                {
                    "attributes": {
                        "NORMAL": "accessor_buffer_Cube.015_1",
                        "POSITION": "accessor_buffer_Cube.015_0",
                        "TEXCOORD_0": "accessor_buffer_Cube.015_2"
                    },
                    "indices": "accessor_buffer_Cube.015_3",
                    "material": "material_GlacierIce4",
                    "mode": 4
                },
                {
                    "attributes": {
                        "NORMAL": "accessor_buffer_Cube.015_1",
                        "POSITION": "accessor_buffer_Cube.015_0",
                        "TEXCOORD_0": "accessor_buffer_Cube.015_2"
                    },
                    "indices": "accessor_buffer_Cube.015_4",
                    "material": "material_GlacierSnow4",
                    "mode": 4
                }
            ]
        }
    },
    "nodes": {
        "node_Cube": {
            "children": [],
            "matrix": [
                1.0,
                0.0,
                0.0,
                0.0,
                0.0,
                1.0,
                0.0,
                0.0,
                0.0,
                0.0,
                1.0,
                0.0,
                -81.18197631835938,
                -38.151763916015625,
                -2.8524258136749268,
                1.0
            ],
            "meshes": [
                "mesh_Cube.015"
            ],
            "name": "Cube"
        },
        "node_scene_Scene_root": {
            "children": [
                "node_Cube"
            ],
            "matrix": [
                1.0,
                0.0,
                0.0,
                0.0,
                0.0,
                0.0,
                -1.0,
                0.0,
                0.0,
                1.0,
                0.0,
                0.0,
                0.0,
                0.0,
                0.0,
                1.0
            ],
            "name": "node_scene_Scene_root"
        }
    },
    "samplers": {
        "sampler_default": {}
    },
    "scene": "scene_Scene",
    "scenes": {
        "scene_Scene": {
            "extras": {
                "active_camera": null,
                "background_color": [
                    0.6738413572311401,
                    0.6738413572311401,
                    0.6738413572311401
                ],
                "frames_per_second": 24
            },
            "name": "Scene",
            "nodes": [
                "node_scene_Scene_root"
            ]
        }
    },
    "textures": {
        "texture_Glacier4": {
            "format": 6408,
            "internalFormat": 6408,
            "sampler": "sampler_default",
            "source": "image_Glacier4"
        }
    }
}
