{
    "accessors": {
        "accessor_buffer_Cube.002_0": {
            "bufferView": "bufferView_buffer_Cube.002_0",
            "byteOffset": 0,
            "byteStride": 12,
            "componentType": 5126,
            "count": 557,
            "max": [
                1.7168179750442505,
                4.025410175323486,
                4.002695083618164
            ],
            "min": [
                -1.2717159986495972,
                -2.418743848800659,
                -52.67253494262695
            ],
            "type": "VEC3"
        },
        "accessor_buffer_Cube.002_1": {
            "bufferView": "bufferView_buffer_Cube.002_0",
            "byteOffset": 6684,
            "byteStride": 12,
            "componentType": 5126,
            "count": 557,
            "max": [
                0.9999653100967407,
                0.9999485611915588,
                1.0
            ],
            "min": [
                -0.9995980262756348,
                -1.0,
                -1.0
            ],
            "type": "VEC3"
        },
        "accessor_buffer_Cube.002_2": {
            "bufferView": "bufferView_buffer_Cube.002_0",
            "byteOffset": 13368,
            "byteStride": 8,
            "componentType": 5126,
            "count": 557,
            "max": [
                0.9986560344696045,
                0.9994701470131986
            ],
            "min": [
                0.0013439670437946916,
                0.0005298256874084473
            ],
            "type": "VEC2"
        },
        "accessor_buffer_Cube.002_3": {
            "bufferView": "bufferView_buffer_Cube.002_1",
            "byteOffset": 0,
            "byteStride": 2,
            "componentType": 5123,
            "count": 915,
            "max": [
                556
            ],
            "min": [
                1
            ],
            "type": "SCALAR"
        },
        "accessor_buffer_Cube.002_4": {
            "bufferView": "bufferView_buffer_Cube.002_2",
            "byteOffset": 0,
            "byteStride": 2,
            "componentType": 5123,
            "count": 255,
            "max": [
                552
            ],
            "min": [
                0
            ],
            "type": "SCALAR"
        }
    },
    "asset": {
        "profile": {
            "api": "WebGL",
            "version": "1.0.3"
        },
        "version": "1.0"
    },
    "bufferViews": {
        "bufferView_buffer_Cube.002_0": {
            "buffer": "buffer_combined",
            "byteLength": 17824,
            "byteOffset": 0,
            "target": 34962
        },
        "bufferView_buffer_Cube.002_1": {
            "buffer": "buffer_combined",
            "byteLength": 1830,
            "byteOffset": 17824,
            "target": 34963
        },
        "bufferView_buffer_Cube.002_2": {
            "buffer": "buffer_combined",
            "byteLength": 510,
            "byteOffset": 19654,
            "target": 34963
        }
    },
    "buffers": {
        "buffer_combined": {
            "byteLength": 20164,
            "type": "arraybuffer",
            "uri": "data:text/plain;base64,"
        }
    },
    "extensions": {
        "KHR_materials_common": {
            "lights": {}
        }
    },
    "extensionsUsed": [
        "KHR_materials_common"
    ],
    "images": {
        "image_Glacier": {
            "uri": "Glacier.png"
        }
    },
    "materials": {
        "material_Ice 5": {
            "extensions": {
                "KHR_materials_common": {
                    "technique": "PHONG",
                    "values": {
                        "ambient": [
                            1.0,
                            1.0,
                            1.0,
                            1.0
                        ],
                        "diffuse": "texture_Glacier",
                        "doubleSided": false,
                        "emission": [
                            0.0,
                            0.0,
                            0.0,
                            1.0
                        ],
                        "shininess": 50,
                        "specular": [
                            0.5,
                            0.5,
                            0.5,
                            1.0
                        ],
                        "transparency": 1.0,
                        "transparent": false
                    }
                }
            },
            "name": "Ice 5"
        },
        "material_Snow": {
            "extensions": {
                "KHR_materials_common": {
                    "technique": "PHONG",
                    "values": {
                        "ambient": [
                            1.0,
                            1.0,
                            1.0,
                            1.0
                        ],
                        "diffuse": "texture_Glacier",
                        "doubleSided": false,
                        "emission": [
                            0.0,
                            0.0,
                            0.0,
                            1.0
                        ],
                        "shininess": 50,
                        "specular": [
                            0.5,
                            0.5,
                            0.5,
                            1.0
                        ],
                        "transparency": 1.0,
                        "transparent": false
                    }
                }
            },
            "name": "Snow"
        }
    },
    "meshes": {
        "mesh_Cube.002": {
            "name": "Cube.002",
            "primitives": [
                {
                    "attributes": {
                        "NORMAL": "accessor_buffer_Cube.002_1",
                        "POSITION": "accessor_buffer_Cube.002_0",
                        "TEXCOORD_0": "accessor_buffer_Cube.002_2"
                    },
                    "indices": "accessor_buffer_Cube.002_3",
                    "material": "material_Ice 5",
                    "mode": 4
                },
                {
                    "attributes": {
                        "NORMAL": "accessor_buffer_Cube.002_1",
                        "POSITION": "accessor_buffer_Cube.002_0",
                        "TEXCOORD_0": "accessor_buffer_Cube.002_2"
                    },
                    "indices": "accessor_buffer_Cube.002_4",
                    "material": "material_Snow",
                    "mode": 4
                }
            ]
        }
    },
    "nodes": {
        "node_Cube": {
            "children": [],
            "matrix": [
                16.639022827148438,
                0.0,
                0.0,
                0.0,
                0.0,
                6.05224609375,
                0.0,
                0.0,
                0.0,
                0.0,
                0.2650746703147888,
                0.0,
                11.918546676635742,
                23.516767501831055,
                0.34284359216690063,
                1.0
            ],
            "meshes": [
                "mesh_Cube.002"
            ],
            "name": "Cube"
        },
        "node_scene_Scene_root": {
            "children": [
                "node_Cube"
            ],
            "matrix": [
                1.0,
                0.0,
                0.0,
                0.0,
                0.0,
                0.0,
                -1.0,
                0.0,
                0.0,
                1.0,
                0.0,
                0.0,
                0.0,
                0.0,
                0.0,
                1.0
            ],
            "name": "node_scene_Scene_root"
        }
    },
    "samplers": {
        "sampler_default": {}
    },
    "scene": "scene_Scene",
    "scenes": {
        "scene_Scene": {
            "extras": {
                "active_camera": null,
                "background_color": [
                    0.05087608844041824,
                    0.05087608844041824,
                    0.05087608844041824
                ],
                "frames_per_second": 24
            },
            "name": "Scene",
            "nodes": [
                "node_scene_Scene_root"
            ]
        }
    },
    "textures": {
        "texture_Glacier": {
            "format": 6408,
            "internalFormat": 6408,
            "sampler": "sampler_default",
            "source": "image_Glacier"
        }
    }
}
