{
    "accessors": {
        "accessor_buffer_Cube.002_0": {
            "bufferView": "bufferView_buffer_Cube.002_0",
            "byteOffset": 0,
            "byteStride": 12,
            "componentType": 5126,
            "count": 828,
            "max": [
                28.566173553466797,
                24.362773895263672,
                1.061013102531433
            ],
            "min": [
                -21.160112380981445,
                -14.638833045959473,
                -13.962154388427734
            ],
            "type": "VEC3"
        },
        "accessor_buffer_Cube.002_1": {
            "bufferView": "bufferView_buffer_Cube.002_0",
            "byteOffset": 9936,
            "byteStride": 12,
            "componentType": 5126,
            "count": 828,
            "max": [
                0.999800980091095,
                0.9999931454658508,
                1.0
            ],
            "min": [
                -0.9911350011825562,
                -1.0,
                -1.0
            ],
            "type": "VEC3"
        },
        "accessor_buffer_Cube.002_2": {
            "bufferView": "bufferView_buffer_Cube.002_0",
            "byteOffset": 19872,
            "byteStride": 8,
            "componentType": 5126,
            "count": 828,
            "max": [
                0.9983388781547546,
                0.9987974617397413
            ],
            "min": [
                0.0012025382602587342,
                0.0012025237083435059
            ],
            "type": "VEC2"
        },
        "accessor_buffer_Cube.002_3": {
            "bufferView": "bufferView_buffer_Cube.002_1",
            "byteOffset": 0,
            "byteStride": 2,
            "componentType": 5123,
            "count": 909,
            "max": [
                827
            ],
            "min": [
                0
            ],
            "type": "SCALAR"
        },
        "accessor_buffer_Cube.002_4": {
            "bufferView": "bufferView_buffer_Cube.002_2",
            "byteOffset": 0,
            "byteStride": 2,
            "componentType": 5123,
            "count": 261,
            "max": [
                825
            ],
            "min": [
                11
            ],
            "type": "SCALAR"
        }
    },
    "asset": {
        "profile": {
            "api": "WebGL",
            "version": "1.0.3"
        },
        "version": "1.0"
    },
    "bufferViews": {
        "bufferView_buffer_Cube.002_0": {
            "buffer": "buffer_combined",
            "byteLength": 26496,
            "byteOffset": 0,
            "target": 34962
        },
        "bufferView_buffer_Cube.002_1": {
            "buffer": "buffer_combined",
            "byteLength": 1818,
            "byteOffset": 26496,
            "target": 34963
        },
        "bufferView_buffer_Cube.002_2": {
            "buffer": "buffer_combined",
            "byteLength": 522,
            "byteOffset": 28314,
            "target": 34963
        }
    },
    "buffers": {
        "buffer_combined": {
            "byteLength": 28836,
            "type": "arraybuffer",
            "uri": "data:text/plain;base64,"
        }
    },
    "extensions": {
        "KHR_materials_common": {
            "lights": {}
        }
    },
    "extensionsUsed": [
        "KHR_materials_common"
    ],
    "images": {
        "image_Glacier1": {
            "uri": "GlacierNEW.png"
        }
    },
    "materials": {
        "material_GlacierIce": {
            "extensions": {
                "KHR_materials_common": {
                    "technique": "PHONG",
                    "values": {
                        "ambient": [
                            1.0,
                            1.0,
                            1.0,
                            1.0
                        ],
                        "diffuse": "texture_Glacier",
                        "doubleSided": false,
                        "emission": [
                            0.0,
                            0.0,
                            0.0,
                            1.0
                        ],
                        "shininess": 50,
                        "specular": [
                            0.5,
                            0.5,
                            0.5,
                            1.0
                        ],
                        "transparency": 1.0,
                        "transparent": false
                    }
                }
            },
            "name": "GlacierIce"
        },
        "material_GlacierSnow": {
            "extensions": {
                "KHR_materials_common": {
                    "technique": "PHONG",
                    "values": {
                        "ambient": [
                            1.0,
                            1.0,
                            1.0,
                            1.0
                        ],
                        "diffuse": "texture_Glacier",
                        "doubleSided": false,
                        "emission": [
                            0.0,
                            0.0,
                            0.0,
                            1.0
                        ],
                        "shininess": 50,
                        "specular": [
                            0.5,
                            0.5,
                            0.5,
                            1.0
                        ],
                        "transparency": 1.0,
                        "transparent": false
                    }
                }
            },
            "name": "GlacierSnow"
        }
    },
    "meshes": {
        "mesh_Cube.002": {
            "name": "Cube.002",
            "primitives": [
                {
                    "attributes": {
                        "NORMAL": "accessor_buffer_Cube.002_1",
                        "POSITION": "accessor_buffer_Cube.002_0",
                        "TEXCOORD_0": "accessor_buffer_Cube.002_2"
                    },
                    "indices": "accessor_buffer_Cube.002_3",
                    "material": "material_GlacierIce",
                    "mode": 4
                },
                {
                    "attributes": {
                        "NORMAL": "accessor_buffer_Cube.002_1",
                        "POSITION": "accessor_buffer_Cube.002_0",
                        "TEXCOORD_0": "accessor_buffer_Cube.002_2"
                    },
                    "indices": "accessor_buffer_Cube.002_4",
                    "material": "material_GlacierSnow",
                    "mode": 4
                }
            ]
        }
    },
    "nodes": {
        "node_Glacier": {
            "children": [],
            "matrix": [
                1.0,
                0.0,
                0.0,
                0.0,
                0.0,
                1.0,
                0.0,
                0.0,
                0.0,
                0.0,
                1.0,
                0.0,
                11.918546676635742,
                23.516767501831055,
                0.34284359216690063,
                1.0
            ],
            "meshes": [
                "mesh_Cube.002"
            ],
            "name": "Glacier"
        },
        "node_scene_Scene_root": {
            "children": [
                "node_Glacier"
            ],
            "matrix": [
                1.0,
                0.0,
                0.0,
                0.0,
                0.0,
                0.0,
                -1.0,
                0.0,
                0.0,
                1.0,
                0.0,
                0.0,
                0.0,
                0.0,
                0.0,
                1.0
            ],
            "name": "node_scene_Scene_root"
        }
    },
    "samplers": {
        "sampler_default": {}
    },
    "scene": "scene_Scene",
    "scenes": {
        "scene_Scene": {
            "extras": {
                "active_camera": null,
                "background_color": [
                    0.05087608844041824,
                    0.05087608844041824,
                    0.05087608844041824
                ],
                "frames_per_second": 24
            },
            "name": "Scene",
            "nodes": [
                "node_scene_Scene_root"
            ]
        }
    },
    "textures": {
        "texture_Glacier": {
            "format": 6408,
            "internalFormat": 6408,
            "sampler": "sampler_default",
            "source": "image_Glacier1"
        }
    }
}
