{
    "accessors": {
        "accessor_buffer_Ice Chunk 1_0": {
            "bufferView": "bufferView_buffer_Ice Chunk 1_0",
            "byteOffset": 0,
            "byteStride": 12,
            "componentType": 5126,
            "count": 146,
            "max": [
                2.7813258171081543,
                1.9112193584442139,
                0.22567428648471832
            ],
            "min": [
                -0.5649362206459045,
                -1.1550638675689697,
                -0.22582338750362396
            ],
            "type": "VEC3"
        },
        "accessor_buffer_Ice Chunk 1_1": {
            "bufferView": "bufferView_buffer_Ice Chunk 1_0",
            "byteOffset": 1752,
            "byteStride": 12,
            "componentType": 5126,
            "count": 146,
            "max": [
                0.9815011620521545,
                0.9559966325759888,
                1.0
            ],
            "min": [
                -1.0,
                -0.9853312969207764,
                -1.0
            ],
            "type": "VEC3"
        },
        "accessor_buffer_Ice Chunk 1_2": {
            "bufferView": "bufferView_buffer_Ice Chunk 1_0",
            "byteOffset": 3504,
            "byteStride": 8,
            "componentType": 5126,
            "count": 146,
            "max": [
                0.9939619898796082,
                0.99421083368361
            ],
            "min": [
                0.006038051564246416,
                0.00578916072845459
            ],
            "type": "VEC2"
        },
        "accessor_buffer_Ice Chunk 1_3": {
            "bufferView": "bufferView_buffer_Ice Chunk 1_1",
            "byteOffset": 0,
            "byteStride": 2,
            "componentType": 5123,
            "count": 210,
            "max": [
                145
            ],
            "min": [
                0
            ],
            "type": "SCALAR"
        }
    },
    "asset": {
        "profile": {
            "api": "WebGL",
            "version": "1.0.3"
        },
        "version": "1.0"
    },
    "bufferViews": {
        "bufferView_buffer_Ice Chunk 1_0": {
            "buffer": "buffer_combined",
            "byteLength": 4672,
            "byteOffset": 0,
            "target": 34962
        },
        "bufferView_buffer_Ice Chunk 1_1": {
            "buffer": "buffer_combined",
            "byteLength": 420,
            "byteOffset": 4672,
            "target": 34963
        }
    },
    "buffers": {
        "buffer_combined": {
            "byteLength": 5092,
            "type": "arraybuffer",
            "uri": "data:text/plain;base64,"
        }
    },
    "extensions": {
        "KHR_materials_common": {
            "lights": {}
        }
    },
    "extensionsUsed": [
        "KHR_materials_common"
    ],
    "images": {
        "image_IceChunk": {
            "uri": "IceChunk.png"
        }
    },
    "materials": {
        "material_IceChunk": {
            "extensions": {
                "KHR_materials_common": {
                    "technique": "PHONG",
                    "values": {
                        "ambient": [
                            1.0,
                            1.0,
                            1.0,
                            1.0
                        ],
                        "diffuse": "texture_IceChunk1",
                        "doubleSided": false,
                        "emission": [
                            0.0,
                            0.0,
                            0.0,
                            1.0
                        ],
                        "shininess": 50,
                        "specular": [
                            0.5,
                            0.5,
                            0.5,
                            1.0
                        ],
                        "transparency": 1.0,
                        "transparent": false
                    }
                }
            },
            "name": "IceChunk"
        }
    },
    "meshes": {
        "mesh_Ice Chunk 1": {
            "name": "Ice Chunk 1",
            "primitives": [
                {
                    "attributes": {
                        "NORMAL": "accessor_buffer_Ice Chunk 1_1",
                        "POSITION": "accessor_buffer_Ice Chunk 1_0",
                        "TEXCOORD_0": "accessor_buffer_Ice Chunk 1_2"
                    },
                    "indices": "accessor_buffer_Ice Chunk 1_3",
                    "material": "material_IceChunk",
                    "mode": 4
                }
            ]
        }
    },
    "nodes": {
        "node_Ice Chunk 1": {
            "children": [],
            "matrix": [
                -0.7522605061531067,
                1.0353593826293945,
                0.0,
                0.0,
                -1.0353593826293945,
                -0.7522605061531067,
                0.0,
                0.0,
                0.0,
                0.0,
                3.384859085083008,
                0.0,
                -24.572830200195312,
                -67.06974029541016,
                0.15654882788658142,
                1.0
            ],
            "meshes": [
                "mesh_Ice Chunk 1"
            ],
            "name": "Ice Chunk 1"
        },
        "node_scene_Scene_root": {
            "children": [
                "node_Ice Chunk 1"
            ],
            "matrix": [
                1.0,
                0.0,
                0.0,
                0.0,
                0.0,
                0.0,
                -1.0,
                0.0,
                0.0,
                1.0,
                0.0,
                0.0,
                0.0,
                0.0,
                0.0,
                1.0
            ],
            "name": "node_scene_Scene_root"
        }
    },
    "samplers": {
        "sampler_default": {}
    },
    "scene": "scene_Scene",
    "scenes": {
        "scene_Scene": {
            "extras": {
                "active_camera": null,
                "background_color": [
                    0.6738413572311401,
                    0.6738413572311401,
                    0.6738413572311401
                ],
                "frames_per_second": 24
            },
            "name": "Scene",
            "nodes": [
                "node_scene_Scene_root"
            ]
        }
    },
    "textures": {
        "texture_IceChunk1": {
            "format": 6408,
            "internalFormat": 6408,
            "sampler": "sampler_default",
            "source": "image_IceChunk"
        }
    }
}
