{
    "accessors": {
        "accessor_buffer_Cube_0": {
            "bufferView": "bufferView_buffer_Cube_0",
            "byteOffset": 0,
            "byteStride": 12,
            "componentType": 5126,
            "count": 200,
            "max": [
                1.288460373878479,
                1.0535448789596558,
                1.3893309831619263
            ],
            "min": [
                -0.783775269985199,
                -1.0531244277954102,
                -2.810426712036133
            ],
            "type": "VEC3"
        },
        "accessor_buffer_Cube_1": {
            "bufferView": "bufferView_buffer_Cube_0",
            "byteOffset": 2400,
            "byteStride": 12,
            "componentType": 5126,
            "count": 200,
            "max": [
                0.929618239402771,
                0.9928250312805176,
                1.0
            ],
            "min": [
                -0.9983350038528442,
                -0.9793946146965027,
                -0.7432871460914612
            ],
            "type": "VEC3"
        },
        "accessor_buffer_Cube_2": {
            "bufferView": "bufferView_buffer_Cube_0",
            "byteOffset": 4800,
            "byteStride": 8,
            "componentType": 5126,
            "count": 200,
            "max": [
                0.99937903881073,
                0.9993791125016287
            ],
            "min": [
                0.0006208874983713031,
                0.013108551502227783
            ],
            "type": "VEC2"
        },
        "accessor_buffer_Cube_3": {
            "bufferView": "bufferView_buffer_Cube_1",
            "byteOffset": 0,
            "byteStride": 2,
            "componentType": 5123,
            "count": 306,
            "max": [
                199
            ],
            "min": [
                0
            ],
            "type": "SCALAR"
        }
    },
    "asset": {
        "profile": {
            "api": "WebGL",
            "version": "1.0.3"
        },
        "version": "1.0"
    },
    "bufferViews": {
        "bufferView_buffer_Cube_0": {
            "buffer": "buffer_combined",
            "byteLength": 6400,
            "byteOffset": 0,
            "target": 34962
        },
        "bufferView_buffer_Cube_1": {
            "buffer": "buffer_combined",
            "byteLength": 612,
            "byteOffset": 6400,
            "target": 34963
        }
    },
    "buffers": {
        "buffer_combined": {
            "byteLength": 7012,
            "type": "arraybuffer",
            "uri": "data:text/plain;base64,"
        }
    },
    "extensions": {
        "KHR_materials_common": {
            "lights": {}
        }
    },
    "extensionsUsed": [
        "KHR_materials_common"
    ],
    "images": {
        "image_IcePlatform4": {
            "uri": "IcePlatform4.png"
        }
    },
    "materials": {
        "material_IcePlat4": {
            "extensions": {
                "KHR_materials_common": {
                    "technique": "PHONG",
                    "values": {
                        "ambient": [
                            1.0,
                            1.0,
                            1.0,
                            1.0
                        ],
                        "diffuse": "texture_IcePlatform4",
                        "doubleSided": false,
                        "emission": [
                            0.0,
                            0.0,
                            0.0,
                            1.0
                        ],
                        "shininess": 50,
                        "specular": [
                            0.5,
                            0.5,
                            0.5,
                            1.0
                        ],
                        "transparency": 1.0,
                        "transparent": false
                    }
                }
            },
            "name": "IcePlat4"
        }
    },
    "meshes": {
        "mesh_Cube": {
            "name": "Cube",
            "primitives": [
                {
                    "attributes": {
                        "NORMAL": "accessor_buffer_Cube_1",
                        "POSITION": "accessor_buffer_Cube_0",
                        "TEXCOORD_0": "accessor_buffer_Cube_2"
                    },
                    "indices": "accessor_buffer_Cube_3",
                    "material": "material_IcePlat4",
                    "mode": 4
                }
            ]
        }
    },
    "nodes": {
        "node_Ice Platform 4": {
            "children": [],
            "matrix": [
                4.733826160430908,
                0.0,
                0.0,
                0.0,
                0.0,
                4.733826160430908,
                0.0,
                0.0,
                0.0,
                0.0,
                0.754912257194519,
                0.0,
                -66.71951293945312,
                -81.79833984375,
                0.0,
                1.0
            ],
            "meshes": [
                "mesh_Cube"
            ],
            "name": "Ice Platform 4"
        },
        "node_scene_Scene_root": {
            "children": [
                "node_Ice Platform 4"
            ],
            "matrix": [
                1.0,
                0.0,
                0.0,
                0.0,
                0.0,
                0.0,
                -1.0,
                0.0,
                0.0,
                1.0,
                0.0,
                0.0,
                0.0,
                0.0,
                0.0,
                1.0
            ],
            "name": "node_scene_Scene_root"
        }
    },
    "samplers": {
        "sampler_default": {}
    },
    "scene": "scene_Scene",
    "scenes": {
        "scene_Scene": {
            "extras": {
                "active_camera": null,
                "background_color": [
                    0.05087608844041824,
                    0.05087608844041824,
                    0.05087608844041824
                ],
                "frames_per_second": 24
            },
            "name": "Scene",
            "nodes": [
                "node_scene_Scene_root"
            ]
        }
    },
    "textures": {
        "texture_IcePlatform4": {
            "format": 6408,
            "internalFormat": 6408,
            "sampler": "sampler_default",
            "source": "image_IcePlatform4"
        }
    }
}
