{
    "accessors": {
        "accessor_buffer_Cube.001_0": {
            "bufferView": "bufferView_buffer_Cube.001_0",
            "byteOffset": 0,
            "byteStride": 12,
            "componentType": 5126,
            "count": 394,
            "max": [
                1.5718541145324707,
                1.2443214654922485,
                1.4850027561187744
            ],
            "min": [
                -1.089065670967102,
                -1.247391939163208,
                -3.514496088027954
            ],
            "type": "VEC3"
        },
        "accessor_buffer_Cube.001_1": {
            "bufferView": "bufferView_buffer_Cube.001_0",
            "byteOffset": 4728,
            "byteStride": 12,
            "componentType": 5126,
            "count": 394,
            "max": [
                0.9999638199806213,
                0.9868934154510498,
                1.0
            ],
            "min": [
                -0.9989000558853149,
                -0.9669623374938965,
                -1.0
            ],
            "type": "VEC3"
        },
        "accessor_buffer_Cube.001_2": {
            "bufferView": "bufferView_buffer_Cube.001_0",
            "byteOffset": 9456,
            "byteStride": 8,
            "componentType": 5126,
            "count": 394,
            "max": [
                0.9896347522735596,
                0.9991213181056082
            ],
            "min": [
                0.0008786818943917751,
                0.000878751277923584
            ],
            "type": "VEC2"
        },
        "accessor_buffer_Cube.001_3": {
            "bufferView": "bufferView_buffer_Cube.001_1",
            "byteOffset": 0,
            "byteStride": 2,
            "componentType": 5123,
            "count": 576,
            "max": [
                393
            ],
            "min": [
                0
            ],
            "type": "SCALAR"
        }
    },
    "asset": {
        "profile": {
            "api": "WebGL",
            "version": "1.0.3"
        },
        "version": "1.0"
    },
    "bufferViews": {
        "bufferView_buffer_Cube.001_0": {
            "buffer": "buffer_combined",
            "byteLength": 12608,
            "byteOffset": 0,
            "target": 34962
        },
        "bufferView_buffer_Cube.001_1": {
            "buffer": "buffer_combined",
            "byteLength": 1152,
            "byteOffset": 12608,
            "target": 34963
        }
    },
    "buffers": {
        "buffer_combined": {
            "byteLength": 13760,
            "type": "arraybuffer",
            "uri": "data:text/plain;base64,"
        }
    },
    "extensions": {
        "KHR_materials_common": {
            "lights": {}
        }
    },
    "extensionsUsed": [
        "KHR_materials_common"
    ],
    "images": {
        "image_IcePlatform5": {
            "uri": "IcePlatform5.png"
        }
    },
    "materials": {
        "material_IcePlat5": {
            "extensions": {
                "KHR_materials_common": {
                    "technique": "PHONG",
                    "values": {
                        "ambient": [
                            1.0,
                            1.0,
                            1.0,
                            1.0
                        ],
                        "diffuse": "texture_IcePlatform5",
                        "doubleSided": false,
                        "emission": [
                            0.0,
                            0.0,
                            0.0,
                            1.0
                        ],
                        "shininess": 50,
                        "specular": [
                            0.5,
                            0.5,
                            0.5,
                            1.0
                        ],
                        "transparency": 1.0,
                        "transparent": false
                    }
                }
            },
            "name": "IcePlat5"
        }
    },
    "meshes": {
        "mesh_Cube.001": {
            "name": "Cube.001",
            "primitives": [
                {
                    "attributes": {
                        "NORMAL": "accessor_buffer_Cube.001_1",
                        "POSITION": "accessor_buffer_Cube.001_0",
                        "TEXCOORD_0": "accessor_buffer_Cube.001_2"
                    },
                    "indices": "accessor_buffer_Cube.001_3",
                    "material": "material_IcePlat5",
                    "mode": 4
                }
            ]
        }
    },
    "nodes": {
        "node_Ice Platform 5": {
            "children": [],
            "matrix": [
                3.9316864013671875,
                -1.4826319217681885,
                0.0,
                0.0,
                2.8743607997894287,
                7.622313499450684,
                0.0,
                0.0,
                0.0,
                0.0,
                0.7880616188049316,
                0.0,
                58.8309326171875,
                14.8966703414917,
                0.0,
                1.0
            ],
            "meshes": [
                "mesh_Cube.001"
            ],
            "name": "Ice Platform 5"
        },
        "node_scene_Scene_root": {
            "children": [
                "node_Ice Platform 5"
            ],
            "matrix": [
                1.0,
                0.0,
                0.0,
                0.0,
                0.0,
                0.0,
                -1.0,
                0.0,
                0.0,
                1.0,
                0.0,
                0.0,
                0.0,
                0.0,
                0.0,
                1.0
            ],
            "name": "node_scene_Scene_root"
        }
    },
    "samplers": {
        "sampler_default": {}
    },
    "scene": "scene_Scene",
    "scenes": {
        "scene_Scene": {
            "extras": {
                "active_camera": null,
                "background_color": [
                    0.05087608844041824,
                    0.05087608844041824,
                    0.05087608844041824
                ],
                "frames_per_second": 24
            },
            "name": "Scene",
            "nodes": [
                "node_scene_Scene_root"
            ]
        }
    },
    "textures": {
        "texture_IcePlatform5": {
            "format": 6408,
            "internalFormat": 6408,
            "sampler": "sampler_default",
            "source": "image_IcePlatform5"
        }
    }
}
