{
    "accessors": {
        "accessor_buffer_Ice Platform 1_0": {
            "bufferView": "bufferView_buffer_Ice Platform 1_0",
            "byteOffset": 0,
            "byteStride": 12,
            "componentType": 5126,
            "count": 198,
            "max": [
                1.190882921218872,
                1.0,
                0.44648584723472595
            ],
            "min": [
                -0.7833439111709595,
                -1.214342474937439,
                -1.2690460681915283
            ],
            "type": "VEC3"
        },
        "accessor_buffer_Ice Platform 1_1": {
            "bufferView": "bufferView_buffer_Ice Platform 1_0",
            "byteOffset": 2376,
            "byteStride": 12,
            "componentType": 5126,
            "count": 198,
            "max": [
                0.9954545497894287,
                0.9942474365234375,
                1.0
            ],
            "min": [
                -0.935226321220398,
                -0.9490241408348083,
                -1.0
            ],
            "type": "VEC3"
        },
        "accessor_buffer_Ice Platform 1_2": {
            "bufferView": "bufferView_buffer_Ice Platform 1_0",
            "byteOffset": 4752,
            "byteStride": 8,
            "componentType": 5126,
            "count": 198,
            "max": [
                0.9938102960586548,
                0.9940935918129981
            ],
            "min": [
                0.006189699750393629,
                0.005906403064727783
            ],
            "type": "VEC2"
        },
        "accessor_buffer_Ice Platform 1_3": {
            "bufferView": "bufferView_buffer_Ice Platform 1_1",
            "byteOffset": 0,
            "byteStride": 2,
            "componentType": 5123,
            "count": 300,
            "max": [
                197
            ],
            "min": [
                0
            ],
            "type": "SCALAR"
        }
    },
    "asset": {
        "profile": {
            "api": "WebGL",
            "version": "1.0.3"
        },
        "version": "1.0"
    },
    "bufferViews": {
        "bufferView_buffer_Ice Platform 1_0": {
            "buffer": "buffer_combined",
            "byteLength": 6336,
            "byteOffset": 0,
            "target": 34962
        },
        "bufferView_buffer_Ice Platform 1_1": {
            "buffer": "buffer_combined",
            "byteLength": 600,
            "byteOffset": 6336,
            "target": 34963
        }
    },
    "buffers": {
        "buffer_combined": {
            "byteLength": 6936,
            "type": "arraybuffer",
            "uri": "data:text/plain;base64,"
        }
    },
    "extensions": {
        "KHR_materials_common": {
            "lights": {}
        }
    },
    "extensionsUsed": [
        "KHR_materials_common"
    ],
    "images": {
        "image_IcePlatform1": {
            "uri": "IcePlatform1.png"
        }
    },
    "materials": {
        "material_IcePlat1": {
            "extensions": {
                "KHR_materials_common": {
                    "technique": "PHONG",
                    "values": {
                        "ambient": [
                            1.0,
                            1.0,
                            1.0,
                            1.0
                        ],
                        "diffuse": "texture_IcePlatform1",
                        "doubleSided": false,
                        "emission": [
                            0.0,
                            0.0,
                            0.0,
                            1.0
                        ],
                        "shininess": 50,
                        "specular": [
                            0.5,
                            0.5,
                            0.5,
                            1.0
                        ],
                        "transparency": 1.0,
                        "transparent": false
                    }
                }
            },
            "name": "IcePlat1"
        }
    },
    "meshes": {
        "mesh_Ice Platform 1": {
            "name": "Ice Platform 1",
            "primitives": [
                {
                    "attributes": {
                        "NORMAL": "accessor_buffer_Ice Platform 1_1",
                        "POSITION": "accessor_buffer_Ice Platform 1_0",
                        "TEXCOORD_0": "accessor_buffer_Ice Platform 1_2"
                    },
                    "indices": "accessor_buffer_Ice Platform 1_3",
                    "material": "material_IcePlat1",
                    "mode": 4
                }
            ]
        }
    },
    "nodes": {
        "node_Ice Platform 1": {
            "children": [],
            "matrix": [
                5.326665878295898,
                0.0,
                0.0,
                0.0,
                0.0,
                5.326665878295898,
                0.0,
                0.0,
                0.0,
                0.0,
                -0.5867252349853516,
                0.0,
                -5.659555912017822,
                6.029109954833984,
                -0.05651772394776344,
                1.0
            ],
            "meshes": [
                "mesh_Ice Platform 1"
            ],
            "name": "Ice Platform 1"
        },
        "node_scene_Scene_root": {
            "children": [
                "node_Ice Platform 1"
            ],
            "matrix": [
                1.0,
                0.0,
                0.0,
                0.0,
                0.0,
                0.0,
                -1.0,
                0.0,
                0.0,
                1.0,
                0.0,
                0.0,
                0.0,
                0.0,
                0.0,
                1.0
            ],
            "name": "node_scene_Scene_root"
        }
    },
    "samplers": {
        "sampler_default": {}
    },
    "scene": "scene_Scene",
    "scenes": {
        "scene_Scene": {
            "extras": {
                "active_camera": null,
                "background_color": [
                    0.05087608844041824,
                    0.05087608844041824,
                    0.05087608844041824
                ],
                "frames_per_second": 24
            },
            "name": "Scene",
            "nodes": [
                "node_scene_Scene_root"
            ]
        }
    },
    "textures": {
        "texture_IcePlatform1": {
            "format": 6408,
            "internalFormat": 6408,
            "sampler": "sampler_default",
            "source": "image_IcePlatform1"
        }
    }
}
