{
    "accessors": {
        "accessor_buffer_Cube.024_0": {
            "bufferView": "bufferView_buffer_Cube.024_0",
            "byteOffset": 0,
            "byteStride": 12,
            "componentType": 5126,
            "count": 12754,
            "max": [
                10.080699920654297,
                10.080700874328613,
                8.255634307861328
            ],
            "min": [
                -10.080700874328613,
                -11.700916290283203,
                0.06434305757284164
            ],
            "type": "VEC3"
        },
        "accessor_buffer_Cube.024_1": {
            "bufferView": "bufferView_buffer_Cube.024_0",
            "byteOffset": 153048,
            "byteStride": 12,
            "componentType": 5126,
            "count": 12754,
            "max": [
                0.9999879002571106,
                0.9999879002571106,
                1.0
            ],
            "min": [
                -0.9999544620513916,
                -0.9999879002571106,
                -1.0
            ],
            "type": "VEC3"
        },
        "accessor_buffer_Cube.024_2": {
            "bufferView": "bufferView_buffer_Cube.024_0",
            "byteOffset": 306096,
            "byteStride": 8,
            "componentType": 5126,
            "count": 12754,
            "max": [
                0.9974246621131897,
                0.9974358296021819
            ],
            "min": [
                0.0025641703978180885,
                0.0025641918182373047
            ],
            "type": "VEC2"
        },
        "accessor_buffer_Cube.024_3": {
            "bufferView": "bufferView_buffer_Cube.024_1",
            "byteOffset": 0,
            "byteStride": 2,
            "componentType": 5123,
            "count": 17604,
            "max": [
                12753
            ],
            "min": [
                0
            ],
            "type": "SCALAR"
        }
    },
    "asset": {
        "profile": {
            "api": "WebGL",
            "version": "1.0.3"
        },
        "version": "1.0"
    },
    "bufferViews": {
        "bufferView_buffer_Cube.024_0": {
            "buffer": "buffer_combined",
            "byteLength": 408128,
            "byteOffset": 0,
            "target": 34962
        },
        "bufferView_buffer_Cube.024_1": {
            "buffer": "buffer_combined",
            "byteLength": 35208,
            "byteOffset": 408128,
            "target": 34963
        }
    },
    "buffers": {
        "buffer_combined": {
            "byteLength": 443336,
            "type": "arraybuffer",
            "uri": "data:text/plain;base64,"
        }
    },
    "extensions": {
        "KHR_materials_common": {
            "lights": {}
        }
    },
    "extensionsUsed": [
        "KHR_materials_common"
    ],
    "images": {
        "image_Igloo": {
            "uri": "Igloo2.png"
        }
    },
    "materials": {
        "material_Igloo": {
            "extensions": {
                "KHR_materials_common": {
                    "technique": "PHONG",
                    "values": {
                        "ambient": [
                            1.0,
                            1.0,
                            1.0,
                            1.0
                        ],
                        "diffuse": "texture_Igloo",
                        "doubleSided": false,
                        "emission": [
                            0.0,
                            0.0,
                            0.0,
                            1.0
                        ],
                        "shininess": 50,
                        "specular": [
                            0.5,
                            0.5,
                            0.5,
                            1.0
                        ],
                        "transparency": 1.0,
                        "transparent": false
                    }
                }
            },
            "name": "Igloo"
        }
    },
    "meshes": {
        "mesh_Cube.024": {
            "name": "Cube.024",
            "primitives": [
                {
                    "attributes": {
                        "NORMAL": "accessor_buffer_Cube.024_1",
                        "POSITION": "accessor_buffer_Cube.024_0",
                        "TEXCOORD_0": "accessor_buffer_Cube.024_2"
                    },
                    "indices": "accessor_buffer_Cube.024_3",
                    "material": "material_Igloo",
                    "mode": 4
                }
            ]
        }
    },
    "nodes": {
        "node_Igloo": {
            "children": [],
            "matrix": [
                1.0,
                0.0,
                0.0,
                0.0,
                0.0,
                1.0,
                0.0,
                0.0,
                0.0,
                0.0,
                1.0,
                0.0,
                -79.81613159179688,
                -37.79875183105469,
                0.16188642382621765,
                1.0
            ],
            "meshes": [
                "mesh_Cube.024"
            ],
            "name": "Igloo"
        },
        "node_scene_Scene_root": {
            "children": [
                "node_Igloo"
            ],
            "matrix": [
                1.0,
                0.0,
                0.0,
                0.0,
                0.0,
                0.0,
                -1.0,
                0.0,
                0.0,
                1.0,
                0.0,
                0.0,
                0.0,
                0.0,
                0.0,
                1.0
            ],
            "name": "node_scene_Scene_root"
        }
    },
    "samplers": {
        "sampler_default": {}
    },
    "scene": "scene_Scene",
    "scenes": {
        "scene_Scene": {
            "extras": {
                "active_camera": null,
                "background_color": [
                    0.6738413572311401,
                    0.6738413572311401,
                    0.6738413572311401
                ],
                "frames_per_second": 24
            },
            "name": "Scene",
            "nodes": [
                "node_scene_Scene_root"
            ]
        }
    },
    "textures": {
        "texture_Igloo": {
            "format": 6408,
            "internalFormat": 6408,
            "sampler": "sampler_default",
            "source": "image_Igloo"
        }
    }
}
