{
    "accessors": {
        "accessor_buffer_Cube.016_0": {
            "bufferView": "bufferView_buffer_Cube.016_0",
            "byteOffset": 0,
            "byteStride": 12,
            "componentType": 5126,
            "count": 210,
            "max": [
                7.701207637786865,
                1.8623319864273071,
                29.877111434936523
            ],
            "min": [
                -7.701207637786865,
                -1.213618278503418,
                -1.0
            ],
            "type": "VEC3"
        },
        "accessor_buffer_Cube.016_1": {
            "bufferView": "bufferView_buffer_Cube.016_0",
            "byteOffset": 2520,
            "byteStride": 12,
            "componentType": 5126,
            "count": 210,
            "max": [
                1.0,
                1.0,
                0.9990310668945312
            ],
            "min": [
                -1.0,
                -1.0,
                -0.9999999403953552
            ],
            "type": "VEC3"
        },
        "accessor_buffer_Cube.016_2": {
            "bufferView": "bufferView_buffer_Cube.016_0",
            "byteOffset": 5040,
            "byteStride": 8,
            "componentType": 5126,
            "count": 210,
            "max": [
                0.9992722868919373,
                0.999030351289548
            ],
            "min": [
                0.0007277409895323217,
                0.0009696483612060547
            ],
            "type": "VEC2"
        },
        "accessor_buffer_Cube.016_3": {
            "bufferView": "bufferView_buffer_Cube.016_1",
            "byteOffset": 0,
            "byteStride": 2,
            "componentType": 5123,
            "count": 192,
            "max": [
                209
            ],
            "min": [
                0
            ],
            "type": "SCALAR"
        },
        "accessor_buffer_Cube.016_4": {
            "bufferView": "bufferView_buffer_Cube.016_2",
            "byteOffset": 0,
            "byteStride": 2,
            "componentType": 5123,
            "count": 180,
            "max": [
                206
            ],
            "min": [
                1
            ],
            "type": "SCALAR"
        }
    },
    "asset": {
        "profile": {
            "api": "WebGL",
            "version": "1.0.3"
        },
        "version": "1.0"
    },
    "bufferViews": {
        "bufferView_buffer_Cube.016_0": {
            "buffer": "buffer_combined",
            "byteLength": 6720,
            "byteOffset": 0,
            "target": 34962
        },
        "bufferView_buffer_Cube.016_1": {
            "buffer": "buffer_combined",
            "byteLength": 384,
            "byteOffset": 6720,
            "target": 34963
        },
        "bufferView_buffer_Cube.016_2": {
            "buffer": "buffer_combined",
            "byteLength": 360,
            "byteOffset": 7104,
            "target": 34963
        }
    },
    "buffers": {
        "buffer_combined": {
            "byteLength": 7464,
            "type": "arraybuffer",
            "uri": "data:text/plain;base64,"
        }
    },
    "extensions": {
        "KHR_materials_common": {
            "lights": {}
        }
    },
    "extensionsUsed": [
        "KHR_materials_common"
    ],
    "images": {
        "image_Sign1": {
            "uri": "Sign1.png"
        }
    },
    "materials": {
        "material_Sign1": {
            "extensions": {
                "KHR_materials_common": {
                    "technique": "PHONG",
                    "values": {
                        "ambient": [
                            1.0,
                            1.0,
                            1.0,
                            1.0
                        ],
                        "diffuse": "texture_Sign1",
                        "doubleSided": false,
                        "emission": [
                            0.0,
                            0.0,
                            0.0,
                            1.0
                        ],
                        "shininess": 50,
                        "specular": [
                            0.5,
                            0.5,
                            0.5,
                            1.0
                        ],
                        "transparency": 1.0,
                        "transparent": false
                    }
                }
            },
            "name": "Sign1"
        },
        "material_SignPost1": {
            "extensions": {
                "KHR_materials_common": {
                    "technique": "PHONG",
                    "values": {
                        "ambient": [
                            1.0,
                            1.0,
                            1.0,
                            1.0
                        ],
                        "diffuse": "texture_Sign1",
                        "doubleSided": false,
                        "emission": [
                            0.0,
                            0.0,
                            0.0,
                            1.0
                        ],
                        "shininess": 50,
                        "specular": [
                            0.5,
                            0.5,
                            0.5,
                            1.0
                        ],
                        "transparency": 1.0,
                        "transparent": false
                    }
                }
            },
            "name": "SignPost1"
        }
    },
    "meshes": {
        "mesh_Cube.016": {
            "name": "Cube.016",
            "primitives": [
                {
                    "attributes": {
                        "NORMAL": "accessor_buffer_Cube.016_1",
                        "POSITION": "accessor_buffer_Cube.016_0",
                        "TEXCOORD_0": "accessor_buffer_Cube.016_2"
                    },
                    "indices": "accessor_buffer_Cube.016_3",
                    "material": "material_SignPost1",
                    "mode": 4
                },
                {
                    "attributes": {
                        "NORMAL": "accessor_buffer_Cube.016_1",
                        "POSITION": "accessor_buffer_Cube.016_0",
                        "TEXCOORD_0": "accessor_buffer_Cube.016_2"
                    },
                    "indices": "accessor_buffer_Cube.016_4",
                    "material": "material_Sign1",
                    "mode": 4
                }
            ]
        }
    },
    "nodes": {
        "node_Sign1": {
            "children": [],
            "matrix": [
                -0.11328350007534027,
                0.06346502900123596,
                0.0,
                0.0,
                -0.03421301767230034,
                -0.06106938421726227,
                0.0,
                0.0,
                0.0,
                0.0,
                0.10669055581092834,
                0.0,
                8.622854232788086,
                4.636407375335693,
                0.5211504697799683,
                1.0
            ],
            "meshes": [
                "mesh_Cube.016"
            ],
            "name": "Sign1"
        },
        "node_scene_Scene_root": {
            "children": [
                "node_Sign1"
            ],
            "matrix": [
                1.0,
                0.0,
                0.0,
                0.0,
                0.0,
                0.0,
                -1.0,
                0.0,
                0.0,
                1.0,
                0.0,
                0.0,
                0.0,
                0.0,
                0.0,
                1.0
            ],
            "name": "node_scene_Scene_root"
        }
    },
    "samplers": {
        "sampler_default": {}
    },
    "scene": "scene_Scene",
    "scenes": {
        "scene_Scene": {
            "extras": {
                "active_camera": null,
                "background_color": [
                    0.05087608844041824,
                    0.05087608844041824,
                    0.05087608844041824
                ],
                "frames_per_second": 24
            },
            "name": "Scene",
            "nodes": [
                "node_scene_Scene_root"
            ]
        }
    },
    "textures": {
        "texture_Sign1": {
            "format": 6408,
            "internalFormat": 6408,
            "sampler": "sampler_default",
            "source": "image_Sign1"
        }
    }
}
