{
    "accessors": {
        "accessor_buffer_Cube.011_0": {
            "bufferView": "bufferView_buffer_Cube.011_0",
            "byteOffset": 0,
            "byteStride": 12,
            "componentType": 5126,
            "count": 214,
            "max": [
                7.782036304473877,
                1.8624119758605957,
                29.877111434936523
            ],
            "min": [
                -7.701207637786865,
                -1.6717053651809692,
                -1.0
            ],
            "type": "VEC3"
        },
        "accessor_buffer_Cube.011_1": {
            "bufferView": "bufferView_buffer_Cube.011_0",
            "byteOffset": 2568,
            "byteStride": 12,
            "componentType": 5126,
            "count": 214,
            "max": [
                1.0,
                0.9999986290931702,
                0.9970046281814575
            ],
            "min": [
                -0.99991375207901,
                -0.9999960660934448,
                -0.9999999403953552
            ],
            "type": "VEC3"
        },
        "accessor_buffer_Cube.011_2": {
            "bufferView": "bufferView_buffer_Cube.011_0",
            "byteOffset": 5136,
            "byteStride": 8,
            "componentType": 5126,
            "count": 214,
            "max": [
                0.9991952180862427,
                0.9990329076536
            ],
            "min": [
                0.000804710085503757,
                0.0009670853614807129
            ],
            "type": "VEC2"
        },
        "accessor_buffer_Cube.011_3": {
            "bufferView": "bufferView_buffer_Cube.011_1",
            "byteOffset": 0,
            "byteStride": 2,
            "componentType": 5123,
            "count": 180,
            "max": [
                211
            ],
            "min": [
                0
            ],
            "type": "SCALAR"
        },
        "accessor_buffer_Cube.011_4": {
            "bufferView": "bufferView_buffer_Cube.011_2",
            "byteOffset": 0,
            "byteStride": 2,
            "componentType": 5123,
            "count": 192,
            "max": [
                213
            ],
            "min": [
                5
            ],
            "type": "SCALAR"
        }
    },
    "asset": {
        "profile": {
            "api": "WebGL",
            "version": "1.0.3"
        },
        "version": "1.0"
    },
    "bufferViews": {
        "bufferView_buffer_Cube.011_0": {
            "buffer": "buffer_combined",
            "byteLength": 6848,
            "byteOffset": 0,
            "target": 34962
        },
        "bufferView_buffer_Cube.011_1": {
            "buffer": "buffer_combined",
            "byteLength": 360,
            "byteOffset": 6848,
            "target": 34963
        },
        "bufferView_buffer_Cube.011_2": {
            "buffer": "buffer_combined",
            "byteLength": 384,
            "byteOffset": 7208,
            "target": 34963
        }
    },
    "buffers": {
        "buffer_combined": {
            "byteLength": 7592,
            "type": "arraybuffer",
            "uri": "data:text/plain;base64,"
        }
    },
    "extensions": {
        "KHR_materials_common": {
            "lights": {}
        }
    },
    "extensionsUsed": [
        "KHR_materials_common"
    ],
    "images": {
        "image_Sign1": {
            "uri": "Sign1.png"
        },
        "image_Sign2": {
            "uri": "Sign2.png"
        }
    },
    "materials": {
        "material_Sign2": {
            "extensions": {
                "KHR_materials_common": {
                    "technique": "PHONG",
                    "values": {
                        "ambient": [
                            1.0,
                            1.0,
                            1.0,
                            1.0
                        ],
                        "diffuse": "texture_Sign2",
                        "doubleSided": false,
                        "emission": [
                            0.0,
                            0.0,
                            0.0,
                            1.0
                        ],
                        "shininess": 50,
                        "specular": [
                            0.5,
                            0.5,
                            0.5,
                            1.0
                        ],
                        "transparency": 1.0,
                        "transparent": false
                    }
                }
            },
            "name": "Sign2"
        },
        "material_SignPost2": {
            "extensions": {
                "KHR_materials_common": {
                    "technique": "PHONG",
                    "values": {
                        "ambient": [
                            1.0,
                            1.0,
                            1.0,
                            1.0
                        ],
                        "diffuse": "texture_Sign1",
                        "doubleSided": false,
                        "emission": [
                            0.0,
                            0.0,
                            0.0,
                            1.0
                        ],
                        "shininess": 50,
                        "specular": [
                            0.5,
                            0.5,
                            0.5,
                            1.0
                        ],
                        "transparency": 1.0,
                        "transparent": false
                    }
                }
            },
            "name": "SignPost2"
        }
    },
    "meshes": {
        "mesh_Cube.011": {
            "name": "Cube.011",
            "primitives": [
                {
                    "attributes": {
                        "NORMAL": "accessor_buffer_Cube.011_1",
                        "POSITION": "accessor_buffer_Cube.011_0",
                        "TEXCOORD_0": "accessor_buffer_Cube.011_2"
                    },
                    "indices": "accessor_buffer_Cube.011_3",
                    "material": "material_Sign2",
                    "mode": 4
                },
                {
                    "attributes": {
                        "NORMAL": "accessor_buffer_Cube.011_1",
                        "POSITION": "accessor_buffer_Cube.011_0",
                        "TEXCOORD_0": "accessor_buffer_Cube.011_2"
                    },
                    "indices": "accessor_buffer_Cube.011_4",
                    "material": "material_SignPost2",
                    "mode": 4
                }
            ]
        }
    },
    "nodes": {
        "node_Sign2": {
            "children": [],
            "matrix": [
                -0.0646454393863678,
                0.07283719629049301,
                0.0,
                0.0,
                -0.039265409111976624,
                -0.03484936058521271,
                0.0,
                0.0,
                0.0,
                0.0,
                0.08001791685819626,
                0.0,
                56.59727096557617,
                -181.9038848876953,
                25.714189529418945,
                1.0
            ],
            "meshes": [
                "mesh_Cube.011"
            ],
            "name": "Sign2"
        },
        "node_scene_Scene_root": {
            "children": [
                "node_Sign2"
            ],
            "matrix": [
                1.0,
                0.0,
                0.0,
                0.0,
                0.0,
                0.0,
                -1.0,
                0.0,
                0.0,
                1.0,
                0.0,
                0.0,
                0.0,
                0.0,
                0.0,
                1.0
            ],
            "name": "node_scene_Scene_root"
        }
    },
    "samplers": {
        "sampler_default": {}
    },
    "scene": "scene_Scene",
    "scenes": {
        "scene_Scene": {
            "extras": {
                "active_camera": null,
                "background_color": [
                    0.05087608844041824,
                    0.05087608844041824,
                    0.05087608844041824
                ],
                "frames_per_second": 24
            },
            "name": "Scene",
            "nodes": [
                "node_scene_Scene_root"
            ]
        }
    },
    "textures": {
        "texture_Sign1": {
            "format": 6408,
            "internalFormat": 6408,
            "sampler": "sampler_default",
            "source": "image_Sign1"
        },
        "texture_Sign2": {
            "format": 6408,
            "internalFormat": 6408,
            "sampler": "sampler_default",
            "source": "image_Sign2"
        }
    }
}
