{
    "accessors": {
        "accessor_buffer_Cube.027_0": {
            "bufferView": "bufferView_buffer_Cube.027_0",
            "byteOffset": 0,
            "byteStride": 12,
            "componentType": 5126,
            "count": 24,
            "max": [
                7.935580253601074,
                0.9999998807907104,
                0.4457281827926636
            ],
            "min": [
                -7.935586929321289,
                -1.0000001192092896,
                -0.44572877883911133
            ],
            "type": "VEC3"
        },
        "accessor_buffer_Cube.027_1": {
            "bufferView": "bufferView_buffer_Cube.027_0",
            "byteOffset": 288,
            "byteStride": 12,
            "componentType": 5126,
            "count": 24,
            "max": [
                1.0,
                1.0,
                1.0
            ],
            "min": [
                -1.0,
                -1.0,
                -1.0
            ],
            "type": "VEC3"
        },
        "accessor_buffer_Cube.027_2": {
            "bufferView": "bufferView_buffer_Cube.027_0",
            "byteOffset": 576,
            "byteStride": 8,
            "componentType": 5126,
            "count": 24,
            "max": [
                0.9951456189155579,
                0.9951456319540739
            ],
            "min": [
                0.004854368045926094,
                0.004854321479797363
            ],
            "type": "VEC2"
        },
        "accessor_buffer_Cube.027_3": {
            "bufferView": "bufferView_buffer_Cube.027_1",
            "byteOffset": 0,
            "byteStride": 2,
            "componentType": 5123,
            "count": 72,
            "max": [
                23
            ],
            "min": [
                0
            ],
            "type": "SCALAR"
        }
    },
    "asset": {
        "profile": {
            "api": "WebGL",
            "version": "1.0.3"
        },
        "version": "1.0"
    },
    "bufferViews": {
        "bufferView_buffer_Cube.027_0": {
            "buffer": "buffer_combined",
            "byteLength": 768,
            "byteOffset": 0,
            "target": 34962
        },
        "bufferView_buffer_Cube.027_1": {
            "buffer": "buffer_combined",
            "byteLength": 144,
            "byteOffset": 768,
            "target": 34963
        }
    },
    "buffers": {
        "buffer_combined": {
            "byteLength": 912,
            "type": "arraybuffer",
            "uri": "data:text/plain;base64,"
        }
    },
    "extensions": {
        "KHR_materials_common": {
            "lights": {}
        }
    },
    "extensionsUsed": [
        "KHR_materials_common"
    ],
    "images": {
        "image_SpawnLight.png": {
            "uri": "SpawnLight.png"
        }
    },
    "materials": {
        "material_SpawnGlow": {
            "extensions": {
                "KHR_materials_common": {
                    "technique": "PHONG",
                    "values": {
                        "ambient": [
                            1.0,
                            1.0,
                            1.0,
                            1.0
                        ],
                        "diffuse": "texture_SpawnLight",
                        "doubleSided": false,
                        "emission": [
                            0.0,
                            0.0,
                            0.0,
                            1.0
                        ],
                        "shininess": 50,
                        "specular": [
                            0.5,
                            0.5,
                            0.5,
                            1.0
                        ],
                        "transparency": 1.0,
                        "transparent": false
                    }
                }
            },
            "name": "SpawnGlow"
        }
    },
    "meshes": {
        "mesh_Cube.027": {
            "name": "Cube.027",
            "primitives": [
                {
                    "attributes": {
                        "NORMAL": "accessor_buffer_Cube.027_1",
                        "POSITION": "accessor_buffer_Cube.027_0",
                        "TEXCOORD_0": "accessor_buffer_Cube.027_2"
                    },
                    "indices": "accessor_buffer_Cube.027_3",
                    "material": "material_SpawnGlow",
                    "mode": 4
                }
            ]
        }
    },
    "nodes": {
        "node_SpawnLight3": {
            "children": [],
            "matrix": [
                0.013407249003648758,
                -0.04668688401579857,
                0.0,
                0.0,
                0.7178694605827332,
                0.20615330338478088,
                0.0,
                0.0,
                0.0,
                0.0,
                0.5615082383155823,
                0.0,
                23.80687141418457,
                -203.41062927246094,
                28.223125457763672,
                1.0
            ],
            "meshes": [
                "mesh_Cube.027"
            ],
            "name": "SpawnLight3"
        },
        "node_scene_Scene_root": {
            "children": [
                "node_SpawnLight3"
            ],
            "matrix": [
                1.0,
                0.0,
                0.0,
                0.0,
                0.0,
                0.0,
                -1.0,
                0.0,
                0.0,
                1.0,
                0.0,
                0.0,
                0.0,
                0.0,
                0.0,
                1.0
            ],
            "name": "node_scene_Scene_root"
        }
    },
    "samplers": {
        "sampler_default": {}
    },
    "scene": "scene_Scene",
    "scenes": {
        "scene_Scene": {
            "extras": {
                "active_camera": null,
                "background_color": [
                    0.6738413572311401,
                    0.6738413572311401,
                    0.6738413572311401
                ],
                "frames_per_second": 24
            },
            "name": "Scene",
            "nodes": [
                "node_scene_Scene_root"
            ]
        }
    },
    "textures": {
        "texture_SpawnLight": {
            "format": 6408,
            "internalFormat": 6408,
            "sampler": "sampler_default",
            "source": "image_SpawnLight.png"
        }
    }
}
