{
    "accessors": {
        "accessor_buffer_Plate Armor.002_0": {
            "bufferView": "bufferView_buffer_Plate Armor.002_0",
            "byteOffset": 0,
            "byteStride": 12,
            "componentType": 5126,
            "count": 5772,
            "max": [
                5.120229721069336,
                2.347090244293213,
                4.9104323387146
            ],
            "min": [
                -5.120229721069336,
                -2.347090244293213,
                -6.111396312713623
            ],
            "type": "VEC3"
        },
        "accessor_buffer_Plate Armor.002_1": {
            "bufferView": "bufferView_buffer_Plate Armor.002_0",
            "byteOffset": 69264,
            "byteStride": 12,
            "componentType": 5126,
            "count": 5772,
            "max": [
                0.9999619722366333,
                0.9999986290931702,
                0.9999353885650635
            ],
            "min": [
                -0.9999604821205139,
                -0.9999986886978149,
                -0.9999247789382935
            ],
            "type": "VEC3"
        },
        "accessor_buffer_Plate Armor.002_2": {
            "bufferView": "bufferView_buffer_Plate Armor.002_0",
            "byteOffset": 138528,
            "byteStride": 8,
            "componentType": 5126,
            "count": 5772,
            "max": [
                1.9900000095367432,
                0.9953630790114403
            ],
            "min": [
                0.009999999776482582,
                0.009999871253967285
            ],
            "type": "VEC2"
        },
        "accessor_buffer_Plate Armor.002_3": {
            "bufferView": "bufferView_buffer_Plate Armor.002_1",
            "byteOffset": 0,
            "byteStride": 2,
            "componentType": 5123,
            "count": 29940,
            "max": [
                5771
            ],
            "min": [
                0
            ],
            "type": "SCALAR"
        }
    },
    "asset": {
        "profile": {
            "api": "WebGL",
            "version": "1.0.3"
        },
        "version": "1.0"
    },
    "bufferViews": {
        "bufferView_buffer_Plate Armor.002_0": {
            "buffer": "buffer_combined",
            "byteLength": 184704,
            "byteOffset": 0,
            "target": 34962
        },
        "bufferView_buffer_Plate Armor.002_1": {
            "buffer": "buffer_combined",
            "byteLength": 59880,
            "byteOffset": 184704,
            "target": 34963
        }
    },
    "buffers": {
        "buffer_combined": {
            "byteLength": 244584,
            "type": "arraybuffer",
            "uri": "data:text/plain;base64,"
        }
    },
    "extensions": {
        "KHR_materials_common": {
            "lights": {}
        }
    },
    "extensionsUsed": [
        "KHR_materials_common"
    ],
    "images": {
        "image_ArtoriasArmor": {
            "uri": "ArtoriasArmor.jpg"
        }
    },
    "materials": {
        "material_Mat_PlateArmor": {
            "extensions": {
                "KHR_materials_common": {
                    "technique": "PHONG",
                    "values": {
                        "ambient": [
                            1.0,
                            1.0,
                            1.0,
                            1.0
                        ],
                        "diffuse": "texture_PlatArmorBaseColor",
                        "doubleSided": false,
                        "emission": [
                            0.0,
                            0.0,
                            0.0,
                            1.0
                        ],
                        "shininess": 50,
                        "specular": [
                            0.5,
                            0.5,
                            0.5,
                            1.0
                        ],
                        "transparency": 1.0,
                        "transparent": false
                    }
                }
            },
            "name": "Mat_PlateArmor"
        }
    },
    "meshes": {
        "mesh_Plate Armor.002": {
            "name": "Plate Armor.002",
            "primitives": [
                {
                    "attributes": {
                        "NORMAL": "accessor_buffer_Plate Armor.002_1",
                        "POSITION": "accessor_buffer_Plate Armor.002_0",
                        "TEXCOORD_0": "accessor_buffer_Plate Armor.002_2"
                    },
                    "indices": "accessor_buffer_Plate Armor.002_3",
                    "material": "material_Mat_PlateArmor",
                    "mode": 4
                }
            ]
        }
    },
    "nodes": {
        "node_Plate Armor.002": {
            "children": [],
            "matrix": [
                1.0,
                0.0,
                0.0,
                0.0,
                0.0,
                1.0,
                0.0,
                0.0,
                0.0,
                0.0,
                1.0,
                0.0,
                0.0,
                0.0,
                0.0,
                1.0
            ],
            "meshes": [
                "mesh_Plate Armor.002"
            ],
            "name": "Plate Armor.002"
        },
        "node_scene_Scene_root": {
            "children": [
                "node_Plate Armor.002"
            ],
            "matrix": [
                1.0,
                0.0,
                0.0,
                0.0,
                0.0,
                0.0,
                -1.0,
                0.0,
                0.0,
                1.0,
                0.0,
                0.0,
                0.0,
                0.0,
                0.0,
                1.0
            ],
            "name": "node_scene_Scene_root"
        }
    },
    "samplers": {
        "sampler_default": {}
    },
    "scene": "scene_Scene",
    "scenes": {
        "scene_Scene": {
            "extras": {
                "active_camera": null,
                "background_color": [
                    0.05087608844041824,
                    0.05087608844041824,
                    0.05087608844041824
                ],
                "frames_per_second": 24
            },
            "name": "Scene",
            "nodes": [
                "node_scene_Scene_root"
            ]
        }
    },
    "textures": {
        "texture_PlatArmorBaseColor": {
            "format": 6408,
            "internalFormat": 6408,
            "sampler": "sampler_default",
            "source": "image_ArtoriasArmor"
        }
    }
}
