{
    "accessors": {
        "accessor_buffer_5321154.003_0": {
            "bufferView": "bufferView_buffer_5321154.003_0",
            "byteOffset": 0,
            "byteStride": 12,
            "componentType": 5126,
            "count": 5616,
            "max": [
                2.1779260635375977,
                2.318660020828247,
                4.529590129852295
            ],
            "min": [
                -2.249058485031128,
                -0.8870062828063965,
                -4.466935634613037
            ],
            "type": "VEC3"
        },
        "accessor_buffer_5321154.003_1": {
            "bufferView": "bufferView_buffer_5321154.003_0",
            "byteOffset": 67392,
            "byteStride": 12,
            "componentType": 5126,
            "count": 5616,
            "max": [
                0.9998851418495178,
                0.9994525909423828,
                0.999799370765686
            ],
            "min": [
                -0.9999383091926575,
                -0.9999736547470093,
                -0.9998045563697815
            ],
            "type": "VEC3"
        },
        "accessor_buffer_5321154.003_2": {
            "bufferView": "bufferView_buffer_5321154.003_0",
            "byteOffset": 134784,
            "byteStride": 8,
            "componentType": 5126,
            "count": 5616,
            "max": [
                0.9969286322593689,
                0.9965695682913065
            ],
            "min": [
                0.0030713595915585756,
                0.0034304261207580566
            ],
            "type": "VEC2"
        },
        "accessor_buffer_5321154.003_3": {
            "bufferView": "bufferView_buffer_5321154.003_1",
            "byteOffset": 0,
            "byteStride": 2,
            "componentType": 5123,
            "count": 23349,
            "max": [
                5615
            ],
            "min": [
                0
            ],
            "type": "SCALAR"
        },
        "accessor_buffer_5321154.004_0": {
            "bufferView": "bufferView_buffer_5321154.004_0",
            "byteOffset": 0,
            "byteStride": 12,
            "componentType": 5126,
            "count": 5616,
            "max": [
                2.1779260635375977,
                2.318660020828247,
                4.529590129852295
            ],
            "min": [
                -2.249058485031128,
                -0.8870062828063965,
                -4.466935634613037
            ],
            "type": "VEC3"
        },
        "accessor_buffer_5321154.004_1": {
            "bufferView": "bufferView_buffer_5321154.004_0",
            "byteOffset": 67392,
            "byteStride": 12,
            "componentType": 5126,
            "count": 5616,
            "max": [
                0.9999383091926575,
                0.9999728202819824,
                0.9998045563697815
            ],
            "min": [
                -0.9998851418495178,
                -0.9994657635688782,
                -0.999799370765686
            ],
            "type": "VEC3"
        },
        "accessor_buffer_5321154.004_2": {
            "bufferView": "bufferView_buffer_5321154.004_0",
            "byteOffset": 134784,
            "byteStride": 8,
            "componentType": 5126,
            "count": 5616,
            "max": [
                0.9969286322593689,
                0.9965695682913065
            ],
            "min": [
                0.0030713595915585756,
                0.0034304261207580566
            ],
            "type": "VEC2"
        },
        "accessor_buffer_5321154.004_3": {
            "bufferView": "bufferView_buffer_5321154.004_1",
            "byteOffset": 0,
            "byteStride": 2,
            "componentType": 5123,
            "count": 23349,
            "max": [
                5615
            ],
            "min": [
                0
            ],
            "type": "SCALAR"
        }
    },
    "asset": {
        "profile": {
            "api": "WebGL",
            "version": "1.0.3"
        },
        "version": "1.0"
    },
    "bufferViews": {
        "bufferView_buffer_5321154.003_0": {
            "buffer": "buffer_combined",
            "byteLength": 179712,
            "byteOffset": 0,
            "target": 34962
        },
        "bufferView_buffer_5321154.003_1": {
            "buffer": "buffer_combined",
            "byteLength": 46698,
            "byteOffset": 179712,
            "target": 34963
        },
        "bufferView_buffer_5321154.004_0": {
            "buffer": "buffer_combined",
            "byteLength": 179712,
            "byteOffset": 226410,
            "target": 34962
        },
        "bufferView_buffer_5321154.004_1": {
            "buffer": "buffer_combined",
            "byteLength": 46698,
            "byteOffset": 406122,
            "target": 34963
        }
    },
    "buffers": {
        "buffer_combined": {
            "byteLength": 452820,
            "type": "arraybuffer",
            "uri": "data:text/plain;base64,"
        }
    },
    "extensions": {
        "KHR_materials_common": {
            "lights": {}
        }
    },
    "extensionsUsed": [
        "KHR_materials_common"
    ],
    "images": {
        "image_Cloak Redone": {
            "uri": "Cloak Redone.png"
        }
    },
    "materials": {
        "material_Cloak": {
            "extensions": {
                "KHR_materials_common": {
                    "technique": "PHONG",
                    "values": {
                        "ambient": [
                            1.0,
                            1.0,
                            1.0,
                            1.0
                        ],
                        "diffuse": "texture_CloakBaked",
                        "doubleSided": false,
                        "emission": [
                            0.0,
                            0.0,
                            0.0,
                            1.0
                        ],
                        "shininess": 50,
                        "specular": [
                            0.5,
                            0.5,
                            0.5,
                            1.0
                        ],
                        "transparency": 1.0,
                        "transparent": false
                    }
                }
            },
            "name": "Cloak"
        }
    },
    "meshes": {
        "mesh_5321154.003": {
            "name": "5321154.003",
            "primitives": [
                {
                    "attributes": {
                        "NORMAL": "accessor_buffer_5321154.003_1",
                        "POSITION": "accessor_buffer_5321154.003_0",
                        "TEXCOORD_0": "accessor_buffer_5321154.003_2"
                    },
                    "indices": "accessor_buffer_5321154.003_3",
                    "material": "material_Cloak",
                    "mode": 4
                }
            ]
        },
        "mesh_5321154.004": {
            "name": "5321154.004",
            "primitives": [
                {
                    "attributes": {
                        "NORMAL": "accessor_buffer_5321154.004_1",
                        "POSITION": "accessor_buffer_5321154.004_0",
                        "TEXCOORD_0": "accessor_buffer_5321154.004_2"
                    },
                    "indices": "accessor_buffer_5321154.004_3",
                    "material": "material_Cloak",
                    "mode": 4
                }
            ]
        }
    },
    "nodes": {
        "node_Cloak Modified.002": {
            "children": [],
            "matrix": [
                1.0,
                0.0,
                0.0,
                0.0,
                0.0,
                1.0,
                0.0,
                0.0,
                0.0,
                0.0,
                1.0,
                0.0,
                0.0,
                0.0,
                0.0,
                1.0
            ],
            "meshes": [
                "mesh_5321154.003"
            ],
            "name": "Cloak Modified.002"
        },
        "node_Cloak Modified.003": {
            "children": [],
            "matrix": [
                1.0,
                0.0,
                0.0,
                0.0,
                0.0,
                1.0,
                0.0,
                0.0,
                0.0,
                0.0,
                1.0,
                0.0,
                0.0,
                0.0,
                0.0,
                1.0
            ],
            "meshes": [
                "mesh_5321154.004"
            ],
            "name": "Cloak Modified.003"
        },
        "node_scene_Scene_root": {
            "children": [
                "node_Cloak Modified.003",
                "node_Cloak Modified.002"
            ],
            "matrix": [
                1.0,
                0.0,
                0.0,
                0.0,
                0.0,
                0.0,
                -1.0,
                0.0,
                0.0,
                1.0,
                0.0,
                0.0,
                0.0,
                0.0,
                0.0,
                1.0
            ],
            "name": "node_scene_Scene_root"
        }
    },
    "samplers": {
        "sampler_default": {}
    },
    "scene": "scene_Scene",
    "scenes": {
        "scene_Scene": {
            "extras": {
                "active_camera": null,
                "background_color": [
                    0.05087608844041824,
                    0.05087608844041824,
                    0.05087608844041824
                ],
                "frames_per_second": 24
            },
            "name": "Scene",
            "nodes": [
                "node_scene_Scene_root"
            ]
        }
    },
    "textures": {
        "texture_CloakBaked": {
            "format": 6408,
            "internalFormat": 6408,
            "sampler": "sampler_default",
            "source": "image_Cloak Redone"
        }
    }
}
