{
    "accessors": {
        "accessor_buffer_5321154.002_0": {
            "bufferView": "bufferView_buffer_5321154.002_0",
            "byteOffset": 0,
            "byteStride": 12,
            "componentType": 5126,
            "count": 5620,
            "max": [
                37.996986389160156,
                78.9858627319336,
                19.108280181884766
            ],
            "min": [
                -39.23799133300781,
                -77.33718872070312,
                -35.82025146484375
            ],
            "type": "VEC3"
        },
        "accessor_buffer_5321154.002_1": {
            "bufferView": "bufferView_buffer_5321154.002_0",
            "byteOffset": 67440,
            "byteStride": 12,
            "componentType": 5126,
            "count": 5620,
            "max": [
                0.999885082244873,
                0.998638927936554,
                0.999996542930603
            ],
            "min": [
                -0.9999383091926575,
                -0.9999217391014099,
                -0.9997898936271667
            ],
            "type": "VEC3"
        },
        "accessor_buffer_5321154.002_2": {
            "bufferView": "bufferView_buffer_5321154.002_0",
            "byteOffset": 134880,
            "byteStride": 8,
            "componentType": 5126,
            "count": 5620,
            "max": [
                1.0,
                1.0
            ],
            "min": [
                0.0,
                0.0
            ],
            "type": "VEC2"
        },
        "accessor_buffer_5321154.002_3": {
            "bufferView": "bufferView_buffer_5321154.002_1",
            "byteOffset": 0,
            "byteStride": 2,
            "componentType": 5123,
            "count": 23355,
            "max": [
                5619
            ],
            "min": [
                0
            ],
            "type": "SCALAR"
        }
    },
    "asset": {
        "profile": {
            "api": "WebGL",
            "version": "1.0.3"
        },
        "version": "1.0"
    },
    "bufferViews": {
        "bufferView_buffer_5321154.002_0": {
            "buffer": "buffer_combined",
            "byteLength": 179840,
            "byteOffset": 0,
            "target": 34962
        },
        "bufferView_buffer_5321154.002_1": {
            "buffer": "buffer_combined",
            "byteLength": 46710,
            "byteOffset": 179840,
            "target": 34963
        }
    },
    "buffers": {
        "buffer_combined": {
            "byteLength": 226550,
            "type": "arraybuffer",
            "uri": "data:text/plain;base64,"
        }
    },
    "extensions": {
        "KHR_materials_common": {
            "lights": {}
        }
    },
    "extensionsUsed": [
        "KHR_materials_common"
    ],
    "images": {
        "image_Cloak": {
            "uri": "Cloak.png"
        }
    },
    "materials": {
        "material_Cloth": {
            "extensions": {
                "KHR_materials_common": {
                    "technique": "PHONG",
                    "values": {
                        "ambient": [
                            1.0,
                            1.0,
                            1.0,
                            1.0
                        ],
                        "diffuse": "texture_CloakBaked",
                        "doubleSided": false,
                        "emission": [
                            0.0,
                            0.0,
                            0.0,
                            1.0
                        ],
                        "shininess": 50,
                        "specular": [
                            0.5,
                            0.5,
                            0.5,
                            1.0
                        ],
                        "transparency": 1.0,
                        "transparent": false
                    }
                }
            },
            "name": "Cloth"
        }
    },
    "meshes": {
        "mesh_5321154.002": {
            "name": "5321154.002",
            "primitives": [
                {
                    "attributes": {
                        "NORMAL": "accessor_buffer_5321154.002_1",
                        "POSITION": "accessor_buffer_5321154.002_0",
                        "TEXCOORD_0": "accessor_buffer_5321154.002_2"
                    },
                    "indices": "accessor_buffer_5321154.002_3",
                    "material": "material_Cloth",
                    "mode": 4
                }
            ]
        }
    },
    "nodes": {
        "node_Cloak Modified.001": {
            "children": [],
            "matrix": [
                0.05731838941574097,
                0.0,
                0.0,
                0.0,
                0.0,
                -0.003758247010409832,
                0.05719504505395889,
                0.0,
                0.0,
                -0.05719504505395889,
                -0.003758247010409832,
                0.0,
                -9.245719909667969,
                -8.1278657913208,
                4.6368794441223145,
                1.0
            ],
            "meshes": [
                "mesh_5321154.002"
            ],
            "name": "Cloak Modified.001"
        },
        "node_scene_Scene_root": {
            "children": [
                "node_Cloak Modified.001"
            ],
            "matrix": [
                1.0,
                0.0,
                0.0,
                0.0,
                0.0,
                0.0,
                -1.0,
                0.0,
                0.0,
                1.0,
                0.0,
                0.0,
                0.0,
                0.0,
                0.0,
                1.0
            ],
            "name": "node_scene_Scene_root"
        }
    },
    "samplers": {
        "sampler_default": {}
    },
    "scene": "scene_Scene",
    "scenes": {
        "scene_Scene": {
            "extras": {
                "active_camera": null,
                "background_color": [
                    0.05087608844041824,
                    0.05087608844041824,
                    0.05087608844041824
                ],
                "frames_per_second": 24
            },
            "name": "Scene",
            "nodes": [
                "node_scene_Scene_root"
            ]
        }
    },
    "textures": {
        "texture_CloakBaked": {
            "format": 6408,
            "internalFormat": 6408,
            "sampler": "sampler_default",
            "source": "image_Cloak"
        }
    }
}
