{
    "accessors": {
        "accessor_buffer_Cube.005_0": {
            "bufferView": "bufferView_buffer_Cube.005_0",
            "byteOffset": 0,
            "byteStride": 12,
            "componentType": 5126,
            "count": 216,
            "max": [
                0.9964644908905029,
                0.9964644908905029,
                1.9877525568008423
            ],
            "min": [
                -0.9964644908905029,
                -0.9964644908905029,
                -1.9877525568008423
            ],
            "type": "VEC3"
        },
        "accessor_buffer_Cube.005_1": {
            "bufferView": "bufferView_buffer_Cube.005_0",
            "byteOffset": 2592,
            "byteStride": 12,
            "componentType": 5126,
            "count": 216,
            "max": [
                1.0,
                1.0,
                1.0
            ],
            "min": [
                -1.0,
                -1.0,
                -1.0
            ],
            "type": "VEC3"
        },
        "accessor_buffer_Cube.005_2": {
            "bufferView": "bufferView_buffer_Cube.005_0",
            "byteOffset": 5184,
            "byteStride": 8,
            "componentType": 5126,
            "count": 216,
            "max": [
                0.9941807389259338,
                0.9964960315264761
            ],
            "min": [
                0.003521517151966691,
                0.008318006992340088
            ],
            "type": "VEC2"
        },
        "accessor_buffer_Cube.005_3": {
            "bufferView": "bufferView_buffer_Cube.005_1",
            "byteOffset": 0,
            "byteStride": 2,
            "componentType": 5123,
            "count": 264,
            "max": [
                214
            ],
            "min": [
                0
            ],
            "type": "SCALAR"
        },
        "accessor_buffer_Cube.005_4": {
            "bufferView": "bufferView_buffer_Cube.005_2",
            "byteOffset": 0,
            "byteStride": 2,
            "componentType": 5123,
            "count": 24,
            "max": [
                215
            ],
            "min": [
                10
            ],
            "type": "SCALAR"
        }
    },
    "asset": {
        "profile": {
            "api": "WebGL",
            "version": "1.0.3"
        },
        "version": "1.0"
    },
    "bufferViews": {
        "bufferView_buffer_Cube.005_0": {
            "buffer": "buffer_combined",
            "byteLength": 6912,
            "byteOffset": 0,
            "target": 34962
        },
        "bufferView_buffer_Cube.005_1": {
            "buffer": "buffer_combined",
            "byteLength": 528,
            "byteOffset": 6912,
            "target": 34963
        },
        "bufferView_buffer_Cube.005_2": {
            "buffer": "buffer_combined",
            "byteLength": 48,
            "byteOffset": 7440,
            "target": 34963
        }
    },
    "buffers": {
        "buffer_combined": {
            "byteLength": 7488,
            "type": "arraybuffer",
            "uri": "data:text/plain;base64,"
        }
    },
    "extensions": {
        "KHR_materials_common": {
            "lights": {}
        }
    },
    "extensionsUsed": [
        "KHR_materials_common"
    ],
    "images": {
        "image_TimeSplinter.png": {
            "uri": "TimeSplinter.png"
        }
    },
    "materials": {
        "material_SplinterInnerMat": {
            "extensions": {
                "KHR_materials_common": {
                    "technique": "PHONG",
                    "values": {
                        "ambient": [
                            1.0,
                            1.0,
                            1.0,
                            1.0
                        ],
                        "diffuse": "texture_TimeSplinter",
                        "doubleSided": false,
                        "emission": [
                            0.0,
                            0.0,
                            0.0,
                            1.0
                        ],
                        "shininess": 50,
                        "specular": [
                            0.5,
                            0.5,
                            0.5,
                            1.0
                        ],
                        "transparency": 1.0,
                        "transparent": false
                    }
                }
            },
            "name": "SplinterInnerMat"
        },
        "material_SplinterOuterMat": {
            "extensions": {
                "KHR_materials_common": {
                    "technique": "PHONG",
                    "values": {
                        "ambient": [
                            1.0,
                            1.0,
                            1.0,
                            1.0
                        ],
                        "diffuse": [
                            0.800000011920929,
                            0.3105039596557617,
                            0.7500990629196167,
                            1.0
                        ],
                        "doubleSided": false,
                        "emission": [
                            0.0,
                            0.0,
                            0.0,
                            1.0
                        ],
                        "shininess": 50,
                        "specular": [
                            0.5,
                            0.5,
                            0.5,
                            1.0
                        ],
                        "transparency": 1.0,
                        "transparent": false
                    }
                }
            },
            "name": "SplinterOuterMat"
        }
    },
    "meshes": {
        "mesh_Cube.005": {
            "name": "Cube.005",
            "primitives": [
                {
                    "attributes": {
                        "NORMAL": "accessor_buffer_Cube.005_1",
                        "POSITION": "accessor_buffer_Cube.005_0",
                        "TEXCOORD_0": "accessor_buffer_Cube.005_2"
                    },
                    "indices": "accessor_buffer_Cube.005_3",
                    "material": "material_SplinterOuterMat",
                    "mode": 4
                },
                {
                    "attributes": {
                        "NORMAL": "accessor_buffer_Cube.005_1",
                        "POSITION": "accessor_buffer_Cube.005_0",
                        "TEXCOORD_0": "accessor_buffer_Cube.005_2"
                    },
                    "indices": "accessor_buffer_Cube.005_4",
                    "material": "material_SplinterInnerMat",
                    "mode": 4
                }
            ]
        }
    },
    "nodes": {
        "node_Cube.001": {
            "children": [],
            "matrix": [
                1.0,
                0.0,
                0.0,
                0.0,
                0.0,
                1.0,
                0.0,
                0.0,
                0.0,
                0.0,
                1.0,
                0.0,
                0.0,
                0.0,
                2.5,
                1.0
            ],
            "meshes": [
                "mesh_Cube.005"
            ],
            "name": "Cube.001"
        },
        "node_scene_Scene_root": {
            "children": [
                "node_Cube.001"
            ],
            "matrix": [
                1.0,
                0.0,
                0.0,
                0.0,
                0.0,
                0.0,
                -1.0,
                0.0,
                0.0,
                1.0,
                0.0,
                0.0,
                0.0,
                0.0,
                0.0,
                1.0
            ],
            "name": "node_scene_Scene_root"
        }
    },
    "samplers": {
        "sampler_default": {}
    },
    "scene": "scene_Scene",
    "scenes": {
        "scene_Scene": {
            "extras": {
                "active_camera": null,
                "background_color": [
                    0.4479783773422241,
                    0.4479783773422241,
                    0.4479783773422241
                ],
                "frames_per_second": 24
            },
            "name": "Scene",
            "nodes": [
                "node_scene_Scene_root"
            ]
        }
    },
    "textures": {
        "texture_TimeSplinter": {
            "format": 6408,
            "internalFormat": 6408,
            "sampler": "sampler_default",
            "source": "image_TimeSplinter.png"
        }
    }
}
