{
    "accessors": {
        "accessor_buffer_Cube.006_0": {
            "bufferView": "bufferView_buffer_Cube.006_0",
            "byteOffset": 0,
            "byteStride": 12,
            "componentType": 5126,
            "count": 148,
            "max": [
                1.0858855247497559,
                1.0858855247497559,
                2.1661300659179688
            ],
            "min": [
                -1.0858855247497559,
                -1.0858855247497559,
                -2.1661300659179688
            ],
            "type": "VEC3"
        },
        "accessor_buffer_Cube.006_1": {
            "bufferView": "bufferView_buffer_Cube.006_0",
            "byteOffset": 1776,
            "byteStride": 12,
            "componentType": 5126,
            "count": 148,
            "max": [
                1.0,
                1.0,
                1.0
            ],
            "min": [
                -1.0,
                -1.0,
                -1.0
            ],
            "type": "VEC3"
        },
        "accessor_buffer_Cube.006_2": {
            "bufferView": "bufferView_buffer_Cube.006_0",
            "byteOffset": 3552,
            "byteStride": 8,
            "componentType": 5126,
            "count": 148,
            "max": [
                0.9842102527618408,
                0.9957448146305978
            ],
            "min": [
                0.005281141027808189,
                0.004255115985870361
            ],
            "type": "VEC2"
        },
        "accessor_buffer_Cube.006_3": {
            "bufferView": "bufferView_buffer_Cube.006_1",
            "byteOffset": 0,
            "byteStride": 2,
            "componentType": 5123,
            "count": 138,
            "max": [
                147
            ],
            "min": [
                3
            ],
            "type": "SCALAR"
        },
        "accessor_buffer_Cube.006_4": {
            "bufferView": "bufferView_buffer_Cube.006_2",
            "byteOffset": 0,
            "byteStride": 2,
            "componentType": 5123,
            "count": 48,
            "max": [
                145
            ],
            "min": [
                0
            ],
            "type": "SCALAR"
        }
    },
    "asset": {
        "profile": {
            "api": "WebGL",
            "version": "1.0.3"
        },
        "version": "1.0"
    },
    "bufferViews": {
        "bufferView_buffer_Cube.006_0": {
            "buffer": "buffer_combined",
            "byteLength": 4736,
            "byteOffset": 0,
            "target": 34962
        },
        "bufferView_buffer_Cube.006_1": {
            "buffer": "buffer_combined",
            "byteLength": 276,
            "byteOffset": 4736,
            "target": 34963
        },
        "bufferView_buffer_Cube.006_2": {
            "buffer": "buffer_combined",
            "byteLength": 96,
            "byteOffset": 5012,
            "target": 34963
        }
    },
    "buffers": {
        "buffer_combined": {
            "byteLength": 5108,
            "type": "arraybuffer",
            "uri": "data:text/plain;base64,"
        }
    },
    "extensions": {
        "KHR_materials_common": {
            "lights": {}
        }
    },
    "extensionsUsed": [
        "KHR_materials_common"
    ],
    "images": {
        "image_TimeSplinter.png": {
            "uri": "TimeSplinter.png"
        }
    },
    "materials": {
        "material_SplinterInnerMat": {
            "extensions": {
                "KHR_materials_common": {
                    "technique": "PHONG",
                    "values": {
                        "ambient": [
                            1.0,
                            1.0,
                            1.0,
                            1.0
                        ],
                        "diffuse": "texture_TimeSplinter",
                        "doubleSided": false,
                        "emission": [
                            0.0,
                            0.0,
                            0.0,
                            1.0
                        ],
                        "shininess": 50,
                        "specular": [
                            0.5,
                            0.5,
                            0.5,
                            1.0
                        ],
                        "transparency": 1.0,
                        "transparent": false
                    }
                }
            },
            "name": "SplinterInnerMat"
        },
        "material_SplinterOuterMat": {
            "extensions": {
                "KHR_materials_common": {
                    "technique": "PHONG",
                    "values": {
                        "ambient": [
                            1.0,
                            1.0,
                            1.0,
                            1.0
                        ],
                        "diffuse": [
                            0.800000011920929,
                            0.3105039596557617,
                            0.7500990629196167,
                            1.0
                        ],
                        "doubleSided": false,
                        "emission": [
                            0.0,
                            0.0,
                            0.0,
                            1.0
                        ],
                        "shininess": 50,
                        "specular": [
                            0.5,
                            0.5,
                            0.5,
                            1.0
                        ],
                        "transparency": 1.0,
                        "transparent": false
                    }
                }
            },
            "name": "SplinterOuterMat"
        }
    },
    "meshes": {
        "mesh_Cube.006": {
            "name": "Cube.006",
            "primitives": [
                {
                    "attributes": {
                        "NORMAL": "accessor_buffer_Cube.006_1",
                        "POSITION": "accessor_buffer_Cube.006_0",
                        "TEXCOORD_0": "accessor_buffer_Cube.006_2"
                    },
                    "indices": "accessor_buffer_Cube.006_3",
                    "material": "material_SplinterOuterMat",
                    "mode": 4
                },
                {
                    "attributes": {
                        "NORMAL": "accessor_buffer_Cube.006_1",
                        "POSITION": "accessor_buffer_Cube.006_0",
                        "TEXCOORD_0": "accessor_buffer_Cube.006_2"
                    },
                    "indices": "accessor_buffer_Cube.006_4",
                    "material": "material_SplinterInnerMat",
                    "mode": 4
                }
            ]
        }
    },
    "nodes": {
        "node_SplinterInner.002": {
            "children": [],
            "matrix": [
                0.9176515936851501,
                0.0,
                0.0,
                0.0,
                0.0,
                0.9176515936851501,
                0.0,
                0.0,
                0.0,
                0.0,
                0.9176515936851501,
                0.0,
                0.0,
                0.0,
                0.0,
                1.0
            ],
            "meshes": [
                "mesh_Cube.006"
            ],
            "name": "SplinterInner.002"
        },
        "node_scene_Scene_root": {
            "children": [
                "node_SplinterInner.002"
            ],
            "matrix": [
                1.0,
                0.0,
                0.0,
                0.0,
                0.0,
                0.0,
                -1.0,
                0.0,
                0.0,
                1.0,
                0.0,
                0.0,
                0.0,
                0.0,
                0.0,
                1.0
            ],
            "name": "node_scene_Scene_root"
        }
    },
    "samplers": {
        "sampler_default": {}
    },
    "scene": "scene_Scene",
    "scenes": {
        "scene_Scene": {
            "extras": {
                "active_camera": null,
                "background_color": [
                    0.025393692776560783,
                    0.025393692776560783,
                    0.025393692776560783
                ],
                "frames_per_second": 24
            },
            "name": "Scene",
            "nodes": [
                "node_scene_Scene_root"
            ]
        }
    },
    "textures": {
        "texture_TimeSplinter": {
            "format": 6408,
            "internalFormat": 6408,
            "sampler": "sampler_default",
            "source": "image_TimeSplinter.png"
        }
    }
}
