{
    "accessors" : [
        {
            "bufferView" : 0, 
            "componentType" : 5123, 
            "count" : 2028, 
            "max" : [
                1341
            ], 
            "min" : [
                0
            ], 
            "type" : "SCALAR"
        }, 
        {
            "bufferView" : 1, 
            "componentType" : 5126, 
            "count" : 1342, 
            "max" : [
                0.9999994039535522, 
                1.0, 
                0.9999989867210388
            ], 
            "min" : [
                -0.999999463558197, 
                -1.0, 
                -0.9999996423721313
            ], 
            "type" : "VEC3"
        }, 
        {
            "bufferView" : 2, 
            "componentType" : 5126, 
            "count" : 1342, 
            "max" : [
                1.0, 
                1.0, 
                1.0
            ], 
            "min" : [
                -1.0, 
                -1.0, 
                -0.99993896484375
            ], 
            "type" : "VEC3"
        }, 
        {
            "bufferView" : 3, 
            "componentType" : 5126, 
            "count" : 1342, 
            "max" : [
                0.9999974370002747, 
                0.9999980926513672, 
                0.999431848526001, 
                1.0
            ], 
            "min" : [
                -0.9999952912330627, 
                -0.9999993443489075, 
                -0.9999998211860657, 
                1.0
            ], 
            "type" : "VEC4"
        }, 
        {
            "bufferView" : 4, 
            "componentType" : 5126, 
            "count" : 1342, 
            "max" : [
                0.989772617816925, 
                0.9939849013462663
            ], 
            "min" : [
                0.006020185071974993, 
                0.012983202934265137
            ], 
            "type" : "VEC2"
        }
    ], 
    "asset" : {
        "generator" : "Khronos Blender glTF 2.0 exporter", 
        "version" : "2.0"
    }, 
    "bufferViews" : [
        {
            "buffer" : 0, 
            "byteLength" : 4056, 
            "byteOffset" : 0, 
            "target" : 34963
        }, 
        {
            "buffer" : 0, 
            "byteLength" : 16104, 
            "byteOffset" : 4056, 
            "target" : 34962
        }, 
        {
            "buffer" : 0, 
            "byteLength" : 16104, 
            "byteOffset" : 20160, 
            "target" : 34962
        }, 
        {
            "buffer" : 0, 
            "byteLength" : 21472, 
            "byteOffset" : 36264, 
            "target" : 34962
        }, 
        {
            "buffer" : 0, 
            "byteLength" : 10736, 
            "byteOffset" : 57736, 
            "target" : 34962
        }
    ], 
    "buffers" : [
        {
            "byteLength" : 68472, 
            "uri" : "data:application/octet-stream;base64,"
        }
    ], 
    "images" : [
        {
            "uri" : "BowlingBallColor.png"
        }
    ], 
    "materials" : [
        {
            "name" : "BowlingBallColor", 
            "pbrMetallicRoughness" : {
                "baseColorFactor" : [
                    0.800000011920929, 
                    0.800000011920929, 
                    0.800000011920929, 
                    1.0
                ], 
                "baseColorTexture" : {
                    "index" : 0
                }, 
                "metallicFactor" : 0.0
            }
        }
    ], 
    "meshes" : [
        {
            "name" : "Sphere.003", 
            "primitives" : [
                {
                    "attributes" : {
                        "NORMAL" : 2, 
                        "POSITION" : 1, 
                        "TANGENT" : 3, 
                        "TEXCOORD_0" : 4
                    }, 
                    "indices" : 0, 
                    "material" : 0
                }
            ]
        }
    ], 
    "nodes" : [
        {
            "mesh" : 0, 
            "name" : "Sphere.003", 
            "rotation" : [
                -0.0, 
                -0.0, 
                -1.0, 
                0.0
            ], 
            "scale" : [
                -1.0, 
                -1.0, 
                -1.0
            ], 
            "translation" : [
                0.0, 
                0.0, 
                -0.57805997133255
            ]
        }
    ], 
    "samplers" : [
        {}
    ], 
    "scene" : 0, 
    "scenes" : [
        {
            "name" : "Scene", 
            "nodes" : [
                0
            ]
        }
    ], 
    "textures" : [
        {
            "sampler" : 0, 
            "source" : 0
        }
    ]
}
