{
    "accessors": {
        "accessor_buffer_Cylinder.008_0": {
            "bufferView": "bufferView_buffer_Cylinder.008_0",
            "byteOffset": 0,
            "byteStride": 12,
            "componentType": 5126,
            "count": 422,
            "max": [
                8.595202445983887,
                1.10679030418396,
                5.020833969116211
            ],
            "min": [
                -8.595207214355469,
                -0.9353675842285156,
                -5.0208330154418945
            ],
            "type": "VEC3"
        },
        "accessor_buffer_Cylinder.008_1": {
            "bufferView": "bufferView_buffer_Cylinder.008_0",
            "byteOffset": 5064,
            "byteStride": 12,
            "componentType": 5126,
            "count": 422,
            "max": [
                1.0,
                1.0,
                1.0
            ],
            "min": [
                -1.0,
                -1.0,
                -1.0
            ],
            "type": "VEC3"
        },
        "accessor_buffer_Cylinder.008_2": {
            "bufferView": "bufferView_buffer_Cylinder.008_0",
            "byteOffset": 10128,
            "byteStride": 8,
            "componentType": 5126,
            "count": 422,
            "max": [
                0.9974898099899292,
                0.997345928568393
            ],
            "min": [
                0.002510212128981948,
                0.0026540160179138184
            ],
            "type": "VEC2"
        },
        "accessor_buffer_Cylinder.008_3": {
            "bufferView": "bufferView_buffer_Cylinder.008_1",
            "byteOffset": 0,
            "byteStride": 2,
            "componentType": 5123,
            "count": 6,
            "max": [
                396
            ],
            "min": [
                48
            ],
            "type": "SCALAR"
        },
        "accessor_buffer_Cylinder.008_4": {
            "bufferView": "bufferView_buffer_Cylinder.008_2",
            "byteOffset": 0,
            "byteStride": 2,
            "componentType": 5123,
            "count": 120,
            "max": [
                419
            ],
            "min": [
                10
            ],
            "type": "SCALAR"
        },
        "accessor_buffer_Cylinder.008_5": {
            "bufferView": "bufferView_buffer_Cylinder.008_3",
            "byteOffset": 0,
            "byteStride": 2,
            "componentType": 5123,
            "count": 408,
            "max": [
                421
            ],
            "min": [
                0
            ],
            "type": "SCALAR"
        },
        "accessor_buffer_Cylinder.008_6": {
            "bufferView": "bufferView_buffer_Cylinder.008_4",
            "byteOffset": 0,
            "byteStride": 2,
            "componentType": 5123,
            "count": 108,
            "max": [
                417
            ],
            "min": [
                5
            ],
            "type": "SCALAR"
        }
    },
    "asset": {
        "profile": {
            "api": "WebGL",
            "version": "1.0.3"
        },
        "version": "1.0"
    },
    "bufferViews": {
        "bufferView_buffer_Cylinder.008_0": {
            "buffer": "buffer_combined",
            "byteLength": 13504,
            "byteOffset": 0,
            "target": 34962
        },
        "bufferView_buffer_Cylinder.008_1": {
            "buffer": "buffer_combined",
            "byteLength": 12,
            "byteOffset": 13504,
            "target": 34963
        },
        "bufferView_buffer_Cylinder.008_2": {
            "buffer": "buffer_combined",
            "byteLength": 240,
            "byteOffset": 13516,
            "target": 34963
        },
        "bufferView_buffer_Cylinder.008_3": {
            "buffer": "buffer_combined",
            "byteLength": 816,
            "byteOffset": 13756,
            "target": 34963
        },
        "bufferView_buffer_Cylinder.008_4": {
            "buffer": "buffer_combined",
            "byteLength": 216,
            "byteOffset": 14572,
            "target": 34963
        }
    },
    "buffers": {
        "buffer_combined": {
            "byteLength": 14788,
            "type": "arraybuffer",
            "uri": "data:text/plain;base64,"
        }
    },
    "extensions": {
        "KHR_materials_common": {
            "lights": {}
        }
    },
    "extensionsUsed": [
        "KHR_materials_common"
    ],
    "images": {
        "image_Gutter": {
            "uri": "Gutter.png"
        },
        "image_Runway": {
            "uri": "Runway.png"
        }
    },
    "materials": {
        "material_Gutter": {
            "extensions": {
                "KHR_materials_common": {
                    "technique": "PHONG",
                    "values": {
                        "ambient": [
                            1.0,
                            1.0,
                            1.0,
                            1.0
                        ],
                        "diffuse": "texture_Gutter",
                        "doubleSided": false,
                        "emission": [
                            0.0,
                            0.0,
                            0.0,
                            1.0
                        ],
                        "shininess": 50,
                        "specular": [
                            0.5,
                            0.5,
                            0.5,
                            1.0
                        ],
                        "transparency": 1.0,
                        "transparent": false
                    }
                }
            },
            "name": "Gutter"
        },
        "material_GutterWallBlack": {
            "extensions": {
                "KHR_materials_common": {
                    "technique": "PHONG",
                    "values": {
                        "ambient": [
                            1.0,
                            1.0,
                            1.0,
                            1.0
                        ],
                        "diffuse": "texture_Gutter",
                        "doubleSided": false,
                        "emission": [
                            0.0,
                            0.0,
                            0.0,
                            1.0
                        ],
                        "shininess": 50,
                        "specular": [
                            0.5,
                            0.5,
                            0.5,
                            1.0
                        ],
                        "transparency": 1.0,
                        "transparent": false
                    }
                }
            },
            "name": "GutterWallBlack"
        },
        "material_GutterWallGlow": {
            "extensions": {
                "KHR_materials_common": {
                    "technique": "PHONG",
                    "values": {
                        "ambient": [
                            1.0,
                            1.0,
                            1.0,
                            1.0
                        ],
                        "diffuse": "texture_Gutter",
                        "doubleSided": false,
                        "emission": [
                            0.0,
                            0.0,
                            0.0,
                            1.0
                        ],
                        "shininess": 50,
                        "specular": [
                            0.5,
                            0.5,
                            0.5,
                            1.0
                        ],
                        "transparency": 1.0,
                        "transparent": false
                    }
                }
            },
            "name": "GutterWallGlow"
        },
        "material_WoodLane": {
            "extensions": {
                "KHR_materials_common": {
                    "technique": "PHONG",
                    "values": {
                        "ambient": [
                            1.0,
                            1.0,
                            1.0,
                            1.0
                        ],
                        "diffuse": "texture_Alley",
                        "doubleSided": false,
                        "emission": [
                            0.0,
                            0.0,
                            0.0,
                            1.0
                        ],
                        "shininess": 50,
                        "specular": [
                            0.5,
                            0.5,
                            0.5,
                            1.0
                        ],
                        "transparency": 1.0,
                        "transparent": false
                    }
                }
            },
            "name": "WoodLane"
        }
    },
    "meshes": {
        "mesh_Cylinder.008": {
            "name": "Cylinder.008",
            "primitives": [
                {
                    "attributes": {
                        "NORMAL": "accessor_buffer_Cylinder.008_1",
                        "POSITION": "accessor_buffer_Cylinder.008_0",
                        "TEXCOORD_0": "accessor_buffer_Cylinder.008_2"
                    },
                    "indices": "accessor_buffer_Cylinder.008_3",
                    "material": "material_WoodLane",
                    "mode": 4
                },
                {
                    "attributes": {
                        "NORMAL": "accessor_buffer_Cylinder.008_1",
                        "POSITION": "accessor_buffer_Cylinder.008_0",
                        "TEXCOORD_0": "accessor_buffer_Cylinder.008_2"
                    },
                    "indices": "accessor_buffer_Cylinder.008_4",
                    "material": "material_GutterWallBlack",
                    "mode": 4
                },
                {
                    "attributes": {
                        "NORMAL": "accessor_buffer_Cylinder.008_1",
                        "POSITION": "accessor_buffer_Cylinder.008_0",
                        "TEXCOORD_0": "accessor_buffer_Cylinder.008_2"
                    },
                    "indices": "accessor_buffer_Cylinder.008_5",
                    "material": "material_Gutter",
                    "mode": 4
                },
                {
                    "attributes": {
                        "NORMAL": "accessor_buffer_Cylinder.008_1",
                        "POSITION": "accessor_buffer_Cylinder.008_0",
                        "TEXCOORD_0": "accessor_buffer_Cylinder.008_2"
                    },
                    "indices": "accessor_buffer_Cylinder.008_6",
                    "material": "material_GutterWallGlow",
                    "mode": 4
                }
            ]
        }
    },
    "nodes": {
        "node_GutterRight.002": {
            "children": [],
            "matrix": [
                -0.24975258111953735,
                -0.0,
                0.0,
                0.0,
                0.0,
                -1.0927847071684482e-08,
                0.25,
                0.0,
                0.0,
                -2.4000000953674316,
                -1.0490733615142744e-07,
                0.0,
                -4.76837158203125e-07,
                6.614192216147785e-07,
                0.08384189009666443,
                1.0
            ],
            "meshes": [
                "mesh_Cylinder.008"
            ],
            "name": "GutterRight.002"
        },
        "node_scene_Scene_root": {
            "children": [
                "node_GutterRight.002"
            ],
            "matrix": [
                1.0,
                0.0,
                0.0,
                0.0,
                0.0,
                0.0,
                -1.0,
                0.0,
                0.0,
                1.0,
                0.0,
                0.0,
                0.0,
                0.0,
                0.0,
                1.0
            ],
            "name": "node_scene_Scene_root"
        }
    },
    "samplers": {
        "sampler_default": {}
    },
    "scene": "scene_Scene",
    "scenes": {
        "scene_Scene": {
            "extras": {
                "active_camera": null,
                "background_color": [
                    0.06071869283914566,
                    0.06071869283914566,
                    0.06071869283914566
                ],
                "frames_per_second": 24
            },
            "name": "Scene",
            "nodes": [
                "node_scene_Scene_root"
            ]
        }
    },
    "textures": {
        "texture_Alley": {
            "format": 6408,
            "internalFormat": 6408,
            "sampler": "sampler_default",
            "source": "image_Runway"
        },
        "texture_Gutter": {
            "format": 6408,
            "internalFormat": 6408,
            "sampler": "sampler_default",
            "source": "image_Gutter"
        }
    }
}
