{
    "accessors" : [
        {
            "bufferView" : 0, 
            "componentType" : 5121, 
            "count" : 138, 
            "max" : [
                137
            ], 
            "min" : [
                0
            ], 
            "type" : "SCALAR"
        }, 
        {
            "bufferView" : 1, 
            "componentType" : 5126, 
            "count" : 138, 
            "max" : [
                0.21564695239067078, 
                0.5481120944023132, 
                -0.556194007396698
            ], 
            "min" : [
                -0.15934398770332336, 
                -0.19356751441955566, 
                -0.812025249004364
            ], 
            "type" : "VEC3"
        }, 
        {
            "bufferView" : 2, 
            "componentType" : 5126, 
            "count" : 138, 
            "max" : [
                0.7718634605407715, 
                0.9707503318786621, 
                -0.19569362699985504
            ], 
            "min" : [
                -0.7714764475822449, 
                -0.8646607995033264, 
                -0.9873453974723816
            ], 
            "type" : "VEC3"
        }, 
        {
            "bufferView" : 3, 
            "componentType" : 5126, 
            "count" : 138, 
            "max" : [
                0.9769827723503113, 
                0.99449223279953, 
                0.7431108355522156, 
                1.0
            ], 
            "min" : [
                -0.9763109087944031, 
                -0.9899436831474304, 
                -0.6142216920852661, 
                1.0
            ], 
            "type" : "VEC4"
        }, 
        {
            "bufferView" : 4, 
            "componentType" : 5126, 
            "count" : 138, 
            "max" : [
                0.993979811668396, 
                0.8435807526111603
            ], 
            "min" : [
                0.06865493953227997, 
                0.006015121936798096
            ], 
            "type" : "VEC2"
        }, 
        {
            "bufferView" : 5, 
            "componentType" : 5123, 
            "count" : 2028, 
            "max" : [
                2027
            ], 
            "min" : [
                0
            ], 
            "type" : "SCALAR"
        }, 
        {
            "bufferView" : 6, 
            "componentType" : 5126, 
            "count" : 2028, 
            "max" : [
                0.9999994039535522, 
                1.0, 
                0.9999989867210388
            ], 
            "min" : [
                -0.999999463558197, 
                -1.0, 
                -0.9999996423721313
            ], 
            "type" : "VEC3"
        }, 
        {
            "bufferView" : 7, 
            "componentType" : 5126, 
            "count" : 2028, 
            "max" : [
                0.9997380971908569, 
                0.9912985563278198, 
                0.9831057190895081
            ], 
            "min" : [
                -0.9997566342353821, 
                -0.991298496723175, 
                -0.9975793957710266
            ], 
            "type" : "VEC3"
        }, 
        {
            "bufferView" : 8, 
            "componentType" : 5126, 
            "count" : 2028, 
            "max" : [
                0.9998411536216736, 
                0.9996349811553955, 
                0.9914618730545044, 
                1.0
            ], 
            "min" : [
                -0.9998382329940796, 
                -0.991588830947876, 
                -0.9915239214897156, 
                1.0
            ], 
            "type" : "VEC4"
        }, 
        {
            "bufferView" : 9, 
            "componentType" : 5126, 
            "count" : 2028, 
            "max" : [
                0.989772617816925, 
                0.9939849013462663
            ], 
            "min" : [
                0.006020185071974993, 
                0.012983202934265137
            ], 
            "type" : "VEC2"
        }
    ], 
    "asset" : {
        "generator" : "Khronos Blender glTF 2.0 exporter", 
        "version" : "2.0"
    }, 
    "bufferViews" : [
        {
            "buffer" : 0, 
            "byteLength" : 138, 
            "byteOffset" : 0, 
            "target" : 34963
        }, 
        {
            "buffer" : 0, 
            "byteLength" : 1656, 
            "byteOffset" : 140, 
            "target" : 34962
        }, 
        {
            "buffer" : 0, 
            "byteLength" : 1656, 
            "byteOffset" : 1796, 
            "target" : 34962
        }, 
        {
            "buffer" : 0, 
            "byteLength" : 2208, 
            "byteOffset" : 3452, 
            "target" : 34962
        }, 
        {
            "buffer" : 0, 
            "byteLength" : 1104, 
            "byteOffset" : 5660, 
            "target" : 34962
        }, 
        {
            "buffer" : 0, 
            "byteLength" : 4056, 
            "byteOffset" : 6764, 
            "target" : 34963
        }, 
        {
            "buffer" : 0, 
            "byteLength" : 24336, 
            "byteOffset" : 10820, 
            "target" : 34962
        }, 
        {
            "buffer" : 0, 
            "byteLength" : 24336, 
            "byteOffset" : 35156, 
            "target" : 34962
        }, 
        {
            "buffer" : 0, 
            "byteLength" : 32448, 
            "byteOffset" : 59492, 
            "target" : 34962
        }, 
        {
            "buffer" : 0, 
            "byteLength" : 16224, 
            "byteOffset" : 91940, 
            "target" : 34962
        }
    ], 
    "buffers" : [
        {
            "byteLength" : 108164, 
            "uri" : "data:application/octet-stream;base64,"
        }
    ], 
    "images" : [
        {
            "uri" : "BowlingBallColor.png"
        }, 
        {
            "uri" : "BowlingBallFingers.png"
        }
    ], 
    "materials" : [
        {
            "name" : "BowlingBallColor", 
            "pbrMetallicRoughness" : {
                "baseColorFactor" : [
                    0.05943067162380622, 
                    0.19833412465951028, 
                    0.640000066757203, 
                    1.0
                ], 
                "baseColorTexture" : {
                    "index" : 0
                }, 
                "metallicFactor" : 0.0
            }
        }, 
        {
            "name" : "BowlingBallFingers", 
            "pbrMetallicRoughness" : {
                "baseColorFactor" : [
                    0.800000011920929, 
                    0.800000011920929, 
                    0.800000011920929, 
                    1.0
                ], 
                "baseColorTexture" : {
                    "index" : 1
                }, 
                "metallicFactor" : 0.0
            }
        }
    ], 
    "meshes" : [
        {
            "name" : "Sphere.001", 
            "primitives" : [
                {
                    "attributes" : {
                        "NORMAL" : 2, 
                        "POSITION" : 1, 
                        "TANGENT" : 3, 
                        "TEXCOORD_0" : 4
                    }, 
                    "indices" : 0, 
                    "material" : 1
                }, 
                {
                    "attributes" : {
                        "NORMAL" : 7, 
                        "POSITION" : 6, 
                        "TANGENT" : 8, 
                        "TEXCOORD_0" : 9
                    }, 
                    "indices" : 5, 
                    "material" : 0
                }
            ]
        }
    ], 
    "nodes" : [
        {
            "mesh" : 0, 
            "name" : "Sphere"
        }
    ], 
    "samplers" : [
        {}
    ], 
    "scene" : 0, 
    "scenes" : [
        {
            "name" : "Scene", 
            "nodes" : [
                0
            ]
        }
    ], 
    "textures" : [
        {
            "sampler" : 0, 
            "source" : 0
        }, 
        {
            "sampler" : 0, 
            "source" : 1
        }
    ]
}
