{
    "accessors": {
        "accessor_buffer_Mesh.001_0": {
            "bufferView": "bufferView_buffer_Mesh.001_0",
            "byteOffset": 0,
            "byteStride": 12,
            "componentType": 5126,
            "count": 1855,
            "max": [
                0.19541874527931213,
                0.6016163229942322,
                0.1948724389076233
            ],
            "min": [
                -0.19541886448860168,
                -0.6013553738594055,
                -0.1948724240064621
            ],
            "type": "VEC3"
        },
        "accessor_buffer_Mesh.001_1": {
            "bufferView": "bufferView_buffer_Mesh.001_0",
            "byteOffset": 22260,
            "byteStride": 12,
            "componentType": 5126,
            "count": 1855,
            "max": [
                0.999969482421875,
                1.0,
                0.9971923232078552
            ],
            "min": [
                -1.0,
                -1.0,
                -0.9971923232078552
            ],
            "type": "VEC3"
        },
        "accessor_buffer_Mesh.001_2": {
            "bufferView": "bufferView_buffer_Mesh.001_0",
            "byteOffset": 44520,
            "byteStride": 8,
            "componentType": 5126,
            "count": 1855,
            "max": [
                0.9792000651359558,
                0.9791405871510506
            ],
            "min": [
                0.020799968391656876,
                0.02085942029953003
            ],
            "type": "VEC2"
        },
        "accessor_buffer_Mesh.001_3": {
            "bufferView": "bufferView_buffer_Mesh.001_1",
            "byteOffset": 0,
            "byteStride": 2,
            "componentType": 5123,
            "count": 7938,
            "max": [
                1854
            ],
            "min": [
                0
            ],
            "type": "SCALAR"
        },
        "accessor_buffer_Mesh.001_4": {
            "bufferView": "bufferView_buffer_Mesh.001_2",
            "byteOffset": 0,
            "byteStride": 2,
            "componentType": 5123,
            "count": 504,
            "max": [
                1847
            ],
            "min": [
                26
            ],
            "type": "SCALAR"
        }
    },
    "asset": {
        "profile": {
            "api": "WebGL",
            "version": "1.0.3"
        },
        "version": "1.0"
    },
    "bufferViews": {
        "bufferView_buffer_Mesh.001_0": {
            "buffer": "buffer_combined",
            "byteLength": 59360,
            "byteOffset": 0,
            "target": 34962
        },
        "bufferView_buffer_Mesh.001_1": {
            "buffer": "buffer_combined",
            "byteLength": 15876,
            "byteOffset": 59360,
            "target": 34963
        },
        "bufferView_buffer_Mesh.001_2": {
            "buffer": "buffer_combined",
            "byteLength": 1008,
            "byteOffset": 75236,
            "target": 34963
        }
    },
    "buffers": {
        "buffer_combined": {
            "byteLength": 76244,
            "type": "arraybuffer",
            "uri": "data:text/plain;base64,"
        }
    },
    "extensions": {
        "KHR_materials_common": {
            "lights": {}
        }
    },
    "extensionsUsed": [
        "KHR_materials_common"
    ],
    "images": {
        "image_BowlingPin": {
            "uri": "BowlingPin.png"
        }
    },
    "materials": {
        "material_BowlingPinRed": {
            "extensions": {
                "KHR_materials_common": {
                    "technique": "CONSTANT",
                    "values": {
                        "ambient": [
                            1.0,
                            1.0,
                            1.0,
                            1.0
                        ],
                        "diffuse": "texture_BowlingPin",
                        "doubleSided": false,
                        "emission": "texture_BowlingPin",
                        "shininess": 50,
                        "specular": [
                            0.5,
                            0.5,
                            0.5,
                            1.0
                        ],
                        "transparency": 1.0,
                        "transparent": false
                    }
                }
            },
            "name": "BowlingPinRed"
        },
        "material_BowlingPinWhite": {
            "extensions": {
                "KHR_materials_common": {
                    "technique": "CONSTANT",
                    "values": {
                        "ambient": [
                            1.0,
                            1.0,
                            1.0,
                            1.0
                        ],
                        "diffuse": "texture_BowlingPin",
                        "doubleSided": false,
                        "emission": "texture_BowlingPin",
                        "shininess": 50,
                        "specular": [
                            0.5,
                            0.5,
                            0.5,
                            1.0
                        ],
                        "transparency": 1.0,
                        "transparent": false
                    }
                }
            },
            "name": "BowlingPinWhite"
        }
    },
    "meshes": {
        "mesh_Mesh.001": {
            "name": "Mesh.001",
            "primitives": [
                {
                    "attributes": {
                        "NORMAL": "accessor_buffer_Mesh.001_1",
                        "POSITION": "accessor_buffer_Mesh.001_0",
                        "TEXCOORD_0": "accessor_buffer_Mesh.001_2"
                    },
                    "indices": "accessor_buffer_Mesh.001_3",
                    "material": "material_BowlingPinWhite",
                    "mode": 4
                },
                {
                    "attributes": {
                        "NORMAL": "accessor_buffer_Mesh.001_1",
                        "POSITION": "accessor_buffer_Mesh.001_0",
                        "TEXCOORD_0": "accessor_buffer_Mesh.001_2"
                    },
                    "indices": "accessor_buffer_Mesh.001_4",
                    "material": "material_BowlingPinRed",
                    "mode": 4
                }
            ]
        }
    },
    "nodes": {
        "node_Pin": {
            "children": [],
            "matrix": [
                1.0,
                0.0,
                0.0,
                0.0,
                0.0,
                1.0,
                0.0,
                0.0,
                0.0,
                0.0,
                1.0,
                0.0,
                0.0,
                0.0,
                0.0,
                1.0
            ],
            "meshes": [
                "mesh_Mesh.001"
            ],
            "name": "Pin"
        },
        "node_scene_Scene_root": {
            "children": [
                "node_Pin"
            ],
            "matrix": [
                1.0,
                0.0,
                0.0,
                0.0,
                0.0,
                0.0,
                -1.0,
                0.0,
                0.0,
                1.0,
                0.0,
                0.0,
                0.0,
                0.0,
                0.0,
                1.0
            ],
            "name": "node_scene_Scene_root"
        }
    },
    "samplers": {
        "sampler_default": {}
    },
    "scene": "scene_Scene",
    "scenes": {
        "scene_Scene": {
            "extras": {
                "active_camera": null,
                "background_color": [
                    0.06071869283914566,
                    0.06071869283914566,
                    0.06071869283914566
                ],
                "frames_per_second": 24
            },
            "name": "Scene",
            "nodes": [
                "node_scene_Scene_root"
            ]
        }
    },
    "textures": {
        "texture_BowlingPin": {
            "format": 6408,
            "internalFormat": 6408,
            "sampler": "sampler_default",
            "source": "image_BowlingPin"
        }
    }
}
