{
    "accessors" : [
        {
            "bufferView" : 0, 
            "componentType" : 5123, 
            "count" : 2028, 
            "max" : [
                2027
            ], 
            "min" : [
                0
            ], 
            "type" : "SCALAR"
        }, 
        {
            "bufferView" : 1, 
            "componentType" : 5126, 
            "count" : 2028, 
            "max" : [
                0.9999994039535522, 
                1.0, 
                0.9999989867210388
            ], 
            "min" : [
                -0.999999463558197, 
                -1.0, 
                -0.9999996423721313
            ], 
            "type" : "VEC3"
        }, 
        {
            "bufferView" : 2, 
            "componentType" : 5126, 
            "count" : 2028, 
            "max" : [
                0.9997380971908569, 
                0.9912985563278198, 
                0.9831057190895081
            ], 
            "min" : [
                -0.9997566342353821, 
                -0.991298496723175, 
                -0.9975793957710266
            ], 
            "type" : "VEC3"
        }, 
        {
            "bufferView" : 3, 
            "componentType" : 5126, 
            "count" : 2028, 
            "max" : [
                0.9998411536216736, 
                0.9996349811553955, 
                0.9914618730545044, 
                1.0
            ], 
            "min" : [
                -0.9998382329940796, 
                -0.991588830947876, 
                -0.9915239214897156, 
                1.0
            ], 
            "type" : "VEC4"
        }, 
        {
            "bufferView" : 4, 
            "componentType" : 5126, 
            "count" : 2028, 
            "max" : [
                0.989772617816925, 
                0.9939849013462663
            ], 
            "min" : [
                0.006020185071974993, 
                0.012983202934265137
            ], 
            "type" : "VEC2"
        }
    ], 
    "asset" : {
        "generator" : "Khronos Blender glTF 2.0 exporter", 
        "version" : "2.0"
    }, 
    "bufferViews" : [
        {
            "buffer" : 0, 
            "byteLength" : 4056, 
            "byteOffset" : 0, 
            "target" : 34963
        }, 
        {
            "buffer" : 0, 
            "byteLength" : 24336, 
            "byteOffset" : 4056, 
            "target" : 34962
        }, 
        {
            "buffer" : 0, 
            "byteLength" : 24336, 
            "byteOffset" : 28392, 
            "target" : 34962
        }, 
        {
            "buffer" : 0, 
            "byteLength" : 32448, 
            "byteOffset" : 52728, 
            "target" : 34962
        }, 
        {
            "buffer" : 0, 
            "byteLength" : 16224, 
            "byteOffset" : 85176, 
            "target" : 34962
        }
    ], 
    "buffers" : [
        {
            "byteLength" : 101400, 
            "uri" : "data:application/octet-stream;base64,"
        }
    ], 
    "meshes" : [
        {
            "name" : "Sphere.001", 
            "primitives" : [
                {
                    "attributes" : {
                        "NORMAL" : 2, 
                        "POSITION" : 1, 
                        "TANGENT" : 3, 
                        "TEXCOORD_0" : 4
                    }, 
                    "indices" : 0
                }
            ]
        }
    ], 
    "nodes" : [
        {
            "mesh" : 0, 
            "name" : "Sphere"
        }
    ], 
    "scene" : 0, 
    "scenes" : [
        {
            "name" : "Scene", 
            "nodes" : [
                0
            ]
        }
    ]
}
