{
    "accessors": {
        "accessor_buffer_Cylinder.004_0": {
            "bufferView": "bufferView_buffer_Cylinder.004_0",
            "byteOffset": 0,
            "byteStride": 12,
            "componentType": 5126,
            "count": 410,
            "max": [
                8.595218658447266,
                1.1067901849746704,
                5.2083330154418945
            ],
            "min": [
                -8.595195770263672,
                -0.9353675842285156,
                -5.2083330154418945
            ],
            "type": "VEC3"
        },
        "accessor_buffer_Cylinder.004_1": {
            "bufferView": "bufferView_buffer_Cylinder.004_0",
            "byteOffset": 4920,
            "byteStride": 12,
            "componentType": 5126,
            "count": 410,
            "max": [
                1.0,
                1.0,
                1.0
            ],
            "min": [
                -1.0,
                -1.0,
                -1.0
            ],
            "type": "VEC3"
        },
        "accessor_buffer_Cylinder.004_2": {
            "bufferView": "bufferView_buffer_Cylinder.004_0",
            "byteOffset": 9840,
            "byteStride": 8,
            "componentType": 5126,
            "count": 410,
            "max": [
                0.9974898099899292,
                0.997345928568393
            ],
            "min": [
                0.002510212128981948,
                0.0026540160179138184
            ],
            "type": "VEC2"
        },
        "accessor_buffer_Cylinder.004_3": {
            "bufferView": "bufferView_buffer_Cylinder.004_1",
            "byteOffset": 0,
            "byteStride": 2,
            "componentType": 5123,
            "count": 120,
            "max": [
                406
            ],
            "min": [
                7
            ],
            "type": "SCALAR"
        },
        "accessor_buffer_Cylinder.004_4": {
            "bufferView": "bufferView_buffer_Cylinder.004_2",
            "byteOffset": 0,
            "byteStride": 2,
            "componentType": 5123,
            "count": 108,
            "max": [
                408
            ],
            "min": [
                3
            ],
            "type": "SCALAR"
        },
        "accessor_buffer_Cylinder.004_5": {
            "bufferView": "bufferView_buffer_Cylinder.004_3",
            "byteOffset": 0,
            "byteStride": 2,
            "componentType": 5123,
            "count": 6,
            "max": [
                294
            ],
            "min": [
                48
            ],
            "type": "SCALAR"
        },
        "accessor_buffer_Cylinder.004_6": {
            "bufferView": "bufferView_buffer_Cylinder.004_4",
            "byteOffset": 0,
            "byteStride": 2,
            "componentType": 5123,
            "count": 408,
            "max": [
                409
            ],
            "min": [
                0
            ],
            "type": "SCALAR"
        }
    },
    "asset": {
        "profile": {
            "api": "WebGL",
            "version": "1.0.3"
        },
        "version": "1.0"
    },
    "bufferViews": {
        "bufferView_buffer_Cylinder.004_0": {
            "buffer": "buffer_combined",
            "byteLength": 13120,
            "byteOffset": 0,
            "target": 34962
        },
        "bufferView_buffer_Cylinder.004_1": {
            "buffer": "buffer_combined",
            "byteLength": 240,
            "byteOffset": 13120,
            "target": 34963
        },
        "bufferView_buffer_Cylinder.004_2": {
            "buffer": "buffer_combined",
            "byteLength": 216,
            "byteOffset": 13360,
            "target": 34963
        },
        "bufferView_buffer_Cylinder.004_3": {
            "buffer": "buffer_combined",
            "byteLength": 12,
            "byteOffset": 13576,
            "target": 34963
        },
        "bufferView_buffer_Cylinder.004_4": {
            "buffer": "buffer_combined",
            "byteLength": 816,
            "byteOffset": 13588,
            "target": 34963
        }
    },
    "buffers": {
        "buffer_combined": {
            "byteLength": 14404,
            "type": "arraybuffer",
            "uri": "data:text/plain;base64,"
        }
    },
    "extensions": {
        "KHR_materials_common": {
            "lights": {}
        }
    },
    "extensionsUsed": [
        "KHR_materials_common"
    ],
    "images": {
        "image_Gutter": {
            "uri": "Gutter.png"
        },
        "image_Runway": {
            "uri": "Runway.png"
        }
    },
    "materials": {
        "material_Gutter": {
            "extensions": {
                "KHR_materials_common": {
                    "technique": "PHONG",
                    "values": {
                        "ambient": [
                            1.0,
                            1.0,
                            1.0,
                            1.0
                        ],
                        "diffuse": "texture_Gutter",
                        "doubleSided": false,
                        "emission": [
                            0.0,
                            0.0,
                            0.0,
                            1.0
                        ],
                        "shininess": 50,
                        "specular": [
                            0.5,
                            0.5,
                            0.5,
                            1.0
                        ],
                        "transparency": 1.0,
                        "transparent": false
                    }
                }
            },
            "name": "Gutter"
        },
        "material_GutterWallBlack": {
            "extensions": {
                "KHR_materials_common": {
                    "technique": "PHONG",
                    "values": {
                        "ambient": [
                            1.0,
                            1.0,
                            1.0,
                            1.0
                        ],
                        "diffuse": "texture_Gutter",
                        "doubleSided": false,
                        "emission": [
                            0.0,
                            0.0,
                            0.0,
                            1.0
                        ],
                        "shininess": 50,
                        "specular": [
                            0.5,
                            0.5,
                            0.5,
                            1.0
                        ],
                        "transparency": 1.0,
                        "transparent": false
                    }
                }
            },
            "name": "GutterWallBlack"
        },
        "material_GutterWallGlow": {
            "extensions": {
                "KHR_materials_common": {
                    "technique": "PHONG",
                    "values": {
                        "ambient": [
                            1.0,
                            1.0,
                            1.0,
                            1.0
                        ],
                        "diffuse": "texture_Gutter",
                        "doubleSided": false,
                        "emission": [
                            0.0,
                            0.0,
                            0.0,
                            1.0
                        ],
                        "shininess": 50,
                        "specular": [
                            0.5,
                            0.5,
                            0.5,
                            1.0
                        ],
                        "transparency": 1.0,
                        "transparent": false
                    }
                }
            },
            "name": "GutterWallGlow"
        },
        "material_WoodLane": {
            "extensions": {
                "KHR_materials_common": {
                    "technique": "PHONG",
                    "values": {
                        "ambient": [
                            1.0,
                            1.0,
                            1.0,
                            1.0
                        ],
                        "diffuse": "texture_Runway1024",
                        "doubleSided": false,
                        "emission": [
                            0.0,
                            0.0,
                            0.0,
                            1.0
                        ],
                        "shininess": 50,
                        "specular": [
                            0.5,
                            0.5,
                            0.5,
                            1.0
                        ],
                        "transparency": 1.0,
                        "transparent": false
                    }
                }
            },
            "name": "WoodLane"
        }
    },
    "meshes": {
        "mesh_Cylinder.004": {
            "name": "Cylinder.004",
            "primitives": [
                {
                    "attributes": {
                        "NORMAL": "accessor_buffer_Cylinder.004_1",
                        "POSITION": "accessor_buffer_Cylinder.004_0",
                        "TEXCOORD_0": "accessor_buffer_Cylinder.004_2"
                    },
                    "indices": "accessor_buffer_Cylinder.004_3",
                    "material": "material_GutterWallBlack",
                    "mode": 4
                },
                {
                    "attributes": {
                        "NORMAL": "accessor_buffer_Cylinder.004_1",
                        "POSITION": "accessor_buffer_Cylinder.004_0",
                        "TEXCOORD_0": "accessor_buffer_Cylinder.004_2"
                    },
                    "indices": "accessor_buffer_Cylinder.004_4",
                    "material": "material_GutterWallGlow",
                    "mode": 4
                },
                {
                    "attributes": {
                        "NORMAL": "accessor_buffer_Cylinder.004_1",
                        "POSITION": "accessor_buffer_Cylinder.004_0",
                        "TEXCOORD_0": "accessor_buffer_Cylinder.004_2"
                    },
                    "indices": "accessor_buffer_Cylinder.004_5",
                    "material": "material_WoodLane",
                    "mode": 4
                },
                {
                    "attributes": {
                        "NORMAL": "accessor_buffer_Cylinder.004_1",
                        "POSITION": "accessor_buffer_Cylinder.004_0",
                        "TEXCOORD_0": "accessor_buffer_Cylinder.004_2"
                    },
                    "indices": "accessor_buffer_Cylinder.004_6",
                    "material": "material_Gutter",
                    "mode": 4
                }
            ]
        }
    },
    "nodes": {
        "node_GutterLeft.004": {
            "children": [],
            "matrix": [
                0.24975258111953735,
                0.0,
                0.0,
                0.0,
                0.0,
                -1.0927847071684482e-08,
                0.25,
                0.0,
                0.0,
                -1.2000000476837158,
                -5.245366807571372e-08,
                0.0,
                0.0,
                0.0,
                0.0,
                1.0
            ],
            "meshes": [
                "mesh_Cylinder.004"
            ],
            "name": "GutterLeft.004"
        },
        "node_scene_Scene_root": {
            "children": [
                "node_GutterLeft.004"
            ],
            "matrix": [
                1.0,
                0.0,
                0.0,
                0.0,
                0.0,
                0.0,
                -1.0,
                0.0,
                0.0,
                1.0,
                0.0,
                0.0,
                0.0,
                0.0,
                0.0,
                1.0
            ],
            "name": "node_scene_Scene_root"
        }
    },
    "samplers": {
        "sampler_default": {}
    },
    "scene": "scene_Scene",
    "scenes": {
        "scene_Scene": {
            "extras": {
                "active_camera": null,
                "background_color": [
                    0.06071869283914566,
                    0.06071869283914566,
                    0.06071869283914566
                ],
                "frames_per_second": 24
            },
            "name": "Scene",
            "nodes": [
                "node_scene_Scene_root"
            ]
        }
    },
    "textures": {
        "texture_Gutter": {
            "format": 6408,
            "internalFormat": 6408,
            "sampler": "sampler_default",
            "source": "image_Gutter"
        },
        "texture_Runway1024": {
            "format": 6408,
            "internalFormat": 6408,
            "sampler": "sampler_default",
            "source": "image_Runway"
        }
    }
}
