{
    "accessors": {
        "accessor_buffer_Sphere.001_0": {
            "bufferView": "bufferView_buffer_Sphere.001_0",
            "byteOffset": 0,
            "byteStride": 12,
            "componentType": 5126,
            "count": 2166,
            "max": [
                0.9999994039535522,
                0.9999996423721313,
                1.0
            ],
            "min": [
                -0.999999463558197,
                -0.9999989867210388,
                -1.0
            ],
            "type": "VEC3"
        },
        "accessor_buffer_Sphere.001_1": {
            "bufferView": "bufferView_buffer_Sphere.001_0",
            "byteOffset": 25992,
            "byteStride": 12,
            "componentType": 5126,
            "count": 2166,
            "max": [
                0.9997380971908569,
                0.9975790977478027,
                0.9912986755371094
            ],
            "min": [
                -0.9997566342353821,
                -0.9831057786941528,
                -0.9912987351417542
            ],
            "type": "VEC3"
        },
        "accessor_buffer_Sphere.001_2": {
            "bufferView": "bufferView_buffer_Sphere.001_0",
            "byteOffset": 51984,
            "byteStride": 8,
            "componentType": 5126,
            "count": 2166,
            "max": [
                0.9935287833213806,
                0.998365817242302
            ],
            "min": [
                0.0016341827576979995,
                0.0016341805458068848
            ],
            "type": "VEC2"
        },
        "accessor_buffer_Sphere.001_3": {
            "bufferView": "bufferView_buffer_Sphere.001_1",
            "byteOffset": 0,
            "byteStride": 2,
            "componentType": 5123,
            "count": 2028,
            "max": [
                2165
            ],
            "min": [
                0
            ],
            "type": "SCALAR"
        },
        "accessor_buffer_Sphere.001_4": {
            "bufferView": "bufferView_buffer_Sphere.001_2",
            "byteOffset": 0,
            "byteStride": 2,
            "componentType": 5123,
            "count": 138,
            "max": [
                2161
            ],
            "min": [
                2
            ],
            "type": "SCALAR"
        }
    },
    "asset": {
        "profile": {
            "api": "WebGL",
            "version": "1.0.3"
        },
        "version": "1.0"
    },
    "bufferViews": {
        "bufferView_buffer_Sphere.001_0": {
            "buffer": "buffer_combined",
            "byteLength": 69312,
            "byteOffset": 0,
            "target": 34962
        },
        "bufferView_buffer_Sphere.001_1": {
            "buffer": "buffer_combined",
            "byteLength": 4056,
            "byteOffset": 69312,
            "target": 34963
        },
        "bufferView_buffer_Sphere.001_2": {
            "buffer": "buffer_combined",
            "byteLength": 276,
            "byteOffset": 73368,
            "target": 34963
        }
    },
    "buffers": {
        "buffer_combined": {
            "byteLength": 73644,
            "type": "arraybuffer",
            "uri": "data:text/plain;base64,"
        }
    },
    "extensions": {
        "KHR_materials_common": {
            "lights": {}
        }
    },
    "extensionsUsed": [
        "KHR_materials_common"
    ],
    "images": {
        "image_BowlingBall": {
            "uri": "BowlingBall.png"
        }
    },
    "materials": {
        "material_BBColor": {
            "extensions": {
                "KHR_materials_common": {
                    "technique": "PHONG",
                    "values": {
                        "ambient": [
                            1.0,
                            1.0,
                            1.0,
                            1.0
                        ],
                        "diffuse": "texture_BowlingBall",
                        "doubleSided": false,
                        "emission": [
                            0.0,
                            0.0,
                            0.0,
                            1.0
                        ],
                        "shininess": 50,
                        "specular": [
                            0.5,
                            0.5,
                            0.5,
                            1.0
                        ],
                        "transparency": 1.0,
                        "transparent": false
                    }
                }
            },
            "name": "BBColor"
        },
        "material_BBInside": {
            "extensions": {
                "KHR_materials_common": {
                    "technique": "PHONG",
                    "values": {
                        "ambient": [
                            1.0,
                            1.0,
                            1.0,
                            1.0
                        ],
                        "diffuse": "texture_BowlingBall",
                        "doubleSided": false,
                        "emission": [
                            0.0,
                            0.0,
                            0.0,
                            1.0
                        ],
                        "shininess": 50,
                        "specular": [
                            0.5,
                            0.5,
                            0.5,
                            1.0
                        ],
                        "transparency": 1.0,
                        "transparent": false
                    }
                }
            },
            "name": "BBInside"
        }
    },
    "meshes": {
        "mesh_Sphere.001": {
            "name": "Sphere.001",
            "primitives": [
                {
                    "attributes": {
                        "NORMAL": "accessor_buffer_Sphere.001_1",
                        "POSITION": "accessor_buffer_Sphere.001_0",
                        "TEXCOORD_0": "accessor_buffer_Sphere.001_2"
                    },
                    "indices": "accessor_buffer_Sphere.001_3",
                    "material": "material_BBColor",
                    "mode": 4
                },
                {
                    "attributes": {
                        "NORMAL": "accessor_buffer_Sphere.001_1",
                        "POSITION": "accessor_buffer_Sphere.001_0",
                        "TEXCOORD_0": "accessor_buffer_Sphere.001_2"
                    },
                    "indices": "accessor_buffer_Sphere.001_4",
                    "material": "material_BBInside",
                    "mode": 4
                }
            ]
        }
    },
    "nodes": {
        "node_Sphere": {
            "children": [],
            "matrix": [
                1.0,
                0.0,
                0.0,
                0.0,
                0.0,
                1.0,
                0.0,
                0.0,
                0.0,
                0.0,
                1.0,
                0.0,
                0.0,
                0.0,
                0.0,
                1.0
            ],
            "meshes": [
                "mesh_Sphere.001"
            ],
            "name": "Sphere"
        },
        "node_scene_Scene_root": {
            "children": [
                "node_Sphere"
            ],
            "matrix": [
                1.0,
                0.0,
                0.0,
                0.0,
                0.0,
                0.0,
                -1.0,
                0.0,
                0.0,
                1.0,
                0.0,
                0.0,
                0.0,
                0.0,
                0.0,
                1.0
            ],
            "name": "node_scene_Scene_root"
        }
    },
    "samplers": {
        "sampler_default": {}
    },
    "scene": "scene_Scene",
    "scenes": {
        "scene_Scene": {
            "extras": {
                "active_camera": null,
                "background_color": [
                    0.06071869283914566,
                    0.06071869283914566,
                    0.06071869283914566
                ],
                "frames_per_second": 24
            },
            "name": "Scene",
            "nodes": [
                "node_scene_Scene_root"
            ]
        }
    },
    "textures": {
        "texture_BowlingBall": {
            "format": 6408,
            "internalFormat": 6408,
            "sampler": "sampler_default",
            "source": "image_BowlingBall"
        }
    }
}
