{
    "accessors" : [
        {
            "bufferView" : 0, 
            "componentType" : 5121, 
            "count" : 504, 
            "max" : [
                187
            ], 
            "min" : [
                0
            ], 
            "type" : "SCALAR"
        }, 
        {
            "bufferView" : 1, 
            "componentType" : 5126, 
            "count" : 188, 
            "max" : [
                0.07975076884031296, 
                0.07952774316072464, 
                -0.18965813517570496
            ], 
            "min" : [
                -0.07975079864263535, 
                -0.079527847468853, 
                -0.3240152597427368
            ], 
            "type" : "VEC3"
        }, 
        {
            "bufferView" : 2, 
            "componentType" : 5126, 
            "count" : 188, 
            "max" : [
                0.999969482421875, 
                0.9971923232078552, 
                0.14419995248317719
            ], 
            "min" : [
                -1.0, 
                -0.9971923232078552, 
                0.0002441480755805969
            ], 
            "type" : "VEC3"
        }, 
        {
            "bufferView" : 3, 
            "componentType" : 5126, 
            "count" : 188, 
            "max" : [
                0.26638999581336975, 
                0.11733478307723999, 
                1.0, 
                1.0
            ], 
            "min" : [
                -0.2043900340795517, 
                -0.959956705570221, 
                -1.0, 
                1.0
            ], 
            "type" : "VEC4"
        }, 
        {
            "bufferView" : 4, 
            "componentType" : 5126, 
            "count" : 188, 
            "max" : [
                0.9792000651359558, 
                0.8619235903024673
            ], 
            "min" : [
                0.020799968391656876, 
                0.028796076774597168
            ], 
            "type" : "VEC2"
        }, 
        {
            "bufferView" : 5, 
            "componentType" : 5123, 
            "count" : 7938, 
            "max" : [
                1666
            ], 
            "min" : [
                0
            ], 
            "type" : "SCALAR"
        }, 
        {
            "bufferView" : 6, 
            "componentType" : 5126, 
            "count" : 1667, 
            "max" : [
                0.19541874527931213, 
                0.1948724389076233, 
                0.6013553738594055
            ], 
            "min" : [
                -0.19541886448860168, 
                -0.1948724240064621, 
                -0.6016163229942322
            ], 
            "type" : "VEC3"
        }, 
        {
            "bufferView" : 7, 
            "componentType" : 5126, 
            "count" : 1667, 
            "max" : [
                0.999969482421875, 
                0.9971923232078552, 
                1.0
            ], 
            "min" : [
                -0.999969482421875, 
                -0.9971923232078552, 
                -1.0
            ], 
            "type" : "VEC3"
        }, 
        {
            "bufferView" : 8, 
            "componentType" : 5126, 
            "count" : 1667, 
            "max" : [
                0.9987590909004211, 
                0.9968238472938538, 
                0.9945443868637085, 
                1.0
            ], 
            "min" : [
                -0.9985306859016418, 
                -0.989159345626831, 
                -0.994530200958252, 
                1.0
            ], 
            "type" : "VEC4"
        }, 
        {
            "bufferView" : 9, 
            "componentType" : 5126, 
            "count" : 1667, 
            "max" : [
                0.9307218790054321, 
                0.9791405871510506
            ], 
            "min" : [
                0.020799968391656876, 
                0.02085942029953003
            ], 
            "type" : "VEC2"
        }
    ], 
    "asset" : {
        "generator" : "Khronos Blender glTF 2.0 exporter", 
        "version" : "2.0"
    }, 
    "bufferViews" : [
        {
            "buffer" : 0, 
            "byteLength" : 504, 
            "byteOffset" : 0, 
            "target" : 34963
        }, 
        {
            "buffer" : 0, 
            "byteLength" : 2256, 
            "byteOffset" : 504, 
            "target" : 34962
        }, 
        {
            "buffer" : 0, 
            "byteLength" : 2256, 
            "byteOffset" : 2760, 
            "target" : 34962
        }, 
        {
            "buffer" : 0, 
            "byteLength" : 3008, 
            "byteOffset" : 5016, 
            "target" : 34962
        }, 
        {
            "buffer" : 0, 
            "byteLength" : 1504, 
            "byteOffset" : 8024, 
            "target" : 34962
        }, 
        {
            "buffer" : 0, 
            "byteLength" : 15876, 
            "byteOffset" : 9528, 
            "target" : 34963
        }, 
        {
            "buffer" : 0, 
            "byteLength" : 20004, 
            "byteOffset" : 25404, 
            "target" : 34962
        }, 
        {
            "buffer" : 0, 
            "byteLength" : 20004, 
            "byteOffset" : 45408, 
            "target" : 34962
        }, 
        {
            "buffer" : 0, 
            "byteLength" : 26672, 
            "byteOffset" : 65412, 
            "target" : 34962
        }, 
        {
            "buffer" : 0, 
            "byteLength" : 13336, 
            "byteOffset" : 92084, 
            "target" : 34962
        }
    ], 
    "buffers" : [
        {
            "byteLength" : 105420, 
            "uri" : "data:application/octet-stream;base64,"
        }
    ], 
    "extensionsRequired" : [
        "KHR_materials_cmnBlinnPhong"
    ], 
    "extensionsUsed" : [
        "KHR_materials_cmnBlinnPhong"
    ], 
    "images" : [
        {
            "uri" : "BowlingPinRed.png"
        }, 
        {
            "uri" : "BowlingPinWhite.png"
        }
    ], 
    "materials" : [
        {
            "emissiveFactor" : [
                0.0, 
                0.0, 
                0.0
            ], 
            "extensions" : {
                "KHR_materials_cmnBlinnPhong" : {
                    "diffuseFactor" : [
                        0.640000066757203, 
                        0.0, 
                        0.004786781665485823, 
                        1.0
                    ], 
                    "diffuseTexture" : {
                        "index" : 0
                    }, 
                    "shininessFactor" : 12.298039215686275, 
                    "specularFactor" : [
                        0.5, 
                        0.5, 
                        0.5
                    ]
                }
            }, 
            "name" : "BowlingPinRed"
        }, 
        {
            "emissiveFactor" : [
                0.0, 
                0.0, 
                0.0
            ], 
            "extensions" : {
                "KHR_materials_cmnBlinnPhong" : {
                    "diffuseFactor" : [
                        0.800000011920929, 
                        0.800000011920929, 
                        0.800000011920929, 
                        1.0
                    ], 
                    "diffuseTexture" : {
                        "index" : 1
                    }, 
                    "shininessFactor" : 12.298039215686275, 
                    "specularFactor" : [
                        0.5, 
                        0.5, 
                        0.5
                    ]
                }
            }, 
            "name" : "BowlingPinWhite"
        }
    ], 
    "meshes" : [
        {
            "name" : "Mesh.001", 
            "primitives" : [
                {
                    "attributes" : {
                        "NORMAL" : 2, 
                        "POSITION" : 1, 
                        "TANGENT" : 3, 
                        "TEXCOORD_0" : 4
                    }, 
                    "indices" : 0, 
                    "material" : 0
                }, 
                {
                    "attributes" : {
                        "NORMAL" : 7, 
                        "POSITION" : 6, 
                        "TANGENT" : 8, 
                        "TEXCOORD_0" : 9
                    }, 
                    "indices" : 5, 
                    "material" : 1
                }
            ]
        }
    ], 
    "nodes" : [
        {
            "mesh" : 0, 
            "name" : "Pin", 
            "rotation" : [
                1.0, 
                0.0, 
                -0.0, 
                -4.371138828673793e-08
            ]
        }
    ], 
    "samplers" : [
        {}
    ], 
    "scene" : 0, 
    "scenes" : [
        {
            "name" : "Scene", 
            "nodes" : [
                0
            ]
        }
    ], 
    "textures" : [
        {
            "sampler" : 0, 
            "source" : 0
        }, 
        {
            "sampler" : 0, 
            "source" : 1
        }
    ]
}
