{
    "accessors": {
        "accessor_buffer_Cube.054_0": {
            "bufferView": "bufferView_buffer_Cube.054_0",
            "byteOffset": 0,
            "byteStride": 12,
            "componentType": 5126,
            "count": 516,
            "max": [
                58.1715087890625,
                7.956043243408203,
                0.3204779624938965
            ],
            "min": [
                -57.73726272583008,
                -0.4176468849182129,
                -6.306408882141113
            ],
            "type": "VEC3"
        },
        "accessor_buffer_Cube.054_1": {
            "bufferView": "bufferView_buffer_Cube.054_0",
            "byteOffset": 6192,
            "byteStride": 12,
            "componentType": 5126,
            "count": 516,
            "max": [
                1.0,
                1.0,
                1.0
            ],
            "min": [
                -1.0,
                -1.0,
                -1.0
            ],
            "type": "VEC3"
        },
        "accessor_buffer_Cube.054_2": {
            "bufferView": "bufferView_buffer_Cube.054_0",
            "byteOffset": 12384,
            "byteStride": 8,
            "componentType": 5126,
            "count": 516,
            "max": [
                0.9946154952049255,
                1.0
            ],
            "min": [
                0.0,
                0.0071825385093688965
            ],
            "type": "VEC2"
        },
        "accessor_buffer_Cube.054_3": {
            "bufferView": "bufferView_buffer_Cube.054_1",
            "byteOffset": 0,
            "byteStride": 2,
            "componentType": 5123,
            "count": 792,
            "max": [
                515
            ],
            "min": [
                0
            ],
            "type": "SCALAR"
        },
        "accessor_buffer_Cube.054_4": {
            "bufferView": "bufferView_buffer_Cube.054_2",
            "byteOffset": 0,
            "byteStride": 2,
            "componentType": 5123,
            "count": 36,
            "max": [
                497
            ],
            "min": [
                67
            ],
            "type": "SCALAR"
        }
    },
    "asset": {
        "profile": {
            "api": "WebGL",
            "version": "1.0.3"
        },
        "version": "1.0"
    },
    "bufferViews": {
        "bufferView_buffer_Cube.054_0": {
            "buffer": "buffer_combined",
            "byteLength": 16512,
            "byteOffset": 0,
            "target": 34962
        },
        "bufferView_buffer_Cube.054_1": {
            "buffer": "buffer_combined",
            "byteLength": 1584,
            "byteOffset": 16512,
            "target": 34963
        },
        "bufferView_buffer_Cube.054_2": {
            "buffer": "buffer_combined",
            "byteLength": 72,
            "byteOffset": 18096,
            "target": 34963
        }
    },
    "buffers": {
        "buffer_combined": {
            "byteLength": 18168,
            "type": "arraybuffer",
            "uri": "data:text/plain;base64,"
        }
    },
    "extensions": {
        "KHR_materials_common": {
            "lights": {}
        }
    },
    "extensionsUsed": [
        "KHR_materials_common"
    ],
    "images": {
        "image_CarpetLaneDivider": {
            "uri": "CarpetLaneDivider.png"
        }
    },
    "materials": {
        "material_CarpetDividerCube": {
            "extensions": {
                "KHR_materials_common": {
                    "technique": "PHONG",
                    "values": {
                        "ambient": [
                            1.0,
                            1.0,
                            1.0,
                            1.0
                        ],
                        "diffuse": "texture_CarpetLaneDivider",
                        "doubleSided": false,
                        "emission": [
                            0.0,
                            0.0,
                            0.0,
                            1.0
                        ],
                        "shininess": 50,
                        "specular": [
                            0.5,
                            0.5,
                            0.5,
                            1.0
                        ],
                        "transparency": 1.0,
                        "transparent": false
                    }
                }
            },
            "name": "CarpetDividerCube"
        },
        "material_CarpetLaneDivider": {
            "extensions": {
                "KHR_materials_common": {
                    "technique": "PHONG",
                    "values": {
                        "ambient": [
                            1.0,
                            1.0,
                            1.0,
                            1.0
                        ],
                        "diffuse": "texture_CarpetLaneDivider",
                        "doubleSided": false,
                        "emission": [
                            0.0,
                            0.0,
                            0.0,
                            1.0
                        ],
                        "shininess": 50,
                        "specular": [
                            0.5,
                            0.5,
                            0.5,
                            1.0
                        ],
                        "transparency": 1.0,
                        "transparent": false
                    }
                }
            },
            "name": "CarpetLaneDivider"
        }
    },
    "meshes": {
        "mesh_Cube.054": {
            "name": "Cube.054",
            "primitives": [
                {
                    "attributes": {
                        "NORMAL": "accessor_buffer_Cube.054_1",
                        "POSITION": "accessor_buffer_Cube.054_0",
                        "TEXCOORD_0": "accessor_buffer_Cube.054_2"
                    },
                    "indices": "accessor_buffer_Cube.054_3",
                    "material": "material_CarpetLaneDivider",
                    "mode": 4
                },
                {
                    "attributes": {
                        "NORMAL": "accessor_buffer_Cube.054_1",
                        "POSITION": "accessor_buffer_Cube.054_0",
                        "TEXCOORD_0": "accessor_buffer_Cube.054_2"
                    },
                    "indices": "accessor_buffer_Cube.054_4",
                    "material": "material_CarpetDividerCube",
                    "mode": 4
                }
            ]
        }
    },
    "nodes": {
        "node_Cube.031": {
            "children": [],
            "matrix": [
                0.36152398586273193,
                0.0,
                0.0,
                0.0,
                0.0,
                0.36152398586273193,
                0.0,
                0.0,
                0.0,
                0.0,
                0.36152398586273193,
                0.0,
                -0.07849586009979248,
                12.137641906738281,
                -0.001392364501953125,
                1.0
            ],
            "meshes": [
                "mesh_Cube.054"
            ],
            "name": "Cube.031"
        },
        "node_scene_Scene_root": {
            "children": [
                "node_Cube.031"
            ],
            "matrix": [
                1.0,
                0.0,
                0.0,
                0.0,
                0.0,
                0.0,
                -1.0,
                0.0,
                0.0,
                1.0,
                0.0,
                0.0,
                0.0,
                0.0,
                0.0,
                1.0
            ],
            "name": "node_scene_Scene_root"
        }
    },
    "samplers": {
        "sampler_default": {}
    },
    "scene": "scene_Scene",
    "scenes": {
        "scene_Scene": {
            "extras": {
                "active_camera": null,
                "background_color": [
                    0.06071869283914566,
                    0.06071869283914566,
                    0.06071869283914566
                ],
                "frames_per_second": 24
            },
            "name": "Scene",
            "nodes": [
                "node_scene_Scene_root"
            ]
        }
    },
    "textures": {
        "texture_CarpetLaneDivider": {
            "format": 6408,
            "internalFormat": 6408,
            "sampler": "sampler_default",
            "source": "image_CarpetLaneDivider"
        }
    }
}
