{
    "accessors" : [
        {
            "bufferView" : 0, 
            "componentType" : 5121, 
            "count" : 372, 
            "max" : [
                191
            ], 
            "min" : [
                0
            ], 
            "type" : "SCALAR"
        }, 
        {
            "bufferView" : 1, 
            "componentType" : 5126, 
            "count" : 192, 
            "max" : [
                1.0, 
                1.0, 
                1.0
            ], 
            "min" : [
                -1.0, 
                -1.0, 
                -1.0
            ], 
            "type" : "VEC3"
        }, 
        {
            "bufferView" : 2, 
            "componentType" : 5126, 
            "count" : 192, 
            "max" : [
                0.9951847195625305, 
                1.0, 
                0.9951847195625305
            ], 
            "min" : [
                -0.9951847791671753, 
                -1.0, 
                -0.9951847791671753
            ], 
            "type" : "VEC3"
        }, 
        {
            "bufferView" : 3, 
            "componentType" : 5126, 
            "count" : 192, 
            "max" : [
                0.993982195854187, 
                0.9951304541900754
            ], 
            "min" : [
                0.006017838604748249, 
                0.004869520664215088
            ], 
            "type" : "VEC2"
        }, 
        {
            "bufferView" : 4, 
            "componentType" : 5121, 
            "count" : 24, 
            "max" : [
                15
            ], 
            "min" : [
                0
            ], 
            "type" : "SCALAR"
        }, 
        {
            "bufferView" : 5, 
            "componentType" : 5126, 
            "count" : 16, 
            "max" : [
                -1.0, 
                1.0, 
                1.0
            ], 
            "min" : [
                -3.0, 
                -1.0, 
                -1.0
            ], 
            "type" : "VEC3"
        }, 
        {
            "bufferView" : 6, 
            "componentType" : 5126, 
            "count" : 16, 
            "max" : [
                0.0, 
                1.0, 
                1.0
            ], 
            "min" : [
                0.0, 
                -1.0, 
                -1.0
            ], 
            "type" : "VEC3"
        }, 
        {
            "bufferView" : 7, 
            "componentType" : 5126, 
            "count" : 16, 
            "max" : [
                0.9490806460380554, 
                0.9966996698640287
            ], 
            "min" : [
                0.0033003301359713078, 
                0.05091935396194458
            ], 
            "type" : "VEC2"
        }, 
        {
            "bufferView" : 8, 
            "componentType" : 5121, 
            "count" : 210, 
            "max" : [
                135
            ], 
            "min" : [
                0
            ], 
            "type" : "SCALAR"
        }, 
        {
            "bufferView" : 9, 
            "componentType" : 5126, 
            "count" : 136, 
            "max" : [
                1.0000076293945312, 
                1.100000023841858, 
                1.0333337783813477
            ], 
            "min" : [
                -3.0000009536743164, 
                -1.1000001430511475, 
                -1.0333333015441895
            ], 
            "type" : "VEC3"
        }, 
        {
            "bufferView" : 10, 
            "componentType" : 5126, 
            "count" : 136, 
            "max" : [
                1.0, 
                1.0, 
                1.0
            ], 
            "min" : [
                -1.0, 
                -1.0, 
                -1.0
            ], 
            "type" : "VEC3"
        }, 
        {
            "bufferView" : 11, 
            "componentType" : 5126, 
            "count" : 136, 
            "max" : [
                0.9966996908187866, 
                0.9966996698640287
            ], 
            "min" : [
                0.0033003301359713078, 
                0.003300309181213379
            ], 
            "type" : "VEC2"
        }, 
        {
            "bufferView" : 12, 
            "componentType" : 5121, 
            "count" : 42, 
            "max" : [
                27
            ], 
            "min" : [
                0
            ], 
            "type" : "SCALAR"
        }, 
        {
            "bufferView" : 13, 
            "componentType" : 5126, 
            "count" : 28, 
            "max" : [
                25.11794662475586, 
                1.0, 
                1.0000009536743164
            ], 
            "min" : [
                -3.0000009536743164, 
                -2.922851085662842, 
                -1.0
            ], 
            "type" : "VEC3"
        }, 
        {
            "bufferView" : 14, 
            "componentType" : 5126, 
            "count" : 28, 
            "max" : [
                1.0, 
                0.9974024891853333, 
                1.0
            ], 
            "min" : [
                -1.0, 
                -0.9993876814842224, 
                -1.0
            ], 
            "type" : "VEC3"
        }, 
        {
            "bufferView" : 15, 
            "componentType" : 5126, 
            "count" : 28, 
            "max" : [
                0.9728901386260986, 
                0.9966996698640287
            ], 
            "min" : [
                0.0033003301359713078, 
                0.05091935396194458
            ], 
            "type" : "VEC2"
        }, 
        {
            "bufferView" : 16, 
            "componentType" : 5121, 
            "count" : 372, 
            "max" : [
                191
            ], 
            "min" : [
                0
            ], 
            "type" : "SCALAR"
        }, 
        {
            "bufferView" : 17, 
            "componentType" : 5126, 
            "count" : 192, 
            "max" : [
                1.0, 
                1.0, 
                1.0
            ], 
            "min" : [
                -1.0, 
                -1.0, 
                -1.0
            ], 
            "type" : "VEC3"
        }, 
        {
            "bufferView" : 18, 
            "componentType" : 5126, 
            "count" : 192, 
            "max" : [
                0.9951847195625305, 
                1.0, 
                0.9951847195625305
            ], 
            "min" : [
                -0.9951847791671753, 
                -1.0, 
                -0.9951847791671753
            ], 
            "type" : "VEC3"
        }, 
        {
            "bufferView" : 19, 
            "componentType" : 5126, 
            "count" : 192, 
            "max" : [
                0.993982195854187, 
                0.9951304541900754
            ], 
            "min" : [
                0.006017838604748249, 
                0.004869520664215088
            ], 
            "type" : "VEC2"
        }, 
        {
            "bufferView" : 20, 
            "componentType" : 5121, 
            "count" : 372, 
            "max" : [
                191
            ], 
            "min" : [
                0
            ], 
            "type" : "SCALAR"
        }, 
        {
            "bufferView" : 21, 
            "componentType" : 5126, 
            "count" : 192, 
            "max" : [
                1.0, 
                1.0, 
                1.0
            ], 
            "min" : [
                -1.0, 
                -1.0, 
                -1.0
            ], 
            "type" : "VEC3"
        }, 
        {
            "bufferView" : 22, 
            "componentType" : 5126, 
            "count" : 192, 
            "max" : [
                0.9951847195625305, 
                1.0, 
                0.9951847195625305
            ], 
            "min" : [
                -0.9951847791671753, 
                -1.0, 
                -0.9951847791671753
            ], 
            "type" : "VEC3"
        }, 
        {
            "bufferView" : 23, 
            "componentType" : 5126, 
            "count" : 192, 
            "max" : [
                0.993982195854187, 
                0.9951304541900754
            ], 
            "min" : [
                0.006017838604748249, 
                0.004869520664215088
            ], 
            "type" : "VEC2"
        }
    ], 
    "asset" : {
        "generator" : "Khronos Blender glTF 2.0 exporter", 
        "version" : "2.0"
    }, 
    "bufferViews" : [
        {
            "buffer" : 0, 
            "byteLength" : 372, 
            "byteOffset" : 0, 
            "target" : 34963
        }, 
        {
            "buffer" : 0, 
            "byteLength" : 2304, 
            "byteOffset" : 372, 
            "target" : 34962
        }, 
        {
            "buffer" : 0, 
            "byteLength" : 2304, 
            "byteOffset" : 2676, 
            "target" : 34962
        }, 
        {
            "buffer" : 0, 
            "byteLength" : 1536, 
            "byteOffset" : 4980, 
            "target" : 34962
        }, 
        {
            "buffer" : 0, 
            "byteLength" : 24, 
            "byteOffset" : 6516, 
            "target" : 34963
        }, 
        {
            "buffer" : 0, 
            "byteLength" : 192, 
            "byteOffset" : 6540, 
            "target" : 34962
        }, 
        {
            "buffer" : 0, 
            "byteLength" : 192, 
            "byteOffset" : 6732, 
            "target" : 34962
        }, 
        {
            "buffer" : 0, 
            "byteLength" : 128, 
            "byteOffset" : 6924, 
            "target" : 34962
        }, 
        {
            "buffer" : 0, 
            "byteLength" : 210, 
            "byteOffset" : 7052, 
            "target" : 34963
        }, 
        {
            "buffer" : 0, 
            "byteLength" : 1632, 
            "byteOffset" : 7264, 
            "target" : 34962
        }, 
        {
            "buffer" : 0, 
            "byteLength" : 1632, 
            "byteOffset" : 8896, 
            "target" : 34962
        }, 
        {
            "buffer" : 0, 
            "byteLength" : 1088, 
            "byteOffset" : 10528, 
            "target" : 34962
        }, 
        {
            "buffer" : 0, 
            "byteLength" : 42, 
            "byteOffset" : 11616, 
            "target" : 34963
        }, 
        {
            "buffer" : 0, 
            "byteLength" : 336, 
            "byteOffset" : 11660, 
            "target" : 34962
        }, 
        {
            "buffer" : 0, 
            "byteLength" : 336, 
            "byteOffset" : 11996, 
            "target" : 34962
        }, 
        {
            "buffer" : 0, 
            "byteLength" : 224, 
            "byteOffset" : 12332, 
            "target" : 34962
        }, 
        {
            "buffer" : 0, 
            "byteLength" : 372, 
            "byteOffset" : 12556, 
            "target" : 34963
        }, 
        {
            "buffer" : 0, 
            "byteLength" : 2304, 
            "byteOffset" : 12928, 
            "target" : 34962
        }, 
        {
            "buffer" : 0, 
            "byteLength" : 2304, 
            "byteOffset" : 15232, 
            "target" : 34962
        }, 
        {
            "buffer" : 0, 
            "byteLength" : 1536, 
            "byteOffset" : 17536, 
            "target" : 34962
        }, 
        {
            "buffer" : 0, 
            "byteLength" : 372, 
            "byteOffset" : 19072, 
            "target" : 34963
        }, 
        {
            "buffer" : 0, 
            "byteLength" : 2304, 
            "byteOffset" : 19444, 
            "target" : 34962
        }, 
        {
            "buffer" : 0, 
            "byteLength" : 2304, 
            "byteOffset" : 21748, 
            "target" : 34962
        }, 
        {
            "buffer" : 0, 
            "byteLength" : 1536, 
            "byteOffset" : 24052, 
            "target" : 34962
        }
    ], 
    "buffers" : [
        {
            "byteLength" : 25588, 
            "uri" : "data:application/octet-stream;base64,"
        }
    ], 
    "images" : [
        {
            "uri" : "ButtonDark.png"
        }, 
        {
            "uri" : "ButtonSmall.png"
        }, 
        {
            "uri" : "Console.png"
        }
    ], 
    "materials" : [
        {
            "name" : "ButtonDark", 
            "pbrMetallicRoughness" : {
                "baseColorFactor" : [
                    0.800000011920929, 
                    0.800000011920929, 
                    0.800000011920929, 
                    1.0
                ], 
                "baseColorTexture" : {
                    "index" : 0
                }, 
                "metallicFactor" : 0.0
            }
        }, 
        {
            "name" : "ButtonSmall", 
            "pbrMetallicRoughness" : {
                "baseColorFactor" : [
                    0.800000011920929, 
                    0.800000011920929, 
                    0.800000011920929, 
                    1.0
                ], 
                "baseColorTexture" : {
                    "index" : 1
                }, 
                "metallicFactor" : 0.0
            }
        }, 
        {
            "name" : "ConsoleEdge", 
            "pbrMetallicRoughness" : {
                "baseColorFactor" : [
                    0.800000011920929, 
                    0.800000011920929, 
                    0.800000011920929, 
                    1.0
                ], 
                "baseColorTexture" : {
                    "index" : 2
                }, 
                "metallicFactor" : 0.0
            }
        }, 
        {
            "name" : "ConsoleGlow", 
            "pbrMetallicRoughness" : {
                "baseColorFactor" : [
                    0.800000011920929, 
                    0.800000011920929, 
                    0.800000011920929, 
                    1.0
                ], 
                "baseColorTexture" : {
                    "index" : 2
                }, 
                "metallicFactor" : 0.0
            }
        }, 
        {
            "name" : "ConsolePlate", 
            "pbrMetallicRoughness" : {
                "baseColorFactor" : [
                    0.800000011920929, 
                    0.800000011920929, 
                    0.800000011920929, 
                    1.0
                ], 
                "baseColorTexture" : {
                    "index" : 2
                }, 
                "metallicFactor" : 0.0
            }
        }
    ], 
    "meshes" : [
        {
            "name" : "Cylinder", 
            "primitives" : [
                {
                    "attributes" : {
                        "NORMAL" : 2, 
                        "POSITION" : 1, 
                        "TEXCOORD_0" : 3
                    }, 
                    "indices" : 0, 
                    "material" : 1
                }
            ]
        }, 
        {
            "name" : "Cube.010", 
            "primitives" : [
                {
                    "attributes" : {
                        "NORMAL" : 6, 
                        "POSITION" : 5, 
                        "TEXCOORD_0" : 7
                    }, 
                    "indices" : 4, 
                    "material" : 3
                }, 
                {
                    "attributes" : {
                        "NORMAL" : 10, 
                        "POSITION" : 9, 
                        "TEXCOORD_0" : 11
                    }, 
                    "indices" : 8, 
                    "material" : 2
                }, 
                {
                    "attributes" : {
                        "NORMAL" : 14, 
                        "POSITION" : 13, 
                        "TEXCOORD_0" : 15
                    }, 
                    "indices" : 12, 
                    "material" : 4
                }
            ]
        }, 
        {
            "name" : "Cylinder.004", 
            "primitives" : [
                {
                    "attributes" : {
                        "NORMAL" : 18, 
                        "POSITION" : 17, 
                        "TEXCOORD_0" : 19
                    }, 
                    "indices" : 16, 
                    "material" : 1
                }
            ]
        }, 
        {
            "name" : "Cylinder.010", 
            "primitives" : [
                {
                    "attributes" : {
                        "NORMAL" : 22, 
                        "POSITION" : 21, 
                        "TEXCOORD_0" : 23
                    }, 
                    "indices" : 20, 
                    "material" : 0
                }
            ]
        }
    ], 
    "nodes" : [
        {
            "mesh" : 1, 
            "name" : "Cube.006", 
            "rotation" : [
                0.0, 
                0.0, 
                -0.30070579051971436, 
                0.9537169933319092
            ], 
            "scale" : [
                0.02500000037252903, 
                0.5, 
                1.5
            ], 
            "translation" : [
                2.0, 
                1.0, 
                -14.25
            ]
        }, 
        {
            "mesh" : 2, 
            "name" : "EasyButton", 
            "rotation" : [
                0.0, 
                0.0, 
                0.4617486894130707, 
                0.887010931968689
            ], 
            "scale" : [
                0.10000000149011612, 
                0.05000000074505806, 
                0.10000000149011612
            ], 
            "translation" : [
                2.0478103160858154, 
                1.1815099716186523, 
                -14.5
            ]
        }, 
        {
            "mesh" : 0, 
            "name" : "JoinButton", 
            "rotation" : [
                0.0, 
                0.0, 
                0.4617486894130707, 
                0.887010931968689
            ], 
            "scale" : [
                0.10000000149011612, 
                0.05000000074505806, 
                0.10000000149011612
            ], 
            "translation" : [
                2.0478103160858154, 
                1.1815099716186523, 
                -15.25
            ]
        }, 
        {
            "mesh" : 3, 
            "name" : "StartButton", 
            "rotation" : [
                0.0, 
                0.0, 
                0.4617486894130707, 
                0.887010931968689
            ], 
            "scale" : [
                0.20000000298023224, 
                0.10000000149011612, 
                0.20000000298023224
            ], 
            "translation" : [
                1.959977149963379, 
                1.1410800218582153, 
                -13.25
            ]
        }
    ], 
    "samplers" : [
        {}
    ], 
    "scene" : 0, 
    "scenes" : [
        {
            "name" : "Scene", 
            "nodes" : [
                3, 
                1, 
                2, 
                0
            ]
        }
    ], 
    "textures" : [
        {
            "sampler" : 0, 
            "source" : 0
        }, 
        {
            "sampler" : 0, 
            "source" : 1
        }, 
        {
            "sampler" : 0, 
            "source" : 2
        }
    ]
}
