{
    "accessors": {
        "accessor_buffer_Cylinder.000_0": {
            "bufferView": "bufferView_buffer_Cylinder.000_0",
            "byteOffset": 0,
            "byteStride": 12,
            "componentType": 5126,
            "count": 456,
            "max": [
                7.005949974060059,
                0.06464001536369324,
                5.416667938232422
            ],
            "min": [
                -7.005949974060059,
                -2.1400113105773926,
                -5.0
            ],
            "type": "VEC3"
        },
        "accessor_buffer_Cylinder.000_1": {
            "bufferView": "bufferView_buffer_Cylinder.000_0",
            "byteOffset": 5472,
            "byteStride": 12,
            "componentType": 5126,
            "count": 456,
            "max": [
                1.0,
                1.0,
                1.0
            ],
            "min": [
                -1.0,
                -1.0,
                -1.0
            ],
            "type": "VEC3"
        },
        "accessor_buffer_Cylinder.000_2": {
            "bufferView": "bufferView_buffer_Cylinder.000_0",
            "byteOffset": 10944,
            "byteStride": 8,
            "componentType": 5126,
            "count": 456,
            "max": [
                0.998526930809021,
                0.99854011379648
            ],
            "min": [
                0.0014731097035109997,
                0.001459956169128418
            ],
            "type": "VEC2"
        },
        "accessor_buffer_Cylinder.000_3": {
            "bufferView": "bufferView_buffer_Cylinder.000_1",
            "byteOffset": 0,
            "byteStride": 2,
            "componentType": 5123,
            "count": 756,
            "max": [
                455
            ],
            "min": [
                0
            ],
            "type": "SCALAR"
        }
    },
    "asset": {
        "profile": {
            "api": "WebGL",
            "version": "1.0.3"
        },
        "version": "1.0"
    },
    "bufferViews": {
        "bufferView_buffer_Cylinder.000_0": {
            "buffer": "buffer_combined",
            "byteLength": 14592,
            "byteOffset": 0,
            "target": 34962
        },
        "bufferView_buffer_Cylinder.000_1": {
            "buffer": "buffer_combined",
            "byteLength": 1512,
            "byteOffset": 14592,
            "target": 34963
        }
    },
    "buffers": {
        "buffer_combined": {
            "byteLength": 16104,
            "type": "arraybuffer",
            "uri": "data:text/plain;base64,"
        }
    },
    "extensions": {
        "KHR_materials_common": {
            "lights": {}
        }
    },
    "extensionsUsed": [
        "KHR_materials_common"
    ],
    "images": {
        "image_Gutters": {
            "uri": "Gutters.png"
        }
    },
    "materials": {
        "material_Gutters": {
            "extensions": {
                "KHR_materials_common": {
                    "technique": "PHONG",
                    "values": {
                        "ambient": [
                            1.0,
                            1.0,
                            1.0,
                            1.0
                        ],
                        "diffuse": "texture_Gutters",
                        "doubleSided": false,
                        "emission": [
                            0.0,
                            0.0,
                            0.0,
                            1.0
                        ],
                        "shininess": 50,
                        "specular": [
                            0.5,
                            0.5,
                            0.5,
                            1.0
                        ],
                        "transparency": 1.0,
                        "transparent": false
                    }
                }
            },
            "name": "Gutters"
        }
    },
    "meshes": {
        "mesh_Cylinder.000": {
            "name": "Cylinder.000",
            "primitives": [
                {
                    "attributes": {
                        "NORMAL": "accessor_buffer_Cylinder.000_1",
                        "POSITION": "accessor_buffer_Cylinder.000_0",
                        "TEXCOORD_0": "accessor_buffer_Cylinder.000_2"
                    },
                    "indices": "accessor_buffer_Cylinder.000_3",
                    "material": "material_Gutters",
                    "mode": 4
                }
            ]
        }
    },
    "nodes": {
        "node_Gutters.001": {
            "children": [],
            "matrix": [
                0.24978768825531006,
                0.0,
                0.0,
                0.0,
                0.0,
                -1.0927847071684482e-08,
                0.25,
                0.0,
                0.0,
                -2.4000000953674316,
                -1.0490733615142744e-07,
                0.0,
                0.0,
                0.0,
                0.08383999764919281,
                1.0
            ],
            "meshes": [
                "mesh_Cylinder.000"
            ],
            "name": "Gutters.001"
        },
        "node_scene_Scene_root": {
            "children": [
                "node_Gutters.001"
            ],
            "matrix": [
                1.0,
                0.0,
                0.0,
                0.0,
                0.0,
                0.0,
                -1.0,
                0.0,
                0.0,
                1.0,
                0.0,
                0.0,
                0.0,
                0.0,
                0.0,
                1.0
            ],
            "name": "node_scene_Scene_root"
        }
    },
    "samplers": {
        "sampler_default": {}
    },
    "scene": "scene_Scene",
    "scenes": {
        "scene_Scene": {
            "extras": {
                "active_camera": null,
                "background_color": [
                    0.06071869283914566,
                    0.06071869283914566,
                    0.06071869283914566
                ],
                "frames_per_second": 24
            },
            "name": "Scene",
            "nodes": [
                "node_scene_Scene_root"
            ]
        }
    },
    "textures": {
        "texture_Gutters": {
            "format": 6408,
            "internalFormat": 6408,
            "sampler": "sampler_default",
            "source": "image_Gutters"
        }
    }
}
