{
    "accessors": {
        "accessor_buffer_Plane.003_0": {
            "bufferView": "bufferView_buffer_Plane.003_0",
            "byteOffset": 0,
            "byteStride": 12,
            "componentType": 5126,
            "count": 246,
            "max": [
                1.3998032808303833,
                1.0000001192092896,
                0.06615863740444183
            ],
            "min": [
                -1.3998032808303833,
                -1.000000238418579,
                -0.535003125667572
            ],
            "type": "VEC3"
        },
        "accessor_buffer_Plane.003_1": {
            "bufferView": "bufferView_buffer_Plane.003_0",
            "byteOffset": 2952,
            "byteStride": 12,
            "componentType": 5126,
            "count": 246,
            "max": [
                1.0,
                1.0,
                1.0
            ],
            "min": [
                -1.0,
                -1.0,
                -1.0
            ],
            "type": "VEC3"
        },
        "accessor_buffer_Plane.003_2": {
            "bufferView": "bufferView_buffer_Plane.003_0",
            "byteOffset": 5904,
            "byteStride": 8,
            "componentType": 5126,
            "count": 246,
            "max": [
                0.9985071420669556,
                0.997604722622782
            ],
            "min": [
                0.0014928706223145127,
                0.002395331859588623
            ],
            "type": "VEC2"
        },
        "accessor_buffer_Plane.003_3": {
            "bufferView": "bufferView_buffer_Plane.003_1",
            "byteOffset": 0,
            "byteStride": 2,
            "componentType": 5123,
            "count": 408,
            "max": [
                245
            ],
            "min": [
                0
            ],
            "type": "SCALAR"
        }
    },
    "asset": {
        "profile": {
            "api": "WebGL",
            "version": "1.0.3"
        },
        "version": "1.0"
    },
    "bufferViews": {
        "bufferView_buffer_Plane.003_0": {
            "buffer": "buffer_combined",
            "byteLength": 7872,
            "byteOffset": 0,
            "target": 34962
        },
        "bufferView_buffer_Plane.003_1": {
            "buffer": "buffer_combined",
            "byteLength": 816,
            "byteOffset": 7872,
            "target": 34963
        }
    },
    "buffers": {
        "buffer_combined": {
            "byteLength": 8688,
            "type": "arraybuffer",
            "uri": "data:text/plain;base64,"
        }
    },
    "extensions": {
        "KHR_materials_common": {
            "lights": {}
        }
    },
    "extensionsUsed": [
        "KHR_materials_common"
    ],
    "images": {
        "image_Gutters": {
            "uri": "Gutters.png"
        }
    },
    "materials": {
        "material_Gutters": {
            "extensions": {
                "KHR_materials_common": {
                    "technique": "PHONG",
                    "values": {
                        "ambient": [
                            1.0,
                            1.0,
                            1.0,
                            1.0
                        ],
                        "diffuse": "texture_Gutters",
                        "doubleSided": false,
                        "emission": [
                            0.0,
                            0.0,
                            0.0,
                            1.0
                        ],
                        "shininess": 50,
                        "specular": [
                            0.5,
                            0.5,
                            0.5,
                            1.0
                        ],
                        "transparency": 1.0,
                        "transparent": false
                    }
                }
            },
            "name": "Gutters"
        }
    },
    "meshes": {
        "mesh_Plane.003": {
            "name": "Plane.003",
            "primitives": [
                {
                    "attributes": {
                        "NORMAL": "accessor_buffer_Plane.003_1",
                        "POSITION": "accessor_buffer_Plane.003_0",
                        "TEXCOORD_0": "accessor_buffer_Plane.003_2"
                    },
                    "indices": "accessor_buffer_Plane.003_3",
                    "material": "material_Gutters",
                    "mode": 4
                }
            ]
        }
    },
    "nodes": {
        "node_GutterWallsAlone.005": {
            "children": [],
            "matrix": [
                1.2499768733978271,
                0.0,
                0.0,
                0.0,
                0.0,
                12.0,
                0.0,
                0.0,
                0.0,
                0.0,
                1.0,
                0.0,
                0.0,
                6.614192216147785e-07,
                0.08383999764919281,
                1.0
            ],
            "meshes": [
                "mesh_Plane.003"
            ],
            "name": "GutterWallsAlone.005"
        },
        "node_scene_Scene_root": {
            "children": [
                "node_GutterWallsAlone.005"
            ],
            "matrix": [
                1.0,
                0.0,
                0.0,
                0.0,
                0.0,
                0.0,
                -1.0,
                0.0,
                0.0,
                1.0,
                0.0,
                0.0,
                0.0,
                0.0,
                0.0,
                1.0
            ],
            "name": "node_scene_Scene_root"
        }
    },
    "samplers": {
        "sampler_default": {}
    },
    "scene": "scene_Scene",
    "scenes": {
        "scene_Scene": {
            "extras": {
                "active_camera": null,
                "background_color": [
                    0.06071869283914566,
                    0.06071869283914566,
                    0.06071869283914566
                ],
                "frames_per_second": 24
            },
            "name": "Scene",
            "nodes": [
                "node_scene_Scene_root"
            ]
        }
    },
    "textures": {
        "texture_Gutters": {
            "format": 6408,
            "internalFormat": 6408,
            "sampler": "sampler_default",
            "source": "image_Gutters"
        }
    }
}
