{
    "accessors": {
        "accessor_buffer_Plane.009_0": {
            "bufferView": "bufferView_buffer_Plane.009_0",
            "byteOffset": 0,
            "byteStride": 12,
            "componentType": 5126,
            "count": 405,
            "max": [
                2.151670217514038,
                1.0210679769515991,
                1.916160225868225
            ],
            "min": [
                -2.151670217514038,
                -1.1666672229766846,
                -0.008521676063537598
            ],
            "type": "VEC3"
        },
        "accessor_buffer_Plane.009_1": {
            "bufferView": "bufferView_buffer_Plane.009_0",
            "byteOffset": 4860,
            "byteStride": 12,
            "componentType": 5126,
            "count": 405,
            "max": [
                1.0,
                1.0,
                1.0
            ],
            "min": [
                -1.0,
                -1.0,
                -1.0
            ],
            "type": "VEC3"
        },
        "accessor_buffer_Plane.009_2": {
            "bufferView": "bufferView_buffer_Plane.009_0",
            "byteOffset": 9720,
            "byteStride": 8,
            "componentType": 5126,
            "count": 405,
            "max": [
                0.9957643151283264,
                0.9960397980175912
            ],
            "min": [
                0.00423565786331892,
                0.0039601922035217285
            ],
            "type": "VEC2"
        },
        "accessor_buffer_Plane.009_3": {
            "bufferView": "bufferView_buffer_Plane.009_1",
            "byteOffset": 0,
            "byteStride": 2,
            "componentType": 5123,
            "count": 108,
            "max": [
                394
            ],
            "min": [
                1
            ],
            "type": "SCALAR"
        },
        "accessor_buffer_Plane.009_4": {
            "bufferView": "bufferView_buffer_Plane.009_2",
            "byteOffset": 0,
            "byteStride": 2,
            "componentType": 5123,
            "count": 6,
            "max": [
                321
            ],
            "min": [
                9
            ],
            "type": "SCALAR"
        },
        "accessor_buffer_Plane.009_5": {
            "bufferView": "bufferView_buffer_Plane.009_3",
            "byteOffset": 0,
            "byteStride": 2,
            "componentType": 5123,
            "count": 525,
            "max": [
                404
            ],
            "min": [
                0
            ],
            "type": "SCALAR"
        }
    },
    "asset": {
        "profile": {
            "api": "WebGL",
            "version": "1.0.3"
        },
        "version": "1.0"
    },
    "bufferViews": {
        "bufferView_buffer_Plane.009_0": {
            "buffer": "buffer_combined",
            "byteLength": 12960,
            "byteOffset": 0,
            "target": 34962
        },
        "bufferView_buffer_Plane.009_1": {
            "buffer": "buffer_combined",
            "byteLength": 216,
            "byteOffset": 12960,
            "target": 34963
        },
        "bufferView_buffer_Plane.009_2": {
            "buffer": "buffer_combined",
            "byteLength": 12,
            "byteOffset": 13176,
            "target": 34963
        },
        "bufferView_buffer_Plane.009_3": {
            "buffer": "buffer_combined",
            "byteLength": 1050,
            "byteOffset": 13188,
            "target": 34963
        }
    },
    "buffers": {
        "buffer_combined": {
            "byteLength": 14238,
            "type": "arraybuffer",
            "uri": "data:text/plain;base64,"
        }
    },
    "extensions": {
        "KHR_materials_common": {
            "lights": {}
        }
    },
    "extensionsUsed": [
        "KHR_materials_common"
    ],
    "images": {
        "image_GutterWalls": {
            "uri": "GutterWalls.png"
        },
        "image_Runway": {
            "uri": "Runway.png"
        }
    },
    "materials": {
        "material_GutterWallBlack": {
            "extensions": {
                "KHR_materials_common": {
                    "technique": "PHONG",
                    "values": {
                        "ambient": [
                            1.0,
                            1.0,
                            1.0,
                            1.0
                        ],
                        "diffuse": "texture_GutterWalls",
                        "doubleSided": false,
                        "emission": [
                            0.0,
                            0.0,
                            0.0,
                            1.0
                        ],
                        "shininess": 50,
                        "specular": [
                            0.5,
                            0.5,
                            0.5,
                            1.0
                        ],
                        "transparency": 1.0,
                        "transparent": false
                    }
                }
            },
            "name": "GutterWallBlack"
        },
        "material_GutterWallGlow": {
            "extensions": {
                "KHR_materials_common": {
                    "technique": "PHONG",
                    "values": {
                        "ambient": [
                            1.0,
                            1.0,
                            1.0,
                            1.0
                        ],
                        "diffuse": "texture_GutterWalls",
                        "doubleSided": false,
                        "emission": [
                            0.0,
                            0.0,
                            0.0,
                            1.0
                        ],
                        "shininess": 50,
                        "specular": [
                            0.5,
                            0.5,
                            0.5,
                            1.0
                        ],
                        "transparency": 1.0,
                        "transparent": false
                    }
                }
            },
            "name": "GutterWallGlow"
        },
        "material_WoodLane": {
            "extensions": {
                "KHR_materials_common": {
                    "technique": "PHONG",
                    "values": {
                        "ambient": [
                            1.0,
                            1.0,
                            1.0,
                            1.0
                        ],
                        "diffuse": "texture_Runway",
                        "doubleSided": false,
                        "emission": [
                            0.0,
                            0.0,
                            0.0,
                            1.0
                        ],
                        "shininess": 50,
                        "specular": [
                            0.5,
                            0.5,
                            0.5,
                            1.0
                        ],
                        "transparency": 1.0,
                        "transparent": false
                    }
                }
            },
            "name": "WoodLane"
        }
    },
    "meshes": {
        "mesh_Plane.009": {
            "name": "Plane.009",
            "primitives": [
                {
                    "attributes": {
                        "NORMAL": "accessor_buffer_Plane.009_1",
                        "POSITION": "accessor_buffer_Plane.009_0",
                        "TEXCOORD_0": "accessor_buffer_Plane.009_2"
                    },
                    "indices": "accessor_buffer_Plane.009_3",
                    "material": "material_GutterWallGlow",
                    "mode": 4
                },
                {
                    "attributes": {
                        "NORMAL": "accessor_buffer_Plane.009_1",
                        "POSITION": "accessor_buffer_Plane.009_0",
                        "TEXCOORD_0": "accessor_buffer_Plane.009_2"
                    },
                    "indices": "accessor_buffer_Plane.009_4",
                    "material": "material_WoodLane",
                    "mode": 4
                },
                {
                    "attributes": {
                        "NORMAL": "accessor_buffer_Plane.009_1",
                        "POSITION": "accessor_buffer_Plane.009_0",
                        "TEXCOORD_0": "accessor_buffer_Plane.009_2"
                    },
                    "indices": "accessor_buffer_Plane.009_5",
                    "material": "material_GutterWallBlack",
                    "mode": 4
                }
            ]
        }
    },
    "nodes": {
        "node_Runway.001": {
            "children": [],
            "matrix": [
                1.25,
                0.0,
                0.0,
                0.0,
                0.0,
                12.0,
                0.0,
                0.0,
                0.0,
                0.0,
                1.0,
                0.0,
                0.0,
                0.0,
                0.08383999764919281,
                1.0
            ],
            "meshes": [
                "mesh_Plane.009"
            ],
            "name": "Runway.001"
        },
        "node_scene_Scene_root": {
            "children": [
                "node_Runway.001"
            ],
            "matrix": [
                1.0,
                0.0,
                0.0,
                0.0,
                0.0,
                0.0,
                -1.0,
                0.0,
                0.0,
                1.0,
                0.0,
                0.0,
                0.0,
                0.0,
                0.0,
                1.0
            ],
            "name": "node_scene_Scene_root"
        }
    },
    "samplers": {
        "sampler_default": {}
    },
    "scene": "scene_Scene",
    "scenes": {
        "scene_Scene": {
            "extras": {
                "active_camera": null,
                "background_color": [
                    0.06071869283914566,
                    0.06071869283914566,
                    0.06071869283914566
                ],
                "frames_per_second": 24
            },
            "name": "Scene",
            "nodes": [
                "node_scene_Scene_root"
            ]
        }
    },
    "textures": {
        "texture_GutterWalls": {
            "format": 6408,
            "internalFormat": 6408,
            "sampler": "sampler_default",
            "source": "image_GutterWalls"
        },
        "texture_Runway": {
            "format": 6408,
            "internalFormat": 6408,
            "sampler": "sampler_default",
            "source": "image_Runway"
        }
    }
}
