{
    "accessors": {
        "accessor_buffer_Plane.020_0": {
            "bufferView": "bufferView_buffer_Plane.020_0",
            "byteOffset": 0,
            "byteStride": 12,
            "componentType": 5126,
            "count": 633,
            "max": [
                3.1465094089508057,
                1.0218663215637207,
                7.272122383117676
            ],
            "min": [
                -3.1466171741485596,
                -1.165868878364563,
                -1.002039909362793
            ],
            "type": "VEC3"
        },
        "accessor_buffer_Plane.020_1": {
            "bufferView": "bufferView_buffer_Plane.020_0",
            "byteOffset": 7596,
            "byteStride": 12,
            "componentType": 5126,
            "count": 633,
            "max": [
                1.0,
                1.0,
                1.0
            ],
            "min": [
                -1.0,
                -1.0,
                -1.0
            ],
            "type": "VEC3"
        },
        "accessor_buffer_Plane.020_10": {
            "bufferView": "bufferView_buffer_Plane.020_8",
            "byteOffset": 0,
            "byteStride": 2,
            "componentType": 5123,
            "count": 12,
            "max": [
                523
            ],
            "min": [
                27
            ],
            "type": "SCALAR"
        },
        "accessor_buffer_Plane.020_2": {
            "bufferView": "bufferView_buffer_Plane.020_0",
            "byteOffset": 15192,
            "byteStride": 8,
            "componentType": 5126,
            "count": 633,
            "max": [
                0.9951295256614685,
                0.9953218577429652
            ],
            "min": [
                0.00487049063667655,
                0.004678189754486084
            ],
            "type": "VEC2"
        },
        "accessor_buffer_Plane.020_3": {
            "bufferView": "bufferView_buffer_Plane.020_1",
            "byteOffset": 0,
            "byteStride": 2,
            "componentType": 5123,
            "count": 228,
            "max": [
                629
            ],
            "min": [
                7
            ],
            "type": "SCALAR"
        },
        "accessor_buffer_Plane.020_4": {
            "bufferView": "bufferView_buffer_Plane.020_2",
            "byteOffset": 0,
            "byteStride": 2,
            "componentType": 5123,
            "count": 36,
            "max": [
                595
            ],
            "min": [
                16
            ],
            "type": "SCALAR"
        },
        "accessor_buffer_Plane.020_5": {
            "bufferView": "bufferView_buffer_Plane.020_3",
            "byteOffset": 0,
            "byteStride": 2,
            "componentType": 5123,
            "count": 6,
            "max": [
                617
            ],
            "min": [
                359
            ],
            "type": "SCALAR"
        },
        "accessor_buffer_Plane.020_6": {
            "bufferView": "bufferView_buffer_Plane.020_4",
            "byteOffset": 0,
            "byteStride": 2,
            "componentType": 5123,
            "count": 570,
            "max": [
                632
            ],
            "min": [
                1
            ],
            "type": "SCALAR"
        },
        "accessor_buffer_Plane.020_7": {
            "bufferView": "bufferView_buffer_Plane.020_5",
            "byteOffset": 0,
            "byteStride": 2,
            "componentType": 5123,
            "count": 114,
            "max": [
                604
            ],
            "min": [
                0
            ],
            "type": "SCALAR"
        },
        "accessor_buffer_Plane.020_8": {
            "bufferView": "bufferView_buffer_Plane.020_6",
            "byteOffset": 0,
            "byteStride": 2,
            "componentType": 5123,
            "count": 60,
            "max": [
                596
            ],
            "min": [
                3
            ],
            "type": "SCALAR"
        },
        "accessor_buffer_Plane.020_9": {
            "bufferView": "bufferView_buffer_Plane.020_7",
            "byteOffset": 0,
            "byteStride": 2,
            "componentType": 5123,
            "count": 18,
            "max": [
                621
            ],
            "min": [
                49
            ],
            "type": "SCALAR"
        }
    },
    "asset": {
        "profile": {
            "api": "WebGL",
            "version": "1.0.3"
        },
        "version": "1.0"
    },
    "bufferViews": {
        "bufferView_buffer_Plane.020_0": {
            "buffer": "buffer_combined",
            "byteLength": 20256,
            "byteOffset": 0,
            "target": 34962
        },
        "bufferView_buffer_Plane.020_1": {
            "buffer": "buffer_combined",
            "byteLength": 456,
            "byteOffset": 20256,
            "target": 34963
        },
        "bufferView_buffer_Plane.020_2": {
            "buffer": "buffer_combined",
            "byteLength": 72,
            "byteOffset": 20712,
            "target": 34963
        },
        "bufferView_buffer_Plane.020_3": {
            "buffer": "buffer_combined",
            "byteLength": 12,
            "byteOffset": 20784,
            "target": 34963
        },
        "bufferView_buffer_Plane.020_4": {
            "buffer": "buffer_combined",
            "byteLength": 1140,
            "byteOffset": 20796,
            "target": 34963
        },
        "bufferView_buffer_Plane.020_5": {
            "buffer": "buffer_combined",
            "byteLength": 228,
            "byteOffset": 21936,
            "target": 34963
        },
        "bufferView_buffer_Plane.020_6": {
            "buffer": "buffer_combined",
            "byteLength": 120,
            "byteOffset": 22164,
            "target": 34963
        },
        "bufferView_buffer_Plane.020_7": {
            "buffer": "buffer_combined",
            "byteLength": 36,
            "byteOffset": 22284,
            "target": 34963
        },
        "bufferView_buffer_Plane.020_8": {
            "buffer": "buffer_combined",
            "byteLength": 24,
            "byteOffset": 22320,
            "target": 34963
        }
    },
    "buffers": {
        "buffer_combined": {
            "byteLength": 22344,
            "type": "arraybuffer",
            "uri": "data:text/plain;base64,"
        }
    },
    "extensions": {
        "KHR_materials_common": {
            "lights": {}
        }
    },
    "extensionsUsed": [
        "KHR_materials_common"
    ],
    "images": {
        "image_AlleyCeiling": {
            "uri": "AlleyCeiling.png"
        },
        "image_AlleyHatch": {
            "uri": "AlleyHatch.png"
        },
        "image_GutterWalls": {
            "uri": "GutterWalls.png"
        },
        "image_Runway": {
            "uri": "Runway.png"
        },
        "image_ScoreboardBack": {
            "uri": "ScoreboardBack.png"
        }
    },
    "materials": {
        "material_AlleyCeiling": {
            "extensions": {
                "KHR_materials_common": {
                    "technique": "PHONG",
                    "values": {
                        "ambient": [
                            1.0,
                            1.0,
                            1.0,
                            1.0
                        ],
                        "diffuse": "texture_AlleyCeiling",
                        "doubleSided": false,
                        "emission": [
                            0.0,
                            0.0,
                            0.0,
                            1.0
                        ],
                        "shininess": 50,
                        "specular": [
                            0.5,
                            0.5,
                            0.5,
                            1.0
                        ],
                        "transparency": 1.0,
                        "transparent": false
                    }
                }
            },
            "name": "AlleyCeiling"
        },
        "material_AlleyHatch": {
            "extensions": {
                "KHR_materials_common": {
                    "technique": "PHONG",
                    "values": {
                        "ambient": [
                            1.0,
                            1.0,
                            1.0,
                            1.0
                        ],
                        "diffuse": "texture_AlleyHatch",
                        "doubleSided": false,
                        "emission": [
                            0.0,
                            0.0,
                            0.0,
                            1.0
                        ],
                        "shininess": 50,
                        "specular": [
                            0.5,
                            0.5,
                            0.5,
                            1.0
                        ],
                        "transparency": 1.0,
                        "transparent": false
                    }
                }
            },
            "name": "AlleyHatch"
        },
        "material_AlleyHatchBottom": {
            "extensions": {
                "KHR_materials_common": {
                    "technique": "PHONG",
                    "values": {
                        "ambient": [
                            1.0,
                            1.0,
                            1.0,
                            1.0
                        ],
                        "diffuse": "texture_AlleyHatch",
                        "doubleSided": false,
                        "emission": [
                            0.0,
                            0.0,
                            0.0,
                            1.0
                        ],
                        "shininess": 50,
                        "specular": [
                            0.5,
                            0.5,
                            0.5,
                            1.0
                        ],
                        "transparency": 1.0,
                        "transparent": false
                    }
                }
            },
            "name": "AlleyHatchBottom"
        },
        "material_GutterWallBlack": {
            "extensions": {
                "KHR_materials_common": {
                    "technique": "PHONG",
                    "values": {
                        "ambient": [
                            1.0,
                            1.0,
                            1.0,
                            1.0
                        ],
                        "diffuse": "texture_GutterWalls",
                        "doubleSided": false,
                        "emission": [
                            0.0,
                            0.0,
                            0.0,
                            1.0
                        ],
                        "shininess": 50,
                        "specular": [
                            0.5,
                            0.5,
                            0.5,
                            1.0
                        ],
                        "transparency": 1.0,
                        "transparent": false
                    }
                }
            },
            "name": "GutterWallBlack"
        },
        "material_GutterWallGlow": {
            "extensions": {
                "KHR_materials_common": {
                    "technique": "PHONG",
                    "values": {
                        "ambient": [
                            1.0,
                            1.0,
                            1.0,
                            1.0
                        ],
                        "diffuse": "texture_GutterWalls",
                        "doubleSided": false,
                        "emission": [
                            0.0,
                            0.0,
                            0.0,
                            1.0
                        ],
                        "shininess": 50,
                        "specular": [
                            0.5,
                            0.5,
                            0.5,
                            1.0
                        ],
                        "transparency": 1.0,
                        "transparent": false
                    }
                }
            },
            "name": "GutterWallGlow"
        },
        "material_ScoreboardBack": {
            "extensions": {
                "KHR_materials_common": {
                    "technique": "PHONG",
                    "values": {
                        "ambient": [
                            1.0,
                            1.0,
                            1.0,
                            1.0
                        ],
                        "diffuse": "texture_ScoreboardBack",
                        "doubleSided": false,
                        "emission": [
                            0.0,
                            0.0,
                            0.0,
                            1.0
                        ],
                        "shininess": 50,
                        "specular": [
                            0.5,
                            0.5,
                            0.5,
                            1.0
                        ],
                        "transparency": 1.0,
                        "transparent": false
                    }
                }
            },
            "name": "ScoreboardBack"
        },
        "material_ScoreboardBackGradient": {
            "extensions": {
                "KHR_materials_common": {
                    "technique": "PHONG",
                    "values": {
                        "ambient": [
                            1.0,
                            1.0,
                            1.0,
                            1.0
                        ],
                        "diffuse": "texture_ScoreboardBack",
                        "doubleSided": false,
                        "emission": [
                            0.0,
                            0.0,
                            0.0,
                            1.0
                        ],
                        "shininess": 50,
                        "specular": [
                            0.5,
                            0.5,
                            0.5,
                            1.0
                        ],
                        "transparency": 1.0,
                        "transparent": false
                    }
                }
            },
            "name": "ScoreboardBackGradient"
        },
        "material_WoodLane": {
            "extensions": {
                "KHR_materials_common": {
                    "technique": "PHONG",
                    "values": {
                        "ambient": [
                            1.0,
                            1.0,
                            1.0,
                            1.0
                        ],
                        "diffuse": "texture_Runway",
                        "doubleSided": false,
                        "emission": [
                            0.0,
                            0.0,
                            0.0,
                            1.0
                        ],
                        "shininess": 50,
                        "specular": [
                            0.5,
                            0.5,
                            0.5,
                            1.0
                        ],
                        "transparency": 1.0,
                        "transparent": false
                    }
                }
            },
            "name": "WoodLane"
        }
    },
    "meshes": {
        "mesh_Plane.020": {
            "name": "Plane.020",
            "primitives": [
                {
                    "attributes": {
                        "NORMAL": "accessor_buffer_Plane.020_1",
                        "POSITION": "accessor_buffer_Plane.020_0",
                        "TEXCOORD_0": "accessor_buffer_Plane.020_2"
                    },
                    "indices": "accessor_buffer_Plane.020_3",
                    "material": "material_GutterWallBlack",
                    "mode": 4
                },
                {
                    "attributes": {
                        "NORMAL": "accessor_buffer_Plane.020_1",
                        "POSITION": "accessor_buffer_Plane.020_0",
                        "TEXCOORD_0": "accessor_buffer_Plane.020_2"
                    },
                    "indices": "accessor_buffer_Plane.020_4",
                    "material": "material_ScoreboardBack",
                    "mode": 4
                },
                {
                    "attributes": {
                        "NORMAL": "accessor_buffer_Plane.020_1",
                        "POSITION": "accessor_buffer_Plane.020_0",
                        "TEXCOORD_0": "accessor_buffer_Plane.020_2"
                    },
                    "indices": "accessor_buffer_Plane.020_5",
                    "material": "material_WoodLane",
                    "mode": 4
                },
                {
                    "attributes": {
                        "NORMAL": "accessor_buffer_Plane.020_1",
                        "POSITION": "accessor_buffer_Plane.020_0",
                        "TEXCOORD_0": "accessor_buffer_Plane.020_2"
                    },
                    "indices": "accessor_buffer_Plane.020_6",
                    "material": "material_AlleyHatch",
                    "mode": 4
                },
                {
                    "attributes": {
                        "NORMAL": "accessor_buffer_Plane.020_1",
                        "POSITION": "accessor_buffer_Plane.020_0",
                        "TEXCOORD_0": "accessor_buffer_Plane.020_2"
                    },
                    "indices": "accessor_buffer_Plane.020_7",
                    "material": "material_GutterWallGlow",
                    "mode": 4
                },
                {
                    "attributes": {
                        "NORMAL": "accessor_buffer_Plane.020_1",
                        "POSITION": "accessor_buffer_Plane.020_0",
                        "TEXCOORD_0": "accessor_buffer_Plane.020_2"
                    },
                    "indices": "accessor_buffer_Plane.020_8",
                    "material": "material_AlleyCeiling",
                    "mode": 4
                },
                {
                    "attributes": {
                        "NORMAL": "accessor_buffer_Plane.020_1",
                        "POSITION": "accessor_buffer_Plane.020_0",
                        "TEXCOORD_0": "accessor_buffer_Plane.020_2"
                    },
                    "indices": "accessor_buffer_Plane.020_9",
                    "material": "material_AlleyHatchBottom",
                    "mode": 4
                },
                {
                    "attributes": {
                        "NORMAL": "accessor_buffer_Plane.020_1",
                        "POSITION": "accessor_buffer_Plane.020_0",
                        "TEXCOORD_0": "accessor_buffer_Plane.020_2"
                    },
                    "indices": "accessor_buffer_Plane.020_10",
                    "material": "material_ScoreboardBackGradient",
                    "mode": 4
                }
            ]
        }
    },
    "nodes": {
        "node_Runway.001": {
            "children": [],
            "matrix": [
                1.25,
                0.0,
                0.0,
                0.0,
                0.0,
                12.0,
                0.0,
                0.0,
                0.0,
                0.0,
                1.0,
                0.0,
                0.0,
                -0.009580135345458984,
                0.10000000149011612,
                1.0
            ],
            "meshes": [
                "mesh_Plane.020"
            ],
            "name": "Runway.001"
        },
        "node_scene_Scene_root": {
            "children": [
                "node_Runway.001"
            ],
            "matrix": [
                1.0,
                0.0,
                0.0,
                0.0,
                0.0,
                0.0,
                -1.0,
                0.0,
                0.0,
                1.0,
                0.0,
                0.0,
                0.0,
                0.0,
                0.0,
                1.0
            ],
            "name": "node_scene_Scene_root"
        }
    },
    "samplers": {
        "sampler_default": {}
    },
    "scene": "scene_Scene",
    "scenes": {
        "scene_Scene": {
            "extras": {
                "active_camera": null,
                "background_color": [
                    0.06071869283914566,
                    0.06071869283914566,
                    0.06071869283914566
                ],
                "frames_per_second": 24
            },
            "name": "Scene",
            "nodes": [
                "node_scene_Scene_root"
            ]
        }
    },
    "textures": {
        "texture_AlleyCeiling": {
            "format": 6408,
            "internalFormat": 6408,
            "sampler": "sampler_default",
            "source": "image_AlleyCeiling"
        },
        "texture_AlleyHatch": {
            "format": 6408,
            "internalFormat": 6408,
            "sampler": "sampler_default",
            "source": "image_AlleyHatch"
        },
        "texture_GutterWalls": {
            "format": 6408,
            "internalFormat": 6408,
            "sampler": "sampler_default",
            "source": "image_GutterWalls"
        },
        "texture_Runway": {
            "format": 6408,
            "internalFormat": 6408,
            "sampler": "sampler_default",
            "source": "image_Runway"
        },
        "texture_ScoreboardBack": {
            "format": 6408,
            "internalFormat": 6408,
            "sampler": "sampler_default",
            "source": "image_ScoreboardBack"
        }
    }
}
