{
    "accessors" : [
        {
            "bufferView" : 0, 
            "componentType" : 5121, 
            "count" : 228, 
            "max" : [
                139
            ], 
            "min" : [
                0
            ], 
            "type" : "SCALAR"
        }, 
        {
            "bufferView" : 1, 
            "componentType" : 5126, 
            "count" : 140, 
            "max" : [
                2.1516001224517822, 
                0.5449995994567871, 
                0.9992016553878784
            ], 
            "min" : [
                -2.1516001224517822, 
                -0.016160011291503906, 
                -1.0218663215637207
            ], 
            "type" : "VEC3"
        }, 
        {
            "bufferView" : 2, 
            "componentType" : 5126, 
            "count" : 140, 
            "max" : [
                1.0, 
                1.0, 
                0.0014773833099752665
            ], 
            "min" : [
                -1.0, 
                -1.0, 
                -1.0
            ], 
            "type" : "VEC3"
        }, 
        {
            "bufferView" : 3, 
            "componentType" : 5126, 
            "count" : 140, 
            "max" : [
                0.9892125725746155, 
                0.9886275259777904
            ], 
            "min" : [
                0.010787433944642544, 
                0.011372506618499756
            ], 
            "type" : "VEC2"
        }, 
        {
            "bufferView" : 4, 
            "componentType" : 5121, 
            "count" : 6, 
            "max" : [
                3
            ], 
            "min" : [
                0
            ], 
            "type" : "SCALAR"
        }, 
        {
            "bufferView" : 5, 
            "componentType" : 5126, 
            "count" : 4, 
            "max" : [
                1.0, 
                0.0, 
                0.9992017149925232
            ], 
            "min" : [
                -1.0, 
                0.0, 
                -0.9992016553878784
            ], 
            "type" : "VEC3"
        }, 
        {
            "bufferView" : 6, 
            "componentType" : 5126, 
            "count" : 4, 
            "max" : [
                0.0, 
                0.9999999403953552, 
                -0.0
            ], 
            "min" : [
                0.0, 
                0.9999999403953552, 
                -0.0
            ], 
            "type" : "VEC3"
        }, 
        {
            "bufferView" : 7, 
            "componentType" : 5126, 
            "count" : 4, 
            "max" : [
                0.9854369163513184, 
                0.9854368949308991
            ], 
            "min" : [
                0.014563105069100857, 
                0.01456308364868164
            ], 
            "type" : "VEC2"
        }, 
        {
            "bufferView" : 8, 
            "componentType" : 5121, 
            "count" : 114, 
            "max" : [
                69
            ], 
            "min" : [
                0
            ], 
            "type" : "SCALAR"
        }, 
        {
            "bufferView" : 9, 
            "componentType" : 5126, 
            "count" : 70, 
            "max" : [
                1.7172833681106567, 
                0.26053810119628906, 
                0.9777693152427673
            ], 
            "min" : [
                -1.7172833681106567, 
                -0.01616048812866211, 
                -0.9793664216995239
            ], 
            "type" : "VEC3"
        }, 
        {
            "bufferView" : 10, 
            "componentType" : 5126, 
            "count" : 70, 
            "max" : [
                1.0, 
                0.9999999403953552, 
                1.0
            ], 
            "min" : [
                -1.0, 
                -1.0, 
                -1.0
            ], 
            "type" : "VEC3"
        }, 
        {
            "bufferView" : 11, 
            "componentType" : 5126, 
            "count" : 70, 
            "max" : [
                0.9130212664604187, 
                0.9886275259777904
            ], 
            "min" : [
                0.010787433944642544, 
                0.0838969349861145
            ], 
            "type" : "VEC2"
        }, 
        {
            "bufferView" : 12, 
            "componentType" : 5121, 
            "count" : 144, 
            "max" : [
                87
            ], 
            "min" : [
                0
            ], 
            "type" : "SCALAR"
        }, 
        {
            "bufferView" : 13, 
            "componentType" : 5126, 
            "count" : 88, 
            "max" : [
                3.1465094089508057, 
                6.9853339195251465, 
                1.1593310832977295
            ], 
            "min" : [
                -3.1465094089508057, 
                -1.002039909362793, 
                -1.0054295063018799
            ], 
            "type" : "VEC3"
        }, 
        {
            "bufferView" : 14, 
            "componentType" : 5126, 
            "count" : 88, 
            "max" : [
                0.9999998807907104, 
                0.9985657930374146, 
                1.0
            ], 
            "min" : [
                -0.9999998807907104, 
                -1.0, 
                -1.0
            ], 
            "type" : "VEC3"
        }, 
        {
            "bufferView" : 15, 
            "componentType" : 5126, 
            "count" : 88, 
            "max" : [
                0.9951440691947937, 
                0.9953218596056104
            ], 
            "min" : [
                0.0048559135757386684, 
                0.004678130149841309
            ], 
            "type" : "VEC2"
        }
    ], 
    "asset" : {
        "generator" : "Khronos Blender glTF 2.0 exporter", 
        "version" : "2.0"
    }, 
    "bufferViews" : [
        {
            "buffer" : 0, 
            "byteLength" : 228, 
            "byteOffset" : 0, 
            "target" : 34963
        }, 
        {
            "buffer" : 0, 
            "byteLength" : 1680, 
            "byteOffset" : 228, 
            "target" : 34962
        }, 
        {
            "buffer" : 0, 
            "byteLength" : 1680, 
            "byteOffset" : 1908, 
            "target" : 34962
        }, 
        {
            "buffer" : 0, 
            "byteLength" : 1120, 
            "byteOffset" : 3588, 
            "target" : 34962
        }, 
        {
            "buffer" : 0, 
            "byteLength" : 6, 
            "byteOffset" : 4708, 
            "target" : 34963
        }, 
        {
            "buffer" : 0, 
            "byteLength" : 48, 
            "byteOffset" : 4716, 
            "target" : 34962
        }, 
        {
            "buffer" : 0, 
            "byteLength" : 48, 
            "byteOffset" : 4764, 
            "target" : 34962
        }, 
        {
            "buffer" : 0, 
            "byteLength" : 32, 
            "byteOffset" : 4812, 
            "target" : 34962
        }, 
        {
            "buffer" : 0, 
            "byteLength" : 114, 
            "byteOffset" : 4844, 
            "target" : 34963
        }, 
        {
            "buffer" : 0, 
            "byteLength" : 840, 
            "byteOffset" : 4960, 
            "target" : 34962
        }, 
        {
            "buffer" : 0, 
            "byteLength" : 840, 
            "byteOffset" : 5800, 
            "target" : 34962
        }, 
        {
            "buffer" : 0, 
            "byteLength" : 560, 
            "byteOffset" : 6640, 
            "target" : 34962
        }, 
        {
            "buffer" : 0, 
            "byteLength" : 144, 
            "byteOffset" : 7200, 
            "target" : 34963
        }, 
        {
            "buffer" : 0, 
            "byteLength" : 1056, 
            "byteOffset" : 7344, 
            "target" : 34962
        }, 
        {
            "buffer" : 0, 
            "byteLength" : 1056, 
            "byteOffset" : 8400, 
            "target" : 34962
        }, 
        {
            "buffer" : 0, 
            "byteLength" : 704, 
            "byteOffset" : 9456, 
            "target" : 34962
        }
    ], 
    "buffers" : [
        {
            "byteLength" : 10160, 
            "uri" : "data:application/octet-stream;base64,"
        }
    ], 
    "extensionsRequired" : [
        "KHR_materials_cmnBlinnPhong"
    ], 
    "extensionsUsed" : [
        "KHR_materials_cmnBlinnPhong"
    ], 
    "images" : [
        {
            "uri" : "Alley.png"
        }, 
        {
            "uri" : "GutterWallBlack.png"
        }, 
        {
            "uri" : "GutterWallGlow.png"
        }, 
        {
            "uri" : "Runway.png"
        }
    ], 
    "materials" : [
        {
            "emissiveFactor" : [
                0.0, 
                0.0, 
                0.0
            ], 
            "extensions" : {
                "KHR_materials_cmnBlinnPhong" : {
                    "diffuseFactor" : [
                        0.018522690512578044, 
                        0.018522690512578044, 
                        0.018522690512578044, 
                        1.0
                    ], 
                    "diffuseTexture" : {
                        "index" : 0
                    }, 
                    "shininessFactor" : 12.298039215686275, 
                    "specularFactor" : [
                        0.5, 
                        0.5, 
                        0.5
                    ]
                }
            }, 
            "name" : "Alley"
        }, 
        {
            "emissiveFactor" : [
                0.0, 
                0.0, 
                0.0
            ], 
            "extensions" : {
                "KHR_materials_cmnBlinnPhong" : {
                    "diffuseFactor" : [
                        0.018522690512578044, 
                        0.018522690512578044, 
                        0.018522690512578044, 
                        1.0
                    ], 
                    "diffuseTexture" : {
                        "index" : 1
                    }, 
                    "shininessFactor" : 12.298039215686275, 
                    "specularFactor" : [
                        0.5, 
                        0.5, 
                        0.5
                    ]
                }
            }, 
            "name" : "GutterWallBlack"
        }, 
        {
            "emissiveFactor" : [
                0.0, 
                0.0, 
                0.0
            ], 
            "extensions" : {
                "KHR_materials_cmnBlinnPhong" : {
                    "diffuseFactor" : [
                        0.16978463187492832, 
                        0.0, 
                        0.7858006594449378, 
                        1.0
                    ], 
                    "diffuseTexture" : {
                        "index" : 2
                    }, 
                    "shininessFactor" : 12.298039215686275, 
                    "specularFactor" : [
                        0.5, 
                        0.5, 
                        0.5
                    ]
                }
            }, 
            "name" : "GutterWallGlow"
        }, 
        {
            "emissiveFactor" : [
                0.0, 
                0.0, 
                0.0
            ], 
            "extensions" : {
                "KHR_materials_cmnBlinnPhong" : {
                    "diffuseFactor" : [
                        0.14308151219906673, 
                        0.056450802928966315, 
                        0.010155344905783903, 
                        1.0
                    ], 
                    "diffuseTexture" : {
                        "index" : 3
                    }, 
                    "shininessFactor" : 12.298039215686275, 
                    "specularFactor" : [
                        0.5, 
                        0.5, 
                        0.5
                    ]
                }
            }, 
            "name" : "Runway"
        }
    ], 
    "meshes" : [
        {
            "name" : "Plane.014", 
            "primitives" : [
                {
                    "attributes" : {
                        "NORMAL" : 2, 
                        "POSITION" : 1, 
                        "TEXCOORD_0" : 3
                    }, 
                    "indices" : 0, 
                    "material" : 1
                }, 
                {
                    "attributes" : {
                        "NORMAL" : 6, 
                        "POSITION" : 5, 
                        "TEXCOORD_0" : 7
                    }, 
                    "indices" : 4, 
                    "material" : 3
                }, 
                {
                    "attributes" : {
                        "NORMAL" : 10, 
                        "POSITION" : 9, 
                        "TEXCOORD_0" : 11
                    }, 
                    "indices" : 8, 
                    "material" : 2
                }, 
                {
                    "attributes" : {
                        "NORMAL" : 14, 
                        "POSITION" : 13, 
                        "TEXCOORD_0" : 15
                    }, 
                    "indices" : 12, 
                    "material" : 0
                }
            ]
        }
    ], 
    "nodes" : [
        {
            "mesh" : 0, 
            "name" : "GutterWalls.001", 
            "scale" : [
                1.25, 
                1.0, 
                12.0
            ], 
            "translation" : [
                0.0, 
                0.09999990463256836, 
                0.009579658508300781
            ]
        }
    ], 
    "samplers" : [
        {}
    ], 
    "scene" : 0, 
    "scenes" : [
        {
            "name" : "Scene", 
            "nodes" : [
                0
            ]
        }
    ], 
    "textures" : [
        {
            "sampler" : 0, 
            "source" : 0
        }, 
        {
            "sampler" : 0, 
            "source" : 1
        }, 
        {
            "sampler" : 0, 
            "source" : 2
        }, 
        {
            "sampler" : 0, 
            "source" : 3
        }
    ]
}
