{
    "accessors": {
        "accessor_buffer_Plane.018_0": {
            "bufferView": "bufferView_buffer_Plane.018_0",
            "byteOffset": 0,
            "byteStride": 32,
            "componentType": 5126,
            "count": 623,
            "max": [
                3.1881086826324463,
                1.0218662023544312,
                1.9000002145767212
            ],
            "min": [
                -3.1882164478302,
                -1.165868878364563,
                -1.0020352602005005
            ],
            "type": "VEC3"
        },
        "accessor_buffer_Plane.018_1": {
            "bufferView": "bufferView_buffer_Plane.018_0",
            "byteOffset": 12,
            "byteStride": 32,
            "componentType": 5126,
            "count": 623,
            "max": [
                1.0,
                1.0,
                1.0
            ],
            "min": [
                -1.0,
                -1.0,
                -1.0
            ],
            "type": "VEC3"
        },
        "accessor_buffer_Plane.018_2": {
            "bufferView": "bufferView_buffer_Plane.018_0",
            "byteOffset": 24,
            "byteStride": 32,
            "componentType": 5126,
            "count": 623,
            "max": [
                0.9950764179229736,
                0.9950767722912133
            ],
            "min": [
                0.004923567175865173,
                0.004923224449157715
            ],
            "type": "VEC2"
        },
        "accessor_buffer_Plane.018_3": {
            "bufferView": "bufferView_buffer_Plane.018_1",
            "byteOffset": 0,
            "byteStride": 2,
            "componentType": 5123,
            "count": 18,
            "max": [
                511
            ],
            "min": [
                8
            ],
            "type": "SCALAR"
        },
        "accessor_buffer_Plane.018_4": {
            "bufferView": "bufferView_buffer_Plane.018_2",
            "byteOffset": 0,
            "byteStride": 2,
            "componentType": 5123,
            "count": 228,
            "max": [
                622
            ],
            "min": [
                3
            ],
            "type": "SCALAR"
        },
        "accessor_buffer_Plane.018_5": {
            "bufferView": "bufferView_buffer_Plane.018_3",
            "byteOffset": 0,
            "byteStride": 2,
            "componentType": 5123,
            "count": 114,
            "max": [
                616
            ],
            "min": [
                1
            ],
            "type": "SCALAR"
        },
        "accessor_buffer_Plane.018_6": {
            "bufferView": "bufferView_buffer_Plane.018_4",
            "byteOffset": 0,
            "byteStride": 2,
            "componentType": 5123,
            "count": 6,
            "max": [
                515
            ],
            "min": [
                69
            ],
            "type": "SCALAR"
        },
        "accessor_buffer_Plane.018_7": {
            "bufferView": "bufferView_buffer_Plane.018_5",
            "byteOffset": 0,
            "byteStride": 2,
            "componentType": 5123,
            "count": 630,
            "max": [
                621
            ],
            "min": [
                0
            ],
            "type": "SCALAR"
        }
    },
    "asset": {
        "profile": {
            "api": "WebGL",
            "version": "1.0.3"
        },
        "version": "1.0"
    },
    "bufferViews": {
        "bufferView_buffer_Plane.018_0": {
            "buffer": "buffer_combined",
            "byteLength": 19936,
            "byteOffset": 0,
            "target": 34962
        },
        "bufferView_buffer_Plane.018_1": {
            "buffer": "buffer_combined",
            "byteLength": 36,
            "byteOffset": 19936,
            "target": 34963
        },
        "bufferView_buffer_Plane.018_2": {
            "buffer": "buffer_combined",
            "byteLength": 456,
            "byteOffset": 19972,
            "target": 34963
        },
        "bufferView_buffer_Plane.018_3": {
            "buffer": "buffer_combined",
            "byteLength": 228,
            "byteOffset": 20428,
            "target": 34963
        },
        "bufferView_buffer_Plane.018_4": {
            "buffer": "buffer_combined",
            "byteLength": 12,
            "byteOffset": 20656,
            "target": 34963
        },
        "bufferView_buffer_Plane.018_5": {
            "buffer": "buffer_combined",
            "byteLength": 1260,
            "byteOffset": 20668,
            "target": 34963
        }
    },
    "buffers": {
        "buffer_combined": {
            "byteLength": 21928,
            "type": "arraybuffer",
            "uri": "data:text/plain;base64,"
        }
    },
    "extensions": {
        "KHR_materials_common": {
            "lights": {}
        }
    },
    "extensionsUsed": [
        "KHR_materials_common"
    ],
    "images": {
        "image_AlleyHatch": {
            "uri": "AlleyHatch.png"
        },
        "image_GutterWalls": {
            "uri": "GutterWalls.png"
        },
        "image_Runway": {
            "uri": "Runway.png"
        }
    },
    "materials": {
        "material_AlleyHatch": {
            "extensions": {
                "KHR_materials_common": {
                    "technique": "PHONG",
                    "values": {
                        "ambient": [
                            1.0,
                            1.0,
                            1.0,
                            1.0
                        ],
                        "diffuse": "texture_AlleyHatch",
                        "doubleSided": false,
                        "emission": [
                            0.0,
                            0.0,
                            0.0,
                            1.0
                        ],
                        "shininess": 50,
                        "specular": [
                            0.5,
                            0.5,
                            0.5,
                            1.0
                        ],
                        "transparency": 1.0,
                        "transparent": false
                    }
                }
            },
            "name": "AlleyHatch"
        },
        "material_AlleyHatchBottom": {
            "extensions": {
                "KHR_materials_common": {
                    "technique": "PHONG",
                    "values": {
                        "ambient": [
                            1.0,
                            1.0,
                            1.0,
                            1.0
                        ],
                        "diffuse": "texture_AlleyHatch",
                        "doubleSided": false,
                        "emission": [
                            0.0,
                            0.0,
                            0.0,
                            1.0
                        ],
                        "shininess": 50,
                        "specular": [
                            0.5,
                            0.5,
                            0.5,
                            1.0
                        ],
                        "transparency": 1.0,
                        "transparent": false
                    }
                }
            },
            "name": "AlleyHatchBottom"
        },
        "material_GutterWallBlack": {
            "extensions": {
                "KHR_materials_common": {
                    "technique": "PHONG",
                    "values": {
                        "ambient": [
                            1.0,
                            1.0,
                            1.0,
                            1.0
                        ],
                        "diffuse": "texture_GutterWalls",
                        "doubleSided": false,
                        "emission": [
                            0.0,
                            0.0,
                            0.0,
                            1.0
                        ],
                        "shininess": 50,
                        "specular": [
                            0.5,
                            0.5,
                            0.5,
                            1.0
                        ],
                        "transparency": 1.0,
                        "transparent": false
                    }
                }
            },
            "name": "GutterWallBlack"
        },
        "material_GutterWallGlow": {
            "extensions": {
                "KHR_materials_common": {
                    "technique": "PHONG",
                    "values": {
                        "ambient": [
                            1.0,
                            1.0,
                            1.0,
                            1.0
                        ],
                        "diffuse": "texture_GutterWalls",
                        "doubleSided": false,
                        "emission": [
                            0.0,
                            0.0,
                            0.0,
                            1.0
                        ],
                        "shininess": 50,
                        "specular": [
                            0.5,
                            0.5,
                            0.5,
                            1.0
                        ],
                        "transparency": 1.0,
                        "transparent": false
                    }
                }
            },
            "name": "GutterWallGlow"
        },
        "material_WoodLane": {
            "extensions": {
                "KHR_materials_common": {
                    "technique": "PHONG",
                    "values": {
                        "ambient": [
                            1.0,
                            1.0,
                            1.0,
                            1.0
                        ],
                        "diffuse": "texture_Runway",
                        "doubleSided": false,
                        "emission": [
                            0.0,
                            0.0,
                            0.0,
                            1.0
                        ],
                        "shininess": 50,
                        "specular": [
                            0.5,
                            0.5,
                            0.5,
                            1.0
                        ],
                        "transparency": 1.0,
                        "transparent": false
                    }
                }
            },
            "name": "WoodLane"
        }
    },
    "meshes": {
        "mesh_Plane.018": {
            "name": "Plane.018",
            "primitives": [
                {
                    "attributes": {
                        "NORMAL": "accessor_buffer_Plane.018_1",
                        "POSITION": "accessor_buffer_Plane.018_0",
                        "TEXCOORD_0": "accessor_buffer_Plane.018_2"
                    },
                    "indices": "accessor_buffer_Plane.018_3",
                    "material": "material_AlleyHatchBottom",
                    "mode": 4
                },
                {
                    "attributes": {
                        "NORMAL": "accessor_buffer_Plane.018_1",
                        "POSITION": "accessor_buffer_Plane.018_0",
                        "TEXCOORD_0": "accessor_buffer_Plane.018_2"
                    },
                    "indices": "accessor_buffer_Plane.018_4",
                    "material": "material_GutterWallBlack",
                    "mode": 4
                },
                {
                    "attributes": {
                        "NORMAL": "accessor_buffer_Plane.018_1",
                        "POSITION": "accessor_buffer_Plane.018_0",
                        "TEXCOORD_0": "accessor_buffer_Plane.018_2"
                    },
                    "indices": "accessor_buffer_Plane.018_5",
                    "material": "material_GutterWallGlow",
                    "mode": 4
                },
                {
                    "attributes": {
                        "NORMAL": "accessor_buffer_Plane.018_1",
                        "POSITION": "accessor_buffer_Plane.018_0",
                        "TEXCOORD_0": "accessor_buffer_Plane.018_2"
                    },
                    "indices": "accessor_buffer_Plane.018_6",
                    "material": "material_WoodLane",
                    "mode": 4
                },
                {
                    "attributes": {
                        "NORMAL": "accessor_buffer_Plane.018_1",
                        "POSITION": "accessor_buffer_Plane.018_0",
                        "TEXCOORD_0": "accessor_buffer_Plane.018_2"
                    },
                    "indices": "accessor_buffer_Plane.018_7",
                    "material": "material_AlleyHatch",
                    "mode": 4
                }
            ]
        }
    },
    "nodes": {
        "node_RunwayHatch.001": {
            "children": [],
            "matrix": [
                1.25,
                0.0,
                0.0,
                0.0,
                0.0,
                12.0,
                0.0,
                0.0,
                0.0,
                0.0,
                1.0,
                0.0,
                5.961192073300481e-08,
                -0.009580612182617188,
                0.10000000149011612,
                1.0
            ],
            "meshes": [
                "mesh_Plane.018"
            ],
            "name": "RunwayHatch.001"
        },
        "node_scene_Scene_root": {
            "children": [
                "node_RunwayHatch.001"
            ],
            "matrix": [
                1.0,
                0.0,
                0.0,
                0.0,
                0.0,
                0.0,
                -1.0,
                0.0,
                0.0,
                1.0,
                0.0,
                0.0,
                0.0,
                0.0,
                0.0,
                1.0
            ],
            "name": "node_scene_Scene_root"
        }
    },
    "samplers": {
        "sampler_default": {}
    },
    "scene": "scene_Scene",
    "scenes": {
        "scene_Scene": {
            "extras": {
                "active_camera": null,
                "background_color": [
                    0.06071869283914566,
                    0.06071869283914566,
                    0.06071869283914566
                ],
                "frames_per_second": 24
            },
            "name": "Scene",
            "nodes": [
                "node_scene_Scene_root"
            ]
        }
    },
    "textures": {
        "texture_AlleyHatch": {
            "format": 6408,
            "internalFormat": 6408,
            "sampler": "sampler_default",
            "source": "image_AlleyHatch"
        },
        "texture_GutterWalls": {
            "format": 6408,
            "internalFormat": 6408,
            "sampler": "sampler_default",
            "source": "image_GutterWalls"
        },
        "texture_Runway": {
            "format": 6408,
            "internalFormat": 6408,
            "sampler": "sampler_default",
            "source": "image_Runway"
        }
    }
}
