{
    "accessors" : [
        {
            "bufferView" : 0, 
            "componentType" : 5121, 
            "count" : 6, 
            "max" : [
                3
            ], 
            "min" : [
                0
            ], 
            "type" : "SCALAR"
        }, 
        {
            "bufferView" : 1, 
            "componentType" : 5126, 
            "count" : 4, 
            "max" : [
                1.0, 
                0.0, 
                0.9992016553878784
            ], 
            "min" : [
                -1.0, 
                0.0, 
                -0.9992016553878784
            ], 
            "type" : "VEC3"
        }, 
        {
            "bufferView" : 2, 
            "componentType" : 5126, 
            "count" : 4, 
            "max" : [
                0.0, 
                0.9999999403953552, 
                -0.0
            ], 
            "min" : [
                0.0, 
                0.9999999403953552, 
                -0.0
            ], 
            "type" : "VEC3"
        }, 
        {
            "bufferView" : 3, 
            "componentType" : 5126, 
            "count" : 4, 
            "max" : [
                -1.536046170258487e-07, 
                0.0, 
                -1.0, 
                1.0
            ], 
            "min" : [
                -1.536046170258487e-07, 
                0.0, 
                -1.0, 
                1.0
            ], 
            "type" : "VEC4"
        }, 
        {
            "bufferView" : 4, 
            "componentType" : 5126, 
            "count" : 4, 
            "max" : [
                0.9854369163513184, 
                0.9854368949308991
            ], 
            "min" : [
                0.014563105069100857, 
                0.01456308364868164
            ], 
            "type" : "VEC2"
        }, 
        {
            "bufferView" : 5, 
            "componentType" : 5121, 
            "count" : 144, 
            "max" : [
                89
            ], 
            "min" : [
                0
            ], 
            "type" : "SCALAR"
        }, 
        {
            "bufferView" : 6, 
            "componentType" : 5126, 
            "count" : 90, 
            "max" : [
                3.1465094089508057, 
                2.1706676483154297, 
                1.0736823081970215
            ], 
            "min" : [
                -3.1465094089508057, 
                -5.81670618057251, 
                -1.091078281402588
            ], 
            "type" : "VEC3"
        }, 
        {
            "bufferView" : 7, 
            "componentType" : 5126, 
            "count" : 90, 
            "max" : [
                0.9999998807907104, 
                0.9985657930374146, 
                1.0
            ], 
            "min" : [
                -0.9999998807907104, 
                -1.0, 
                -1.0
            ], 
            "type" : "VEC3"
        }, 
        {
            "bufferView" : 8, 
            "componentType" : 5126, 
            "count" : 90, 
            "max" : [
                0.9951440691947937, 
                0.9953218596056104
            ], 
            "min" : [
                0.0048559135757386684, 
                0.004678130149841309
            ], 
            "type" : "VEC2"
        }, 
        {
            "bufferView" : 9, 
            "componentType" : 5121, 
            "count" : 114, 
            "max" : [
                69
            ], 
            "min" : [
                0
            ], 
            "type" : "SCALAR"
        }, 
        {
            "bufferView" : 10, 
            "componentType" : 5126, 
            "count" : 70, 
            "max" : [
                1.7173408269882202, 
                0.2766979932785034, 
                0.9785676002502441
            ], 
            "min" : [
                -1.7173408269882202, 
                -2.4586915969848633e-07, 
                -0.9785680770874023
            ], 
            "type" : "VEC3"
        }, 
        {
            "bufferView" : 11, 
            "componentType" : 5126, 
            "count" : 70, 
            "max" : [
                1.0, 
                1.0, 
                1.0
            ], 
            "min" : [
                -1.0, 
                -1.0, 
                -1.0
            ], 
            "type" : "VEC3"
        }, 
        {
            "bufferView" : 12, 
            "componentType" : 5126, 
            "count" : 70, 
            "max" : [
                0.9130212664604187, 
                0.9886275259777904
            ], 
            "min" : [
                0.010787433944642544, 
                0.0838969349861145
            ], 
            "type" : "VEC2"
        }, 
        {
            "bufferView" : 13, 
            "componentType" : 5121, 
            "count" : 228, 
            "max" : [
                139
            ], 
            "min" : [
                0
            ], 
            "type" : "SCALAR"
        }, 
        {
            "bufferView" : 14, 
            "componentType" : 5126, 
            "count" : 140, 
            "max" : [
                2.151672124862671, 
                0.5611595511436462, 
                0.9999999403953552
            ], 
            "min" : [
                -2.151672124862671, 
                -1.7881393432617188e-07, 
                -1.0210679769515991
            ], 
            "type" : "VEC3"
        }, 
        {
            "bufferView" : 15, 
            "componentType" : 5126, 
            "count" : 140, 
            "max" : [
                1.0, 
                1.0, 
                0.001477384241297841
            ], 
            "min" : [
                -1.0, 
                -1.0, 
                -1.0
            ], 
            "type" : "VEC3"
        }, 
        {
            "bufferView" : 16, 
            "componentType" : 5126, 
            "count" : 140, 
            "max" : [
                0.9892125725746155, 
                0.9886275259777904
            ], 
            "min" : [
                0.010787433944642544, 
                0.011372506618499756
            ], 
            "type" : "VEC2"
        }
    ], 
    "asset" : {
        "generator" : "Khronos Blender glTF 2.0 exporter", 
        "version" : "2.0"
    }, 
    "bufferViews" : [
        {
            "buffer" : 0, 
            "byteLength" : 6, 
            "byteOffset" : 0, 
            "target" : 34963
        }, 
        {
            "buffer" : 0, 
            "byteLength" : 48, 
            "byteOffset" : 8, 
            "target" : 34962
        }, 
        {
            "buffer" : 0, 
            "byteLength" : 48, 
            "byteOffset" : 56, 
            "target" : 34962
        }, 
        {
            "buffer" : 0, 
            "byteLength" : 64, 
            "byteOffset" : 104, 
            "target" : 34962
        }, 
        {
            "buffer" : 0, 
            "byteLength" : 32, 
            "byteOffset" : 168, 
            "target" : 34962
        }, 
        {
            "buffer" : 0, 
            "byteLength" : 144, 
            "byteOffset" : 200, 
            "target" : 34963
        }, 
        {
            "buffer" : 0, 
            "byteLength" : 1080, 
            "byteOffset" : 344, 
            "target" : 34962
        }, 
        {
            "buffer" : 0, 
            "byteLength" : 1080, 
            "byteOffset" : 1424, 
            "target" : 34962
        }, 
        {
            "buffer" : 0, 
            "byteLength" : 720, 
            "byteOffset" : 2504, 
            "target" : 34962
        }, 
        {
            "buffer" : 0, 
            "byteLength" : 114, 
            "byteOffset" : 3224, 
            "target" : 34963
        }, 
        {
            "buffer" : 0, 
            "byteLength" : 840, 
            "byteOffset" : 3340, 
            "target" : 34962
        }, 
        {
            "buffer" : 0, 
            "byteLength" : 840, 
            "byteOffset" : 4180, 
            "target" : 34962
        }, 
        {
            "buffer" : 0, 
            "byteLength" : 560, 
            "byteOffset" : 5020, 
            "target" : 34962
        }, 
        {
            "buffer" : 0, 
            "byteLength" : 228, 
            "byteOffset" : 5580, 
            "target" : 34963
        }, 
        {
            "buffer" : 0, 
            "byteLength" : 1680, 
            "byteOffset" : 5808, 
            "target" : 34962
        }, 
        {
            "buffer" : 0, 
            "byteLength" : 1680, 
            "byteOffset" : 7488, 
            "target" : 34962
        }, 
        {
            "buffer" : 0, 
            "byteLength" : 1120, 
            "byteOffset" : 9168, 
            "target" : 34962
        }
    ], 
    "buffers" : [
        {
            "byteLength" : 10288, 
            "uri" : "data:application/octet-stream;base64,"
        }
    ], 
    "images" : [
        {
            "uri" : "Alley.png"
        }, 
        {
            "uri" : "GutterWallGlow.png"
        }, 
        {
            "uri" : "Runway.png"
        }
    ], 
    "materials" : [
        {
            "name" : "Alley", 
            "pbrMetallicRoughness" : {
                "baseColorFactor" : [
                    0.800000011920929, 
                    0.800000011920929, 
                    0.800000011920929, 
                    1.0
                ], 
                "baseColorTexture" : {
                    "index" : 0
                }, 
                "metallicFactor" : 0.0
            }
        }, 
        {
            "name" : "GutterWallBlack", 
            "pbrMetallicRoughness" : {
                "baseColorFactor" : [
                    0.800000011920929, 
                    0.800000011920929, 
                    0.800000011920929, 
                    1.0
                ], 
                "baseColorTexture" : {
                    "index" : 1
                }, 
                "metallicFactor" : 0.0
            }
        }, 
        {
            "name" : "GutterWallGlow", 
            "pbrMetallicRoughness" : {
                "baseColorFactor" : [
                    0.800000011920929, 
                    0.800000011920929, 
                    0.800000011920929, 
                    1.0
                ], 
                "baseColorTexture" : {
                    "index" : 1
                }, 
                "metallicFactor" : 0.0
            }
        }, 
        {
            "name" : "Runway", 
            "pbrMetallicRoughness" : {
                "baseColorFactor" : [
                    0.800000011920929, 
                    0.800000011920929, 
                    0.800000011920929, 
                    1.0
                ], 
                "baseColorTexture" : {
                    "index" : 2
                }, 
                "metallicFactor" : 0.0
            }
        }
    ], 
    "meshes" : [
        {
            "name" : "Plane.002", 
            "primitives" : [
                {
                    "attributes" : {
                        "NORMAL" : 2, 
                        "POSITION" : 1, 
                        "TANGENT" : 3, 
                        "TEXCOORD_0" : 4
                    }, 
                    "indices" : 0, 
                    "material" : 3
                }
            ]
        }, 
        {
            "name" : "Plane.017", 
            "primitives" : [
                {
                    "attributes" : {
                        "NORMAL" : 7, 
                        "POSITION" : 6, 
                        "TEXCOORD_0" : 8
                    }, 
                    "indices" : 5, 
                    "material" : 0
                }
            ]
        }, 
        {
            "name" : "Plane", 
            "primitives" : [
                {
                    "attributes" : {
                        "NORMAL" : 11, 
                        "POSITION" : 10, 
                        "TEXCOORD_0" : 12
                    }, 
                    "indices" : 9, 
                    "material" : 2
                }, 
                {
                    "attributes" : {
                        "NORMAL" : 15, 
                        "POSITION" : 14, 
                        "TEXCOORD_0" : 16
                    }, 
                    "indices" : 13, 
                    "material" : 1
                }
            ]
        }
    ], 
    "nodes" : [
        {
            "mesh" : 2, 
            "name" : "GutterWalls", 
            "scale" : [
                1.2499581575393677, 
                1.0, 
                12.0
            ], 
            "translation" : [
                0.0, 
                0.08383999764919281, 
                -0.0
            ]
        }, 
        {
            "mesh" : 1, 
            "name" : "GutterWalls.009", 
            "scale" : [
                1.25, 
                1.0, 
                12.0
            ], 
            "translation" : [
                0.0, 
                4.914666175842285, 
                1.0373649597167969
            ]
        }, 
        {
            "mesh" : 0, 
            "name" : "Runway", 
            "scale" : [
                1.25, 
                1.0, 
                12.0
            ], 
            "translation" : [
                0.0, 
                0.10000000149011612, 
                0.009580135345458984
            ]
        }
    ], 
    "samplers" : [
        {}
    ], 
    "scene" : 0, 
    "scenes" : [
        {
            "name" : "Scene", 
            "nodes" : [
                1, 
                2, 
                0
            ]
        }
    ], 
    "textures" : [
        {
            "sampler" : 0, 
            "source" : 0
        }, 
        {
            "sampler" : 0, 
            "source" : 1
        }, 
        {
            "sampler" : 0, 
            "source" : 2
        }
    ]
}
