{
    "accessors": {
        "accessor_buffer_Plane.001_0": {
            "bufferView": "bufferView_buffer_Plane.001_0",
            "byteOffset": 0,
            "byteStride": 12,
            "componentType": 5126,
            "count": 208,
            "max": [
                2.146439790725708,
                1.0210679769515991,
                0.7079144716262817
            ],
            "min": [
                -2.146439790725708,
                -1.0210682153701782,
                0.01616000384092331
            ],
            "type": "VEC3"
        },
        "accessor_buffer_Plane.001_1": {
            "bufferView": "bufferView_buffer_Plane.001_0",
            "byteOffset": 2496,
            "byteStride": 12,
            "componentType": 5126,
            "count": 208,
            "max": [
                1.0,
                1.0,
                1.0
            ],
            "min": [
                -1.0,
                -1.0,
                -1.0
            ],
            "type": "VEC3"
        },
        "accessor_buffer_Plane.001_2": {
            "bufferView": "bufferView_buffer_Plane.001_0",
            "byteOffset": 4992,
            "byteStride": 8,
            "componentType": 5126,
            "count": 208,
            "max": [
                0.9921756386756897,
                0.9925637147389352
            ],
            "min": [
                0.007824364118278027,
                0.007436275482177734
            ],
            "type": "VEC2"
        },
        "accessor_buffer_Plane.001_3": {
            "bufferView": "bufferView_buffer_Plane.001_1",
            "byteOffset": 0,
            "byteStride": 2,
            "componentType": 5123,
            "count": 108,
            "max": [
                207
            ],
            "min": [
                0
            ],
            "type": "SCALAR"
        },
        "accessor_buffer_Plane.001_4": {
            "bufferView": "bufferView_buffer_Plane.001_2",
            "byteOffset": 0,
            "byteStride": 2,
            "componentType": 5123,
            "count": 204,
            "max": [
                205
            ],
            "min": [
                5
            ],
            "type": "SCALAR"
        },
        "accessor_buffer_Plane.001_5": {
            "bufferView": "bufferView_buffer_Plane.001_3",
            "byteOffset": 0,
            "byteStride": 2,
            "componentType": 5123,
            "count": 6,
            "max": [
                203
            ],
            "min": [
                9
            ],
            "type": "SCALAR"
        }
    },
    "asset": {
        "profile": {
            "api": "WebGL",
            "version": "1.0.3"
        },
        "version": "1.0"
    },
    "bufferViews": {
        "bufferView_buffer_Plane.001_0": {
            "buffer": "buffer_combined",
            "byteLength": 6656,
            "byteOffset": 0,
            "target": 34962
        },
        "bufferView_buffer_Plane.001_1": {
            "buffer": "buffer_combined",
            "byteLength": 216,
            "byteOffset": 6656,
            "target": 34963
        },
        "bufferView_buffer_Plane.001_2": {
            "buffer": "buffer_combined",
            "byteLength": 408,
            "byteOffset": 6872,
            "target": 34963
        },
        "bufferView_buffer_Plane.001_3": {
            "buffer": "buffer_combined",
            "byteLength": 12,
            "byteOffset": 7280,
            "target": 34963
        }
    },
    "buffers": {
        "buffer_combined": {
            "byteLength": 7292,
            "type": "arraybuffer",
            "uri": "data:text/plain;base64,"
        }
    },
    "extensions": {
        "KHR_materials_common": {
            "lights": {}
        }
    },
    "extensionsUsed": [
        "KHR_materials_common"
    ],
    "images": {
        "image_GutterWalls": {
            "uri": "GutterWalls.png"
        },
        "image_Runway": {
            "uri": "Runway.png"
        }
    },
    "materials": {
        "material_GutterWallBlack": {
            "extensions": {
                "KHR_materials_common": {
                    "technique": "PHONG",
                    "values": {
                        "ambient": [
                            1.0,
                            1.0,
                            1.0,
                            1.0
                        ],
                        "diffuse": "texture_GutterWalls",
                        "doubleSided": false,
                        "emission": [
                            0.0,
                            0.0,
                            0.0,
                            1.0
                        ],
                        "shininess": 50,
                        "specular": [
                            0.5,
                            0.5,
                            0.5,
                            1.0
                        ],
                        "transparency": 1.0,
                        "transparent": false
                    }
                }
            },
            "name": "GutterWallBlack"
        },
        "material_GutterWallGlow": {
            "extensions": {
                "KHR_materials_common": {
                    "technique": "PHONG",
                    "values": {
                        "ambient": [
                            1.0,
                            1.0,
                            1.0,
                            1.0
                        ],
                        "diffuse": "texture_GutterWalls",
                        "doubleSided": false,
                        "emission": [
                            0.0,
                            0.0,
                            0.0,
                            1.0
                        ],
                        "shininess": 50,
                        "specular": [
                            0.5,
                            0.5,
                            0.5,
                            1.0
                        ],
                        "transparency": 1.0,
                        "transparent": false
                    }
                }
            },
            "name": "GutterWallGlow"
        },
        "material_WoodLane": {
            "extensions": {
                "KHR_materials_common": {
                    "technique": "PHONG",
                    "values": {
                        "ambient": [
                            1.0,
                            1.0,
                            1.0,
                            1.0
                        ],
                        "diffuse": "texture_Runway",
                        "doubleSided": false,
                        "emission": [
                            0.0,
                            0.0,
                            0.0,
                            1.0
                        ],
                        "shininess": 50,
                        "specular": [
                            0.5,
                            0.5,
                            0.5,
                            1.0
                        ],
                        "transparency": 1.0,
                        "transparent": false
                    }
                }
            },
            "name": "WoodLane"
        }
    },
    "meshes": {
        "mesh_Plane.001": {
            "name": "Plane.001",
            "primitives": [
                {
                    "attributes": {
                        "NORMAL": "accessor_buffer_Plane.001_1",
                        "POSITION": "accessor_buffer_Plane.001_0",
                        "TEXCOORD_0": "accessor_buffer_Plane.001_2"
                    },
                    "indices": "accessor_buffer_Plane.001_3",
                    "material": "material_GutterWallGlow",
                    "mode": 4
                },
                {
                    "attributes": {
                        "NORMAL": "accessor_buffer_Plane.001_1",
                        "POSITION": "accessor_buffer_Plane.001_0",
                        "TEXCOORD_0": "accessor_buffer_Plane.001_2"
                    },
                    "indices": "accessor_buffer_Plane.001_4",
                    "material": "material_GutterWallBlack",
                    "mode": 4
                },
                {
                    "attributes": {
                        "NORMAL": "accessor_buffer_Plane.001_1",
                        "POSITION": "accessor_buffer_Plane.001_0",
                        "TEXCOORD_0": "accessor_buffer_Plane.001_2"
                    },
                    "indices": "accessor_buffer_Plane.001_5",
                    "material": "material_WoodLane",
                    "mode": 4
                }
            ]
        }
    },
    "nodes": {
        "node_GutterWallsAlone": {
            "children": [],
            "matrix": [
                1.2499768733978271,
                0.0,
                0.0,
                0.0,
                0.0,
                12.0,
                0.0,
                0.0,
                0.0,
                0.0,
                1.0,
                0.0,
                0.0,
                6.614192216147785e-07,
                0.08383999764919281,
                1.0
            ],
            "meshes": [
                "mesh_Plane.001"
            ],
            "name": "GutterWallsAlone"
        },
        "node_scene_Scene_root": {
            "children": [
                "node_GutterWallsAlone"
            ],
            "matrix": [
                1.0,
                0.0,
                0.0,
                0.0,
                0.0,
                0.0,
                -1.0,
                0.0,
                0.0,
                1.0,
                0.0,
                0.0,
                0.0,
                0.0,
                0.0,
                1.0
            ],
            "name": "node_scene_Scene_root"
        }
    },
    "samplers": {
        "sampler_default": {}
    },
    "scene": "scene_Scene",
    "scenes": {
        "scene_Scene": {
            "extras": {
                "active_camera": null,
                "background_color": [
                    0.06071869283914566,
                    0.06071869283914566,
                    0.06071869283914566
                ],
                "frames_per_second": 24
            },
            "name": "Scene",
            "nodes": [
                "node_scene_Scene_root"
            ]
        }
    },
    "textures": {
        "texture_GutterWalls": {
            "format": 6408,
            "internalFormat": 6408,
            "sampler": "sampler_default",
            "source": "image_GutterWalls"
        },
        "texture_Runway": {
            "format": 6408,
            "internalFormat": 6408,
            "sampler": "sampler_default",
            "source": "image_Runway"
        }
    }
}
