# Blender v2.78 (sub 0) OBJ File: 'Hub With Elevator.blend'
# www.blender.org
mtllib ElevatorPanel.mtl
o Combined_Mesh_(root:_scene).003
v -0.989664 0.103585 -0.123588
v -0.993751 0.103610 -0.102501
v -0.993780 0.073320 -0.102479
v -0.989693 0.073295 -0.123567
v -0.988980 0.096198 -0.122680
v -0.992844 0.096222 -0.102730
vt 0.9141 0.8091
vt 0.5122 0.8091
vt 0.5122 0.4890
vt 0.9141 0.4890
vn 0.9817 -0.0008 0.1903
usemtl BackPlate
s 1
f 1/1/1 2/2/1 3/3/1 4/4/1
l 5 6
o Combined_Mesh_(root:_scene).002
v -0.990254 0.100903 -0.112570
v -0.991034 0.096994 -0.108630
v -0.990690 0.096994 -0.110364
v -0.990251 0.099264 -0.112583
v -0.989820 0.097040 -0.114763
v -0.989473 0.097040 -0.116513
vt 0.2460 0.5498
vt 0.2000 0.5044
vt 0.2195 0.5049
vt 0.2461 0.5308
vt 0.2717 0.5059
vt 0.2908 0.5044
vn 0.9810 0.0001 0.1942
vn 0.9810 -0.0002 0.1940
usemtl UpArrow
s 1
f 7/5/2 8/6/2 9/7/3 10/8/2 11/9/2 12/10/2
