# Blender v2.78 (sub 0) OBJ File: 'Hub.blend'
# www.blender.org
mtllib Pillar.mtl
o Cylinder_Cylinder.001
v 0.000000 0.286021 0.000000
v 0.000000 2.012549 0.000000
v 0.000000 0.286021 -0.225000
v 0.000000 2.012549 -0.225000
v 0.043895 0.286021 -0.220677
v 0.043895 2.012549 -0.220677
v 0.086104 0.286021 -0.207873
v 0.086104 2.012549 -0.207873
v 0.125003 0.286021 -0.187081
v 0.125003 2.012549 -0.187081
v 0.159099 0.286021 -0.159099
v 0.159099 2.012549 -0.159099
v 0.187081 0.286021 -0.125003
v 0.187081 2.012549 -0.125003
v 0.207873 0.286021 -0.086104
v 0.207873 2.012549 -0.086104
v 0.220677 0.286021 -0.043895
v 0.220677 2.012549 -0.043895
v 0.225000 0.286021 -0.000000
v 0.225000 2.012549 -0.000000
v 0.220677 0.286021 0.043895
v 0.220677 2.012549 0.043895
v 0.207873 0.286021 0.086104
v 0.207873 2.012549 0.086104
v 0.187081 0.286021 0.125003
v 0.187081 2.012549 0.125003
v 0.159099 0.286021 0.159099
v 0.159099 2.012549 0.159099
v 0.125003 0.286021 0.187081
v 0.125003 2.012549 0.187081
v 0.086104 0.286021 0.207873
v 0.086104 2.012549 0.207873
v 0.043895 0.286021 0.220677
v 0.043895 2.012549 0.220677
v -0.000000 0.286021 0.225000
v -0.000000 2.012549 0.225000
v -0.043895 0.286021 0.220677
v -0.043895 2.012549 0.220677
v -0.086104 0.286021 0.207873
v -0.086104 2.012549 0.207873
v -0.125003 0.286021 0.187081
v -0.125003 2.012549 0.187081
v -0.159099 0.286021 0.159099
v -0.159099 2.012549 0.159099
v -0.187081 0.286021 0.125003
v -0.187081 2.012549 0.125003
v -0.207873 0.286021 0.086104
v -0.207873 2.012549 0.086104
v -0.220677 0.286021 0.043895
v -0.220677 2.012549 0.043895
v -0.225000 0.286021 -0.000000
v -0.225000 2.012549 -0.000000
v -0.220677 0.286021 -0.043896
v -0.220677 2.012549 -0.043896
v -0.207873 0.286021 -0.086104
v -0.207873 2.012549 -0.086104
v -0.187081 0.286021 -0.125004
v -0.187081 2.012549 -0.125004
v -0.159099 0.286021 -0.159099
v -0.159099 2.012549 -0.159099
v -0.125003 0.286021 -0.187081
v -0.125003 2.012549 -0.187081
v -0.086103 0.286021 -0.207873
v -0.086103 2.012549 -0.207873
v -0.043895 0.286021 -0.220677
v -0.043895 2.012549 -0.220677
vt 0.8694 0.4323
vt 0.9313 0.5600
vt 0.9075 0.5709
vt 0.8694 0.1441
vt 0.9527 0.2560
vt 0.9313 0.2718
vt 0.1633 1.0000
vt 0.1633 0.0000
vt 0.1847 0.0000
vt 0.1847 1.0000
vt 0.8823 0.5764
vt 0.9708 0.2360
vt 0.2029 0.0000
vt 0.2029 1.0000
vt 0.8565 0.5764
vt 0.9851 0.2124
vt 0.7388 0.0000
vt 0.7388 1.0000
vt 0.7174 1.0000
vt 0.7174 0.0000
vt 0.8313 0.5709
vt 0.9950 0.1861
vt 0.6936 1.0000
vt 0.6936 0.0000
vt 0.8075 0.5600
vt 1.0000 0.1583
vt 0.6684 1.0000
vt 0.6684 0.0000
vt 0.7861 0.5442
vt 1.0000 0.1299
vt 0.6427 1.0000
vt 0.6427 0.0000
vt 0.7680 0.5242
vt 0.9950 0.1021
vt 0.6174 1.0000
vt 0.6174 0.0000
vt 0.7537 0.5006
vt 0.9851 0.0758
vt 0.5937 1.0000
vt 0.5937 0.0000
vt 0.7438 0.4743
vt 0.9708 0.0522
vt 0.5723 1.0000
vt 0.5723 0.0000
vt 0.7388 0.4465
vt 0.9527 0.0322
vt 0.3876 0.0000
vt 0.3876 1.0000
vt 0.3694 1.0000
vt 0.3694 0.0000
vt 0.7388 0.4181
vt 0.9313 0.0164
vt 0.3480 1.0000
vt 0.3480 0.0000
vt 0.7438 0.3903
vt 0.9075 0.0055
vt 0.3242 1.0000
vt 0.3242 0.0000
vt 0.7537 0.3640
vt 0.8823 0.0000
vt 0.2990 1.0000
vt 0.2990 0.0000
vt 0.7680 0.3404
vt 0.8565 0.0000
vt 0.2733 1.0000
vt 0.2733 0.0000
vt 0.7861 0.3204
vt 0.8313 0.0055
vt 0.2480 1.0000
vt 0.2480 0.0000
vt 0.8075 0.3046
vt 0.8075 0.0164
vt 0.2243 1.0000
vt 0.2243 0.0000
vt 0.8313 0.2937
vt 0.7861 0.0322
vt 0.2029 1.0000
vt 0.2029 0.0000
vt 0.8565 0.2882
vt 0.7680 0.0522
vt 0.5723 0.0000
vt 0.5723 1.0000
vt 0.5541 1.0000
vt 0.5541 0.0000
vt 0.8823 0.2882
vt 0.7537 0.0758
vt 0.5327 1.0000
vt 0.5327 0.0000
vt 0.9075 0.2937
vt 0.7438 0.1021
vt 0.5089 1.0000
vt 0.5089 0.0000
vt 0.9313 0.3046
vt 0.7388 0.1299
vt 0.4837 1.0000
vt 0.4837 0.0000
vt 0.9527 0.3204
vt 0.7388 0.1583
vt 0.4580 1.0000
vt 0.4580 0.0000
vt 0.9708 0.3404
vt 0.7438 0.1861
vt 0.4327 1.0000
vt 0.4327 0.0000
vt 0.9851 0.3640
vt 0.7537 0.2124
vt 0.4090 1.0000
vt 0.4090 0.0000
vt 0.9950 0.3903
vt 0.7680 0.2360
vt 0.3876 1.0000
vt 0.3876 0.0000
vt 1.0000 0.4181
vt 0.7861 0.2560
vt 0.0000 1.0000
vt 0.0000 0.0000
vt 0.0182 0.0000
vt 0.0182 1.0000
vt 1.0000 0.4465
vt 0.8075 0.2718
vt 0.0396 0.0000
vt 0.0396 1.0000
vt 0.9950 0.4743
vt 0.8313 0.2827
vt 0.0633 0.0000
vt 0.0634 1.0000
vt 0.9851 0.5006
vt 0.8565 0.2882
vt 0.0886 0.0000
vt 0.0886 1.0000
vt 0.9708 0.5242
vt 0.8823 0.2882
vt 0.1143 0.0000
vt 0.1143 1.0000
vt 0.9527 0.5442
vt 0.9075 0.2827
vt 0.1395 0.0000
vt 0.1395 1.0000
vn 0.0000 -1.0000 0.0000
vn 0.0000 1.0000 0.0000
vn 0.0980 0.0000 -0.9952
vn 0.2903 0.0000 -0.9569
vn 0.4714 0.0000 -0.8819
vn 0.6344 0.0000 -0.7730
vn 0.7730 0.0000 -0.6344
vn 0.8819 0.0000 -0.4714
vn 0.9569 0.0000 -0.2903
vn 0.9952 0.0000 -0.0980
vn 0.9952 0.0000 0.0980
vn 0.9569 0.0000 0.2903
vn 0.8819 0.0000 0.4714
vn 0.7730 0.0000 0.6344
vn 0.6344 0.0000 0.7730
vn 0.4714 0.0000 0.8819
vn 0.2903 0.0000 0.9569
vn 0.0980 0.0000 0.9952
vn -0.0980 0.0000 0.9952
vn -0.2903 0.0000 0.9569
vn -0.4714 0.0000 0.8819
vn -0.6344 0.0000 0.7730
vn -0.7730 0.0000 0.6344
vn -0.8819 0.0000 0.4714
vn -0.9569 0.0000 0.2903
vn -0.9952 0.0000 0.0980
vn -0.9952 0.0000 -0.0980
vn -0.9569 0.0000 -0.2903
vn -0.8819 0.0000 -0.4714
vn -0.7730 0.0000 -0.6344
vn -0.6344 0.0000 -0.7730
vn -0.4714 0.0000 -0.8819
vn -0.2903 0.0000 -0.9569
vn -0.0980 0.0000 -0.9952
usemtl PillarMat
s off
f 1/1/1 3/2/1 5/3/1
f 2/4/2 6/5/2 4/6/2
f 3/7/3 4/8/3 6/9/3 5/10/3
f 1/1/1 5/3/1 7/11/1
f 2/4/2 8/12/2 6/5/2
f 5/10/4 6/9/4 8/13/4 7/14/4
f 1/1/1 7/11/1 9/15/1
f 2/4/2 10/16/2 8/12/2
f 7/17/5 8/18/5 10/19/5 9/20/5
f 1/1/1 9/15/1 11/21/1
f 2/4/2 12/22/2 10/16/2
f 9/20/6 10/19/6 12/23/6 11/24/6
f 1/1/1 11/21/1 13/25/1
f 2/4/2 14/26/2 12/22/2
f 11/24/7 12/23/7 14/27/7 13/28/7
f 1/1/1 13/25/1 15/29/1
f 2/4/2 16/30/2 14/26/2
f 13/28/8 14/27/8 16/31/8 15/32/8
f 1/1/1 15/29/1 17/33/1
f 2/4/2 18/34/2 16/30/2
f 15/32/9 16/31/9 18/35/9 17/36/9
f 1/1/1 17/33/1 19/37/1
f 2/4/2 20/38/2 18/34/2
f 17/36/10 18/35/10 20/39/10 19/40/10
f 1/1/1 19/37/1 21/41/1
f 2/4/2 22/42/2 20/38/2
f 19/40/11 20/39/11 22/43/11 21/44/11
f 1/1/1 21/41/1 23/45/1
f 2/4/2 24/46/2 22/42/2
f 21/47/12 22/48/12 24/49/12 23/50/12
f 1/1/1 23/45/1 25/51/1
f 2/4/2 26/52/2 24/46/2
f 23/50/13 24/49/13 26/53/13 25/54/13
f 1/1/1 25/51/1 27/55/1
f 2/4/2 28/56/2 26/52/2
f 25/54/14 26/53/14 28/57/14 27/58/14
f 1/1/1 27/55/1 29/59/1
f 2/4/2 30/60/2 28/56/2
f 27/58/15 28/57/15 30/61/15 29/62/15
f 1/1/1 29/59/1 31/63/1
f 2/4/2 32/64/2 30/60/2
f 29/62/16 30/61/16 32/65/16 31/66/16
f 1/1/1 31/63/1 33/67/1
f 2/4/2 34/68/2 32/64/2
f 31/66/17 32/65/17 34/69/17 33/70/17
f 1/1/1 33/67/1 35/71/1
f 2/4/2 36/72/2 34/68/2
f 33/70/18 34/69/18 36/73/18 35/74/18
f 1/1/1 35/71/1 37/75/1
f 2/4/2 38/76/2 36/72/2
f 35/74/19 36/73/19 38/77/19 37/78/19
f 1/1/1 37/75/1 39/79/1
f 2/4/2 40/80/2 38/76/2
f 37/81/20 38/82/20 40/83/20 39/84/20
f 1/1/1 39/79/1 41/85/1
f 2/4/2 42/86/2 40/80/2
f 39/84/21 40/83/21 42/87/21 41/88/21
f 1/1/1 41/85/1 43/89/1
f 2/4/2 44/90/2 42/86/2
f 41/88/22 42/87/22 44/91/22 43/92/22
f 1/1/1 43/89/1 45/93/1
f 2/4/2 46/94/2 44/90/2
f 43/92/23 44/91/23 46/95/23 45/96/23
f 1/1/1 45/93/1 47/97/1
f 2/4/2 48/98/2 46/94/2
f 45/96/24 46/95/24 48/99/24 47/100/24
f 1/1/1 47/97/1 49/101/1
f 2/4/2 50/102/2 48/98/2
f 47/100/25 48/99/25 50/103/25 49/104/25
f 1/1/1 49/101/1 51/105/1
f 2/4/2 52/106/2 50/102/2
f 49/104/26 50/103/26 52/107/26 51/108/26
f 1/1/1 51/105/1 53/109/1
f 2/4/2 54/110/2 52/106/2
f 51/108/27 52/107/27 54/111/27 53/112/27
f 1/1/1 53/109/1 55/113/1
f 2/4/2 56/114/2 54/110/2
f 53/115/28 54/116/28 56/117/28 55/118/28
f 1/1/1 55/113/1 57/119/1
f 2/4/2 58/120/2 56/114/2
f 55/118/29 56/117/29 58/121/29 57/122/29
f 1/1/1 57/119/1 59/123/1
f 2/4/2 60/124/2 58/120/2
f 57/122/30 58/121/30 60/125/30 59/126/30
f 1/1/1 59/123/1 61/127/1
f 2/4/2 62/128/2 60/124/2
f 59/126/31 60/125/31 62/129/31 61/130/31
f 1/1/1 61/127/1 63/131/1
f 2/4/2 64/132/2 62/128/2
f 61/130/32 62/129/32 64/133/32 63/134/32
f 1/1/1 63/131/1 65/135/1
f 2/4/2 66/136/2 64/132/2
f 63/134/33 64/133/33 66/137/33 65/138/33
f 1/1/1 65/135/1 3/2/1
f 2/4/2 4/6/2 66/136/2
f 65/138/34 66/137/34 4/8/34 3/7/34
