# Blender v2.78 (sub 0) OBJ File: 'Hub With Elevator.blend'
# www.blender.org
mtllib Room.mtl
o Cylinder.001_Cylinder
v 0.000000 0.000000 0.000000
v 0.000000 2.000000 0.000000
v -0.292372 0.000000 -0.956305
v -0.292372 2.000000 -0.956305
v -0.100188 0.000000 -0.994969
v -0.100188 2.000000 -0.994969
v 0.095846 0.000000 -0.995396
v 0.095846 2.000000 -0.995396
v 0.288196 0.000000 -0.957571
v 0.288196 2.000000 -0.957571
v 0.469472 0.000000 -0.882948
v 0.469472 2.000000 -0.882948
v 0.632705 0.000000 -0.774393
v 0.632705 2.000000 -0.774393
v 0.771625 0.000000 -0.636078
v 0.771625 2.000000 -0.636078
v 0.880891 0.000000 -0.473320
v 0.880891 2.000000 -0.473320
v 0.956305 0.000000 -0.292372
v 0.956305 2.000000 -0.292372
v 0.994969 0.000000 -0.100188
v 0.994969 2.000000 -0.100188
v 0.995396 0.000000 0.095846
v 0.995396 2.000000 0.095846
v 0.957571 0.000000 0.288196
v 0.957571 2.000000 0.288196
v 0.882948 0.000000 0.469472
v 0.882948 2.000000 0.469472
v 0.774393 0.000000 0.632705
v 0.774393 2.000000 0.632705
v 0.636078 0.000000 0.771625
v 0.636078 2.000000 0.771625
v 0.473319 0.000000 0.880891
v 0.473319 2.000000 0.880891
v 0.292371 0.000000 0.956305
v 0.292371 2.000000 0.956305
v 0.100188 0.000000 0.994969
v 0.100188 2.000000 0.994969
v -0.095846 0.000000 0.995396
v -0.095846 2.000000 0.995396
v -0.288197 0.000000 0.957571
v -0.288197 2.000000 0.957571
v -0.469472 0.000000 0.882947
v -0.469472 2.000000 0.882947
v -0.632706 0.000000 0.774392
v -0.632706 2.000000 0.774392
v -0.771625 0.000000 0.636078
v -0.771625 2.000000 0.636078
v -0.880891 0.000000 0.473319
v -0.880891 2.000000 0.473319
v -0.956305 0.000000 0.292371
v -0.956305 2.000000 0.292371
v -0.994969 0.000000 0.100187
v -0.994969 2.000000 0.100187
v -0.995396 0.000000 -0.095847
v -0.995396 2.000000 -0.095847
v -0.957571 0.000000 -0.288198
v -0.957571 2.000000 -0.288198
v -0.882947 0.000000 -0.469473
v -0.882947 2.000000 -0.469473
v -0.774392 0.000000 -0.632706
v -0.774392 2.000000 -0.632706
v -0.636077 0.000000 -0.771626
v -0.636077 2.000000 -0.771626
v -0.473318 0.000000 -0.880892
v -0.473318 2.000000 -0.880892
v -0.292372 0.193272 -0.956305
v -0.100188 0.193272 -0.994969
v 0.095846 0.193272 -0.995396
v 0.288196 0.193272 -0.957571
v 0.469472 0.193272 -0.882948
v 0.632705 0.193272 -0.774393
v 0.771625 0.193272 -0.636078
v 0.880891 0.193272 -0.473320
v 0.956305 0.193272 -0.292372
v 0.994969 0.193272 -0.100188
v 0.995396 0.193272 0.095846
v 0.957571 0.193272 0.288196
v 0.882948 0.193272 0.469472
v 0.774393 0.193272 0.632705
v 0.636078 0.193272 0.771625
v 0.473319 0.193272 0.880891
v 0.292371 0.193272 0.956305
v 0.100188 0.193272 0.994969
v -0.095846 0.193272 0.995396
v -0.288197 0.193272 0.957571
v -0.469472 0.193272 0.882947
v -0.632706 0.193272 0.774392
v -0.771625 0.193272 0.636078
v -0.880891 0.193272 0.473319
v -0.956305 0.193272 0.292371
v -0.994969 0.192276 0.100187
v -0.995396 0.190824 -0.095847
v -0.957571 0.193272 -0.288198
v -0.882947 0.193272 -0.469473
v -0.774392 0.193272 -0.632706
v -0.636077 0.193272 -0.771626
v -0.473318 0.193272 -0.880892
v -0.995332 0.000000 -0.067809
v -0.995332 2.000000 -0.066289
v -0.995332 0.190816 -0.067809
v -0.179171 0.000000 -0.017252
v -0.179171 2.000000 -0.017252
v -0.995034 2.000000 0.070221
v -0.995034 0.190816 0.069311
v -0.995034 0.000000 0.069311
v -0.995332 0.000000 -0.068345
v -0.995034 0.000000 0.069851
v -0.995332 0.000000 -0.068345
v -0.995034 0.000000 0.069851
vt 0.2069 0.2488
vt 0.3388 0.4420
vt 0.3049 0.4693
vt 0.2069 0.7464
vt 0.1465 0.5072
vt 0.1865 0.4976
vt 0.9373 0.4517
vt 0.8996 0.4517
vt 0.8996 0.0000
vt 0.9373 0.0000
vt 0.3676 0.4074
vt 0.2273 0.4976
vt 0.8597 0.4517
vt 0.8597 0.0000
vt 0.3902 0.3666
vt 0.2672 0.5072
vt 0.8189 0.4517
vt 0.8189 0.0000
vt 0.4058 0.3214
vt 0.3049 0.5259
vt 0.7789 0.4517
vt 0.7789 0.0000
vt 0.4138 0.2733
vt 0.3388 0.5531
vt 0.7413 0.4517
vt 0.7413 0.0000
vt 0.4138 0.2243
vt 0.3676 0.5878
vt 0.7074 0.4517
vt 0.7074 0.0000
vt 0.4058 0.1762
vt 0.3902 0.6285
vt 0.9990 0.9517
vt 0.9702 0.9517
vt 0.9702 0.5000
vt 0.9990 0.5000
vt 0.3902 0.1309
vt 0.4058 0.6738
vt 0.9363 0.9517
vt 0.9363 0.5000
vt 0.3676 0.0902
vt 0.4138 0.7219
vt 0.8986 0.9517
vt 0.8986 0.5000
vt 0.3388 0.0555
vt 0.4138 0.7709
vt 0.8586 0.9517
vt 0.8586 0.5000
vt 0.3049 0.0283
vt 0.4058 0.8190
vt 0.8179 0.9517
vt 0.8179 0.5000
vt 0.2672 0.0096
vt 0.3902 0.8642
vt 0.7779 0.9517
vt 0.7779 0.5000
vt 0.2273 0.0000
vt 0.3676 0.9050
vt 0.7403 0.9517
vt 0.7403 0.5000
vt 0.1865 0.0000
vt 0.3388 0.9396
vt 0.7064 0.9517
vt 0.7064 0.5000
vt 0.1465 0.0096
vt 0.3049 0.9669
vt 0.6776 0.9517
vt 0.6776 0.5000
vt 0.1089 0.0283
vt 0.2672 0.9856
vt 0.6437 0.9517
vt 0.6437 0.5000
vt 0.0750 0.0555
vt 0.2273 0.9952
vt 0.6060 0.9517
vt 0.6060 0.5000
vt 0.0462 0.0902
vt 0.1865 0.9952
vt 0.5661 0.9517
vt 0.5661 0.5000
vt 0.0235 0.1309
vt 0.1465 0.9856
vt 0.5253 0.9517
vt 0.5253 0.5000
vt 0.0080 0.1762
vt 0.1089 0.9669
vt 0.4853 0.9517
vt 0.4853 0.5000
vt 0.0000 0.2243
vt 0.0750 0.9396
vt 0.4477 0.9517
vt 0.4477 0.5000
vt 0.0000 0.2733
vt 0.0462 0.9050
vt 0.4138 0.9517
vt 0.4138 0.5000
vt 0.0080 0.3214
vt 0.0235 0.8642
vt 0.4138 0.0483
vt 0.4439 0.0483
vt 0.4439 0.5000
vt 0.0235 0.3666
vt 0.0080 0.8190
vt 0.4788 0.0483
vt 0.4788 0.5000
vt 0.0462 0.4074
vt 0.0000 0.7709
vt 0.5172 0.0481
vt 0.5172 0.5000
vt 0.1832 0.2836
vt 0.0750 0.4420
vt 0.0709 0.4371
vt 0.0507 0.4129
vt 0.1697 0.7420
vt 0.0000 0.7634
vt 0.0000 0.7293
vt 0.0000 0.7219
vt 0.5517 0.0477
vt 0.5575 0.0477
vt 0.5575 0.5000
vt 0.5514 0.5000
vt 0.1089 0.4693
vt 0.0080 0.6738
vt 0.5982 0.0483
vt 0.5982 0.5000
vt 0.1465 0.4880
vt 0.0235 0.6285
vt 0.6377 0.0483
vt 0.6377 0.5000
vt 0.1865 0.4976
vt 0.0462 0.5878
vt 0.6746 0.0483
vt 0.6746 0.5000
vt 0.2273 0.4976
vt 0.0750 0.5531
vt 0.7074 0.0483
vt 0.7074 0.5000
vt 0.2672 0.4880
vt 0.1089 0.5259
vt 1.0000 0.4517
vt 0.9712 0.4517
vt 0.9712 0.0000
vt 1.0000 0.0000
vt 0.9712 0.5000
vt 0.9373 0.5000
vt 1.0000 0.5000
vt 0.6746 0.0000
vt 0.7074 0.0000
vt 0.6377 0.0000
vt 0.5982 0.0000
vt 0.5575 0.0000
vt 0.5517 0.0000
vt 0.4788 0.0000
vt 0.5172 0.0000
vt 0.4439 0.0000
vt 0.4138 0.0000
vt 0.4477 1.0000
vt 0.4138 1.0000
vt 0.4853 1.0000
vt 0.5253 1.0000
vt 0.5661 1.0000
vt 0.6060 1.0000
vt 0.6437 1.0000
vt 0.6776 1.0000
vt 0.7064 1.0000
vt 0.7403 1.0000
vt 0.7779 1.0000
vt 0.8179 1.0000
vt 0.8586 1.0000
vt 0.8986 1.0000
vt 0.9363 1.0000
vt 0.9702 1.0000
vt 0.9990 1.0000
vt 0.7413 0.5000
vt 0.7074 0.5000
vt 0.7789 0.5000
vt 0.8189 0.5000
vt 0.8597 0.5000
vt 0.8996 0.5000
vt 0.5235 0.0477
vt 0.5233 0.5000
vt 0.5235 0.0000
vt 0.0710 0.4372
vt 0.0506 0.4128
vt 0.0000 0.0000
vt 0.0000 0.0000
vt 0.0000 0.0000
vt 0.0000 0.0000
vn 0.0000 1.0000 0.0000
vn 0.0000 -1.0000 0.0000
vn 0.1972 0.0000 0.9804
vn 0.0022 0.0000 1.0000
vn -0.1929 0.0000 0.9812
vn -0.3807 0.0000 0.9247
vn -0.5538 0.0000 0.8327
vn -0.7056 0.0000 0.7086
vn -0.8303 0.0000 0.5574
vn -0.9230 0.0000 0.3847
vn -0.9804 0.0000 0.1972
vn -1.0000 0.0000 0.0022
vn -0.9812 0.0000 -0.1930
vn -0.9247 0.0000 -0.3807
vn -0.8327 0.0000 -0.5538
vn -0.7086 0.0000 -0.7056
vn -0.5574 0.0000 -0.8303
vn -0.3847 0.0000 -0.9230
vn -0.1972 0.0000 -0.9804
vn -0.0022 0.0000 -1.0000
vn 0.1930 0.0000 -0.9812
vn 0.3807 0.0000 -0.9247
vn 0.5538 0.0000 -0.8327
vn 0.7056 0.0000 -0.7086
vn 0.8303 0.0000 -0.5574
vn 0.9230 0.0000 -0.3847
vn 0.9804 0.0000 -0.1972
vn 1.0000 0.0000 -0.0022
vn 0.9812 0.0000 0.1930
vn 0.9247 0.0000 0.3807
vn 0.8327 0.0000 0.5538
vn 0.7086 0.0000 0.7056
vn 0.5574 0.0000 0.8303
vn 0.3847 0.0000 0.9230
vn 1.0000 0.0000 -0.0023
vn 1.0000 0.0000 -0.0021
vn 0.0000 0.0000 1.0000
usemtl RoomMat
s off
f 1/1/1 5/2/1 3/3/1
f 2/4/2 4/5/2 6/6/2
f 67/7/3 68/8/3 6/9/3 4/10/3
f 1/1/1 7/11/1 5/2/1
f 2/4/2 6/6/2 8/12/2
f 68/8/4 69/13/4 8/14/4 6/9/4
f 1/1/1 9/15/1 7/11/1
f 2/4/2 8/12/2 10/16/2
f 69/13/5 70/17/5 10/18/5 8/14/5
f 1/1/1 11/19/1 9/15/1
f 2/4/2 10/16/2 12/20/2
f 70/17/6 71/21/6 12/22/6 10/18/6
f 1/1/1 13/23/1 11/19/1
f 2/4/2 12/20/2 14/24/2
f 71/21/7 72/25/7 14/26/7 12/22/7
f 1/1/1 15/27/1 13/23/1
f 2/4/2 14/24/2 16/28/2
f 72/25/8 73/29/8 16/30/8 14/26/8
f 1/1/1 17/31/1 15/27/1
f 2/4/2 16/28/2 18/32/2
f 73/33/9 74/34/9 18/35/9 16/36/9
f 1/1/1 19/37/1 17/31/1
f 2/4/2 18/32/2 20/38/2
f 74/34/10 75/39/10 20/40/10 18/35/10
f 1/1/1 21/41/1 19/37/1
f 2/4/2 20/38/2 22/42/2
f 75/39/11 76/43/11 22/44/11 20/40/11
f 1/1/1 23/45/1 21/41/1
f 2/4/2 22/42/2 24/46/2
f 76/43/12 77/47/12 24/48/12 22/44/12
f 1/1/1 25/49/1 23/45/1
f 2/4/2 24/46/2 26/50/2
f 77/47/13 78/51/13 26/52/13 24/48/13
f 1/1/1 27/53/1 25/49/1
f 2/4/2 26/50/2 28/54/2
f 78/51/14 79/55/14 28/56/14 26/52/14
f 1/1/1 29/57/1 27/53/1
f 2/4/2 28/54/2 30/58/2
f 79/55/15 80/59/15 30/60/15 28/56/15
f 1/1/1 31/61/1 29/57/1
f 2/4/2 30/58/2 32/62/2
f 80/59/16 81/63/16 32/64/16 30/60/16
f 1/1/1 33/65/1 31/61/1
f 2/4/2 32/62/2 34/66/2
f 81/63/17 82/67/17 34/68/17 32/64/17
f 1/1/1 35/69/1 33/65/1
f 2/4/2 34/66/2 36/70/2
f 82/67/18 83/71/18 36/72/18 34/68/18
f 1/1/1 37/73/1 35/69/1
f 2/4/2 36/70/2 38/74/2
f 83/71/19 84/75/19 38/76/19 36/72/19
f 1/1/1 39/77/1 37/73/1
f 2/4/2 38/74/2 40/78/2
f 84/75/20 85/79/20 40/80/20 38/76/20
f 1/1/1 41/81/1 39/77/1
f 2/4/2 40/78/2 42/82/2
f 85/79/21 86/83/21 42/84/21 40/80/21
f 1/1/1 43/85/1 41/81/1
f 2/4/2 42/82/2 44/86/2
f 86/83/22 87/87/22 44/88/22 42/84/22
f 1/1/1 45/89/1 43/85/1
f 2/4/2 44/86/2 46/90/2
f 87/87/23 88/91/23 46/92/23 44/88/23
f 1/1/1 47/93/1 45/89/1
f 2/4/2 46/90/2 48/94/2
f 88/91/24 89/95/24 48/96/24 46/92/24
f 1/1/1 49/97/1 47/93/1
f 2/4/2 48/94/2 50/98/2
f 89/99/25 90/100/25 50/101/25 48/96/25
f 1/1/1 51/102/1 49/97/1
f 2/4/2 50/98/2 52/103/2
f 90/100/26 91/104/26 52/105/26 50/101/26
f 1/1/1 53/106/1 51/102/1
f 2/4/2 52/103/2 54/107/2
f 91/104/27 92/108/27 54/109/27 52/105/27
f 102/110/1 55/111/1 99/112/1 106/113/1
f 103/114/2 104/115/2 100/116/2 56/117/2
f 101/118/28 93/119/28 56/120/28 100/121/28
f 1/1/1 57/122/1 55/111/1 102/110/1
f 2/4/2 103/114/2 56/117/2 58/123/2
f 93/119/29 94/124/29 58/125/29 56/120/29
f 1/1/1 59/126/1 57/122/1
f 2/4/2 58/123/2 60/127/2
f 94/124/30 95/128/30 60/129/30 58/125/30
f 1/1/1 61/130/1 59/126/1
f 2/4/2 60/127/2 62/131/2
f 95/128/31 96/132/31 62/133/31 60/129/31
f 1/1/1 63/134/1 61/130/1
f 2/4/2 62/131/2 64/135/2
f 96/132/32 97/136/32 64/137/32 62/133/32
f 1/1/1 65/138/1 63/134/1
f 2/4/2 64/135/2 66/139/2
f 97/140/33 98/141/33 66/142/33 64/143/33
f 1/1/1 3/3/1 65/138/1
f 2/4/2 66/139/2 4/5/2
f 98/141/34 67/7/34 4/10/34 66/142/34
f 65/144/34 3/145/34 67/7/34 98/141/34
f 63/146/33 65/144/33 98/141/33 97/140/33
f 61/147/32 63/148/32 97/136/32 96/132/32
f 59/149/31 61/147/31 96/132/31 95/128/31
f 57/150/30 59/149/30 95/128/30 94/124/30
f 55/151/29 57/150/29 94/124/29 93/119/29
f 99/152/35 55/151/35 93/119/35 101/118/35
f 51/153/27 53/154/27 92/108/27 91/104/27
f 49/155/26 51/153/26 91/104/26 90/100/26
f 47/156/25 49/155/25 90/100/25 89/99/25
f 45/157/24 47/158/24 89/95/24 88/91/24
f 43/159/23 45/157/23 88/91/23 87/87/23
f 41/160/22 43/159/22 87/87/22 86/83/22
f 39/161/21 41/160/21 86/83/21 85/79/21
f 37/162/20 39/161/20 85/79/20 84/75/20
f 35/163/19 37/162/19 84/75/19 83/71/19
f 33/164/18 35/163/18 83/71/18 82/67/18
f 31/165/17 33/164/17 82/67/17 81/63/17
f 29/166/16 31/165/16 81/63/16 80/59/16
f 27/167/15 29/166/15 80/59/15 79/55/15
f 25/168/14 27/167/14 79/55/14 78/51/14
f 23/169/13 25/168/13 78/51/13 77/47/13
f 21/170/12 23/169/12 77/47/12 76/43/12
f 19/171/11 21/170/11 76/43/11 75/39/11
f 17/172/10 19/171/10 75/39/10 74/34/10
f 15/173/9 17/172/9 74/34/9 73/33/9
f 13/174/8 15/175/8 73/29/8 72/25/8
f 11/176/7 13/174/7 72/25/7 71/21/7
f 9/177/6 11/176/6 71/21/6 70/17/6
f 7/178/5 9/177/5 70/17/5 69/13/5
f 5/179/4 7/178/4 69/13/4 68/8/4
f 3/145/3 5/179/3 68/8/3 67/7/3
f 105/180/28 101/118/28 100/121/28 104/181/28
f 92/108/36 105/180/36 104/181/36 54/109/36
f 53/154/36 106/182/36 105/180/36 92/108/36
f 2/4/2 54/107/2 104/115/2 103/114/2
f 1/1/1 102/110/1 106/113/1 53/106/1
f 106/113/37 99/112/37 107/183/37 108/184/37
f 108/185/37 107/186/37 109/187/37 110/188/37
