{
    "accessors": {
        "accessor_buffer_Cube.007_0": {
            "bufferView": "bufferView_buffer_Cube.007_0",
            "byteOffset": 0,
            "byteStride": 12,
            "componentType": 5126,
            "count": 575,
            "max": [
                3.281177043914795,
                0.7233534455299377,
                0.49062415957450867
            ],
            "min": [
                -3.281177043914795,
                -0.8858721256256104,
                -0.5087845921516418
            ],
            "type": "VEC3"
        },
        "accessor_buffer_Cube.007_1": {
            "bufferView": "bufferView_buffer_Cube.007_0",
            "byteOffset": 6900,
            "byteStride": 12,
            "componentType": 5126,
            "count": 575,
            "max": [
                1.0,
                1.0,
                1.0
            ],
            "min": [
                -1.0,
                -1.0,
                -1.0
            ],
            "type": "VEC3"
        },
        "accessor_buffer_Cube.007_2": {
            "bufferView": "bufferView_buffer_Cube.007_0",
            "byteOffset": 13800,
            "byteStride": 8,
            "componentType": 5126,
            "count": 575,
            "max": [
                0.9967547059059143,
                0.9962416819762439
            ],
            "min": [
                0.0032452500890940428,
                0.0037583112716674805
            ],
            "type": "VEC2"
        },
        "accessor_buffer_Cube.007_3": {
            "bufferView": "bufferView_buffer_Cube.007_1",
            "byteOffset": 0,
            "byteStride": 2,
            "componentType": 5123,
            "count": 144,
            "max": [
                573
            ],
            "min": [
                0
            ],
            "type": "SCALAR"
        },
        "accessor_buffer_Cube.007_4": {
            "bufferView": "bufferView_buffer_Cube.007_2",
            "byteOffset": 0,
            "byteStride": 2,
            "componentType": 5123,
            "count": 48,
            "max": [
                562
            ],
            "min": [
                6
            ],
            "type": "SCALAR"
        },
        "accessor_buffer_Cube.007_5": {
            "bufferView": "bufferView_buffer_Cube.007_3",
            "byteOffset": 0,
            "byteStride": 2,
            "componentType": 5123,
            "count": 666,
            "max": [
                574
            ],
            "min": [
                1
            ],
            "type": "SCALAR"
        },
        "accessor_buffer_Cube.007_6": {
            "bufferView": "bufferView_buffer_Cube.007_4",
            "byteOffset": 0,
            "byteStride": 2,
            "componentType": 5123,
            "count": 156,
            "max": [
                570
            ],
            "min": [
                2
            ],
            "type": "SCALAR"
        },
        "accessor_buffer_Cube.007_7": {
            "bufferView": "bufferView_buffer_Cube.007_5",
            "byteOffset": 0,
            "byteStride": 2,
            "componentType": 5123,
            "count": 12,
            "max": [
                457
            ],
            "min": [
                28
            ],
            "type": "SCALAR"
        },
        "accessor_buffer_Cube.007_8": {
            "bufferView": "bufferView_buffer_Cube.007_6",
            "byteOffset": 0,
            "byteStride": 2,
            "componentType": 5123,
            "count": 72,
            "max": [
                547
            ],
            "min": [
                4
            ],
            "type": "SCALAR"
        }
    },
    "asset": {
        "profile": {
            "api": "WebGL",
            "version": "1.0.3"
        },
        "version": "1.0"
    },
    "bufferViews": {
        "bufferView_buffer_Cube.007_0": {
            "buffer": "buffer_combined",
            "byteLength": 18400,
            "byteOffset": 0,
            "target": 34962
        },
        "bufferView_buffer_Cube.007_1": {
            "buffer": "buffer_combined",
            "byteLength": 288,
            "byteOffset": 18400,
            "target": 34963
        },
        "bufferView_buffer_Cube.007_2": {
            "buffer": "buffer_combined",
            "byteLength": 96,
            "byteOffset": 18688,
            "target": 34963
        },
        "bufferView_buffer_Cube.007_3": {
            "buffer": "buffer_combined",
            "byteLength": 1332,
            "byteOffset": 18784,
            "target": 34963
        },
        "bufferView_buffer_Cube.007_4": {
            "buffer": "buffer_combined",
            "byteLength": 312,
            "byteOffset": 20116,
            "target": 34963
        },
        "bufferView_buffer_Cube.007_5": {
            "buffer": "buffer_combined",
            "byteLength": 24,
            "byteOffset": 20428,
            "target": 34963
        },
        "bufferView_buffer_Cube.007_6": {
            "buffer": "buffer_combined",
            "byteLength": 144,
            "byteOffset": 20452,
            "target": 34963
        }
    },
    "buffers": {
        "buffer_combined": {
            "byteLength": 20596,
            "type": "arraybuffer",
            "uri": "data:text/plain;base64,"
        }
    },
    "extensions": {
        "KHR_materials_common": {
            "lights": {}
        }
    },
    "extensionsUsed": [
        "KHR_materials_common"
    ],
    "images": {
        "image_LightBridge": {
            "uri": "LightBridge.png"
        }
    },
    "materials": {
        "material_Black": {
            "extensions": {
                "KHR_materials_common": {
                    "technique": "PHONG",
                    "values": {
                        "ambient": [
                            1.0,
                            1.0,
                            1.0,
                            1.0
                        ],
                        "diffuse": "texture_LightBridge",
                        "doubleSided": false,
                        "emission": [
                            0.0,
                            0.0,
                            0.0,
                            1.0
                        ],
                        "shininess": 50,
                        "specular": [
                            0.5,
                            0.5,
                            0.5,
                            1.0
                        ],
                        "transparency": 1.0,
                        "transparent": false
                    }
                }
            },
            "name": "Black"
        },
        "material_Metal Blue": {
            "extensions": {
                "KHR_materials_common": {
                    "technique": "PHONG",
                    "values": {
                        "ambient": [
                            1.0,
                            1.0,
                            1.0,
                            1.0
                        ],
                        "diffuse": "texture_LightBridge",
                        "doubleSided": false,
                        "emission": [
                            0.0,
                            0.0,
                            0.0,
                            1.0
                        ],
                        "shininess": 50,
                        "specular": [
                            0.5,
                            0.5,
                            0.5,
                            1.0
                        ],
                        "transparency": 1.0,
                        "transparent": false
                    }
                }
            },
            "name": "Metal Blue"
        },
        "material_Metal Dark": {
            "extensions": {
                "KHR_materials_common": {
                    "technique": "PHONG",
                    "values": {
                        "ambient": [
                            1.0,
                            1.0,
                            1.0,
                            1.0
                        ],
                        "diffuse": "texture_LightBridge",
                        "doubleSided": false,
                        "emission": [
                            0.0,
                            0.0,
                            0.0,
                            1.0
                        ],
                        "shininess": 50,
                        "specular": [
                            0.5,
                            0.5,
                            0.5,
                            1.0
                        ],
                        "transparency": 1.0,
                        "transparent": false
                    }
                }
            },
            "name": "Metal Dark"
        },
        "material_Metal Glow": {
            "extensions": {
                "KHR_materials_common": {
                    "technique": "PHONG",
                    "values": {
                        "ambient": [
                            1.0,
                            1.0,
                            1.0,
                            1.0
                        ],
                        "diffuse": "texture_LightBridge",
                        "doubleSided": false,
                        "emission": [
                            0.0,
                            0.0,
                            0.0,
                            1.0
                        ],
                        "shininess": 50,
                        "specular": [
                            0.5,
                            0.5,
                            0.5,
                            1.0
                        ],
                        "transparency": 1.0,
                        "transparent": false
                    }
                }
            },
            "name": "Metal Glow"
        },
        "material_Metal Light": {
            "extensions": {
                "KHR_materials_common": {
                    "technique": "PHONG",
                    "values": {
                        "ambient": [
                            1.0,
                            1.0,
                            1.0,
                            1.0
                        ],
                        "diffuse": "texture_LightBridge",
                        "doubleSided": false,
                        "emission": [
                            0.0,
                            0.0,
                            0.0,
                            1.0
                        ],
                        "shininess": 50,
                        "specular": [
                            0.5,
                            0.5,
                            0.5,
                            1.0
                        ],
                        "transparency": 1.0,
                        "transparent": false
                    }
                }
            },
            "name": "Metal Light"
        },
        "material_Warning": {
            "extensions": {
                "KHR_materials_common": {
                    "technique": "PHONG",
                    "values": {
                        "ambient": [
                            1.0,
                            1.0,
                            1.0,
                            1.0
                        ],
                        "diffuse": "texture_LightBridge",
                        "doubleSided": false,
                        "emission": [
                            0.0,
                            0.0,
                            0.0,
                            1.0
                        ],
                        "shininess": 50,
                        "specular": [
                            0.5,
                            0.5,
                            0.5,
                            1.0
                        ],
                        "transparency": 1.0,
                        "transparent": false
                    }
                }
            },
            "name": "Warning"
        }
    },
    "meshes": {
        "mesh_Cube.007": {
            "name": "Cube.007",
            "primitives": [
                {
                    "attributes": {
                        "NORMAL": "accessor_buffer_Cube.007_1",
                        "POSITION": "accessor_buffer_Cube.007_0",
                        "TEXCOORD_0": "accessor_buffer_Cube.007_2"
                    },
                    "indices": "accessor_buffer_Cube.007_3",
                    "material": "material_Metal Light",
                    "mode": 4
                },
                {
                    "attributes": {
                        "NORMAL": "accessor_buffer_Cube.007_1",
                        "POSITION": "accessor_buffer_Cube.007_0",
                        "TEXCOORD_0": "accessor_buffer_Cube.007_2"
                    },
                    "indices": "accessor_buffer_Cube.007_4",
                    "material": "material_Warning",
                    "mode": 4
                },
                {
                    "attributes": {
                        "NORMAL": "accessor_buffer_Cube.007_1",
                        "POSITION": "accessor_buffer_Cube.007_0",
                        "TEXCOORD_0": "accessor_buffer_Cube.007_2"
                    },
                    "indices": "accessor_buffer_Cube.007_5",
                    "material": "material_Metal Blue",
                    "mode": 4
                },
                {
                    "attributes": {
                        "NORMAL": "accessor_buffer_Cube.007_1",
                        "POSITION": "accessor_buffer_Cube.007_0",
                        "TEXCOORD_0": "accessor_buffer_Cube.007_2"
                    },
                    "indices": "accessor_buffer_Cube.007_6",
                    "material": "material_Metal Dark",
                    "mode": 4
                },
                {
                    "attributes": {
                        "NORMAL": "accessor_buffer_Cube.007_1",
                        "POSITION": "accessor_buffer_Cube.007_0",
                        "TEXCOORD_0": "accessor_buffer_Cube.007_2"
                    },
                    "indices": "accessor_buffer_Cube.007_7",
                    "material": "material_Black",
                    "mode": 4
                },
                {
                    "attributes": {
                        "NORMAL": "accessor_buffer_Cube.007_1",
                        "POSITION": "accessor_buffer_Cube.007_0",
                        "TEXCOORD_0": "accessor_buffer_Cube.007_2"
                    },
                    "indices": "accessor_buffer_Cube.007_8",
                    "material": "material_Metal Glow",
                    "mode": 4
                }
            ]
        }
    },
    "nodes": {
        "node_LBSnow1": {
            "children": [],
            "matrix": [
                0.8206425905227661,
                -0.034614112228155136,
                0.032118771225214005,
                0.0,
                0.02292802557349205,
                0.7808736562728882,
                0.2557238042354584,
                0.0,
                -0.04128023609519005,
                -0.2544056177139282,
                0.7805496454238892,
                0.0,
                -47.755516052246094,
                58.40353775024414,
                -28.427249908447266,
                1.0
            ],
            "meshes": [
                "mesh_Cube.007"
            ],
            "name": "LBSnow1"
        },
        "node_scene_Scene_root": {
            "children": [
                "node_LBSnow1"
            ],
            "matrix": [
                1.0,
                0.0,
                0.0,
                0.0,
                0.0,
                0.0,
                -1.0,
                0.0,
                0.0,
                1.0,
                0.0,
                0.0,
                0.0,
                0.0,
                0.0,
                1.0
            ],
            "name": "node_scene_Scene_root"
        }
    },
    "samplers": {
        "sampler_default": {}
    },
    "scene": "scene_Scene",
    "scenes": {
        "scene_Scene": {
            "extras": {
                "active_camera": null,
                "background_color": [
                    0.06071953475475311,
                    0.06071953475475311,
                    0.06071953475475311
                ],
                "frames_per_second": 24
            },
            "name": "Scene",
            "nodes": [
                "node_scene_Scene_root"
            ]
        }
    },
    "textures": {
        "texture_LightBridge": {
            "format": 6408,
            "internalFormat": 6408,
            "sampler": "sampler_default",
            "source": "image_LightBridge"
        }
    }
}
