{
    "accessors": {
        "accessor_buffer_Cube.008_0": {
            "bufferView": "bufferView_buffer_Cube.008_0",
            "byteOffset": 0,
            "byteStride": 12,
            "componentType": 5126,
            "count": 587,
            "max": [
                3.281177043914795,
                0.7233534455299377,
                0.49062415957450867
            ],
            "min": [
                -3.281177043914795,
                -0.8858721256256104,
                -0.5087845921516418
            ],
            "type": "VEC3"
        },
        "accessor_buffer_Cube.008_1": {
            "bufferView": "bufferView_buffer_Cube.008_0",
            "byteOffset": 7044,
            "byteStride": 12,
            "componentType": 5126,
            "count": 587,
            "max": [
                1.0,
                1.0,
                1.0
            ],
            "min": [
                -1.0,
                -1.0,
                -1.0
            ],
            "type": "VEC3"
        },
        "accessor_buffer_Cube.008_2": {
            "bufferView": "bufferView_buffer_Cube.008_0",
            "byteOffset": 14088,
            "byteStride": 8,
            "componentType": 5126,
            "count": 587,
            "max": [
                0.9967547059059143,
                1.0
            ],
            "min": [
                0.0,
                0.0037583112716674805
            ],
            "type": "VEC2"
        },
        "accessor_buffer_Cube.008_3": {
            "bufferView": "bufferView_buffer_Cube.008_1",
            "byteOffset": 0,
            "byteStride": 2,
            "componentType": 5123,
            "count": 144,
            "max": [
                585
            ],
            "min": [
                0
            ],
            "type": "SCALAR"
        },
        "accessor_buffer_Cube.008_4": {
            "bufferView": "bufferView_buffer_Cube.008_2",
            "byteOffset": 0,
            "byteStride": 2,
            "componentType": 5123,
            "count": 48,
            "max": [
                574
            ],
            "min": [
                6
            ],
            "type": "SCALAR"
        },
        "accessor_buffer_Cube.008_5": {
            "bufferView": "bufferView_buffer_Cube.008_3",
            "byteOffset": 0,
            "byteStride": 2,
            "componentType": 5123,
            "count": 666,
            "max": [
                586
            ],
            "min": [
                1
            ],
            "type": "SCALAR"
        },
        "accessor_buffer_Cube.008_6": {
            "bufferView": "bufferView_buffer_Cube.008_4",
            "byteOffset": 0,
            "byteStride": 2,
            "componentType": 5123,
            "count": 156,
            "max": [
                582
            ],
            "min": [
                2
            ],
            "type": "SCALAR"
        },
        "accessor_buffer_Cube.008_7": {
            "bufferView": "bufferView_buffer_Cube.008_5",
            "byteOffset": 0,
            "byteStride": 2,
            "componentType": 5123,
            "count": 24,
            "max": [
                562
            ],
            "min": [
                26
            ],
            "type": "SCALAR"
        },
        "accessor_buffer_Cube.008_8": {
            "bufferView": "bufferView_buffer_Cube.008_6",
            "byteOffset": 0,
            "byteStride": 2,
            "componentType": 5123,
            "count": 72,
            "max": [
                557
            ],
            "min": [
                4
            ],
            "type": "SCALAR"
        }
    },
    "asset": {
        "profile": {
            "api": "WebGL",
            "version": "1.0.3"
        },
        "version": "1.0"
    },
    "bufferViews": {
        "bufferView_buffer_Cube.008_0": {
            "buffer": "buffer_combined",
            "byteLength": 18784,
            "byteOffset": 0,
            "target": 34962
        },
        "bufferView_buffer_Cube.008_1": {
            "buffer": "buffer_combined",
            "byteLength": 288,
            "byteOffset": 18784,
            "target": 34963
        },
        "bufferView_buffer_Cube.008_2": {
            "buffer": "buffer_combined",
            "byteLength": 96,
            "byteOffset": 19072,
            "target": 34963
        },
        "bufferView_buffer_Cube.008_3": {
            "buffer": "buffer_combined",
            "byteLength": 1332,
            "byteOffset": 19168,
            "target": 34963
        },
        "bufferView_buffer_Cube.008_4": {
            "buffer": "buffer_combined",
            "byteLength": 312,
            "byteOffset": 20500,
            "target": 34963
        },
        "bufferView_buffer_Cube.008_5": {
            "buffer": "buffer_combined",
            "byteLength": 48,
            "byteOffset": 20812,
            "target": 34963
        },
        "bufferView_buffer_Cube.008_6": {
            "buffer": "buffer_combined",
            "byteLength": 144,
            "byteOffset": 20860,
            "target": 34963
        }
    },
    "buffers": {
        "buffer_combined": {
            "byteLength": 21004,
            "type": "arraybuffer",
            "uri": "data:text/plain;base64,"
        }
    },
    "extensions": {
        "KHR_materials_common": {
            "lights": {}
        }
    },
    "extensionsUsed": [
        "KHR_materials_common"
    ],
    "images": {
        "image_LightBridge": {
            "uri": "LightBridge.png"
        }
    },
    "materials": {
        "material_Black": {
            "extensions": {
                "KHR_materials_common": {
                    "technique": "PHONG",
                    "values": {
                        "ambient": [
                            1.0,
                            1.0,
                            1.0,
                            1.0
                        ],
                        "diffuse": "texture_LightBridge",
                        "doubleSided": false,
                        "emission": [
                            0.0,
                            0.0,
                            0.0,
                            1.0
                        ],
                        "shininess": 50,
                        "specular": [
                            0.5,
                            0.5,
                            0.5,
                            1.0
                        ],
                        "transparency": 1.0,
                        "transparent": false
                    }
                }
            },
            "name": "Black"
        },
        "material_Metal Blue": {
            "extensions": {
                "KHR_materials_common": {
                    "technique": "PHONG",
                    "values": {
                        "ambient": [
                            1.0,
                            1.0,
                            1.0,
                            1.0
                        ],
                        "diffuse": "texture_LightBridge",
                        "doubleSided": false,
                        "emission": [
                            0.0,
                            0.0,
                            0.0,
                            1.0
                        ],
                        "shininess": 50,
                        "specular": [
                            0.5,
                            0.5,
                            0.5,
                            1.0
                        ],
                        "transparency": 1.0,
                        "transparent": false
                    }
                }
            },
            "name": "Metal Blue"
        },
        "material_Metal Dark": {
            "extensions": {
                "KHR_materials_common": {
                    "technique": "PHONG",
                    "values": {
                        "ambient": [
                            1.0,
                            1.0,
                            1.0,
                            1.0
                        ],
                        "diffuse": "texture_LightBridge",
                        "doubleSided": false,
                        "emission": [
                            0.0,
                            0.0,
                            0.0,
                            1.0
                        ],
                        "shininess": 50,
                        "specular": [
                            0.5,
                            0.5,
                            0.5,
                            1.0
                        ],
                        "transparency": 1.0,
                        "transparent": false
                    }
                }
            },
            "name": "Metal Dark"
        },
        "material_Metal Glow": {
            "extensions": {
                "KHR_materials_common": {
                    "technique": "PHONG",
                    "values": {
                        "ambient": [
                            1.0,
                            1.0,
                            1.0,
                            1.0
                        ],
                        "diffuse": "texture_LightBridge",
                        "doubleSided": false,
                        "emission": [
                            0.0,
                            0.0,
                            0.0,
                            1.0
                        ],
                        "shininess": 50,
                        "specular": [
                            0.5,
                            0.5,
                            0.5,
                            1.0
                        ],
                        "transparency": 1.0,
                        "transparent": false
                    }
                }
            },
            "name": "Metal Glow"
        },
        "material_Metal Light": {
            "extensions": {
                "KHR_materials_common": {
                    "technique": "PHONG",
                    "values": {
                        "ambient": [
                            1.0,
                            1.0,
                            1.0,
                            1.0
                        ],
                        "diffuse": "texture_LightBridge",
                        "doubleSided": false,
                        "emission": [
                            0.0,
                            0.0,
                            0.0,
                            1.0
                        ],
                        "shininess": 50,
                        "specular": [
                            0.5,
                            0.5,
                            0.5,
                            1.0
                        ],
                        "transparency": 1.0,
                        "transparent": false
                    }
                }
            },
            "name": "Metal Light"
        },
        "material_Warning": {
            "extensions": {
                "KHR_materials_common": {
                    "technique": "PHONG",
                    "values": {
                        "ambient": [
                            1.0,
                            1.0,
                            1.0,
                            1.0
                        ],
                        "diffuse": "texture_LightBridge",
                        "doubleSided": false,
                        "emission": [
                            0.0,
                            0.0,
                            0.0,
                            1.0
                        ],
                        "shininess": 50,
                        "specular": [
                            0.5,
                            0.5,
                            0.5,
                            1.0
                        ],
                        "transparency": 1.0,
                        "transparent": false
                    }
                }
            },
            "name": "Warning"
        }
    },
    "meshes": {
        "mesh_Cube.008": {
            "name": "Cube.008",
            "primitives": [
                {
                    "attributes": {
                        "NORMAL": "accessor_buffer_Cube.008_1",
                        "POSITION": "accessor_buffer_Cube.008_0",
                        "TEXCOORD_0": "accessor_buffer_Cube.008_2"
                    },
                    "indices": "accessor_buffer_Cube.008_3",
                    "material": "material_Metal Light",
                    "mode": 4
                },
                {
                    "attributes": {
                        "NORMAL": "accessor_buffer_Cube.008_1",
                        "POSITION": "accessor_buffer_Cube.008_0",
                        "TEXCOORD_0": "accessor_buffer_Cube.008_2"
                    },
                    "indices": "accessor_buffer_Cube.008_4",
                    "material": "material_Warning",
                    "mode": 4
                },
                {
                    "attributes": {
                        "NORMAL": "accessor_buffer_Cube.008_1",
                        "POSITION": "accessor_buffer_Cube.008_0",
                        "TEXCOORD_0": "accessor_buffer_Cube.008_2"
                    },
                    "indices": "accessor_buffer_Cube.008_5",
                    "material": "material_Metal Blue",
                    "mode": 4
                },
                {
                    "attributes": {
                        "NORMAL": "accessor_buffer_Cube.008_1",
                        "POSITION": "accessor_buffer_Cube.008_0",
                        "TEXCOORD_0": "accessor_buffer_Cube.008_2"
                    },
                    "indices": "accessor_buffer_Cube.008_6",
                    "material": "material_Metal Dark",
                    "mode": 4
                },
                {
                    "attributes": {
                        "NORMAL": "accessor_buffer_Cube.008_1",
                        "POSITION": "accessor_buffer_Cube.008_0",
                        "TEXCOORD_0": "accessor_buffer_Cube.008_2"
                    },
                    "indices": "accessor_buffer_Cube.008_7",
                    "material": "material_Black",
                    "mode": 4
                },
                {
                    "attributes": {
                        "NORMAL": "accessor_buffer_Cube.008_1",
                        "POSITION": "accessor_buffer_Cube.008_0",
                        "TEXCOORD_0": "accessor_buffer_Cube.008_2"
                    },
                    "indices": "accessor_buffer_Cube.008_8",
                    "material": "material_Metal Glow",
                    "mode": 4
                }
            ]
        }
    },
    "nodes": {
        "node_LBSnow2": {
            "children": [],
            "matrix": [
                0.8206425905227661,
                -0.034614112228155136,
                0.032118771225214005,
                0.0,
                -0.02292790450155735,
                -0.7808729410171509,
                -0.25572603940963745,
                0.0,
                0.04128029942512512,
                0.2544078528881073,
                -0.7805489301681519,
                0.0,
                -45.758968353271484,
                126.4007568359375,
                -6.159158706665039,
                1.0
            ],
            "meshes": [
                "mesh_Cube.008"
            ],
            "name": "LBSnow2"
        },
        "node_scene_Scene_root": {
            "children": [
                "node_LBSnow2"
            ],
            "matrix": [
                1.0,
                0.0,
                0.0,
                0.0,
                0.0,
                0.0,
                -1.0,
                0.0,
                0.0,
                1.0,
                0.0,
                0.0,
                0.0,
                0.0,
                0.0,
                1.0
            ],
            "name": "node_scene_Scene_root"
        }
    },
    "samplers": {
        "sampler_default": {}
    },
    "scene": "scene_Scene",
    "scenes": {
        "scene_Scene": {
            "extras": {
                "active_camera": null,
                "background_color": [
                    0.06071953475475311,
                    0.06071953475475311,
                    0.06071953475475311
                ],
                "frames_per_second": 24
            },
            "name": "Scene",
            "nodes": [
                "node_scene_Scene_root"
            ]
        }
    },
    "textures": {
        "texture_LightBridge": {
            "format": 6408,
            "internalFormat": 6408,
            "sampler": "sampler_default",
            "source": "image_LightBridge"
        }
    }
}
