{
    "accessors": {
        "accessor_buffer_Cube.016_0": {
            "bufferView": "bufferView_buffer_Cube.016_0",
            "byteOffset": 0,
            "byteStride": 12,
            "componentType": 5126,
            "count": 616,
            "max": [
                37.1279296875,
                25.46247100830078,
                26.59542465209961
            ],
            "min": [
                -23.59890365600586,
                -36.36515808105469,
                -11.257122039794922
            ],
            "type": "VEC3"
        },
        "accessor_buffer_Cube.016_1": {
            "bufferView": "bufferView_buffer_Cube.016_0",
            "byteOffset": 7392,
            "byteStride": 12,
            "componentType": 5126,
            "count": 616,
            "max": [
                0.9572687745094299,
                0.9996767640113831,
                0.9996294975280762
            ],
            "min": [
                -0.9975668787956238,
                -0.9971253871917725,
                -0.9987954497337341
            ],
            "type": "VEC3"
        },
        "accessor_buffer_Cube.016_2": {
            "bufferView": "bufferView_buffer_Cube.016_0",
            "byteOffset": 14784,
            "byteStride": 8,
            "componentType": 5126,
            "count": 616,
            "max": [
                0.9988946914672852,
                0.9988946596859023
            ],
            "min": [
                0.0011053403140977025,
                0.001954019069671631
            ],
            "type": "VEC2"
        },
        "accessor_buffer_Cube.016_3": {
            "bufferView": "bufferView_buffer_Cube.016_0",
            "byteOffset": 19712,
            "byteStride": 12,
            "componentType": 5126,
            "count": 616,
            "max": [
                1.0,
                1.0,
                1.0
            ],
            "min": [
                1.0,
                1.0,
                1.0
            ],
            "type": "VEC3"
        },
        "accessor_buffer_Cube.016_4": {
            "bufferView": "bufferView_buffer_Cube.016_1",
            "byteOffset": 0,
            "byteStride": 2,
            "componentType": 5123,
            "count": 744,
            "max": [
                615
            ],
            "min": [
                0
            ],
            "type": "SCALAR"
        },
        "accessor_buffer_Cube.016_5": {
            "bufferView": "bufferView_buffer_Cube.016_2",
            "byteOffset": 0,
            "byteStride": 2,
            "componentType": 5123,
            "count": 48,
            "max": [
                566
            ],
            "min": [
                34
            ],
            "type": "SCALAR"
        }
    },
    "asset": {
        "profile": {
            "api": "WebGL",
            "version": "1.0.3"
        },
        "version": "1.0"
    },
    "bufferViews": {
        "bufferView_buffer_Cube.016_0": {
            "buffer": "buffer_combined",
            "byteLength": 27104,
            "byteOffset": 0,
            "target": 34962
        },
        "bufferView_buffer_Cube.016_1": {
            "buffer": "buffer_combined",
            "byteLength": 1488,
            "byteOffset": 27104,
            "target": 34963
        },
        "bufferView_buffer_Cube.016_2": {
            "buffer": "buffer_combined",
            "byteLength": 96,
            "byteOffset": 28592,
            "target": 34963
        }
    },
    "buffers": {
        "buffer_combined": {
            "byteLength": 28688,
            "type": "arraybuffer",
            "uri": "data:text/plain;base64,"
        }
    },
    "extensions": {
        "KHR_materials_common": {
            "lights": {}
        }
    },
    "extensionsUsed": [
        "KHR_materials_common"
    ],
    "images": {
        "image_MainIslandCaverns1": {
            "uri": "MainIslandCaverns1.png"
        },
        "image_MainIslandCaves": {
            "uri": "MainIslandCaves.png"
        }
    },
    "materials": {
        "material_CavernDirtRock": {
            "extensions": {
                "KHR_materials_common": {
                    "technique": "PHONG",
                    "values": {
                        "ambient": [
                            1.0,
                            1.0,
                            1.0,
                            1.0
                        ],
                        "diffuse": "texture_Caves",
                        "doubleSided": false,
                        "emission": [
                            0.0,
                            0.0,
                            0.0,
                            1.0
                        ],
                        "shininess": 50,
                        "specular": [
                            0.5,
                            0.5,
                            0.5,
                            1.0
                        ],
                        "transparency": 1.0,
                        "transparent": false
                    }
                }
            },
            "name": "CavernDirtRock"
        },
        "material_CavernRock": {
            "extensions": {
                "KHR_materials_common": {
                    "technique": "PHONG",
                    "values": {
                        "ambient": [
                            1.0,
                            1.0,
                            1.0,
                            1.0
                        ],
                        "diffuse": "texture_Cavern1",
                        "doubleSided": false,
                        "emission": [
                            0.0,
                            0.0,
                            0.0,
                            1.0
                        ],
                        "shininess": 50,
                        "specular": [
                            0.5,
                            0.5,
                            0.5,
                            1.0
                        ],
                        "transparency": 1.0,
                        "transparent": false
                    }
                }
            },
            "name": "CavernRock"
        }
    },
    "meshes": {
        "mesh_Cube.016": {
            "name": "Cube.016",
            "primitives": [
                {
                    "attributes": {
                        "COLOR_0": "accessor_buffer_Cube.016_3",
                        "NORMAL": "accessor_buffer_Cube.016_1",
                        "POSITION": "accessor_buffer_Cube.016_0",
                        "TEXCOORD_0": "accessor_buffer_Cube.016_2"
                    },
                    "indices": "accessor_buffer_Cube.016_4",
                    "material": "material_CavernRock",
                    "mode": 4
                },
                {
                    "attributes": {
                        "COLOR_0": "accessor_buffer_Cube.016_3",
                        "NORMAL": "accessor_buffer_Cube.016_1",
                        "POSITION": "accessor_buffer_Cube.016_0",
                        "TEXCOORD_0": "accessor_buffer_Cube.016_2"
                    },
                    "indices": "accessor_buffer_Cube.016_5",
                    "material": "material_CavernDirtRock",
                    "mode": 4
                }
            ]
        }
    },
    "nodes": {
        "node_Cavern1 Alone.001": {
            "children": [],
            "matrix": [
                1.0,
                0.0,
                0.0,
                0.0,
                0.0,
                1.0,
                0.0,
                0.0,
                0.0,
                0.0,
                1.0,
                0.0,
                21.156246185302734,
                41.23680877685547,
                -59.13532638549805,
                1.0
            ],
            "meshes": [
                "mesh_Cube.016"
            ],
            "name": "Cavern1 Alone.001"
        },
        "node_scene_Scene_root": {
            "children": [
                "node_Cavern1 Alone.001"
            ],
            "matrix": [
                1.0,
                0.0,
                0.0,
                0.0,
                0.0,
                0.0,
                -1.0,
                0.0,
                0.0,
                1.0,
                0.0,
                0.0,
                0.0,
                0.0,
                0.0,
                1.0
            ],
            "name": "node_scene_Scene_root"
        }
    },
    "samplers": {
        "sampler_default": {}
    },
    "scene": "scene_Scene",
    "scenes": {
        "scene_Scene": {
            "extras": {
                "active_camera": null,
                "background_color": [
                    0.06700000166893005,
                    0.06700000166893005,
                    0.066805899143219
                ],
                "frames_per_second": 24
            },
            "name": "Scene",
            "nodes": [
                "node_scene_Scene_root"
            ]
        }
    },
    "textures": {
        "texture_Cavern1": {
            "format": 6408,
            "internalFormat": 6408,
            "sampler": "sampler_default",
            "source": "image_MainIslandCaverns1"
        },
        "texture_Caves": {
            "format": 6408,
            "internalFormat": 6408,
            "sampler": "sampler_default",
            "source": "image_MainIslandCaves"
        }
    }
}
