{
    "accessors": {
        "accessor_buffer_Cube.003_0": {
            "bufferView": "bufferView_buffer_Cube.003_0",
            "byteOffset": 0,
            "byteStride": 12,
            "componentType": 5126,
            "count": 616,
            "max": [
                12.543947219848633,
                67.22261047363281,
                1.2322931289672852
            ],
            "min": [
                -43.937171936035156,
                12.688623428344727,
                -22.520383834838867
            ],
            "type": "VEC3"
        },
        "accessor_buffer_Cube.003_1": {
            "bufferView": "bufferView_buffer_Cube.003_0",
            "byteOffset": 7392,
            "byteStride": 12,
            "componentType": 5126,
            "count": 616,
            "max": [
                0.9572687745094299,
                0.9996767044067383,
                0.9996294975280762
            ],
            "min": [
                -0.9975669384002686,
                -0.9971245527267456,
                -0.9987955093383789
            ],
            "type": "VEC3"
        },
        "accessor_buffer_Cube.003_2": {
            "bufferView": "bufferView_buffer_Cube.003_0",
            "byteOffset": 14784,
            "byteStride": 8,
            "componentType": 5126,
            "count": 616,
            "max": [
                0.9987940192222595,
                0.9988877282012254
            ],
            "min": [
                0.0011122717987746,
                0.0011122822761535645
            ],
            "type": "VEC2"
        },
        "accessor_buffer_Cube.003_3": {
            "bufferView": "bufferView_buffer_Cube.003_0",
            "byteOffset": 19712,
            "byteStride": 12,
            "componentType": 5126,
            "count": 616,
            "max": [
                1.0,
                1.0,
                1.0
            ],
            "min": [
                1.0,
                1.0,
                1.0
            ],
            "type": "VEC3"
        },
        "accessor_buffer_Cube.003_4": {
            "bufferView": "bufferView_buffer_Cube.003_1",
            "byteOffset": 0,
            "byteStride": 2,
            "componentType": 5123,
            "count": 792,
            "max": [
                615
            ],
            "min": [
                0
            ],
            "type": "SCALAR"
        }
    },
    "asset": {
        "profile": {
            "api": "WebGL",
            "version": "1.0.3"
        },
        "version": "1.0"
    },
    "bufferViews": {
        "bufferView_buffer_Cube.003_0": {
            "buffer": "buffer_combined",
            "byteLength": 27104,
            "byteOffset": 0,
            "target": 34962
        },
        "bufferView_buffer_Cube.003_1": {
            "buffer": "buffer_combined",
            "byteLength": 1584,
            "byteOffset": 27104,
            "target": 34963
        }
    },
    "buffers": {
        "buffer_combined": {
            "byteLength": 28688,
            "type": "arraybuffer",
            "uri": "data:text/plain;base64,"
        }
    },
    "extensions": {
        "KHR_materials_common": {
            "lights": {}
        }
    },
    "extensionsUsed": [
        "KHR_materials_common"
    ],
    "images": {
        "image_MainIslandCaverns1": {
            "uri": "MainIslandCaverns1.png"
        }
    },
    "materials": {
        "material_CaveRock": {
            "extensions": {
                "KHR_materials_common": {
                    "technique": "PHONG",
                    "values": {
                        "ambient": [
                            1.0,
                            1.0,
                            1.0,
                            1.0
                        ],
                        "diffuse": "texture_Cavern1",
                        "doubleSided": false,
                        "emission": [
                            0.0,
                            0.0,
                            0.0,
                            1.0
                        ],
                        "shininess": 50,
                        "specular": [
                            0.5,
                            0.5,
                            0.5,
                            1.0
                        ],
                        "transparency": 1.0,
                        "transparent": false
                    }
                }
            },
            "name": "CaveRock"
        }
    },
    "meshes": {
        "mesh_Cube.003": {
            "name": "Cube.003",
            "primitives": [
                {
                    "attributes": {
                        "COLOR_0": "accessor_buffer_Cube.003_3",
                        "NORMAL": "accessor_buffer_Cube.003_1",
                        "POSITION": "accessor_buffer_Cube.003_0",
                        "TEXCOORD_0": "accessor_buffer_Cube.003_2"
                    },
                    "indices": "accessor_buffer_Cube.003_4",
                    "material": "material_CaveRock",
                    "mode": 4
                }
            ]
        }
    },
    "nodes": {
        "node_Cavern1": {
            "children": [],
            "matrix": [
                1.0,
                0.0,
                0.0,
                0.0,
                0.0,
                1.0,
                0.0,
                0.0,
                0.0,
                0.0,
                1.0,
                0.0,
                45.740230560302734,
                -7.816972255706787,
                -33.772193908691406,
                1.0
            ],
            "meshes": [
                "mesh_Cube.003"
            ],
            "name": "Cavern1"
        },
        "node_scene_Scene_root": {
            "children": [
                "node_Cavern1"
            ],
            "matrix": [
                1.0,
                0.0,
                0.0,
                0.0,
                0.0,
                0.0,
                -1.0,
                0.0,
                0.0,
                1.0,
                0.0,
                0.0,
                0.0,
                0.0,
                0.0,
                1.0
            ],
            "name": "node_scene_Scene_root"
        }
    },
    "samplers": {
        "sampler_default": {}
    },
    "scene": "scene_Scene",
    "scenes": {
        "scene_Scene": {
            "extras": {
                "active_camera": null,
                "background_color": [
                    0.06700000166893005,
                    0.06700000166893005,
                    0.066805899143219
                ],
                "frames_per_second": 24
            },
            "name": "Scene",
            "nodes": [
                "node_scene_Scene_root"
            ]
        }
    },
    "textures": {
        "texture_Cavern1": {
            "format": 6408,
            "internalFormat": 6408,
            "sampler": "sampler_default",
            "source": "image_MainIslandCaverns1"
        }
    }
}
