{
    "accessors": {
        "accessor_buffer_Cube.002_0": {
            "bufferView": "bufferView_buffer_Cube.002_0",
            "byteOffset": 0,
            "byteStride": 12,
            "componentType": 5126,
            "count": 2047,
            "max": [
                33.07330322265625,
                80.91791534423828,
                10.976856231689453
            ],
            "min": [
                -50.91797637939453,
                -32.448429107666016,
                -22.220216751098633
            ],
            "type": "VEC3"
        },
        "accessor_buffer_Cube.002_1": {
            "bufferView": "bufferView_buffer_Cube.002_0",
            "byteOffset": 24564,
            "byteStride": 12,
            "componentType": 5126,
            "count": 2047,
            "max": [
                0.9951191544532776,
                0.9959405064582825,
                0.999963104724884
            ],
            "min": [
                -0.9992207288742065,
                -0.999538004398346,
                -0.9998817443847656
            ],
            "type": "VEC3"
        },
        "accessor_buffer_Cube.002_2": {
            "bufferView": "bufferView_buffer_Cube.002_0",
            "byteOffset": 49128,
            "byteStride": 8,
            "componentType": 5126,
            "count": 2047,
            "max": [
                0.9979796409606934,
                0.9979796407278627
            ],
            "min": [
                0.0020203592721372843,
                0.0035942792892456055
            ],
            "type": "VEC2"
        },
        "accessor_buffer_Cube.002_3": {
            "bufferView": "bufferView_buffer_Cube.002_0",
            "byteOffset": 65504,
            "byteStride": 12,
            "componentType": 5126,
            "count": 2047,
            "max": [
                1.0,
                1.0,
                1.0
            ],
            "min": [
                1.0,
                1.0,
                1.0
            ],
            "type": "VEC3"
        },
        "accessor_buffer_Cube.002_5": {
            "bufferView": "bufferView_buffer_Cube.002_2",
            "byteOffset": 0,
            "byteStride": 2,
            "componentType": 5123,
            "count": 2043,
            "max": [
                2046
            ],
            "min": [
                0
            ],
            "type": "SCALAR"
        },
        "accessor_buffer_Cube.002_6": {
            "bufferView": "bufferView_buffer_Cube.002_3",
            "byteOffset": 0,
            "byteStride": 2,
            "componentType": 5123,
            "count": 48,
            "max": [
                1988
            ],
            "min": [
                62
            ],
            "type": "SCALAR"
        }
    },
    "asset": {
        "profile": {
            "api": "WebGL",
            "version": "1.0.3"
        },
        "version": "1.0"
    },
    "bufferViews": {
        "bufferView_buffer_Cube.002_0": {
            "buffer": "buffer_combined",
            "byteLength": 90068,
            "byteOffset": 0,
            "target": 34962
        },
        "bufferView_buffer_Cube.002_1": {
            "buffer": "buffer_combined",
            "byteLength": 0,
            "byteOffset": 90068,
            "target": 34963
        },
        "bufferView_buffer_Cube.002_2": {
            "buffer": "buffer_combined",
            "byteLength": 4086,
            "byteOffset": 90068,
            "target": 34963
        },
        "bufferView_buffer_Cube.002_3": {
            "buffer": "buffer_combined",
            "byteLength": 96,
            "byteOffset": 94154,
            "target": 34963
        }
    },
    "buffers": {
        "buffer_combined": {
            "byteLength": 94250,
            "type": "arraybuffer",
            "uri": "data:text/plain;base64,"
        }
    },
    "extensions": {
        "KHR_materials_common": {
            "lights": {}
        }
    },
    "extensionsUsed": [
        "KHR_materials_common"
    ],
    "images": {
        "image_MainIslandCaves": {
            "uri": "MainIslandCaves.png"
        }
    },
    "materials": {
        "material_CandyCavernRock": {
            "extensions": {
                "KHR_materials_common": {
                    "technique": "PHONG",
                    "values": {
                        "ambient": [
                            1.0,
                            1.0,
                            1.0,
                            1.0
                        ],
                        "diffuse": "texture_Caves",
                        "doubleSided": false,
                        "emission": [
                            0.0,
                            0.0,
                            0.0,
                            1.0
                        ],
                        "shininess": 50,
                        "specular": [
                            0.5,
                            0.5,
                            0.5,
                            1.0
                        ],
                        "transparency": 1.0,
                        "transparent": false
                    }
                }
            },
            "name": "CandyCavernRock"
        },
        "material_CaveDirt": {
            "extensions": {
                "KHR_materials_common": {
                    "technique": "PHONG",
                    "values": {
                        "ambient": [
                            1.0,
                            1.0,
                            1.0,
                            1.0
                        ],
                        "diffuse": "texture_Caves",
                        "doubleSided": false,
                        "emission": [
                            0.0,
                            0.0,
                            0.0,
                            1.0
                        ],
                        "shininess": 50,
                        "specular": [
                            0.5,
                            0.5,
                            0.5,
                            1.0
                        ],
                        "transparency": 1.0,
                        "transparent": false
                    }
                }
            },
            "name": "CaveDirt"
        },
        "material_CaveDirtRock": {
            "extensions": {
                "KHR_materials_common": {
                    "technique": "PHONG",
                    "values": {
                        "ambient": [
                            1.0,
                            1.0,
                            1.0,
                            1.0
                        ],
                        "diffuse": "texture_Caves",
                        "doubleSided": false,
                        "emission": [
                            0.0,
                            0.0,
                            0.0,
                            1.0
                        ],
                        "shininess": 50,
                        "specular": [
                            0.5,
                            0.5,
                            0.5,
                            1.0
                        ],
                        "transparency": 1.0,
                        "transparent": false
                    }
                }
            },
            "name": "CaveDirtRock"
        }
    },
    "meshes": {
        "mesh_Cube.002": {
            "name": "Cube.002",
            "primitives": [
                {
                    "attributes": {
                        "COLOR_0": "accessor_buffer_Cube.002_3",
                        "NORMAL": "accessor_buffer_Cube.002_1",
                        "POSITION": "accessor_buffer_Cube.002_0",
                        "TEXCOORD_0": "accessor_buffer_Cube.002_2"
                    },
                    "indices": "accessor_buffer_Cube.002_4",
                    "material": "material_CandyCavernRock",
                    "mode": 4
                },
                {
                    "attributes": {
                        "COLOR_0": "accessor_buffer_Cube.002_3",
                        "NORMAL": "accessor_buffer_Cube.002_1",
                        "POSITION": "accessor_buffer_Cube.002_0",
                        "TEXCOORD_0": "accessor_buffer_Cube.002_2"
                    },
                    "indices": "accessor_buffer_Cube.002_5",
                    "material": "material_CaveDirt",
                    "mode": 4
                },
                {
                    "attributes": {
                        "COLOR_0": "accessor_buffer_Cube.002_3",
                        "NORMAL": "accessor_buffer_Cube.002_1",
                        "POSITION": "accessor_buffer_Cube.002_0",
                        "TEXCOORD_0": "accessor_buffer_Cube.002_2"
                    },
                    "indices": "accessor_buffer_Cube.002_6",
                    "material": "material_CaveDirtRock",
                    "mode": 4
                }
            ]
        }
    },
    "nodes": {
        "node_Caves": {
            "children": [],
            "matrix": [
                1.0,
                0.0,
                0.0,
                0.0,
                0.0,
                1.0,
                0.0,
                0.0,
                0.0,
                0.0,
                1.0,
                0.0,
                45.740230560302734,
                -7.816972255706787,
                -33.772193908691406,
                1.0
            ],
            "meshes": [
                "mesh_Cube.002"
            ],
            "name": "Caves"
        },
        "node_scene_Scene_root": {
            "children": [
                "node_Caves"
            ],
            "matrix": [
                1.0,
                0.0,
                0.0,
                0.0,
                0.0,
                0.0,
                -1.0,
                0.0,
                0.0,
                1.0,
                0.0,
                0.0,
                0.0,
                0.0,
                0.0,
                1.0
            ],
            "name": "node_scene_Scene_root"
        }
    },
    "samplers": {
        "sampler_default": {}
    },
    "scene": "scene_Scene",
    "scenes": {
        "scene_Scene": {
            "extras": {
                "active_camera": null,
                "background_color": [
                    0.06700000166893005,
                    0.06700000166893005,
                    0.066805899143219
                ],
                "frames_per_second": 24
            },
            "name": "Scene",
            "nodes": [
                "node_scene_Scene_root"
            ]
        }
    },
    "textures": {
        "texture_Caves": {
            "format": 6408,
            "internalFormat": 6408,
            "sampler": "sampler_default",
            "source": "image_MainIslandCaves"
        }
    }
}
