{
    "accessors": {
        "accessor_buffer_Cube.028_0": {
            "bufferView": "bufferView_buffer_Cube.028_0",
            "byteOffset": 0,
            "byteStride": 12,
            "componentType": 5126,
            "count": 2025,
            "max": [
                33.07330322265625,
                80.91791534423828,
                10.976856231689453
            ],
            "min": [
                -50.91797637939453,
                -32.448429107666016,
                -22.220216751098633
            ],
            "type": "VEC3"
        },
        "accessor_buffer_Cube.028_1": {
            "bufferView": "bufferView_buffer_Cube.028_0",
            "byteOffset": 24300,
            "byteStride": 12,
            "componentType": 5126,
            "count": 2025,
            "max": [
                0.9951191544532776,
                0.9959405064582825,
                0.999940812587738
            ],
            "min": [
                -0.9992207288742065,
                -0.999538004398346,
                -0.9998817443847656
            ],
            "type": "VEC3"
        },
        "accessor_buffer_Cube.028_2": {
            "bufferView": "bufferView_buffer_Cube.028_0",
            "byteOffset": 48600,
            "byteStride": 8,
            "componentType": 5126,
            "count": 2025,
            "max": [
                0.9977794885635376,
                0.997996530495584
            ],
            "min": [
                0.002003469504415989,
                0.0020034313201904297
            ],
            "type": "VEC2"
        },
        "accessor_buffer_Cube.028_3": {
            "bufferView": "bufferView_buffer_Cube.028_0",
            "byteOffset": 64800,
            "byteStride": 12,
            "componentType": 5126,
            "count": 2025,
            "max": [
                1.0,
                1.0,
                1.0
            ],
            "min": [
                1.0,
                1.0,
                1.0
            ],
            "type": "VEC3"
        },
        "accessor_buffer_Cube.028_4": {
            "bufferView": "bufferView_buffer_Cube.028_1",
            "byteOffset": 0,
            "byteStride": 2,
            "componentType": 5123,
            "count": 330,
            "max": [
                2022
            ],
            "min": [
                0
            ],
            "type": "SCALAR"
        },
        "accessor_buffer_Cube.028_5": {
            "bufferView": "bufferView_buffer_Cube.028_2",
            "byteOffset": 0,
            "byteStride": 2,
            "componentType": 5123,
            "count": 1719,
            "max": [
                2024
            ],
            "min": [
                3
            ],
            "type": "SCALAR"
        }
    },
    "asset": {
        "profile": {
            "api": "WebGL",
            "version": "1.0.3"
        },
        "version": "1.0"
    },
    "bufferViews": {
        "bufferView_buffer_Cube.028_0": {
            "buffer": "buffer_combined",
            "byteLength": 89100,
            "byteOffset": 0,
            "target": 34962
        },
        "bufferView_buffer_Cube.028_1": {
            "buffer": "buffer_combined",
            "byteLength": 660,
            "byteOffset": 89100,
            "target": 34963
        },
        "bufferView_buffer_Cube.028_2": {
            "buffer": "buffer_combined",
            "byteLength": 3438,
            "byteOffset": 89760,
            "target": 34963
        }
    },
    "buffers": {
        "buffer_combined": {
            "byteLength": 93198,
            "type": "arraybuffer",
            "uri": "data:text/plain;base64,"
        }
    },
    "extensions": {
        "KHR_materials_common": {
            "lights": {}
        }
    },
    "extensionsUsed": [
        "KHR_materials_common"
    ],
    "images": {
        "image_MainIslandCaves": {
            "uri": "MainIslandCaves.png"
        }
    },
    "materials": {
        "material_CandyCavernRock": {
            "extensions": {
                "KHR_materials_common": {
                    "technique": "PHONG",
                    "values": {
                        "ambient": [
                            1.0,
                            1.0,
                            1.0,
                            1.0
                        ],
                        "diffuse": "texture_Caves",
                        "doubleSided": false,
                        "emission": [
                            0.0,
                            0.0,
                            0.0,
                            1.0
                        ],
                        "shininess": 50,
                        "specular": [
                            0.5,
                            0.5,
                            0.5,
                            1.0
                        ],
                        "transparency": 1.0,
                        "transparent": false
                    }
                }
            },
            "name": "CandyCavernRock"
        },
        "material_CaveDirt": {
            "extensions": {
                "KHR_materials_common": {
                    "technique": "PHONG",
                    "values": {
                        "ambient": [
                            1.0,
                            1.0,
                            1.0,
                            1.0
                        ],
                        "diffuse": "texture_Caves",
                        "doubleSided": false,
                        "emission": [
                            0.0,
                            0.0,
                            0.0,
                            1.0
                        ],
                        "shininess": 50,
                        "specular": [
                            0.5,
                            0.5,
                            0.5,
                            1.0
                        ],
                        "transparency": 1.0,
                        "transparent": false
                    }
                }
            },
            "name": "CaveDirt"
        }
    },
    "meshes": {
        "mesh_Cube.028": {
            "name": "Cube.028",
            "primitives": [
                {
                    "attributes": {
                        "COLOR_0": "accessor_buffer_Cube.028_3",
                        "NORMAL": "accessor_buffer_Cube.028_1",
                        "POSITION": "accessor_buffer_Cube.028_0",
                        "TEXCOORD_0": "accessor_buffer_Cube.028_2"
                    },
                    "indices": "accessor_buffer_Cube.028_4",
                    "material": "material_CandyCavernRock",
                    "mode": 4
                },
                {
                    "attributes": {
                        "COLOR_0": "accessor_buffer_Cube.028_3",
                        "NORMAL": "accessor_buffer_Cube.028_1",
                        "POSITION": "accessor_buffer_Cube.028_0",
                        "TEXCOORD_0": "accessor_buffer_Cube.028_2"
                    },
                    "indices": "accessor_buffer_Cube.028_5",
                    "material": "material_CaveDirt",
                    "mode": 4
                }
            ]
        }
    },
    "nodes": {
        "node_Cavern": {
            "children": [],
            "matrix": [
                1.0,
                0.0,
                0.0,
                0.0,
                0.0,
                1.0,
                0.0,
                0.0,
                0.0,
                0.0,
                1.0,
                0.0,
                45.740230560302734,
                -7.816972255706787,
                -33.772193908691406,
                1.0
            ],
            "meshes": [
                "mesh_Cube.028"
            ],
            "name": "Cavern"
        },
        "node_scene_Scene_root": {
            "children": [
                "node_Cavern"
            ],
            "matrix": [
                1.0,
                0.0,
                0.0,
                0.0,
                0.0,
                0.0,
                -1.0,
                0.0,
                0.0,
                1.0,
                0.0,
                0.0,
                0.0,
                0.0,
                0.0,
                1.0
            ],
            "name": "node_scene_Scene_root"
        }
    },
    "samplers": {
        "sampler_default": {}
    },
    "scene": "scene_Scene",
    "scenes": {
        "scene_Scene": {
            "extras": {
                "active_camera": null,
                "background_color": [
                    0.06700000166893005,
                    0.06700000166893005,
                    0.066805899143219
                ],
                "frames_per_second": 24
            },
            "name": "Scene",
            "nodes": [
                "node_scene_Scene_root"
            ]
        }
    },
    "textures": {
        "texture_Caves": {
            "format": 6408,
            "internalFormat": 6408,
            "sampler": "sampler_default",
            "source": "image_MainIslandCaves"
        }
    }
}
