{
    "accessors": {
        "accessor_buffer_Cube.027_0": {
            "bufferView": "bufferView_buffer_Cube.027_0",
            "byteOffset": 0,
            "byteStride": 12,
            "componentType": 5126,
            "count": 2025,
            "max": [
                101.94925689697266,
                65.50860595703125,
                29.34775161743164
            ],
            "min": [
                17.957979202270508,
                -47.85774230957031,
                -3.849320650100708
            ],
            "type": "VEC3"
        },
        "accessor_buffer_Cube.027_1": {
            "bufferView": "bufferView_buffer_Cube.027_0",
            "byteOffset": 24300,
            "byteStride": 12,
            "componentType": 5126,
            "count": 2025,
            "max": [
                0.9951192140579224,
                0.9959404468536377,
                0.9999407529830933
            ],
            "min": [
                -0.9992207288742065,
                -0.999538004398346,
                -0.9998818635940552
            ],
            "type": "VEC3"
        },
        "accessor_buffer_Cube.027_2": {
            "bufferView": "bufferView_buffer_Cube.027_0",
            "byteOffset": 48600,
            "byteStride": 8,
            "componentType": 5126,
            "count": 2025,
            "max": [
                0.9977794885635376,
                0.997996530495584
            ],
            "min": [
                0.002003469504415989,
                0.0020034313201904297
            ],
            "type": "VEC2"
        },
        "accessor_buffer_Cube.027_3": {
            "bufferView": "bufferView_buffer_Cube.027_0",
            "byteOffset": 64800,
            "byteStride": 12,
            "componentType": 5126,
            "count": 2025,
            "max": [
                1.0,
                1.0,
                1.0
            ],
            "min": [
                1.0,
                1.0,
                1.0
            ],
            "type": "VEC3"
        },
        "accessor_buffer_Cube.027_4": {
            "bufferView": "bufferView_buffer_Cube.027_1",
            "byteOffset": 0,
            "byteStride": 2,
            "componentType": 5123,
            "count": 1719,
            "max": [
                2023
            ],
            "min": [
                0
            ],
            "type": "SCALAR"
        },
        "accessor_buffer_Cube.027_5": {
            "bufferView": "bufferView_buffer_Cube.027_2",
            "byteOffset": 0,
            "byteStride": 2,
            "componentType": 5123,
            "count": 330,
            "max": [
                2024
            ],
            "min": [
                10
            ],
            "type": "SCALAR"
        }
    },
    "asset": {
        "profile": {
            "api": "WebGL",
            "version": "1.0.3"
        },
        "version": "1.0"
    },
    "bufferViews": {
        "bufferView_buffer_Cube.027_0": {
            "buffer": "buffer_combined",
            "byteLength": 89100,
            "byteOffset": 0,
            "target": 34962
        },
        "bufferView_buffer_Cube.027_1": {
            "buffer": "buffer_combined",
            "byteLength": 3438,
            "byteOffset": 89100,
            "target": 34963
        },
        "bufferView_buffer_Cube.027_2": {
            "buffer": "buffer_combined",
            "byteLength": 660,
            "byteOffset": 92538,
            "target": 34963
        }
    },
    "buffers": {
        "buffer_combined": {
            "byteLength": 93198,
            "type": "arraybuffer",
            "uri": "data:text/plain;base64,"
        }
    },
    "extensions": {
        "KHR_materials_common": {
            "lights": {}
        }
    },
    "extensionsUsed": [
        "KHR_materials_common"
    ],
    "images": {
        "image_MainIslandCaves": {
            "uri": "MainIslandCaves.png"
        }
    },
    "materials": {
        "material_CandyCavernRock": {
            "extensions": {
                "KHR_materials_common": {
                    "technique": "PHONG",
                    "values": {
                        "ambient": [
                            1.0,
                            1.0,
                            1.0,
                            1.0
                        ],
                        "diffuse": "texture_Caves",
                        "doubleSided": false,
                        "emission": [
                            0.0,
                            0.0,
                            0.0,
                            1.0
                        ],
                        "shininess": 50,
                        "specular": [
                            0.5,
                            0.5,
                            0.5,
                            1.0
                        ],
                        "transparency": 1.0,
                        "transparent": false
                    }
                }
            },
            "name": "CandyCavernRock"
        },
        "material_CaveDirt": {
            "extensions": {
                "KHR_materials_common": {
                    "technique": "PHONG",
                    "values": {
                        "ambient": [
                            1.0,
                            1.0,
                            1.0,
                            1.0
                        ],
                        "diffuse": "texture_Caves",
                        "doubleSided": false,
                        "emission": [
                            0.0,
                            0.0,
                            0.0,
                            1.0
                        ],
                        "shininess": 50,
                        "specular": [
                            0.5,
                            0.5,
                            0.5,
                            1.0
                        ],
                        "transparency": 1.0,
                        "transparent": false
                    }
                }
            },
            "name": "CaveDirt"
        }
    },
    "meshes": {
        "mesh_Cube.027": {
            "name": "Cube.027",
            "primitives": [
                {
                    "attributes": {
                        "COLOR_0": "accessor_buffer_Cube.027_3",
                        "NORMAL": "accessor_buffer_Cube.027_1",
                        "POSITION": "accessor_buffer_Cube.027_0",
                        "TEXCOORD_0": "accessor_buffer_Cube.027_2"
                    },
                    "indices": "accessor_buffer_Cube.027_4",
                    "material": "material_CaveDirt",
                    "mode": 4
                },
                {
                    "attributes": {
                        "COLOR_0": "accessor_buffer_Cube.027_3",
                        "NORMAL": "accessor_buffer_Cube.027_1",
                        "POSITION": "accessor_buffer_Cube.027_0",
                        "TEXCOORD_0": "accessor_buffer_Cube.027_2"
                    },
                    "indices": "accessor_buffer_Cube.027_5",
                    "material": "material_CandyCavernRock",
                    "mode": 4
                }
            ]
        }
    },
    "nodes": {
        "node_Main_Island.001": {
            "children": [],
            "matrix": [
                1.0,
                0.0,
                0.0,
                0.0,
                0.0,
                1.0,
                0.0,
                0.0,
                0.0,
                0.0,
                1.0,
                0.0,
                -23.135723114013672,
                7.592339992523193,
                -52.143089294433594,
                1.0
            ],
            "meshes": [
                "mesh_Cube.027"
            ],
            "name": "Main_Island.001"
        },
        "node_scene_Scene_root": {
            "children": [
                "node_Main_Island.001"
            ],
            "matrix": [
                1.0,
                0.0,
                0.0,
                0.0,
                0.0,
                0.0,
                -1.0,
                0.0,
                0.0,
                1.0,
                0.0,
                0.0,
                0.0,
                0.0,
                0.0,
                1.0
            ],
            "name": "node_scene_Scene_root"
        }
    },
    "samplers": {
        "sampler_default": {}
    },
    "scene": "scene_Scene",
    "scenes": {
        "scene_Scene": {
            "extras": {
                "active_camera": null,
                "background_color": [
                    0.06700000166893005,
                    0.06700000166893005,
                    0.066805899143219
                ],
                "frames_per_second": 24
            },
            "name": "Scene",
            "nodes": [
                "node_scene_Scene_root"
            ]
        }
    },
    "textures": {
        "texture_Caves": {
            "format": 6408,
            "internalFormat": 6408,
            "sampler": "sampler_default",
            "source": "image_MainIslandCaves"
        }
    }
}
