{
    "accessors": {
        "accessor_buffer_Cube.001_0": {
            "bufferView": "bufferView_buffer_Cube.001_0",
            "byteOffset": 0,
            "byteStride": 12,
            "componentType": 5126,
            "count": 2119,
            "max": [
                32.83109664916992,
                81.45763397216797,
                10.657482147216797
            ],
            "min": [
                -51.16018295288086,
                -31.908710479736328,
                -22.53959083557129
            ],
            "type": "VEC3"
        },
        "accessor_buffer_Cube.001_1": {
            "bufferView": "bufferView_buffer_Cube.001_0",
            "byteOffset": 25428,
            "byteStride": 12,
            "componentType": 5126,
            "count": 2119,
            "max": [
                0.9951190948486328,
                0.9959405064582825,
                0.999940812587738
            ],
            "min": [
                -0.9992207288742065,
                -0.999538004398346,
                -0.9998817443847656
            ],
            "type": "VEC3"
        },
        "accessor_buffer_Cube.001_2": {
            "bufferView": "bufferView_buffer_Cube.001_0",
            "byteOffset": 50856,
            "byteStride": 8,
            "componentType": 5126,
            "count": 2119,
            "max": [
                0.9978866577148438,
                0.9979854146949947
            ],
            "min": [
                0.002014585305005312,
                0.0020145773887634277
            ],
            "type": "VEC2"
        },
        "accessor_buffer_Cube.001_3": {
            "bufferView": "bufferView_buffer_Cube.001_0",
            "byteOffset": 67808,
            "byteStride": 12,
            "componentType": 5126,
            "count": 2119,
            "max": [
                1.0,
                1.0,
                1.0
            ],
            "min": [
                1.0,
                1.0,
                1.0
            ],
            "type": "VEC3"
        },
        "accessor_buffer_Cube.001_4": {
            "bufferView": "bufferView_buffer_Cube.001_1",
            "byteOffset": 0,
            "byteStride": 2,
            "componentType": 5123,
            "count": 561,
            "max": [
                2117
            ],
            "min": [
                0
            ],
            "type": "SCALAR"
        },
        "accessor_buffer_Cube.001_5": {
            "bufferView": "bufferView_buffer_Cube.001_2",
            "byteOffset": 0,
            "byteStride": 2,
            "componentType": 5123,
            "count": 1638,
            "max": [
                2118
            ],
            "min": [
                1
            ],
            "type": "SCALAR"
        }
    },
    "asset": {
        "profile": {
            "api": "WebGL",
            "version": "1.0.3"
        },
        "version": "1.0"
    },
    "bufferViews": {
        "bufferView_buffer_Cube.001_0": {
            "buffer": "buffer_combined",
            "byteLength": 93236,
            "byteOffset": 0,
            "target": 34962
        },
        "bufferView_buffer_Cube.001_1": {
            "buffer": "buffer_combined",
            "byteLength": 1122,
            "byteOffset": 93236,
            "target": 34963
        },
        "bufferView_buffer_Cube.001_2": {
            "buffer": "buffer_combined",
            "byteLength": 3276,
            "byteOffset": 94358,
            "target": 34963
        }
    },
    "buffers": {
        "buffer_combined": {
            "byteLength": 97634,
            "type": "arraybuffer",
            "uri": "data:text/plain;base64,"
        }
    },
    "extensions": {
        "KHR_materials_common": {
            "lights": {}
        }
    },
    "extensionsUsed": [
        "KHR_materials_common"
    ],
    "images": {
        "image_MainIslandCaves": {
            "uri": "MainIslandCaves.png"
        }
    },
    "materials": {
        "material_CaveDirt": {
            "extensions": {
                "KHR_materials_common": {
                    "technique": "PHONG",
                    "values": {
                        "ambient": [
                            1.0,
                            1.0,
                            1.0,
                            1.0
                        ],
                        "diffuse": "texture_Caves",
                        "doubleSided": false,
                        "emission": [
                            0.0,
                            0.0,
                            0.0,
                            1.0
                        ],
                        "shininess": 50,
                        "specular": [
                            0.5,
                            0.5,
                            0.5,
                            1.0
                        ],
                        "transparency": 1.0,
                        "transparent": false
                    }
                }
            },
            "name": "CaveDirt"
        },
        "material_CaveDirtRock": {
            "extensions": {
                "KHR_materials_common": {
                    "technique": "PHONG",
                    "values": {
                        "ambient": [
                            1.0,
                            1.0,
                            1.0,
                            1.0
                        ],
                        "diffuse": "texture_Caves",
                        "doubleSided": false,
                        "emission": [
                            0.0,
                            0.0,
                            0.0,
                            1.0
                        ],
                        "shininess": 50,
                        "specular": [
                            0.5,
                            0.5,
                            0.5,
                            1.0
                        ],
                        "transparency": 1.0,
                        "transparent": false
                    }
                }
            },
            "name": "CaveDirtRock"
        }
    },
    "meshes": {
        "mesh_Cube.001": {
            "name": "Cube.001",
            "primitives": [
                {
                    "attributes": {
                        "COLOR_0": "accessor_buffer_Cube.001_3",
                        "NORMAL": "accessor_buffer_Cube.001_1",
                        "POSITION": "accessor_buffer_Cube.001_0",
                        "TEXCOORD_0": "accessor_buffer_Cube.001_2"
                    },
                    "indices": "accessor_buffer_Cube.001_4",
                    "material": "material_CaveDirtRock",
                    "mode": 4
                },
                {
                    "attributes": {
                        "COLOR_0": "accessor_buffer_Cube.001_3",
                        "NORMAL": "accessor_buffer_Cube.001_1",
                        "POSITION": "accessor_buffer_Cube.001_0",
                        "TEXCOORD_0": "accessor_buffer_Cube.001_2"
                    },
                    "indices": "accessor_buffer_Cube.001_5",
                    "material": "material_CaveDirt",
                    "mode": 4
                }
            ]
        }
    },
    "nodes": {
        "node_Caves Alone.001": {
            "children": [],
            "matrix": [
                1.0,
                0.0,
                0.0,
                0.0,
                0.0,
                1.0,
                0.0,
                0.0,
                0.0,
                0.0,
                1.0,
                0.0,
                45.98243713378906,
                -8.356691360473633,
                -33.45281982421875,
                1.0
            ],
            "meshes": [
                "mesh_Cube.001"
            ],
            "name": "Caves Alone.001"
        },
        "node_scene_Scene_root": {
            "children": [
                "node_Caves Alone.001"
            ],
            "matrix": [
                1.0,
                0.0,
                0.0,
                0.0,
                0.0,
                0.0,
                -1.0,
                0.0,
                0.0,
                1.0,
                0.0,
                0.0,
                0.0,
                0.0,
                0.0,
                1.0
            ],
            "name": "node_scene_Scene_root"
        }
    },
    "samplers": {
        "sampler_default": {}
    },
    "scene": "scene_Scene",
    "scenes": {
        "scene_Scene": {
            "extras": {
                "active_camera": null,
                "background_color": [
                    0.06700000166893005,
                    0.06700000166893005,
                    0.066805899143219
                ],
                "frames_per_second": 24
            },
            "name": "Scene",
            "nodes": [
                "node_scene_Scene_root"
            ]
        }
    },
    "textures": {
        "texture_Caves": {
            "format": 6408,
            "internalFormat": 6408,
            "sampler": "sampler_default",
            "source": "image_MainIslandCaves"
        }
    }
}
