{
    "accessors": {
        "accessor_buffer_Cube.001_0": {
            "bufferView": "bufferView_buffer_Cube.001_0",
            "byteOffset": 0,
            "byteStride": 12,
            "componentType": 5126,
            "count": 3175,
            "max": [
                56.31179428100586,
                34.532371520996094,
                29.21512794494629
            ],
            "min": [
                -52.71339416503906,
                -43.895408630371094,
                -54.7195930480957
            ],
            "type": "VEC3"
        },
        "accessor_buffer_Cube.001_1": {
            "bufferView": "bufferView_buffer_Cube.001_0",
            "byteOffset": 38100,
            "byteStride": 12,
            "componentType": 5126,
            "count": 3175,
            "max": [
                1.0,
                1.0,
                1.0
            ],
            "min": [
                -1.0,
                -1.0,
                -1.0
            ],
            "type": "VEC3"
        },
        "accessor_buffer_Cube.001_2": {
            "bufferView": "bufferView_buffer_Cube.001_0",
            "byteOffset": 76200,
            "byteStride": 8,
            "componentType": 5126,
            "count": 3175,
            "max": [
                0.9998557567596436,
                0.9998548849689541
            ],
            "min": [
                0.00014428536815103143,
                0.00014513731002807617
            ],
            "type": "VEC2"
        },
        "accessor_buffer_Cube.001_3": {
            "bufferView": "bufferView_buffer_Cube.001_1",
            "byteOffset": 0,
            "byteStride": 2,
            "componentType": 5123,
            "count": 2166,
            "max": [
                3174
            ],
            "min": [
                2
            ],
            "type": "SCALAR"
        },
        "accessor_buffer_Cube.001_4": {
            "bufferView": "bufferView_buffer_Cube.001_2",
            "byteOffset": 0,
            "byteStride": 2,
            "componentType": 5123,
            "count": 486,
            "max": [
                3165
            ],
            "min": [
                4
            ],
            "type": "SCALAR"
        },
        "accessor_buffer_Cube.001_5": {
            "bufferView": "bufferView_buffer_Cube.001_3",
            "byteOffset": 0,
            "byteStride": 2,
            "componentType": 5123,
            "count": 720,
            "max": [
                3173
            ],
            "min": [
                0
            ],
            "type": "SCALAR"
        }
    },
    "asset": {
        "profile": {
            "api": "WebGL",
            "version": "1.0.3"
        },
        "version": "1.0"
    },
    "bufferViews": {
        "bufferView_buffer_Cube.001_0": {
            "buffer": "buffer_combined",
            "byteLength": 101600,
            "byteOffset": 0,
            "target": 34962
        },
        "bufferView_buffer_Cube.001_1": {
            "buffer": "buffer_combined",
            "byteLength": 4332,
            "byteOffset": 101600,
            "target": 34963
        },
        "bufferView_buffer_Cube.001_2": {
            "buffer": "buffer_combined",
            "byteLength": 972,
            "byteOffset": 105932,
            "target": 34963
        },
        "bufferView_buffer_Cube.001_3": {
            "buffer": "buffer_combined",
            "byteLength": 1440,
            "byteOffset": 106904,
            "target": 34963
        }
    },
    "buffers": {
        "buffer_combined": {
            "byteLength": 108344,
            "type": "arraybuffer",
            "uri": "data:text/plain;base64,"
        }
    },
    "extensions": {
        "KHR_materials_common": {
            "lights": {}
        }
    },
    "extensionsUsed": [
        "KHR_materials_common"
    ],
    "images": {
        "image_MainIsland": {
            "uri": "MainIsland.png"
        }
    },
    "materials": {
        "material_Dirt": {
            "extensions": {
                "KHR_materials_common": {
                    "technique": "PHONG",
                    "values": {
                        "ambient": [
                            1.0,
                            1.0,
                            1.0,
                            1.0
                        ],
                        "diffuse": "texture_Island",
                        "doubleSided": false,
                        "emission": [
                            0.0,
                            0.0,
                            0.0,
                            1.0
                        ],
                        "shininess": 50,
                        "specular": [
                            0.5,
                            0.5,
                            0.5,
                            1.0
                        ],
                        "transparency": 1.0,
                        "transparent": false
                    }
                }
            },
            "name": "Dirt"
        },
        "material_Grass": {
            "extensions": {
                "KHR_materials_common": {
                    "technique": "PHONG",
                    "values": {
                        "ambient": [
                            1.0,
                            1.0,
                            1.0,
                            1.0
                        ],
                        "diffuse": "texture_Island",
                        "doubleSided": false,
                        "emission": [
                            0.0,
                            0.0,
                            0.0,
                            1.0
                        ],
                        "shininess": 50,
                        "specular": [
                            0.5,
                            0.5,
                            0.5,
                            1.0
                        ],
                        "transparency": 1.0,
                        "transparent": false
                    }
                }
            },
            "name": "Grass"
        },
        "material_GrassDark": {
            "extensions": {
                "KHR_materials_common": {
                    "technique": "PHONG",
                    "values": {
                        "ambient": [
                            1.0,
                            1.0,
                            1.0,
                            1.0
                        ],
                        "diffuse": "texture_Island",
                        "doubleSided": false,
                        "emission": [
                            0.0,
                            0.0,
                            0.0,
                            1.0
                        ],
                        "shininess": 50,
                        "specular": [
                            0.5,
                            0.5,
                            0.5,
                            1.0
                        ],
                        "transparency": 1.0,
                        "transparent": false
                    }
                }
            },
            "name": "GrassDark"
        }
    },
    "meshes": {
        "mesh_Cube.001": {
            "name": "Cube.001",
            "primitives": [
                {
                    "attributes": {
                        "NORMAL": "accessor_buffer_Cube.001_1",
                        "POSITION": "accessor_buffer_Cube.001_0",
                        "TEXCOORD_0": "accessor_buffer_Cube.001_2"
                    },
                    "indices": "accessor_buffer_Cube.001_3",
                    "material": "material_Dirt",
                    "mode": 4
                },
                {
                    "attributes": {
                        "NORMAL": "accessor_buffer_Cube.001_1",
                        "POSITION": "accessor_buffer_Cube.001_0",
                        "TEXCOORD_0": "accessor_buffer_Cube.001_2"
                    },
                    "indices": "accessor_buffer_Cube.001_4",
                    "material": "material_GrassDark",
                    "mode": 4
                },
                {
                    "attributes": {
                        "NORMAL": "accessor_buffer_Cube.001_1",
                        "POSITION": "accessor_buffer_Cube.001_0",
                        "TEXCOORD_0": "accessor_buffer_Cube.001_2"
                    },
                    "indices": "accessor_buffer_Cube.001_5",
                    "material": "material_Grass",
                    "mode": 4
                }
            ]
        }
    },
    "nodes": {
        "node_Main_Island": {
            "children": [],
            "matrix": [
                2.0,
                0.0,
                0.0,
                0.0,
                0.0,
                2.0,
                0.0,
                0.0,
                0.0,
                0.0,
                2.0,
                0.0,
                -23.135723114013672,
                7.592339992523193,
                -52.143089294433594,
                1.0
            ],
            "meshes": [
                "mesh_Cube.001"
            ],
            "name": "Main_Island"
        },
        "node_scene_Scene_root": {
            "children": [
                "node_Main_Island"
            ],
            "matrix": [
                1.0,
                0.0,
                0.0,
                0.0,
                0.0,
                0.0,
                -1.0,
                0.0,
                0.0,
                1.0,
                0.0,
                0.0,
                0.0,
                0.0,
                0.0,
                1.0
            ],
            "name": "node_scene_Scene_root"
        }
    },
    "samplers": {
        "sampler_default": {}
    },
    "scene": "scene_Scene",
    "scenes": {
        "scene_Scene": {
            "extras": {
                "active_camera": null,
                "background_color": [
                    0.527718186378479,
                    0.527718186378479,
                    0.527718186378479
                ],
                "frames_per_second": 24
            },
            "name": "Scene",
            "nodes": [
                "node_scene_Scene_root"
            ]
        }
    },
    "textures": {
        "texture_Island": {
            "format": 6408,
            "internalFormat": 6408,
            "sampler": "sampler_default",
            "source": "image_MainIsland"
        }
    }
}
