{
    "accessors": {
        "accessor_buffer_Cube.016_0": {
            "bufferView": "bufferView_buffer_Cube.016_0",
            "byteOffset": 0,
            "byteStride": 12,
            "componentType": 5126,
            "count": 1294,
            "max": [
                15.731098175048828,
                12.280481338500977,
                3.2091941833496094
            ],
            "min": [
                -21.43986701965332,
                -8.500255584716797,
                -4.5027546882629395
            ],
            "type": "VEC3"
        },
        "accessor_buffer_Cube.016_1": {
            "bufferView": "bufferView_buffer_Cube.016_0",
            "byteOffset": 15528,
            "byteStride": 12,
            "componentType": 5126,
            "count": 1294,
            "max": [
                0.9886781573295593,
                0.9959405064582825,
                0.9999570846557617
            ],
            "min": [
                -0.9992207288742065,
                -0.9995380640029907,
                -0.9998817443847656
            ],
            "type": "VEC3"
        },
        "accessor_buffer_Cube.016_2": {
            "bufferView": "bufferView_buffer_Cube.016_0",
            "byteOffset": 31056,
            "byteStride": 8,
            "componentType": 5126,
            "count": 1294,
            "max": [
                0.99904865026474,
                0.9992661802098155
            ],
            "min": [
                0.0009513311670161784,
                0.000733792781829834
            ],
            "type": "VEC2"
        },
        "accessor_buffer_Cube.016_3": {
            "bufferView": "bufferView_buffer_Cube.016_1",
            "byteOffset": 0,
            "byteStride": 2,
            "componentType": 5123,
            "count": 1158,
            "max": [
                1293
            ],
            "min": [
                0
            ],
            "type": "SCALAR"
        },
        "accessor_buffer_Cube.016_4": {
            "bufferView": "bufferView_buffer_Cube.016_2",
            "byteOffset": 0,
            "byteStride": 2,
            "componentType": 5123,
            "count": 330,
            "max": [
                1290
            ],
            "min": [
                4
            ],
            "type": "SCALAR"
        }
    },
    "asset": {
        "profile": {
            "api": "WebGL",
            "version": "1.0.3"
        },
        "version": "1.0"
    },
    "bufferViews": {
        "bufferView_buffer_Cube.016_0": {
            "buffer": "buffer_combined",
            "byteLength": 41408,
            "byteOffset": 0,
            "target": 34962
        },
        "bufferView_buffer_Cube.016_1": {
            "buffer": "buffer_combined",
            "byteLength": 2316,
            "byteOffset": 41408,
            "target": 34963
        },
        "bufferView_buffer_Cube.016_2": {
            "buffer": "buffer_combined",
            "byteLength": 660,
            "byteOffset": 43724,
            "target": 34963
        }
    },
    "buffers": {
        "buffer_combined": {
            "byteLength": 44384,
            "type": "arraybuffer",
            "uri": "data:text/plain;base64,"
        }
    },
    "extensions": {
        "KHR_materials_common": {
            "lights": {}
        }
    },
    "extensionsUsed": [
        "KHR_materials_common"
    ],
    "images": {
        "image_MainIslandCaves": {
            "uri": "MainIslandCaves.png"
        }
    },
    "materials": {
        "material_CandyCavernRock": {
            "extensions": {
                "KHR_materials_common": {
                    "technique": "PHONG",
                    "values": {
                        "ambient": [
                            1.0,
                            1.0,
                            1.0,
                            1.0
                        ],
                        "diffuse": "texture_Caves",
                        "doubleSided": false,
                        "emission": [
                            0.0,
                            0.0,
                            0.0,
                            1.0
                        ],
                        "shininess": 50,
                        "specular": [
                            0.5,
                            0.5,
                            0.5,
                            1.0
                        ],
                        "transparency": 1.0,
                        "transparent": false
                    }
                }
            },
            "name": "CandyCavernRock"
        },
        "material_CaveDirt": {
            "extensions": {
                "KHR_materials_common": {
                    "technique": "PHONG",
                    "values": {
                        "ambient": [
                            1.0,
                            1.0,
                            1.0,
                            1.0
                        ],
                        "diffuse": "texture_Caves",
                        "doubleSided": false,
                        "emission": [
                            0.0,
                            0.0,
                            0.0,
                            1.0
                        ],
                        "shininess": 50,
                        "specular": [
                            0.5,
                            0.5,
                            0.5,
                            1.0
                        ],
                        "transparency": 1.0,
                        "transparent": false
                    }
                }
            },
            "name": "CaveDirt"
        }
    },
    "meshes": {
        "mesh_Cube.016": {
            "name": "Cube.016",
            "primitives": [
                {
                    "attributes": {
                        "NORMAL": "accessor_buffer_Cube.016_1",
                        "POSITION": "accessor_buffer_Cube.016_0",
                        "TEXCOORD_0": "accessor_buffer_Cube.016_2"
                    },
                    "indices": "accessor_buffer_Cube.016_3",
                    "material": "material_CaveDirt",
                    "mode": 4
                },
                {
                    "attributes": {
                        "NORMAL": "accessor_buffer_Cube.016_1",
                        "POSITION": "accessor_buffer_Cube.016_0",
                        "TEXCOORD_0": "accessor_buffer_Cube.016_2"
                    },
                    "indices": "accessor_buffer_Cube.016_4",
                    "material": "material_CandyCavernRock",
                    "mode": 4
                }
            ]
        }
    },
    "nodes": {
        "node_Cavern": {
            "children": [],
            "matrix": [
                2.0,
                0.0,
                0.0,
                0.0,
                0.0,
                2.0,
                0.0,
                0.0,
                0.0,
                0.0,
                2.0,
                0.0,
                37.70246505737305,
                -23.264890670776367,
                -29.213668823242188,
                1.0
            ],
            "meshes": [
                "mesh_Cube.016"
            ],
            "name": "Cavern"
        },
        "node_scene_Scene_root": {
            "children": [
                "node_Cavern"
            ],
            "matrix": [
                1.0,
                0.0,
                0.0,
                0.0,
                0.0,
                0.0,
                -1.0,
                0.0,
                0.0,
                1.0,
                0.0,
                0.0,
                0.0,
                0.0,
                0.0,
                1.0
            ],
            "name": "node_scene_Scene_root"
        }
    },
    "samplers": {
        "sampler_default": {}
    },
    "scene": "scene_Scene",
    "scenes": {
        "scene_Scene": {
            "extras": {
                "active_camera": null,
                "background_color": [
                    0.06700000166893005,
                    0.06700000166893005,
                    0.066805899143219
                ],
                "frames_per_second": 24
            },
            "name": "Scene",
            "nodes": [
                "node_scene_Scene_root"
            ]
        }
    },
    "textures": {
        "texture_Caves": {
            "format": 6408,
            "internalFormat": 6408,
            "sampler": "sampler_default",
            "source": "image_MainIslandCaves"
        }
    }
}
