{
    "accessors": {
        "accessor_buffer_Cube.004_0": {
            "bufferView": "bufferView_buffer_Cube.004_0",
            "byteOffset": 0,
            "byteStride": 12,
            "componentType": 5126,
            "count": 3520,
            "max": [
                58.77745819091797,
                35.669593811035156,
                29.215129852294922
            ],
            "min": [
                -52.71339416503906,
                -43.88384246826172,
                -54.7195930480957
            ],
            "type": "VEC3"
        },
        "accessor_buffer_Cube.004_1": {
            "bufferView": "bufferView_buffer_Cube.004_0",
            "byteOffset": 42240,
            "byteStride": 12,
            "componentType": 5126,
            "count": 3520,
            "max": [
                1.0,
                1.0,
                1.0
            ],
            "min": [
                -1.0,
                -1.0,
                -1.0
            ],
            "type": "VEC3"
        },
        "accessor_buffer_Cube.004_2": {
            "bufferView": "bufferView_buffer_Cube.004_0",
            "byteOffset": 84480,
            "byteStride": 8,
            "componentType": 5126,
            "count": 3520,
            "max": [
                0.999855101108551,
                0.9998547435679939
            ],
            "min": [
                0.0001448687689844519,
                0.00014525651931762695
            ],
            "type": "VEC2"
        },
        "accessor_buffer_Cube.004_3": {
            "bufferView": "bufferView_buffer_Cube.004_0",
            "byteOffset": 112640,
            "byteStride": 12,
            "componentType": 5126,
            "count": 3520,
            "max": [
                1.0,
                1.0,
                1.0
            ],
            "min": [
                0.5686274766921997,
                0.5137255191802979,
                0.48235294222831726
            ],
            "type": "VEC3"
        },
        "accessor_buffer_Cube.004_4": {
            "bufferView": "bufferView_buffer_Cube.004_1",
            "byteOffset": 0,
            "byteStride": 2,
            "componentType": 5123,
            "count": 2418,
            "max": [
                3519
            ],
            "min": [
                0
            ],
            "type": "SCALAR"
        },
        "accessor_buffer_Cube.004_5": {
            "bufferView": "bufferView_buffer_Cube.004_2",
            "byteOffset": 0,
            "byteStride": 2,
            "componentType": 5123,
            "count": 858,
            "max": [
                3512
            ],
            "min": [
                5
            ],
            "type": "SCALAR"
        },
        "accessor_buffer_Cube.004_6": {
            "bufferView": "bufferView_buffer_Cube.004_3",
            "byteOffset": 0,
            "byteStride": 2,
            "componentType": 5123,
            "count": 432,
            "max": [
                3510
            ],
            "min": [
                7
            ],
            "type": "SCALAR"
        }
    },
    "asset": {
        "profile": {
            "api": "WebGL",
            "version": "1.0.3"
        },
        "version": "1.0"
    },
    "bufferViews": {
        "bufferView_buffer_Cube.004_0": {
            "buffer": "buffer_combined",
            "byteLength": 154880,
            "byteOffset": 0,
            "target": 34962
        },
        "bufferView_buffer_Cube.004_1": {
            "buffer": "buffer_combined",
            "byteLength": 4836,
            "byteOffset": 154880,
            "target": 34963
        },
        "bufferView_buffer_Cube.004_2": {
            "buffer": "buffer_combined",
            "byteLength": 1716,
            "byteOffset": 159716,
            "target": 34963
        },
        "bufferView_buffer_Cube.004_3": {
            "buffer": "buffer_combined",
            "byteLength": 864,
            "byteOffset": 161432,
            "target": 34963
        }
    },
    "buffers": {
        "buffer_combined": {
            "byteLength": 162296,
            "type": "arraybuffer",
            "uri": "data:text/plain;base64,"
        }
    },
    "extensions": {
        "KHR_materials_common": {
            "lights": {}
        }
    },
    "extensionsUsed": [
        "KHR_materials_common"
    ],
    "images": {
        "image_MainIsland": {
            "uri": "MainIsland.png"
        }
    },
    "materials": {
        "material_Dirt": {
            "extensions": {
                "KHR_materials_common": {
                    "technique": "PHONG",
                    "values": {
                        "ambient": [
                            1.0,
                            1.0,
                            1.0,
                            1.0
                        ],
                        "diffuse": "texture_Island",
                        "doubleSided": false,
                        "emission": [
                            0.0,
                            0.0,
                            0.0,
                            1.0
                        ],
                        "shininess": 50,
                        "specular": [
                            0.5,
                            0.5,
                            0.5,
                            1.0
                        ],
                        "transparency": 1.0,
                        "transparent": false
                    }
                }
            },
            "name": "Dirt"
        },
        "material_Grass": {
            "extensions": {
                "KHR_materials_common": {
                    "technique": "PHONG",
                    "values": {
                        "ambient": [
                            1.0,
                            1.0,
                            1.0,
                            1.0
                        ],
                        "diffuse": "texture_Island",
                        "doubleSided": false,
                        "emission": [
                            0.0,
                            0.0,
                            0.0,
                            1.0
                        ],
                        "shininess": 50,
                        "specular": [
                            0.5,
                            0.5,
                            0.5,
                            1.0
                        ],
                        "transparency": 1.0,
                        "transparent": false
                    }
                }
            },
            "name": "Grass"
        },
        "material_GrassDark": {
            "extensions": {
                "KHR_materials_common": {
                    "technique": "PHONG",
                    "values": {
                        "ambient": [
                            1.0,
                            1.0,
                            1.0,
                            1.0
                        ],
                        "diffuse": "texture_Island",
                        "doubleSided": false,
                        "emission": [
                            0.0,
                            0.0,
                            0.0,
                            1.0
                        ],
                        "shininess": 50,
                        "specular": [
                            0.5,
                            0.5,
                            0.5,
                            1.0
                        ],
                        "transparency": 1.0,
                        "transparent": false
                    }
                }
            },
            "name": "GrassDark"
        }
    },
    "meshes": {
        "mesh_Cube.004": {
            "name": "Cube.004",
            "primitives": [
                {
                    "attributes": {
                        "COLOR_0": "accessor_buffer_Cube.004_3",
                        "NORMAL": "accessor_buffer_Cube.004_1",
                        "POSITION": "accessor_buffer_Cube.004_0",
                        "TEXCOORD_0": "accessor_buffer_Cube.004_2"
                    },
                    "indices": "accessor_buffer_Cube.004_4",
                    "material": "material_Dirt",
                    "mode": 4
                },
                {
                    "attributes": {
                        "COLOR_0": "accessor_buffer_Cube.004_3",
                        "NORMAL": "accessor_buffer_Cube.004_1",
                        "POSITION": "accessor_buffer_Cube.004_0",
                        "TEXCOORD_0": "accessor_buffer_Cube.004_2"
                    },
                    "indices": "accessor_buffer_Cube.004_5",
                    "material": "material_Grass",
                    "mode": 4
                },
                {
                    "attributes": {
                        "COLOR_0": "accessor_buffer_Cube.004_3",
                        "NORMAL": "accessor_buffer_Cube.004_1",
                        "POSITION": "accessor_buffer_Cube.004_0",
                        "TEXCOORD_0": "accessor_buffer_Cube.004_2"
                    },
                    "indices": "accessor_buffer_Cube.004_6",
                    "material": "material_GrassDark",
                    "mode": 4
                }
            ]
        }
    },
    "nodes": {
        "node_Main_Island": {
            "children": [],
            "matrix": [
                2.0,
                0.0,
                0.0,
                0.0,
                0.0,
                2.0,
                0.0,
                0.0,
                0.0,
                0.0,
                2.0,
                0.0,
                -23.135723114013672,
                7.592339992523193,
                -52.143089294433594,
                1.0
            ],
            "meshes": [
                "mesh_Cube.004"
            ],
            "name": "Main_Island"
        },
        "node_scene_Scene_root": {
            "children": [
                "node_Main_Island"
            ],
            "matrix": [
                1.0,
                0.0,
                0.0,
                0.0,
                0.0,
                0.0,
                -1.0,
                0.0,
                0.0,
                1.0,
                0.0,
                0.0,
                0.0,
                0.0,
                0.0,
                1.0
            ],
            "name": "node_scene_Scene_root"
        }
    },
    "samplers": {
        "sampler_default": {}
    },
    "scene": "scene_Scene",
    "scenes": {
        "scene_Scene": {
            "extras": {
                "active_camera": null,
                "background_color": [
                    0.06700000166893005,
                    0.06700000166893005,
                    0.066805899143219
                ],
                "frames_per_second": 24
            },
            "name": "Scene",
            "nodes": [
                "node_scene_Scene_root"
            ]
        }
    },
    "textures": {
        "texture_Island": {
            "format": 6408,
            "internalFormat": 6408,
            "sampler": "sampler_default",
            "source": "image_MainIsland"
        }
    }
}
