{
    "accessors": {
        "accessor_buffer_Icosphere.001_0": {
            "bufferView": "bufferView_buffer_Icosphere.001_0",
            "byteOffset": 0,
            "byteStride": 12,
            "componentType": 5126,
            "count": 960,
            "max": [
                7.793719291687012,
                7.999999523162842,
                0.6681966185569763
            ],
            "min": [
                -7.032955646514893,
                -6.88339900970459,
                -8.255575180053711
            ],
            "type": "VEC3"
        },
        "accessor_buffer_Icosphere.001_1": {
            "bufferView": "bufferView_buffer_Icosphere.001_0",
            "byteOffset": 11520,
            "byteStride": 12,
            "componentType": 5126,
            "count": 960,
            "max": [
                0.9952374696731567,
                0.9655107259750366,
                0.9999234676361084
            ],
            "min": [
                -0.997588574886322,
                -0.9999313354492188,
                -0.9919339418411255
            ],
            "type": "VEC3"
        },
        "accessor_buffer_Icosphere.001_2": {
            "bufferView": "bufferView_buffer_Icosphere.001_0",
            "byteOffset": 23040,
            "byteStride": 8,
            "componentType": 5126,
            "count": 960,
            "max": [
                0.9984833598136902,
                0.9984832827467471
            ],
            "min": [
                0.0015167172532528639,
                0.002384960651397705
            ],
            "type": "VEC2"
        },
        "accessor_buffer_Icosphere.001_3": {
            "bufferView": "bufferView_buffer_Icosphere.001_1",
            "byteOffset": 0,
            "byteStride": 2,
            "componentType": 5123,
            "count": 513,
            "max": [
                957
            ],
            "min": [
                1
            ],
            "type": "SCALAR"
        },
        "accessor_buffer_Icosphere.001_4": {
            "bufferView": "bufferView_buffer_Icosphere.001_2",
            "byteOffset": 0,
            "byteStride": 2,
            "componentType": 5123,
            "count": 447,
            "max": [
                959
            ],
            "min": [
                0
            ],
            "type": "SCALAR"
        }
    },
    "asset": {
        "profile": {
            "api": "WebGL",
            "version": "1.0.3"
        },
        "version": "1.0"
    },
    "bufferViews": {
        "bufferView_buffer_Icosphere.001_0": {
            "buffer": "buffer_combined",
            "byteLength": 30720,
            "byteOffset": 0,
            "target": 34962
        },
        "bufferView_buffer_Icosphere.001_1": {
            "buffer": "buffer_combined",
            "byteLength": 1026,
            "byteOffset": 30720,
            "target": 34963
        },
        "bufferView_buffer_Icosphere.001_2": {
            "buffer": "buffer_combined",
            "byteLength": 894,
            "byteOffset": 31746,
            "target": 34963
        }
    },
    "buffers": {
        "buffer_combined": {
            "byteLength": 32640,
            "type": "arraybuffer",
            "uri": "data:text/plain;base64,"
        }
    },
    "extensions": {
        "KHR_materials_common": {
            "lights": {}
        }
    },
    "extensionsUsed": [
        "KHR_materials_common"
    ],
    "images": {
        "image_NIcelandIsland": {
            "uri": "NIcelandIsland.png"
        }
    },
    "materials": {
        "material_Ice": {
            "extensions": {
                "KHR_materials_common": {
                    "technique": "PHONG",
                    "values": {
                        "ambient": [
                            1.0,
                            1.0,
                            1.0,
                            1.0
                        ],
                        "diffuse": "texture_NIcelandIsland",
                        "doubleSided": false,
                        "emission": [
                            0.0,
                            0.0,
                            0.0,
                            1.0
                        ],
                        "shininess": 50,
                        "specular": [
                            0.5,
                            0.5,
                            0.5,
                            1.0
                        ],
                        "transparency": 1.0,
                        "transparent": false
                    }
                }
            },
            "name": "Ice"
        },
        "material_Snow": {
            "extensions": {
                "KHR_materials_common": {
                    "technique": "PHONG",
                    "values": {
                        "ambient": [
                            1.0,
                            1.0,
                            1.0,
                            1.0
                        ],
                        "diffuse": "texture_NIcelandIsland",
                        "doubleSided": false,
                        "emission": [
                            0.0,
                            0.0,
                            0.0,
                            1.0
                        ],
                        "shininess": 50,
                        "specular": [
                            0.5,
                            0.5,
                            0.5,
                            1.0
                        ],
                        "transparency": 1.0,
                        "transparent": false
                    }
                }
            },
            "name": "Snow"
        }
    },
    "meshes": {
        "mesh_Icosphere.001": {
            "name": "Icosphere.001",
            "primitives": [
                {
                    "attributes": {
                        "NORMAL": "accessor_buffer_Icosphere.001_1",
                        "POSITION": "accessor_buffer_Icosphere.001_0",
                        "TEXCOORD_0": "accessor_buffer_Icosphere.001_2"
                    },
                    "indices": "accessor_buffer_Icosphere.001_3",
                    "material": "material_Ice",
                    "mode": 4
                },
                {
                    "attributes": {
                        "NORMAL": "accessor_buffer_Icosphere.001_1",
                        "POSITION": "accessor_buffer_Icosphere.001_0",
                        "TEXCOORD_0": "accessor_buffer_Icosphere.001_2"
                    },
                    "indices": "accessor_buffer_Icosphere.001_4",
                    "material": "material_Snow",
                    "mode": 4
                }
            ]
        }
    },
    "nodes": {
        "node_NIceland Platform": {
            "children": [],
            "matrix": [
                1.0,
                0.0,
                0.0,
                0.0,
                0.0,
                1.0,
                0.0,
                0.0,
                0.0,
                0.0,
                1.0,
                0.0,
                -38.770713806152344,
                58.950653076171875,
                5.248923301696777,
                1.0
            ],
            "meshes": [
                "mesh_Icosphere.001"
            ],
            "name": "NIceland Platform"
        },
        "node_scene_Scene_root": {
            "children": [
                "node_NIceland Platform"
            ],
            "matrix": [
                1.0,
                0.0,
                0.0,
                0.0,
                0.0,
                0.0,
                -1.0,
                0.0,
                0.0,
                1.0,
                0.0,
                0.0,
                0.0,
                0.0,
                0.0,
                1.0
            ],
            "name": "node_scene_Scene_root"
        }
    },
    "samplers": {
        "sampler_default": {}
    },
    "scene": "scene_Scene",
    "scenes": {
        "scene_Scene": {
            "extras": {
                "active_camera": null,
                "background_color": [
                    0.06071953475475311,
                    0.06071953475475311,
                    0.06071953475475311
                ],
                "frames_per_second": 24
            },
            "name": "Scene",
            "nodes": [
                "node_scene_Scene_root"
            ]
        }
    },
    "textures": {
        "texture_NIcelandIsland": {
            "format": 6408,
            "internalFormat": 6408,
            "sampler": "sampler_default",
            "source": "image_NIcelandIsland"
        }
    }
}
