{
    "accessors": {
        "accessor_buffer_Cube.013_0": {
            "bufferView": "bufferView_buffer_Cube.013_0",
            "byteOffset": 0,
            "byteStride": 12,
            "componentType": 5126,
            "count": 24,
            "max": [
                1.0,
                1.0,
                1.0
            ],
            "min": [
                -1.0,
                -1.0,
                -1.0
            ],
            "type": "VEC3"
        },
        "accessor_buffer_Cube.013_1": {
            "bufferView": "bufferView_buffer_Cube.013_0",
            "byteOffset": 288,
            "byteStride": 12,
            "componentType": 5126,
            "count": 24,
            "max": [
                1.0,
                1.0,
                1.0
            ],
            "min": [
                -1.0,
                -1.0,
                -1.0
            ],
            "type": "VEC3"
        },
        "accessor_buffer_Cube.013_2": {
            "bufferView": "bufferView_buffer_Cube.013_1",
            "byteOffset": 0,
            "byteStride": 2,
            "componentType": 5123,
            "count": 36,
            "max": [
                23
            ],
            "min": [
                0
            ],
            "type": "SCALAR"
        }
    },
    "asset": {
        "profile": {
            "api": "WebGL",
            "version": "1.0.3"
        },
        "version": "1.0"
    },
    "bufferViews": {
        "bufferView_buffer_Cube.013_0": {
            "buffer": "buffer_combined",
            "byteLength": 576,
            "byteOffset": 0,
            "target": 34962
        },
        "bufferView_buffer_Cube.013_1": {
            "buffer": "buffer_combined",
            "byteLength": 72,
            "byteOffset": 576,
            "target": 34963
        }
    },
    "buffers": {
        "buffer_combined": {
            "byteLength": 648,
            "type": "arraybuffer",
            "uri": "data:text/plain;base64,"
        }
    },
    "extensions": {
        "KHR_materials_common": {
            "lights": {}
        }
    },
    "extensionsUsed": [
        "KHR_materials_common"
    ],
    "materials": {
        "material_SpawnGlow": {
            "extensions": {
                "KHR_materials_common": {
                    "technique": "PHONG",
                    "values": {
                        "ambient": [
                            1.0,
                            1.0,
                            1.0,
                            1.0
                        ],
                        "diffuse": [
                            0.2890833020210266,
                            0.16750071942806244,
                            0.2937891483306885,
                            1.0
                        ],
                        "doubleSided": false,
                        "emission": [
                            0.0,
                            0.0,
                            0.0,
                            1.0
                        ],
                        "shininess": 50,
                        "specular": [
                            0.5,
                            0.5,
                            0.5,
                            1.0
                        ],
                        "transparency": 1.0,
                        "transparent": false
                    }
                }
            },
            "name": "SpawnGlow"
        }
    },
    "meshes": {
        "mesh_Cube.013": {
            "name": "Cube.013",
            "primitives": [
                {
                    "attributes": {
                        "NORMAL": "accessor_buffer_Cube.013_1",
                        "POSITION": "accessor_buffer_Cube.013_0"
                    },
                    "indices": "accessor_buffer_Cube.013_2",
                    "material": "material_SpawnGlow",
                    "mode": 4
                }
            ]
        }
    },
    "nodes": {
        "node_SpawnLight2": {
            "children": [],
            "matrix": [
                -0.19586195051670074,
                -0.35657167434692383,
                0.0,
                0.0,
                0.6609528064727783,
                -0.3630560636520386,
                0.0,
                0.0,
                0.0,
                0.0,
                0.30901670455932617,
                0.0,
                2.372406005859375,
                4.259903907775879,
                -22.51923942565918,
                1.0
            ],
            "meshes": [
                "mesh_Cube.013"
            ],
            "name": "SpawnLight2"
        },
        "node_scene_Scene_root": {
            "children": [
                "node_SpawnLight2"
            ],
            "matrix": [
                1.0,
                0.0,
                0.0,
                0.0,
                0.0,
                0.0,
                -1.0,
                0.0,
                0.0,
                1.0,
                0.0,
                0.0,
                0.0,
                0.0,
                0.0,
                1.0
            ],
            "name": "node_scene_Scene_root"
        }
    },
    "samplers": {
        "sampler_default": {}
    },
    "scene": "scene_Scene",
    "scenes": {
        "scene_Scene": {
            "extras": {
                "active_camera": null,
                "background_color": [
                    0.527718186378479,
                    0.527718186378479,
                    0.527718186378479
                ],
                "frames_per_second": 24
            },
            "name": "Scene",
            "nodes": [
                "node_scene_Scene_root"
            ]
        }
    }
}
