{
    "accessors": {
        "accessor_buffer_Cube.015_0": {
            "bufferView": "bufferView_buffer_Cube.015_0",
            "byteOffset": 0,
            "byteStride": 12,
            "componentType": 5126,
            "count": 756,
            "max": [
                7.469404697418213,
                7.340190410614014,
                0.8268741369247437
            ],
            "min": [
                -7.426285743713379,
                -7.308905124664307,
                -0.6757410168647766
            ],
            "type": "VEC3"
        },
        "accessor_buffer_Cube.015_1": {
            "bufferView": "bufferView_buffer_Cube.015_0",
            "byteOffset": 9072,
            "byteStride": 12,
            "componentType": 5126,
            "count": 756,
            "max": [
                0.9914574027061462,
                0.9999710917472839,
                1.0
            ],
            "min": [
                -0.9938936233520508,
                -1.0,
                -1.0
            ],
            "type": "VEC3"
        },
        "accessor_buffer_Cube.015_2": {
            "bufferView": "bufferView_buffer_Cube.015_0",
            "byteOffset": 18144,
            "byteStride": 8,
            "componentType": 5126,
            "count": 756,
            "max": [
                0.9990484714508057,
                0.9990474396618083
            ],
            "min": [
                0.0009515071287751198,
                0.0009525418281555176
            ],
            "type": "VEC2"
        },
        "accessor_buffer_Cube.015_3": {
            "bufferView": "bufferView_buffer_Cube.015_1",
            "byteOffset": 0,
            "byteStride": 2,
            "componentType": 5123,
            "count": 648,
            "max": [
                753
            ],
            "min": [
                1
            ],
            "type": "SCALAR"
        },
        "accessor_buffer_Cube.015_4": {
            "bufferView": "bufferView_buffer_Cube.015_2",
            "byteOffset": 0,
            "byteStride": 2,
            "componentType": 5123,
            "count": 432,
            "max": [
                755
            ],
            "min": [
                0
            ],
            "type": "SCALAR"
        }
    },
    "asset": {
        "profile": {
            "api": "WebGL",
            "version": "1.0.3"
        },
        "version": "1.0"
    },
    "bufferViews": {
        "bufferView_buffer_Cube.015_0": {
            "buffer": "buffer_combined",
            "byteLength": 24192,
            "byteOffset": 0,
            "target": 34962
        },
        "bufferView_buffer_Cube.015_1": {
            "buffer": "buffer_combined",
            "byteLength": 1296,
            "byteOffset": 24192,
            "target": 34963
        },
        "bufferView_buffer_Cube.015_2": {
            "buffer": "buffer_combined",
            "byteLength": 864,
            "byteOffset": 25488,
            "target": 34963
        }
    },
    "buffers": {
        "buffer_combined": {
            "byteLength": 26352,
            "type": "arraybuffer",
            "uri": "data:text/plain;base64,"
        }
    },
    "extensions": {
        "KHR_materials_common": {
            "lights": {}
        }
    },
    "extensionsUsed": [
        "KHR_materials_common"
    ],
    "images": {
        "image_SpawnCircle": {
            "uri": "SpawnCircle.png"
        }
    },
    "materials": {
        "material_GreyStone": {
            "extensions": {
                "KHR_materials_common": {
                    "technique": "PHONG",
                    "values": {
                        "ambient": [
                            1.0,
                            1.0,
                            1.0,
                            1.0
                        ],
                        "diffuse": "texture_Spawn",
                        "doubleSided": false,
                        "emission": [
                            0.0,
                            0.0,
                            0.0,
                            1.0
                        ],
                        "shininess": 50,
                        "specular": [
                            0.5,
                            0.5,
                            0.5,
                            1.0
                        ],
                        "transparency": 1.0,
                        "transparent": false
                    }
                }
            },
            "name": "GreyStone"
        },
        "material_GreyStoneLight": {
            "extensions": {
                "KHR_materials_common": {
                    "technique": "PHONG",
                    "values": {
                        "ambient": [
                            1.0,
                            1.0,
                            1.0,
                            1.0
                        ],
                        "diffuse": "texture_Spawn",
                        "doubleSided": false,
                        "emission": [
                            0.0,
                            0.0,
                            0.0,
                            1.0
                        ],
                        "shininess": 50,
                        "specular": [
                            0.5,
                            0.5,
                            0.5,
                            1.0
                        ],
                        "transparency": 1.0,
                        "transparent": false
                    }
                }
            },
            "name": "GreyStoneLight"
        }
    },
    "meshes": {
        "mesh_Cube.015": {
            "name": "Cube.015",
            "primitives": [
                {
                    "attributes": {
                        "NORMAL": "accessor_buffer_Cube.015_1",
                        "POSITION": "accessor_buffer_Cube.015_0",
                        "TEXCOORD_0": "accessor_buffer_Cube.015_2"
                    },
                    "indices": "accessor_buffer_Cube.015_3",
                    "material": "material_GreyStoneLight",
                    "mode": 4
                },
                {
                    "attributes": {
                        "NORMAL": "accessor_buffer_Cube.015_1",
                        "POSITION": "accessor_buffer_Cube.015_0",
                        "TEXCOORD_0": "accessor_buffer_Cube.015_2"
                    },
                    "indices": "accessor_buffer_Cube.015_4",
                    "material": "material_GreyStone",
                    "mode": 4
                }
            ]
        }
    },
    "nodes": {
        "node_Spawn": {
            "children": [],
            "matrix": [
                1.0,
                0.0,
                0.0,
                0.0,
                0.0,
                1.0,
                0.0,
                0.0,
                0.0,
                0.0,
                0.7630611062049866,
                0.0,
                0.0,
                0.0,
                -26.100881576538086,
                1.0
            ],
            "meshes": [
                "mesh_Cube.015"
            ],
            "name": "Spawn"
        },
        "node_scene_Scene_root": {
            "children": [
                "node_Spawn"
            ],
            "matrix": [
                1.0,
                0.0,
                0.0,
                0.0,
                0.0,
                0.0,
                -1.0,
                0.0,
                0.0,
                1.0,
                0.0,
                0.0,
                0.0,
                0.0,
                0.0,
                1.0
            ],
            "name": "node_scene_Scene_root"
        }
    },
    "samplers": {
        "sampler_default": {}
    },
    "scene": "scene_Scene",
    "scenes": {
        "scene_Scene": {
            "extras": {
                "active_camera": null,
                "background_color": [
                    0.527718186378479,
                    0.527718186378479,
                    0.527718186378479
                ],
                "frames_per_second": 24
            },
            "name": "Scene",
            "nodes": [
                "node_scene_Scene_root"
            ]
        }
    },
    "textures": {
        "texture_Spawn": {
            "format": 6408,
            "internalFormat": 6408,
            "sampler": "sampler_default",
            "source": "image_SpawnCircle"
        }
    }
}
