{
    "accessors" : [
        {
            "bufferView" : 0, 
            "componentType" : 5123, 
            "count" : 378, 
            "max" : [
                347
            ], 
            "min" : [
                0
            ], 
            "type" : "SCALAR"
        }, 
        {
            "bufferView" : 1, 
            "componentType" : 5126, 
            "count" : 348, 
            "max" : [
                1.3371775150299072, 
                1.3012837171554565, 
                3.902803659439087
            ], 
            "min" : [
                -1.3371775150299072, 
                -1.3012843132019043, 
                -1.322948694229126
            ], 
            "type" : "VEC3"
        }, 
        {
            "bufferView" : 2, 
            "componentType" : 5126, 
            "count" : 348, 
            "max" : [
                0.9968944191932678, 
                0.9968944098800421
            ], 
            "min" : [
                0.003105590119957924, 
                0.0031055808067321777
            ], 
            "type" : "VEC2"
        }
    ], 
    "asset" : {
        "generator" : "Khronos Blender glTF 2.0 exporter", 
        "version" : "2.0"
    }, 
    "bufferViews" : [
        {
            "buffer" : 0, 
            "byteLength" : 756, 
            "byteOffset" : 0, 
            "target" : 34963
        }, 
        {
            "buffer" : 0, 
            "byteLength" : 4176, 
            "byteOffset" : 756, 
            "target" : 34962
        }, 
        {
            "buffer" : 0, 
            "byteLength" : 2784, 
            "byteOffset" : 4932, 
            "target" : 34962
        }
    ], 
    "buffers" : [
        {
            "byteLength" : 7716, 
            "uri" : "data:application/octet-stream;base64,"
        }
    ], 
    "meshes" : [
        {
            "name" : "Cylinder.003", 
            "primitives" : [
                {
                    "attributes" : {
                        "POSITION" : 1, 
                        "TEXCOORD_0" : 2
                    }, 
                    "indices" : 0
                }
            ]
        }
    ], 
    "nodes" : [
        {
            "mesh" : 0, 
            "name" : "Hilt1", 
            "rotation" : [
                0.7071068286895752, 
                0.0, 
                -0.0, 
                0.7071068286895752
            ], 
            "scale" : [
                0.5, 
                0.05000000074505806, 
                0.5
            ], 
            "translation" : [
                0.0, 
                1.7421101331710815, 
                2.5249189405940342e-08
            ]
        }
    ], 
    "scene" : 0, 
    "scenes" : [
        {
            "name" : "Scene", 
            "nodes" : [
                0
            ]
        }
    ]
}
