{
    "accessors" : [
        {
            "bufferView" : 0, 
            "componentType" : 5123, 
            "count" : 378, 
            "max" : [
                349
            ], 
            "min" : [
                0
            ], 
            "type" : "SCALAR"
        }, 
        {
            "bufferView" : 1, 
            "componentType" : 5126, 
            "count" : 350, 
            "max" : [
                1.0143622159957886, 
                1.2721641063690186, 
                3.3344967365264893
            ], 
            "min" : [
                -1.0143622159957886, 
                -1.2721656560897827, 
                -1.4007725715637207
            ], 
            "type" : "VEC3"
        }, 
        {
            "bufferView" : 2, 
            "componentType" : 5126, 
            "count" : 350, 
            "max" : [
                0.9968944191932678, 
                0.9968944098800421
            ], 
            "min" : [
                0.003105590119957924, 
                0.0031055808067321777
            ], 
            "type" : "VEC2"
        }
    ], 
    "asset" : {
        "generator" : "Khronos Blender glTF 2.0 exporter", 
        "version" : "2.0"
    }, 
    "bufferViews" : [
        {
            "buffer" : 0, 
            "byteLength" : 756, 
            "byteOffset" : 0, 
            "target" : 34963
        }, 
        {
            "buffer" : 0, 
            "byteLength" : 4200, 
            "byteOffset" : 756, 
            "target" : 34962
        }, 
        {
            "buffer" : 0, 
            "byteLength" : 2800, 
            "byteOffset" : 4956, 
            "target" : 34962
        }
    ], 
    "buffers" : [
        {
            "byteLength" : 7756, 
            "uri" : "data:application/octet-stream;base64,"
        }
    ], 
    "meshes" : [
        {
            "name" : "Cylinder.006", 
            "primitives" : [
                {
                    "attributes" : {
                        "POSITION" : 1, 
                        "TEXCOORD_0" : 2
                    }, 
                    "indices" : 0
                }
            ]
        }
    ], 
    "nodes" : [
        {
            "mesh" : 0, 
            "name" : "Hilt3", 
            "rotation" : [
                0.7071068286895752, 
                0.0, 
                -0.0, 
                0.7071068286895752
            ], 
            "scale" : [
                0.5, 
                0.05000000074505806, 
                0.5
            ], 
            "translation" : [
                0.0, 
                1.7421101331710815, 
                -0.0
            ]
        }
    ], 
    "scene" : 0, 
    "scenes" : [
        {
            "name" : "Scene", 
            "nodes" : [
                0
            ]
        }
    ]
}
