{
    "accessors" : [
        {
            "bufferView" : 0, 
            "componentType" : 5121, 
            "count" : 102, 
            "max" : [
                83
            ], 
            "min" : [
                0
            ], 
            "type" : "SCALAR"
        }, 
        {
            "bufferView" : 1, 
            "componentType" : 5126, 
            "count" : 84, 
            "max" : [
                0.47756338119506836, 
                0.9686529636383057, 
                -1.2486580610275269
            ], 
            "min" : [
                -0.47756344079971313, 
                -0.9686530828475952, 
                -13.062335968017578
            ], 
            "type" : "VEC3"
        }, 
        {
            "bufferView" : 2, 
            "componentType" : 5126, 
            "count" : 84, 
            "max" : [
                0.9973807334899902, 
                0.9976237714290619
            ], 
            "min" : [
                0.008708477020263672, 
                0.0031055808067321777
            ], 
            "type" : "VEC2"
        }
    ], 
    "asset" : {
        "generator" : "Khronos Blender glTF 2.0 exporter", 
        "version" : "2.0"
    }, 
    "bufferViews" : [
        {
            "buffer" : 0, 
            "byteLength" : 102, 
            "byteOffset" : 0, 
            "target" : 34963
        }, 
        {
            "buffer" : 0, 
            "byteLength" : 1008, 
            "byteOffset" : 104, 
            "target" : 34962
        }, 
        {
            "buffer" : 0, 
            "byteLength" : 672, 
            "byteOffset" : 1112, 
            "target" : 34962
        }
    ], 
    "buffers" : [
        {
            "byteLength" : 1784, 
            "uri" : "data:application/octet-stream;base64,"
        }
    ], 
    "meshes" : [
        {
            "name" : "Cylinder", 
            "primitives" : [
                {
                    "attributes" : {
                        "POSITION" : 1, 
                        "TEXCOORD_0" : 2
                    }, 
                    "indices" : 0
                }
            ]
        }
    ], 
    "nodes" : [
        {
            "mesh" : 0, 
            "name" : "Blade1", 
            "rotation" : [
                0.7071068286895752, 
                0.0, 
                -0.0, 
                0.7071068286895752
            ], 
            "scale" : [
                0.5, 
                0.05000000074505806, 
                0.5
            ], 
            "translation" : [
                -1.4717196350488848e-08, 
                1.7421101331710815, 
                2.5249189405940342e-08
            ]
        }
    ], 
    "scene" : 0, 
    "scenes" : [
        {
            "name" : "Scene", 
            "nodes" : [
                0
            ]
        }
    ]
}
