{
    "accessors": {
        "accessor_buffer_Cube.001_0": {
            "bufferView": "bufferView_buffer_Cube.001_0",
            "byteOffset": 0,
            "byteStride": 12,
            "componentType": 5126,
            "count": 1116,
            "max": [
                0.8277987241744995,
                1.2510602474212646,
                0.9985125064849854
            ],
            "min": [
                -1.0398529767990112,
                -1.2259445190429688,
                -1.9903610944747925
            ],
            "type": "VEC3"
        },
        "accessor_buffer_Cube.001_1": {
            "bufferView": "bufferView_buffer_Cube.001_0",
            "byteOffset": 13392,
            "byteStride": 12,
            "componentType": 5126,
            "count": 1116,
            "max": [
                0.9994447827339172,
                0.9986270070075989,
                0.9979557394981384
            ],
            "min": [
                -0.9999071359634399,
                -0.999840259552002,
                -0.9952673316001892
            ],
            "type": "VEC3"
        },
        "accessor_buffer_Cube.001_2": {
            "bufferView": "bufferView_buffer_Cube.001_0",
            "byteOffset": 26784,
            "byteStride": 8,
            "componentType": 5126,
            "count": 1116,
            "max": [
                0.9966335296630859,
                0.996637623058632
            ],
            "min": [
                0.0033664247021079063,
                0.0033623576164245605
            ],
            "type": "VEC2"
        },
        "accessor_buffer_Cube.001_3": {
            "bufferView": "bufferView_buffer_Cube.001_1",
            "byteOffset": 0,
            "byteStride": 2,
            "componentType": 5123,
            "count": 3066,
            "max": [
                1115
            ],
            "min": [
                0
            ],
            "type": "SCALAR"
        }
    },
    "asset": {
        "profile": {
            "api": "WebGL",
            "version": "1.0.3"
        },
        "version": "1.0"
    },
    "bufferViews": {
        "bufferView_buffer_Cube.001_0": {
            "buffer": "buffer_combined",
            "byteLength": 35712,
            "byteOffset": 0,
            "target": 34962
        },
        "bufferView_buffer_Cube.001_1": {
            "buffer": "buffer_combined",
            "byteLength": 6132,
            "byteOffset": 35712,
            "target": 34963
        }
    },
    "buffers": {
        "buffer_combined": {
            "byteLength": 41844,
            "type": "arraybuffer",
            "uri": "data:text/plain;base64,"
        }
    },
    "extensions": {
        "KHR_materials_common": {
            "lights": {}
        }
    },
    "extensionsUsed": [
        "KHR_materials_common"
    ],
    "images": {
        "image_BagBaked": {
            "uri": "BagBaked.jpg"
        }
    },
    "materials": {
        "material_Bag": {
            "extensions": {
                "KHR_materials_common": {
                    "technique": "PHONG",
                    "values": {
                        "ambient": [
                            1.0,
                            1.0,
                            1.0,
                            1.0
                        ],
                        "diffuse": "texture_BagBaked",
                        "doubleSided": false,
                        "emission": [
                            0.0,
                            0.0,
                            0.0,
                            1.0
                        ],
                        "shininess": 50,
                        "specular": [
                            0.5,
                            0.5,
                            0.5,
                            1.0
                        ],
                        "transparency": 1.0,
                        "transparent": false
                    }
                }
            },
            "name": "Bag"
        }
    },
    "meshes": {
        "mesh_Cube.001": {
            "name": "Cube.001",
            "primitives": [
                {
                    "attributes": {
                        "NORMAL": "accessor_buffer_Cube.001_1",
                        "POSITION": "accessor_buffer_Cube.001_0",
                        "TEXCOORD_0": "accessor_buffer_Cube.001_2"
                    },
                    "indices": "accessor_buffer_Cube.001_3",
                    "material": "material_Bag",
                    "mode": 4
                }
            ]
        }
    },
    "nodes": {
        "node_Cube.002": {
            "children": [],
            "matrix": [
                1.0,
                0.0,
                0.0,
                0.0,
                0.0,
                1.0,
                0.0,
                0.0,
                0.0,
                0.0,
                1.0,
                0.0,
                0.0,
                0.0,
                2.0,
                1.0
            ],
            "meshes": [
                "mesh_Cube.001"
            ],
            "name": "Cube.002"
        },
        "node_scene_Scene_root": {
            "children": [
                "node_Cube.002"
            ],
            "matrix": [
                1.0,
                0.0,
                0.0,
                0.0,
                0.0,
                0.0,
                -1.0,
                0.0,
                0.0,
                1.0,
                0.0,
                0.0,
                0.0,
                0.0,
                0.0,
                1.0
            ],
            "name": "node_scene_Scene_root"
        }
    },
    "samplers": {
        "sampler_default": {}
    },
    "scene": "scene_Scene",
    "scenes": {
        "scene_Scene": {
            "extras": {
                "active_camera": null,
                "background_color": [
                    0.08713989704847336,
                    0.08713989704847336,
                    0.08713989704847336
                ],
                "frames_per_second": 24
            },
            "name": "Scene",
            "nodes": [
                "node_scene_Scene_root"
            ]
        }
    },
    "textures": {
        "texture_BagBaked": {
            "format": 6408,
            "internalFormat": 6408,
            "sampler": "sampler_default",
            "source": "image_BagBaked"
        }
    }
}
