{
    "accessors": {
        "accessor_buffer_Cube.000_0": {
            "bufferView": "bufferView_buffer_Cube.000_0",
            "byteOffset": 0,
            "byteStride": 12,
            "componentType": 5126,
            "count": 224,
            "max": [
                1.083335518836975,
                0.7641589045524597,
                0.15346670150756836
            ],
            "min": [
                -0.02533400058746338,
                -0.7640355825424194,
                -0.7267923355102539
            ],
            "type": "VEC3"
        },
        "accessor_buffer_Cube.000_1": {
            "bufferView": "bufferView_buffer_Cube.000_0",
            "byteOffset": 2688,
            "byteStride": 12,
            "componentType": 5126,
            "count": 224,
            "max": [
                0.9946160316467285,
                1.0,
                0.9944695830345154
            ],
            "min": [
                -0.9925318956375122,
                -0.8317022323608398,
                -0.9999889731407166
            ],
            "type": "VEC3"
        },
        "accessor_buffer_Cube.000_2": {
            "bufferView": "bufferView_buffer_Cube.000_0",
            "byteOffset": 5376,
            "byteStride": 8,
            "componentType": 5126,
            "count": 224,
            "max": [
                0.9906469583511353,
                0.9905565893277526
            ],
            "min": [
                0.009353005327284336,
                0.009443461894989014
            ],
            "type": "VEC2"
        },
        "accessor_buffer_Cube.000_3": {
            "bufferView": "bufferView_buffer_Cube.000_1",
            "byteOffset": 0,
            "byteStride": 2,
            "componentType": 5123,
            "count": 582,
            "max": [
                223
            ],
            "min": [
                0
            ],
            "type": "SCALAR"
        }
    },
    "asset": {
        "profile": {
            "api": "WebGL",
            "version": "1.0.3"
        },
        "version": "1.0"
    },
    "bufferViews": {
        "bufferView_buffer_Cube.000_0": {
            "buffer": "buffer_combined",
            "byteLength": 7168,
            "byteOffset": 0,
            "target": 34962
        },
        "bufferView_buffer_Cube.000_1": {
            "buffer": "buffer_combined",
            "byteLength": 1164,
            "byteOffset": 7168,
            "target": 34963
        }
    },
    "buffers": {
        "buffer_combined": {
            "byteLength": 8332,
            "type": "arraybuffer",
            "uri": "data:text/plain;base64,"
        }
    },
    "extensions": {
        "KHR_materials_common": {
            "lights": {}
        }
    },
    "extensionsUsed": [
        "KHR_materials_common"
    ],
    "images": {
        "image_BagCoverBaked": {
            "uri": "BagCoverBaked.jpg"
        }
    },
    "materials": {
        "material_BagCover": {
            "extensions": {
                "KHR_materials_common": {
                    "technique": "PHONG",
                    "values": {
                        "ambient": [
                            1.0,
                            1.0,
                            1.0,
                            1.0
                        ],
                        "diffuse": "texture_BagCoverBaked",
                        "doubleSided": false,
                        "emission": [
                            0.0,
                            0.0,
                            0.0,
                            1.0
                        ],
                        "shininess": 50,
                        "specular": [
                            0.5,
                            0.5,
                            0.5,
                            1.0
                        ],
                        "transparency": 1.0,
                        "transparent": false
                    }
                }
            },
            "name": "BagCover"
        }
    },
    "meshes": {
        "mesh_Cube.000": {
            "name": "Cube.000",
            "primitives": [
                {
                    "attributes": {
                        "NORMAL": "accessor_buffer_Cube.000_1",
                        "POSITION": "accessor_buffer_Cube.000_0",
                        "TEXCOORD_0": "accessor_buffer_Cube.000_2"
                    },
                    "indices": "accessor_buffer_Cube.000_3",
                    "material": "material_BagCover",
                    "mode": 4
                }
            ]
        }
    },
    "nodes": {
        "node_Cube.001": {
            "children": [],
            "matrix": [
                1.0,
                0.0,
                0.0,
                0.0,
                0.0,
                1.0,
                0.0,
                0.0,
                0.0,
                0.0,
                1.0,
                0.0,
                -0.3972562551498413,
                0.012519304640591145,
                2.9381299018859863,
                1.0
            ],
            "meshes": [
                "mesh_Cube.000"
            ],
            "name": "Cube.001"
        },
        "node_scene_Scene_root": {
            "children": [
                "node_Cube.001"
            ],
            "matrix": [
                1.0,
                0.0,
                0.0,
                0.0,
                0.0,
                0.0,
                -1.0,
                0.0,
                0.0,
                1.0,
                0.0,
                0.0,
                0.0,
                0.0,
                0.0,
                1.0
            ],
            "name": "node_scene_Scene_root"
        }
    },
    "samplers": {
        "sampler_default": {}
    },
    "scene": "scene_Scene",
    "scenes": {
        "scene_Scene": {
            "extras": {
                "active_camera": null,
                "background_color": [
                    0.08713989704847336,
                    0.08713989704847336,
                    0.08713989704847336
                ],
                "frames_per_second": 24
            },
            "name": "Scene",
            "nodes": [
                "node_scene_Scene_root"
            ]
        }
    },
    "textures": {
        "texture_BagCoverBaked": {
            "format": 6408,
            "internalFormat": 6408,
            "sampler": "sampler_default",
            "source": "image_BagCoverBaked"
        }
    }
}
