{
    "accessors": {
        "accessor_buffer_prim0_prim0-mesh_0": {
            "bufferView": "bufferView_buffer_prim0_prim0-mesh_0",
            "byteOffset": 0,
            "byteStride": 12,
            "componentType": 5126,
            "count": 1778,
            "max": [
                2.2297871112823486,
                2.0402960777282715,
                0.8716099858283997
            ],
            "min": [
                -1.9543730020523071,
                -2.017714023590088,
                0.1453496664762497
            ],
            "type": "VEC3"
        },
        "accessor_buffer_prim0_prim0-mesh_1": {
            "bufferView": "bufferView_buffer_prim0_prim0-mesh_0",
            "byteOffset": 21336,
            "byteStride": 12,
            "componentType": 5126,
            "count": 1778,
            "max": [
                0.9999147653579712,
                0.9966976046562195,
                0.9999970197677612
            ],
            "min": [
                -0.9913044571876526,
                -0.9966976046562195,
                -0.9998382329940796
            ],
            "type": "VEC3"
        },
        "accessor_buffer_prim0_prim0-mesh_2": {
            "bufferView": "bufferView_buffer_prim0_prim0-mesh_0",
            "byteOffset": 42672,
            "byteStride": 8,
            "componentType": 5126,
            "count": 1778,
            "max": [
                0.9937999844551086,
                1.0
            ],
            "min": [
                0.0,
                0.0
            ],
            "type": "VEC2"
        },
        "accessor_buffer_prim0_prim0-mesh_3": {
            "bufferView": "bufferView_buffer_prim0_prim0-mesh_1",
            "byteOffset": 0,
            "byteStride": 2,
            "componentType": 5123,
            "count": 8370,
            "max": [
                1777
            ],
            "min": [
                0
            ],
            "type": "SCALAR"
        }
    },
    "asset": {
        "profile": {
            "api": "WebGL",
            "version": "1.0.3"
        },
        "version": "1.0"
    },
    "bufferViews": {
        "bufferView_buffer_prim0_prim0-mesh_0": {
            "buffer": "buffer_combined",
            "byteLength": 56896,
            "byteOffset": 0,
            "target": 34962
        },
        "bufferView_buffer_prim0_prim0-mesh_1": {
            "buffer": "buffer_combined",
            "byteLength": 16740,
            "byteOffset": 56896,
            "target": 34963
        }
    },
    "buffers": {
        "buffer_combined": {
            "byteLength": 73636,
            "type": "arraybuffer",
            "uri": "data:text/plain;base64,"
        }
    },
    "extensions": {
        "KHR_materials_common": {
            "lights": {}
        }
    },
    "extensionsUsed": [
        "KHR_materials_common"
    ],
    "images": {
        "image_BearskinBlack.jpg": {
            "uri": "BearskinBlack.jpg"
        }
    },
    "materials": {
        "material_TextureMatBrown": {
            "extensions": {
                "KHR_materials_common": {
                    "technique": "PHONG",
                    "values": {
                        "ambient": [
                            1.0,
                            1.0,
                            1.0,
                            1.0
                        ],
                        "diffuse": "texture_TextureBlack",
                        "doubleSided": false,
                        "emission": [
                            0.0,
                            0.0,
                            0.0,
                            1.0
                        ],
                        "shininess": 50,
                        "specular": [
                            0.5,
                            0.5,
                            0.5,
                            1.0
                        ],
                        "transparency": 1.0,
                        "transparent": false
                    }
                }
            },
            "name": "TextureMatBrown"
        }
    },
    "meshes": {
        "mesh_prim0_prim0-mesh": {
            "name": "prim0_prim0-mesh",
            "primitives": [
                {
                    "attributes": {
                        "NORMAL": "accessor_buffer_prim0_prim0-mesh_1",
                        "POSITION": "accessor_buffer_prim0_prim0-mesh_0",
                        "TEXCOORD_0": "accessor_buffer_prim0_prim0-mesh_2"
                    },
                    "indices": "accessor_buffer_prim0_prim0-mesh_3",
                    "material": "material_TextureMatBrown",
                    "mode": 4
                }
            ]
        }
    },
    "nodes": {
        "node_prim0_prim0-mesh": {
            "children": [],
            "matrix": [
                1.0,
                0.0,
                0.0,
                0.0,
                0.0,
                1.0,
                0.0,
                0.0,
                0.0,
                0.0,
                1.0,
                0.0,
                0.0,
                0.0,
                0.0,
                1.0
            ],
            "meshes": [
                "mesh_prim0_prim0-mesh"
            ],
            "name": "prim0_prim0-mesh"
        },
        "node_scene_Scene_root": {
            "children": [
                "node_prim0_prim0-mesh"
            ],
            "matrix": [
                1.0,
                0.0,
                0.0,
                0.0,
                0.0,
                0.0,
                -1.0,
                0.0,
                0.0,
                1.0,
                0.0,
                0.0,
                0.0,
                0.0,
                0.0,
                1.0
            ],
            "name": "node_scene_Scene_root"
        }
    },
    "samplers": {
        "sampler_default": {}
    },
    "scene": "scene_Scene",
    "scenes": {
        "scene_Scene": {
            "extras": {
                "active_camera": null,
                "background_color": [
                    0.05087608844041824,
                    0.05087608844041824,
                    0.05087608844041824
                ],
                "frames_per_second": 24
            },
            "name": "Scene",
            "nodes": [
                "node_scene_Scene_root"
            ]
        }
    },
    "textures": {
        "texture_TextureBlack": {
            "format": 6408,
            "internalFormat": 6408,
            "sampler": "sampler_default",
            "source": "image_BearskinBlack.jpg"
        }
    }
}
