{
    "accessors": {
        "accessor_buffer_bread03_0": {
            "bufferView": "bufferView_buffer_bread03_0",
            "byteOffset": 0,
            "byteStride": 12,
            "componentType": 5126,
            "count": 92,
            "max": [
                3.9179232120513916,
                2.681495428085327,
                0.46207451820373535
            ],
            "min": [
                -3.9286022186279297,
                -2.025555372238159,
                0.02825266309082508
            ],
            "type": "VEC3"
        },
        "accessor_buffer_bread03_1": {
            "bufferView": "bufferView_buffer_bread03_0",
            "byteOffset": 1104,
            "byteStride": 12,
            "componentType": 5126,
            "count": 92,
            "max": [
                0.9974027276039124,
                0.9922649264335632,
                1.0
            ],
            "min": [
                -0.9959626793861389,
                -0.9988844394683838,
                -1.0
            ],
            "type": "VEC3"
        },
        "accessor_buffer_bread03_2": {
            "bufferView": "bufferView_buffer_bread03_0",
            "byteOffset": 2208,
            "byteStride": 8,
            "componentType": 5126,
            "count": 92,
            "max": [
                0.9817529916763306,
                0.9844720000401139
            ],
            "min": [
                0.04181800037622452,
                0.007354021072387695
            ],
            "type": "VEC2"
        },
        "accessor_buffer_bread03_3": {
            "bufferView": "bufferView_buffer_bread03_1",
            "byteOffset": 0,
            "byteStride": 2,
            "componentType": 5123,
            "count": 228,
            "max": [
                91
            ],
            "min": [
                0
            ],
            "type": "SCALAR"
        }
    },
    "asset": {
        "profile": {
            "api": "WebGL",
            "version": "1.0.3"
        },
        "version": "1.0"
    },
    "bufferViews": {
        "bufferView_buffer_bread03_0": {
            "buffer": "buffer_combined",
            "byteLength": 2944,
            "byteOffset": 0,
            "target": 34962
        },
        "bufferView_buffer_bread03_1": {
            "buffer": "buffer_combined",
            "byteLength": 456,
            "byteOffset": 2944,
            "target": 34963
        }
    },
    "buffers": {
        "buffer_combined": {
            "byteLength": 3400,
            "type": "arraybuffer",
            "uri": "data:text/plain;base64,"
        }
    },
    "extensions": {
        "KHR_materials_common": {
            "lights": {}
        }
    },
    "extensionsUsed": [
        "KHR_materials_common"
    ],
    "images": {
        "image_BreadSliceTexture.jpg": {
            "uri": "BreadSliceTexture.jpg"
        }
    },
    "materials": {
        "material_bread03": {
            "extensions": {
                "KHR_materials_common": {
                    "technique": "PHONG",
                    "values": {
                        "ambient": [
                            0.5882350206375122,
                            0.5882350206375122,
                            0.5882350206375122,
                            1.0
                        ],
                        "diffuse": "texture_Kd",
                        "doubleSided": false,
                        "emission": [
                            0.0,
                            0.0,
                            0.0,
                            1.0
                        ],
                        "shininess": 6,
                        "specular": [
                            0.0,
                            0.0,
                            0.0,
                            1.0
                        ],
                        "transparency": 1.0,
                        "transparent": true
                    }
                }
            },
            "name": "bread03"
        }
    },
    "meshes": {
        "mesh_bread03": {
            "name": "bread03",
            "primitives": [
                {
                    "attributes": {
                        "NORMAL": "accessor_buffer_bread03_1",
                        "POSITION": "accessor_buffer_bread03_0",
                        "TEXCOORD_0": "accessor_buffer_bread03_2"
                    },
                    "indices": "accessor_buffer_bread03_3",
                    "material": "material_bread03",
                    "mode": 4
                }
            ]
        }
    },
    "nodes": {
        "node_bread03": {
            "children": [],
            "matrix": [
                1.0,
                0.0,
                0.0,
                0.0,
                0.0,
                1.0,
                0.0,
                0.0,
                0.0,
                0.0,
                1.0,
                0.0,
                0.0,
                0.0,
                0.0,
                1.0
            ],
            "meshes": [
                "mesh_bread03"
            ],
            "name": "bread03"
        },
        "node_scene_Scene_root": {
            "children": [
                "node_bread03"
            ],
            "matrix": [
                1.0,
                0.0,
                0.0,
                0.0,
                0.0,
                0.0,
                -1.0,
                0.0,
                0.0,
                1.0,
                0.0,
                0.0,
                0.0,
                0.0,
                0.0,
                1.0
            ],
            "name": "node_scene_Scene_root"
        }
    },
    "samplers": {
        "sampler_default": {}
    },
    "scene": "scene_Scene",
    "scenes": {
        "scene_Scene": {
            "extras": {
                "active_camera": null,
                "background_color": [
                    0.05087608844041824,
                    0.05087608844041824,
                    0.05087608844041824
                ],
                "frames_per_second": 24
            },
            "name": "Scene",
            "nodes": [
                "node_scene_Scene_root"
            ]
        }
    },
    "textures": {
        "texture_Kd": {
            "format": 6408,
            "internalFormat": 6408,
            "sampler": "sampler_default",
            "source": "image_BreadSliceTexture.jpg"
        }
    }
}
