{
    "accessors": {
        "accessor_buffer_bread01_0": {
            "bufferView": "bufferView_buffer_bread01_0",
            "byteOffset": 0,
            "byteStride": 12,
            "componentType": 5126,
            "count": 548,
            "max": [
                3.8634047508239746,
                9.649663925170898,
                4.727268218994141
            ],
            "min": [
                -3.9833927154541016,
                -9.628946304321289,
                0.009412765502929688
            ],
            "type": "VEC3"
        },
        "accessor_buffer_bread01_1": {
            "bufferView": "bufferView_buffer_bread01_0",
            "byteOffset": 6576,
            "byteStride": 12,
            "componentType": 5126,
            "count": 548,
            "max": [
                0.9999801516532898,
                0.9952419996261597,
                0.9999964833259583
            ],
            "min": [
                -0.9990277290344238,
                -0.9952419996261597,
                -0.9999567270278931
            ],
            "type": "VEC3"
        },
        "accessor_buffer_bread01_2": {
            "bufferView": "bufferView_buffer_bread01_0",
            "byteOffset": 13152,
            "byteStride": 8,
            "componentType": 5126,
            "count": 548,
            "max": [
                0.9909819960594177,
                0.9979999999050051
            ],
            "min": [
                0.005508999805897474,
                0.028397977352142334
            ],
            "type": "VEC2"
        },
        "accessor_buffer_bread01_3": {
            "bufferView": "bufferView_buffer_bread01_1",
            "byteOffset": 0,
            "byteStride": 2,
            "componentType": 5123,
            "count": 2328,
            "max": [
                547
            ],
            "min": [
                0
            ],
            "type": "SCALAR"
        }
    },
    "asset": {
        "profile": {
            "api": "WebGL",
            "version": "1.0.3"
        },
        "version": "1.0"
    },
    "bufferViews": {
        "bufferView_buffer_bread01_0": {
            "buffer": "buffer_combined",
            "byteLength": 17536,
            "byteOffset": 0,
            "target": 34962
        },
        "bufferView_buffer_bread01_1": {
            "buffer": "buffer_combined",
            "byteLength": 4656,
            "byteOffset": 17536,
            "target": 34963
        }
    },
    "buffers": {
        "buffer_combined": {
            "byteLength": 22192,
            "type": "arraybuffer",
            "uri": "data:text/plain;base64,"
        }
    },
    "extensions": {
        "KHR_materials_common": {
            "lights": {}
        }
    },
    "extensionsUsed": [
        "KHR_materials_common"
    ],
    "images": {
        "image_BreadFullTexture.jpg": {
            "uri": "BreadFullTexture.jpg"
        }
    },
    "materials": {
        "material_bread1": {
            "extensions": {
                "KHR_materials_common": {
                    "technique": "PHONG",
                    "values": {
                        "ambient": [
                            0.5882350206375122,
                            0.5882350206375122,
                            0.5882350206375122,
                            1.0
                        ],
                        "diffuse": "texture_Kd.001",
                        "doubleSided": false,
                        "emission": [
                            0.0,
                            0.0,
                            0.0,
                            1.0
                        ],
                        "shininess": 6,
                        "specular": [
                            0.0,
                            0.0,
                            0.0,
                            1.0
                        ],
                        "transparency": 1.0,
                        "transparent": true
                    }
                }
            },
            "name": "bread1"
        }
    },
    "meshes": {
        "mesh_bread01": {
            "name": "bread01",
            "primitives": [
                {
                    "attributes": {
                        "NORMAL": "accessor_buffer_bread01_1",
                        "POSITION": "accessor_buffer_bread01_0",
                        "TEXCOORD_0": "accessor_buffer_bread01_2"
                    },
                    "indices": "accessor_buffer_bread01_3",
                    "material": "material_bread1",
                    "mode": 4
                }
            ]
        }
    },
    "nodes": {
        "node_bread01": {
            "children": [],
            "matrix": [
                1.0,
                0.0,
                0.0,
                0.0,
                0.0,
                1.0,
                0.0,
                0.0,
                0.0,
                0.0,
                1.0,
                0.0,
                0.0,
                0.0,
                0.0,
                1.0
            ],
            "meshes": [
                "mesh_bread01"
            ],
            "name": "bread01"
        },
        "node_scene_Scene_root": {
            "children": [
                "node_bread01"
            ],
            "matrix": [
                1.0,
                0.0,
                0.0,
                0.0,
                0.0,
                0.0,
                -1.0,
                0.0,
                0.0,
                1.0,
                0.0,
                0.0,
                0.0,
                0.0,
                0.0,
                1.0
            ],
            "name": "node_scene_Scene_root"
        }
    },
    "samplers": {
        "sampler_default": {}
    },
    "scene": "scene_Scene",
    "scenes": {
        "scene_Scene": {
            "extras": {
                "active_camera": null,
                "background_color": [
                    0.05087608844041824,
                    0.05087608844041824,
                    0.05087608844041824
                ],
                "frames_per_second": 24
            },
            "name": "Scene",
            "nodes": [
                "node_scene_Scene_root"
            ]
        }
    },
    "textures": {
        "texture_Kd.001": {
            "format": 6408,
            "internalFormat": 6408,
            "sampler": "sampler_default",
            "source": "image_BreadFullTexture.jpg"
        }
    }
}
