{
    "accessors": {
        "accessor_buffer_bread02_0": {
            "bufferView": "bufferView_buffer_bread02_0",
            "byteOffset": 0,
            "byteStride": 12,
            "componentType": 5126,
            "count": 342,
            "max": [
                3.837766170501709,
                2.350862741470337,
                4.251552104949951
            ],
            "min": [
                -3.8874382972717285,
                -2.811086416244507,
                -5.387754440307617
            ],
            "type": "VEC3"
        },
        "accessor_buffer_bread02_1": {
            "bufferView": "bufferView_buffer_bread02_0",
            "byteOffset": 4104,
            "byteStride": 12,
            "componentType": 5126,
            "count": 342,
            "max": [
                0.9914982318878174,
                0.9961156845092773,
                0.9952420592308044
            ],
            "min": [
                -0.9844832420349121,
                -0.9946271181106567,
                -1.0
            ],
            "type": "VEC3"
        },
        "accessor_buffer_bread02_2": {
            "bufferView": "bufferView_buffer_bread02_0",
            "byteOffset": 8208,
            "byteStride": 8,
            "componentType": 5126,
            "count": 342,
            "max": [
                0.9938330054283142,
                0.9979999999050051
            ],
            "min": [
                0.0020000000949949026,
                0.001999974250793457
            ],
            "type": "VEC2"
        },
        "accessor_buffer_bread02_3": {
            "bufferView": "bufferView_buffer_bread02_1",
            "byteOffset": 0,
            "byteStride": 2,
            "componentType": 5123,
            "count": 1224,
            "max": [
                341
            ],
            "min": [
                0
            ],
            "type": "SCALAR"
        }
    },
    "asset": {
        "profile": {
            "api": "WebGL",
            "version": "1.0.3"
        },
        "version": "1.0"
    },
    "bufferViews": {
        "bufferView_buffer_bread02_0": {
            "buffer": "buffer_combined",
            "byteLength": 10944,
            "byteOffset": 0,
            "target": 34962
        },
        "bufferView_buffer_bread02_1": {
            "buffer": "buffer_combined",
            "byteLength": 2448,
            "byteOffset": 10944,
            "target": 34963
        }
    },
    "buffers": {
        "buffer_combined": {
            "byteLength": 13392,
            "type": "arraybuffer",
            "uri": "data:text/plain;base64,"
        }
    },
    "extensions": {
        "KHR_materials_common": {
            "lights": {}
        }
    },
    "extensionsUsed": [
        "KHR_materials_common"
    ],
    "images": {
        "image_BreadHalfTexture.jpg": {
            "uri": "BreadHalfTexture.jpg"
        }
    },
    "materials": {
        "material_bread2": {
            "extensions": {
                "KHR_materials_common": {
                    "technique": "PHONG",
                    "values": {
                        "ambient": [
                            0.5882350206375122,
                            0.5882350206375122,
                            0.5882350206375122,
                            1.0
                        ],
                        "diffuse": "texture_Kd.002",
                        "doubleSided": false,
                        "emission": [
                            0.0,
                            0.0,
                            0.0,
                            1.0
                        ],
                        "shininess": 6,
                        "specular": [
                            0.0,
                            0.0,
                            0.0,
                            1.0
                        ],
                        "transparency": 1.0,
                        "transparent": true
                    }
                }
            },
            "name": "bread2"
        }
    },
    "meshes": {
        "mesh_bread02": {
            "name": "bread02",
            "primitives": [
                {
                    "attributes": {
                        "NORMAL": "accessor_buffer_bread02_1",
                        "POSITION": "accessor_buffer_bread02_0",
                        "TEXCOORD_0": "accessor_buffer_bread02_2"
                    },
                    "indices": "accessor_buffer_bread02_3",
                    "material": "material_bread2",
                    "mode": 4
                }
            ]
        }
    },
    "nodes": {
        "node_bread02": {
            "children": [],
            "matrix": [
                -0.9867194890975952,
                0.0,
                0.1624336838722229,
                0.0,
                -0.1624336838722229,
                -1.6292068494294654e-07,
                -0.9867194890975952,
                0.0,
                2.6463807145660212e-08,
                -1.0,
                1.6075701125828346e-07,
                0.0,
                -0.16769792139530182,
                -0.12730029225349426,
                1.876265525817871,
                1.0
            ],
            "meshes": [
                "mesh_bread02"
            ],
            "name": "bread02"
        },
        "node_scene_Scene_root": {
            "children": [
                "node_bread02"
            ],
            "matrix": [
                1.0,
                0.0,
                0.0,
                0.0,
                0.0,
                0.0,
                -1.0,
                0.0,
                0.0,
                1.0,
                0.0,
                0.0,
                0.0,
                0.0,
                0.0,
                1.0
            ],
            "name": "node_scene_Scene_root"
        }
    },
    "samplers": {
        "sampler_default": {}
    },
    "scene": "scene_Scene",
    "scenes": {
        "scene_Scene": {
            "extras": {
                "active_camera": null,
                "background_color": [
                    0.05087608844041824,
                    0.05087608844041824,
                    0.05087608844041824
                ],
                "frames_per_second": 24
            },
            "name": "Scene",
            "nodes": [
                "node_scene_Scene_root"
            ]
        }
    },
    "textures": {
        "texture_Kd.002": {
            "format": 6408,
            "internalFormat": 6408,
            "sampler": "sampler_default",
            "source": "image_BreadHalfTexture.jpg"
        }
    }
}
