{
    "accessors": {
        "accessor_buffer_Untitled.005_0": {
            "bufferView": "bufferView_buffer_Untitled.005_0",
            "byteOffset": 0,
            "byteStride": 12,
            "componentType": 5126,
            "count": 293,
            "max": [
                1.5069169998168945,
                2.3966681957244873,
                2.407897710800171
            ],
            "min": [
                -1.5156513452529907,
                -2.4293758869171143,
                -1.6794439554214478
            ],
            "type": "VEC3"
        },
        "accessor_buffer_Untitled.005_1": {
            "bufferView": "bufferView_buffer_Untitled.005_0",
            "byteOffset": 3516,
            "byteStride": 12,
            "componentType": 5126,
            "count": 293,
            "max": [
                0.9955832958221436,
                0.977558434009552,
                0.9987652897834778
            ],
            "min": [
                -0.9965221285820007,
                -0.9932698011398315,
                -0.9985527396202087
            ],
            "type": "VEC3"
        },
        "accessor_buffer_Untitled.005_2": {
            "bufferView": "bufferView_buffer_Untitled.005_0",
            "byteOffset": 7032,
            "byteStride": 8,
            "componentType": 5126,
            "count": 293,
            "max": [
                1.0,
                1.0
            ],
            "min": [
                0.0,
                0.0
            ],
            "type": "VEC2"
        },
        "accessor_buffer_Untitled.005_3": {
            "bufferView": "bufferView_buffer_Untitled.005_1",
            "byteOffset": 0,
            "byteStride": 2,
            "componentType": 5123,
            "count": 1224,
            "max": [
                292
            ],
            "min": [
                0
            ],
            "type": "SCALAR"
        }
    },
    "asset": {
        "profile": {
            "api": "WebGL",
            "version": "1.0.3"
        },
        "version": "1.0"
    },
    "bufferViews": {
        "bufferView_buffer_Untitled.005_0": {
            "buffer": "buffer_combined",
            "byteLength": 9376,
            "byteOffset": 0,
            "target": 34962
        },
        "bufferView_buffer_Untitled.005_1": {
            "buffer": "buffer_combined",
            "byteLength": 2448,
            "byteOffset": 9376,
            "target": 34963
        }
    },
    "buffers": {
        "buffer_combined": {
            "byteLength": 11824,
            "type": "arraybuffer",
            "uri": "data:text/plain;base64,"
        }
    },
    "extensions": {
        "KHR_materials_common": {
            "lights": {}
        }
    },
    "extensionsUsed": [
        "KHR_materials_common"
    ],
    "images": {
        "image_HeartTexture": {
            "uri": "HeartTexture.png"
        }
    },
    "materials": {
        "material_ShinyRed": {
            "extensions": {
                "KHR_materials_common": {
                    "technique": "PHONG",
                    "values": {
                        "ambient": [
                            1.0,
                            1.0,
                            1.0,
                            1.0
                        ],
                        "diffuse": "texture_HeartTexture",
                        "doubleSided": false,
                        "emission": [
                            0.0,
                            0.0,
                            0.0,
                            1.0
                        ],
                        "shininess": 50,
                        "specular": [
                            0.5,
                            0.5,
                            0.5,
                            1.0
                        ],
                        "transparency": 1.0,
                        "transparent": false
                    }
                }
            },
            "name": "ShinyRed"
        }
    },
    "meshes": {
        "mesh_Untitled.005": {
            "name": "Untitled.005",
            "primitives": [
                {
                    "attributes": {
                        "NORMAL": "accessor_buffer_Untitled.005_1",
                        "POSITION": "accessor_buffer_Untitled.005_0",
                        "TEXCOORD_0": "accessor_buffer_Untitled.005_2"
                    },
                    "indices": "accessor_buffer_Untitled.005_3",
                    "material": "material_ShinyRed",
                    "mode": 4
                }
            ]
        }
    },
    "nodes": {
        "node_Heart": {
            "children": [],
            "matrix": [
                1.0,
                0.0,
                0.0,
                0.0,
                0.0,
                1.0,
                0.0,
                0.0,
                0.0,
                0.0,
                1.0,
                0.0,
                0.0,
                0.0,
                0.0,
                1.0
            ],
            "meshes": [
                "mesh_Untitled.005"
            ],
            "name": "Heart"
        },
        "node_scene_Scene_root": {
            "children": [
                "node_Heart"
            ],
            "matrix": [
                1.0,
                0.0,
                0.0,
                0.0,
                0.0,
                0.0,
                -1.0,
                0.0,
                0.0,
                1.0,
                0.0,
                0.0,
                0.0,
                0.0,
                0.0,
                1.0
            ],
            "name": "node_scene_Scene_root"
        }
    },
    "samplers": {
        "sampler_default": {}
    },
    "scene": "scene_Scene",
    "scenes": {
        "scene_Scene": {
            "extras": {
                "active_camera": null,
                "background_color": [
                    0.05087608844041824,
                    0.05087608844041824,
                    0.05087608844041824
                ],
                "frames_per_second": 30
            },
            "name": "Scene",
            "nodes": [
                "node_scene_Scene_root"
            ]
        }
    },
    "textures": {
        "texture_HeartTexture": {
            "format": 6408,
            "internalFormat": 6408,
            "sampler": "sampler_default",
            "source": "image_HeartTexture"
        }
    }
}
