{
    "accessors": {
        "accessor_buffer_Untitled.011_0": {
            "bufferView": "bufferView_buffer_Untitled.011_0",
            "byteOffset": 0,
            "byteStride": 12,
            "componentType": 5126,
            "count": 539,
            "max": [
                510.1476135253906,
                29.796798706054688,
                409.0677185058594
            ],
            "min": [
                -12.12298583984375,
                -221.34640502929688,
                -405.6654052734375
            ],
            "type": "VEC3"
        },
        "accessor_buffer_Untitled.011_1": {
            "bufferView": "bufferView_buffer_Untitled.011_0",
            "byteOffset": 6468,
            "byteStride": 12,
            "componentType": 5126,
            "count": 539,
            "max": [
                1.0,
                0.9832151532173157,
                1.0
            ],
            "min": [
                -1.0,
                -0.9831131100654602,
                -1.0
            ],
            "type": "VEC3"
        },
        "accessor_buffer_Untitled.011_2": {
            "bufferView": "bufferView_buffer_Untitled.011_0",
            "byteOffset": 12936,
            "byteStride": 8,
            "componentType": 5126,
            "count": 539,
            "max": [
                0.9817851781845093,
                0.9833787493407726
            ],
            "min": [
                0.012777573429048061,
                0.017717957496643066
            ],
            "type": "VEC2"
        },
        "accessor_buffer_Untitled.011_3": {
            "bufferView": "bufferView_buffer_Untitled.011_0",
            "byteOffset": 17248,
            "byteStride": 8,
            "componentType": 5126,
            "count": 539,
            "max": [
                0.9999738335609436,
                0.9999768567540741
            ],
            "min": [
                2.6155559680773877e-05,
                2.3126602172851562e-05
            ],
            "type": "VEC2"
        },
        "accessor_buffer_Untitled.011_4": {
            "bufferView": "bufferView_buffer_Untitled.011_1",
            "byteOffset": 0,
            "byteStride": 2,
            "componentType": 5123,
            "count": 1212,
            "max": [
                538
            ],
            "min": [
                0
            ],
            "type": "SCALAR"
        }
    },
    "asset": {
        "profile": {
            "api": "WebGL",
            "version": "1.0.3"
        },
        "version": "1.0"
    },
    "bufferViews": {
        "bufferView_buffer_Untitled.011_0": {
            "buffer": "buffer_combined",
            "byteLength": 21560,
            "byteOffset": 0,
            "target": 34962
        },
        "bufferView_buffer_Untitled.011_1": {
            "buffer": "buffer_combined",
            "byteLength": 2424,
            "byteOffset": 21560,
            "target": 34963
        }
    },
    "buffers": {
        "buffer_combined": {
            "byteLength": 23984,
            "type": "arraybuffer",
            "uri": "data:text/plain;base64,"
        }
    },
    "extensions": {
        "KHR_materials_common": {
            "lights": {}
        }
    },
    "extensionsUsed": [
        "KHR_materials_common"
    ],
    "images": {
        "image_WoodChestTop": {
            "uri": "WoodChestTop.jpg"
        }
    },
    "materials": {
        "material_ChestTop": {
            "extensions": {
                "KHR_materials_common": {
                    "technique": "PHONG",
                    "values": {
                        "ambient": [
                            1.0,
                            1.0,
                            1.0,
                            1.0
                        ],
                        "diffuse": "texture_ChestTopTex",
                        "doubleSided": false,
                        "emission": [
                            0.0,
                            0.0,
                            0.0,
                            1.0
                        ],
                        "shininess": 50,
                        "specular": [
                            0.5,
                            0.5,
                            0.5,
                            1.0
                        ],
                        "transparency": 1.0,
                        "transparent": false
                    }
                }
            },
            "name": "ChestTop"
        }
    },
    "meshes": {
        "mesh_Untitled.011": {
            "name": "Untitled.011",
            "primitives": [
                {
                    "attributes": {
                        "NORMAL": "accessor_buffer_Untitled.011_1",
                        "POSITION": "accessor_buffer_Untitled.011_0",
                        "TEXCOORD_0": "accessor_buffer_Untitled.011_2",
                        "TEXCOORD_1": "accessor_buffer_Untitled.011_3"
                    },
                    "indices": "accessor_buffer_Untitled.011_4",
                    "material": "material_ChestTop",
                    "mode": 4
                }
            ]
        }
    },
    "nodes": {
        "node_Cylinder009.004": {
            "children": [],
            "matrix": [
                9.043643331096973e-06,
                -0.000983073259703815,
                0.00018298959184903651,
                0.0,
                1.1150087431133215e-07,
                0.00018299807561561465,
                0.0009831133065745234,
                0.0,
                -0.0009999593021348119,
                -8.8705228336039e-06,
                1.7645828620516113e-06,
                0.0,
                0.0,
                0.24561890959739685,
                0.47179409861564636,
                1.0
            ],
            "meshes": [
                "mesh_Untitled.011"
            ],
            "name": "Cylinder009.004"
        },
        "node_scene_Scene_root": {
            "children": [
                "node_Cylinder009.004"
            ],
            "matrix": [
                1.0,
                0.0,
                0.0,
                0.0,
                0.0,
                0.0,
                -1.0,
                0.0,
                0.0,
                1.0,
                0.0,
                0.0,
                0.0,
                0.0,
                0.0,
                1.0
            ],
            "name": "node_scene_Scene_root"
        }
    },
    "samplers": {
        "sampler_default": {}
    },
    "scene": "scene_Scene",
    "scenes": {
        "scene_Scene": {
            "extras": {
                "active_camera": null,
                "background_color": [
                    0.3031977415084839,
                    0.3031977415084839,
                    0.3031977415084839
                ],
                "frames_per_second": 30
            },
            "name": "Scene",
            "nodes": [
                "node_scene_Scene_root"
            ]
        }
    },
    "textures": {
        "texture_ChestTopTex": {
            "format": 6408,
            "internalFormat": 6408,
            "sampler": "sampler_default",
            "source": "image_WoodChestTop"
        }
    }
}
