{
    "accessors": {
        "accessor_buffer_Untitled.006_0": {
            "bufferView": "bufferView_buffer_Untitled.006_0",
            "byteOffset": 0,
            "byteStride": 12,
            "componentType": 5126,
            "count": 435,
            "max": [
                0.3994373381137848,
                0.24829839169979095,
                0.2606871426105499
            ],
            "min": [
                -0.40134552121162415,
                -0.27724316716194153,
                -0.18277722597122192
            ],
            "type": "VEC3"
        },
        "accessor_buffer_Untitled.006_1": {
            "bufferView": "bufferView_buffer_Untitled.006_0",
            "byteOffset": 5220,
            "byteStride": 12,
            "componentType": 5126,
            "count": 435,
            "max": [
                0.9999591112136841,
                0.9777846932411194,
                1.0
            ],
            "min": [
                -0.9999591708183289,
                -0.9999591112136841,
                -1.0
            ],
            "type": "VEC3"
        },
        "accessor_buffer_Untitled.006_2": {
            "bufferView": "bufferView_buffer_Untitled.006_0",
            "byteOffset": 10440,
            "byteStride": 8,
            "componentType": 5126,
            "count": 435,
            "max": [
                0.9999839067459106,
                0.9999853581221032
            ],
            "min": [
                1.6042229617596604e-05,
                1.4662742614746094e-05
            ],
            "type": "VEC2"
        },
        "accessor_buffer_Untitled.006_3": {
            "bufferView": "bufferView_buffer_Untitled.006_1",
            "byteOffset": 0,
            "byteStride": 2,
            "componentType": 5123,
            "count": 1236,
            "max": [
                434
            ],
            "min": [
                0
            ],
            "type": "SCALAR"
        }
    },
    "asset": {
        "profile": {
            "api": "WebGL",
            "version": "1.0.3"
        },
        "version": "1.0"
    },
    "bufferViews": {
        "bufferView_buffer_Untitled.006_0": {
            "buffer": "buffer_combined",
            "byteLength": 13920,
            "byteOffset": 0,
            "target": 34962
        },
        "bufferView_buffer_Untitled.006_1": {
            "buffer": "buffer_combined",
            "byteLength": 2472,
            "byteOffset": 13920,
            "target": 34963
        }
    },
    "buffers": {
        "buffer_combined": {
            "byteLength": 16392,
            "type": "arraybuffer",
            "uri": "data:text/plain;base64,"
        }
    },
    "extensions": {
        "KHR_materials_common": {
            "lights": {}
        }
    },
    "extensionsUsed": [
        "KHR_materials_common"
    ],
    "images": {
        "image_WoodChestBase": {
            "uri": "WoodChestBase.jpg"
        }
    },
    "materials": {
        "material_ChestBase": {
            "extensions": {
                "KHR_materials_common": {
                    "technique": "PHONG",
                    "values": {
                        "ambient": [
                            1.0,
                            1.0,
                            1.0,
                            1.0
                        ],
                        "diffuse": "texture_ChestBaseTex",
                        "doubleSided": false,
                        "emission": [
                            0.0,
                            0.0,
                            0.0,
                            1.0
                        ],
                        "shininess": 50,
                        "specular": [
                            0.5,
                            0.5,
                            0.5,
                            1.0
                        ],
                        "transparency": 1.0,
                        "transparent": false
                    }
                }
            },
            "name": "ChestBase"
        }
    },
    "meshes": {
        "mesh_Untitled.006": {
            "name": "Untitled.006",
            "primitives": [
                {
                    "attributes": {
                        "NORMAL": "accessor_buffer_Untitled.006_1",
                        "POSITION": "accessor_buffer_Untitled.006_0",
                        "TEXCOORD_0": "accessor_buffer_Untitled.006_2"
                    },
                    "indices": "accessor_buffer_Untitled.006_3",
                    "material": "material_ChestBase",
                    "mode": 4
                }
            ]
        }
    },
    "nodes": {
        "node_Box115": {
            "children": [],
            "matrix": [
                1.0,
                0.0,
                0.0,
                0.0,
                0.0,
                1.0,
                0.0,
                0.0,
                0.0,
                0.0,
                1.0,
                0.0,
                0.0,
                0.0,
                0.18988265097141266,
                1.0
            ],
            "meshes": [
                "mesh_Untitled.006"
            ],
            "name": "Box115"
        },
        "node_scene_Scene_root": {
            "children": [
                "node_Box115"
            ],
            "matrix": [
                1.0,
                0.0,
                0.0,
                0.0,
                0.0,
                0.0,
                -1.0,
                0.0,
                0.0,
                1.0,
                0.0,
                0.0,
                0.0,
                0.0,
                0.0,
                1.0
            ],
            "name": "node_scene_Scene_root"
        }
    },
    "samplers": {
        "sampler_default": {}
    },
    "scene": "scene_Scene",
    "scenes": {
        "scene_Scene": {
            "extras": {
                "active_camera": null,
                "background_color": [
                    0.3031977415084839,
                    0.3031977415084839,
                    0.3031977415084839
                ],
                "frames_per_second": 30
            },
            "name": "Scene",
            "nodes": [
                "node_scene_Scene_root"
            ]
        }
    },
    "textures": {
        "texture_ChestBaseTex": {
            "format": 6408,
            "internalFormat": 6408,
            "sampler": "sampler_default",
            "source": "image_WoodChestBase"
        }
    }
}
