{
    "accessors": {
        "accessor_buffer_Untitled.011_0": {
            "bufferView": "bufferView_buffer_Untitled.011_0",
            "byteOffset": 0,
            "byteStride": 12,
            "componentType": 5126,
            "count": 505,
            "max": [
                0.4057418704032898,
                0.007321695797145367,
                0.030475743114948273
            ],
            "min": [
                -0.4046984910964966,
                -0.5399901866912842,
                -0.12691430747509003
            ],
            "type": "VEC3"
        },
        "accessor_buffer_Untitled.011_1": {
            "bufferView": "bufferView_buffer_Untitled.011_0",
            "byteOffset": 6060,
            "byteStride": 12,
            "componentType": 5126,
            "count": 505,
            "max": [
                0.9999591708183289,
                0.9891524314880371,
                0.9999999403953552
            ],
            "min": [
                -0.9999591708183289,
                -0.99996018409729,
                -1.0
            ],
            "type": "VEC3"
        },
        "accessor_buffer_Untitled.011_2": {
            "bufferView": "bufferView_buffer_Untitled.011_0",
            "byteOffset": 12120,
            "byteStride": 8,
            "componentType": 5126,
            "count": 505,
            "max": [
                0.9999738335609436,
                0.9999768567540741
            ],
            "min": [
                2.6155559680773877e-05,
                2.3126602172851562e-05
            ],
            "type": "VEC2"
        },
        "accessor_buffer_Untitled.011_3": {
            "bufferView": "bufferView_buffer_Untitled.011_1",
            "byteOffset": 0,
            "byteStride": 2,
            "componentType": 5123,
            "count": 1212,
            "max": [
                504
            ],
            "min": [
                0
            ],
            "type": "SCALAR"
        }
    },
    "asset": {
        "profile": {
            "api": "WebGL",
            "version": "1.0.3"
        },
        "version": "1.0"
    },
    "bufferViews": {
        "bufferView_buffer_Untitled.011_0": {
            "buffer": "buffer_combined",
            "byteLength": 16160,
            "byteOffset": 0,
            "target": 34962
        },
        "bufferView_buffer_Untitled.011_1": {
            "buffer": "buffer_combined",
            "byteLength": 2424,
            "byteOffset": 16160,
            "target": 34963
        }
    },
    "buffers": {
        "buffer_combined": {
            "byteLength": 18584,
            "type": "arraybuffer",
            "uri": "data:text/plain;base64,"
        }
    },
    "extensions": {
        "KHR_materials_common": {
            "lights": {}
        }
    },
    "extensionsUsed": [
        "KHR_materials_common"
    ],
    "images": {
        "image_WoodChestTop": {
            "uri": "WoodChestTop.jpg"
        }
    },
    "materials": {
        "material_ChestTop": {
            "extensions": {
                "KHR_materials_common": {
                    "technique": "PHONG",
                    "values": {
                        "ambient": [
                            1.0,
                            1.0,
                            1.0,
                            1.0
                        ],
                        "diffuse": "texture_ChestTopTex",
                        "doubleSided": false,
                        "emission": [
                            0.0,
                            0.0,
                            0.0,
                            1.0
                        ],
                        "shininess": 50,
                        "specular": [
                            0.5,
                            0.5,
                            0.5,
                            1.0
                        ],
                        "transparency": 1.0,
                        "transparent": false
                    }
                }
            },
            "name": "ChestTop"
        }
    },
    "meshes": {
        "mesh_Untitled.011": {
            "name": "Untitled.011",
            "primitives": [
                {
                    "attributes": {
                        "NORMAL": "accessor_buffer_Untitled.011_1",
                        "POSITION": "accessor_buffer_Untitled.011_0",
                        "TEXCOORD_0": "accessor_buffer_Untitled.011_2"
                    },
                    "indices": "accessor_buffer_Untitled.011_3",
                    "material": "material_ChestTop",
                    "mode": 4
                }
            ]
        }
    },
    "nodes": {
        "node_Cylinder009.004": {
            "children": [],
            "matrix": [
                1.0,
                0.0,
                0.0,
                0.0,
                0.0,
                1.0,
                0.0,
                0.0,
                0.0,
                0.0,
                1.0,
                0.0,
                0.0,
                0.24561890959739685,
                0.47179409861564636,
                1.0
            ],
            "meshes": [
                "mesh_Untitled.011"
            ],
            "name": "Cylinder009.004"
        },
        "node_scene_Scene_root": {
            "children": [
                "node_Cylinder009.004"
            ],
            "matrix": [
                1.0,
                0.0,
                0.0,
                0.0,
                0.0,
                0.0,
                -1.0,
                0.0,
                0.0,
                1.0,
                0.0,
                0.0,
                0.0,
                0.0,
                0.0,
                1.0
            ],
            "name": "node_scene_Scene_root"
        }
    },
    "samplers": {
        "sampler_default": {}
    },
    "scene": "scene_Scene",
    "scenes": {
        "scene_Scene": {
            "extras": {
                "active_camera": null,
                "background_color": [
                    0.3031977415084839,
                    0.3031977415084839,
                    0.3031977415084839
                ],
                "frames_per_second": 30
            },
            "name": "Scene",
            "nodes": [
                "node_scene_Scene_root"
            ]
        }
    },
    "textures": {
        "texture_ChestTopTex": {
            "format": 6408,
            "internalFormat": 6408,
            "sampler": "sampler_default",
            "source": "image_WoodChestTop"
        }
    }
}
