{
    "accessors": {
        "accessor_buffer_Cylinder.014_0": {
            "bufferView": "bufferView_buffer_Cylinder.014_0",
            "byteOffset": 0,
            "byteStride": 12,
            "componentType": 5126,
            "count": 13120,
            "max": [
                0.6261492967605591,
                0.7763965725898743,
                2.8309831619262695
            ],
            "min": [
                -0.6403846740722656,
                -0.7742521166801453,
                -3.3553035259246826
            ],
            "type": "VEC3"
        },
        "accessor_buffer_Cylinder.014_1": {
            "bufferView": "bufferView_buffer_Cylinder.014_0",
            "byteOffset": 157440,
            "byteStride": 12,
            "componentType": 5126,
            "count": 13120,
            "max": [
                0.9975371360778809,
                0.9946025609970093,
                0.9831036925315857
            ],
            "min": [
                -0.9975369572639465,
                -0.9946019649505615,
                -0.9831041097640991
            ],
            "type": "VEC3"
        },
        "accessor_buffer_Cylinder.014_2": {
            "bufferView": "bufferView_buffer_Cylinder.014_0",
            "byteOffset": 314880,
            "byteStride": 8,
            "componentType": 5126,
            "count": 13120,
            "max": [
                1.0,
                1.0
            ],
            "min": [
                0.0,
                0.0
            ],
            "type": "VEC2"
        },
        "accessor_buffer_Cylinder.014_3": {
            "bufferView": "bufferView_buffer_Cylinder.014_1",
            "byteOffset": 0,
            "byteStride": 2,
            "componentType": 5123,
            "count": 19752,
            "max": [
                13119
            ],
            "min": [
                0
            ],
            "type": "SCALAR"
        }
    },
    "asset": {
        "profile": {
            "api": "WebGL",
            "version": "1.0.3"
        },
        "version": "1.0"
    },
    "bufferViews": {
        "bufferView_buffer_Cylinder.014_0": {
            "buffer": "buffer_combined",
            "byteLength": 419840,
            "byteOffset": 0,
            "target": 34962
        },
        "bufferView_buffer_Cylinder.014_1": {
            "buffer": "buffer_combined",
            "byteLength": 39504,
            "byteOffset": 419840,
            "target": 34963
        }
    },
    "buffers": {
        "buffer_combined": {
            "byteLength": 459344,
            "type": "arraybuffer",
            "uri": "data:text/plain;base64,"
        }
    },
    "extensions": {
        "KHR_materials_common": {
            "lights": {}
        }
    },
    "extensionsUsed": [
        "KHR_materials_common"
    ],
    "images": {
        "image_Glow": {
            "uri": "Glow.png"
        }
    },
    "materials": {
        "material_Glow": {
            "extensions": {
                "KHR_materials_common": {
                    "technique": "PHONG",
                    "values": {
                        "ambient": [
                            1.0,
                            1.0,
                            1.0,
                            1.0
                        ],
                        "diffuse": "texture_Glow",
                        "doubleSided": false,
                        "emission": [
                            0.0,
                            0.0,
                            0.0,
                            1.0
                        ],
                        "shininess": 50,
                        "specular": [
                            0.5,
                            0.5,
                            0.5,
                            1.0
                        ],
                        "transparency": 1.0,
                        "transparent": false
                    }
                }
            },
            "name": "Glow"
        }
    },
    "meshes": {
        "mesh_Cylinder.014": {
            "name": "Cylinder.014",
            "primitives": [
                {
                    "attributes": {
                        "NORMAL": "accessor_buffer_Cylinder.014_1",
                        "POSITION": "accessor_buffer_Cylinder.014_0",
                        "TEXCOORD_0": "accessor_buffer_Cylinder.014_2"
                    },
                    "indices": "accessor_buffer_Cylinder.014_3",
                    "material": "material_Glow",
                    "mode": 4
                }
            ]
        }
    },
    "nodes": {
        "node_Cylinder.020": {
            "children": [],
            "matrix": [
                1.0,
                0.0,
                0.0,
                0.0,
                0.0,
                1.0,
                0.0,
                0.0,
                0.0,
                0.0,
                1.0,
                0.0,
                -0.006487011909484863,
                0.188848078250885,
                4.59924840927124,
                1.0
            ],
            "meshes": [
                "mesh_Cylinder.014"
            ],
            "name": "Cylinder.020"
        },
        "node_scene_Scene_root": {
            "children": [
                "node_Cylinder.020"
            ],
            "matrix": [
                1.0,
                0.0,
                0.0,
                0.0,
                0.0,
                0.0,
                -1.0,
                0.0,
                0.0,
                1.0,
                0.0,
                0.0,
                0.0,
                0.0,
                0.0,
                1.0
            ],
            "name": "node_scene_Scene_root"
        }
    },
    "samplers": {
        "sampler_default": {}
    },
    "scene": "scene_Scene",
    "scenes": {
        "scene_Scene": {
            "extras": {
                "active_camera": null,
                "background_color": [
                    0.05087608844041824,
                    0.05087608844041824,
                    0.05087608844041824
                ],
                "frames_per_second": 24
            },
            "name": "Scene",
            "nodes": [
                "node_scene_Scene_root"
            ]
        }
    },
    "textures": {
        "texture_Glow": {
            "format": 6408,
            "internalFormat": 6408,
            "sampler": "sampler_default",
            "source": "image_Glow"
        }
    }
}
