{
    "accessors": {
        "accessor_buffer_Cylinder.011_0": {
            "bufferView": "bufferView_buffer_Cylinder.011_0",
            "byteOffset": 0,
            "byteStride": 12,
            "componentType": 5126,
            "count": 4400,
            "max": [
                8.416740417480469,
                3.213886022567749,
                3.4921627044677734
            ],
            "min": [
                -1.7368080615997314,
                -0.07828287035226822,
                -0.8965285420417786
            ],
            "type": "VEC3"
        },
        "accessor_buffer_Cylinder.011_1": {
            "bufferView": "bufferView_buffer_Cylinder.011_0",
            "byteOffset": 52800,
            "byteStride": 12,
            "componentType": 5126,
            "count": 4400,
            "max": [
                0.9944890141487122,
                0.9898951649665833,
                0.9998664855957031
            ],
            "min": [
                -0.9978626370429993,
                -0.9861906170845032,
                -0.9998343586921692
            ],
            "type": "VEC3"
        },
        "accessor_buffer_Cylinder.011_2": {
            "bufferView": "bufferView_buffer_Cylinder.011_0",
            "byteOffset": 105600,
            "byteStride": 8,
            "componentType": 5126,
            "count": 4400,
            "max": [
                0.9999997615814209,
                1.0
            ],
            "min": [
                0.0,
                0.0
            ],
            "type": "VEC2"
        },
        "accessor_buffer_Cylinder.011_3": {
            "bufferView": "bufferView_buffer_Cylinder.011_1",
            "byteOffset": 0,
            "byteStride": 2,
            "componentType": 5123,
            "count": 6654,
            "max": [
                4399
            ],
            "min": [
                0
            ],
            "type": "SCALAR"
        }
    },
    "asset": {
        "profile": {
            "api": "WebGL",
            "version": "1.0.3"
        },
        "version": "1.0"
    },
    "bufferViews": {
        "bufferView_buffer_Cylinder.011_0": {
            "buffer": "buffer_combined",
            "byteLength": 140800,
            "byteOffset": 0,
            "target": 34962
        },
        "bufferView_buffer_Cylinder.011_1": {
            "buffer": "buffer_combined",
            "byteLength": 13308,
            "byteOffset": 140800,
            "target": 34963
        }
    },
    "buffers": {
        "buffer_combined": {
            "byteLength": 154108,
            "type": "arraybuffer",
            "uri": "data:text/plain;base64,"
        }
    },
    "extensions": {
        "KHR_materials_common": {
            "lights": {}
        }
    },
    "extensionsUsed": [
        "KHR_materials_common"
    ],
    "images": {
        "image_Glow": {
            "uri": "Glow.png"
        }
    },
    "materials": {
        "material_Glow": {
            "extensions": {
                "KHR_materials_common": {
                    "technique": "PHONG",
                    "values": {
                        "ambient": [
                            1.0,
                            1.0,
                            1.0,
                            1.0
                        ],
                        "diffuse": "texture_Glow",
                        "doubleSided": false,
                        "emission": [
                            0.0,
                            0.0,
                            0.0,
                            1.0
                        ],
                        "shininess": 50,
                        "specular": [
                            0.5,
                            0.5,
                            0.5,
                            1.0
                        ],
                        "transparency": 1.0,
                        "transparent": false
                    }
                }
            },
            "name": "Glow"
        }
    },
    "meshes": {
        "mesh_Cylinder.011": {
            "name": "Cylinder.011",
            "primitives": [
                {
                    "attributes": {
                        "NORMAL": "accessor_buffer_Cylinder.011_1",
                        "POSITION": "accessor_buffer_Cylinder.011_0",
                        "TEXCOORD_0": "accessor_buffer_Cylinder.011_2"
                    },
                    "indices": "accessor_buffer_Cylinder.011_3",
                    "material": "material_Glow",
                    "mode": 4
                }
            ]
        }
    },
    "nodes": {
        "node_Cylinder.018": {
            "children": [],
            "matrix": [
                0.20465442538261414,
                -0.1697116494178772,
                0.264567494392395,
                0.0,
                0.21734873950481415,
                0.3043827712535858,
                0.02712322026491165,
                0.0,
                -0.6052681803703308,
                0.3693660497665405,
                0.7051377296447754,
                0.0,
                0.008830886334180832,
                -0.3819153308868408,
                2.6695573329925537,
                1.0
            ],
            "meshes": [
                "mesh_Cylinder.011"
            ],
            "name": "Cylinder.018"
        },
        "node_scene_Scene_root": {
            "children": [
                "node_Cylinder.018"
            ],
            "matrix": [
                1.0,
                0.0,
                0.0,
                0.0,
                0.0,
                0.0,
                -1.0,
                0.0,
                0.0,
                1.0,
                0.0,
                0.0,
                0.0,
                0.0,
                0.0,
                1.0
            ],
            "name": "node_scene_Scene_root"
        }
    },
    "samplers": {
        "sampler_default": {}
    },
    "scene": "scene_Scene",
    "scenes": {
        "scene_Scene": {
            "extras": {
                "active_camera": null,
                "background_color": [
                    0.05087608844041824,
                    0.05087608844041824,
                    0.05087608844041824
                ],
                "frames_per_second": 24
            },
            "name": "Scene",
            "nodes": [
                "node_scene_Scene_root"
            ]
        }
    },
    "textures": {
        "texture_Glow": {
            "format": 6408,
            "internalFormat": 6408,
            "sampler": "sampler_default",
            "source": "image_Glow"
        }
    }
}
