{
    "accessors": {
        "accessor_buffer_Cylinder.007_0": {
            "bufferView": "bufferView_buffer_Cylinder.007_0",
            "byteOffset": 0,
            "byteStride": 12,
            "componentType": 5126,
            "count": 1040,
            "max": [
                0.0443735271692276,
                2.444124221801758,
                0.5015609860420227
            ],
            "min": [
                -0.4406776428222656,
                -0.09653924405574799,
                -0.619371771812439
            ],
            "type": "VEC3"
        },
        "accessor_buffer_Cylinder.007_1": {
            "bufferView": "bufferView_buffer_Cylinder.007_0",
            "byteOffset": 12480,
            "byteStride": 12,
            "componentType": 5126,
            "count": 1040,
            "max": [
                0.9964380264282227,
                0.9954214096069336,
                0.9986974596977234
            ],
            "min": [
                -0.996688187122345,
                -0.9865978956222534,
                -0.9988224506378174
            ],
            "type": "VEC3"
        },
        "accessor_buffer_Cylinder.007_2": {
            "bufferView": "bufferView_buffer_Cylinder.007_0",
            "byteOffset": 24960,
            "byteStride": 8,
            "componentType": 5126,
            "count": 1040,
            "max": [
                0.9999997615814209,
                1.0
            ],
            "min": [
                0.0,
                0.0
            ],
            "type": "VEC2"
        },
        "accessor_buffer_Cylinder.007_3": {
            "bufferView": "bufferView_buffer_Cylinder.007_1",
            "byteOffset": 0,
            "byteStride": 2,
            "componentType": 5123,
            "count": 1578,
            "max": [
                1039
            ],
            "min": [
                0
            ],
            "type": "SCALAR"
        },
        "accessor_buffer_Cylinder.009_0": {
            "bufferView": "bufferView_buffer_Cylinder.009_0",
            "byteOffset": 0,
            "byteStride": 12,
            "componentType": 5126,
            "count": 1296,
            "max": [
                0.09165842086076736,
                1.386963963508606,
                0.9266653656959534
            ],
            "min": [
                -0.7826533913612366,
                -0.1096021756529808,
                -0.7375141978263855
            ],
            "type": "VEC3"
        },
        "accessor_buffer_Cylinder.009_1": {
            "bufferView": "bufferView_buffer_Cylinder.009_0",
            "byteOffset": 15552,
            "byteStride": 12,
            "componentType": 5126,
            "count": 1296,
            "max": [
                0.9965904951095581,
                0.992949366569519,
                0.9873560070991516
            ],
            "min": [
                -0.9972788095474243,
                -0.993512749671936,
                -0.9919176697731018
            ],
            "type": "VEC3"
        },
        "accessor_buffer_Cylinder.009_2": {
            "bufferView": "bufferView_buffer_Cylinder.009_0",
            "byteOffset": 31104,
            "byteStride": 8,
            "componentType": 5126,
            "count": 1296,
            "max": [
                0.9999997615814209,
                1.0
            ],
            "min": [
                0.0,
                0.0
            ],
            "type": "VEC2"
        },
        "accessor_buffer_Cylinder.009_3": {
            "bufferView": "bufferView_buffer_Cylinder.009_1",
            "byteOffset": 0,
            "byteStride": 2,
            "componentType": 5123,
            "count": 1962,
            "max": [
                1295
            ],
            "min": [
                0
            ],
            "type": "SCALAR"
        },
        "accessor_buffer_Cylinder.010_0": {
            "bufferView": "bufferView_buffer_Cylinder.010_0",
            "byteOffset": 0,
            "byteStride": 12,
            "componentType": 5126,
            "count": 1040,
            "max": [
                0.07422687113285065,
                1.9602324962615967,
                0.42358526587486267
            ],
            "min": [
                -1.7360725402832031,
                -0.08660755306482315,
                -0.7935494184494019
            ],
            "type": "VEC3"
        },
        "accessor_buffer_Cylinder.010_1": {
            "bufferView": "bufferView_buffer_Cylinder.010_0",
            "byteOffset": 12480,
            "byteStride": 12,
            "componentType": 5126,
            "count": 1040,
            "max": [
                0.9882292747497559,
                0.9593368172645569,
                0.9988961219787598
            ],
            "min": [
                -0.9884762167930603,
                -0.9605387449264526,
                -0.9988410472869873
            ],
            "type": "VEC3"
        },
        "accessor_buffer_Cylinder.010_2": {
            "bufferView": "bufferView_buffer_Cylinder.010_0",
            "byteOffset": 24960,
            "byteStride": 8,
            "componentType": 5126,
            "count": 1040,
            "max": [
                0.9999997615814209,
                1.0
            ],
            "min": [
                0.0,
                0.0
            ],
            "type": "VEC2"
        },
        "accessor_buffer_Cylinder.010_3": {
            "bufferView": "bufferView_buffer_Cylinder.010_1",
            "byteOffset": 0,
            "byteStride": 2,
            "componentType": 5123,
            "count": 1578,
            "max": [
                1039
            ],
            "min": [
                0
            ],
            "type": "SCALAR"
        },
        "accessor_buffer_Cylinder.011_0": {
            "bufferView": "bufferView_buffer_Cylinder.011_0",
            "byteOffset": 0,
            "byteStride": 12,
            "componentType": 5126,
            "count": 1024,
            "max": [
                0.07442334294319153,
                2.348386287689209,
                0.4419313371181488
            ],
            "min": [
                -1.7368080615997314,
                -0.07828287035226822,
                -0.8965285420417786
            ],
            "type": "VEC3"
        },
        "accessor_buffer_Cylinder.011_1": {
            "bufferView": "bufferView_buffer_Cylinder.011_0",
            "byteOffset": 12288,
            "byteStride": 12,
            "componentType": 5126,
            "count": 1024,
            "max": [
                0.9879251718521118,
                0.9898951649665833,
                0.9978510737419128
            ],
            "min": [
                -0.9879786968231201,
                -0.9861906170845032,
                -0.9977471828460693
            ],
            "type": "VEC3"
        },
        "accessor_buffer_Cylinder.011_2": {
            "bufferView": "bufferView_buffer_Cylinder.011_0",
            "byteOffset": 24576,
            "byteStride": 8,
            "componentType": 5126,
            "count": 1024,
            "max": [
                0.738227367401123,
                1.0
            ],
            "min": [
                0.0,
                0.0
            ],
            "type": "VEC2"
        },
        "accessor_buffer_Cylinder.011_3": {
            "bufferView": "bufferView_buffer_Cylinder.011_1",
            "byteOffset": 0,
            "byteStride": 2,
            "componentType": 5123,
            "count": 1536,
            "max": [
                1023
            ],
            "min": [
                0
            ],
            "type": "SCALAR"
        }
    },
    "asset": {
        "profile": {
            "api": "WebGL",
            "version": "1.0.3"
        },
        "version": "1.0"
    },
    "bufferViews": {
        "bufferView_buffer_Cylinder.007_0": {
            "buffer": "buffer_combined",
            "byteLength": 33280,
            "byteOffset": 0,
            "target": 34962
        },
        "bufferView_buffer_Cylinder.007_1": {
            "buffer": "buffer_combined",
            "byteLength": 3156,
            "byteOffset": 33280,
            "target": 34963
        },
        "bufferView_buffer_Cylinder.009_0": {
            "buffer": "buffer_combined",
            "byteLength": 41472,
            "byteOffset": 36436,
            "target": 34962
        },
        "bufferView_buffer_Cylinder.009_1": {
            "buffer": "buffer_combined",
            "byteLength": 3924,
            "byteOffset": 77908,
            "target": 34963
        },
        "bufferView_buffer_Cylinder.010_0": {
            "buffer": "buffer_combined",
            "byteLength": 33280,
            "byteOffset": 81832,
            "target": 34962
        },
        "bufferView_buffer_Cylinder.010_1": {
            "buffer": "buffer_combined",
            "byteLength": 3156,
            "byteOffset": 115112,
            "target": 34963
        },
        "bufferView_buffer_Cylinder.011_0": {
            "buffer": "buffer_combined",
            "byteLength": 32768,
            "byteOffset": 118268,
            "target": 34962
        },
        "bufferView_buffer_Cylinder.011_1": {
            "buffer": "buffer_combined",
            "byteLength": 3072,
            "byteOffset": 151036,
            "target": 34963
        }
    },
    "buffers": {
        "buffer_combined": {
            "byteLength": 154108,
            "type": "arraybuffer",
            "uri": "data:text/plain;base64,"
        }
    },
    "extensions": {
        "KHR_materials_common": {
            "lights": {}
        }
    },
    "extensionsUsed": [
        "KHR_materials_common"
    ],
    "images": {
        "image_Glow": {
            "uri": "Glow.png"
        }
    },
    "materials": {
        "material_Glow": {
            "extensions": {
                "KHR_materials_common": {
                    "technique": "PHONG",
                    "values": {
                        "ambient": [
                            1.0,
                            1.0,
                            1.0,
                            1.0
                        ],
                        "diffuse": "texture_Glow",
                        "doubleSided": false,
                        "emission": [
                            0.0,
                            0.0,
                            0.0,
                            1.0
                        ],
                        "shininess": 50,
                        "specular": [
                            0.5,
                            0.5,
                            0.5,
                            1.0
                        ],
                        "transparency": 1.0,
                        "transparent": false
                    }
                }
            },
            "name": "Glow"
        }
    },
    "meshes": {
        "mesh_Cylinder.007": {
            "name": "Cylinder.007",
            "primitives": [
                {
                    "attributes": {
                        "NORMAL": "accessor_buffer_Cylinder.007_1",
                        "POSITION": "accessor_buffer_Cylinder.007_0",
                        "TEXCOORD_0": "accessor_buffer_Cylinder.007_2"
                    },
                    "indices": "accessor_buffer_Cylinder.007_3",
                    "material": "material_Glow",
                    "mode": 4
                }
            ]
        },
        "mesh_Cylinder.009": {
            "name": "Cylinder.009",
            "primitives": [
                {
                    "attributes": {
                        "NORMAL": "accessor_buffer_Cylinder.009_1",
                        "POSITION": "accessor_buffer_Cylinder.009_0",
                        "TEXCOORD_0": "accessor_buffer_Cylinder.009_2"
                    },
                    "indices": "accessor_buffer_Cylinder.009_3",
                    "material": "material_Glow",
                    "mode": 4
                }
            ]
        },
        "mesh_Cylinder.010": {
            "name": "Cylinder.010",
            "primitives": [
                {
                    "attributes": {
                        "NORMAL": "accessor_buffer_Cylinder.010_1",
                        "POSITION": "accessor_buffer_Cylinder.010_0",
                        "TEXCOORD_0": "accessor_buffer_Cylinder.010_2"
                    },
                    "indices": "accessor_buffer_Cylinder.010_3",
                    "material": "material_Glow",
                    "mode": 4
                }
            ]
        },
        "mesh_Cylinder.011": {
            "name": "Cylinder.011",
            "primitives": [
                {
                    "attributes": {
                        "NORMAL": "accessor_buffer_Cylinder.011_1",
                        "POSITION": "accessor_buffer_Cylinder.011_0",
                        "TEXCOORD_0": "accessor_buffer_Cylinder.011_2"
                    },
                    "indices": "accessor_buffer_Cylinder.011_3",
                    "material": "material_Glow",
                    "mode": 4
                }
            ]
        }
    },
    "nodes": {
        "node_Cylinder.007": {
            "children": [],
            "matrix": [
                0.2254796326160431,
                0.0,
                0.29973384737968445,
                0.0,
                0.0,
                0.3750000298023224,
                0.0,
                0.0,
                -0.7991299033164978,
                0.0,
                0.6011583805084229,
                0.0,
                0.374233603477478,
                -0.39821457862854004,
                5.546541213989258,
                1.0
            ],
            "meshes": [
                "mesh_Cylinder.007"
            ],
            "name": "Cylinder.007"
        },
        "node_Cylinder.014": {
            "children": [],
            "matrix": [
                0.07630198448896408,
                -0.05370330065488815,
                0.16267859935760498,
                0.0,
                0.10791753977537155,
                0.15332990884780884,
                0.0,
                0.0,
                -0.13488830626010895,
                0.09493787586688995,
                0.09460815787315369,
                0.0,
                -0.03370062634348869,
                -0.19087159633636475,
                7.275152683258057,
                1.0
            ],
            "meshes": [
                "mesh_Cylinder.009"
            ],
            "name": "Cylinder.014"
        },
        "node_Cylinder.017": {
            "children": [],
            "matrix": [
                0.2006818801164627,
                -0.19101674854755402,
                0.25282570719718933,
                0.0,
                0.23261557519435883,
                0.29193243384361267,
                0.035922981798648834,
                0.0,
                -0.5735375881195068,
                0.366874635219574,
                0.7324326634407043,
                0.0,
                0.13669827580451965,
                -0.347205251455307,
                4.278183937072754,
                1.0
            ],
            "meshes": [
                "mesh_Cylinder.010"
            ],
            "name": "Cylinder.017"
        },
        "node_Cylinder.018": {
            "children": [],
            "matrix": [
                0.20465442538261414,
                -0.1697116494178772,
                0.264567494392395,
                0.0,
                0.21734873950481415,
                0.3043827712535858,
                0.02712322026491165,
                0.0,
                -0.6052681803703308,
                0.3693660497665405,
                0.7051377296447754,
                0.0,
                0.008830886334180832,
                -0.3819153308868408,
                2.6695573329925537,
                1.0
            ],
            "meshes": [
                "mesh_Cylinder.011"
            ],
            "name": "Cylinder.018"
        },
        "node_scene_Scene_root": {
            "children": [
                "node_Cylinder.018",
                "node_Cylinder.017",
                "node_Cylinder.014",
                "node_Cylinder.007"
            ],
            "matrix": [
                1.0,
                0.0,
                0.0,
                0.0,
                0.0,
                0.0,
                -1.0,
                0.0,
                0.0,
                1.0,
                0.0,
                0.0,
                0.0,
                0.0,
                0.0,
                1.0
            ],
            "name": "node_scene_Scene_root"
        }
    },
    "samplers": {
        "sampler_default": {}
    },
    "scene": "scene_Scene",
    "scenes": {
        "scene_Scene": {
            "extras": {
                "active_camera": null,
                "background_color": [
                    0.05087608844041824,
                    0.05087608844041824,
                    0.05087608844041824
                ],
                "frames_per_second": 24
            },
            "name": "Scene",
            "nodes": [
                "node_scene_Scene_root"
            ]
        }
    },
    "textures": {
        "texture_Glow": {
            "format": 6408,
            "internalFormat": 6408,
            "sampler": "sampler_default",
            "source": "image_Glow"
        }
    }
}
