{
    "accessors": {
        "accessor_buffer_Cylinder.001_0": {
            "bufferView": "bufferView_buffer_Cylinder.001_0",
            "byteOffset": 0,
            "byteStride": 12,
            "componentType": 5126,
            "count": 2624,
            "max": [
                1.311736822128296,
                0.8851673603057861,
                0.911344051361084
            ],
            "min": [
                -1.3117367029190063,
                -0.8084239959716797,
                -2.092470169067383
            ],
            "type": "VEC3"
        },
        "accessor_buffer_Cylinder.001_1": {
            "bufferView": "bufferView_buffer_Cylinder.001_0",
            "byteOffset": 31488,
            "byteStride": 12,
            "componentType": 5126,
            "count": 2624,
            "max": [
                0.9994869828224182,
                0.9983302354812622,
                0.9991093873977661
            ],
            "min": [
                -0.999487042427063,
                -0.9981777667999268,
                -0.9991089701652527
            ],
            "type": "VEC3"
        },
        "accessor_buffer_Cylinder.001_2": {
            "bufferView": "bufferView_buffer_Cylinder.001_0",
            "byteOffset": 62976,
            "byteStride": 8,
            "componentType": 5126,
            "count": 2624,
            "max": [
                1.0,
                1.0
            ],
            "min": [
                0.0,
                0.0
            ],
            "type": "VEC2"
        },
        "accessor_buffer_Cylinder.001_3": {
            "bufferView": "bufferView_buffer_Cylinder.001_1",
            "byteOffset": 0,
            "byteStride": 2,
            "componentType": 5123,
            "count": 4008,
            "max": [
                2623
            ],
            "min": [
                0
            ],
            "type": "SCALAR"
        }
    },
    "asset": {
        "profile": {
            "api": "WebGL",
            "version": "1.0.3"
        },
        "version": "1.0"
    },
    "bufferViews": {
        "bufferView_buffer_Cylinder.001_0": {
            "buffer": "buffer_combined",
            "byteLength": 83968,
            "byteOffset": 0,
            "target": 34962
        },
        "bufferView_buffer_Cylinder.001_1": {
            "buffer": "buffer_combined",
            "byteLength": 8016,
            "byteOffset": 83968,
            "target": 34963
        }
    },
    "buffers": {
        "buffer_combined": {
            "byteLength": 91984,
            "type": "arraybuffer",
            "uri": "data:text/plain;base64,"
        }
    },
    "extensions": {
        "KHR_materials_common": {
            "lights": {}
        }
    },
    "extensionsUsed": [
        "KHR_materials_common"
    ],
    "images": {
        "image_MaleGlow": {
            "uri": "MaleGlow.png"
        }
    },
    "materials": {
        "material_Glow": {
            "extensions": {
                "KHR_materials_common": {
                    "technique": "PHONG",
                    "values": {
                        "ambient": [
                            1.0,
                            1.0,
                            1.0,
                            1.0
                        ],
                        "diffuse": "texture_Glow",
                        "doubleSided": false,
                        "emission": [
                            0.0,
                            0.0,
                            0.0,
                            1.0
                        ],
                        "shininess": 50,
                        "specular": [
                            0.5,
                            0.5,
                            0.5,
                            1.0
                        ],
                        "transparency": 1.0,
                        "transparent": false
                    }
                }
            },
            "name": "Glow"
        }
    },
    "meshes": {
        "mesh_Cylinder.001": {
            "name": "Cylinder.001",
            "primitives": [
                {
                    "attributes": {
                        "NORMAL": "accessor_buffer_Cylinder.001_1",
                        "POSITION": "accessor_buffer_Cylinder.001_0",
                        "TEXCOORD_0": "accessor_buffer_Cylinder.001_2"
                    },
                    "indices": "accessor_buffer_Cylinder.001_3",
                    "material": "material_Glow",
                    "mode": 4
                }
            ]
        }
    },
    "nodes": {
        "node_Cylinder.002": {
            "children": [],
            "matrix": [
                0.7501505017280579,
                0.0,
                0.0,
                0.0,
                0.0,
                0.7500000596046448,
                0.0,
                0.0,
                0.0,
                0.0,
                1.0,
                0.0,
                -2.205371856689453e-06,
                -0.1356707215309143,
                6.876982688903809,
                1.0
            ],
            "meshes": [
                "mesh_Cylinder.001"
            ],
            "name": "Cylinder.002"
        },
        "node_scene_Scene_root": {
            "children": [
                "node_Cylinder.002"
            ],
            "matrix": [
                1.0,
                0.0,
                0.0,
                0.0,
                0.0,
                0.0,
                -1.0,
                0.0,
                0.0,
                1.0,
                0.0,
                0.0,
                0.0,
                0.0,
                0.0,
                1.0
            ],
            "name": "node_scene_Scene_root"
        }
    },
    "samplers": {
        "sampler_default": {}
    },
    "scene": "scene_Scene",
    "scenes": {
        "scene_Scene": {
            "extras": {
                "active_camera": null,
                "background_color": [
                    0.05087608844041824,
                    0.05087608844041824,
                    0.05087608844041824
                ],
                "frames_per_second": 24
            },
            "name": "Scene",
            "nodes": [
                "node_scene_Scene_root"
            ]
        }
    },
    "textures": {
        "texture_Glow": {
            "format": 6408,
            "internalFormat": 6408,
            "sampler": "sampler_default",
            "source": "image_MaleGlow"
        }
    }
}
