{
    "accessors": {
        "accessor_buffer_Cylinder.008_Cylinder.001_0": {
            "bufferView": "bufferView_buffer_Cylinder.008_Cylinder.001_0",
            "byteOffset": 0,
            "byteStride": 12,
            "componentType": 5126,
            "count": 10658,
            "max": [
                0.1675499677658081,
                0.5119779706001282,
                0.09391607344150543
            ],
            "min": [
                -0.16753700375556946,
                -0.9238761067390442,
                -0.13812294602394104
            ],
            "type": "VEC3"
        },
        "accessor_buffer_Cylinder.008_Cylinder.001_1": {
            "bufferView": "bufferView_buffer_Cylinder.008_Cylinder.001_0",
            "byteOffset": 127896,
            "byteStride": 12,
            "componentType": 5126,
            "count": 10658,
            "max": [
                0.9996801018714905,
                0.9928104281425476,
                0.9991810321807861
            ],
            "min": [
                -0.9996798038482666,
                -1.0,
                -0.9993847012519836
            ],
            "type": "VEC3"
        },
        "accessor_buffer_Cylinder.008_Cylinder.001_2": {
            "bufferView": "bufferView_buffer_Cylinder.008_Cylinder.001_0",
            "byteOffset": 255792,
            "byteStride": 8,
            "componentType": 5126,
            "count": 10658,
            "max": [
                1.0,
                1.0
            ],
            "min": [
                0.0,
                0.0
            ],
            "type": "VEC2"
        },
        "accessor_buffer_Cylinder.008_Cylinder.001_3": {
            "bufferView": "bufferView_buffer_Cylinder.008_Cylinder.001_1",
            "byteOffset": 0,
            "byteStride": 2,
            "componentType": 5123,
            "count": 17184,
            "max": [
                10657
            ],
            "min": [
                0
            ],
            "type": "SCALAR"
        }
    },
    "asset": {
        "profile": {
            "api": "WebGL",
            "version": "1.0.3"
        },
        "version": "1.0"
    },
    "bufferViews": {
        "bufferView_buffer_Cylinder.008_Cylinder.001_0": {
            "buffer": "buffer_combined",
            "byteLength": 341056,
            "byteOffset": 0,
            "target": 34962
        },
        "bufferView_buffer_Cylinder.008_Cylinder.001_1": {
            "buffer": "buffer_combined",
            "byteLength": 34368,
            "byteOffset": 341056,
            "target": 34963
        }
    },
    "buffers": {
        "buffer_combined": {
            "byteLength": 375424,
            "type": "arraybuffer",
            "uri": "data:text/plain;base64,"
        }
    },
    "extensions": {
        "KHR_materials_common": {
            "lights": {}
        }
    },
    "extensionsUsed": [
        "KHR_materials_common"
    ],
    "images": {
        "image_Glow.png.002": {
            "uri": "Glow.png"
        }
    },
    "materials": {
        "material_Glow.002": {
            "extensions": {
                "KHR_materials_common": {
                    "technique": "PHONG",
                    "values": {
                        "ambient": [
                            1.0,
                            1.0,
                            1.0,
                            1.0
                        ],
                        "diffuse": "texture_Kd.002",
                        "doubleSided": false,
                        "emission": [
                            0.0,
                            0.0,
                            0.0,
                            1.0
                        ],
                        "shininess": 48,
                        "specular": [
                            0.5,
                            0.5,
                            0.5,
                            1.0
                        ],
                        "transparency": 1.0,
                        "transparent": true
                    }
                }
            },
            "name": "Glow.002"
        }
    },
    "meshes": {
        "mesh_Cylinder.008_Cylinder.001": {
            "name": "Cylinder.008_Cylinder.001",
            "primitives": [
                {
                    "attributes": {
                        "NORMAL": "accessor_buffer_Cylinder.008_Cylinder.001_1",
                        "POSITION": "accessor_buffer_Cylinder.008_Cylinder.001_0",
                        "TEXCOORD_0": "accessor_buffer_Cylinder.008_Cylinder.001_2"
                    },
                    "indices": "accessor_buffer_Cylinder.008_Cylinder.001_3",
                    "material": "material_Glow.002",
                    "mode": 4
                }
            ]
        }
    },
    "nodes": {
        "node_Cylinder.008_Cylinder.001": {
            "children": [],
            "matrix": [
                1.0,
                0.0,
                0.0,
                0.0,
                0.0,
                1.0,
                0.0,
                0.0,
                0.0,
                0.0,
                1.0,
                0.0,
                0.0,
                0.0,
                0.0,
                1.0
            ],
            "meshes": [
                "mesh_Cylinder.008_Cylinder.001"
            ],
            "name": "Cylinder.008_Cylinder.001"
        },
        "node_scene_Scene_root": {
            "children": [
                "node_Cylinder.008_Cylinder.001"
            ],
            "matrix": [
                1.0,
                0.0,
                0.0,
                0.0,
                0.0,
                0.0,
                -1.0,
                0.0,
                0.0,
                1.0,
                0.0,
                0.0,
                0.0,
                0.0,
                0.0,
                1.0
            ],
            "name": "node_scene_Scene_root"
        }
    },
    "samplers": {
        "sampler_default": {}
    },
    "scene": "scene_Scene",
    "scenes": {
        "scene_Scene": {
            "extras": {
                "active_camera": null,
                "background_color": [
                    0.05087608844041824,
                    0.05087608844041824,
                    0.05087608844041824
                ],
                "frames_per_second": 24
            },
            "name": "Scene",
            "nodes": [
                "node_scene_Scene_root"
            ]
        }
    },
    "textures": {
        "texture_Kd.002": {
            "format": 6408,
            "internalFormat": 6408,
            "sampler": "sampler_default",
            "source": "image_Glow.png.002"
        }
    }
}
