{
    "accessors": {
        "accessor_buffer_Cylinder.001_0": {
            "bufferView": "bufferView_buffer_Cylinder.001_0",
            "byteOffset": 0,
            "byteStride": 12,
            "componentType": 5126,
            "count": 11358,
            "max": [
                0.19679799675941467,
                0.4402100145816803,
                0.17072999477386475
            ],
            "min": [
                -0.19680200517177582,
                -0.8813179731369019,
                -0.10611200332641602
            ],
            "type": "VEC3"
        },
        "accessor_buffer_Cylinder.001_1": {
            "bufferView": "bufferView_buffer_Cylinder.001_0",
            "byteOffset": 136296,
            "byteStride": 12,
            "componentType": 5126,
            "count": 11358,
            "max": [
                0.999992311000824,
                1.0,
                0.9990531206130981
            ],
            "min": [
                -0.99998939037323,
                -0.998806893825531,
                -0.998802661895752
            ],
            "type": "VEC3"
        },
        "accessor_buffer_Cylinder.001_2": {
            "bufferView": "bufferView_buffer_Cylinder.001_0",
            "byteOffset": 272592,
            "byteStride": 8,
            "componentType": 5126,
            "count": 11358,
            "max": [
                1.0,
                1.0
            ],
            "min": [
                0.0,
                0.0
            ],
            "type": "VEC2"
        },
        "accessor_buffer_Cylinder.001_3": {
            "bufferView": "bufferView_buffer_Cylinder.001_1",
            "byteOffset": 0,
            "byteStride": 2,
            "componentType": 5123,
            "count": 18528,
            "max": [
                11357
            ],
            "min": [
                0
            ],
            "type": "SCALAR"
        }
    },
    "asset": {
        "profile": {
            "api": "WebGL",
            "version": "1.0.3"
        },
        "version": "1.0"
    },
    "bufferViews": {
        "bufferView_buffer_Cylinder.001_0": {
            "buffer": "buffer_combined",
            "byteLength": 363456,
            "byteOffset": 0,
            "target": 34962
        },
        "bufferView_buffer_Cylinder.001_1": {
            "buffer": "buffer_combined",
            "byteLength": 37056,
            "byteOffset": 363456,
            "target": 34963
        }
    },
    "buffers": {
        "buffer_combined": {
            "byteLength": 400512,
            "type": "arraybuffer",
            "uri": "data:text/plain;base64,"
        }
    },
    "extensions": {
        "KHR_materials_common": {
            "lights": {}
        }
    },
    "extensionsUsed": [
        "KHR_materials_common"
    ],
    "images": {
        "image_Glow.png": {
            "uri": "Glow.png"
        }
    },
    "materials": {
        "material_Glow": {
            "extensions": {
                "KHR_materials_common": {
                    "technique": "PHONG",
                    "values": {
                        "ambient": [
                            1.0,
                            1.0,
                            1.0,
                            1.0
                        ],
                        "diffuse": "texture_Kd",
                        "doubleSided": false,
                        "emission": [
                            0.0,
                            0.0,
                            0.0,
                            1.0
                        ],
                        "shininess": 48,
                        "specular": [
                            0.5,
                            0.5,
                            0.5,
                            1.0
                        ],
                        "transparency": 1.0,
                        "transparent": true
                    }
                }
            },
            "name": "Glow"
        }
    },
    "meshes": {
        "mesh_Cylinder.001": {
            "name": "Cylinder.001",
            "primitives": [
                {
                    "attributes": {
                        "NORMAL": "accessor_buffer_Cylinder.001_1",
                        "POSITION": "accessor_buffer_Cylinder.001_0",
                        "TEXCOORD_0": "accessor_buffer_Cylinder.001_2"
                    },
                    "indices": "accessor_buffer_Cylinder.001_3",
                    "material": "material_Glow",
                    "mode": 4
                }
            ]
        }
    },
    "nodes": {
        "node_Cylinder.001": {
            "children": [],
            "matrix": [
                1.0,
                0.0,
                0.0,
                0.0,
                0.0,
                -1.6292068494294654e-07,
                1.0,
                0.0,
                0.0,
                -1.0,
                -1.6292068494294654e-07,
                0.0,
                0.0,
                0.0,
                0.0,
                1.0
            ],
            "meshes": [
                "mesh_Cylinder.001"
            ],
            "name": "Cylinder.001"
        },
        "node_scene_Scene_root": {
            "children": [
                "node_Cylinder.001"
            ],
            "matrix": [
                1.0,
                0.0,
                0.0,
                0.0,
                0.0,
                0.0,
                -1.0,
                0.0,
                0.0,
                1.0,
                0.0,
                0.0,
                0.0,
                0.0,
                0.0,
                1.0
            ],
            "name": "node_scene_Scene_root"
        }
    },
    "samplers": {
        "sampler_default": {}
    },
    "scene": "scene_Scene",
    "scenes": {
        "scene_Scene": {
            "extras": {
                "active_camera": null,
                "background_color": [
                    0.05087608844041824,
                    0.05087608844041824,
                    0.05087608844041824
                ],
                "frames_per_second": 24
            },
            "name": "Scene",
            "nodes": [
                "node_scene_Scene_root"
            ]
        }
    },
    "textures": {
        "texture_Kd": {
            "format": 6408,
            "internalFormat": 6408,
            "sampler": "sampler_default",
            "source": "image_Glow.png"
        }
    }
}
