{
    "accessors": {
        "accessor_buffer_Cylinder.031_0": {
            "bufferView": "bufferView_buffer_Cylinder.031_0",
            "byteOffset": 0,
            "byteStride": 12,
            "componentType": 5126,
            "count": 9088,
            "max": [
                0.9972337484359741,
                0.24500411748886108,
                0.7252546548843384
            ],
            "min": [
                -0.9125247001647949,
                -0.5148152112960815,
                -1.3383278846740723
            ],
            "type": "VEC3"
        },
        "accessor_buffer_Cylinder.031_1": {
            "bufferView": "bufferView_buffer_Cylinder.031_0",
            "byteOffset": 109056,
            "byteStride": 12,
            "componentType": 5126,
            "count": 9088,
            "max": [
                0.9994519948959351,
                0.9965874552726746,
                0.9999726414680481
            ],
            "min": [
                -0.9978487491607666,
                -0.9963403344154358,
                -0.9999725818634033
            ],
            "type": "VEC3"
        },
        "accessor_buffer_Cylinder.031_2": {
            "bufferView": "bufferView_buffer_Cylinder.031_0",
            "byteOffset": 218112,
            "byteStride": 8,
            "componentType": 5126,
            "count": 9088,
            "max": [
                1.0,
                1.0
            ],
            "min": [
                0.0,
                0.0
            ],
            "type": "VEC2"
        },
        "accessor_buffer_Cylinder.031_3": {
            "bufferView": "bufferView_buffer_Cylinder.031_1",
            "byteOffset": 0,
            "byteStride": 2,
            "componentType": 5123,
            "count": 13920,
            "max": [
                9087
            ],
            "min": [
                0
            ],
            "type": "SCALAR"
        }
    },
    "asset": {
        "profile": {
            "api": "WebGL",
            "version": "1.0.3"
        },
        "version": "1.0"
    },
    "bufferViews": {
        "bufferView_buffer_Cylinder.031_0": {
            "buffer": "buffer_combined",
            "byteLength": 290816,
            "byteOffset": 0,
            "target": 34962
        },
        "bufferView_buffer_Cylinder.031_1": {
            "buffer": "buffer_combined",
            "byteLength": 27840,
            "byteOffset": 290816,
            "target": 34963
        }
    },
    "buffers": {
        "buffer_combined": {
            "byteLength": 318656,
            "type": "arraybuffer",
            "uri": "data:text/plain;base64,"
        }
    },
    "extensions": {
        "KHR_materials_common": {
            "lights": {}
        }
    },
    "extensionsUsed": [
        "KHR_materials_common"
    ],
    "images": {
        "image_Glow": {
            "uri": "Glow.png"
        }
    },
    "materials": {
        "material_Glow": {
            "extensions": {
                "KHR_materials_common": {
                    "technique": "PHONG",
                    "values": {
                        "ambient": [
                            1.0,
                            1.0,
                            1.0,
                            1.0
                        ],
                        "diffuse": "texture_Glow",
                        "doubleSided": false,
                        "emission": [
                            0.0,
                            0.0,
                            0.0,
                            1.0
                        ],
                        "shininess": 50,
                        "specular": [
                            0.5,
                            0.5,
                            0.5,
                            1.0
                        ],
                        "transparency": 1.0,
                        "transparent": false
                    }
                }
            },
            "name": "Glow"
        }
    },
    "meshes": {
        "mesh_Cylinder.031": {
            "name": "Cylinder.031",
            "primitives": [
                {
                    "attributes": {
                        "NORMAL": "accessor_buffer_Cylinder.031_1",
                        "POSITION": "accessor_buffer_Cylinder.031_0",
                        "TEXCOORD_0": "accessor_buffer_Cylinder.031_2"
                    },
                    "indices": "accessor_buffer_Cylinder.031_3",
                    "material": "material_Glow",
                    "mode": 4
                }
            ]
        }
    },
    "nodes": {
        "node_Cylinder.011": {
            "children": [],
            "matrix": [
                0.20000000298023224,
                0.0,
                0.0,
                0.0,
                0.0,
                0.20000000298023224,
                0.0,
                0.0,
                0.0,
                0.0,
                0.20000000298023224,
                0.0,
                0.0,
                0.0,
                0.24794292449951172,
                1.0
            ],
            "meshes": [
                "mesh_Cylinder.031"
            ],
            "name": "Cylinder.011"
        },
        "node_scene_Scene_root": {
            "children": [
                "node_Cylinder.011"
            ],
            "matrix": [
                1.0,
                0.0,
                0.0,
                0.0,
                0.0,
                0.0,
                -1.0,
                0.0,
                0.0,
                1.0,
                0.0,
                0.0,
                0.0,
                0.0,
                0.0,
                1.0
            ],
            "name": "node_scene_Scene_root"
        }
    },
    "samplers": {
        "sampler_default": {}
    },
    "scene": "scene_Scene",
    "scenes": {
        "scene_Scene": {
            "extras": {
                "active_camera": null,
                "background_color": [
                    0.05087608844041824,
                    0.05087608844041824,
                    0.05087608844041824
                ],
                "frames_per_second": 24
            },
            "name": "Scene",
            "nodes": [
                "node_scene_Scene_root"
            ]
        }
    },
    "textures": {
        "texture_Glow": {
            "format": 6408,
            "internalFormat": 6408,
            "sampler": "sampler_default",
            "source": "image_Glow"
        }
    }
}
