{
    "accessors": {
        "accessor_buffer_Cylinder.001_0": {
            "bufferView": "bufferView_buffer_Cylinder.001_0",
            "byteOffset": 0,
            "byteStride": 12,
            "componentType": 5126,
            "count": 12160,
            "max": [
                0.9840081930160522,
                0.5786486864089966,
                2.1510517597198486
            ],
            "min": [
                -0.983991801738739,
                -0.8055578470230103,
                -4.456587791442871
            ],
            "type": "VEC3"
        },
        "accessor_buffer_Cylinder.001_1": {
            "bufferView": "bufferView_buffer_Cylinder.001_0",
            "byteOffset": 145920,
            "byteStride": 12,
            "componentType": 5126,
            "count": 12160,
            "max": [
                0.9999892711639404,
                0.9990481734275818,
                1.0
            ],
            "min": [
                -0.9999850988388062,
                -0.9988005757331848,
                -0.9988078474998474
            ],
            "type": "VEC3"
        },
        "accessor_buffer_Cylinder.001_2": {
            "bufferView": "bufferView_buffer_Cylinder.001_0",
            "byteOffset": 291840,
            "byteStride": 8,
            "componentType": 5126,
            "count": 12160,
            "max": [
                1.0,
                1.0
            ],
            "min": [
                0.0,
                0.0
            ],
            "type": "VEC2"
        },
        "accessor_buffer_Cylinder.001_3": {
            "bufferView": "bufferView_buffer_Cylinder.001_1",
            "byteOffset": 0,
            "byteStride": 2,
            "componentType": 5123,
            "count": 18528,
            "max": [
                12159
            ],
            "min": [
                0
            ],
            "type": "SCALAR"
        }
    },
    "asset": {
        "profile": {
            "api": "WebGL",
            "version": "1.0.3"
        },
        "version": "1.0"
    },
    "bufferViews": {
        "bufferView_buffer_Cylinder.001_0": {
            "buffer": "buffer_combined",
            "byteLength": 389120,
            "byteOffset": 0,
            "target": 34962
        },
        "bufferView_buffer_Cylinder.001_1": {
            "buffer": "buffer_combined",
            "byteLength": 37056,
            "byteOffset": 389120,
            "target": 34963
        }
    },
    "buffers": {
        "buffer_combined": {
            "byteLength": 426176,
            "type": "arraybuffer",
            "uri": "data:text/plain;base64,"
        }
    },
    "extensions": {
        "KHR_materials_common": {
            "lights": {}
        }
    },
    "extensionsUsed": [
        "KHR_materials_common"
    ],
    "images": {
        "image_Glow": {
            "uri": "Glow.png"
        }
    },
    "materials": {
        "material_Glow": {
            "extensions": {
                "KHR_materials_common": {
                    "technique": "PHONG",
                    "values": {
                        "ambient": [
                            1.0,
                            1.0,
                            1.0,
                            1.0
                        ],
                        "diffuse": "texture_Glow",
                        "doubleSided": false,
                        "emission": [
                            0.0,
                            0.0,
                            0.0,
                            1.0
                        ],
                        "shininess": 50,
                        "specular": [
                            0.5,
                            0.5,
                            0.5,
                            1.0
                        ],
                        "transparency": 1.0,
                        "transparent": false
                    }
                }
            },
            "name": "Glow"
        }
    },
    "meshes": {
        "mesh_Cylinder.001": {
            "name": "Cylinder.001",
            "primitives": [
                {
                    "attributes": {
                        "NORMAL": "accessor_buffer_Cylinder.001_1",
                        "POSITION": "accessor_buffer_Cylinder.001_0",
                        "TEXCOORD_0": "accessor_buffer_Cylinder.001_2"
                    },
                    "indices": "accessor_buffer_Cylinder.001_3",
                    "material": "material_Glow",
                    "mode": 4
                }
            ]
        }
    },
    "nodes": {
        "node_Cylinder.001": {
            "children": [],
            "matrix": [
                0.20000000298023224,
                0.0,
                0.0,
                0.0,
                0.0,
                0.20000000298023224,
                0.0,
                0.0,
                0.0,
                0.0,
                0.20000000298023224,
                0.0,
                0.0,
                0.054999999701976776,
                0.009999999776482582,
                1.0
            ],
            "meshes": [
                "mesh_Cylinder.001"
            ],
            "name": "Cylinder.001"
        },
        "node_scene_Scene_root": {
            "children": [
                "node_Cylinder.001"
            ],
            "matrix": [
                1.0,
                0.0,
                0.0,
                0.0,
                0.0,
                0.0,
                -1.0,
                0.0,
                0.0,
                1.0,
                0.0,
                0.0,
                0.0,
                0.0,
                0.0,
                1.0
            ],
            "name": "node_scene_Scene_root"
        }
    },
    "samplers": {
        "sampler_default": {}
    },
    "scene": "scene_Scene",
    "scenes": {
        "scene_Scene": {
            "extras": {
                "active_camera": null,
                "background_color": [
                    0.05087608844041824,
                    0.05087608844041824,
                    0.05087608844041824
                ],
                "frames_per_second": 24
            },
            "name": "Scene",
            "nodes": [
                "node_scene_Scene_root"
            ]
        }
    },
    "textures": {
        "texture_Glow": {
            "format": 6408,
            "internalFormat": 6408,
            "sampler": "sampler_default",
            "source": "image_Glow"
        }
    }
}
