{
    "accessors": {
        "accessor_buffer_Cylinder.006_0": {
            "bufferView": "bufferView_buffer_Cylinder.006_0",
            "byteOffset": 0,
            "byteStride": 12,
            "componentType": 5126,
            "count": 12160,
            "max": [
                1.7657777070999146,
                1.1572973728179932,
                0.31896695494651794
            ],
            "min": [
                -2.056729793548584,
                -1.6111156940460205,
                -0.6508432626724243
            ],
            "type": "VEC3"
        },
        "accessor_buffer_Cylinder.006_1": {
            "bufferView": "bufferView_buffer_Cylinder.006_0",
            "byteOffset": 145920,
            "byteStride": 12,
            "componentType": 5126,
            "count": 12160,
            "max": [
                0.9996981024742126,
                0.9981815814971924,
                0.9999964237213135
            ],
            "min": [
                -0.9996982216835022,
                -0.9912959337234497,
                -0.9999904632568359
            ],
            "type": "VEC3"
        },
        "accessor_buffer_Cylinder.006_2": {
            "bufferView": "bufferView_buffer_Cylinder.006_0",
            "byteOffset": 291840,
            "byteStride": 8,
            "componentType": 5126,
            "count": 12160,
            "max": [
                1.0,
                1.0
            ],
            "min": [
                0.0,
                0.0
            ],
            "type": "VEC2"
        },
        "accessor_buffer_Cylinder.006_3": {
            "bufferView": "bufferView_buffer_Cylinder.006_1",
            "byteOffset": 0,
            "byteStride": 2,
            "componentType": 5123,
            "count": 18528,
            "max": [
                12159
            ],
            "min": [
                0
            ],
            "type": "SCALAR"
        }
    },
    "asset": {
        "profile": {
            "api": "WebGL",
            "version": "1.0.3"
        },
        "version": "1.0"
    },
    "bufferViews": {
        "bufferView_buffer_Cylinder.006_0": {
            "buffer": "buffer_combined",
            "byteLength": 389120,
            "byteOffset": 0,
            "target": 34962
        },
        "bufferView_buffer_Cylinder.006_1": {
            "buffer": "buffer_combined",
            "byteLength": 37056,
            "byteOffset": 389120,
            "target": 34963
        }
    },
    "buffers": {
        "buffer_combined": {
            "byteLength": 426176,
            "type": "arraybuffer",
            "uri": "data:text/plain;base64,"
        }
    },
    "extensions": {
        "KHR_materials_common": {
            "lights": {}
        }
    },
    "extensionsUsed": [
        "KHR_materials_common"
    ],
    "images": {
        "image_Glow": {
            "uri": "Glow.png"
        }
    },
    "materials": {
        "material_Glow": {
            "extensions": {
                "KHR_materials_common": {
                    "technique": "PHONG",
                    "values": {
                        "ambient": [
                            1.0,
                            1.0,
                            1.0,
                            1.0
                        ],
                        "diffuse": "texture_Glow",
                        "doubleSided": false,
                        "emission": [
                            0.0,
                            0.0,
                            0.0,
                            1.0
                        ],
                        "shininess": 50,
                        "specular": [
                            0.5,
                            0.5,
                            0.5,
                            1.0
                        ],
                        "transparency": 1.0,
                        "transparent": false
                    }
                }
            },
            "name": "Glow"
        }
    },
    "meshes": {
        "mesh_Cylinder.006": {
            "name": "Cylinder.006",
            "primitives": [
                {
                    "attributes": {
                        "NORMAL": "accessor_buffer_Cylinder.006_1",
                        "POSITION": "accessor_buffer_Cylinder.006_0",
                        "TEXCOORD_0": "accessor_buffer_Cylinder.006_2"
                    },
                    "indices": "accessor_buffer_Cylinder.006_3",
                    "material": "material_Glow",
                    "mode": 4
                }
            ]
        }
    },
    "nodes": {
        "node_Cylinder.005": {
            "children": [],
            "matrix": [
                0.5141845941543579,
                0.0,
                -0.01843171752989292,
                0.0,
                0.0,
                0.5,
                0.0,
                0.0,
                0.24517323076725006,
                0.0,
                6.8395304679870605,
                0.0,
                -1.0401010513305664e-05,
                0.06356900930404663,
                5.637274265289307,
                1.0
            ],
            "meshes": [
                "mesh_Cylinder.006"
            ],
            "name": "Cylinder.005"
        },
        "node_scene_Scene_root": {
            "children": [
                "node_Cylinder.005"
            ],
            "matrix": [
                1.0,
                0.0,
                0.0,
                0.0,
                0.0,
                0.0,
                -1.0,
                0.0,
                0.0,
                1.0,
                0.0,
                0.0,
                0.0,
                0.0,
                0.0,
                1.0
            ],
            "name": "node_scene_Scene_root"
        }
    },
    "samplers": {
        "sampler_default": {}
    },
    "scene": "scene_Scene",
    "scenes": {
        "scene_Scene": {
            "extras": {
                "active_camera": null,
                "background_color": [
                    0.05087608844041824,
                    0.05087608844041824,
                    0.05087608844041824
                ],
                "frames_per_second": 24
            },
            "name": "Scene",
            "nodes": [
                "node_scene_Scene_root"
            ]
        }
    },
    "textures": {
        "texture_Glow": {
            "format": 6408,
            "internalFormat": 6408,
            "sampler": "sampler_default",
            "source": "image_Glow"
        }
    }
}
