{
    "accessors": {
        "accessor_buffer_Cylinder.012_0": {
            "bufferView": "bufferView_buffer_Cylinder.012_0",
            "byteOffset": 0,
            "byteStride": 12,
            "componentType": 5126,
            "count": 12160,
            "max": [
                3.3918771743774414,
                5.150283336639404,
                2.2168221473693848
            ],
            "min": [
                -1.8367444276809692,
                -0.0986785888671875,
                -1.7920970916748047
            ],
            "type": "VEC3"
        },
        "accessor_buffer_Cylinder.012_1": {
            "bufferView": "bufferView_buffer_Cylinder.012_0",
            "byteOffset": 145920,
            "byteStride": 12,
            "componentType": 5126,
            "count": 12160,
            "max": [
                0.9990766048431396,
                0.9997080564498901,
                0.9994995594024658
            ],
            "min": [
                -0.9990058541297913,
                -0.9997081160545349,
                -0.9994995594024658
            ],
            "type": "VEC3"
        },
        "accessor_buffer_Cylinder.012_2": {
            "bufferView": "bufferView_buffer_Cylinder.012_0",
            "byteOffset": 291840,
            "byteStride": 8,
            "componentType": 5126,
            "count": 12160,
            "max": [
                1.0,
                1.0
            ],
            "min": [
                0.0,
                0.0
            ],
            "type": "VEC2"
        },
        "accessor_buffer_Cylinder.012_3": {
            "bufferView": "bufferView_buffer_Cylinder.012_1",
            "byteOffset": 0,
            "byteStride": 2,
            "componentType": 5123,
            "count": 14520,
            "max": [
                12158
            ],
            "min": [
                0
            ],
            "type": "SCALAR"
        },
        "accessor_buffer_Cylinder.012_4": {
            "bufferView": "bufferView_buffer_Cylinder.012_2",
            "byteOffset": 0,
            "byteStride": 2,
            "componentType": 5123,
            "count": 4008,
            "max": [
                12159
            ],
            "min": [
                4
            ],
            "type": "SCALAR"
        }
    },
    "asset": {
        "profile": {
            "api": "WebGL",
            "version": "1.0.3"
        },
        "version": "1.0"
    },
    "bufferViews": {
        "bufferView_buffer_Cylinder.012_0": {
            "buffer": "buffer_combined",
            "byteLength": 389120,
            "byteOffset": 0,
            "target": 34962
        },
        "bufferView_buffer_Cylinder.012_1": {
            "buffer": "buffer_combined",
            "byteLength": 29040,
            "byteOffset": 389120,
            "target": 34963
        },
        "bufferView_buffer_Cylinder.012_2": {
            "buffer": "buffer_combined",
            "byteLength": 8016,
            "byteOffset": 418160,
            "target": 34963
        }
    },
    "buffers": {
        "buffer_combined": {
            "byteLength": 426176,
            "type": "arraybuffer",
            "uri": "data:text/plain;base64,"
        }
    },
    "extensions": {
        "KHR_materials_common": {
            "lights": {}
        }
    },
    "extensionsUsed": [
        "KHR_materials_common"
    ],
    "images": {
        "image_Glow": {
            "uri": "Glow.png"
        },
        "image_Glow.003": {
            "uri": "Glow.png"
        }
    },
    "materials": {
        "material_Glow": {
            "extensions": {
                "KHR_materials_common": {
                    "technique": "PHONG",
                    "values": {
                        "ambient": [
                            1.0,
                            1.0,
                            1.0,
                            1.0
                        ],
                        "diffuse": "texture_Glow",
                        "doubleSided": false,
                        "emission": [
                            0.0,
                            0.0,
                            0.0,
                            1.0
                        ],
                        "shininess": 50,
                        "specular": [
                            0.5,
                            0.5,
                            0.5,
                            1.0
                        ],
                        "transparency": 1.0,
                        "transparent": false
                    }
                }
            },
            "name": "Glow"
        },
        "material_Glow.003": {
            "extensions": {
                "KHR_materials_common": {
                    "technique": "PHONG",
                    "values": {
                        "ambient": [
                            1.0,
                            1.0,
                            1.0,
                            1.0
                        ],
                        "diffuse": "texture_Glow.001",
                        "doubleSided": false,
                        "emission": [
                            0.0,
                            0.0,
                            0.0,
                            1.0
                        ],
                        "shininess": 50,
                        "specular": [
                            0.5,
                            0.5,
                            0.5,
                            1.0
                        ],
                        "transparency": 1.0,
                        "transparent": false
                    }
                }
            },
            "name": "Glow.003"
        }
    },
    "meshes": {
        "mesh_Cylinder.012": {
            "name": "Cylinder.012",
            "primitives": [
                {
                    "attributes": {
                        "NORMAL": "accessor_buffer_Cylinder.012_1",
                        "POSITION": "accessor_buffer_Cylinder.012_0",
                        "TEXCOORD_0": "accessor_buffer_Cylinder.012_2"
                    },
                    "indices": "accessor_buffer_Cylinder.012_3",
                    "material": "material_Glow.003",
                    "mode": 4
                },
                {
                    "attributes": {
                        "NORMAL": "accessor_buffer_Cylinder.012_1",
                        "POSITION": "accessor_buffer_Cylinder.012_0",
                        "TEXCOORD_0": "accessor_buffer_Cylinder.012_2"
                    },
                    "indices": "accessor_buffer_Cylinder.012_4",
                    "material": "material_Glow",
                    "mode": 4
                }
            ]
        }
    },
    "nodes": {
        "node_Cylinder.016": {
            "children": [],
            "matrix": [
                0.3572399318218231,
                0.0,
                -0.11428499966859818,
                0.0,
                0.08724739402532578,
                0.24214576184749603,
                0.272723913192749,
                0.0,
                0.09837537258863449,
                -0.3817862868309021,
                0.30750855803489685,
                0.0,
                -0.4855065643787384,
                -0.5391692519187927,
                7.051229000091553,
                1.0
            ],
            "meshes": [
                "mesh_Cylinder.012"
            ],
            "name": "Cylinder.016"
        },
        "node_scene_Scene_root": {
            "children": [
                "node_Cylinder.016"
            ],
            "matrix": [
                1.0,
                0.0,
                0.0,
                0.0,
                0.0,
                0.0,
                -1.0,
                0.0,
                0.0,
                1.0,
                0.0,
                0.0,
                0.0,
                0.0,
                0.0,
                1.0
            ],
            "name": "node_scene_Scene_root"
        }
    },
    "samplers": {
        "sampler_default": {}
    },
    "scene": "scene_Scene",
    "scenes": {
        "scene_Scene": {
            "extras": {
                "active_camera": null,
                "background_color": [
                    0.05087608844041824,
                    0.05087608844041824,
                    0.05087608844041824
                ],
                "frames_per_second": 24
            },
            "name": "Scene",
            "nodes": [
                "node_scene_Scene_root"
            ]
        }
    },
    "textures": {
        "texture_Glow": {
            "format": 6408,
            "internalFormat": 6408,
            "sampler": "sampler_default",
            "source": "image_Glow"
        },
        "texture_Glow.001": {
            "format": 6408,
            "internalFormat": 6408,
            "sampler": "sampler_default",
            "source": "image_Glow.003"
        }
    }
}
