{
    "accessors": {
        "accessor_buffer_Cylinder.005_Cylinder.006_0": {
            "bufferView": "bufferView_buffer_Cylinder.005_Cylinder.006_0",
            "byteOffset": 0,
            "byteStride": 12,
            "componentType": 5126,
            "count": 11358,
            "max": [
                0.9840083718299866,
                2.151050567626953,
                0.8055579662322998
            ],
            "min": [
                -0.9839916229248047,
                -4.456589221954346,
                -0.5786490440368652
            ],
            "type": "VEC3"
        },
        "accessor_buffer_Cylinder.005_Cylinder.006_1": {
            "bufferView": "bufferView_buffer_Cylinder.005_Cylinder.006_0",
            "byteOffset": 136296,
            "byteStride": 12,
            "componentType": 5126,
            "count": 11358,
            "max": [
                0.9999892711639404,
                1.0,
                0.9988000392913818
            ],
            "min": [
                -0.9999857544898987,
                -0.998807430267334,
                -0.9990474581718445
            ],
            "type": "VEC3"
        },
        "accessor_buffer_Cylinder.005_Cylinder.006_2": {
            "bufferView": "bufferView_buffer_Cylinder.005_Cylinder.006_0",
            "byteOffset": 272592,
            "byteStride": 8,
            "componentType": 5126,
            "count": 11358,
            "max": [
                1.0,
                1.0
            ],
            "min": [
                0.0,
                0.0
            ],
            "type": "VEC2"
        },
        "accessor_buffer_Cylinder.005_Cylinder.006_3": {
            "bufferView": "bufferView_buffer_Cylinder.005_Cylinder.006_1",
            "byteOffset": 0,
            "byteStride": 2,
            "componentType": 5123,
            "count": 18528,
            "max": [
                11357
            ],
            "min": [
                0
            ],
            "type": "SCALAR"
        }
    },
    "asset": {
        "profile": {
            "api": "WebGL",
            "version": "1.0.3"
        },
        "version": "1.0"
    },
    "bufferViews": {
        "bufferView_buffer_Cylinder.005_Cylinder.006_0": {
            "buffer": "buffer_combined",
            "byteLength": 363456,
            "byteOffset": 0,
            "target": 34962
        },
        "bufferView_buffer_Cylinder.005_Cylinder.006_1": {
            "buffer": "buffer_combined",
            "byteLength": 37056,
            "byteOffset": 363456,
            "target": 34963
        }
    },
    "buffers": {
        "buffer_combined": {
            "byteLength": 400512,
            "type": "arraybuffer",
            "uri": "data:text/plain;base64,"
        }
    },
    "extensions": {
        "KHR_materials_common": {
            "lights": {}
        }
    },
    "extensionsUsed": [
        "KHR_materials_common"
    ],
    "images": {
        "image_Glow.png": {
            "uri": "Glow.png"
        }
    },
    "materials": {
        "material_Glow": {
            "extensions": {
                "KHR_materials_common": {
                    "technique": "PHONG",
                    "values": {
                        "ambient": [
                            1.0,
                            1.0,
                            1.0,
                            1.0
                        ],
                        "diffuse": "texture_Glow",
                        "doubleSided": false,
                        "emission": [
                            0.0,
                            0.0,
                            0.0,
                            1.0
                        ],
                        "shininess": 49,
                        "specular": [
                            0.5,
                            0.5,
                            0.5,
                            1.0
                        ],
                        "transparency": 1.0,
                        "transparent": true
                    }
                }
            },
            "name": "Glow"
        }
    },
    "meshes": {
        "mesh_Cylinder.005_Cylinder.006": {
            "name": "Cylinder.005_Cylinder.006",
            "primitives": [
                {
                    "attributes": {
                        "NORMAL": "accessor_buffer_Cylinder.005_Cylinder.006_1",
                        "POSITION": "accessor_buffer_Cylinder.005_Cylinder.006_0",
                        "TEXCOORD_0": "accessor_buffer_Cylinder.005_Cylinder.006_2"
                    },
                    "indices": "accessor_buffer_Cylinder.005_Cylinder.006_3",
                    "material": "material_Glow",
                    "mode": 4
                }
            ]
        }
    },
    "nodes": {
        "node_Cylinder.005_Cylinder.006": {
            "children": [],
            "matrix": [
                1.0,
                0.0,
                0.0,
                0.0,
                0.0,
                -1.6292068494294654e-07,
                1.0,
                0.0,
                0.0,
                -1.0,
                -1.6292068494294654e-07,
                0.0,
                -1.040040297084488e-05,
                0.06356804817914963,
                5.637275218963623,
                1.0
            ],
            "meshes": [
                "mesh_Cylinder.005_Cylinder.006"
            ],
            "name": "Cylinder.005_Cylinder.006"
        },
        "node_scene_Scene_root": {
            "children": [
                "node_Cylinder.005_Cylinder.006"
            ],
            "matrix": [
                1.0,
                0.0,
                0.0,
                0.0,
                0.0,
                0.0,
                -1.0,
                0.0,
                0.0,
                1.0,
                0.0,
                0.0,
                0.0,
                0.0,
                0.0,
                1.0
            ],
            "name": "node_scene_Scene_root"
        }
    },
    "samplers": {
        "sampler_default": {}
    },
    "scene": "scene_Scene",
    "scenes": {
        "scene_Scene": {
            "extras": {
                "active_camera": null,
                "background_color": [
                    0.05087608844041824,
                    0.05087608844041824,
                    0.05087608844041824
                ],
                "frames_per_second": 24
            },
            "name": "Scene",
            "nodes": [
                "node_scene_Scene_root"
            ]
        }
    },
    "textures": {
        "texture_Glow": {
            "format": 6408,
            "internalFormat": 6408,
            "sampler": "sampler_default",
            "source": "image_Glow.png"
        }
    }
}
