{
    "accessors": {
        "accessor_buffer_Cube.003_0": {
            "bufferView": "bufferView_buffer_Cube.003_0",
            "byteOffset": 0,
            "byteStride": 12,
            "componentType": 5126,
            "count": 6014,
            "max": [
                0.6968929767608643,
                1.2806669473648071,
                0.9793016910552979
            ],
            "min": [
                -0.6968908309936523,
                -0.06564231216907501,
                -1.4139689207077026
            ],
            "type": "VEC3"
        },
        "accessor_buffer_Cube.003_1": {
            "bufferView": "bufferView_buffer_Cube.003_0",
            "byteOffset": 72168,
            "byteStride": 12,
            "componentType": 5126,
            "count": 6014,
            "max": [
                1.0,
                0.9999406337738037,
                0.9901580810546875
            ],
            "min": [
                -1.0,
                -0.9999402165412903,
                -0.9897912740707397
            ],
            "type": "VEC3"
        },
        "accessor_buffer_Cube.003_2": {
            "bufferView": "bufferView_buffer_Cube.003_0",
            "byteOffset": 144336,
            "byteStride": 8,
            "componentType": 5126,
            "count": 6014,
            "max": [
                1.0,
                1.0
            ],
            "min": [
                0.0,
                0.0
            ],
            "type": "VEC2"
        },
        "accessor_buffer_Cube.003_3": {
            "bufferView": "bufferView_buffer_Cube.003_1",
            "byteOffset": 0,
            "byteStride": 2,
            "componentType": 5123,
            "count": 9120,
            "max": [
                6013
            ],
            "min": [
                0
            ],
            "type": "SCALAR"
        },
        "accessor_buffer_Cube.003_4": {
            "bufferView": "bufferView_buffer_Cube.003_2",
            "byteOffset": 0,
            "byteStride": 2,
            "componentType": 5123,
            "count": 90,
            "max": [
                5964
            ],
            "min": [
                56
            ],
            "type": "SCALAR"
        }
    },
    "asset": {
        "profile": {
            "api": "WebGL",
            "version": "1.0.3"
        },
        "version": "1.0"
    },
    "bufferViews": {
        "bufferView_buffer_Cube.003_0": {
            "buffer": "buffer_combined",
            "byteLength": 192448,
            "byteOffset": 0,
            "target": 34962
        },
        "bufferView_buffer_Cube.003_1": {
            "buffer": "buffer_combined",
            "byteLength": 18240,
            "byteOffset": 192448,
            "target": 34963
        },
        "bufferView_buffer_Cube.003_2": {
            "buffer": "buffer_combined",
            "byteLength": 180,
            "byteOffset": 210688,
            "target": 34963
        }
    },
    "buffers": {
        "buffer_combined": {
            "byteLength": 210868,
            "type": "arraybuffer",
            "uri": "data:text/plain;base64,"
        }
    },
    "extensions": {
        "KHR_materials_common": {
            "lights": {}
        }
    },
    "extensionsUsed": [
        "KHR_materials_common"
    ],
    "images": {
        "image_Glow": {
            "uri": "Glow.png"
        }
    },
    "materials": {
        "material_EmblemBase": {
            "extensions": {
                "KHR_materials_common": {
                    "technique": "PHONG",
                    "values": {
                        "ambient": [
                            1.0,
                            1.0,
                            1.0,
                            1.0
                        ],
                        "diffuse": [
                            0.018920255824923515,
                            0.018920255824923515,
                            0.018920255824923515,
                            1.0
                        ],
                        "doubleSided": false,
                        "emission": [
                            0.0,
                            0.0,
                            0.0,
                            1.0
                        ],
                        "shininess": 50,
                        "specular": [
                            0.5,
                            0.5,
                            0.5,
                            1.0
                        ],
                        "transparency": 1.0,
                        "transparent": false
                    }
                }
            },
            "name": "EmblemBase"
        },
        "material_Glow": {
            "extensions": {
                "KHR_materials_common": {
                    "technique": "PHONG",
                    "values": {
                        "ambient": [
                            1.0,
                            1.0,
                            1.0,
                            1.0
                        ],
                        "diffuse": "texture_Glow",
                        "doubleSided": false,
                        "emission": [
                            0.0,
                            0.0,
                            0.0,
                            1.0
                        ],
                        "shininess": 50,
                        "specular": [
                            0.5,
                            0.5,
                            0.5,
                            1.0
                        ],
                        "transparency": 1.0,
                        "transparent": false
                    }
                }
            },
            "name": "Glow"
        }
    },
    "meshes": {
        "mesh_Cube.003": {
            "name": "Cube.003",
            "primitives": [
                {
                    "attributes": {
                        "NORMAL": "accessor_buffer_Cube.003_1",
                        "POSITION": "accessor_buffer_Cube.003_0",
                        "TEXCOORD_0": "accessor_buffer_Cube.003_2"
                    },
                    "indices": "accessor_buffer_Cube.003_3",
                    "material": "material_Glow",
                    "mode": 4
                },
                {
                    "attributes": {
                        "NORMAL": "accessor_buffer_Cube.003_1",
                        "POSITION": "accessor_buffer_Cube.003_0",
                        "TEXCOORD_0": "accessor_buffer_Cube.003_2"
                    },
                    "indices": "accessor_buffer_Cube.003_4",
                    "material": "material_EmblemBase",
                    "mode": 4
                }
            ]
        }
    },
    "nodes": {
        "node_Cube.003": {
            "children": [],
            "matrix": [
                1.0,
                0.0,
                0.0,
                0.0,
                0.0,
                1.0,
                0.0,
                0.0,
                0.0,
                0.0,
                1.0,
                0.0,
                0.0,
                -0.8868893980979919,
                7.012802600860596,
                1.0
            ],
            "meshes": [
                "mesh_Cube.003"
            ],
            "name": "Cube.003"
        },
        "node_scene_Scene_root": {
            "children": [
                "node_Cube.003"
            ],
            "matrix": [
                1.0,
                0.0,
                0.0,
                0.0,
                0.0,
                0.0,
                -1.0,
                0.0,
                0.0,
                1.0,
                0.0,
                0.0,
                0.0,
                0.0,
                0.0,
                1.0
            ],
            "name": "node_scene_Scene_root"
        }
    },
    "samplers": {
        "sampler_default": {}
    },
    "scene": "scene_Scene",
    "scenes": {
        "scene_Scene": {
            "extras": {
                "active_camera": null,
                "background_color": [
                    0.05087608844041824,
                    0.05087608844041824,
                    0.05087608844041824
                ],
                "frames_per_second": 24
            },
            "name": "Scene",
            "nodes": [
                "node_scene_Scene_root"
            ]
        }
    },
    "textures": {
        "texture_Glow": {
            "format": 6408,
            "internalFormat": 6408,
            "sampler": "sampler_default",
            "source": "image_Glow"
        }
    }
}
