{
    "accessors": {
        "accessor_buffer_Cylinder.001_0": {
            "bufferView": "bufferView_buffer_Cylinder.001_0",
            "byteOffset": 0,
            "byteStride": 12,
            "componentType": 5126,
            "count": 68,
            "max": [
                0.2100847363471985,
                0.710066556930542,
                0.9999999403953552
            ],
            "min": [
                -0.12193846702575684,
                -0.699256181716919,
                -1.0
            ],
            "type": "VEC3"
        },
        "accessor_buffer_Cylinder.001_1": {
            "bufferView": "bufferView_buffer_Cylinder.001_0",
            "byteOffset": 816,
            "byteStride": 12,
            "componentType": 5126,
            "count": 68,
            "max": [
                0,
                0.6746418476104736,
                0
            ],
            "min": [
                -0.9987955093383789,
                -0.7390370965003967,
                0.0
            ],
            "type": "VEC3"
        },
        "accessor_buffer_Cylinder.001_2": {
            "bufferView": "bufferView_buffer_Cylinder.001_0",
            "byteOffset": 1632,
            "byteStride": 8,
            "componentType": 5126,
            "count": 68,
            "max": [
                1.0,
                1.0
            ],
            "min": [
                0.0,
                0.0
            ],
            "type": "VEC2"
        },
        "accessor_buffer_Cylinder.001_3": {
            "bufferView": "bufferView_buffer_Cylinder.001_1",
            "byteOffset": 0,
            "byteStride": 2,
            "componentType": 5123,
            "count": 102,
            "max": [
                67
            ],
            "min": [
                0
            ],
            "type": "SCALAR"
        }
    },
    "asset": {
        "profile": {
            "api": "WebGL",
            "version": "1.0.3"
        },
        "version": "1.0"
    },
    "bufferViews": {
        "bufferView_buffer_Cylinder.001_0": {
            "buffer": "buffer_combined",
            "byteLength": 2176,
            "byteOffset": 0,
            "target": 34962
        },
        "bufferView_buffer_Cylinder.001_1": {
            "buffer": "buffer_combined",
            "byteLength": 204,
            "byteOffset": 2176,
            "target": 34963
        }
    },
    "buffers": {
        "buffer_combined": {
            "byteLength": 2380,
            "type": "arraybuffer",
            "uri": "data:text/plain;base64,"
        }
    },
    "extensions": {
        "KHR_materials_common": {
            "lights": {}
        }
    },
    "extensionsUsed": [
        "KHR_materials_common"
    ],
    "images": {
        "image_Glow.png": {
            "uri": "Glow.png"
        }
    },
    "materials": {
        "material_Glow": {
            "extensions": {
                "KHR_materials_common": {
                    "technique": "PHONG",
                    "values": {
                        "ambient": [
                            1.0,
                            1.0,
                            1.0,
                            1.0
                        ],
                        "diffuse": "texture_Glow",
                        "doubleSided": false,
                        "emission": [
                            0.0,
                            0.0,
                            0.0,
                            1.0
                        ],
                        "shininess": 50,
                        "specular": [
                            0.5,
                            0.5,
                            0.5,
                            1.0
                        ],
                        "transparency": 1.0,
                        "transparent": false
                    }
                }
            },
            "name": "Glow"
        }
    },
    "meshes": {
        "mesh_Cylinder.001": {
            "name": "Cylinder.001",
            "primitives": [
                {
                    "attributes": {
                        "NORMAL": "accessor_buffer_Cylinder.001_1",
                        "POSITION": "accessor_buffer_Cylinder.001_0",
                        "TEXCOORD_0": "accessor_buffer_Cylinder.001_2"
                    },
                    "indices": "accessor_buffer_Cylinder.001_3",
                    "material": "material_Glow",
                    "mode": 4
                }
            ]
        }
    },
    "nodes": {
        "node_Cylinder.001": {
            "children": [],
            "matrix": [
                -1.2747677564620972,
                1.4156241416931152,
                0.0,
                0.0,
                -1.4156672954559326,
                -1.2748064994812012,
                0.0,
                0.0,
                0.0,
                0.0,
                1.3356165885925293,
                0.0,
                4.147808074951172,
                -4.224513053894043,
                1.1636459827423096,
                1.0
            ],
            "meshes": [
                "mesh_Cylinder.001"
            ],
            "name": "Cylinder.001"
        },
        "node_scene_Scene_root": {
            "children": [
                "node_Cylinder.001"
            ],
            "matrix": [
                1.0,
                0.0,
                0.0,
                0.0,
                0.0,
                0.0,
                -1.0,
                0.0,
                0.0,
                1.0,
                0.0,
                0.0,
                0.0,
                0.0,
                0.0,
                1.0
            ],
            "name": "node_scene_Scene_root"
        }
    },
    "samplers": {
        "sampler_default": {}
    },
    "scene": "scene_Scene",
    "scenes": {
        "scene_Scene": {
            "extras": {
                "active_camera": null,
                "background_color": [
                    0.05087608844041824,
                    0.05087608844041824,
                    0.05087608844041824
                ],
                "frames_per_second": 24
            },
            "name": "Scene",
            "nodes": [
                "node_scene_Scene_root"
            ]
        }
    },
    "textures": {
        "texture_Glow": {
            "format": 6408,
            "internalFormat": 6408,
            "sampler": "sampler_default",
            "source": "image_Glow.png"
        }
    }
}
