{
    "accessors": {
        "accessor_buffer_Cube.038_0": {
            "bufferView": "bufferView_buffer_Cube.038_0",
            "byteOffset": 0,
            "byteStride": 12,
            "componentType": 5126,
            "count": 680,
            "max": [
                25.68295669555664,
                9.683526992797852,
                1.0072147846221924
            ],
            "min": [
                -1.0,
                -0.8015928268432617,
                -1.0476124286651611
            ],
            "type": "VEC3"
        },
        "accessor_buffer_Cube.038_1": {
            "bufferView": "bufferView_buffer_Cube.038_0",
            "byteOffset": 8160,
            "byteStride": 12,
            "componentType": 5126,
            "count": 680,
            "max": [
                1.0,
                1.0,
                1.0
            ],
            "min": [
                -1.0,
                -1.0,
                -1.0
            ],
            "type": "VEC3"
        },
        "accessor_buffer_Cube.038_2": {
            "bufferView": "bufferView_buffer_Cube.038_0",
            "byteOffset": 16320,
            "byteStride": 8,
            "componentType": 5126,
            "count": 680,
            "max": [
                1.0,
                1.0
            ],
            "min": [
                0.0,
                0.0
            ],
            "type": "VEC2"
        },
        "accessor_buffer_Cube.038_3": {
            "bufferView": "bufferView_buffer_Cube.038_1",
            "byteOffset": 0,
            "byteStride": 2,
            "componentType": 5123,
            "count": 1020,
            "max": [
                679
            ],
            "min": [
                0
            ],
            "type": "SCALAR"
        }
    },
    "asset": {
        "profile": {
            "api": "WebGL",
            "version": "1.0.3"
        },
        "version": "1.0"
    },
    "bufferViews": {
        "bufferView_buffer_Cube.038_0": {
            "buffer": "buffer_combined",
            "byteLength": 21760,
            "byteOffset": 0,
            "target": 34962
        },
        "bufferView_buffer_Cube.038_1": {
            "buffer": "buffer_combined",
            "byteLength": 2040,
            "byteOffset": 21760,
            "target": 34963
        }
    },
    "buffers": {
        "buffer_combined": {
            "byteLength": 23800,
            "type": "arraybuffer",
            "uri": "data:text/plain;base64,"
        }
    },
    "extensions": {
        "KHR_materials_common": {
            "lights": {}
        }
    },
    "extensionsUsed": [
        "KHR_materials_common"
    ],
    "images": {
        "image_Glow.png": {
            "uri": "Glow.png"
        }
    },
    "materials": {
        "material_Glow": {
            "extensions": {
                "KHR_materials_common": {
                    "technique": "PHONG",
                    "values": {
                        "ambient": [
                            1.0,
                            1.0,
                            1.0,
                            1.0
                        ],
                        "diffuse": "texture_Glow",
                        "doubleSided": false,
                        "emission": [
                            0.0,
                            0.0,
                            0.0,
                            1.0
                        ],
                        "shininess": 50,
                        "specular": [
                            0.5,
                            0.5,
                            0.5,
                            1.0
                        ],
                        "transparency": 1.0,
                        "transparent": false
                    }
                }
            },
            "name": "Glow"
        }
    },
    "meshes": {
        "mesh_Cube.038": {
            "name": "Cube.038",
            "primitives": [
                {
                    "attributes": {
                        "NORMAL": "accessor_buffer_Cube.038_1",
                        "POSITION": "accessor_buffer_Cube.038_0",
                        "TEXCOORD_0": "accessor_buffer_Cube.038_2"
                    },
                    "indices": "accessor_buffer_Cube.038_3",
                    "material": "material_Glow",
                    "mode": 4
                }
            ]
        }
    },
    "nodes": {
        "node_Cube.027": {
            "children": [],
            "matrix": [
                1.7962811238447784e-09,
                0.0,
                0.023792464286088943,
                0.0,
                -0.03560831770300865,
                -1.5564890487596017e-09,
                2.688353317736869e-09,
                0.0,
                1.6107877254256664e-09,
                -0.03685052692890167,
                -1.2161108780592126e-16,
                0.0,
                0.060360170900821686,
                4.769827842712402,
                1.2473384141921997,
                1.0
            ],
            "meshes": [
                "mesh_Cube.038"
            ],
            "name": "Cube.027"
        },
        "node_scene_Scene_root": {
            "children": [
                "node_Cube.027"
            ],
            "matrix": [
                1.0,
                0.0,
                0.0,
                0.0,
                0.0,
                0.0,
                -1.0,
                0.0,
                0.0,
                1.0,
                0.0,
                0.0,
                0.0,
                0.0,
                0.0,
                1.0
            ],
            "name": "node_scene_Scene_root"
        }
    },
    "samplers": {
        "sampler_default": {}
    },
    "scene": "scene_Scene",
    "scenes": {
        "scene_Scene": {
            "extras": {
                "active_camera": null,
                "background_color": [
                    0.05087608844041824,
                    0.05087608844041824,
                    0.05087608844041824
                ],
                "frames_per_second": 24
            },
            "name": "Scene",
            "nodes": [
                "node_scene_Scene_root"
            ]
        }
    },
    "textures": {
        "texture_Glow": {
            "format": 6408,
            "internalFormat": 6408,
            "sampler": "sampler_default",
            "source": "image_Glow.png"
        }
    }
}
