{
    "accessors": {
        "accessor_buffer_Cube.037_0": {
            "bufferView": "bufferView_buffer_Cube.037_0",
            "byteOffset": 0,
            "byteStride": 12,
            "componentType": 5126,
            "count": 1154,
            "max": [
                25.648731231689453,
                1.0328178405761719,
                1.0072147846221924
            ],
            "min": [
                -1.0131492614746094,
                -8.377290725708008,
                -1.0476129055023193
            ],
            "type": "VEC3"
        },
        "accessor_buffer_Cube.037_1": {
            "bufferView": "bufferView_buffer_Cube.037_0",
            "byteOffset": 13848,
            "byteStride": 12,
            "componentType": 5126,
            "count": 1154,
            "max": [
                1.0,
                1.0,
                1.0
            ],
            "min": [
                -1.0,
                -1.0,
                -1.0
            ],
            "type": "VEC3"
        },
        "accessor_buffer_Cube.037_2": {
            "bufferView": "bufferView_buffer_Cube.037_0",
            "byteOffset": 27696,
            "byteStride": 8,
            "componentType": 5126,
            "count": 1154,
            "max": [
                1.0,
                1.0
            ],
            "min": [
                0.0,
                0.0
            ],
            "type": "VEC2"
        },
        "accessor_buffer_Cube.037_3": {
            "bufferView": "bufferView_buffer_Cube.037_1",
            "byteOffset": 0,
            "byteStride": 2,
            "componentType": 5123,
            "count": 1752,
            "max": [
                1153
            ],
            "min": [
                0
            ],
            "type": "SCALAR"
        }
    },
    "asset": {
        "profile": {
            "api": "WebGL",
            "version": "1.0.3"
        },
        "version": "1.0"
    },
    "bufferViews": {
        "bufferView_buffer_Cube.037_0": {
            "buffer": "buffer_combined",
            "byteLength": 36928,
            "byteOffset": 0,
            "target": 34962
        },
        "bufferView_buffer_Cube.037_1": {
            "buffer": "buffer_combined",
            "byteLength": 3504,
            "byteOffset": 36928,
            "target": 34963
        }
    },
    "buffers": {
        "buffer_combined": {
            "byteLength": 40432,
            "type": "arraybuffer",
            "uri": "data:text/plain;base64,"
        }
    },
    "extensions": {
        "KHR_materials_common": {
            "lights": {}
        }
    },
    "extensionsUsed": [
        "KHR_materials_common"
    ],
    "images": {
        "image_Glow_Red": {
            "uri": "Glow_Red.png"
        }
    },
    "materials": {
        "material_Glow Red": {
            "extensions": {
                "KHR_materials_common": {
                    "technique": "PHONG",
                    "values": {
                        "ambient": [
                            1.0,
                            1.0,
                            1.0,
                            1.0
                        ],
                        "diffuse": "texture_Glow_Red",
                        "doubleSided": false,
                        "emission": [
                            0.0,
                            0.0,
                            0.0,
                            1.0
                        ],
                        "shininess": 50,
                        "specular": [
                            0.5,
                            0.5,
                            0.5,
                            1.0
                        ],
                        "transparency": 1.0,
                        "transparent": false
                    }
                }
            },
            "name": "Glow Red"
        }
    },
    "meshes": {
        "mesh_Cube.037": {
            "name": "Cube.037",
            "primitives": [
                {
                    "attributes": {
                        "NORMAL": "accessor_buffer_Cube.037_1",
                        "POSITION": "accessor_buffer_Cube.037_0",
                        "TEXCOORD_0": "accessor_buffer_Cube.037_2"
                    },
                    "indices": "accessor_buffer_Cube.037_3",
                    "material": "material_Glow Red",
                    "mode": 4
                }
            ]
        }
    },
    "nodes": {
        "node_Cube.026": {
            "children": [],
            "matrix": [
                1.7962811238447784e-09,
                0.0,
                0.023792464286088943,
                0.0,
                -0.03560831770300865,
                -1.5564890487596017e-09,
                2.688353317736869e-09,
                0.0,
                1.6107877254256664e-09,
                -0.03685052692890167,
                -1.2161108780592126e-16,
                0.0,
                0.09882018715143204,
                4.769827842712402,
                1.2473384141921997,
                1.0
            ],
            "meshes": [
                "mesh_Cube.037"
            ],
            "name": "Cube.026"
        },
        "node_scene_Scene_root": {
            "children": [
                "node_Cube.026"
            ],
            "matrix": [
                1.0,
                0.0,
                0.0,
                0.0,
                0.0,
                0.0,
                -1.0,
                0.0,
                0.0,
                1.0,
                0.0,
                0.0,
                0.0,
                0.0,
                0.0,
                1.0
            ],
            "name": "node_scene_Scene_root"
        }
    },
    "samplers": {
        "sampler_default": {}
    },
    "scene": "scene_Scene",
    "scenes": {
        "scene_Scene": {
            "extras": {
                "active_camera": null,
                "background_color": [
                    0.05087608844041824,
                    0.05087608844041824,
                    0.05087608844041824
                ],
                "frames_per_second": 24
            },
            "name": "Scene",
            "nodes": [
                "node_scene_Scene_root"
            ]
        }
    },
    "textures": {
        "texture_Glow_Red": {
            "format": 6408,
            "internalFormat": 6408,
            "sampler": "sampler_default",
            "source": "image_Glow_Red"
        }
    }
}
