{
    "accessors": {
        "accessor_buffer_Cube.015_0": {
            "bufferView": "bufferView_buffer_Cube.015_0",
            "byteOffset": 0,
            "byteStride": 12,
            "componentType": 5126,
            "count": 24,
            "max": [
                1.0,
                1.0,
                1.0
            ],
            "min": [
                -1.0,
                -1.0,
                -1.0
            ],
            "type": "VEC3"
        },
        "accessor_buffer_Cube.015_1": {
            "bufferView": "bufferView_buffer_Cube.015_0",
            "byteOffset": 288,
            "byteStride": 12,
            "componentType": 5126,
            "count": 24,
            "max": [
                1.0,
                1.0,
                1.0
            ],
            "min": [
                -1.0,
                -1.0,
                -1.0
            ],
            "type": "VEC3"
        },
        "accessor_buffer_Cube.015_2": {
            "bufferView": "bufferView_buffer_Cube.015_0",
            "byteOffset": 576,
            "byteStride": 8,
            "componentType": 5126,
            "count": 24,
            "max": [
                1.0,
                1.0
            ],
            "min": [
                0.0,
                5.960464477539063e-08
            ],
            "type": "VEC2"
        },
        "accessor_buffer_Cube.015_3": {
            "bufferView": "bufferView_buffer_Cube.015_1",
            "byteOffset": 0,
            "byteStride": 2,
            "componentType": 5123,
            "count": 36,
            "max": [
                23
            ],
            "min": [
                0
            ],
            "type": "SCALAR"
        }
    },
    "asset": {
        "profile": {
            "api": "WebGL",
            "version": "1.0.3"
        },
        "version": "1.0"
    },
    "bufferViews": {
        "bufferView_buffer_Cube.015_0": {
            "buffer": "buffer_combined",
            "byteLength": 768,
            "byteOffset": 0,
            "target": 34962
        },
        "bufferView_buffer_Cube.015_1": {
            "buffer": "buffer_combined",
            "byteLength": 72,
            "byteOffset": 768,
            "target": 34963
        }
    },
    "buffers": {
        "buffer_combined": {
            "byteLength": 840,
            "type": "arraybuffer",
            "uri": "data:text/plain;base64,"
        }
    },
    "extensions": {
        "KHR_materials_common": {
            "lights": {}
        }
    },
    "extensionsUsed": [
        "KHR_materials_common"
    ],
    "images": {
        "image_Ceiling": {
            "uri": ""
        }
    },
    "materials": {
        "material_Room_Ceiling": {
            "extensions": {
                "KHR_materials_common": {
                    "technique": "PHONG",
                    "values": {
                        "ambient": [
                            1.0,
                            1.0,
                            1.0,
                            1.0
                        ],
                        "diffuse": "texture_Room_Ceiling",
                        "doubleSided": false,
                        "emission": [
                            0.0,
                            0.0,
                            0.0,
                            1.0
                        ],
                        "shininess": 50,
                        "specular": [
                            0.5,
                            0.5,
                            0.5,
                            1.0
                        ],
                        "transparency": 1.0,
                        "transparent": false
                    }
                }
            },
            "name": "Room_Ceiling"
        }
    },
    "meshes": {
        "mesh_Cube.015": {
            "name": "Cube.015",
            "primitives": [
                {
                    "attributes": {
                        "NORMAL": "accessor_buffer_Cube.015_1",
                        "POSITION": "accessor_buffer_Cube.015_0",
                        "TEXCOORD_0": "accessor_buffer_Cube.015_2"
                    },
                    "indices": "accessor_buffer_Cube.015_3",
                    "material": "material_Room_Ceiling",
                    "mode": 4
                }
            ]
        }
    },
    "nodes": {
        "node_Cube.015": {
            "children": [],
            "matrix": [
                5.0,
                0.0,
                0.0,
                0.0,
                0.0,
                5.0,
                0.0,
                0.0,
                0.0,
                0.0,
                0.10000000149011612,
                0.0,
                0.0,
                0.0,
                2.390446901321411,
                1.0
            ],
            "meshes": [
                "mesh_Cube.015"
            ],
            "name": "Cube.015"
        },
        "node_scene_Scene_root": {
            "children": [
                "node_Cube.015"
            ],
            "matrix": [
                1.0,
                0.0,
                0.0,
                0.0,
                0.0,
                0.0,
                -1.0,
                0.0,
                0.0,
                1.0,
                0.0,
                0.0,
                0.0,
                0.0,
                0.0,
                1.0
            ],
            "name": "node_scene_Scene_root"
        }
    },
    "samplers": {
        "sampler_default": {}
    },
    "scene": "scene_Scene",
    "scenes": {
        "scene_Scene": {
            "extras": {
                "active_camera": null,
                "background_color": [
                    0.05087608844041824,
                    0.05087608844041824,
                    0.05087608844041824
                ],
                "frames_per_second": 24
            },
            "name": "Scene",
            "nodes": [
                "node_scene_Scene_root"
            ]
        }
    },
    "textures": {
        "texture_Room_Ceiling": {
            "format": 6408,
            "internalFormat": 6408,
            "sampler": "sampler_default",
            "source": "image_Ceiling"
        }
    }
}
